<?xml version="1.0" encoding="utf-8" standalone="no"?>
<!DOCTYPE svg PUBLIC "-//W3C//DTD SVG 1.1//EN"
  "http://www.w3.org/Graphics/SVG/1.1/DTD/svg11.dtd">
<!-- Created with matplotlib (https://matplotlib.org/) -->
<svg height="345.6pt" version="1.1" viewBox="0 0 460.8 345.6" width="460.8pt" xmlns="http://www.w3.org/2000/svg" xmlns:xlink="http://www.w3.org/1999/xlink">
 <metadata>
  <rdf:RDF xmlns:cc="http://creativecommons.org/ns#" xmlns:dc="http://purl.org/dc/elements/1.1/" xmlns:rdf="http://www.w3.org/1999/02/22-rdf-syntax-ns#">
   <cc:Work>
    <dc:type rdf:resource="http://purl.org/dc/dcmitype/StillImage"/>
    <dc:date>2022-05-30T15:25:27.926943</dc:date>
    <dc:format>image/svg+xml</dc:format>
    <dc:creator>
     <cc:Agent>
      <dc:title>Matplotlib v3.3.4, https://matplotlib.org/</dc:title>
     </cc:Agent>
    </dc:creator>
   </cc:Work>
  </rdf:RDF>
 </metadata>
 <defs>
  <style type="text/css">*{stroke-linecap:butt;stroke-linejoin:round;}</style>
 </defs>
 <g id="figure_1">
  <g id="patch_1">
   <path d="M 0 345.6 
L 460.8 345.6 
L 460.8 0 
L 0 0 
z
" style="fill:#ffffff;"/>
  </g>
  <g id="patch_2">
   <path d="M 103.104 307.584 
L 369.216 307.584 
L 369.216 41.472 
L 103.104 41.472 
z
" style="fill:#ffffff;"/>
  </g>
  <g id="pane3d_1">
   <g id="patch_3">
    <path d="M 123.197291 241.969309 
L 211.076164 168.307495 
L 209.854564 62.073991 
L 117.770234 129.272941 
" style="fill:#f2f2f2;opacity:0.5;stroke:#f2f2f2;stroke-linejoin:miter;"/>
   </g>
  </g>
  <g id="pane3d_2">
   <g id="patch_4">
    <path d="M 211.076164 168.307495 
L 352.090401 209.294766 
L 357.122702 99.402171 
L 209.854564 62.073991 
" style="fill:#e6e6e6;opacity:0.5;stroke:#e6e6e6;stroke-linejoin:miter;"/>
   </g>
  </g>
  <g id="pane3d_3">
   <g id="patch_5">
    <path d="M 123.197291 241.969309 
L 272.679269 290.790123 
L 352.090401 209.294766 
L 211.076164 168.307495 
" style="fill:#ececec;opacity:0.5;stroke:#ececec;stroke-linejoin:miter;"/>
   </g>
  </g>
  <g id="axis3d_1">
   <g id="line2d_1">
    <path d="M 123.197291 241.969309 
L 272.679269 290.790123 
" style="fill:none;stroke:#000000;stroke-linecap:square;stroke-width:0.8;"/>
   </g>
   <g id="text_1">
    <!-- Life Cycle Cost -->
    <g transform="translate(141.463496 295.383535)rotate(-341.912962)scale(0.1 -0.1)">
     <defs>
      <path d="M 9.8125 72.90625 
L 19.671875 72.90625 
L 19.671875 8.296875 
L 55.171875 8.296875 
L 55.171875 0 
L 9.8125 0 
z
" id="DejaVuSans-76"/>
      <path d="M 9.421875 54.6875 
L 18.40625 54.6875 
L 18.40625 0 
L 9.421875 0 
z
M 9.421875 75.984375 
L 18.40625 75.984375 
L 18.40625 64.59375 
L 9.421875 64.59375 
z
" id="DejaVuSans-105"/>
      <path d="M 37.109375 75.984375 
L 37.109375 68.5 
L 28.515625 68.5 
Q 23.6875 68.5 21.796875 66.546875 
Q 19.921875 64.59375 19.921875 59.515625 
L 19.921875 54.6875 
L 34.71875 54.6875 
L 34.71875 47.703125 
L 19.921875 47.703125 
L 19.921875 0 
L 10.890625 0 
L 10.890625 47.703125 
L 2.296875 47.703125 
L 2.296875 54.6875 
L 10.890625 54.6875 
L 10.890625 58.5 
Q 10.890625 67.625 15.140625 71.796875 
Q 19.390625 75.984375 28.609375 75.984375 
z
" id="DejaVuSans-102"/>
      <path d="M 56.203125 29.59375 
L 56.203125 25.203125 
L 14.890625 25.203125 
Q 15.484375 15.921875 20.484375 11.0625 
Q 25.484375 6.203125 34.421875 6.203125 
Q 39.59375 6.203125 44.453125 7.46875 
Q 49.3125 8.734375 54.109375 11.28125 
L 54.109375 2.78125 
Q 49.265625 0.734375 44.1875 -0.34375 
Q 39.109375 -1.421875 33.890625 -1.421875 
Q 20.796875 -1.421875 13.15625 6.1875 
Q 5.515625 13.8125 5.515625 26.8125 
Q 5.515625 40.234375 12.765625 48.109375 
Q 20.015625 56 32.328125 56 
Q 43.359375 56 49.78125 48.890625 
Q 56.203125 41.796875 56.203125 29.59375 
z
M 47.21875 32.234375 
Q 47.125 39.59375 43.09375 43.984375 
Q 39.0625 48.390625 32.421875 48.390625 
Q 24.90625 48.390625 20.390625 44.140625 
Q 15.875 39.890625 15.1875 32.171875 
z
" id="DejaVuSans-101"/>
      <path id="DejaVuSans-32"/>
      <path d="M 64.40625 67.28125 
L 64.40625 56.890625 
Q 59.421875 61.53125 53.78125 63.8125 
Q 48.140625 66.109375 41.796875 66.109375 
Q 29.296875 66.109375 22.65625 58.46875 
Q 16.015625 50.828125 16.015625 36.375 
Q 16.015625 21.96875 22.65625 14.328125 
Q 29.296875 6.6875 41.796875 6.6875 
Q 48.140625 6.6875 53.78125 8.984375 
Q 59.421875 11.28125 64.40625 15.921875 
L 64.40625 5.609375 
Q 59.234375 2.09375 53.4375 0.328125 
Q 47.65625 -1.421875 41.21875 -1.421875 
Q 24.65625 -1.421875 15.125 8.703125 
Q 5.609375 18.84375 5.609375 36.375 
Q 5.609375 53.953125 15.125 64.078125 
Q 24.65625 74.21875 41.21875 74.21875 
Q 47.75 74.21875 53.53125 72.484375 
Q 59.328125 70.75 64.40625 67.28125 
z
" id="DejaVuSans-67"/>
      <path d="M 32.171875 -5.078125 
Q 28.375 -14.84375 24.75 -17.8125 
Q 21.140625 -20.796875 15.09375 -20.796875 
L 7.90625 -20.796875 
L 7.90625 -13.28125 
L 13.1875 -13.28125 
Q 16.890625 -13.28125 18.9375 -11.515625 
Q 21 -9.765625 23.484375 -3.21875 
L 25.09375 0.875 
L 2.984375 54.6875 
L 12.5 54.6875 
L 29.59375 11.921875 
L 46.6875 54.6875 
L 56.203125 54.6875 
z
" id="DejaVuSans-121"/>
      <path d="M 48.78125 52.59375 
L 48.78125 44.1875 
Q 44.96875 46.296875 41.140625 47.34375 
Q 37.3125 48.390625 33.40625 48.390625 
Q 24.65625 48.390625 19.8125 42.84375 
Q 14.984375 37.3125 14.984375 27.296875 
Q 14.984375 17.28125 19.8125 11.734375 
Q 24.65625 6.203125 33.40625 6.203125 
Q 37.3125 6.203125 41.140625 7.25 
Q 44.96875 8.296875 48.78125 10.40625 
L 48.78125 2.09375 
Q 45.015625 0.34375 40.984375 -0.53125 
Q 36.96875 -1.421875 32.421875 -1.421875 
Q 20.0625 -1.421875 12.78125 6.34375 
Q 5.515625 14.109375 5.515625 27.296875 
Q 5.515625 40.671875 12.859375 48.328125 
Q 20.21875 56 33.015625 56 
Q 37.15625 56 41.109375 55.140625 
Q 45.0625 54.296875 48.78125 52.59375 
z
" id="DejaVuSans-99"/>
      <path d="M 9.421875 75.984375 
L 18.40625 75.984375 
L 18.40625 0 
L 9.421875 0 
z
" id="DejaVuSans-108"/>
      <path d="M 30.609375 48.390625 
Q 23.390625 48.390625 19.1875 42.75 
Q 14.984375 37.109375 14.984375 27.296875 
Q 14.984375 17.484375 19.15625 11.84375 
Q 23.34375 6.203125 30.609375 6.203125 
Q 37.796875 6.203125 41.984375 11.859375 
Q 46.1875 17.53125 46.1875 27.296875 
Q 46.1875 37.015625 41.984375 42.703125 
Q 37.796875 48.390625 30.609375 48.390625 
z
M 30.609375 56 
Q 42.328125 56 49.015625 48.375 
Q 55.71875 40.765625 55.71875 27.296875 
Q 55.71875 13.875 49.015625 6.21875 
Q 42.328125 -1.421875 30.609375 -1.421875 
Q 18.84375 -1.421875 12.171875 6.21875 
Q 5.515625 13.875 5.515625 27.296875 
Q 5.515625 40.765625 12.171875 48.375 
Q 18.84375 56 30.609375 56 
z
" id="DejaVuSans-111"/>
      <path d="M 44.28125 53.078125 
L 44.28125 44.578125 
Q 40.484375 46.53125 36.375 47.5 
Q 32.28125 48.484375 27.875 48.484375 
Q 21.1875 48.484375 17.84375 46.4375 
Q 14.5 44.390625 14.5 40.28125 
Q 14.5 37.15625 16.890625 35.375 
Q 19.28125 33.59375 26.515625 31.984375 
L 29.59375 31.296875 
Q 39.15625 29.25 43.1875 25.515625 
Q 47.21875 21.78125 47.21875 15.09375 
Q 47.21875 7.46875 41.1875 3.015625 
Q 35.15625 -1.421875 24.609375 -1.421875 
Q 20.21875 -1.421875 15.453125 -0.5625 
Q 10.6875 0.296875 5.421875 2 
L 5.421875 11.28125 
Q 10.40625 8.6875 15.234375 7.390625 
Q 20.0625 6.109375 24.8125 6.109375 
Q 31.15625 6.109375 34.5625 8.28125 
Q 37.984375 10.453125 37.984375 14.40625 
Q 37.984375 18.0625 35.515625 20.015625 
Q 33.0625 21.96875 24.703125 23.78125 
L 21.578125 24.515625 
Q 13.234375 26.265625 9.515625 29.90625 
Q 5.8125 33.546875 5.8125 39.890625 
Q 5.8125 47.609375 11.28125 51.796875 
Q 16.75 56 26.8125 56 
Q 31.78125 56 36.171875 55.265625 
Q 40.578125 54.546875 44.28125 53.078125 
z
" id="DejaVuSans-115"/>
      <path d="M 18.3125 70.21875 
L 18.3125 54.6875 
L 36.8125 54.6875 
L 36.8125 47.703125 
L 18.3125 47.703125 
L 18.3125 18.015625 
Q 18.3125 11.328125 20.140625 9.421875 
Q 21.96875 7.515625 27.59375 7.515625 
L 36.8125 7.515625 
L 36.8125 0 
L 27.59375 0 
Q 17.1875 0 13.234375 3.875 
Q 9.28125 7.765625 9.28125 18.015625 
L 9.28125 47.703125 
L 2.6875 47.703125 
L 2.6875 54.6875 
L 9.28125 54.6875 
L 9.28125 70.21875 
z
" id="DejaVuSans-116"/>
     </defs>
     <use xlink:href="#DejaVuSans-76"/>
     <use x="55.712891" xlink:href="#DejaVuSans-105"/>
     <use x="83.496094" xlink:href="#DejaVuSans-102"/>
     <use x="118.701172" xlink:href="#DejaVuSans-101"/>
     <use x="180.224609" xlink:href="#DejaVuSans-32"/>
     <use x="212.011719" xlink:href="#DejaVuSans-67"/>
     <use x="281.835938" xlink:href="#DejaVuSans-121"/>
     <use x="341.015625" xlink:href="#DejaVuSans-99"/>
     <use x="395.996094" xlink:href="#DejaVuSans-108"/>
     <use x="423.779297" xlink:href="#DejaVuSans-101"/>
     <use x="485.302734" xlink:href="#DejaVuSans-32"/>
     <use x="517.089844" xlink:href="#DejaVuSans-67"/>
     <use x="586.914062" xlink:href="#DejaVuSans-111"/>
     <use x="648.095703" xlink:href="#DejaVuSans-115"/>
     <use x="700.195312" xlink:href="#DejaVuSans-116"/>
    </g>
    <!--  ($/house-yr) -->
    <g transform="translate(142.555019 307.519931)rotate(-341.912962)scale(0.1 -0.1)">
     <defs>
      <path d="M 31 75.875 
Q 24.46875 64.65625 21.28125 53.65625 
Q 18.109375 42.671875 18.109375 31.390625 
Q 18.109375 20.125 21.3125 9.0625 
Q 24.515625 -2 31 -13.1875 
L 23.1875 -13.1875 
Q 15.875 -1.703125 12.234375 9.375 
Q 8.59375 20.453125 8.59375 31.390625 
Q 8.59375 42.28125 12.203125 53.3125 
Q 15.828125 64.359375 23.1875 75.875 
z
" id="DejaVuSans-40"/>
      <path d="M 33.796875 -14.703125 
L 28.90625 -14.703125 
L 28.859375 0 
Q 23.734375 0.09375 18.609375 1.1875 
Q 13.484375 2.296875 8.296875 4.5 
L 8.296875 13.28125 
Q 13.28125 10.15625 18.375 8.5625 
Q 23.484375 6.984375 28.90625 6.9375 
L 28.90625 29.203125 
Q 18.109375 30.953125 13.203125 35.15625 
Q 8.296875 39.359375 8.296875 46.6875 
Q 8.296875 54.640625 13.625 59.21875 
Q 18.953125 63.8125 28.90625 64.5 
L 28.90625 75.984375 
L 33.796875 75.984375 
L 33.796875 64.65625 
Q 38.328125 64.453125 42.578125 63.6875 
Q 46.828125 62.9375 50.875 61.625 
L 50.875 53.078125 
Q 46.828125 55.125 42.546875 56.25 
Q 38.28125 57.375 33.796875 57.5625 
L 33.796875 36.71875 
Q 44.875 35.015625 50.09375 30.609375 
Q 55.328125 26.21875 55.328125 18.609375 
Q 55.328125 10.359375 49.78125 5.59375 
Q 44.234375 0.828125 33.796875 0.09375 
z
M 28.90625 37.59375 
L 28.90625 57.625 
Q 23.25 56.984375 20.265625 54.390625 
Q 17.28125 51.8125 17.28125 47.515625 
Q 17.28125 43.3125 20.03125 40.96875 
Q 22.796875 38.625 28.90625 37.59375 
z
M 33.796875 28.21875 
L 33.796875 7.078125 
Q 39.984375 7.90625 43.140625 10.59375 
Q 46.296875 13.28125 46.296875 17.671875 
Q 46.296875 21.96875 43.28125 24.5 
Q 40.28125 27.046875 33.796875 28.21875 
z
" id="DejaVuSans-36"/>
      <path d="M 25.390625 72.90625 
L 33.6875 72.90625 
L 8.296875 -9.28125 
L 0 -9.28125 
z
" id="DejaVuSans-47"/>
      <path d="M 54.890625 33.015625 
L 54.890625 0 
L 45.90625 0 
L 45.90625 32.71875 
Q 45.90625 40.484375 42.875 44.328125 
Q 39.84375 48.1875 33.796875 48.1875 
Q 26.515625 48.1875 22.3125 43.546875 
Q 18.109375 38.921875 18.109375 30.90625 
L 18.109375 0 
L 9.078125 0 
L 9.078125 75.984375 
L 18.109375 75.984375 
L 18.109375 46.1875 
Q 21.34375 51.125 25.703125 53.5625 
Q 30.078125 56 35.796875 56 
Q 45.21875 56 50.046875 50.171875 
Q 54.890625 44.34375 54.890625 33.015625 
z
" id="DejaVuSans-104"/>
      <path d="M 8.5 21.578125 
L 8.5 54.6875 
L 17.484375 54.6875 
L 17.484375 21.921875 
Q 17.484375 14.15625 20.5 10.265625 
Q 23.53125 6.390625 29.59375 6.390625 
Q 36.859375 6.390625 41.078125 11.03125 
Q 45.3125 15.671875 45.3125 23.6875 
L 45.3125 54.6875 
L 54.296875 54.6875 
L 54.296875 0 
L 45.3125 0 
L 45.3125 8.40625 
Q 42.046875 3.421875 37.71875 1 
Q 33.40625 -1.421875 27.6875 -1.421875 
Q 18.265625 -1.421875 13.375 4.4375 
Q 8.5 10.296875 8.5 21.578125 
z
M 31.109375 56 
z
" id="DejaVuSans-117"/>
      <path d="M 4.890625 31.390625 
L 31.203125 31.390625 
L 31.203125 23.390625 
L 4.890625 23.390625 
z
" id="DejaVuSans-45"/>
      <path d="M 41.109375 46.296875 
Q 39.59375 47.171875 37.8125 47.578125 
Q 36.03125 48 33.890625 48 
Q 26.265625 48 22.1875 43.046875 
Q 18.109375 38.09375 18.109375 28.8125 
L 18.109375 0 
L 9.078125 0 
L 9.078125 54.6875 
L 18.109375 54.6875 
L 18.109375 46.1875 
Q 20.953125 51.171875 25.484375 53.578125 
Q 30.03125 56 36.53125 56 
Q 37.453125 56 38.578125 55.875 
Q 39.703125 55.765625 41.0625 55.515625 
z
" id="DejaVuSans-114"/>
      <path d="M 8.015625 75.875 
L 15.828125 75.875 
Q 23.140625 64.359375 26.78125 53.3125 
Q 30.421875 42.28125 30.421875 31.390625 
Q 30.421875 20.453125 26.78125 9.375 
Q 23.140625 -1.703125 15.828125 -13.1875 
L 8.015625 -13.1875 
Q 14.5 -2 17.703125 9.0625 
Q 20.90625 20.125 20.90625 31.390625 
Q 20.90625 42.671875 17.703125 53.65625 
Q 14.5 64.65625 8.015625 75.875 
z
" id="DejaVuSans-41"/>
     </defs>
     <use xlink:href="#DejaVuSans-32"/>
     <use x="31.787109" xlink:href="#DejaVuSans-40"/>
     <use x="70.800781" xlink:href="#DejaVuSans-36"/>
     <use x="134.423828" xlink:href="#DejaVuSans-47"/>
     <use x="168.115234" xlink:href="#DejaVuSans-104"/>
     <use x="231.494141" xlink:href="#DejaVuSans-111"/>
     <use x="292.675781" xlink:href="#DejaVuSans-117"/>
     <use x="356.054688" xlink:href="#DejaVuSans-115"/>
     <use x="408.154297" xlink:href="#DejaVuSans-101"/>
     <use x="469.677734" xlink:href="#DejaVuSans-45"/>
     <use x="504.011719" xlink:href="#DejaVuSans-121"/>
     <use x="563.191406" xlink:href="#DejaVuSans-114"/>
     <use x="604.304688" xlink:href="#DejaVuSans-41"/>
    </g>
   </g>
   <g id="Line3DCollection_1">
    <path d="M 147.111072 249.77955 
L 233.719087 174.888899 
L 233.459812 68.057233 
" style="fill:none;stroke:#b0b0b0;stroke-width:0.8;"/>
    <path d="M 170.130061 257.297552 
L 255.484532 181.215254 
L 256.16537 73.81243 
" style="fill:none;stroke:#b0b0b0;stroke-width:0.8;"/>
    <path d="M 193.532847 264.940901 
L 277.58253 187.63827 
L 279.232981 79.659397 
" style="fill:none;stroke:#b0b0b0;stroke-width:0.8;"/>
    <path d="M 217.329108 272.71276 
L 300.02076 194.160177 
L 302.671374 85.600347 
" style="fill:none;stroke:#b0b0b0;stroke-width:0.8;"/>
    <path d="M 241.528853 280.616397 
L 322.807141 200.783279 
L 326.489561 91.637563 
" style="fill:none;stroke:#b0b0b0;stroke-width:0.8;"/>
    <path d="M 266.142431 288.655192 
L 345.949839 207.509947 
L 350.696849 97.773405 
" style="fill:none;stroke:#b0b0b0;stroke-width:0.8;"/>
   </g>
   <g id="xtick_1">
    <g id="line2d_2">
     <path d="M 147.865578 249.127122 
L 145.598804 251.08722 
" style="fill:none;stroke:#000000;stroke-linecap:square;stroke-width:0.8;"/>
    </g>
    <g id="text_2">
     <!-- 0.5 -->
     <g transform="translate(131.645446 273.191455)scale(0.1 -0.1)">
      <defs>
       <path d="M 31.78125 66.40625 
Q 24.171875 66.40625 20.328125 58.90625 
Q 16.5 51.421875 16.5 36.375 
Q 16.5 21.390625 20.328125 13.890625 
Q 24.171875 6.390625 31.78125 6.390625 
Q 39.453125 6.390625 43.28125 13.890625 
Q 47.125 21.390625 47.125 36.375 
Q 47.125 51.421875 43.28125 58.90625 
Q 39.453125 66.40625 31.78125 66.40625 
z
M 31.78125 74.21875 
Q 44.046875 74.21875 50.515625 64.515625 
Q 56.984375 54.828125 56.984375 36.375 
Q 56.984375 17.96875 50.515625 8.265625 
Q 44.046875 -1.421875 31.78125 -1.421875 
Q 19.53125 -1.421875 13.0625 8.265625 
Q 6.59375 17.96875 6.59375 36.375 
Q 6.59375 54.828125 13.0625 64.515625 
Q 19.53125 74.21875 31.78125 74.21875 
z
" id="DejaVuSans-48"/>
       <path d="M 10.6875 12.40625 
L 21 12.40625 
L 21 0 
L 10.6875 0 
z
" id="DejaVuSans-46"/>
       <path d="M 10.796875 72.90625 
L 49.515625 72.90625 
L 49.515625 64.59375 
L 19.828125 64.59375 
L 19.828125 46.734375 
Q 21.96875 47.46875 24.109375 47.828125 
Q 26.265625 48.1875 28.421875 48.1875 
Q 40.625 48.1875 47.75 41.5 
Q 54.890625 34.8125 54.890625 23.390625 
Q 54.890625 11.625 47.5625 5.09375 
Q 40.234375 -1.421875 26.90625 -1.421875 
Q 22.3125 -1.421875 17.546875 -0.640625 
Q 12.796875 0.140625 7.71875 1.703125 
L 7.71875 11.625 
Q 12.109375 9.234375 16.796875 8.0625 
Q 21.484375 6.890625 26.703125 6.890625 
Q 35.15625 6.890625 40.078125 11.328125 
Q 45.015625 15.765625 45.015625 23.390625 
Q 45.015625 31 40.078125 35.4375 
Q 35.15625 39.890625 26.703125 39.890625 
Q 22.75 39.890625 18.8125 39.015625 
Q 14.890625 38.140625 10.796875 36.28125 
z
" id="DejaVuSans-53"/>
      </defs>
      <use xlink:href="#DejaVuSans-48"/>
      <use x="63.623047" xlink:href="#DejaVuSans-46"/>
      <use x="95.410156" xlink:href="#DejaVuSans-53"/>
     </g>
    </g>
   </g>
   <g id="xtick_2">
    <g id="line2d_3">
     <path d="M 170.874149 256.634295 
L 168.638649 258.62695 
" style="fill:none;stroke:#000000;stroke-linecap:square;stroke-width:0.8;"/>
    </g>
    <g id="text_3">
     <!-- 1.0 -->
     <g transform="translate(154.68882 280.869019)scale(0.1 -0.1)">
      <defs>
       <path d="M 12.40625 8.296875 
L 28.515625 8.296875 
L 28.515625 63.921875 
L 10.984375 60.40625 
L 10.984375 69.390625 
L 28.421875 72.90625 
L 38.28125 72.90625 
L 38.28125 8.296875 
L 54.390625 8.296875 
L 54.390625 0 
L 12.40625 0 
z
" id="DejaVuSans-49"/>
      </defs>
      <use xlink:href="#DejaVuSans-49"/>
      <use x="63.623047" xlink:href="#DejaVuSans-46"/>
      <use x="95.410156" xlink:href="#DejaVuSans-48"/>
     </g>
    </g>
   </g>
   <g id="xtick_3">
    <g id="line2d_4">
     <path d="M 194.266062 264.266544 
L 192.063199 266.292573 
" style="fill:none;stroke:#000000;stroke-linecap:square;stroke-width:0.8;"/>
    </g>
    <g id="text_4">
     <!-- 1.5 -->
     <g transform="translate(178.117857 288.675078)scale(0.1 -0.1)">
      <use xlink:href="#DejaVuSans-49"/>
      <use x="63.623047" xlink:href="#DejaVuSans-46"/>
      <use x="95.410156" xlink:href="#DejaVuSans-53"/>
     </g>
    </g>
   </g>
   <g id="xtick_4">
    <g id="line2d_5">
     <path d="M 218.05098 272.027022 
L 215.882173 274.087271 
" style="fill:none;stroke:#000000;stroke-linecap:square;stroke-width:0.8;"/>
    </g>
    <g id="text_5">
     <!-- 2.0 -->
     <g transform="translate(201.942321 296.612884)scale(0.1 -0.1)">
      <defs>
       <path d="M 19.1875 8.296875 
L 53.609375 8.296875 
L 53.609375 0 
L 7.328125 0 
L 7.328125 8.296875 
Q 12.9375 14.109375 22.625 23.890625 
Q 32.328125 33.6875 34.8125 36.53125 
Q 39.546875 41.84375 41.421875 45.53125 
Q 43.3125 49.21875 43.3125 52.78125 
Q 43.3125 58.59375 39.234375 62.25 
Q 35.15625 65.921875 28.609375 65.921875 
Q 23.96875 65.921875 18.8125 64.3125 
Q 13.671875 62.703125 7.8125 59.421875 
L 7.8125 69.390625 
Q 13.765625 71.78125 18.9375 73 
Q 24.125 74.21875 28.421875 74.21875 
Q 39.75 74.21875 46.484375 68.546875 
Q 53.21875 62.890625 53.21875 53.421875 
Q 53.21875 48.921875 51.53125 44.890625 
Q 49.859375 40.875 45.40625 35.40625 
Q 44.1875 33.984375 37.640625 27.21875 
Q 31.109375 20.453125 19.1875 8.296875 
z
" id="DejaVuSans-50"/>
      </defs>
      <use xlink:href="#DejaVuSans-50"/>
      <use x="63.623047" xlink:href="#DejaVuSans-46"/>
      <use x="95.410156" xlink:href="#DejaVuSans-48"/>
     </g>
    </g>
   </g>
   <g id="xtick_5">
    <g id="line2d_6">
     <path d="M 242.238889 279.918986 
L 240.105615 282.014329 
" style="fill:none;stroke:#000000;stroke-linecap:square;stroke-width:0.8;"/>
    </g>
    <g id="text_6">
     <!-- 2.5 -->
     <g transform="translate(226.172308 304.685802)scale(0.1 -0.1)">
      <use xlink:href="#DejaVuSans-50"/>
      <use x="63.623047" xlink:href="#DejaVuSans-46"/>
      <use x="95.410156" xlink:href="#DejaVuSans-53"/>
     </g>
    </g>
   </g>
   <g id="xtick_6">
    <g id="line2d_7">
     <path d="M 266.840119 287.945808 
L 264.743917 290.07715 
" style="fill:none;stroke:#000000;stroke-linecap:square;stroke-width:0.8;"/>
    </g>
    <g id="text_7">
     <!-- 3.0 -->
     <g transform="translate(250.818259 312.897311)scale(0.1 -0.1)">
      <defs>
       <path d="M 40.578125 39.3125 
Q 47.65625 37.796875 51.625 33 
Q 55.609375 28.21875 55.609375 21.1875 
Q 55.609375 10.40625 48.1875 4.484375 
Q 40.765625 -1.421875 27.09375 -1.421875 
Q 22.515625 -1.421875 17.65625 -0.515625 
Q 12.796875 0.390625 7.625 2.203125 
L 7.625 11.71875 
Q 11.71875 9.328125 16.59375 8.109375 
Q 21.484375 6.890625 26.8125 6.890625 
Q 36.078125 6.890625 40.9375 10.546875 
Q 45.796875 14.203125 45.796875 21.1875 
Q 45.796875 27.640625 41.28125 31.265625 
Q 36.765625 34.90625 28.71875 34.90625 
L 20.21875 34.90625 
L 20.21875 43.015625 
L 29.109375 43.015625 
Q 36.375 43.015625 40.234375 45.921875 
Q 44.09375 48.828125 44.09375 54.296875 
Q 44.09375 59.90625 40.109375 62.90625 
Q 36.140625 65.921875 28.71875 65.921875 
Q 24.65625 65.921875 20.015625 65.03125 
Q 15.375 64.15625 9.8125 62.3125 
L 9.8125 71.09375 
Q 15.4375 72.65625 20.34375 73.4375 
Q 25.25 74.21875 29.59375 74.21875 
Q 40.828125 74.21875 47.359375 69.109375 
Q 53.90625 64.015625 53.90625 55.328125 
Q 53.90625 49.265625 50.4375 45.09375 
Q 46.96875 40.921875 40.578125 39.3125 
z
" id="DejaVuSans-51"/>
      </defs>
      <use xlink:href="#DejaVuSans-51"/>
      <use x="63.623047" xlink:href="#DejaVuSans-46"/>
      <use x="95.410156" xlink:href="#DejaVuSans-48"/>
     </g>
    </g>
   </g>
  </g>
  <g id="axis3d_2">
   <g id="line2d_8">
    <path d="M 352.090401 209.294766 
L 272.679269 290.790123 
" style="fill:none;stroke:#000000;stroke-linecap:square;stroke-width:0.8;"/>
   </g>
   <g id="text_8">
    <!-- Circularity -->
    <g transform="translate(331.754664 303.193657)rotate(-45.742112)scale(0.1 -0.1)">
     <defs>
      <path d="M 34.28125 27.484375 
Q 23.390625 27.484375 19.1875 25 
Q 14.984375 22.515625 14.984375 16.5 
Q 14.984375 11.71875 18.140625 8.90625 
Q 21.296875 6.109375 26.703125 6.109375 
Q 34.1875 6.109375 38.703125 11.40625 
Q 43.21875 16.703125 43.21875 25.484375 
L 43.21875 27.484375 
z
M 52.203125 31.203125 
L 52.203125 0 
L 43.21875 0 
L 43.21875 8.296875 
Q 40.140625 3.328125 35.546875 0.953125 
Q 30.953125 -1.421875 24.3125 -1.421875 
Q 15.921875 -1.421875 10.953125 3.296875 
Q 6 8.015625 6 15.921875 
Q 6 25.140625 12.171875 29.828125 
Q 18.359375 34.515625 30.609375 34.515625 
L 43.21875 34.515625 
L 43.21875 35.40625 
Q 43.21875 41.609375 39.140625 45 
Q 35.0625 48.390625 27.6875 48.390625 
Q 23 48.390625 18.546875 47.265625 
Q 14.109375 46.140625 10.015625 43.890625 
L 10.015625 52.203125 
Q 14.9375 54.109375 19.578125 55.046875 
Q 24.21875 56 28.609375 56 
Q 40.484375 56 46.34375 49.84375 
Q 52.203125 43.703125 52.203125 31.203125 
z
" id="DejaVuSans-97"/>
     </defs>
     <use xlink:href="#DejaVuSans-67"/>
     <use x="69.824219" xlink:href="#DejaVuSans-105"/>
     <use x="97.607422" xlink:href="#DejaVuSans-114"/>
     <use x="136.470703" xlink:href="#DejaVuSans-99"/>
     <use x="191.451172" xlink:href="#DejaVuSans-117"/>
     <use x="254.830078" xlink:href="#DejaVuSans-108"/>
     <use x="282.613281" xlink:href="#DejaVuSans-97"/>
     <use x="343.892578" xlink:href="#DejaVuSans-114"/>
     <use x="385.005859" xlink:href="#DejaVuSans-105"/>
     <use x="412.789062" xlink:href="#DejaVuSans-116"/>
     <use x="451.998047" xlink:href="#DejaVuSans-121"/>
    </g>
   </g>
   <g id="Line3DCollection_2">
    <path d="M 140.20722 112.89945 
L 144.548154 224.072593 
L 292.037386 270.923932 
" style="fill:none;stroke:#b0b0b0;stroke-width:0.8;"/>
    <path d="M 162.396532 96.706701 
L 165.702185 206.340865 
L 311.176083 251.282921 
" style="fill:none;stroke:#b0b0b0;stroke-width:0.8;"/>
    <path d="M 183.674647 81.178902 
L 186.023921 189.306782 
L 329.523504 232.453954 
" style="fill:none;stroke:#b0b0b0;stroke-width:0.8;"/>
    <path d="M 204.096563 66.275918 
L 205.561536 172.929966 
L 347.127726 214.387692 
" style="fill:none;stroke:#b0b0b0;stroke-width:0.8;"/>
   </g>
   <g id="xtick_7">
    <g id="line2d_9">
     <path d="M 290.795438 270.529415 
L 294.524446 271.71397 
" style="fill:none;stroke:#000000;stroke-linecap:square;stroke-width:0.8;"/>
    </g>
    <g id="text_9">
     <!-- 0.5 -->
     <g transform="translate(296.780536 291.734996)scale(0.1 -0.1)">
      <use xlink:href="#DejaVuSans-48"/>
      <use x="63.623047" xlink:href="#DejaVuSans-46"/>
      <use x="95.410156" xlink:href="#DejaVuSans-53"/>
     </g>
    </g>
   </g>
   <g id="xtick_8">
    <g id="line2d_10">
     <path d="M 309.952397 250.90488 
L 313.626508 252.039944 
" style="fill:none;stroke:#000000;stroke-linecap:square;stroke-width:0.8;"/>
    </g>
    <g id="text_10">
     <!-- 1.0 -->
     <g transform="translate(315.66216 271.803586)scale(0.1 -0.1)">
      <use xlink:href="#DejaVuSans-49"/>
      <use x="63.623047" xlink:href="#DejaVuSans-46"/>
      <use x="95.410156" xlink:href="#DejaVuSans-48"/>
     </g>
    </g>
   </g>
   <g id="xtick_9">
    <g id="line2d_11">
     <path d="M 328.317645 232.091379 
L 331.938165 233.17999 
" style="fill:none;stroke:#000000;stroke-linecap:square;stroke-width:0.8;"/>
    </g>
    <g id="text_11">
     <!-- 1.5 -->
     <g transform="translate(333.762695 252.696693)scale(0.1 -0.1)">
      <use xlink:href="#DejaVuSans-49"/>
      <use x="63.623047" xlink:href="#DejaVuSans-46"/>
      <use x="95.410156" xlink:href="#DejaVuSans-53"/>
     </g>
    </g>
   </g>
   <g id="xtick_10">
    <g id="line2d_12">
     <path d="M 345.93927 214.039652 
L 349.507481 215.084604 
" style="fill:none;stroke:#000000;stroke-linecap:square;stroke-width:0.8;"/>
    </g>
    <g id="text_12">
     <!-- 2.0 -->
     <g transform="translate(351.129626 234.364191)scale(0.1 -0.1)">
      <use xlink:href="#DejaVuSans-50"/>
      <use x="63.623047" xlink:href="#DejaVuSans-46"/>
      <use x="95.410156" xlink:href="#DejaVuSans-48"/>
     </g>
    </g>
   </g>
  </g>
  <g id="axis3d_3">
   <g id="line2d_13">
    <path d="M 352.090401 209.294766 
L 357.122702 99.402171 
" style="fill:none;stroke:#000000;stroke-linecap:square;stroke-width:0.8;"/>
   </g>
   <g id="text_13">
    <!-- Global Warming potential -->
    <g transform="translate(404.383592 212.543854)rotate(-87.378092)scale(0.1 -0.1)">
     <defs>
      <path d="M 59.515625 10.40625 
L 59.515625 29.984375 
L 43.40625 29.984375 
L 43.40625 38.09375 
L 69.28125 38.09375 
L 69.28125 6.78125 
Q 63.578125 2.734375 56.6875 0.65625 
Q 49.8125 -1.421875 42 -1.421875 
Q 24.90625 -1.421875 15.25 8.5625 
Q 5.609375 18.5625 5.609375 36.375 
Q 5.609375 54.25 15.25 64.234375 
Q 24.90625 74.21875 42 74.21875 
Q 49.125 74.21875 55.546875 72.453125 
Q 61.96875 70.703125 67.390625 67.28125 
L 67.390625 56.78125 
Q 61.921875 61.421875 55.765625 63.765625 
Q 49.609375 66.109375 42.828125 66.109375 
Q 29.4375 66.109375 22.71875 58.640625 
Q 16.015625 51.171875 16.015625 36.375 
Q 16.015625 21.625 22.71875 14.15625 
Q 29.4375 6.6875 42.828125 6.6875 
Q 48.046875 6.6875 52.140625 7.59375 
Q 56.25 8.5 59.515625 10.40625 
z
" id="DejaVuSans-71"/>
      <path d="M 48.6875 27.296875 
Q 48.6875 37.203125 44.609375 42.84375 
Q 40.53125 48.484375 33.40625 48.484375 
Q 26.265625 48.484375 22.1875 42.84375 
Q 18.109375 37.203125 18.109375 27.296875 
Q 18.109375 17.390625 22.1875 11.75 
Q 26.265625 6.109375 33.40625 6.109375 
Q 40.53125 6.109375 44.609375 11.75 
Q 48.6875 17.390625 48.6875 27.296875 
z
M 18.109375 46.390625 
Q 20.953125 51.265625 25.265625 53.625 
Q 29.59375 56 35.59375 56 
Q 45.5625 56 51.78125 48.09375 
Q 58.015625 40.1875 58.015625 27.296875 
Q 58.015625 14.40625 51.78125 6.484375 
Q 45.5625 -1.421875 35.59375 -1.421875 
Q 29.59375 -1.421875 25.265625 0.953125 
Q 20.953125 3.328125 18.109375 8.203125 
L 18.109375 0 
L 9.078125 0 
L 9.078125 75.984375 
L 18.109375 75.984375 
z
" id="DejaVuSans-98"/>
      <path d="M 3.328125 72.90625 
L 13.28125 72.90625 
L 28.609375 11.28125 
L 43.890625 72.90625 
L 54.984375 72.90625 
L 70.3125 11.28125 
L 85.59375 72.90625 
L 95.609375 72.90625 
L 77.296875 0 
L 64.890625 0 
L 49.515625 63.28125 
L 33.984375 0 
L 21.578125 0 
z
" id="DejaVuSans-87"/>
      <path d="M 52 44.1875 
Q 55.375 50.25 60.0625 53.125 
Q 64.75 56 71.09375 56 
Q 79.640625 56 84.28125 50.015625 
Q 88.921875 44.046875 88.921875 33.015625 
L 88.921875 0 
L 79.890625 0 
L 79.890625 32.71875 
Q 79.890625 40.578125 77.09375 44.375 
Q 74.3125 48.1875 68.609375 48.1875 
Q 61.625 48.1875 57.5625 43.546875 
Q 53.515625 38.921875 53.515625 30.90625 
L 53.515625 0 
L 44.484375 0 
L 44.484375 32.71875 
Q 44.484375 40.625 41.703125 44.40625 
Q 38.921875 48.1875 33.109375 48.1875 
Q 26.21875 48.1875 22.15625 43.53125 
Q 18.109375 38.875 18.109375 30.90625 
L 18.109375 0 
L 9.078125 0 
L 9.078125 54.6875 
L 18.109375 54.6875 
L 18.109375 46.1875 
Q 21.1875 51.21875 25.484375 53.609375 
Q 29.78125 56 35.6875 56 
Q 41.65625 56 45.828125 52.96875 
Q 50 49.953125 52 44.1875 
z
" id="DejaVuSans-109"/>
      <path d="M 54.890625 33.015625 
L 54.890625 0 
L 45.90625 0 
L 45.90625 32.71875 
Q 45.90625 40.484375 42.875 44.328125 
Q 39.84375 48.1875 33.796875 48.1875 
Q 26.515625 48.1875 22.3125 43.546875 
Q 18.109375 38.921875 18.109375 30.90625 
L 18.109375 0 
L 9.078125 0 
L 9.078125 54.6875 
L 18.109375 54.6875 
L 18.109375 46.1875 
Q 21.34375 51.125 25.703125 53.5625 
Q 30.078125 56 35.796875 56 
Q 45.21875 56 50.046875 50.171875 
Q 54.890625 44.34375 54.890625 33.015625 
z
" id="DejaVuSans-110"/>
      <path d="M 45.40625 27.984375 
Q 45.40625 37.75 41.375 43.109375 
Q 37.359375 48.484375 30.078125 48.484375 
Q 22.859375 48.484375 18.828125 43.109375 
Q 14.796875 37.75 14.796875 27.984375 
Q 14.796875 18.265625 18.828125 12.890625 
Q 22.859375 7.515625 30.078125 7.515625 
Q 37.359375 7.515625 41.375 12.890625 
Q 45.40625 18.265625 45.40625 27.984375 
z
M 54.390625 6.78125 
Q 54.390625 -7.171875 48.1875 -13.984375 
Q 42 -20.796875 29.203125 -20.796875 
Q 24.46875 -20.796875 20.265625 -20.09375 
Q 16.0625 -19.390625 12.109375 -17.921875 
L 12.109375 -9.1875 
Q 16.0625 -11.328125 19.921875 -12.34375 
Q 23.78125 -13.375 27.78125 -13.375 
Q 36.625 -13.375 41.015625 -8.765625 
Q 45.40625 -4.15625 45.40625 5.171875 
L 45.40625 9.625 
Q 42.625 4.78125 38.28125 2.390625 
Q 33.9375 0 27.875 0 
Q 17.828125 0 11.671875 7.65625 
Q 5.515625 15.328125 5.515625 27.984375 
Q 5.515625 40.671875 11.671875 48.328125 
Q 17.828125 56 27.875 56 
Q 33.9375 56 38.28125 53.609375 
Q 42.625 51.21875 45.40625 46.390625 
L 45.40625 54.6875 
L 54.390625 54.6875 
z
" id="DejaVuSans-103"/>
      <path d="M 18.109375 8.203125 
L 18.109375 -20.796875 
L 9.078125 -20.796875 
L 9.078125 54.6875 
L 18.109375 54.6875 
L 18.109375 46.390625 
Q 20.953125 51.265625 25.265625 53.625 
Q 29.59375 56 35.59375 56 
Q 45.5625 56 51.78125 48.09375 
Q 58.015625 40.1875 58.015625 27.296875 
Q 58.015625 14.40625 51.78125 6.484375 
Q 45.5625 -1.421875 35.59375 -1.421875 
Q 29.59375 -1.421875 25.265625 0.953125 
Q 20.953125 3.328125 18.109375 8.203125 
z
M 48.6875 27.296875 
Q 48.6875 37.203125 44.609375 42.84375 
Q 40.53125 48.484375 33.40625 48.484375 
Q 26.265625 48.484375 22.1875 42.84375 
Q 18.109375 37.203125 18.109375 27.296875 
Q 18.109375 17.390625 22.1875 11.75 
Q 26.265625 6.109375 33.40625 6.109375 
Q 40.53125 6.109375 44.609375 11.75 
Q 48.6875 17.390625 48.6875 27.296875 
z
" id="DejaVuSans-112"/>
     </defs>
     <use xlink:href="#DejaVuSans-71"/>
     <use x="77.490234" xlink:href="#DejaVuSans-108"/>
     <use x="105.273438" xlink:href="#DejaVuSans-111"/>
     <use x="166.455078" xlink:href="#DejaVuSans-98"/>
     <use x="229.931641" xlink:href="#DejaVuSans-97"/>
     <use x="291.210938" xlink:href="#DejaVuSans-108"/>
     <use x="318.994141" xlink:href="#DejaVuSans-32"/>
     <use x="350.78125" xlink:href="#DejaVuSans-87"/>
     <use x="443.283203" xlink:href="#DejaVuSans-97"/>
     <use x="504.5625" xlink:href="#DejaVuSans-114"/>
     <use x="543.925781" xlink:href="#DejaVuSans-109"/>
     <use x="641.337891" xlink:href="#DejaVuSans-105"/>
     <use x="669.121094" xlink:href="#DejaVuSans-110"/>
     <use x="732.5" xlink:href="#DejaVuSans-103"/>
     <use x="795.976562" xlink:href="#DejaVuSans-32"/>
     <use x="827.763672" xlink:href="#DejaVuSans-112"/>
     <use x="891.240234" xlink:href="#DejaVuSans-111"/>
     <use x="952.421875" xlink:href="#DejaVuSans-116"/>
     <use x="991.630859" xlink:href="#DejaVuSans-101"/>
     <use x="1053.154297" xlink:href="#DejaVuSans-110"/>
     <use x="1116.533203" xlink:href="#DejaVuSans-116"/>
     <use x="1155.742188" xlink:href="#DejaVuSans-105"/>
     <use x="1183.525391" xlink:href="#DejaVuSans-97"/>
     <use x="1244.804688" xlink:href="#DejaVuSans-108"/>
    </g>
   </g>
   <g id="Line3DCollection_3">
    <path d="M 352.651911 197.032811 
L 210.939601 156.431576 
L 122.59264 229.41333 
" style="fill:none;stroke:#b0b0b0;stroke-width:0.8;"/>
    <path d="M 353.593746 176.465549 
L 210.710684 136.52439 
L 121.577933 208.34229 
" style="fill:none;stroke:#b0b0b0;stroke-width:0.8;"/>
    <path d="M 354.551427 155.552235 
L 210.478101 116.298387 
L 120.545497 186.903085 
" style="fill:none;stroke:#b0b0b0;stroke-width:0.8;"/>
    <path d="M 355.525359 134.284061 
L 210.241763 95.745848 
L 119.494863 165.085982 
" style="fill:none;stroke:#b0b0b0;stroke-width:0.8;"/>
    <path d="M 356.515957 112.651918 
L 210.001579 74.858801 
L 118.425545 142.8809 
" style="fill:none;stroke:#b0b0b0;stroke-width:0.8;"/>
   </g>
   <g id="xtick_11">
    <g id="line2d_14">
     <path d="M 351.462276 196.691975 
L 355.034024 197.715298 
" style="fill:none;stroke:#000000;stroke-linecap:square;stroke-width:0.8;"/>
    </g>
    <g id="text_14">
     <!-- −4 -->
     <g transform="translate(363.618707 202.050217)scale(0.1 -0.1)">
      <defs>
       <path d="M 10.59375 35.5 
L 73.1875 35.5 
L 73.1875 27.203125 
L 10.59375 27.203125 
z
" id="DejaVuSans-8722"/>
       <path d="M 37.796875 64.3125 
L 12.890625 25.390625 
L 37.796875 25.390625 
z
M 35.203125 72.90625 
L 47.609375 72.90625 
L 47.609375 25.390625 
L 58.015625 25.390625 
L 58.015625 17.1875 
L 47.609375 17.1875 
L 47.609375 0 
L 37.796875 0 
L 37.796875 17.1875 
L 4.890625 17.1875 
L 4.890625 26.703125 
z
" id="DejaVuSans-52"/>
      </defs>
      <use xlink:href="#DejaVuSans-8722"/>
      <use x="83.789062" xlink:href="#DejaVuSans-52"/>
     </g>
    </g>
   </g>
   <g id="xtick_12">
    <g id="line2d_15">
     <path d="M 352.393813 176.130123 
L 355.996504 177.13721 
" style="fill:none;stroke:#000000;stroke-linecap:square;stroke-width:0.8;"/>
    </g>
    <g id="text_15">
     <!-- −2 -->
     <g transform="translate(364.710199 181.523976)scale(0.1 -0.1)">
      <use xlink:href="#DejaVuSans-8722"/>
      <use x="83.789062" xlink:href="#DejaVuSans-50"/>
     </g>
    </g>
   </g>
   <g id="xtick_13">
    <g id="line2d_16">
     <path d="M 353.341016 155.22245 
L 356.975191 156.212608 
" style="fill:none;stroke:#000000;stroke-linecap:square;stroke-width:0.8;"/>
    </g>
    <g id="text_16">
     <!-- 0 -->
     <g transform="translate(370.009844 160.653431)scale(0.1 -0.1)">
      <use xlink:href="#DejaVuSans-48"/>
     </g>
    </g>
   </g>
   <g id="xtick_14">
    <g id="line2d_17">
     <path d="M 354.304285 133.960157 
L 357.970499 134.932664 
" style="fill:none;stroke:#000000;stroke-linecap:square;stroke-width:0.8;"/>
    </g>
    <g id="text_17">
     <!-- 2 -->
     <g transform="translate(371.138418 139.429846)scale(0.1 -0.1)">
      <use xlink:href="#DejaVuSans-50"/>
     </g>
    </g>
   </g>
   <g id="xtick_15">
    <g id="line2d_18">
     <path d="M 355.284032 112.334145 
L 358.982853 113.288249 
" style="fill:none;stroke:#000000;stroke-linecap:square;stroke-width:0.8;"/>
    </g>
    <g id="text_18">
     <!-- 4 -->
     <g transform="translate(372.286245 117.844187)scale(0.1 -0.1)">
      <use xlink:href="#DejaVuSans-52"/>
     </g>
    </g>
   </g>
  </g>
  <g id="axes_1">
   <g id="Poly3DCollection_1">
    <path clip-path="url(#p6b394e7ae4)" d="M 330.366126 199.508755 
L 335.072369 200.871168 
L 338.578195 197.378418 
L 333.885497 196.027034 
z
" style="fill:#9da2a6;"/>
    <path clip-path="url(#p6b394e7ae4)" d="M 335.406703 156.168653 
L 333.885497 196.027034 
L 338.578195 197.378418 
L 340.177802 157.477936 
z
" style="fill:#b5babf;"/>
    <path clip-path="url(#p6b394e7ae4)" d="M 218.987445 152.153103 
L 222.986147 148.84018 
L 227.535496 150.126025 
L 223.549081 153.449517 
z
" style="fill:#4c172b;"/>
    <path clip-path="url(#p6b394e7ae4)" d="M 219.010217 152.159575 
L 223.008858 148.846599 
L 227.558279 150.132464 
L 223.571926 153.45601 
z
" style="fill:#4c172b;"/>
    <path clip-path="url(#p6b394e7ae4)" d="M 222.986147 148.84018 
L 222.914688 138.129631 
L 227.483339 139.403855 
L 227.535496 150.126025 
z
" style="fill:#3b1221;"/>
    <path clip-path="url(#p6b394e7ae4)" d="M 223.008858 148.846599 
L 222.937474 138.13282 
L 227.506204 139.40706 
L 227.558279 150.132464 
z
" style="fill:#3b1221;"/>
    <path clip-path="url(#p6b394e7ae4)" d="M 331.836512 159.542041 
L 330.366126 199.508755 
L 333.885497 196.027034 
L 335.406703 156.168653 
z
" style="fill:#55585a;"/>
    <path clip-path="url(#p6b394e7ae4)" d="M 218.987445 152.153103 
L 218.898583 141.412649 
L 222.914688 138.129631 
L 222.986147 148.84018 
z
" style="fill:#7d2747;"/>
    <path clip-path="url(#p6b394e7ae4)" d="M 219.010217 152.159575 
L 218.921425 141.415881 
L 222.937474 138.13282 
L 223.008858 148.846599 
z
" style="fill:#7d2747;"/>
    <path clip-path="url(#p6b394e7ae4)" d="M 233.983877 151.948619 
L 233.983877 151.948619 
L 238.568308 153.244379 
L 238.568308 153.244379 
z
" style="fill:#280b27;"/>
    <path clip-path="url(#p6b394e7ae4)" d="M 336.62162 160.862184 
L 340.177802 157.477936 
L 338.578195 197.378418 
L 335.072369 200.871168 
z
" style="fill:#b5babf;"/>
    <path clip-path="url(#p6b394e7ae4)" d="M 223.549081 153.449517 
L 227.535496 150.126025 
L 227.483339 139.403855 
L 223.479626 142.697391 
z
" style="fill:#3b1221;"/>
    <path clip-path="url(#p6b394e7ae4)" d="M 223.571926 153.45601 
L 227.558279 150.132464 
L 227.506204 139.40706 
L 223.502547 142.70064 
z
" style="fill:#3b1221;"/>
    <path clip-path="url(#p6b394e7ae4)" d="M 230.014981 155.287122 
L 230.014981 155.287122 
L 233.983877 151.948619 
L 233.983877 151.948619 
z
" style="fill:#280b27;"/>
    <path clip-path="url(#p6b394e7ae4)" d="M 331.836512 159.542041 
L 336.62162 160.862184 
L 335.072369 200.871168 
L 330.366126 199.508755 
z
" style="fill:#55585a;"/>
    <path clip-path="url(#p6b394e7ae4)" d="M 230.014981 155.287122 
L 234.611939 156.593574 
L 238.568308 153.244379 
L 233.983877 151.948619 
z
" style="fill:#2f0d2e;"/>
    <path clip-path="url(#p6b394e7ae4)" d="M 230.014981 155.287122 
L 233.983877 151.948619 
L 238.568308 153.244379 
L 234.611939 156.593574 
z
" style="fill:#210920;"/>
    <path clip-path="url(#p6b394e7ae4)" d="M 218.987445 152.153103 
L 223.549081 153.449517 
L 223.479626 142.697391 
L 218.898583 141.412649 
z
" style="fill:#7d2747;"/>
    <path clip-path="url(#p6b394e7ae4)" d="M 219.010217 152.159575 
L 223.571926 153.45601 
L 223.502547 142.70064 
L 218.921425 141.415881 
z
" style="fill:#7d2747;"/>
    <path clip-path="url(#p6b394e7ae4)" d="M 218.898583 141.412649 
L 223.479626 142.697391 
L 227.483339 139.403855 
L 222.914688 138.129631 
z
" style="fill:#6d223d;"/>
    <path clip-path="url(#p6b394e7ae4)" d="M 218.921425 141.415881 
L 223.502547 142.70064 
L 227.506204 139.40706 
L 222.937474 138.13282 
z
" style="fill:#6d223d;"/>
    <path clip-path="url(#p6b394e7ae4)" d="M 234.611939 156.593574 
L 238.568308 153.244379 
L 238.568308 153.244379 
L 234.611939 156.593574 
z
" style="fill:#280b27;"/>
    <path clip-path="url(#p6b394e7ae4)" d="M 195.517921 156.186733 
L 199.632676 152.840869 
L 204.167245 154.139483 
L 200.064591 157.496074 
z
" style="fill:#64392f;"/>
    <path clip-path="url(#p6b394e7ae4)" d="M 248.012825 173.054167 
L 252.644236 174.39072 
L 256.531285 170.964368 
L 251.912668 169.638766 
z
" style="fill:#431c69;"/>
    <path clip-path="url(#p6b394e7ae4)" d="M 251.974141 157.033453 
L 251.912668 169.638766 
L 256.531285 170.964368 
L 256.61625 158.345516 
z
" style="fill:#4d2178;"/>
    <path clip-path="url(#p6b394e7ae4)" d="M 230.014981 155.287122 
L 234.611939 156.593574 
L 234.611939 156.593574 
L 230.014981 155.287122 
z
" style="fill:#280b27;"/>
    <path clip-path="url(#p6b394e7ae4)" d="M 248.05475 160.414012 
L 248.012825 173.054167 
L 251.912668 169.638766 
L 251.974141 157.033453 
z
" style="fill:#240f39;"/>
    <path clip-path="url(#p6b394e7ae4)" d="M 199.632676 152.840869 
L 199.303481 132.251162 
L 203.874783 133.527265 
L 204.167245 154.139483 
z
" style="fill:#4e2d25;"/>
    <path clip-path="url(#p6b394e7ae4)" d="M 201.828072 158.003917 
L 205.926016 154.643161 
L 210.480743 155.947548 
L 206.395038 159.319103 
z
" style="fill:#521d2a;"/>
    <path clip-path="url(#p6b394e7ae4)" d="M 205.926016 154.643161 
L 205.754581 141.935065 
L 210.33215 143.22561 
L 210.480743 155.947548 
z
" style="fill:#401721;"/>
    <path clip-path="url(#p6b394e7ae4)" d="M 195.517921 156.186733 
L 195.15346 135.539094 
L 199.303481 132.251162 
L 199.632676 152.840869 
z
" style="fill:#a65f4f;"/>
    <path clip-path="url(#p6b394e7ae4)" d="M 252.709784 161.73697 
L 256.61625 158.345516 
L 256.531285 170.964368 
L 252.644236 174.39072 
z
" style="fill:#4d2178;"/>
    <path clip-path="url(#p6b394e7ae4)" d="M 201.828072 158.003917 
L 201.635073 145.260201 
L 205.754581 141.935065 
L 205.926016 154.643161 
z
" style="fill:#883046;"/>
    <path clip-path="url(#p6b394e7ae4)" d="M 331.836512 159.542041 
L 335.406703 156.168653 
L 340.177802 157.477936 
L 336.62162 160.862184 
z
" style="fill:#6d7073;"/>
    <path clip-path="url(#p6b394e7ae4)" d="M 274.28581 193.27544 
L 278.978347 194.650005 
L 282.772459 191.126243 
L 278.093169 189.762986 
z
" style="fill:#4d6291;"/>
    <path clip-path="url(#p6b394e7ae4)" d="M 248.05475 160.414012 
L 252.709784 161.73697 
L 252.644236 174.39072 
L 248.012825 173.054167 
z
" style="fill:#240f39;"/>
    <path clip-path="url(#p6b394e7ae4)" d="M 200.064591 157.496074 
L 204.167245 154.139483 
L 203.874783 133.527265 
L 199.737059 136.825824 
z
" style="fill:#4e2d25;"/>
    <path clip-path="url(#p6b394e7ae4)" d="M 219.592798 158.557066 
L 219.592798 158.557066 
L 224.191456 159.874033 
L 224.191456 159.874033 
z
" style="fill:#280b27;"/>
    <path clip-path="url(#p6b394e7ae4)" d="M 248.05475 160.414012 
L 251.974141 157.033453 
L 256.61625 158.345516 
L 252.709784 161.73697 
z
" style="fill:#2f1449;"/>
    <path clip-path="url(#p6b394e7ae4)" d="M 206.395038 159.319103 
L 210.480743 155.947548 
L 210.33215 143.22561 
L 206.225004 146.561485 
z
" style="fill:#401721;"/>
    <path clip-path="url(#p6b394e7ae4)" d="M 195.517921 156.186733 
L 200.064591 157.496074 
L 199.737059 136.825824 
L 195.15346 135.539094 
z
" style="fill:#a65f4f;"/>
    <path clip-path="url(#p6b394e7ae4)" d="M 215.531758 161.950278 
L 215.531758 161.950278 
L 219.592798 158.557066 
L 219.592798 158.557066 
z
" style="fill:#280b27;"/>
    <path clip-path="url(#p6b394e7ae4)" d="M 201.828072 158.003917 
L 206.395038 159.319103 
L 206.225004 146.561485 
L 201.635073 145.260201 
z
" style="fill:#883046;"/>
    <path clip-path="url(#p6b394e7ae4)" d="M 215.531758 161.950278 
L 219.592798 158.557066 
L 224.191456 159.874033 
L 220.142956 163.278201 
z
" style="fill:#210920;"/>
    <path clip-path="url(#p6b394e7ae4)" d="M 215.531758 161.950278 
L 220.142956 163.278201 
L 224.191456 159.874033 
L 219.592798 158.557066 
z
" style="fill:#2f0d2e;"/>
    <path clip-path="url(#p6b394e7ae4)" d="M 278.484451 164.526425 
L 278.093169 189.762986 
L 282.772459 191.126243 
L 283.212212 165.862697 
z
" style="fill:#5971a7;"/>
    <path clip-path="url(#p6b394e7ae4)" d="M 201.635073 145.260201 
L 206.225004 146.561485 
L 210.33215 143.22561 
L 205.754581 141.935065 
z
" style="fill:#762a3d;"/>
    <path clip-path="url(#p6b394e7ae4)" d="M 179.488977 162.496018 
L 183.701676 159.098306 
L 188.245566 160.417018 
L 184.044942 163.825708 
z
" style="fill:#6a4d3d;"/>
    <path clip-path="url(#p6b394e7ae4)" d="M 220.142956 163.278201 
L 224.191456 159.874033 
L 224.191456 159.874033 
L 220.142956 163.278201 
z
" style="fill:#280b27;"/>
    <path clip-path="url(#p6b394e7ae4)" d="M 195.15346 135.539094 
L 199.737059 136.825824 
L 203.874783 133.527265 
L 199.303481 132.251162 
z
" style="fill:#905244;"/>
    <path clip-path="url(#p6b394e7ae4)" d="M 274.639706 167.969439 
L 274.28581 193.27544 
L 278.093169 189.762986 
L 278.484451 164.526425 
z
" style="fill:#2a354f;"/>
    <path clip-path="url(#p6b394e7ae4)" d="M 215.531758 161.950278 
L 220.142956 163.278201 
L 220.142956 163.278201 
L 215.531758 161.950278 
z
" style="fill:#280b27;"/>
    <path clip-path="url(#p6b394e7ae4)" d="M 236.844962 180.80239 
L 241.501449 182.163956 
L 245.470785 178.673565 
L 240.827183 177.323259 
z
" style="fill:#431c69;"/>
    <path clip-path="url(#p6b394e7ae4)" d="M 240.832649 164.639752 
L 240.827183 177.323259 
L 245.470785 178.673565 
L 245.5 165.976392 
z
" style="fill:#4d2178;"/>
    <path clip-path="url(#p6b394e7ae4)" d="M 279.380991 169.31691 
L 283.212212 165.862697 
L 282.772459 191.126243 
L 278.978347 194.650005 
z
" style="fill:#5971a7;"/>
    <path clip-path="url(#p6b394e7ae4)" d="M 187.169721 164.737696 
L 191.362028 161.321466 
L 195.930651 162.647356 
L 191.750588 166.074654 
z
" style="fill:#521d2a;"/>
    <path clip-path="url(#p6b394e7ae4)" d="M 307.461613 215.649301 
L 312.237812 217.068901 
L 315.917887 213.429749 
L 311.155549 212.021901 
z
" style="fill:#8c999f;"/>
    <path clip-path="url(#p6b394e7ae4)" d="M 183.701676 159.098306 
L 183.12751 133.457081 
L 187.717085 134.747595 
L 188.245566 160.417018 
z
" style="fill:#533c30;"/>
    <path clip-path="url(#p6b394e7ae4)" d="M 191.362028 161.321466 
L 191.114767 148.542723 
L 195.706369 149.854652 
L 195.930651 162.647356 
z
" style="fill:#401721;"/>
    <path clip-path="url(#p6b394e7ae4)" d="M 236.830042 168.083715 
L 236.844962 180.80239 
L 240.827183 177.323259 
L 240.832649 164.639752 
z
" style="fill:#240f39;"/>
    <path clip-path="url(#p6b394e7ae4)" d="M 274.639706 167.969439 
L 279.380991 169.31691 
L 278.978347 194.650005 
L 274.28581 193.27544 
z
" style="fill:#2a354f;"/>
    <path clip-path="url(#p6b394e7ae4)" d="M 179.488977 162.496018 
L 178.869072 136.782227 
L 183.12751 133.457081 
L 183.701676 159.098306 
z
" style="fill:#b07f66;"/>
    <path clip-path="url(#p6b394e7ae4)" d="M 187.169721 164.737696 
L 186.899916 151.923027 
L 191.114767 148.542723 
L 191.362028 161.321466 
z
" style="fill:#883046;"/>
    <path clip-path="url(#p6b394e7ae4)" d="M 241.510409 169.431558 
L 245.5 165.976392 
L 245.470785 178.673565 
L 241.501449 182.163956 
z
" style="fill:#4d2178;"/>
    <path clip-path="url(#p6b394e7ae4)" d="M 204.831396 165.230499 
L 204.831396 165.230499 
L 209.443669 166.569057 
L 209.443669 166.569057 
z
" style="fill:#280b27;"/>
    <path clip-path="url(#p6b394e7ae4)" d="M 263.03518 201.160392 
L 267.752872 202.560513 
L 271.628708 198.971321 
L 266.924357 197.582824 
z
" style="fill:#4d6291;"/>
    <path clip-path="url(#p6b394e7ae4)" d="M 184.044942 163.825708 
L 188.245566 160.417018 
L 187.717085 134.747595 
L 183.470963 138.083595 
z
" style="fill:#533c30;"/>
    <path clip-path="url(#p6b394e7ae4)" d="M 191.750588 166.074654 
L 195.930651 162.647356 
L 195.706369 149.854652 
L 191.503885 153.245964 
z
" style="fill:#401721;"/>
    <path clip-path="url(#p6b394e7ae4)" d="M 236.830042 168.083715 
L 241.510409 169.431558 
L 241.501449 182.163956 
L 236.844962 180.80239 
z
" style="fill:#240f39;"/>
    <path clip-path="url(#p6b394e7ae4)" d="M 274.639706 167.969439 
L 278.484451 164.526425 
L 283.212212 165.862697 
L 279.380991 169.31691 
z
" style="fill:#364465;"/>
    <path clip-path="url(#p6b394e7ae4)" d="M 200.675365 168.679411 
L 200.675365 168.679411 
L 204.831396 165.230499 
L 204.831396 165.230499 
z
" style="fill:#280b27;"/>
    <path clip-path="url(#p6b394e7ae4)" d="M 236.830042 168.083715 
L 240.832649 164.639752 
L 245.5 165.976392 
L 241.510409 169.431558 
z
" style="fill:#2f1449;"/>
    <path clip-path="url(#p6b394e7ae4)" d="M 179.488977 162.496018 
L 184.044942 163.825708 
L 183.470963 138.083595 
L 178.869072 136.782227 
z
" style="fill:#b07f66;"/>
    <path clip-path="url(#p6b394e7ae4)" d="M 187.169721 164.737696 
L 191.750588 166.074654 
L 191.503885 153.245964 
L 186.899916 151.923027 
z
" style="fill:#883046;"/>
    <path clip-path="url(#p6b394e7ae4)" d="M 200.675365 168.679411 
L 204.831396 165.230499 
L 209.443669 166.569057 
L 205.300183 170.029196 
z
" style="fill:#210920;"/>
    <path clip-path="url(#p6b394e7ae4)" d="M 200.675365 168.679411 
L 205.300183 170.029196 
L 209.443669 166.569057 
L 204.831396 165.230499 
z
" style="fill:#2f0d2e;"/>
    <path clip-path="url(#p6b394e7ae4)" d="M 186.899916 151.923027 
L 191.503885 153.245964 
L 195.706369 149.854652 
L 191.114767 148.542723 
z
" style="fill:#762a3d;"/>
    <path clip-path="url(#p6b394e7ae4)" d="M 205.300183 170.029196 
L 209.443669 166.569057 
L 209.443669 166.569057 
L 205.300183 170.029196 
z
" style="fill:#280b27;"/>
    <path clip-path="url(#p6b394e7ae4)" d="M 312.261307 174.07324 
L 311.155549 212.021901 
L 315.917887 213.429749 
L 317.099334 175.440678 
z
" style="fill:#a1b1b7;"/>
    <path clip-path="url(#p6b394e7ae4)" d="M 267.204226 172.192066 
L 266.924357 197.582824 
L 271.628708 198.971321 
L 271.957575 173.553334 
z
" style="fill:#5971a7;"/>
    <path clip-path="url(#p6b394e7ae4)" d="M 288.829232 221.498981 
L 293.606981 222.937637 
L 297.38945 219.249698 
L 292.625493 217.823032 
z
" style="fill:#8c999f;"/>
    <path clip-path="url(#p6b394e7ae4)" d="M 168.191303 170.377295 
L 172.491364 166.914257 
L 177.060476 168.25829 
L 172.77257 171.732624 
z
" style="fill:#6a4d3d;"/>
    <path clip-path="url(#p6b394e7ae4)" d="M 200.675365 168.679411 
L 205.300183 170.029196 
L 205.300183 170.029196 
L 200.675365 168.679411 
z
" style="fill:#280b27;"/>
    <path clip-path="url(#p6b394e7ae4)" d="M 308.514595 177.596661 
L 307.461613 215.649301 
L 311.155549 212.021901 
L 312.261307 174.07324 
z
" style="fill:#4c5356;"/>
    <path clip-path="url(#p6b394e7ae4)" d="M 263.275997 175.699569 
L 263.03518 201.160392 
L 266.924357 197.582824 
L 267.204226 172.192066 
z
" style="fill:#2a354f;"/>
    <path clip-path="url(#p6b394e7ae4)" d="M 178.869072 136.782227 
L 183.470963 138.083595 
L 187.717085 134.747595 
L 183.12751 133.457081 
z
" style="fill:#996e58;"/>
    <path clip-path="url(#p6b394e7ae4)" d="M 224.401422 188.375569 
L 229.079598 189.761806 
L 233.136587 186.208251 
L 228.47136 184.83358 
z
" style="fill:#431c69;"/>
    <path clip-path="url(#p6b394e7ae4)" d="M 228.413244 172.074341 
L 228.47136 184.83358 
L 233.136587 186.208251 
L 233.102442 173.435223 
z
" style="fill:#4d2178;"/>
    <path clip-path="url(#p6b394e7ae4)" d="M 313.366932 178.975692 
L 317.099334 175.440678 
L 315.917887 213.429749 
L 312.237812 217.068901 
z
" style="fill:#a1b1b7;"/>
    <path clip-path="url(#p6b394e7ae4)" d="M 268.042968 177.072352 
L 271.957575 173.553334 
L 271.628708 198.971321 
L 267.752872 202.560513 
z
" style="fill:#5971a7;"/>
    <path clip-path="url(#p6b394e7ae4)" d="M 174.48981 172.240656 
L 178.773145 168.762082 
L 183.362728 170.112137 
L 179.091689 173.602083 
z
" style="fill:#521d2a;"/>
    <path clip-path="url(#p6b394e7ae4)" d="M 178.773145 168.762082 
L 178.458725 155.905275 
L 183.071495 157.241239 
L 183.362728 170.112137 
z
" style="fill:#401721;"/>
    <path clip-path="url(#p6b394e7ae4)" d="M 224.322013 175.580848 
L 224.401422 188.375569 
L 228.47136 184.83358 
L 228.413244 172.074341 
z
" style="fill:#240f39;"/>
    <path clip-path="url(#p6b394e7ae4)" d="M 308.514595 177.596661 
L 313.366932 178.975692 
L 312.237812 217.068901 
L 307.461613 215.649301 
z
" style="fill:#4c5356;"/>
    <path clip-path="url(#p6b394e7ae4)" d="M 172.491364 166.914257 
L 171.795724 141.106526 
L 176.411024 142.422077 
L 177.060476 168.25829 
z
" style="fill:#533c30;"/>
    <path clip-path="url(#p6b394e7ae4)" d="M 263.275997 175.699569 
L 268.042968 177.072352 
L 267.752872 202.560513 
L 263.03518 201.160392 
z
" style="fill:#2a354f;"/>
    <path clip-path="url(#p6b394e7ae4)" d="M 174.48981 172.240656 
L 174.151886 159.347587 
L 178.458725 155.905275 
L 178.773145 168.762082 
z
" style="fill:#883046;"/>
    <path clip-path="url(#p6b394e7ae4)" d="M 168.191303 170.377295 
L 167.44806 144.496268 
L 171.795724 141.106526 
L 172.491364 166.914257 
z
" style="fill:#b07f66;"/>
    <path clip-path="url(#p6b394e7ae4)" d="M 229.024292 176.953241 
L 233.102442 173.435223 
L 233.136587 186.208251 
L 229.079598 189.761806 
z
" style="fill:#4d2178;"/>
    <path clip-path="url(#p6b394e7ae4)" d="M 249.080545 208.437601 
L 253.815297 209.861517 
L 257.782334 206.211405 
L 253.060957 204.79941 
z
" style="fill:#4d6291;"/>
    <path clip-path="url(#p6b394e7ae4)" d="M 191.666415 172.554719 
L 191.666415 172.554719 
L 196.298158 173.917176 
L 196.298158 173.917176 
z
" style="fill:#280b27;"/>
    <path clip-path="url(#p6b394e7ae4)" d="M 192.431152 172.632707 
L 192.431152 172.632707 
L 197.064582 173.995419 
L 197.064582 173.995419 
z
" style="fill:#280b27;"/>
    <path clip-path="url(#p6b394e7ae4)" d="M 190.470596 172.900079 
L 190.470596 172.900079 
L 195.102306 174.263668 
L 195.102306 174.263668 
z
" style="fill:#280b27;"/>
    <path clip-path="url(#p6b394e7ae4)" d="M 293.449812 179.708299 
L 292.625493 217.823032 
L 297.38945 219.249698 
L 298.289531 181.094302 
z
" style="fill:#a1b1b7;"/>
    <path clip-path="url(#p6b394e7ae4)" d="M 179.091689 173.602083 
L 183.362728 170.112137 
L 183.071495 157.241239 
L 178.777074 160.694862 
z
" style="fill:#401721;"/>
    <path clip-path="url(#p6b394e7ae4)" d="M 224.322013 175.580848 
L 229.024292 176.953241 
L 229.079598 189.761806 
L 224.401422 188.375569 
z
" style="fill:#240f39;"/>
    <path clip-path="url(#p6b394e7ae4)" d="M 172.77257 171.732624 
L 177.060476 168.25829 
L 176.411024 142.422077 
L 172.075758 145.822991 
z
" style="fill:#533c30;"/>
    <path clip-path="url(#p6b394e7ae4)" d="M 187.41778 176.065288 
L 187.41778 176.065288 
L 191.666415 172.554719 
L 191.666415 172.554719 
z
" style="fill:#280b27;"/>
    <path clip-path="url(#p6b394e7ae4)" d="M 188.185345 176.143935 
L 188.185345 176.143935 
L 192.431152 172.632707 
L 192.431152 172.632707 
z
" style="fill:#280b27;"/>
    <path clip-path="url(#p6b394e7ae4)" d="M 224.322013 175.580848 
L 228.413244 172.074341 
L 233.102442 173.435223 
L 229.024292 176.953241 
z
" style="fill:#2f1449;"/>
    <path clip-path="url(#p6b394e7ae4)" d="M 216.529177 192.762054 
L 221.218657 194.162682 
L 225.32964 190.572283 
L 220.653134 189.183401 
z
" style="fill:#431c69;"/>
    <path clip-path="url(#p6b394e7ae4)" d="M 263.275997 175.699569 
L 267.204226 172.192066 
L 271.957575 173.553334 
L 268.042968 177.072352 
z
" style="fill:#364465;"/>
    <path clip-path="url(#p6b394e7ae4)" d="M 186.215144 176.413569 
L 186.215144 176.413569 
L 190.470596 172.900079 
L 190.470596 172.900079 
z
" style="fill:#280b27;"/>
    <path clip-path="url(#p6b394e7ae4)" d="M 220.554246 176.38061 
L 220.653134 189.183401 
L 225.32964 190.572283 
L 225.254837 177.755634 
z
" style="fill:#4d2178;"/>
    <path clip-path="url(#p6b394e7ae4)" d="M 187.41778 176.065288 
L 191.666415 172.554719 
L 196.298158 173.917176 
L 192.06211 177.439274 
z
" style="fill:#210920;"/>
    <path clip-path="url(#p6b394e7ae4)" d="M 187.41778 176.065288 
L 192.06211 177.439274 
L 196.298158 173.917176 
L 191.666415 172.554719 
z
" style="fill:#2f0d2e;"/>
    <path clip-path="url(#p6b394e7ae4)" d="M 289.597617 183.279617 
L 288.829232 221.498981 
L 292.625493 217.823032 
L 293.449812 179.708299 
z
" style="fill:#4c5356;"/>
    <path clip-path="url(#p6b394e7ae4)" d="M 188.185345 176.143935 
L 192.431152 172.632707 
L 197.064582 173.995419 
L 192.831375 177.51818 
z
" style="fill:#210920;"/>
    <path clip-path="url(#p6b394e7ae4)" d="M 188.185345 176.143935 
L 192.831375 177.51818 
L 197.064582 173.995419 
L 192.431152 172.632707 
z
" style="fill:#2f0d2e;"/>
    <path clip-path="url(#p6b394e7ae4)" d="M 174.48981 172.240656 
L 179.091689 173.602083 
L 178.777074 160.694862 
L 174.151886 159.347587 
z
" style="fill:#883046;"/>
    <path clip-path="url(#p6b394e7ae4)" d="M 186.215144 176.413569 
L 190.470596 172.900079 
L 195.102306 174.263668 
L 190.859434 177.788702 
z
" style="fill:#210920;"/>
    <path clip-path="url(#p6b394e7ae4)" d="M 186.215144 176.413569 
L 190.859434 177.788702 
L 195.102306 174.263668 
L 190.470596 172.900079 
z
" style="fill:#2f0d2e;"/>
    <path clip-path="url(#p6b394e7ae4)" d="M 168.191303 170.377295 
L 172.77257 171.732624 
L 172.075758 145.822991 
L 167.44806 144.496268 
z
" style="fill:#b07f66;"/>
    <path clip-path="url(#p6b394e7ae4)" d="M 174.151886 159.347587 
L 178.777074 160.694862 
L 183.071495 157.241239 
L 178.458725 155.905275 
z
" style="fill:#762a3d;"/>
    <path clip-path="url(#p6b394e7ae4)" d="M 253.199181 179.267628 
L 253.060957 204.79941 
L 257.782334 206.211405 
L 257.969916 180.652175 
z
" style="fill:#5971a7;"/>
    <path clip-path="url(#p6b394e7ae4)" d="M 192.06211 177.439274 
L 196.298158 173.917176 
L 196.298158 173.917176 
L 192.06211 177.439274 
z
" style="fill:#280b27;"/>
    <path clip-path="url(#p6b394e7ae4)" d="M 192.831375 177.51818 
L 197.064582 173.995419 
L 197.064582 173.995419 
L 192.831375 177.51818 
z
" style="fill:#280b27;"/>
    <path clip-path="url(#p6b394e7ae4)" d="M 216.857684 194.161751 
L 221.555418 195.566988 
L 225.671716 191.964792 
L 220.987003 190.57136 
z
" style="fill:#431c69;"/>
    <path clip-path="url(#p6b394e7ae4)" d="M 216.408431 179.923603 
L 216.529177 192.762054 
L 220.653134 189.183401 
L 220.554246 176.38061 
z
" style="fill:#240f39;"/>
    <path clip-path="url(#p6b394e7ae4)" d="M 190.859434 177.788702 
L 195.102306 174.263668 
L 195.102306 174.263668 
L 190.859434 177.788702 
z
" style="fill:#280b27;"/>
    <path clip-path="url(#p6b394e7ae4)" d="M 220.889683 177.75472 
L 220.987003 190.57136 
L 225.671716 191.964792 
L 225.598567 179.134272 
z
" style="fill:#4d2178;"/>
    <path clip-path="url(#p6b394e7ae4)" d="M 294.451575 184.67745 
L 298.289531 181.094302 
L 297.38945 219.249698 
L 293.606981 222.937637 
z
" style="fill:#a1b1b7;"/>
    <path clip-path="url(#p6b394e7ae4)" d="M 308.514595 177.596661 
L 312.261307 174.07324 
L 317.099334 175.440678 
L 313.366932 178.975692 
z
" style="fill:#616b6f;"/>
    <path clip-path="url(#p6b394e7ae4)" d="M 249.177828 182.835189 
L 249.080545 208.437601 
L 253.060957 204.79941 
L 253.199181 179.267628 
z
" style="fill:#2a354f;"/>
    <path clip-path="url(#p6b394e7ae4)" d="M 154.629973 177.802669 
L 159.025436 174.277519 
L 163.613229 175.645627 
L 159.229951 179.18238 
z
" style="fill:#6a4d3d;"/>
    <path clip-path="url(#p6b394e7ae4)" d="M 187.41778 176.065288 
L 192.06211 177.439274 
L 192.06211 177.439274 
L 187.41778 176.065288 
z
" style="fill:#280b27;"/>
    <path clip-path="url(#p6b394e7ae4)" d="M 220.00647 195.089096 
L 224.714504 196.49739 
L 228.821941 192.887367 
L 224.126999 191.490917 
z
" style="fill:#431c69;"/>
    <path clip-path="url(#p6b394e7ae4)" d="M 239.045873 212.326134 
L 243.785336 213.762848 
L 247.812397 210.079974 
L 243.086291 208.655342 
z
" style="fill:#4d6291;"/>
    <path clip-path="url(#p6b394e7ae4)" d="M 188.185345 176.143935 
L 192.831375 177.51818 
L 192.831375 177.51818 
L 188.185345 176.143935 
z
" style="fill:#280b27;"/>
    <path clip-path="url(#p6b394e7ae4)" d="M 239.181066 212.386783 
L 243.921082 213.823697 
L 247.947849 210.14031 
L 243.221194 208.715481 
z
" style="fill:#4d6291;"/>
    <path clip-path="url(#p6b394e7ae4)" d="M 240.296681 212.474197 
L 245.039012 213.9114 
L 249.061467 210.227274 
L 244.332515 208.802161 
z
" style="fill:#4d6291;"/>
    <path clip-path="url(#p6b394e7ae4)" d="M 186.215144 176.413569 
L 190.859434 177.788702 
L 190.859434 177.788702 
L 186.215144 176.413569 
z
" style="fill:#280b27;"/>
    <path clip-path="url(#p6b394e7ae4)" d="M 224.045873 178.665115 
L 224.126999 191.490917 
L 228.821941 192.887367 
L 228.76509 180.047671 
z
" style="fill:#4d2178;"/>
    <path clip-path="url(#p6b394e7ae4)" d="M 216.738449 181.309395 
L 216.857684 194.161751 
L 220.987003 190.57136 
L 220.889683 177.75472 
z
" style="fill:#240f39;"/>
    <path clip-path="url(#p6b394e7ae4)" d="M 221.12213 181.310317 
L 225.254837 177.755634 
L 225.32964 190.572283 
L 221.218657 194.162682 
z
" style="fill:#4d2178;"/>
    <path clip-path="url(#p6b394e7ae4)" d="M 289.597617 183.279617 
L 294.451575 184.67745 
L 293.606981 222.937637 
L 288.829232 221.498981 
z
" style="fill:#4c5356;"/>
    <path clip-path="url(#p6b394e7ae4)" d="M 167.44806 144.496268 
L 172.075758 145.822991 
L 176.411024 142.422077 
L 171.795724 141.106526 
z
" style="fill:#996e58;"/>
    <path clip-path="url(#p6b394e7ae4)" d="M 253.962222 184.231547 
L 257.969916 180.652175 
L 257.782334 206.211405 
L 253.815297 209.861517 
z
" style="fill:#5971a7;"/>
    <path clip-path="url(#p6b394e7ae4)" d="M 159.391225 179.230752 
L 163.774074 175.693592 
L 168.377475 177.066356 
L 164.006919 180.615176 
z
" style="fill:#521d2a;"/>
    <path clip-path="url(#p6b394e7ae4)" d="M 219.903519 182.227541 
L 220.00647 195.089096 
L 224.126999 191.490917 
L 224.045873 178.665115 
z
" style="fill:#240f39;"/>
    <path clip-path="url(#p6b394e7ae4)" d="M 216.408431 179.923603 
L 221.12213 181.310317 
L 221.218657 194.162682 
L 216.529177 192.762054 
z
" style="fill:#240f39;"/>
    <path clip-path="url(#p6b394e7ae4)" d="M 163.774074 175.693592 
L 163.379026 162.764676 
L 168.005748 164.123229 
L 168.377475 177.066356 
z
" style="fill:#401721;"/>
    <path clip-path="url(#p6b394e7ae4)" d="M 283.539183 231.569823 
L 288.362898 233.041583 
L 292.210654 229.268892 
L 287.400977 227.809536 
z
" style="fill:#8c999f;"/>
    <path clip-path="url(#p6b394e7ae4)" d="M 221.460488 182.700696 
L 225.598567 179.134272 
L 225.671716 191.964792 
L 221.555418 195.566988 
z
" style="fill:#4d2178;"/>
    <path clip-path="url(#p6b394e7ae4)" d="M 216.408431 179.923603 
L 220.554246 176.38061 
L 225.254837 177.755634 
L 221.12213 181.310317 
z
" style="fill:#2f1449;"/>
    <path clip-path="url(#p6b394e7ae4)" d="M 263.817385 231.962998 
L 268.610645 233.436058 
L 272.543618 229.660039 
L 267.764133 228.1994 
z
" style="fill:#8c999f;"/>
    <path clip-path="url(#p6b394e7ae4)" d="M 249.177828 182.835189 
L 253.962222 184.231547 
L 253.815297 209.861517 
L 249.080545 208.437601 
z
" style="fill:#2a354f;"/>
    <path clip-path="url(#p6b394e7ae4)" d="M 264.922307 232.152601 
L 269.718415 233.626289 
L 273.647536 229.848664 
L 268.865225 228.387406 
z
" style="fill:#8c999f;"/>
    <path clip-path="url(#p6b394e7ae4)" d="M 159.025436 174.277519 
L 158.183018 148.314294 
L 162.817367 149.653658 
L 163.613229 175.645627 
z
" style="fill:#533c30;"/>
    <path clip-path="url(#p6b394e7ae4)" d="M 243.121044 183.048712 
L 243.086291 208.655342 
L 247.812397 210.079974 
L 247.89661 184.445779 
z
" style="fill:#5971a7;"/>
    <path clip-path="url(#p6b394e7ae4)" d="M 243.257357 183.107687 
L 243.221194 208.715481 
L 247.947849 210.14031 
L 248.033484 184.504949 
z
" style="fill:#5971a7;"/>
    <path clip-path="url(#p6b394e7ae4)" d="M 244.380281 183.192688 
L 244.332515 208.802161 
L 249.061467 210.227274 
L 249.158753 184.590233 
z
" style="fill:#5971a7;"/>
    <path clip-path="url(#p6b394e7ae4)" d="M 159.391225 179.230752 
L 158.97161 166.265267 
L 163.379026 162.764676 
L 163.774074 175.693592 
z
" style="fill:#883046;"/>
    <path clip-path="url(#p6b394e7ae4)" d="M 224.635966 183.621884 
L 228.76509 180.047671 
L 228.821941 192.887367 
L 224.714504 196.49739 
z
" style="fill:#4d2178;"/>
    <path clip-path="url(#p6b394e7ae4)" d="M 156.807343 180.891835 
L 161.209753 177.340681 
L 165.818024 178.718868 
L 161.42792 182.281752 
z
" style="fill:#521d2a;"/>
    <path clip-path="url(#p6b394e7ae4)" d="M 216.738449 181.309395 
L 221.460488 182.700696 
L 221.555418 195.566988 
L 216.857684 194.161751 
z
" style="fill:#240f39;"/>
    <path clip-path="url(#p6b394e7ae4)" d="M 161.209753 177.340681 
L 160.800562 164.394717 
L 165.432203 165.758665 
L 165.818024 178.718868 
z
" style="fill:#401721;"/>
    <path clip-path="url(#p6b394e7ae4)" d="M 216.738449 181.309395 
L 220.889683 177.75472 
L 225.598567 179.134272 
L 221.460488 182.700696 
z
" style="fill:#2f1449;"/>
    <path clip-path="url(#p6b394e7ae4)" d="M 276.506497 242.1857 
L 281.327937 243.677884 
L 285.212922 239.852859 
L 280.405476 238.373276 
z
" style="fill:#ada6ae;"/>
    <path clip-path="url(#p6b394e7ae4)" d="M 154.629973 177.802669 
L 153.737895 151.765473 
L 158.183018 148.314294 
L 159.025436 174.277519 
z
" style="fill:#b07f66;"/>
    <path clip-path="url(#p6b394e7ae4)" d="M 239.03843 186.648577 
L 239.045873 212.326134 
L 243.086291 208.655342 
L 243.121044 183.048712 
z
" style="fill:#2a354f;"/>
    <path clip-path="url(#p6b394e7ae4)" d="M 239.175039 186.708056 
L 239.181066 212.386783 
L 243.221194 208.715481 
L 243.257357 183.107687 
z
" style="fill:#2a354f;"/>
    <path clip-path="url(#p6b394e7ae4)" d="M 240.302348 186.793785 
L 240.296681 212.474197 
L 244.332515 208.802161 
L 244.380281 183.192688 
z
" style="fill:#2a354f;"/>
    <path clip-path="url(#p6b394e7ae4)" d="M 219.903519 182.227541 
L 224.635966 183.621884 
L 224.714504 196.49739 
L 220.00647 195.089096 
z
" style="fill:#240f39;"/>
    <path clip-path="url(#p6b394e7ae4)" d="M 164.006919 180.615176 
L 168.377475 177.066356 
L 168.005748 164.123229 
L 163.610748 167.63542 
z
" style="fill:#401721;"/>
    <path clip-path="url(#p6b394e7ae4)" d="M 219.903519 182.227541 
L 224.045873 178.665115 
L 228.76509 180.047671 
L 224.635966 183.621884 
z
" style="fill:#2f1449;"/>
    <path clip-path="url(#p6b394e7ae4)" d="M 156.807343 180.891835 
L 156.373375 167.909229 
L 160.800562 164.394717 
L 161.209753 177.340681 
z
" style="fill:#883046;"/>
    <path clip-path="url(#p6b394e7ae4)" d="M 249.177828 182.835189 
L 253.199181 179.267628 
L 257.969916 180.652175 
L 253.962222 184.231547 
z
" style="fill:#364465;"/>
    <path clip-path="url(#p6b394e7ae4)" d="M 159.229951 179.18238 
L 163.613229 175.645627 
L 162.817367 149.653658 
L 158.384673 153.116314 
z
" style="fill:#533c30;"/>
    <path clip-path="url(#p6b394e7ae4)" d="M 243.827634 188.057616 
L 247.89661 184.445779 
L 247.812397 210.079974 
L 243.785336 213.762848 
z
" style="fill:#5971a7;"/>
    <path clip-path="url(#p6b394e7ae4)" d="M 243.964808 188.117294 
L 248.033484 184.504949 
L 247.947849 210.14031 
L 243.921082 213.823697 
z
" style="fill:#5971a7;"/>
    <path clip-path="url(#p6b394e7ae4)" d="M 245.094481 188.203309 
L 249.158753 184.590233 
L 249.061467 210.227274 
L 245.039012 213.9114 
z
" style="fill:#5971a7;"/>
    <path clip-path="url(#p6b394e7ae4)" d="M 146.168898 183.101402 
L 150.627902 179.531592 
L 155.230785 180.91701 
L 150.784003 184.498644 
z
" style="fill:#6a4d3d;"/>
    <path clip-path="url(#p6b394e7ae4)" d="M 159.391225 179.230752 
L 164.006919 180.615176 
L 163.610748 167.63542 
L 158.97161 166.265267 
z
" style="fill:#883046;"/>
    <path clip-path="url(#p6b394e7ae4)" d="M 289.597617 183.279617 
L 293.449812 179.708299 
L 298.289531 181.094302 
L 294.451575 184.67745 
z
" style="fill:#616b6f;"/>
    <path clip-path="url(#p6b394e7ae4)" d="M 271.43994 235.5198 
L 276.265 237.004648 
L 280.181128 233.198453 
L 275.370059 231.726176 
z
" style="fill:#8c999f;"/>
    <path clip-path="url(#p6b394e7ae4)" d="M 158.97161 166.265267 
L 163.610748 167.63542 
L 168.005748 164.123229 
L 163.379026 162.764676 
z
" style="fill:#762a3d;"/>
    <path clip-path="url(#p6b394e7ae4)" d="M 161.42792 182.281752 
L 165.818024 178.718868 
L 165.432203 165.758665 
L 161.017444 169.284848 
z
" style="fill:#401721;"/>
    <path clip-path="url(#p6b394e7ae4)" d="M 154.629973 177.802669 
L 159.229951 179.18238 
L 158.384673 153.116314 
L 153.737895 151.765473 
z
" style="fill:#b07f66;"/>
    <path clip-path="url(#p6b394e7ae4)" d="M 239.03843 186.648577 
L 243.827634 188.057616 
L 243.785336 213.762848 
L 239.045873 212.326134 
z
" style="fill:#2a354f;"/>
    <path clip-path="url(#p6b394e7ae4)" d="M 239.175039 186.708056 
L 243.964808 188.117294 
L 243.921082 213.823697 
L 239.181066 212.386783 
z
" style="fill:#2a354f;"/>
    <path clip-path="url(#p6b394e7ae4)" d="M 240.302348 186.793785 
L 245.094481 188.203309 
L 245.039012 213.9114 
L 240.296681 212.474197 
z
" style="fill:#2a354f;"/>
    <path clip-path="url(#p6b394e7ae4)" d="M 288.152426 189.411637 
L 287.400977 227.809536 
L 292.210654 229.268892 
L 293.039343 190.829901 
z
" style="fill:#a1b1b7;"/>
    <path clip-path="url(#p6b394e7ae4)" d="M 135.971779 184.836355 
L 140.483212 181.251861 
L 145.078763 182.642971 
L 140.579459 186.239361 
z
" style="fill:#787478;"/>
    <path clip-path="url(#p6b394e7ae4)" d="M 156.807343 180.891835 
L 161.42792 182.281752 
L 161.017444 169.284848 
L 156.373375 167.909229 
z
" style="fill:#883046;"/>
    <path clip-path="url(#p6b394e7ae4)" d="M 268.206069 189.790515 
L 267.764133 228.1994 
L 272.543618 229.660039 
L 273.061834 191.210047 
z
" style="fill:#a1b1b7;"/>
    <path clip-path="url(#p6b394e7ae4)" d="M 269.324634 189.973226 
L 268.865225 228.387406 
L 273.647536 229.848664 
L 274.183316 191.393369 
z
" style="fill:#a1b1b7;"/>
    <path clip-path="url(#p6b394e7ae4)" d="M 156.373375 167.909229 
L 161.017444 169.284848 
L 165.432203 165.758665 
L 160.800562 164.394717 
z
" style="fill:#762a3d;"/>
    <path clip-path="url(#p6b394e7ae4)" d="M 284.232697 193.066193 
L 283.539183 231.569823 
L 287.400977 227.809536 
L 288.152426 189.411637 
z
" style="fill:#4c5356;"/>
    <path clip-path="url(#p6b394e7ae4)" d="M 150.627902 179.531592 
L 149.691935 153.458227 
L 154.341674 154.814715 
L 155.230785 180.91701 
z
" style="fill:#533c30;"/>
    <path clip-path="url(#p6b394e7ae4)" d="M 264.198681 193.448341 
L 263.817385 231.962998 
L 267.764133 228.1994 
L 268.206069 189.790515 
z
" style="fill:#4c5356;"/>
    <path clip-path="url(#p6b394e7ae4)" d="M 265.321199 193.632629 
L 264.922307 232.152601 
L 268.865225 228.387406 
L 269.324634 189.973226 
z
" style="fill:#4c5356;"/>
    <path clip-path="url(#p6b394e7ae4)" d="M 153.737895 151.765473 
L 158.384673 153.116314 
L 162.817367 149.653658 
L 158.183018 148.314294 
z
" style="fill:#996e58;"/>
    <path clip-path="url(#p6b394e7ae4)" d="M 239.03843 186.648577 
L 243.121044 183.048712 
L 247.89661 184.445779 
L 243.827634 188.057616 
z
" style="fill:#364465;"/>
    <path clip-path="url(#p6b394e7ae4)" d="M 239.175039 186.708056 
L 243.257357 183.107687 
L 248.033484 184.504949 
L 243.964808 188.117294 
z
" style="fill:#364465;"/>
    <path clip-path="url(#p6b394e7ae4)" d="M 240.302348 186.793785 
L 244.380281 183.192688 
L 249.158753 184.590233 
L 245.094481 188.203309 
z
" style="fill:#364465;"/>
    <path clip-path="url(#p6b394e7ae4)" d="M 146.168898 183.101402 
L 145.181881 156.95359 
L 149.691935 153.458227 
L 150.627902 179.531592 
z
" style="fill:#b07f66;"/>
    <path clip-path="url(#p6b394e7ae4)" d="M 289.13411 194.496704 
L 293.039343 190.829901 
L 292.210654 229.268892 
L 288.362898 233.041583 
z
" style="fill:#a1b1b7;"/>
    <path clip-path="url(#p6b394e7ae4)" d="M 281.159916 193.384275 
L 280.405476 238.373276 
L 285.212922 239.852859 
L 286.058003 194.815855 
z
" style="fill:#c8bfc8;"/>
    <path clip-path="url(#p6b394e7ae4)" d="M 269.068667 194.880136 
L 273.061834 191.210047 
L 272.543618 229.660039 
L 268.610645 233.436058 
z
" style="fill:#a1b1b7;"/>
    <path clip-path="url(#p6b394e7ae4)" d="M 270.194123 195.065043 
L 274.183316 191.393369 
L 273.647536 229.848664 
L 269.718415 233.626289 
z
" style="fill:#a1b1b7;"/>
    <path clip-path="url(#p6b394e7ae4)" d="M 284.232697 193.066193 
L 289.13411 194.496704 
L 288.362898 233.041583 
L 283.539183 231.569823 
z
" style="fill:#4c5356;"/>
    <path clip-path="url(#p6b394e7ae4)" d="M 150.784003 184.498644 
L 155.230785 180.91701 
L 154.341674 154.814715 
L 149.844086 158.321777 
z
" style="fill:#533c30;"/>
    <path clip-path="url(#p6b394e7ae4)" d="M 275.934277 193.21816 
L 275.370059 231.726176 
L 280.181128 233.198453 
L 280.82264 194.649182 
z
" style="fill:#a1b1b7;"/>
    <path clip-path="url(#p6b394e7ae4)" d="M 277.191523 197.073188 
L 276.506497 242.1857 
L 280.405476 238.373276 
L 281.159916 193.384275 
z
" style="fill:#5e5a5e;"/>
    <path clip-path="url(#p6b394e7ae4)" d="M 264.198681 193.448341 
L 269.068667 194.880136 
L 268.610645 233.436058 
L 263.817385 231.962998 
z
" style="fill:#4c5356;"/>
    <path clip-path="url(#p6b394e7ae4)" d="M 265.321199 193.632629 
L 270.194123 195.065043 
L 269.718415 233.626289 
L 264.922307 232.152601 
z
" style="fill:#4c5356;"/>
    <path clip-path="url(#p6b394e7ae4)" d="M 146.168898 183.101402 
L 150.784003 184.498644 
L 149.844086 158.321777 
L 145.181881 156.95359 
z
" style="fill:#b07f66;"/>
    <path clip-path="url(#p6b394e7ae4)" d="M 271.944064 196.905633 
L 271.43994 235.5198 
L 275.370059 231.726176 
L 275.934277 193.21816 
z
" style="fill:#4c5356;"/>
    <path clip-path="url(#p6b394e7ae4)" d="M 140.483212 181.251861 
L 138.900465 141.694127 
L 143.566748 143.04096 
L 145.078763 182.642971 
z
" style="fill:#5e5a5e;"/>
    <path clip-path="url(#p6b394e7ae4)" d="M 282.104141 198.517188 
L 286.058003 194.815855 
L 285.212922 239.852859 
L 281.327937 243.677884 
z
" style="fill:#c8bfc8;"/>
    <path clip-path="url(#p6b394e7ae4)" d="M 135.971779 184.836355 
L 134.309938 145.164677 
L 138.900465 141.694127 
L 140.483212 181.251861 
z
" style="fill:#c8bfc8;"/>
    <path clip-path="url(#p6b394e7ae4)" d="M 276.846876 198.349068 
L 280.82264 194.649182 
L 280.181128 233.198453 
L 276.265 237.004648 
z
" style="fill:#a1b1b7;"/>
    <path clip-path="url(#p6b394e7ae4)" d="M 277.191523 197.073188 
L 282.104141 198.517188 
L 281.327937 243.677884 
L 276.506497 242.1857 
z
" style="fill:#5e5a5e;"/>
    <path clip-path="url(#p6b394e7ae4)" d="M 145.181881 156.95359 
L 149.844086 158.321777 
L 154.341674 154.814715 
L 149.691935 153.458227 
z
" style="fill:#996e58;"/>
    <path clip-path="url(#p6b394e7ae4)" d="M 271.944064 196.905633 
L 276.846876 198.349068 
L 276.265 237.004648 
L 271.43994 235.5198 
z
" style="fill:#4c5356;"/>
    <path clip-path="url(#p6b394e7ae4)" d="M 140.579459 186.239361 
L 145.078763 182.642971 
L 143.566748 143.04096 
L 138.988717 146.523212 
z
" style="fill:#5e5a5e;"/>
    <path clip-path="url(#p6b394e7ae4)" d="M 284.232697 193.066193 
L 288.152426 189.411637 
L 293.039343 190.829901 
L 289.13411 194.496704 
z
" style="fill:#616b6f;"/>
    <path clip-path="url(#p6b394e7ae4)" d="M 135.971779 184.836355 
L 140.579459 186.239361 
L 138.988717 146.523212 
L 134.309938 145.164677 
z
" style="fill:#c8bfc8;"/>
    <path clip-path="url(#p6b394e7ae4)" d="M 264.198681 193.448341 
L 268.206069 189.790515 
L 273.061834 191.210047 
L 269.068667 194.880136 
z
" style="fill:#616b6f;"/>
    <path clip-path="url(#p6b394e7ae4)" d="M 265.321199 193.632629 
L 269.324634 189.973226 
L 274.183316 191.393369 
L 270.194123 195.065043 
z
" style="fill:#616b6f;"/>
    <path clip-path="url(#p6b394e7ae4)" d="M 271.944064 196.905633 
L 275.934277 193.21816 
L 280.82264 194.649182 
L 276.846876 198.349068 
z
" style="fill:#616b6f;"/>
    <path clip-path="url(#p6b394e7ae4)" d="M 277.191523 197.073188 
L 281.159916 193.384275 
L 286.058003 194.815855 
L 282.104141 198.517188 
z
" style="fill:#787479;"/>
    <path clip-path="url(#p6b394e7ae4)" d="M 134.309938 145.164677 
L 138.988717 146.523212 
L 143.566748 143.04096 
L 138.900465 141.694127 
z
" style="fill:#ada6ad;"/>
   </g>
   <g id="Poly3DCollection_2">
    <path clip-path="url(#p6b394e7ae4)" d="M 202.363152 132.086038 
L 215.462522 135.738092 
L 223.116085 129.547621 
L 210.083341 125.952072 
z
" style="fill-opacity:0.6;"/>
    <path clip-path="url(#p6b394e7ae4)" d="M 215.462522 135.738092 
L 228.683315 139.423997 
L 236.268689 133.176237 
L 223.116085 129.547621 
z
" style="fill-opacity:0.6;"/>
    <path clip-path="url(#p6b394e7ae4)" d="M 194.521441 138.316558 
L 207.687926 142.026458 
L 215.462522 135.738092 
L 202.363152 132.086038 
z
" style="fill-opacity:0.6;"/>
    <path clip-path="url(#p6b394e7ae4)" d="M 228.683315 139.423997 
L 242.027226 143.144227 
L 249.542815 136.83838 
L 236.268689 133.176237 
z
" style="fill-opacity:0.6;"/>
    <path clip-path="url(#p6b394e7ae4)" d="M 207.687926 142.026458 
L 220.977425 145.77102 
L 228.683315 139.423997 
L 215.462522 135.738092 
z
" style="fill-opacity:0.6;"/>
    <path clip-path="url(#p6b394e7ae4)" d="M 242.027226 143.144227 
L 255.495983 146.899264 
L 262.940153 140.534515 
L 249.542815 136.83838 
z
" style="fill-opacity:0.6;"/>
    <path clip-path="url(#p6b394e7ae4)" d="M 186.555316 144.645928 
L 199.789402 148.415061 
L 207.687926 142.026458 
L 194.521441 138.316558 
z
" style="fill-opacity:0.6;"/>
    <path clip-path="url(#p6b394e7ae4)" d="M 220.977425 145.77102 
L 234.391669 149.550732 
L 242.027226 143.144227 
L 228.683315 139.423997 
z
" style="fill-opacity:0.6;"/>
    <path clip-path="url(#p6b394e7ae4)" d="M 255.495983 146.899264 
L 269.091346 150.689599 
L 276.462428 144.265118 
L 262.940153 140.534515 
z
" style="fill-opacity:0.6;"/>
    <path clip-path="url(#p6b394e7ae4)" d="M 199.789402 148.415061 
L 213.148124 152.219691 
L 220.977425 145.77102 
L 207.687926 142.026458 
z
" style="fill-opacity:0.6;"/>
    <path clip-path="url(#p6b394e7ae4)" d="M 234.391669 149.550732 
L 247.932425 153.36609 
L 255.495983 146.899264 
L 242.027226 143.144227 
z
" style="fill-opacity:0.6;"/>
    <path clip-path="url(#p6b394e7ae4)" d="M 269.091346 150.689599 
L 282.81511 154.515731 
L 290.111396 148.030675 
L 276.462428 144.265118 
z
" style="fill-opacity:0.6;"/>
    <path clip-path="url(#p6b394e7ae4)" d="M 178.461793 151.076522 
L 191.763965 154.906317 
L 199.789402 148.415061 
L 186.555316 144.645928 
z
" style="fill-opacity:0.6;"/>
    <path clip-path="url(#p6b394e7ae4)" d="M 213.148124 152.219691 
L 226.63325 156.060322 
L 234.391669 149.550732 
L 220.977425 145.77102 
z
" style="fill-opacity:0.6;"/>
    <path clip-path="url(#p6b394e7ae4)" d="M 247.932425 153.36609 
L 261.601489 157.217601 
L 269.091346 150.689599 
L 255.495983 146.899264 
z
" style="fill-opacity:0.6;"/>
    <path clip-path="url(#p6b394e7ae4)" d="M 282.81511 154.515731 
L 296.669101 158.37817 
L 303.888845 151.831677 
L 290.111396 148.030675 
z
" style="fill-opacity:0.6;"/>
    <path clip-path="url(#p6b394e7ae4)" d="M 191.763965 154.906317 
L 205.192424 158.772472 
L 213.148124 152.219691 
L 199.789402 148.415061 
z
" style="fill-opacity:0.6;"/>
    <path clip-path="url(#p6b394e7ae4)" d="M 226.63325 156.060322 
L 240.246584 159.937467 
L 247.932425 153.36609 
L 234.391669 149.550732 
z
" style="fill-opacity:0.6;"/>
    <path clip-path="url(#p6b394e7ae4)" d="M 261.601489 157.217601 
L 275.400694 161.105783 
L 282.81511 154.515731 
L 269.091346 150.689599 
z
" style="fill-opacity:0.6;"/>
    <path clip-path="url(#p6b394e7ae4)" d="M 170.23779 157.610786 
L 183.608529 161.50272 
L 191.763965 154.906317 
L 178.461793 151.076522 
z
" style="fill-opacity:0.6;"/>
    <path clip-path="url(#p6b394e7ae4)" d="M 296.669101 158.37817 
L 310.655183 162.277435 
L 317.796598 155.668628 
L 303.888845 151.831677 
z
" style="fill-opacity:0.6;"/>
    <path clip-path="url(#p6b394e7ae4)" d="M 205.192424 158.772472 
L 218.748979 162.675507 
L 226.63325 156.060322 
L 213.148124 152.219691 
z
" style="fill-opacity:0.6;"/>
    <path clip-path="url(#p6b394e7ae4)" d="M 240.246584 159.937467 
L 253.989962 163.851648 
L 261.601489 157.217601 
L 247.932425 153.36609 
z
" style="fill-opacity:0.6;"/>
    <path clip-path="url(#p6b394e7ae4)" d="M 275.400694 161.105783 
L 289.331908 165.03116 
L 296.669101 158.37817 
L 282.81511 154.515731 
z
" style="fill-opacity:0.6;"/>
    <path clip-path="url(#p6b394e7ae4)" d="M 183.608529 161.50272 
L 197.10724 165.431905 
L 205.192424 158.772472 
L 191.763965 154.906317 
z
" style="fill-opacity:0.6;"/>
    <path clip-path="url(#p6b394e7ae4)" d="M 310.655183 162.277435 
L 324.775253 166.214055 
L 331.836512 159.542041 
L 317.796598 155.668628 
z
" style="fill-opacity:0.6;"/>
    <path clip-path="url(#p6b394e7ae4)" d="M 218.748979 162.675507 
L 232.435471 166.615951 
L 240.246584 159.937467 
L 226.63325 156.060322 
z
" style="fill-opacity:0.6;"/>
    <path clip-path="url(#p6b394e7ae4)" d="M 253.989962 163.851648 
L 267.865256 167.803401 
L 275.400694 161.105783 
L 261.601489 157.217601 
z
" style="fill-opacity:0.6;"/>
    <path clip-path="url(#p6b394e7ae4)" d="M 161.880127 164.251247 
L 175.319911 168.206845 
L 183.608529 161.50272 
L 170.23779 157.610786 
z
" style="fill-opacity:0.6;"/>
    <path clip-path="url(#p6b394e7ae4)" d="M 289.331908 165.03116 
L 303.397034 168.994269 
L 310.655183 162.277435 
L 296.669101 158.37817 
z
" style="fill-opacity:0.6;"/>
    <path clip-path="url(#p6b394e7ae4)" d="M 197.10724 165.431905 
L 210.735769 169.398876 
L 218.748979 162.675507 
L 205.192424 158.772472 
z
" style="fill-opacity:0.6;"/>
    <path clip-path="url(#p6b394e7ae4)" d="M 232.435471 166.615951 
L 246.253776 170.594345 
L 253.989962 163.851648 
L 240.246584 159.937467 
z
" style="fill-opacity:0.6;"/>
    <path clip-path="url(#p6b394e7ae4)" d="M 267.865256 167.803401 
L 281.874376 171.793267 
L 289.331908 165.03116 
L 275.400694 161.105783 
z
" style="fill-opacity:0.6;"/>
    <path clip-path="url(#p6b394e7ae4)" d="M 175.319911 168.206845 
L 188.889384 172.200613 
L 197.10724 165.431905 
L 183.608529 161.50272 
z
" style="fill-opacity:0.6;"/>
    <path clip-path="url(#p6b394e7ae4)" d="M 303.397034 168.994269 
L 317.598012 172.995657 
L 324.775253 166.214055 
L 310.655183 162.277435 
z
" style="fill-opacity:0.6;"/>
    <path clip-path="url(#p6b394e7ae4)" d="M 210.735769 169.398876 
L 224.495998 173.404183 
L 232.435471 166.615951 
L 218.748979 162.675507 
z
" style="fill-opacity:0.6;"/>
    <path clip-path="url(#p6b394e7ae4)" d="M 246.253776 170.594345 
L 260.205809 174.611241 
L 267.865256 167.803401 
L 253.989962 163.851648 
z
" style="fill-opacity:0.6;"/>
    <path clip-path="url(#p6b394e7ae4)" d="M 153.385519 171.000517 
L 166.894822 175.021353 
L 175.319911 168.206845 
L 161.880127 164.251247 
z
" style="fill-opacity:0.6;"/>
    <path clip-path="url(#p6b394e7ae4)" d="M 281.874376 171.793267 
L 296.019266 175.821802 
L 303.397034 168.994269 
L 289.331908 165.03116 
z
" style="fill-opacity:0.6;"/>
    <path clip-path="url(#p6b394e7ae4)" d="M 188.889384 172.200613 
L 202.59043 176.233106 
L 210.735769 169.398876 
L 197.10724 165.431905 
z
" style="fill-opacity:0.6;"/>
    <path clip-path="url(#p6b394e7ae4)" d="M 224.495998 173.404183 
L 238.389845 177.448383 
L 246.253776 170.594345 
L 232.435471 166.615951 
z
" style="fill-opacity:0.6;"/>
    <path clip-path="url(#p6b394e7ae4)" d="M 260.205809 174.611241 
L 274.293519 178.667199 
L 281.874376 171.793267 
L 267.865256 167.803401 
z
" style="fill-opacity:0.6;"/>
    <path clip-path="url(#p6b394e7ae4)" d="M 166.894822 175.021353 
L 180.535562 179.08131 
L 188.889384 172.200613 
L 175.319911 168.206845 
z
" style="fill-opacity:0.6;"/>
    <path clip-path="url(#p6b394e7ae4)" d="M 296.019266 175.821802 
L 310.30191 179.889569 
L 317.598012 172.995657 
L 303.397034 168.994269 
z
" style="fill-opacity:0.6;"/>
    <path clip-path="url(#p6b394e7ae4)" d="M 202.59043 176.233106 
L 216.424974 180.30489 
L 224.495998 173.404183 
L 210.735769 169.398876 
z
" style="fill-opacity:0.6;"/>
    <path clip-path="url(#p6b394e7ae4)" d="M 238.389845 177.448383 
L 252.419265 181.532045 
L 260.205809 174.611241 
L 246.253776 170.594345 
z
" style="fill-opacity:0.6;"/>
    <path clip-path="url(#p6b394e7ae4)" d="M 144.750572 177.861291 
L 158.329863 181.948993 
L 166.894822 175.021353 
L 153.385519 171.000517 
z
" style="fill-opacity:0.6;"/>
    <path clip-path="url(#p6b394e7ae4)" d="M 274.293519 178.667199 
L 288.518896 182.762792 
L 296.019266 175.821802 
L 281.874376 171.793267 
z
" style="fill-opacity:0.6;"/>
    <path clip-path="url(#p6b394e7ae4)" d="M 180.535562 179.08131 
L 194.309668 183.180961 
L 202.59043 176.233106 
L 188.889384 172.200613 
z
" style="fill-opacity:0.6;"/>
    <path clip-path="url(#p6b394e7ae4)" d="M 216.424974 180.30489 
L 230.394976 184.416542 
L 238.389845 177.448383 
L 224.495998 173.404183 
z
" style="fill-opacity:0.6;"/>
    <path clip-path="url(#p6b394e7ae4)" d="M 252.419265 181.532045 
L 266.586254 185.655751 
L 274.293519 178.667199 
L 260.205809 174.611241 
z
" style="fill-opacity:0.6;"/>
    <path clip-path="url(#p6b394e7ae4)" d="M 158.329863 181.948993 
L 172.042374 186.076798 
L 180.535562 179.08131 
L 166.894822 175.021353 
z
" style="fill-opacity:0.6;"/>
    <path clip-path="url(#p6b394e7ae4)" d="M 288.518896 182.762792 
L 302.883968 186.898604 
L 310.30191 179.889569 
L 296.019266 175.821802 
z
" style="fill-opacity:0.6;"/>
    <path clip-path="url(#p6b394e7ae4)" d="M 194.309668 183.180961 
L 208.219103 187.320891 
L 216.424974 180.30489 
L 202.59043 176.233106 
z
" style="fill-opacity:0.6;"/>
    <path clip-path="url(#p6b394e7ae4)" d="M 230.394976 184.416542 
L 244.502436 188.56865 
L 252.419265 181.532045 
L 238.389845 177.448383 
z
" style="fill-opacity:0.6;"/>
    <path clip-path="url(#p6b394e7ae4)" d="M 135.971779 184.836355 
L 149.621522 188.992606 
L 158.329863 181.948993 
L 144.750572 177.861291 
z
" style="fill-opacity:0.6;"/>
    <path clip-path="url(#p6b394e7ae4)" d="M 266.586254 185.655751 
L 280.892844 189.820092 
L 288.518896 182.762792 
L 274.293519 178.667199 
z
" style="fill-opacity:0.6;"/>
    <path clip-path="url(#p6b394e7ae4)" d="M 172.042374 186.076798 
L 185.890076 190.245299 
L 194.309668 183.180961 
L 180.535562 179.08131 
z
" style="fill-opacity:0.6;"/>
    <path clip-path="url(#p6b394e7ae4)" d="M 208.219103 187.320891 
L 222.265874 191.501697 
L 230.394976 184.416542 
L 216.424974 180.30489 
z
" style="fill-opacity:0.6;"/>
    <path clip-path="url(#p6b394e7ae4)" d="M 244.502436 188.56865 
L 258.749392 192.761815 
L 266.586254 185.655751 
L 252.419265 181.532045 
z
" style="fill-opacity:0.6;"/>
    <path clip-path="url(#p6b394e7ae4)" d="M 149.621522 188.992606 
L 163.406302 193.189974 
L 172.042374 186.076798 
L 158.329863 181.948993 
z
" style="fill-opacity:0.6;"/>
    <path clip-path="url(#p6b394e7ae4)" d="M 280.892844 189.820092 
L 295.341109 194.025671 
L 302.883968 186.898604 
L 288.518896 182.762792 
z
" style="fill-opacity:0.6;"/>
    <path clip-path="url(#p6b394e7ae4)" d="M 185.890076 190.245299 
L 199.874977 194.455101 
L 208.219103 187.320891 
L 194.309668 183.180961 
z
" style="fill-opacity:0.6;"/>
    <path clip-path="url(#p6b394e7ae4)" d="M 222.265874 191.501697 
L 236.452023 195.723987 
L 244.502436 188.56865 
L 230.394976 184.416542 
z
" style="fill-opacity:0.6;"/>
    <path clip-path="url(#p6b394e7ae4)" d="M 258.749392 192.761815 
L 273.137923 196.996649 
L 280.892844 189.820092 
L 266.586254 185.655751 
z
" style="fill-opacity:0.6;"/>
    <path clip-path="url(#p6b394e7ae4)" d="M 163.406302 193.189974 
L 177.328134 197.429074 
L 185.890076 190.245299 
L 172.042374 186.076798 
z
" style="fill-opacity:0.6;"/>
    <path clip-path="url(#p6b394e7ae4)" d="M 199.874977 194.455101 
L 213.999128 198.706819 
L 222.265874 191.501697 
L 208.219103 187.320891 
z
" style="fill-opacity:0.6;"/>
    <path clip-path="url(#p6b394e7ae4)" d="M 236.452023 195.723987 
L 250.779636 199.988381 
L 258.749392 192.761815 
L 244.502436 188.56865 
z
" style="fill-opacity:0.6;"/>
    <path clip-path="url(#p6b394e7ae4)" d="M 273.137923 196.996649 
L 287.67015 201.273775 
L 295.341109 194.025671 
L 280.892844 189.820092 
z
" style="fill-opacity:0.6;"/>
    <path clip-path="url(#p6b394e7ae4)" d="M 177.328134 197.429074 
L 191.389073 201.710531 
L 199.874977 194.455101 
L 185.890076 190.245299 
z
" style="fill-opacity:0.6;"/>
    <path clip-path="url(#p6b394e7ae4)" d="M 213.999128 198.706819 
L 228.264617 203.001085 
L 236.452023 195.723987 
L 222.265874 191.501697 
z
" style="fill-opacity:0.6;"/>
    <path clip-path="url(#p6b394e7ae4)" d="M 250.779636 199.988381 
L 265.250839 204.295512 
L 273.137923 196.996649 
L 258.749392 192.761815 
z
" style="fill-opacity:0.6;"/>
    <path clip-path="url(#p6b394e7ae4)" d="M 191.389073 201.710531 
L 205.591212 206.034982 
L 213.999128 198.706819 
L 199.874977 194.455101 
z
" style="fill-opacity:0.6;"/>
    <path clip-path="url(#p6b394e7ae4)" d="M 228.264617 203.001085 
L 242.673578 207.338538 
L 250.779636 199.988381 
L 236.452023 195.723987 
z
" style="fill-opacity:0.6;"/>
    <path clip-path="url(#p6b394e7ae4)" d="M 265.250839 204.295512 
L 279.867802 208.646027 
L 287.67015 201.273775 
L 273.137923 196.996649 
z
" style="fill-opacity:0.6;"/>
    <path clip-path="url(#p6b394e7ae4)" d="M 205.591212 206.034982 
L 219.936691 210.403079 
L 228.264617 203.001085 
L 213.999128 198.706819 
z
" style="fill-opacity:0.6;"/>
    <path clip-path="url(#p6b394e7ae4)" d="M 242.673578 207.338538 
L 257.228185 211.719835 
L 265.250839 204.295512 
L 250.779636 199.988381 
z
" style="fill-opacity:0.6;"/>
    <path clip-path="url(#p6b394e7ae4)" d="M 219.936691 210.403079 
L 234.42769 214.815486 
L 242.673578 207.338538 
L 228.264617 203.001085 
z
" style="fill-opacity:0.6;"/>
    <path clip-path="url(#p6b394e7ae4)" d="M 257.228185 211.719835 
L 271.930658 216.145643 
L 279.867802 208.646027 
L 265.250839 204.295512 
z
" style="fill-opacity:0.6;"/>
    <path clip-path="url(#p6b394e7ae4)" d="M 234.42769 214.815486 
L 249.066434 219.272881 
L 257.228185 211.719835 
L 242.673578 207.338538 
z
" style="fill-opacity:0.6;"/>
    <path clip-path="url(#p6b394e7ae4)" d="M 249.066434 219.272881 
L 263.855195 223.775954 
L 271.930658 216.145643 
L 257.228185 211.719835 
z
" style="fill-opacity:0.6;"/>
   </g>
  </g>
 </g>
 <defs>
  <clipPath id="p6b394e7ae4">
   <rect height="266.112" width="266.112" x="103.104" y="41.472"/>
  </clipPath>
 </defs>
</svg>
