<?xml version="1.0" encoding="utf-8" standalone="no"?>
<!DOCTYPE svg PUBLIC "-//W3C//DTD SVG 1.1//EN"
  "http://www.w3.org/Graphics/SVG/1.1/DTD/svg11.dtd">
<!-- Created with matplotlib (https://matplotlib.org/) -->
<svg height="345.6pt" version="1.1" viewBox="0 0 460.8 345.6" width="460.8pt" xmlns="http://www.w3.org/2000/svg" xmlns:xlink="http://www.w3.org/1999/xlink">
 <defs>
  <style type="text/css">
*{stroke-linecap:butt;stroke-linejoin:round;}
  </style>
 </defs>
 <g id="figure_1">
  <g id="patch_1">
   <path d="M 0 345.6 
L 460.8 345.6 
L 460.8 0 
L 0 0 
z
" style="fill:#ffffff;"/>
  </g>
  <g id="patch_2">
   <path d="M 57.6 307.584 
L 414.72 307.584 
L 414.72 41.472 
L 57.6 41.472 
z
" style="fill:#ffffff;"/>
  </g>
  <g id="pane3d_1">
   <g id="patch_3">
    <path d="M 364.472421 229.172596 
L 185.241543 215.00874 
L 183.811585 78.430466 
L 367.747331 88.346559 
" style="fill:#f2f2f2;opacity:0.5;stroke:#f2f2f2;stroke-linejoin:miter;"/>
   </g>
  </g>
  <g id="pane3d_2">
   <g id="patch_4">
    <path d="M 109.948207 256.303279 
L 185.241543 215.00874 
L 183.811585 78.430466 
L 106.254535 107.387668 
" style="fill:#e6e6e6;opacity:0.5;stroke:#e6e6e6;stroke-linejoin:miter;"/>
   </g>
  </g>
  <g id="pane3d_3">
   <g id="patch_5">
    <path d="M 304.305631 273.375734 
L 364.472421 229.172596 
L 185.241543 215.00874 
L 109.948207 256.303279 
" style="fill:#ececec;opacity:0.5;stroke:#ececec;stroke-linejoin:miter;"/>
   </g>
  </g>
  <g id="axis3d_1">
   <g id="line2d_1">
    <path d="M 364.472421 229.172596 
L 304.305631 273.375734 
" style="fill:none;stroke:#000000;stroke-linecap:square;stroke-width:0.8;"/>
   </g>
   <g id="text_1">
    <!-- LCC -->
    <defs>
     <path d="M 9.8125 72.90625 
L 19.671875 72.90625 
L 19.671875 8.296875 
L 55.171875 8.296875 
L 55.171875 0 
L 9.8125 0 
z
" id="DejaVuSans-76"/>
     <path d="M 64.40625 67.28125 
L 64.40625 56.890625 
Q 59.421875 61.53125 53.78125 63.8125 
Q 48.140625 66.109375 41.796875 66.109375 
Q 29.296875 66.109375 22.65625 58.46875 
Q 16.015625 50.828125 16.015625 36.375 
Q 16.015625 21.96875 22.65625 14.328125 
Q 29.296875 6.6875 41.796875 6.6875 
Q 48.140625 6.6875 53.78125 8.984375 
Q 59.421875 11.28125 64.40625 15.921875 
L 64.40625 5.609375 
Q 59.234375 2.09375 53.4375 0.328125 
Q 47.65625 -1.421875 41.21875 -1.421875 
Q 24.65625 -1.421875 15.125 8.703125 
Q 5.609375 18.84375 5.609375 36.375 
Q 5.609375 53.953125 15.125 64.078125 
Q 24.65625 74.21875 41.21875 74.21875 
Q 47.75 74.21875 53.53125 72.484375 
Q 59.328125 70.75 64.40625 67.28125 
z
" id="DejaVuSans-67"/>
    </defs>
    <g transform="translate(362.461405 283.4324)scale(0.1 -0.1)">
     <use xlink:href="#DejaVuSans-76"/>
     <use x="55.712891" xlink:href="#DejaVuSans-67"/>
     <use x="125.537109" xlink:href="#DejaVuSans-67"/>
    </g>
   </g>
   <g id="Line3DCollection_1">
    <path d="M 305.626225 272.405525 
L 111.595686 255.399721 
L 107.95565 106.752529 
" style="fill:none;stroke:#b0b0b0;stroke-width:0.8;"/>
    <path d="M 313.440785 266.664349 
L 121.349275 250.050377 
L 118.023009 102.993714 
" style="fill:none;stroke:#b0b0b0;stroke-width:0.8;"/>
    <path d="M 321.073207 261.056986 
L 130.883293 244.821456 
L 127.857506 99.321843 
" style="fill:none;stroke:#b0b0b0;stroke-width:0.8;"/>
    <path d="M 328.529786 255.578812 
L 140.205072 239.708938 
L 137.467126 95.733933 
" style="fill:none;stroke:#b0b0b0;stroke-width:0.8;"/>
    <path d="M 335.816527 250.225413 
L 149.32162 234.708978 
L 146.859496 92.227137 
" style="fill:none;stroke:#b0b0b0;stroke-width:0.8;"/>
    <path d="M 342.93917 244.992573 
L 158.239641 229.8179 
L 156.0419 88.798735 
" style="fill:none;stroke:#b0b0b0;stroke-width:0.8;"/>
    <path d="M 349.903195 239.876266 
L 166.965551 225.032186 
L 165.021302 85.446128 
" style="fill:none;stroke:#b0b0b0;stroke-width:0.8;"/>
    <path d="M 356.713843 234.872642 
L 175.505491 220.348466 
L 173.804359 82.166829 
" style="fill:none;stroke:#b0b0b0;stroke-width:0.8;"/>
    <path d="M 363.376125 229.978019 
L 183.865343 215.763515 
L 182.397442 78.958459 
" style="fill:none;stroke:#b0b0b0;stroke-width:0.8;"/>
   </g>
   <g id="xtick_1">
    <g id="line2d_2">
     <path d="M 304.018269 272.264595 
L 308.84493 272.687628 
" style="fill:none;stroke:#000000;stroke-linecap:square;stroke-width:0.8;"/>
    </g>
    <g id="text_2">
     <!-- 0 -->
     <defs>
      <path d="M 31.78125 66.40625 
Q 24.171875 66.40625 20.328125 58.90625 
Q 16.5 51.421875 16.5 36.375 
Q 16.5 21.390625 20.328125 13.890625 
Q 24.171875 6.390625 31.78125 6.390625 
Q 39.453125 6.390625 43.28125 13.890625 
Q 47.125 21.390625 47.125 36.375 
Q 47.125 51.421875 43.28125 58.90625 
Q 39.453125 66.40625 31.78125 66.40625 
z
M 31.78125 74.21875 
Q 44.046875 74.21875 50.515625 64.515625 
Q 56.984375 54.828125 56.984375 36.375 
Q 56.984375 17.96875 50.515625 8.265625 
Q 44.046875 -1.421875 31.78125 -1.421875 
Q 19.53125 -1.421875 13.0625 8.265625 
Q 6.59375 17.96875 6.59375 36.375 
Q 6.59375 54.828125 13.0625 64.515625 
Q 19.53125 74.21875 31.78125 74.21875 
z
" id="DejaVuSans-48"/>
     </defs>
     <g transform="translate(316.568828 291.840113)scale(0.1 -0.1)">
      <use xlink:href="#DejaVuSans-48"/>
     </g>
    </g>
   </g>
   <g id="xtick_2">
    <g id="line2d_3">
     <path d="M 311.849549 266.526723 
L 316.625991 266.939837 
" style="fill:none;stroke:#000000;stroke-linecap:square;stroke-width:0.8;"/>
    </g>
    <g id="text_3">
     <!-- 1 -->
     <defs>
      <path d="M 12.40625 8.296875 
L 28.515625 8.296875 
L 28.515625 63.921875 
L 10.984375 60.40625 
L 10.984375 69.390625 
L 28.421875 72.90625 
L 38.28125 72.90625 
L 38.28125 8.296875 
L 54.390625 8.296875 
L 54.390625 0 
L 12.40625 0 
z
" id="DejaVuSans-49"/>
     </defs>
     <g transform="translate(324.221051 285.956145)scale(0.1 -0.1)">
      <use xlink:href="#DejaVuSans-49"/>
     </g>
    </g>
   </g>
   <g id="xtick_3">
    <g id="line2d_4">
     <path d="M 319.498352 260.922549 
L 324.225591 261.326089 
" style="fill:none;stroke:#000000;stroke-linecap:square;stroke-width:0.8;"/>
    </g>
    <g id="text_4">
     <!-- 2 -->
     <defs>
      <path d="M 19.1875 8.296875 
L 53.609375 8.296875 
L 53.609375 0 
L 7.328125 0 
L 7.328125 8.296875 
Q 12.9375 14.109375 22.625 23.890625 
Q 32.328125 33.6875 34.8125 36.53125 
Q 39.546875 41.84375 41.421875 45.53125 
Q 43.3125 49.21875 43.3125 52.78125 
Q 43.3125 58.59375 39.234375 62.25 
Q 35.15625 65.921875 28.609375 65.921875 
Q 23.96875 65.921875 18.8125 64.3125 
Q 13.671875 62.703125 7.8125 59.421875 
L 7.8125 69.390625 
Q 13.765625 71.78125 18.9375 73 
Q 24.125 74.21875 28.421875 74.21875 
Q 39.75 74.21875 46.484375 68.546875 
Q 53.21875 62.890625 53.21875 53.421875 
Q 53.21875 48.921875 51.53125 44.890625 
Q 49.859375 40.875 45.40625 35.40625 
Q 44.1875 33.984375 37.640625 27.21875 
Q 31.109375 20.453125 19.1875 8.296875 
z
" id="DejaVuSans-50"/>
     </defs>
     <g transform="translate(331.694823 280.209394)scale(0.1 -0.1)">
      <use xlink:href="#DejaVuSans-50"/>
     </g>
    </g>
   </g>
   <g id="xtick_4">
    <g id="line2d_5">
     <path d="M 326.970983 255.447454 
L 331.650006 255.841749 
" style="fill:none;stroke:#000000;stroke-linecap:square;stroke-width:0.8;"/>
    </g>
    <g id="text_5">
     <!-- 3 -->
     <defs>
      <path d="M 40.578125 39.3125 
Q 47.65625 37.796875 51.625 33 
Q 55.609375 28.21875 55.609375 21.1875 
Q 55.609375 10.40625 48.1875 4.484375 
Q 40.765625 -1.421875 27.09375 -1.421875 
Q 22.515625 -1.421875 17.65625 -0.515625 
Q 12.796875 0.390625 7.625 2.203125 
L 7.625 11.71875 
Q 11.71875 9.328125 16.59375 8.109375 
Q 21.484375 6.890625 26.8125 6.890625 
Q 36.078125 6.890625 40.9375 10.546875 
Q 45.796875 14.203125 45.796875 21.1875 
Q 45.796875 27.640625 41.28125 31.265625 
Q 36.765625 34.90625 28.71875 34.90625 
L 20.21875 34.90625 
L 20.21875 43.015625 
L 29.109375 43.015625 
Q 36.375 43.015625 40.234375 45.921875 
Q 44.09375 48.828125 44.09375 54.296875 
Q 44.09375 59.90625 40.109375 62.90625 
Q 36.140625 65.921875 28.71875 65.921875 
Q 24.65625 65.921875 20.015625 65.03125 
Q 15.375 64.15625 9.8125 62.3125 
L 9.8125 71.09375 
Q 15.4375 72.65625 20.34375 73.4375 
Q 25.25 74.21875 29.59375 74.21875 
Q 40.828125 74.21875 47.359375 69.109375 
Q 53.90625 64.015625 53.90625 55.328125 
Q 53.90625 49.265625 50.4375 45.09375 
Q 46.96875 40.921875 40.578125 39.3125 
z
" id="DejaVuSans-51"/>
     </defs>
     <g transform="translate(338.996313 274.595113)scale(0.1 -0.1)">
      <use xlink:href="#DejaVuSans-51"/>
     </g>
    </g>
   </g>
   <g id="xtick_5">
    <g id="line2d_6">
     <path d="M 334.27346 250.097029 
L 338.905223 250.482393 
" style="fill:none;stroke:#000000;stroke-linecap:square;stroke-width:0.8;"/>
    </g>
    <g id="text_6">
     <!-- 4 -->
     <defs>
      <path d="M 37.796875 64.3125 
L 12.890625 25.390625 
L 37.796875 25.390625 
z
M 35.203125 72.90625 
L 47.609375 72.90625 
L 47.609375 25.390625 
L 58.015625 25.390625 
L 58.015625 17.1875 
L 47.609375 17.1875 
L 47.609375 0 
L 37.796875 0 
L 37.796875 17.1875 
L 4.890625 17.1875 
L 4.890625 26.703125 
z
" id="DejaVuSans-52"/>
     </defs>
     <g transform="translate(346.131411 269.108775)scale(0.1 -0.1)">
      <use xlink:href="#DejaVuSans-52"/>
     </g>
    </g>
   </g>
   <g id="xtick_6">
    <g id="line2d_7">
     <path d="M 341.411527 244.867064 
L 345.996962 245.243797 
" style="fill:none;stroke:#000000;stroke-linecap:square;stroke-width:0.8;"/>
    </g>
    <g id="text_7">
     <!-- 5 -->
     <defs>
      <path d="M 10.796875 72.90625 
L 49.515625 72.90625 
L 49.515625 64.59375 
L 19.828125 64.59375 
L 19.828125 46.734375 
Q 21.96875 47.46875 24.109375 47.828125 
Q 26.265625 48.1875 28.421875 48.1875 
Q 40.625 48.1875 47.75 41.5 
Q 54.890625 34.8125 54.890625 23.390625 
Q 54.890625 11.625 47.5625 5.09375 
Q 40.234375 -1.421875 26.90625 -1.421875 
Q 22.3125 -1.421875 17.546875 -0.640625 
Q 12.796875 0.140625 7.71875 1.703125 
L 7.71875 11.625 
Q 12.109375 9.234375 16.796875 8.0625 
Q 21.484375 6.890625 26.703125 6.890625 
Q 35.15625 6.890625 40.078125 11.328125 
Q 45.015625 15.765625 45.015625 23.390625 
Q 45.015625 31 40.078125 35.4375 
Q 35.15625 39.890625 26.703125 39.890625 
Q 22.75 39.890625 18.8125 39.015625 
Q 14.890625 38.140625 10.796875 36.28125 
z
" id="DejaVuSans-53"/>
     </defs>
     <g transform="translate(353.105741 263.746055)scale(0.1 -0.1)">
      <use xlink:href="#DejaVuSans-53"/>
     </g>
    </g>
   </g>
   <g id="xtick_7">
    <g id="line2d_8">
     <path d="M 348.390676 239.753536 
L 352.930686 240.121925 
" style="fill:none;stroke:#000000;stroke-linecap:square;stroke-width:0.8;"/>
    </g>
    <g id="text_8">
     <!-- 6 -->
     <defs>
      <path d="M 33.015625 40.375 
Q 26.375 40.375 22.484375 35.828125 
Q 18.609375 31.296875 18.609375 23.390625 
Q 18.609375 15.53125 22.484375 10.953125 
Q 26.375 6.390625 33.015625 6.390625 
Q 39.65625 6.390625 43.53125 10.953125 
Q 47.40625 15.53125 47.40625 23.390625 
Q 47.40625 31.296875 43.53125 35.828125 
Q 39.65625 40.375 33.015625 40.375 
z
M 52.59375 71.296875 
L 52.59375 62.3125 
Q 48.875 64.0625 45.09375 64.984375 
Q 41.3125 65.921875 37.59375 65.921875 
Q 27.828125 65.921875 22.671875 59.328125 
Q 17.53125 52.734375 16.796875 39.40625 
Q 19.671875 43.65625 24.015625 45.921875 
Q 28.375 48.1875 33.59375 48.1875 
Q 44.578125 48.1875 50.953125 41.515625 
Q 57.328125 34.859375 57.328125 23.390625 
Q 57.328125 12.15625 50.6875 5.359375 
Q 44.046875 -1.421875 33.015625 -1.421875 
Q 20.359375 -1.421875 13.671875 8.265625 
Q 6.984375 17.96875 6.984375 36.375 
Q 6.984375 53.65625 15.1875 63.9375 
Q 23.390625 74.21875 37.203125 74.21875 
Q 40.921875 74.21875 44.703125 73.484375 
Q 48.484375 72.75 52.59375 71.296875 
z
" id="DejaVuSans-54"/>
     </defs>
     <g transform="translate(359.924675 258.502822)scale(0.1 -0.1)">
      <use xlink:href="#DejaVuSans-54"/>
     </g>
    </g>
   </g>
   <g id="xtick_8">
    <g id="line2d_9">
     <path d="M 355.216156 234.7526 
L 359.711618 235.112919 
" style="fill:none;stroke:#000000;stroke-linecap:square;stroke-width:0.8;"/>
    </g>
    <g id="text_9">
     <!-- 7 -->
     <defs>
      <path d="M 8.203125 72.90625 
L 55.078125 72.90625 
L 55.078125 68.703125 
L 28.609375 0 
L 18.3125 0 
L 43.21875 64.59375 
L 8.203125 64.59375 
z
" id="DejaVuSans-55"/>
     </defs>
     <g transform="translate(366.593351 253.375127)scale(0.1 -0.1)">
      <use xlink:href="#DejaVuSans-55"/>
     </g>
    </g>
   </g>
   <g id="xtick_9">
    <g id="line2d_10">
     <path d="M 361.892987 229.860577 
L 366.344754 230.213089 
" style="fill:none;stroke:#000000;stroke-linecap:square;stroke-width:0.8;"/>
    </g>
    <g id="text_10">
     <!-- 8 -->
     <defs>
      <path d="M 31.78125 34.625 
Q 24.75 34.625 20.71875 30.859375 
Q 16.703125 27.09375 16.703125 20.515625 
Q 16.703125 13.921875 20.71875 10.15625 
Q 24.75 6.390625 31.78125 6.390625 
Q 38.8125 6.390625 42.859375 10.171875 
Q 46.921875 13.96875 46.921875 20.515625 
Q 46.921875 27.09375 42.890625 30.859375 
Q 38.875 34.625 31.78125 34.625 
z
M 21.921875 38.8125 
Q 15.578125 40.375 12.03125 44.71875 
Q 8.5 49.078125 8.5 55.328125 
Q 8.5 64.0625 14.71875 69.140625 
Q 20.953125 74.21875 31.78125 74.21875 
Q 42.671875 74.21875 48.875 69.140625 
Q 55.078125 64.0625 55.078125 55.328125 
Q 55.078125 49.078125 51.53125 44.71875 
Q 48 40.375 41.703125 38.8125 
Q 48.828125 37.15625 52.796875 32.3125 
Q 56.78125 27.484375 56.78125 20.515625 
Q 56.78125 9.90625 50.3125 4.234375 
Q 43.84375 -1.421875 31.78125 -1.421875 
Q 19.734375 -1.421875 13.25 4.234375 
Q 6.78125 9.90625 6.78125 20.515625 
Q 6.78125 27.484375 10.78125 32.3125 
Q 14.796875 37.15625 21.921875 38.8125 
z
M 18.3125 54.390625 
Q 18.3125 48.734375 21.84375 45.5625 
Q 25.390625 42.390625 31.78125 42.390625 
Q 38.140625 42.390625 41.71875 45.5625 
Q 45.3125 48.734375 45.3125 54.390625 
Q 45.3125 60.0625 41.71875 63.234375 
Q 38.140625 66.40625 31.78125 66.40625 
Q 25.390625 66.40625 21.84375 63.234375 
Q 18.3125 60.0625 18.3125 54.390625 
z
" id="DejaVuSans-56"/>
     </defs>
     <g transform="translate(373.11668 248.359192)scale(0.1 -0.1)">
      <use xlink:href="#DejaVuSans-56"/>
     </g>
    </g>
   </g>
  </g>
  <g id="axis3d_2">
   <g id="line2d_11">
    <path d="M 109.948207 256.303279 
L 304.305631 273.375734 
" style="fill:none;stroke:#000000;stroke-linecap:square;stroke-width:0.8;"/>
   </g>
   <g id="text_11">
    <!-- GWP -->
    <defs>
     <path d="M 59.515625 10.40625 
L 59.515625 29.984375 
L 43.40625 29.984375 
L 43.40625 38.09375 
L 69.28125 38.09375 
L 69.28125 6.78125 
Q 63.578125 2.734375 56.6875 0.65625 
Q 49.8125 -1.421875 42 -1.421875 
Q 24.90625 -1.421875 15.25 8.5625 
Q 5.609375 18.5625 5.609375 36.375 
Q 5.609375 54.25 15.25 64.234375 
Q 24.90625 74.21875 42 74.21875 
Q 49.125 74.21875 55.546875 72.453125 
Q 61.96875 70.703125 67.390625 67.28125 
L 67.390625 56.78125 
Q 61.921875 61.421875 55.765625 63.765625 
Q 49.609375 66.109375 42.828125 66.109375 
Q 29.4375 66.109375 22.71875 58.640625 
Q 16.015625 51.171875 16.015625 36.375 
Q 16.015625 21.625 22.71875 14.15625 
Q 29.4375 6.6875 42.828125 6.6875 
Q 48.046875 6.6875 52.140625 7.59375 
Q 56.25 8.5 59.515625 10.40625 
z
" id="DejaVuSans-71"/>
     <path d="M 3.328125 72.90625 
L 13.28125 72.90625 
L 28.609375 11.28125 
L 43.890625 72.90625 
L 54.984375 72.90625 
L 70.3125 11.28125 
L 85.59375 72.90625 
L 95.609375 72.90625 
L 77.296875 0 
L 64.890625 0 
L 49.515625 63.28125 
L 33.984375 0 
L 21.578125 0 
z
" id="DejaVuSans-87"/>
     <path d="M 19.671875 64.796875 
L 19.671875 37.40625 
L 32.078125 37.40625 
Q 38.96875 37.40625 42.71875 40.96875 
Q 46.484375 44.53125 46.484375 51.125 
Q 46.484375 57.671875 42.71875 61.234375 
Q 38.96875 64.796875 32.078125 64.796875 
z
M 9.8125 72.90625 
L 32.078125 72.90625 
Q 44.34375 72.90625 50.609375 67.359375 
Q 56.890625 61.8125 56.890625 51.125 
Q 56.890625 40.328125 50.609375 34.8125 
Q 44.34375 29.296875 32.078125 29.296875 
L 19.671875 29.296875 
L 19.671875 0 
L 9.8125 0 
z
" id="DejaVuSans-80"/>
    </defs>
    <g transform="translate(179.301888 305.016998)scale(0.1 -0.1)">
     <use xlink:href="#DejaVuSans-71"/>
     <use x="77.490234" xlink:href="#DejaVuSans-87"/>
     <use x="176.367188" xlink:href="#DejaVuSans-80"/>
    </g>
   </g>
   <g id="Line3DCollection_2">
    <path d="M 363.946659 88.141662 
L 360.772034 228.88017 
L 300.280444 273.022159 
" style="fill:none;stroke:#b0b0b0;stroke-width:0.8;"/>
    <path d="M 343.762953 87.053546 
L 341.118729 227.327053 
L 278.910935 271.145051 
" style="fill:none;stroke:#b0b0b0;stroke-width:0.8;"/>
    <path d="M 323.723864 85.973226 
L 321.602633 225.784778 
L 257.705353 269.282342 
" style="fill:none;stroke:#b0b0b0;stroke-width:0.8;"/>
    <path d="M 303.827845 84.900619 
L 302.222311 224.253234 
L 236.66182 267.433867 
" style="fill:none;stroke:#b0b0b0;stroke-width:0.8;"/>
    <path d="M 284.073368 83.835642 
L 282.976353 222.732308 
L 215.778486 265.599465 
" style="fill:none;stroke:#b0b0b0;stroke-width:0.8;"/>
    <path d="M 264.458928 82.778215 
L 263.863366 221.221889 
L 195.053527 263.778974 
" style="fill:none;stroke:#b0b0b0;stroke-width:0.8;"/>
    <path d="M 244.983042 81.728258 
L 244.881976 219.721871 
L 174.48515 261.972237 
" style="fill:none;stroke:#b0b0b0;stroke-width:0.8;"/>
    <path d="M 225.644247 80.685691 
L 226.03083 218.232145 
L 154.071586 260.179099 
" style="fill:none;stroke:#b0b0b0;stroke-width:0.8;"/>
    <path d="M 206.4411 79.650437 
L 207.308591 216.752605 
L 133.811093 258.399407 
" style="fill:none;stroke:#b0b0b0;stroke-width:0.8;"/>
    <path d="M 187.372179 78.62242 
L 188.713941 215.283149 
L 113.701957 256.633011 
" style="fill:none;stroke:#b0b0b0;stroke-width:0.8;"/>
   </g>
   <g id="xtick_10">
    <g id="line2d_12">
     <path d="M 300.812133 272.634175 
L 299.214522 273.799985 
" style="fill:none;stroke:#000000;stroke-linecap:square;stroke-width:0.8;"/>
    </g>
    <g id="text_12">
     <!-- 0 -->
     <g transform="translate(292.242483 294.724013)scale(0.1 -0.1)">
      <use xlink:href="#DejaVuSans-48"/>
     </g>
    </g>
   </g>
   <g id="xtick_11">
    <g id="line2d_13">
     <path d="M 279.457519 270.760047 
L 277.81516 271.916894 
" style="fill:none;stroke:#000000;stroke-linecap:square;stroke-width:0.8;"/>
    </g>
    <g id="text_13">
     <!-- 2 -->
     <g transform="translate(270.783878 292.782851)scale(0.1 -0.1)">
      <use xlink:href="#DejaVuSans-50"/>
     </g>
    </g>
   </g>
   <g id="xtick_12">
    <g id="line2d_14">
     <path d="M 258.26659 268.900285 
L 256.580215 270.048271 
" style="fill:none;stroke:#000000;stroke-linecap:square;stroke-width:0.8;"/>
    </g>
    <g id="text_14">
     <!-- 4 -->
     <g transform="translate(249.490712 290.856654)scale(0.1 -0.1)">
      <use xlink:href="#DejaVuSans-52"/>
     </g>
    </g>
   </g>
   <g id="xtick_13">
    <g id="line2d_15">
     <path d="M 237.237469 267.054723 
L 235.507799 268.19395 
" style="fill:none;stroke:#000000;stroke-linecap:square;stroke-width:0.8;"/>
    </g>
    <g id="text_15">
     <!-- 6 -->
     <g transform="translate(228.36108 288.945251)scale(0.1 -0.1)">
      <use xlink:href="#DejaVuSans-54"/>
     </g>
    </g>
   </g>
   <g id="xtick_14">
    <g id="line2d_16">
     <path d="M 216.368312 265.2232 
L 214.596053 266.353767 
" style="fill:none;stroke:#000000;stroke-linecap:square;stroke-width:0.8;"/>
    </g>
    <g id="text_16">
     <!-- 8 -->
     <g transform="translate(207.393104 287.048471)scale(0.1 -0.1)">
      <use xlink:href="#DejaVuSans-56"/>
     </g>
    </g>
   </g>
   <g id="xtick_15">
    <g id="line2d_17">
     <path d="M 195.6573 263.405556 
L 193.843147 264.527562 
" style="fill:none;stroke:#000000;stroke-linecap:square;stroke-width:0.8;"/>
    </g>
    <g id="text_17">
     <!-- 10 -->
     <g transform="translate(183.403686 285.166148)scale(0.1 -0.1)">
      <use xlink:href="#DejaVuSans-49"/>
      <use x="63.623047" xlink:href="#DejaVuSans-48"/>
     </g>
    </g>
   </g>
   <g id="xtick_16">
    <g id="line2d_18">
     <path d="M 175.102642 261.601634 
L 173.247278 262.715176 
" style="fill:none;stroke:#000000;stroke-linecap:square;stroke-width:0.8;"/>
    </g>
    <g id="text_18">
     <!-- 12 -->
     <g transform="translate(162.753507 283.298116)scale(0.1 -0.1)">
      <use xlink:href="#DejaVuSans-49"/>
      <use x="63.623047" xlink:href="#DejaVuSans-50"/>
     </g>
    </g>
   </g>
   <g id="xtick_17">
    <g id="line2d_19">
     <path d="M 154.702573 259.811279 
L 152.806669 260.916452 
" style="fill:none;stroke:#000000;stroke-linecap:square;stroke-width:0.8;"/>
    </g>
    <g id="text_19">
     <!-- 14 -->
     <g transform="translate(142.259523 281.444214)scale(0.1 -0.1)">
      <use xlink:href="#DejaVuSans-49"/>
      <use x="63.623047" xlink:href="#DejaVuSans-52"/>
     </g>
    </g>
   </g>
   <g id="xtick_18">
    <g id="line2d_20">
     <path d="M 134.455358 258.034339 
L 132.519573 259.131238 
" style="fill:none;stroke:#000000;stroke-linecap:square;stroke-width:0.8;"/>
    </g>
    <g id="text_20">
     <!-- 16 -->
     <g transform="translate(121.91997 279.604282)scale(0.1 -0.1)">
      <use xlink:href="#DejaVuSans-49"/>
      <use x="63.623047" xlink:href="#DejaVuSans-54"/>
     </g>
    </g>
   </g>
   <g id="xtick_19">
    <g id="line2d_21">
     <path d="M 114.359283 256.270664 
L 112.384265 257.35938 
" style="fill:none;stroke:#000000;stroke-linecap:square;stroke-width:0.8;"/>
    </g>
    <g id="text_21">
     <!-- 18 -->
     <g transform="translate(101.733109 277.778162)scale(0.1 -0.1)">
      <use xlink:href="#DejaVuSans-49"/>
      <use x="63.623047" xlink:href="#DejaVuSans-56"/>
     </g>
    </g>
   </g>
  </g>
  <g id="axis3d_3">
   <g id="line2d_22">
    <path d="M 109.948207 256.303279 
L 106.254535 107.387668 
" style="fill:none;stroke:#000000;stroke-linecap:square;stroke-width:0.8;"/>
   </g>
   <g id="text_22">
    <!-- Circularity -->
    <defs>
     <path d="M 9.421875 54.6875 
L 18.40625 54.6875 
L 18.40625 0 
L 9.421875 0 
z
M 9.421875 75.984375 
L 18.40625 75.984375 
L 18.40625 64.59375 
L 9.421875 64.59375 
z
" id="DejaVuSans-105"/>
     <path d="M 41.109375 46.296875 
Q 39.59375 47.171875 37.8125 47.578125 
Q 36.03125 48 33.890625 48 
Q 26.265625 48 22.1875 43.046875 
Q 18.109375 38.09375 18.109375 28.8125 
L 18.109375 0 
L 9.078125 0 
L 9.078125 54.6875 
L 18.109375 54.6875 
L 18.109375 46.1875 
Q 20.953125 51.171875 25.484375 53.578125 
Q 30.03125 56 36.53125 56 
Q 37.453125 56 38.578125 55.875 
Q 39.703125 55.765625 41.0625 55.515625 
z
" id="DejaVuSans-114"/>
     <path d="M 48.78125 52.59375 
L 48.78125 44.1875 
Q 44.96875 46.296875 41.140625 47.34375 
Q 37.3125 48.390625 33.40625 48.390625 
Q 24.65625 48.390625 19.8125 42.84375 
Q 14.984375 37.3125 14.984375 27.296875 
Q 14.984375 17.28125 19.8125 11.734375 
Q 24.65625 6.203125 33.40625 6.203125 
Q 37.3125 6.203125 41.140625 7.25 
Q 44.96875 8.296875 48.78125 10.40625 
L 48.78125 2.09375 
Q 45.015625 0.34375 40.984375 -0.53125 
Q 36.96875 -1.421875 32.421875 -1.421875 
Q 20.0625 -1.421875 12.78125 6.34375 
Q 5.515625 14.109375 5.515625 27.296875 
Q 5.515625 40.671875 12.859375 48.328125 
Q 20.21875 56 33.015625 56 
Q 37.15625 56 41.109375 55.140625 
Q 45.0625 54.296875 48.78125 52.59375 
z
" id="DejaVuSans-99"/>
     <path d="M 8.5 21.578125 
L 8.5 54.6875 
L 17.484375 54.6875 
L 17.484375 21.921875 
Q 17.484375 14.15625 20.5 10.265625 
Q 23.53125 6.390625 29.59375 6.390625 
Q 36.859375 6.390625 41.078125 11.03125 
Q 45.3125 15.671875 45.3125 23.6875 
L 45.3125 54.6875 
L 54.296875 54.6875 
L 54.296875 0 
L 45.3125 0 
L 45.3125 8.40625 
Q 42.046875 3.421875 37.71875 1 
Q 33.40625 -1.421875 27.6875 -1.421875 
Q 18.265625 -1.421875 13.375 4.4375 
Q 8.5 10.296875 8.5 21.578125 
z
M 31.109375 56 
z
" id="DejaVuSans-117"/>
     <path d="M 9.421875 75.984375 
L 18.40625 75.984375 
L 18.40625 0 
L 9.421875 0 
z
" id="DejaVuSans-108"/>
     <path d="M 34.28125 27.484375 
Q 23.390625 27.484375 19.1875 25 
Q 14.984375 22.515625 14.984375 16.5 
Q 14.984375 11.71875 18.140625 8.90625 
Q 21.296875 6.109375 26.703125 6.109375 
Q 34.1875 6.109375 38.703125 11.40625 
Q 43.21875 16.703125 43.21875 25.484375 
L 43.21875 27.484375 
z
M 52.203125 31.203125 
L 52.203125 0 
L 43.21875 0 
L 43.21875 8.296875 
Q 40.140625 3.328125 35.546875 0.953125 
Q 30.953125 -1.421875 24.3125 -1.421875 
Q 15.921875 -1.421875 10.953125 3.296875 
Q 6 8.015625 6 15.921875 
Q 6 25.140625 12.171875 29.828125 
Q 18.359375 34.515625 30.609375 34.515625 
L 43.21875 34.515625 
L 43.21875 35.40625 
Q 43.21875 41.609375 39.140625 45 
Q 35.0625 48.390625 27.6875 48.390625 
Q 23 48.390625 18.546875 47.265625 
Q 14.109375 46.140625 10.015625 43.890625 
L 10.015625 52.203125 
Q 14.9375 54.109375 19.578125 55.046875 
Q 24.21875 56 28.609375 56 
Q 40.484375 56 46.34375 49.84375 
Q 52.203125 43.703125 52.203125 31.203125 
z
" id="DejaVuSans-97"/>
     <path d="M 18.3125 70.21875 
L 18.3125 54.6875 
L 36.8125 54.6875 
L 36.8125 47.703125 
L 18.3125 47.703125 
L 18.3125 18.015625 
Q 18.3125 11.328125 20.140625 9.421875 
Q 21.96875 7.515625 27.59375 7.515625 
L 36.8125 7.515625 
L 36.8125 0 
L 27.59375 0 
Q 17.1875 0 13.234375 3.875 
Q 9.28125 7.765625 9.28125 18.015625 
L 9.28125 47.703125 
L 2.6875 47.703125 
L 2.6875 54.6875 
L 9.28125 54.6875 
L 9.28125 70.21875 
z
" id="DejaVuSans-116"/>
     <path d="M 32.171875 -5.078125 
Q 28.375 -14.84375 24.75 -17.8125 
Q 21.140625 -20.796875 15.09375 -20.796875 
L 7.90625 -20.796875 
L 7.90625 -13.28125 
L 13.1875 -13.28125 
Q 16.890625 -13.28125 18.9375 -11.515625 
Q 21 -9.765625 23.484375 -3.21875 
L 25.09375 0.875 
L 2.984375 54.6875 
L 12.5 54.6875 
L 29.59375 11.921875 
L 46.6875 54.6875 
L 56.203125 54.6875 
z
" id="DejaVuSans-121"/>
    </defs>
    <g transform="translate(51.781051 162.160264)rotate(-271.420861)scale(0.1 -0.1)">
     <use xlink:href="#DejaVuSans-67"/>
     <use x="69.824219" xlink:href="#DejaVuSans-105"/>
     <use x="97.607422" xlink:href="#DejaVuSans-114"/>
     <use x="136.470703" xlink:href="#DejaVuSans-99"/>
     <use x="191.451172" xlink:href="#DejaVuSans-117"/>
     <use x="254.830078" xlink:href="#DejaVuSans-108"/>
     <use x="282.613281" xlink:href="#DejaVuSans-97"/>
     <use x="343.892578" xlink:href="#DejaVuSans-114"/>
     <use x="385.005859" xlink:href="#DejaVuSans-105"/>
     <use x="412.789062" xlink:href="#DejaVuSans-116"/>
     <use x="451.998047" xlink:href="#DejaVuSans-121"/>
    </g>
   </g>
   <g id="Line3DCollection_3">
    <path d="M 109.87632 253.405029 
L 185.213645 212.34416 
L 364.53626 226.427422 
" style="fill:none;stroke:#b0b0b0;stroke-width:0.8;"/>
    <path d="M 109.298367 230.104039 
L 184.989453 190.931116 
L 365.049358 204.363427 
" style="fill:none;stroke:#b0b0b0;stroke-width:0.8;"/>
    <path d="M 108.715296 206.596711 
L 184.763451 169.345226 
L 365.566736 182.115407 
" style="fill:none;stroke:#b0b0b0;stroke-width:0.8;"/>
    <path d="M 108.127039 182.880292 
L 184.535618 147.584389 
L 366.088447 159.681049 
" style="fill:none;stroke:#b0b0b0;stroke-width:0.8;"/>
    <path d="M 107.533526 158.951978 
L 184.305931 125.646469 
L 366.614546 137.058003 
" style="fill:none;stroke:#b0b0b0;stroke-width:0.8;"/>
    <path d="M 106.934686 134.808918 
L 184.074367 103.529297 
L 367.145089 114.243877 
" style="fill:none;stroke:#b0b0b0;stroke-width:0.8;"/>
    <path d="M 106.330448 110.448207 
L 183.840903 81.230665 
L 367.680132 91.236242 
" style="fill:none;stroke:#b0b0b0;stroke-width:0.8;"/>
   </g>
   <g id="xtick_20">
    <g id="line2d_23">
     <path d="M 110.536488 253.045219 
L 108.55293 254.126311 
" style="fill:none;stroke:#000000;stroke-linecap:square;stroke-width:0.8;"/>
    </g>
    <g id="text_23">
     <!-- 0.0 -->
     <defs>
      <path d="M 10.6875 12.40625 
L 21 12.40625 
L 21 0 
L 10.6875 0 
z
" id="DejaVuSans-46"/>
     </defs>
     <g transform="translate(82.693062 263.040791)scale(0.1 -0.1)">
      <use xlink:href="#DejaVuSans-48"/>
      <use x="63.623047" xlink:href="#DejaVuSans-46"/>
      <use x="95.410156" xlink:href="#DejaVuSans-48"/>
     </g>
    </g>
   </g>
   <g id="xtick_21">
    <g id="line2d_24">
     <path d="M 109.961889 229.760642 
L 107.968239 230.792429 
" style="fill:none;stroke:#000000;stroke-linecap:square;stroke-width:0.8;"/>
    </g>
    <g id="text_24">
     <!-- 0.2 -->
     <g transform="translate(82.027434 239.646917)scale(0.1 -0.1)">
      <use xlink:href="#DejaVuSans-48"/>
      <use x="63.623047" xlink:href="#DejaVuSans-46"/>
      <use x="95.410156" xlink:href="#DejaVuSans-50"/>
     </g>
    </g>
   </g>
   <g id="xtick_22">
    <g id="line2d_25">
     <path d="M 109.382206 206.270031 
L 107.378363 207.251595 
" style="fill:none;stroke:#000000;stroke-linecap:square;stroke-width:0.8;"/>
    </g>
    <g id="text_25">
     <!-- 0.4 -->
     <g transform="translate(81.355886 216.044971)scale(0.1 -0.1)">
      <use xlink:href="#DejaVuSans-48"/>
      <use x="63.623047" xlink:href="#DejaVuSans-46"/>
      <use x="95.410156" xlink:href="#DejaVuSans-52"/>
     </g>
    </g>
   </g>
   <g id="xtick_23">
    <g id="line2d_26">
     <path d="M 108.797371 182.570641 
L 106.783232 183.501045 
" style="fill:none;stroke:#000000;stroke-linecap:square;stroke-width:0.8;"/>
    </g>
    <g id="text_26">
     <!-- 0.6 -->
     <g transform="translate(80.678338 192.232165)scale(0.1 -0.1)">
      <use xlink:href="#DejaVuSans-48"/>
      <use x="63.623047" xlink:href="#DejaVuSans-46"/>
      <use x="95.410156" xlink:href="#DejaVuSans-54"/>
     </g>
    </g>
   </g>
   <g id="xtick_24">
    <g id="line2d_27">
     <path d="M 108.207315 158.659674 
L 106.182775 159.537962 
" style="fill:none;stroke:#000000;stroke-linecap:square;stroke-width:0.8;"/>
    </g>
    <g id="text_27">
     <!-- 0.8 -->
     <g transform="translate(79.99471 168.205661)scale(0.1 -0.1)">
      <use xlink:href="#DejaVuSans-48"/>
      <use x="63.623047" xlink:href="#DejaVuSans-46"/>
      <use x="95.410156" xlink:href="#DejaVuSans-56"/>
     </g>
    </g>
   </g>
   <g id="xtick_25">
    <g id="line2d_28">
     <path d="M 107.611967 134.534285 
L 105.576921 135.359482 
" style="fill:none;stroke:#000000;stroke-linecap:square;stroke-width:0.8;"/>
    </g>
    <g id="text_28">
     <!-- 1.0 -->
     <g transform="translate(79.30492 143.96257)scale(0.1 -0.1)">
      <use xlink:href="#DejaVuSans-49"/>
      <use x="63.623047" xlink:href="#DejaVuSans-46"/>
      <use x="95.410156" xlink:href="#DejaVuSans-48"/>
     </g>
    </g>
   </g>
   <g id="xtick_26">
    <g id="line2d_29">
     <path d="M 107.011257 110.191576 
L 104.965597 110.962687 
" style="fill:none;stroke:#000000;stroke-linecap:square;stroke-width:0.8;"/>
    </g>
    <g id="text_29">
     <!-- 1.2 -->
     <g transform="translate(78.608883 119.499949)scale(0.1 -0.1)">
      <use xlink:href="#DejaVuSans-49"/>
      <use x="63.623047" xlink:href="#DejaVuSans-46"/>
      <use x="95.410156" xlink:href="#DejaVuSans-50"/>
     </g>
    </g>
   </g>
  </g>
  <g id="axes_1">
   <g id="line2d_30">
    <path clip-path="url(#p5a46c05370)" d="M 278.947596 205.568222 
L 333.880269 103.245182 
" style="fill:none;stroke:#1f77b4;stroke-dasharray:5.55,2.4;stroke-dashoffset:0;stroke-opacity:0.7;stroke-width:1.5;"/>
   </g>
   <g id="line2d_31">
    <path clip-path="url(#p5a46c05370)" d="M 278.947596 205.568222 
L 333.880269 103.245182 
" style="fill:none;stroke:#ff7f0e;stroke-dasharray:5.55,2.4;stroke-dashoffset:0;stroke-opacity:0.7;stroke-width:1.5;"/>
   </g>
   <g id="Poly3DCollection_1">
    <path clip-path="url(#p5a46c05370)" d="M 206.875767 185.126268 
L 206.430448 184.981909 
L 189.637943 179.636636 
z
" style="fill:#d60000;"/>
    <path clip-path="url(#p5a46c05370)" d="M 206.430448 184.981909 
L 281.471508 213.280641 
L 189.637943 179.636636 
z
" style="fill:#bd0000;"/>
    <path clip-path="url(#p5a46c05370)" d="M 281.471508 213.280641 
L 206.430448 184.981909 
L 206.875767 185.126268 
z
" style="fill:#be0000;"/>
    <path clip-path="url(#p5a46c05370)" d="M 223.136578 190.426194 
L 240.260244 196.27666 
L 224.026719 190.726358 
z
" style="fill:#d50000;"/>
    <path clip-path="url(#p5a46c05370)" d="M 259.664569 203.579527 
L 223.136578 190.426194 
L 206.875767 185.126268 
z
" style="fill:#cd0000;"/>
    <path clip-path="url(#p5a46c05370)" d="M 206.875767 185.126268 
L 223.136578 190.426194 
L 281.471508 213.280641 
z
" style="fill:#be0000;"/>
    <path clip-path="url(#p5a46c05370)" d="M 241.617984 196.765109 
L 240.260244 196.27666 
L 223.136578 190.426194 
z
" style="fill:#d00000;"/>
    <path clip-path="url(#p5a46c05370)" d="M 224.026719 190.726358 
L 281.471508 213.280641 
L 223.136578 190.426194 
z
" style="fill:#be0000;"/>
    <path clip-path="url(#p5a46c05370)" d="M 259.664569 203.579527 
L 241.617984 196.765109 
L 223.136578 190.426194 
z
" style="fill:#cd0000;"/>
    <path clip-path="url(#p5a46c05370)" d="M 240.260244 196.27666 
L 281.471508 213.280641 
L 224.026719 190.726358 
z
" style="fill:#be0000;"/>
    <path clip-path="url(#p5a46c05370)" d="M 240.260244 196.27666 
L 241.617984 196.765109 
L 281.471508 213.280641 
z
" style="fill:#bf0000;"/>
    <path clip-path="url(#p5a46c05370)" d="M 257.813876 202.833647 
L 241.617984 196.765109 
L 259.664569 203.579527 
z
" style="fill:#cf0000;"/>
    <path clip-path="url(#p5a46c05370)" d="M 281.471508 213.280641 
L 241.617984 196.765109 
L 257.813876 202.833647 
z
" style="fill:#c00000;"/>
    <path clip-path="url(#p5a46c05370)" d="M 269.302788 211.410898 
L 257.813876 202.833647 
L 259.664569 203.579527 
z
" style="fill:#b50000;"/>
    <path clip-path="url(#p5a46c05370)" d="M 259.664569 203.579527 
L 275.987573 261.049297 
L 269.302788 211.410898 
z
" style="fill:#de0000;"/>
    <path clip-path="url(#p5a46c05370)" d="M 277.188853 243.376279 
L 275.987573 261.049297 
L 276.562183 261.890235 
z
" style="fill:#e80000;"/>
    <path clip-path="url(#p5a46c05370)" d="M 277.188853 243.376279 
L 269.302788 211.410898 
L 275.987573 261.049297 
z
" style="fill:#e20000;"/>
    <path clip-path="url(#p5a46c05370)" d="M 281.471508 213.280641 
L 257.813876 202.833647 
L 269.302788 211.410898 
z
" style="fill:#ce0000;"/>
    <path clip-path="url(#p5a46c05370)" d="M 276.562183 261.890235 
L 278.699615 244.84668 
L 277.188853 243.376279 
z
" style="fill:#cd0000;"/>
    <path clip-path="url(#p5a46c05370)" d="M 281.471508 213.280641 
L 269.302788 211.410898 
L 277.188853 243.376279 
z
" style="fill:#e30000;"/>
    <path clip-path="url(#p5a46c05370)" d="M 278.699615 244.84668 
L 281.51539 213.356205 
L 277.188853 243.376279 
z
" style="fill:#d00000;"/>
    <path clip-path="url(#p5a46c05370)" d="M 277.188853 243.376279 
L 281.51539 213.356205 
L 281.471508 213.280641 
z
" style="fill:#bf0000;"/>
    <path clip-path="url(#p5a46c05370)" d="M 281.524317 213.350643 
L 281.528376 213.348115 
L 281.471508 213.280641 
z
" style="fill:#c30000;"/>
    <path clip-path="url(#p5a46c05370)" d="M 281.471508 213.280641 
L 281.51539 213.356205 
L 281.524317 213.350643 
z
" style="fill:#c30000;"/>
   </g>
   <g id="text_30">
    <!-- Inn:o_all_inn -->
    <defs>
     <path d="M 9.8125 72.90625 
L 19.671875 72.90625 
L 19.671875 0 
L 9.8125 0 
z
" id="DejaVuSans-73"/>
     <path d="M 54.890625 33.015625 
L 54.890625 0 
L 45.90625 0 
L 45.90625 32.71875 
Q 45.90625 40.484375 42.875 44.328125 
Q 39.84375 48.1875 33.796875 48.1875 
Q 26.515625 48.1875 22.3125 43.546875 
Q 18.109375 38.921875 18.109375 30.90625 
L 18.109375 0 
L 9.078125 0 
L 9.078125 54.6875 
L 18.109375 54.6875 
L 18.109375 46.1875 
Q 21.34375 51.125 25.703125 53.5625 
Q 30.078125 56 35.796875 56 
Q 45.21875 56 50.046875 50.171875 
Q 54.890625 44.34375 54.890625 33.015625 
z
" id="DejaVuSans-110"/>
     <path d="M 11.71875 12.40625 
L 22.015625 12.40625 
L 22.015625 0 
L 11.71875 0 
z
M 11.71875 51.703125 
L 22.015625 51.703125 
L 22.015625 39.3125 
L 11.71875 39.3125 
z
" id="DejaVuSans-58"/>
     <path d="M 30.609375 48.390625 
Q 23.390625 48.390625 19.1875 42.75 
Q 14.984375 37.109375 14.984375 27.296875 
Q 14.984375 17.484375 19.15625 11.84375 
Q 23.34375 6.203125 30.609375 6.203125 
Q 37.796875 6.203125 41.984375 11.859375 
Q 46.1875 17.53125 46.1875 27.296875 
Q 46.1875 37.015625 41.984375 42.703125 
Q 37.796875 48.390625 30.609375 48.390625 
z
M 30.609375 56 
Q 42.328125 56 49.015625 48.375 
Q 55.71875 40.765625 55.71875 27.296875 
Q 55.71875 13.875 49.015625 6.21875 
Q 42.328125 -1.421875 30.609375 -1.421875 
Q 18.84375 -1.421875 12.171875 6.21875 
Q 5.515625 13.875 5.515625 27.296875 
Q 5.515625 40.765625 12.171875 48.375 
Q 18.84375 56 30.609375 56 
z
" id="DejaVuSans-111"/>
     <path d="M 50.984375 -16.609375 
L 50.984375 -23.578125 
L -0.984375 -23.578125 
L -0.984375 -16.609375 
z
" id="DejaVuSans-95"/>
    </defs>
    <g transform="translate(198.81 21.700875)scale(0.12 -0.12)">
     <use xlink:href="#DejaVuSans-73"/>
     <use x="29.492188" xlink:href="#DejaVuSans-110"/>
     <use x="92.871094" xlink:href="#DejaVuSans-110"/>
     <use x="156.25" xlink:href="#DejaVuSans-58"/>
     <use x="189.941406" xlink:href="#DejaVuSans-111"/>
     <use x="251.123047" xlink:href="#DejaVuSans-95"/>
     <use x="301.123047" xlink:href="#DejaVuSans-97"/>
     <use x="362.402344" xlink:href="#DejaVuSans-108"/>
     <use x="390.185547" xlink:href="#DejaVuSans-108"/>
     <use x="417.96875" xlink:href="#DejaVuSans-95"/>
     <use x="467.96875" xlink:href="#DejaVuSans-105"/>
     <use x="495.751953" xlink:href="#DejaVuSans-110"/>
     <use x="559.130859" xlink:href="#DejaVuSans-110"/>
    </g>
    <!--  Utopia point shift (UU*)=2.862 -->
    <defs>
     <path id="DejaVuSans-32"/>
     <path d="M 8.6875 72.90625 
L 18.609375 72.90625 
L 18.609375 28.609375 
Q 18.609375 16.890625 22.84375 11.734375 
Q 27.09375 6.59375 36.625 6.59375 
Q 46.09375 6.59375 50.34375 11.734375 
Q 54.59375 16.890625 54.59375 28.609375 
L 54.59375 72.90625 
L 64.5 72.90625 
L 64.5 27.390625 
Q 64.5 13.140625 57.4375 5.859375 
Q 50.390625 -1.421875 36.625 -1.421875 
Q 22.796875 -1.421875 15.734375 5.859375 
Q 8.6875 13.140625 8.6875 27.390625 
z
" id="DejaVuSans-85"/>
     <path d="M 18.109375 8.203125 
L 18.109375 -20.796875 
L 9.078125 -20.796875 
L 9.078125 54.6875 
L 18.109375 54.6875 
L 18.109375 46.390625 
Q 20.953125 51.265625 25.265625 53.625 
Q 29.59375 56 35.59375 56 
Q 45.5625 56 51.78125 48.09375 
Q 58.015625 40.1875 58.015625 27.296875 
Q 58.015625 14.40625 51.78125 6.484375 
Q 45.5625 -1.421875 35.59375 -1.421875 
Q 29.59375 -1.421875 25.265625 0.953125 
Q 20.953125 3.328125 18.109375 8.203125 
z
M 48.6875 27.296875 
Q 48.6875 37.203125 44.609375 42.84375 
Q 40.53125 48.484375 33.40625 48.484375 
Q 26.265625 48.484375 22.1875 42.84375 
Q 18.109375 37.203125 18.109375 27.296875 
Q 18.109375 17.390625 22.1875 11.75 
Q 26.265625 6.109375 33.40625 6.109375 
Q 40.53125 6.109375 44.609375 11.75 
Q 48.6875 17.390625 48.6875 27.296875 
z
" id="DejaVuSans-112"/>
     <path d="M 44.28125 53.078125 
L 44.28125 44.578125 
Q 40.484375 46.53125 36.375 47.5 
Q 32.28125 48.484375 27.875 48.484375 
Q 21.1875 48.484375 17.84375 46.4375 
Q 14.5 44.390625 14.5 40.28125 
Q 14.5 37.15625 16.890625 35.375 
Q 19.28125 33.59375 26.515625 31.984375 
L 29.59375 31.296875 
Q 39.15625 29.25 43.1875 25.515625 
Q 47.21875 21.78125 47.21875 15.09375 
Q 47.21875 7.46875 41.1875 3.015625 
Q 35.15625 -1.421875 24.609375 -1.421875 
Q 20.21875 -1.421875 15.453125 -0.5625 
Q 10.6875 0.296875 5.421875 2 
L 5.421875 11.28125 
Q 10.40625 8.6875 15.234375 7.390625 
Q 20.0625 6.109375 24.8125 6.109375 
Q 31.15625 6.109375 34.5625 8.28125 
Q 37.984375 10.453125 37.984375 14.40625 
Q 37.984375 18.0625 35.515625 20.015625 
Q 33.0625 21.96875 24.703125 23.78125 
L 21.578125 24.515625 
Q 13.234375 26.265625 9.515625 29.90625 
Q 5.8125 33.546875 5.8125 39.890625 
Q 5.8125 47.609375 11.28125 51.796875 
Q 16.75 56 26.8125 56 
Q 31.78125 56 36.171875 55.265625 
Q 40.578125 54.546875 44.28125 53.078125 
z
" id="DejaVuSans-115"/>
     <path d="M 54.890625 33.015625 
L 54.890625 0 
L 45.90625 0 
L 45.90625 32.71875 
Q 45.90625 40.484375 42.875 44.328125 
Q 39.84375 48.1875 33.796875 48.1875 
Q 26.515625 48.1875 22.3125 43.546875 
Q 18.109375 38.921875 18.109375 30.90625 
L 18.109375 0 
L 9.078125 0 
L 9.078125 75.984375 
L 18.109375 75.984375 
L 18.109375 46.1875 
Q 21.34375 51.125 25.703125 53.5625 
Q 30.078125 56 35.796875 56 
Q 45.21875 56 50.046875 50.171875 
Q 54.890625 44.34375 54.890625 33.015625 
z
" id="DejaVuSans-104"/>
     <path d="M 37.109375 75.984375 
L 37.109375 68.5 
L 28.515625 68.5 
Q 23.6875 68.5 21.796875 66.546875 
Q 19.921875 64.59375 19.921875 59.515625 
L 19.921875 54.6875 
L 34.71875 54.6875 
L 34.71875 47.703125 
L 19.921875 47.703125 
L 19.921875 0 
L 10.890625 0 
L 10.890625 47.703125 
L 2.296875 47.703125 
L 2.296875 54.6875 
L 10.890625 54.6875 
L 10.890625 58.5 
Q 10.890625 67.625 15.140625 71.796875 
Q 19.390625 75.984375 28.609375 75.984375 
z
" id="DejaVuSans-102"/>
     <path d="M 31 75.875 
Q 24.46875 64.65625 21.28125 53.65625 
Q 18.109375 42.671875 18.109375 31.390625 
Q 18.109375 20.125 21.3125 9.0625 
Q 24.515625 -2 31 -13.1875 
L 23.1875 -13.1875 
Q 15.875 -1.703125 12.234375 9.375 
Q 8.59375 20.453125 8.59375 31.390625 
Q 8.59375 42.28125 12.203125 53.3125 
Q 15.828125 64.359375 23.1875 75.875 
z
" id="DejaVuSans-40"/>
     <path d="M 47.015625 60.890625 
L 29.5 51.421875 
L 47.015625 41.890625 
L 44.1875 37.109375 
L 27.78125 47.015625 
L 27.78125 28.609375 
L 22.21875 28.609375 
L 22.21875 47.015625 
L 5.8125 37.109375 
L 2.984375 41.890625 
L 20.515625 51.421875 
L 2.984375 60.890625 
L 5.8125 65.71875 
L 22.21875 55.8125 
L 22.21875 74.21875 
L 27.78125 74.21875 
L 27.78125 55.8125 
L 44.1875 65.71875 
z
" id="DejaVuSans-42"/>
     <path d="M 8.015625 75.875 
L 15.828125 75.875 
Q 23.140625 64.359375 26.78125 53.3125 
Q 30.421875 42.28125 30.421875 31.390625 
Q 30.421875 20.453125 26.78125 9.375 
Q 23.140625 -1.703125 15.828125 -13.1875 
L 8.015625 -13.1875 
Q 14.5 -2 17.703125 9.0625 
Q 20.90625 20.125 20.90625 31.390625 
Q 20.90625 42.671875 17.703125 53.65625 
Q 14.5 64.65625 8.015625 75.875 
z
" id="DejaVuSans-41"/>
     <path d="M 10.59375 45.40625 
L 73.1875 45.40625 
L 73.1875 37.203125 
L 10.59375 37.203125 
z
M 10.59375 25.484375 
L 73.1875 25.484375 
L 73.1875 17.1875 
L 10.59375 17.1875 
z
" id="DejaVuSans-61"/>
    </defs>
    <g transform="translate(142.039688 35.472)scale(0.12 -0.12)">
     <use xlink:href="#DejaVuSans-32"/>
     <use x="31.787109" xlink:href="#DejaVuSans-85"/>
     <use x="104.980469" xlink:href="#DejaVuSans-116"/>
     <use x="144.189453" xlink:href="#DejaVuSans-111"/>
     <use x="205.371094" xlink:href="#DejaVuSans-112"/>
     <use x="268.847656" xlink:href="#DejaVuSans-105"/>
     <use x="296.630859" xlink:href="#DejaVuSans-97"/>
     <use x="357.910156" xlink:href="#DejaVuSans-32"/>
     <use x="389.697266" xlink:href="#DejaVuSans-112"/>
     <use x="453.173828" xlink:href="#DejaVuSans-111"/>
     <use x="514.355469" xlink:href="#DejaVuSans-105"/>
     <use x="542.138672" xlink:href="#DejaVuSans-110"/>
     <use x="605.517578" xlink:href="#DejaVuSans-116"/>
     <use x="644.726562" xlink:href="#DejaVuSans-32"/>
     <use x="676.513672" xlink:href="#DejaVuSans-115"/>
     <use x="728.613281" xlink:href="#DejaVuSans-104"/>
     <use x="791.992188" xlink:href="#DejaVuSans-105"/>
     <use x="819.775391" xlink:href="#DejaVuSans-102"/>
     <use x="853.230469" xlink:href="#DejaVuSans-116"/>
     <use x="892.439453" xlink:href="#DejaVuSans-32"/>
     <use x="924.226562" xlink:href="#DejaVuSans-40"/>
     <use x="963.240234" xlink:href="#DejaVuSans-85"/>
     <use x="1036.433594" xlink:href="#DejaVuSans-85"/>
     <use x="1109.626953" xlink:href="#DejaVuSans-42"/>
     <use x="1159.626953" xlink:href="#DejaVuSans-41"/>
     <use x="1198.640625" xlink:href="#DejaVuSans-61"/>
     <use x="1282.429688" xlink:href="#DejaVuSans-50"/>
     <use x="1346.052734" xlink:href="#DejaVuSans-46"/>
     <use x="1377.839844" xlink:href="#DejaVuSans-56"/>
     <use x="1441.462891" xlink:href="#DejaVuSans-54"/>
     <use x="1505.085938" xlink:href="#DejaVuSans-50"/>
    </g>
   </g>
   <g id="Path3DCollection_1">
    <defs>
     <path d="M 0 1.369306 
C 0.363144 1.369306 0.711464 1.225028 0.968246 0.968246 
C 1.225028 0.711464 1.369306 0.363144 1.369306 0 
C 1.369306 -0.363144 1.225028 -0.711464 0.968246 -0.968246 
C 0.711464 -1.225028 0.363144 -1.369306 0 -1.369306 
C -0.363144 -1.369306 -0.711464 -1.225028 -0.968246 -0.968246 
C -1.225028 -0.711464 -1.369306 -0.363144 -1.369306 0 
C -1.369306 0.363144 -1.225028 0.711464 -0.968246 0.968246 
C -0.711464 1.225028 -0.363144 1.369306 0 1.369306 
z
" id="C0_0_440c9d366e"/>
    </defs>
    <g clip-path="url(#p5a46c05370)">
     <use style="fill-opacity:0.7;stroke:#000000;stroke-opacity:0.7;" x="189.637943" xlink:href="#C0_0_440c9d366e" y="179.636636"/>
    </g>
    <g clip-path="url(#p5a46c05370)">
     <use style="fill-opacity:0.7;stroke:#000000;stroke-opacity:0.7;" x="281.471508" xlink:href="#C0_0_440c9d366e" y="213.280641"/>
    </g>
    <g clip-path="url(#p5a46c05370)">
     <use style="fill-opacity:0.7;stroke:#000000;stroke-opacity:0.7;" x="276.562183" xlink:href="#C0_0_440c9d366e" y="261.890235"/>
    </g>
    <g clip-path="url(#p5a46c05370)">
     <use style="fill-opacity:0.7;stroke:#000000;stroke-opacity:0.7;" x="278.699615" xlink:href="#C0_0_440c9d366e" y="244.84668"/>
    </g>
    <g clip-path="url(#p5a46c05370)">
     <use style="fill-opacity:0.7;stroke:#000000;stroke-opacity:0.7;" x="281.524317" xlink:href="#C0_0_440c9d366e" y="213.350643"/>
    </g>
    <g clip-path="url(#p5a46c05370)">
     <use style="fill-opacity:0.7;stroke:#000000;stroke-opacity:0.7;" x="281.528376" xlink:href="#C0_0_440c9d366e" y="213.348115"/>
    </g>
    <g clip-path="url(#p5a46c05370)">
     <use style="fill-opacity:0.7;stroke:#000000;stroke-opacity:0.7;" x="281.51539" xlink:href="#C0_0_440c9d366e" y="213.356205"/>
    </g>
    <g clip-path="url(#p5a46c05370)">
     <use style="fill-opacity:0.7;stroke:#000000;stroke-opacity:0.7;" x="281.524317" xlink:href="#C0_0_440c9d366e" y="213.350643"/>
    </g>
    <g clip-path="url(#p5a46c05370)">
     <use style="fill-opacity:0.7;stroke:#000000;stroke-opacity:0.7;" x="275.987573" xlink:href="#C0_0_440c9d366e" y="261.049297"/>
    </g>
    <g clip-path="url(#p5a46c05370)">
     <use style="fill-opacity:0.7;stroke:#000000;stroke-opacity:0.7;" x="259.664569" xlink:href="#C0_0_440c9d366e" y="203.579527"/>
    </g>
    <g clip-path="url(#p5a46c05370)">
     <use style="fill-opacity:0.7;stroke:#000000;stroke-opacity:0.7;" x="259.664569" xlink:href="#C0_0_440c9d366e" y="203.579527"/>
    </g>
    <g clip-path="url(#p5a46c05370)">
     <use style="fill-opacity:0.7;stroke:#000000;stroke-opacity:0.7;" x="259.664569" xlink:href="#C0_0_440c9d366e" y="203.579527"/>
    </g>
    <g clip-path="url(#p5a46c05370)">
     <use style="fill-opacity:0.7;stroke:#000000;stroke-opacity:0.7;" x="259.664569" xlink:href="#C0_0_440c9d366e" y="203.579527"/>
    </g>
    <g clip-path="url(#p5a46c05370)">
     <use style="fill-opacity:0.7;stroke:#000000;stroke-opacity:0.7;" x="259.664569" xlink:href="#C0_0_440c9d366e" y="203.579527"/>
    </g>
    <g clip-path="url(#p5a46c05370)">
     <use style="fill-opacity:0.7;stroke:#000000;stroke-opacity:0.7;" x="257.813876" xlink:href="#C0_0_440c9d366e" y="202.833647"/>
    </g>
    <g clip-path="url(#p5a46c05370)">
     <use style="fill-opacity:0.7;stroke:#000000;stroke-opacity:0.7;" x="241.617984" xlink:href="#C0_0_440c9d366e" y="196.765109"/>
    </g>
    <g clip-path="url(#p5a46c05370)">
     <use style="fill-opacity:0.7;stroke:#000000;stroke-opacity:0.7;" x="241.617984" xlink:href="#C0_0_440c9d366e" y="196.765109"/>
    </g>
    <g clip-path="url(#p5a46c05370)">
     <use style="fill-opacity:0.7;stroke:#000000;stroke-opacity:0.7;" x="257.813876" xlink:href="#C0_0_440c9d366e" y="202.833647"/>
    </g>
    <g clip-path="url(#p5a46c05370)">
     <use style="fill-opacity:0.7;stroke:#000000;stroke-opacity:0.7;" x="240.260244" xlink:href="#C0_0_440c9d366e" y="196.27666"/>
    </g>
    <g clip-path="url(#p5a46c05370)">
     <use style="fill-opacity:0.7;stroke:#000000;stroke-opacity:0.7;" x="224.026719" xlink:href="#C0_0_440c9d366e" y="190.726358"/>
    </g>
    <g clip-path="url(#p5a46c05370)">
     <use style="fill-opacity:0.7;stroke:#000000;stroke-opacity:0.7;" x="224.026719" xlink:href="#C0_0_440c9d366e" y="190.726358"/>
    </g>
    <g clip-path="url(#p5a46c05370)">
     <use style="fill-opacity:0.7;stroke:#000000;stroke-opacity:0.7;" x="257.813876" xlink:href="#C0_0_440c9d366e" y="202.833647"/>
    </g>
    <g clip-path="url(#p5a46c05370)">
     <use style="fill-opacity:0.7;stroke:#000000;stroke-opacity:0.7;" x="240.260244" xlink:href="#C0_0_440c9d366e" y="196.27666"/>
    </g>
    <g clip-path="url(#p5a46c05370)">
     <use style="fill-opacity:0.7;stroke:#000000;stroke-opacity:0.7;" x="206.875767" xlink:href="#C0_0_440c9d366e" y="185.126268"/>
    </g>
    <g clip-path="url(#p5a46c05370)">
     <use style="fill-opacity:0.7;stroke:#000000;stroke-opacity:0.7;" x="206.875767" xlink:href="#C0_0_440c9d366e" y="185.126268"/>
    </g>
    <g clip-path="url(#p5a46c05370)">
     <use style="fill-opacity:0.7;stroke:#000000;stroke-opacity:0.7;" x="275.987573" xlink:href="#C0_0_440c9d366e" y="261.049297"/>
    </g>
    <g clip-path="url(#p5a46c05370)">
     <use style="fill-opacity:0.7;stroke:#000000;stroke-opacity:0.7;" x="257.813876" xlink:href="#C0_0_440c9d366e" y="202.833647"/>
    </g>
    <g clip-path="url(#p5a46c05370)">
     <use style="fill-opacity:0.7;stroke:#000000;stroke-opacity:0.7;" x="240.260244" xlink:href="#C0_0_440c9d366e" y="196.27666"/>
    </g>
    <g clip-path="url(#p5a46c05370)">
     <use style="fill-opacity:0.7;stroke:#000000;stroke-opacity:0.7;" x="223.136578" xlink:href="#C0_0_440c9d366e" y="190.426194"/>
    </g>
    <g clip-path="url(#p5a46c05370)">
     <use style="fill-opacity:0.7;stroke:#000000;stroke-opacity:0.7;" x="206.430448" xlink:href="#C0_0_440c9d366e" y="184.981909"/>
    </g>
    <g clip-path="url(#p5a46c05370)">
     <use style="fill-opacity:0.7;stroke:#000000;stroke-opacity:0.7;" x="269.302788" xlink:href="#C0_0_440c9d366e" y="211.410898"/>
    </g>
    <g clip-path="url(#p5a46c05370)">
     <use style="fill-opacity:0.7;stroke:#000000;stroke-opacity:0.7;" x="277.188853" xlink:href="#C0_0_440c9d366e" y="243.376279"/>
    </g>
   </g>
   <g id="Poly3DCollection_2">
    <path clip-path="url(#p5a46c05370)" d="M 206.875767 185.126268 
L 206.430448 184.981909 
L 189.637943 179.636636 
z
" style="fill:#d60000;"/>
    <path clip-path="url(#p5a46c05370)" d="M 206.430448 184.981909 
L 281.471508 213.280641 
L 189.637943 179.636636 
z
" style="fill:#bd0000;"/>
    <path clip-path="url(#p5a46c05370)" d="M 281.471508 213.280641 
L 206.430448 184.981909 
L 206.875767 185.126268 
z
" style="fill:#be0000;"/>
    <path clip-path="url(#p5a46c05370)" d="M 223.136578 190.426194 
L 240.260244 196.27666 
L 224.026719 190.726358 
z
" style="fill:#d50000;"/>
    <path clip-path="url(#p5a46c05370)" d="M 259.664569 203.579527 
L 223.136578 190.426194 
L 206.875767 185.126268 
z
" style="fill:#cd0000;"/>
    <path clip-path="url(#p5a46c05370)" d="M 206.875767 185.126268 
L 223.136578 190.426194 
L 281.471508 213.280641 
z
" style="fill:#be0000;"/>
    <path clip-path="url(#p5a46c05370)" d="M 241.617984 196.765109 
L 240.260244 196.27666 
L 223.136578 190.426194 
z
" style="fill:#d00000;"/>
    <path clip-path="url(#p5a46c05370)" d="M 224.026719 190.726358 
L 281.471508 213.280641 
L 223.136578 190.426194 
z
" style="fill:#be0000;"/>
    <path clip-path="url(#p5a46c05370)" d="M 259.664569 203.579527 
L 241.617984 196.765109 
L 223.136578 190.426194 
z
" style="fill:#cd0000;"/>
    <path clip-path="url(#p5a46c05370)" d="M 240.260244 196.27666 
L 281.471508 213.280641 
L 224.026719 190.726358 
z
" style="fill:#be0000;"/>
    <path clip-path="url(#p5a46c05370)" d="M 240.260244 196.27666 
L 241.617984 196.765109 
L 281.471508 213.280641 
z
" style="fill:#bf0000;"/>
    <path clip-path="url(#p5a46c05370)" d="M 257.813876 202.833647 
L 241.617984 196.765109 
L 259.664569 203.579527 
z
" style="fill:#cf0000;"/>
    <path clip-path="url(#p5a46c05370)" d="M 281.471508 213.280641 
L 241.617984 196.765109 
L 257.813876 202.833647 
z
" style="fill:#c00000;"/>
    <path clip-path="url(#p5a46c05370)" d="M 269.302788 211.410898 
L 257.813876 202.833647 
L 259.664569 203.579527 
z
" style="fill:#b50000;"/>
    <path clip-path="url(#p5a46c05370)" d="M 259.664569 203.579527 
L 275.987573 261.049297 
L 269.302788 211.410898 
z
" style="fill:#de0000;"/>
    <path clip-path="url(#p5a46c05370)" d="M 277.188853 243.376279 
L 275.987573 261.049297 
L 276.562183 261.890235 
z
" style="fill:#e80000;"/>
    <path clip-path="url(#p5a46c05370)" d="M 277.188853 243.376279 
L 269.302788 211.410898 
L 275.987573 261.049297 
z
" style="fill:#e20000;"/>
    <path clip-path="url(#p5a46c05370)" d="M 281.471508 213.280641 
L 257.813876 202.833647 
L 269.302788 211.410898 
z
" style="fill:#ce0000;"/>
    <path clip-path="url(#p5a46c05370)" d="M 276.562183 261.890235 
L 278.699615 244.84668 
L 277.188853 243.376279 
z
" style="fill:#cd0000;"/>
    <path clip-path="url(#p5a46c05370)" d="M 281.471508 213.280641 
L 269.302788 211.410898 
L 277.188853 243.376279 
z
" style="fill:#e30000;"/>
    <path clip-path="url(#p5a46c05370)" d="M 278.699615 244.84668 
L 281.51539 213.356205 
L 277.188853 243.376279 
z
" style="fill:#d00000;"/>
    <path clip-path="url(#p5a46c05370)" d="M 277.188853 243.376279 
L 281.51539 213.356205 
L 281.471508 213.280641 
z
" style="fill:#bf0000;"/>
    <path clip-path="url(#p5a46c05370)" d="M 281.524317 213.350643 
L 281.528376 213.348115 
L 281.471508 213.280641 
z
" style="fill:#c30000;"/>
    <path clip-path="url(#p5a46c05370)" d="M 281.471508 213.280641 
L 281.51539 213.356205 
L 281.524317 213.350643 
z
" style="fill:#c30000;"/>
   </g>
   <g id="Path3DCollection_2">
    <defs>
     <path d="M 0 1.369306 
C 0.363144 1.369306 0.711464 1.225028 0.968246 0.968246 
C 1.225028 0.711464 1.369306 0.363144 1.369306 0 
C 1.369306 -0.363144 1.225028 -0.711464 0.968246 -0.968246 
C 0.711464 -1.225028 0.363144 -1.369306 0 -1.369306 
C -0.363144 -1.369306 -0.711464 -1.225028 -0.968246 -0.968246 
C -1.225028 -0.711464 -1.369306 -0.363144 -1.369306 0 
C -1.369306 0.363144 -1.225028 0.711464 -0.968246 0.968246 
C -0.711464 1.225028 -0.363144 1.369306 0 1.369306 
z
" id="C1_0_72dc553cad"/>
    </defs>
    <g clip-path="url(#p5a46c05370)">
     <use style="fill-opacity:0.7;stroke:#000000;stroke-opacity:0.7;" x="189.637943" xlink:href="#C1_0_72dc553cad" y="179.636636"/>
    </g>
    <g clip-path="url(#p5a46c05370)">
     <use style="fill-opacity:0.7;stroke:#000000;stroke-opacity:0.7;" x="281.471508" xlink:href="#C1_0_72dc553cad" y="213.280641"/>
    </g>
    <g clip-path="url(#p5a46c05370)">
     <use style="fill-opacity:0.7;stroke:#000000;stroke-opacity:0.7;" x="276.562183" xlink:href="#C1_0_72dc553cad" y="261.890235"/>
    </g>
    <g clip-path="url(#p5a46c05370)">
     <use style="fill-opacity:0.7;stroke:#000000;stroke-opacity:0.7;" x="278.699615" xlink:href="#C1_0_72dc553cad" y="244.84668"/>
    </g>
    <g clip-path="url(#p5a46c05370)">
     <use style="fill-opacity:0.7;stroke:#000000;stroke-opacity:0.7;" x="281.524317" xlink:href="#C1_0_72dc553cad" y="213.350643"/>
    </g>
    <g clip-path="url(#p5a46c05370)">
     <use style="fill-opacity:0.7;stroke:#000000;stroke-opacity:0.7;" x="281.528376" xlink:href="#C1_0_72dc553cad" y="213.348115"/>
    </g>
    <g clip-path="url(#p5a46c05370)">
     <use style="fill-opacity:0.7;stroke:#000000;stroke-opacity:0.7;" x="281.51539" xlink:href="#C1_0_72dc553cad" y="213.356205"/>
    </g>
    <g clip-path="url(#p5a46c05370)">
     <use style="fill-opacity:0.7;stroke:#000000;stroke-opacity:0.7;" x="281.524317" xlink:href="#C1_0_72dc553cad" y="213.350643"/>
    </g>
    <g clip-path="url(#p5a46c05370)">
     <use style="fill-opacity:0.7;stroke:#000000;stroke-opacity:0.7;" x="275.987573" xlink:href="#C1_0_72dc553cad" y="261.049297"/>
    </g>
    <g clip-path="url(#p5a46c05370)">
     <use style="fill-opacity:0.7;stroke:#000000;stroke-opacity:0.7;" x="259.664569" xlink:href="#C1_0_72dc553cad" y="203.579527"/>
    </g>
    <g clip-path="url(#p5a46c05370)">
     <use style="fill-opacity:0.7;stroke:#000000;stroke-opacity:0.7;" x="259.664569" xlink:href="#C1_0_72dc553cad" y="203.579527"/>
    </g>
    <g clip-path="url(#p5a46c05370)">
     <use style="fill-opacity:0.7;stroke:#000000;stroke-opacity:0.7;" x="259.664569" xlink:href="#C1_0_72dc553cad" y="203.579527"/>
    </g>
    <g clip-path="url(#p5a46c05370)">
     <use style="fill-opacity:0.7;stroke:#000000;stroke-opacity:0.7;" x="259.664569" xlink:href="#C1_0_72dc553cad" y="203.579527"/>
    </g>
    <g clip-path="url(#p5a46c05370)">
     <use style="fill-opacity:0.7;stroke:#000000;stroke-opacity:0.7;" x="259.664569" xlink:href="#C1_0_72dc553cad" y="203.579527"/>
    </g>
    <g clip-path="url(#p5a46c05370)">
     <use style="fill-opacity:0.7;stroke:#000000;stroke-opacity:0.7;" x="257.813876" xlink:href="#C1_0_72dc553cad" y="202.833647"/>
    </g>
    <g clip-path="url(#p5a46c05370)">
     <use style="fill-opacity:0.7;stroke:#000000;stroke-opacity:0.7;" x="241.617984" xlink:href="#C1_0_72dc553cad" y="196.765109"/>
    </g>
    <g clip-path="url(#p5a46c05370)">
     <use style="fill-opacity:0.7;stroke:#000000;stroke-opacity:0.7;" x="241.617984" xlink:href="#C1_0_72dc553cad" y="196.765109"/>
    </g>
    <g clip-path="url(#p5a46c05370)">
     <use style="fill-opacity:0.7;stroke:#000000;stroke-opacity:0.7;" x="257.813876" xlink:href="#C1_0_72dc553cad" y="202.833647"/>
    </g>
    <g clip-path="url(#p5a46c05370)">
     <use style="fill-opacity:0.7;stroke:#000000;stroke-opacity:0.7;" x="240.260244" xlink:href="#C1_0_72dc553cad" y="196.27666"/>
    </g>
    <g clip-path="url(#p5a46c05370)">
     <use style="fill-opacity:0.7;stroke:#000000;stroke-opacity:0.7;" x="224.026719" xlink:href="#C1_0_72dc553cad" y="190.726358"/>
    </g>
    <g clip-path="url(#p5a46c05370)">
     <use style="fill-opacity:0.7;stroke:#000000;stroke-opacity:0.7;" x="224.026719" xlink:href="#C1_0_72dc553cad" y="190.726358"/>
    </g>
    <g clip-path="url(#p5a46c05370)">
     <use style="fill-opacity:0.7;stroke:#000000;stroke-opacity:0.7;" x="257.813876" xlink:href="#C1_0_72dc553cad" y="202.833647"/>
    </g>
    <g clip-path="url(#p5a46c05370)">
     <use style="fill-opacity:0.7;stroke:#000000;stroke-opacity:0.7;" x="240.260244" xlink:href="#C1_0_72dc553cad" y="196.27666"/>
    </g>
    <g clip-path="url(#p5a46c05370)">
     <use style="fill-opacity:0.7;stroke:#000000;stroke-opacity:0.7;" x="206.875767" xlink:href="#C1_0_72dc553cad" y="185.126268"/>
    </g>
    <g clip-path="url(#p5a46c05370)">
     <use style="fill-opacity:0.7;stroke:#000000;stroke-opacity:0.7;" x="206.875767" xlink:href="#C1_0_72dc553cad" y="185.126268"/>
    </g>
    <g clip-path="url(#p5a46c05370)">
     <use style="fill-opacity:0.7;stroke:#000000;stroke-opacity:0.7;" x="275.987573" xlink:href="#C1_0_72dc553cad" y="261.049297"/>
    </g>
    <g clip-path="url(#p5a46c05370)">
     <use style="fill-opacity:0.7;stroke:#000000;stroke-opacity:0.7;" x="257.813876" xlink:href="#C1_0_72dc553cad" y="202.833647"/>
    </g>
    <g clip-path="url(#p5a46c05370)">
     <use style="fill-opacity:0.7;stroke:#000000;stroke-opacity:0.7;" x="240.260244" xlink:href="#C1_0_72dc553cad" y="196.27666"/>
    </g>
    <g clip-path="url(#p5a46c05370)">
     <use style="fill-opacity:0.7;stroke:#000000;stroke-opacity:0.7;" x="223.136578" xlink:href="#C1_0_72dc553cad" y="190.426194"/>
    </g>
    <g clip-path="url(#p5a46c05370)">
     <use style="fill-opacity:0.7;stroke:#000000;stroke-opacity:0.7;" x="206.430448" xlink:href="#C1_0_72dc553cad" y="184.981909"/>
    </g>
    <g clip-path="url(#p5a46c05370)">
     <use style="fill-opacity:0.7;stroke:#000000;stroke-opacity:0.7;" x="269.302788" xlink:href="#C1_0_72dc553cad" y="211.410898"/>
    </g>
    <g clip-path="url(#p5a46c05370)">
     <use style="fill-opacity:0.7;stroke:#000000;stroke-opacity:0.7;" x="277.188853" xlink:href="#C1_0_72dc553cad" y="243.376279"/>
    </g>
   </g>
   <g id="Path3DCollection_3">
    <defs>
     <path d="M -3.162278 0 
L 3.162278 0 
M 0 3.162278 
L 0 -3.162278 
" id="mf4fb037262" style="stroke:#ff0000;stroke-opacity:0.7;stroke-width:1.5;"/>
    </defs>
    <g clip-path="url(#p5a46c05370)">
     <use style="fill:#ff0000;fill-opacity:0.7;stroke:#ff0000;stroke-opacity:0.7;stroke-width:1.5;" x="278.947596" xlink:href="#mf4fb037262" y="205.568222"/>
    </g>
   </g>
   <g id="Path3DCollection_4">
    <g clip-path="url(#p5a46c05370)">
     <use style="fill:#ff0000;fill-opacity:0.7;stroke:#ff0000;stroke-opacity:0.7;stroke-width:1.5;" x="278.947596" xlink:href="#mf4fb037262" y="205.568222"/>
    </g>
   </g>
   <g id="Poly3DCollection_3">
    <path clip-path="url(#p5a46c05370)" d="M 350.446964 129.715603 
L 350.849487 159.424234 
L 351.158324 167.644243 
z
" style="fill:#0000bb;fill-opacity:0.5;"/>
    <path clip-path="url(#p5a46c05370)" d="M 303.745564 223.677599 
L 301.95089 253.421132 
L 351.158324 167.644243 
z
" style="fill:#0000f8;fill-opacity:0.5;"/>
    <path clip-path="url(#p5a46c05370)" d="M 281.219953 266.864797 
L 301.95089 253.421132 
L 282.755577 254.633508 
z
" style="fill:#0000f6;fill-opacity:0.5;"/>
    <path clip-path="url(#p5a46c05370)" d="M 351.158324 167.644243 
L 350.849487 159.424234 
L 304.440792 193.459915 
z
" style="fill:#0000f2;fill-opacity:0.5;"/>
    <path clip-path="url(#p5a46c05370)" d="M 350.446964 129.715603 
L 350.337614 105.286234 
L 350.849487 159.424234 
z
" style="fill:#0000a2;fill-opacity:0.5;"/>
    <path clip-path="url(#p5a46c05370)" d="M 271.644016 88.434682 
L 269.775525 224.327596 
L 275.443245 195.089025 
z
" style="fill:#0000cb;fill-opacity:0.5;"/>
    <path clip-path="url(#p5a46c05370)" d="M 283.984534 225.154987 
L 282.755577 254.633508 
L 301.95089 253.421132 
z
" style="fill:#0000f6;fill-opacity:0.5;"/>
    <path clip-path="url(#p5a46c05370)" d="M 304.440792 193.459915 
L 303.745564 223.677599 
L 351.158324 167.644243 
z
" style="fill:#0000fa;fill-opacity:0.5;"/>
    <path clip-path="url(#p5a46c05370)" d="M 281.219953 266.864797 
L 282.755577 254.633508 
L 283.984534 225.154987 
z
" style="fill:#0000f4;fill-opacity:0.5;"/>
    <path clip-path="url(#p5a46c05370)" d="M 275.443245 195.089025 
L 270.874623 253.827667 
L 281.219953 266.864797 
z
" style="fill:#0000e8;fill-opacity:0.5;"/>
    <path clip-path="url(#p5a46c05370)" d="M 350.849487 159.424234 
L 350.337614 105.286234 
L 304.440792 193.459915 
z
" style="fill:#0000fb;fill-opacity:0.5;"/>
    <path clip-path="url(#p5a46c05370)" d="M 269.775525 224.327596 
L 270.874623 253.827667 
L 275.443245 195.089025 
z
" style="fill:#0000e8;fill-opacity:0.5;"/>
    <path clip-path="url(#p5a46c05370)" d="M 350.337614 105.286234 
L 350.446964 129.715603 
L 350.51837 102.925315 
z
" style="fill:#0000f8;fill-opacity:0.5;"/>
    <path clip-path="url(#p5a46c05370)" d="M 350.51837 102.925315 
L 350.446964 129.715603 
L 350.51965 102.701663 
z
" style="fill:#0000c0;fill-opacity:0.5;"/>
    <path clip-path="url(#p5a46c05370)" d="M 285.215141 195.445322 
L 283.984534 225.154987 
L 301.95089 253.421132 
z
" style="fill:#0000f6;fill-opacity:0.5;"/>
    <path clip-path="url(#p5a46c05370)" d="M 271.644016 88.434682 
L 308.347872 120.722011 
L 350.51965 102.701663 
z
" style="fill:#0000c9;fill-opacity:0.5;"/>
    <path clip-path="url(#p5a46c05370)" d="M 271.644016 88.434682 
L 275.443245 195.089025 
L 280.311773 165.495176 
z
" style="fill:#0000c9;fill-opacity:0.5;"/>
    <path clip-path="url(#p5a46c05370)" d="M 350.51965 102.701663 
L 350.337614 105.286234 
L 350.51837 102.925315 
z
" style="fill:#0000fa;fill-opacity:0.5;"/>
    <path clip-path="url(#p5a46c05370)" d="M 303.745564 223.677599 
L 288.225827 135.037304 
L 301.95089 253.421132 
z
" style="fill:#0000f7;fill-opacity:0.5;"/>
    <path clip-path="url(#p5a46c05370)" d="M 283.984534 225.154987 
L 280.311773 165.495176 
L 281.219953 266.864797 
z
" style="fill:#0000f1;fill-opacity:0.5;"/>
    <path clip-path="url(#p5a46c05370)" d="M 286.824073 165.290782 
L 285.215141 195.445322 
L 301.95089 253.421132 
z
" style="fill:#0000f6;fill-opacity:0.5;"/>
    <path clip-path="url(#p5a46c05370)" d="M 280.311773 165.495176 
L 275.443245 195.089025 
L 281.219953 266.864797 
z
" style="fill:#0000e8;fill-opacity:0.5;"/>
    <path clip-path="url(#p5a46c05370)" d="M 280.311773 165.495176 
L 286.919243 135.143557 
L 271.644016 88.434682 
z
" style="fill:#0000cd;fill-opacity:0.5;"/>
    <path clip-path="url(#p5a46c05370)" d="M 304.440792 193.459915 
L 350.337614 105.286234 
L 305.983217 164.438973 
z
" style="fill:#0000fa;fill-opacity:0.5;"/>
    <path clip-path="url(#p5a46c05370)" d="M 288.225827 135.037304 
L 308.347872 120.722011 
L 271.644016 88.434682 
z
" style="fill:#0000cc;fill-opacity:0.5;"/>
    <path clip-path="url(#p5a46c05370)" d="M 288.225827 135.037304 
L 303.745564 223.677599 
L 304.440792 193.459915 
z
" style="fill:#0000ed;fill-opacity:0.5;"/>
    <path clip-path="url(#p5a46c05370)" d="M 286.919243 135.143557 
L 288.225827 135.037304 
L 271.644016 88.434682 
z
" style="fill:#0000cb;fill-opacity:0.5;"/>
    <path clip-path="url(#p5a46c05370)" d="M 350.337614 105.286234 
L 350.51965 102.701663 
L 308.347872 120.722011 
z
" style="fill:#0000fb;fill-opacity:0.5;"/>
    <path clip-path="url(#p5a46c05370)" d="M 280.311773 165.495176 
L 283.984534 225.154987 
L 285.215141 195.445322 
z
" style="fill:#0000f0;fill-opacity:0.5;"/>
    <path clip-path="url(#p5a46c05370)" d="M 301.95089 253.421132 
L 288.225827 135.037304 
L 286.824073 165.290782 
z
" style="fill:#0000f6;fill-opacity:0.5;"/>
    <path clip-path="url(#p5a46c05370)" d="M 308.347872 120.722011 
L 305.983217 164.438973 
L 350.337614 105.286234 
z
" style="fill:#0000fa;fill-opacity:0.5;"/>
    <path clip-path="url(#p5a46c05370)" d="M 304.440792 193.459915 
L 305.983217 164.438973 
L 288.225827 135.037304 
z
" style="fill:#0000f4;fill-opacity:0.5;"/>
    <path clip-path="url(#p5a46c05370)" d="M 286.919243 135.143557 
L 285.215141 195.445322 
L 286.824073 165.290782 
z
" style="fill:#0000fd;fill-opacity:0.5;"/>
    <path clip-path="url(#p5a46c05370)" d="M 286.919243 135.143557 
L 280.311773 165.495176 
L 285.215141 195.445322 
z
" style="fill:#0000f1;fill-opacity:0.5;"/>
    <path clip-path="url(#p5a46c05370)" d="M 308.347872 120.722011 
L 288.225827 135.037304 
L 305.983217 164.438973 
z
" style="fill:#0000f4;fill-opacity:0.5;"/>
    <path clip-path="url(#p5a46c05370)" d="M 288.225827 135.037304 
L 286.919243 135.143557 
L 286.824073 165.290782 
z
" style="fill:#0000f9;fill-opacity:0.5;"/>
   </g>
   <g id="Path3DCollection_5">
    <defs>
     <path d="M 0 1.369306 
C 0.363144 1.369306 0.711464 1.225028 0.968246 0.968246 
C 1.225028 0.711464 1.369306 0.363144 1.369306 0 
C 1.369306 -0.363144 1.225028 -0.711464 0.968246 -0.968246 
C 0.711464 -1.225028 0.363144 -1.369306 0 -1.369306 
C -0.363144 -1.369306 -0.711464 -1.225028 -0.968246 -0.968246 
C -1.225028 -0.711464 -1.369306 -0.363144 -1.369306 0 
C -1.369306 0.363144 -1.225028 0.711464 -0.968246 0.968246 
C -0.711464 1.225028 -0.363144 1.369306 0 1.369306 
z
" id="C2_0_790fddcf7b"/>
    </defs>
    <g clip-path="url(#p5a46c05370)">
     <use style="fill-opacity:0.7;stroke:#000000;stroke-opacity:0.7;" x="271.644016" xlink:href="#C2_0_790fddcf7b" y="88.434682"/>
    </g>
    <g clip-path="url(#p5a46c05370)">
     <use style="fill-opacity:0.7;stroke:#000000;stroke-opacity:0.7;" x="351.158324" xlink:href="#C2_0_790fddcf7b" y="167.644243"/>
    </g>
    <g clip-path="url(#p5a46c05370)">
     <use style="fill-opacity:0.7;stroke:#000000;stroke-opacity:0.7;" x="281.219953" xlink:href="#C2_0_790fddcf7b" y="266.864797"/>
    </g>
    <g clip-path="url(#p5a46c05370)">
     <use style="fill-opacity:0.7;stroke:#000000;stroke-opacity:0.7;" x="350.51965" xlink:href="#C2_0_790fddcf7b" y="102.701663"/>
    </g>
    <g clip-path="url(#p5a46c05370)">
     <use style="fill-opacity:0.7;stroke:#000000;stroke-opacity:0.7;" x="350.51965" xlink:href="#C2_0_790fddcf7b" y="102.701663"/>
    </g>
    <g clip-path="url(#p5a46c05370)">
     <use style="fill-opacity:0.7;stroke:#000000;stroke-opacity:0.7;" x="350.51837" xlink:href="#C2_0_790fddcf7b" y="102.925315"/>
    </g>
    <g clip-path="url(#p5a46c05370)">
     <use style="fill-opacity:0.7;stroke:#000000;stroke-opacity:0.7;" x="350.337614" xlink:href="#C2_0_790fddcf7b" y="105.286234"/>
    </g>
    <g clip-path="url(#p5a46c05370)">
     <use style="fill-opacity:0.7;stroke:#000000;stroke-opacity:0.7;" x="351.158324" xlink:href="#C2_0_790fddcf7b" y="167.644243"/>
    </g>
    <g clip-path="url(#p5a46c05370)">
     <use style="fill-opacity:0.7;stroke:#000000;stroke-opacity:0.7;" x="350.51965" xlink:href="#C2_0_790fddcf7b" y="102.701663"/>
    </g>
    <g clip-path="url(#p5a46c05370)">
     <use style="fill-opacity:0.7;stroke:#000000;stroke-opacity:0.7;" x="350.51965" xlink:href="#C2_0_790fddcf7b" y="102.701663"/>
    </g>
    <g clip-path="url(#p5a46c05370)">
     <use style="fill-opacity:0.7;stroke:#000000;stroke-opacity:0.7;" x="350.51837" xlink:href="#C2_0_790fddcf7b" y="102.925315"/>
    </g>
    <g clip-path="url(#p5a46c05370)">
     <use style="fill-opacity:0.7;stroke:#000000;stroke-opacity:0.7;" x="350.337614" xlink:href="#C2_0_790fddcf7b" y="105.286234"/>
    </g>
    <g clip-path="url(#p5a46c05370)">
     <use style="fill-opacity:0.7;stroke:#000000;stroke-opacity:0.7;" x="351.158324" xlink:href="#C2_0_790fddcf7b" y="167.644243"/>
    </g>
    <g clip-path="url(#p5a46c05370)">
     <use style="fill-opacity:0.7;stroke:#000000;stroke-opacity:0.7;" x="351.158324" xlink:href="#C2_0_790fddcf7b" y="167.644243"/>
    </g>
    <g clip-path="url(#p5a46c05370)">
     <use style="fill-opacity:0.7;stroke:#000000;stroke-opacity:0.7;" x="351.158324" xlink:href="#C2_0_790fddcf7b" y="167.644243"/>
    </g>
    <g clip-path="url(#p5a46c05370)">
     <use style="fill-opacity:0.7;stroke:#000000;stroke-opacity:0.7;" x="301.95089" xlink:href="#C2_0_790fddcf7b" y="253.421132"/>
    </g>
    <g clip-path="url(#p5a46c05370)">
     <use style="fill-opacity:0.7;stroke:#000000;stroke-opacity:0.7;" x="282.755577" xlink:href="#C2_0_790fddcf7b" y="254.633508"/>
    </g>
    <g clip-path="url(#p5a46c05370)">
     <use style="fill-opacity:0.7;stroke:#000000;stroke-opacity:0.7;" x="270.874623" xlink:href="#C2_0_790fddcf7b" y="253.827667"/>
    </g>
    <g clip-path="url(#p5a46c05370)">
     <use style="fill-opacity:0.7;stroke:#000000;stroke-opacity:0.7;" x="351.158324" xlink:href="#C2_0_790fddcf7b" y="167.644243"/>
    </g>
    <g clip-path="url(#p5a46c05370)">
     <use style="fill-opacity:0.7;stroke:#000000;stroke-opacity:0.7;" x="351.158324" xlink:href="#C2_0_790fddcf7b" y="167.644243"/>
    </g>
    <g clip-path="url(#p5a46c05370)">
     <use style="fill-opacity:0.7;stroke:#000000;stroke-opacity:0.7;" x="303.745564" xlink:href="#C2_0_790fddcf7b" y="223.677599"/>
    </g>
    <g clip-path="url(#p5a46c05370)">
     <use style="fill-opacity:0.7;stroke:#000000;stroke-opacity:0.7;" x="283.984534" xlink:href="#C2_0_790fddcf7b" y="225.154987"/>
    </g>
    <g clip-path="url(#p5a46c05370)">
     <use style="fill-opacity:0.7;stroke:#000000;stroke-opacity:0.7;" x="269.775525" xlink:href="#C2_0_790fddcf7b" y="224.327596"/>
    </g>
    <g clip-path="url(#p5a46c05370)">
     <use style="fill-opacity:0.7;stroke:#000000;stroke-opacity:0.7;" x="351.158324" xlink:href="#C2_0_790fddcf7b" y="167.644243"/>
    </g>
    <g clip-path="url(#p5a46c05370)">
     <use style="fill-opacity:0.7;stroke:#000000;stroke-opacity:0.7;" x="351.158324" xlink:href="#C2_0_790fddcf7b" y="167.644243"/>
    </g>
    <g clip-path="url(#p5a46c05370)">
     <use style="fill-opacity:0.7;stroke:#000000;stroke-opacity:0.7;" x="304.440792" xlink:href="#C2_0_790fddcf7b" y="193.459915"/>
    </g>
    <g clip-path="url(#p5a46c05370)">
     <use style="fill-opacity:0.7;stroke:#000000;stroke-opacity:0.7;" x="285.215141" xlink:href="#C2_0_790fddcf7b" y="195.445322"/>
    </g>
    <g clip-path="url(#p5a46c05370)">
     <use style="fill-opacity:0.7;stroke:#000000;stroke-opacity:0.7;" x="275.443245" xlink:href="#C2_0_790fddcf7b" y="195.089025"/>
    </g>
    <g clip-path="url(#p5a46c05370)">
     <use style="fill-opacity:0.7;stroke:#000000;stroke-opacity:0.7;" x="350.849487" xlink:href="#C2_0_790fddcf7b" y="159.424234"/>
    </g>
    <g clip-path="url(#p5a46c05370)">
     <use style="fill-opacity:0.7;stroke:#000000;stroke-opacity:0.7;" x="350.849487" xlink:href="#C2_0_790fddcf7b" y="159.424234"/>
    </g>
    <g clip-path="url(#p5a46c05370)">
     <use style="fill-opacity:0.7;stroke:#000000;stroke-opacity:0.7;" x="305.983217" xlink:href="#C2_0_790fddcf7b" y="164.438973"/>
    </g>
    <g clip-path="url(#p5a46c05370)">
     <use style="fill-opacity:0.7;stroke:#000000;stroke-opacity:0.7;" x="286.824073" xlink:href="#C2_0_790fddcf7b" y="165.290782"/>
    </g>
    <g clip-path="url(#p5a46c05370)">
     <use style="fill-opacity:0.7;stroke:#000000;stroke-opacity:0.7;" x="280.311773" xlink:href="#C2_0_790fddcf7b" y="165.495176"/>
    </g>
    <g clip-path="url(#p5a46c05370)">
     <use style="fill-opacity:0.7;stroke:#000000;stroke-opacity:0.7;" x="350.446964" xlink:href="#C2_0_790fddcf7b" y="129.715603"/>
    </g>
    <g clip-path="url(#p5a46c05370)">
     <use style="fill-opacity:0.7;stroke:#000000;stroke-opacity:0.7;" x="350.446964" xlink:href="#C2_0_790fddcf7b" y="129.715603"/>
    </g>
    <g clip-path="url(#p5a46c05370)">
     <use style="fill-opacity:0.7;stroke:#000000;stroke-opacity:0.7;" x="308.347872" xlink:href="#C2_0_790fddcf7b" y="120.722011"/>
    </g>
    <g clip-path="url(#p5a46c05370)">
     <use style="fill-opacity:0.7;stroke:#000000;stroke-opacity:0.7;" x="288.225827" xlink:href="#C2_0_790fddcf7b" y="135.037304"/>
    </g>
    <g clip-path="url(#p5a46c05370)">
     <use style="fill-opacity:0.7;stroke:#000000;stroke-opacity:0.7;" x="286.919243" xlink:href="#C2_0_790fddcf7b" y="135.143557"/>
    </g>
   </g>
   <g id="Poly3DCollection_4">
    <path clip-path="url(#p5a46c05370)" d="M 350.446964 129.715603 
L 350.849487 159.424234 
L 351.158324 167.644243 
z
" style="fill:#0000bb;fill-opacity:0.5;"/>
    <path clip-path="url(#p5a46c05370)" d="M 303.745564 223.677599 
L 301.95089 253.421132 
L 351.158324 167.644243 
z
" style="fill:#0000f8;fill-opacity:0.5;"/>
    <path clip-path="url(#p5a46c05370)" d="M 281.219953 266.864797 
L 301.95089 253.421132 
L 282.755577 254.633508 
z
" style="fill:#0000f6;fill-opacity:0.5;"/>
    <path clip-path="url(#p5a46c05370)" d="M 351.158324 167.644243 
L 350.849487 159.424234 
L 304.440792 193.459915 
z
" style="fill:#0000f2;fill-opacity:0.5;"/>
    <path clip-path="url(#p5a46c05370)" d="M 350.446964 129.715603 
L 350.337614 105.286234 
L 350.849487 159.424234 
z
" style="fill:#0000a2;fill-opacity:0.5;"/>
    <path clip-path="url(#p5a46c05370)" d="M 271.644016 88.434682 
L 269.775525 224.327596 
L 275.443245 195.089025 
z
" style="fill:#0000cb;fill-opacity:0.5;"/>
    <path clip-path="url(#p5a46c05370)" d="M 283.984534 225.154987 
L 282.755577 254.633508 
L 301.95089 253.421132 
z
" style="fill:#0000f6;fill-opacity:0.5;"/>
    <path clip-path="url(#p5a46c05370)" d="M 304.440792 193.459915 
L 303.745564 223.677599 
L 351.158324 167.644243 
z
" style="fill:#0000fa;fill-opacity:0.5;"/>
    <path clip-path="url(#p5a46c05370)" d="M 281.219953 266.864797 
L 282.755577 254.633508 
L 283.984534 225.154987 
z
" style="fill:#0000f4;fill-opacity:0.5;"/>
    <path clip-path="url(#p5a46c05370)" d="M 275.443245 195.089025 
L 270.874623 253.827667 
L 281.219953 266.864797 
z
" style="fill:#0000e8;fill-opacity:0.5;"/>
    <path clip-path="url(#p5a46c05370)" d="M 350.849487 159.424234 
L 350.337614 105.286234 
L 304.440792 193.459915 
z
" style="fill:#0000fb;fill-opacity:0.5;"/>
    <path clip-path="url(#p5a46c05370)" d="M 269.775525 224.327596 
L 270.874623 253.827667 
L 275.443245 195.089025 
z
" style="fill:#0000e8;fill-opacity:0.5;"/>
    <path clip-path="url(#p5a46c05370)" d="M 350.337614 105.286234 
L 350.446964 129.715603 
L 350.51837 102.925315 
z
" style="fill:#0000f8;fill-opacity:0.5;"/>
    <path clip-path="url(#p5a46c05370)" d="M 350.51837 102.925315 
L 350.446964 129.715603 
L 350.51965 102.701663 
z
" style="fill:#0000c0;fill-opacity:0.5;"/>
    <path clip-path="url(#p5a46c05370)" d="M 285.215141 195.445322 
L 283.984534 225.154987 
L 301.95089 253.421132 
z
" style="fill:#0000f6;fill-opacity:0.5;"/>
    <path clip-path="url(#p5a46c05370)" d="M 271.644016 88.434682 
L 308.347872 120.722011 
L 350.51965 102.701663 
z
" style="fill:#0000c9;fill-opacity:0.5;"/>
    <path clip-path="url(#p5a46c05370)" d="M 271.644016 88.434682 
L 275.443245 195.089025 
L 280.311773 165.495176 
z
" style="fill:#0000c9;fill-opacity:0.5;"/>
    <path clip-path="url(#p5a46c05370)" d="M 350.51965 102.701663 
L 350.337614 105.286234 
L 350.51837 102.925315 
z
" style="fill:#0000fa;fill-opacity:0.5;"/>
    <path clip-path="url(#p5a46c05370)" d="M 303.745564 223.677599 
L 288.225827 135.037304 
L 301.95089 253.421132 
z
" style="fill:#0000f7;fill-opacity:0.5;"/>
    <path clip-path="url(#p5a46c05370)" d="M 283.984534 225.154987 
L 280.311773 165.495176 
L 281.219953 266.864797 
z
" style="fill:#0000f1;fill-opacity:0.5;"/>
    <path clip-path="url(#p5a46c05370)" d="M 286.824073 165.290782 
L 285.215141 195.445322 
L 301.95089 253.421132 
z
" style="fill:#0000f6;fill-opacity:0.5;"/>
    <path clip-path="url(#p5a46c05370)" d="M 280.311773 165.495176 
L 275.443245 195.089025 
L 281.219953 266.864797 
z
" style="fill:#0000e8;fill-opacity:0.5;"/>
    <path clip-path="url(#p5a46c05370)" d="M 280.311773 165.495176 
L 286.919243 135.143557 
L 271.644016 88.434682 
z
" style="fill:#0000cd;fill-opacity:0.5;"/>
    <path clip-path="url(#p5a46c05370)" d="M 304.440792 193.459915 
L 350.337614 105.286234 
L 305.983217 164.438973 
z
" style="fill:#0000fa;fill-opacity:0.5;"/>
    <path clip-path="url(#p5a46c05370)" d="M 288.225827 135.037304 
L 308.347872 120.722011 
L 271.644016 88.434682 
z
" style="fill:#0000cc;fill-opacity:0.5;"/>
    <path clip-path="url(#p5a46c05370)" d="M 288.225827 135.037304 
L 303.745564 223.677599 
L 304.440792 193.459915 
z
" style="fill:#0000ed;fill-opacity:0.5;"/>
    <path clip-path="url(#p5a46c05370)" d="M 286.919243 135.143557 
L 288.225827 135.037304 
L 271.644016 88.434682 
z
" style="fill:#0000cb;fill-opacity:0.5;"/>
    <path clip-path="url(#p5a46c05370)" d="M 350.337614 105.286234 
L 350.51965 102.701663 
L 308.347872 120.722011 
z
" style="fill:#0000fb;fill-opacity:0.5;"/>
    <path clip-path="url(#p5a46c05370)" d="M 280.311773 165.495176 
L 283.984534 225.154987 
L 285.215141 195.445322 
z
" style="fill:#0000f0;fill-opacity:0.5;"/>
    <path clip-path="url(#p5a46c05370)" d="M 301.95089 253.421132 
L 288.225827 135.037304 
L 286.824073 165.290782 
z
" style="fill:#0000f6;fill-opacity:0.5;"/>
    <path clip-path="url(#p5a46c05370)" d="M 308.347872 120.722011 
L 305.983217 164.438973 
L 350.337614 105.286234 
z
" style="fill:#0000fa;fill-opacity:0.5;"/>
    <path clip-path="url(#p5a46c05370)" d="M 304.440792 193.459915 
L 305.983217 164.438973 
L 288.225827 135.037304 
z
" style="fill:#0000f4;fill-opacity:0.5;"/>
    <path clip-path="url(#p5a46c05370)" d="M 286.919243 135.143557 
L 285.215141 195.445322 
L 286.824073 165.290782 
z
" style="fill:#0000fd;fill-opacity:0.5;"/>
    <path clip-path="url(#p5a46c05370)" d="M 286.919243 135.143557 
L 280.311773 165.495176 
L 285.215141 195.445322 
z
" style="fill:#0000f1;fill-opacity:0.5;"/>
    <path clip-path="url(#p5a46c05370)" d="M 308.347872 120.722011 
L 288.225827 135.037304 
L 305.983217 164.438973 
z
" style="fill:#0000f4;fill-opacity:0.5;"/>
    <path clip-path="url(#p5a46c05370)" d="M 288.225827 135.037304 
L 286.919243 135.143557 
L 286.824073 165.290782 
z
" style="fill:#0000f9;fill-opacity:0.5;"/>
   </g>
   <g id="Path3DCollection_6">
    <defs>
     <path d="M 0 1.369306 
C 0.363144 1.369306 0.711464 1.225028 0.968246 0.968246 
C 1.225028 0.711464 1.369306 0.363144 1.369306 0 
C 1.369306 -0.363144 1.225028 -0.711464 0.968246 -0.968246 
C 0.711464 -1.225028 0.363144 -1.369306 0 -1.369306 
C -0.363144 -1.369306 -0.711464 -1.225028 -0.968246 -0.968246 
C -1.225028 -0.711464 -1.369306 -0.363144 -1.369306 0 
C -1.369306 0.363144 -1.225028 0.711464 -0.968246 0.968246 
C -0.711464 1.225028 -0.363144 1.369306 0 1.369306 
z
" id="C3_0_8fa21a69e3"/>
    </defs>
    <g clip-path="url(#p5a46c05370)">
     <use style="fill-opacity:0.7;stroke:#000000;stroke-opacity:0.7;" x="271.644016" xlink:href="#C3_0_8fa21a69e3" y="88.434682"/>
    </g>
    <g clip-path="url(#p5a46c05370)">
     <use style="fill-opacity:0.7;stroke:#000000;stroke-opacity:0.7;" x="351.158324" xlink:href="#C3_0_8fa21a69e3" y="167.644243"/>
    </g>
    <g clip-path="url(#p5a46c05370)">
     <use style="fill-opacity:0.7;stroke:#000000;stroke-opacity:0.7;" x="281.219953" xlink:href="#C3_0_8fa21a69e3" y="266.864797"/>
    </g>
    <g clip-path="url(#p5a46c05370)">
     <use style="fill-opacity:0.7;stroke:#000000;stroke-opacity:0.7;" x="350.51965" xlink:href="#C3_0_8fa21a69e3" y="102.701663"/>
    </g>
    <g clip-path="url(#p5a46c05370)">
     <use style="fill-opacity:0.7;stroke:#000000;stroke-opacity:0.7;" x="350.51965" xlink:href="#C3_0_8fa21a69e3" y="102.701663"/>
    </g>
    <g clip-path="url(#p5a46c05370)">
     <use style="fill-opacity:0.7;stroke:#000000;stroke-opacity:0.7;" x="350.51837" xlink:href="#C3_0_8fa21a69e3" y="102.925315"/>
    </g>
    <g clip-path="url(#p5a46c05370)">
     <use style="fill-opacity:0.7;stroke:#000000;stroke-opacity:0.7;" x="350.337614" xlink:href="#C3_0_8fa21a69e3" y="105.286234"/>
    </g>
    <g clip-path="url(#p5a46c05370)">
     <use style="fill-opacity:0.7;stroke:#000000;stroke-opacity:0.7;" x="351.158324" xlink:href="#C3_0_8fa21a69e3" y="167.644243"/>
    </g>
    <g clip-path="url(#p5a46c05370)">
     <use style="fill-opacity:0.7;stroke:#000000;stroke-opacity:0.7;" x="350.51965" xlink:href="#C3_0_8fa21a69e3" y="102.701663"/>
    </g>
    <g clip-path="url(#p5a46c05370)">
     <use style="fill-opacity:0.7;stroke:#000000;stroke-opacity:0.7;" x="350.51965" xlink:href="#C3_0_8fa21a69e3" y="102.701663"/>
    </g>
    <g clip-path="url(#p5a46c05370)">
     <use style="fill-opacity:0.7;stroke:#000000;stroke-opacity:0.7;" x="350.51837" xlink:href="#C3_0_8fa21a69e3" y="102.925315"/>
    </g>
    <g clip-path="url(#p5a46c05370)">
     <use style="fill-opacity:0.7;stroke:#000000;stroke-opacity:0.7;" x="350.337614" xlink:href="#C3_0_8fa21a69e3" y="105.286234"/>
    </g>
    <g clip-path="url(#p5a46c05370)">
     <use style="fill-opacity:0.7;stroke:#000000;stroke-opacity:0.7;" x="351.158324" xlink:href="#C3_0_8fa21a69e3" y="167.644243"/>
    </g>
    <g clip-path="url(#p5a46c05370)">
     <use style="fill-opacity:0.7;stroke:#000000;stroke-opacity:0.7;" x="351.158324" xlink:href="#C3_0_8fa21a69e3" y="167.644243"/>
    </g>
    <g clip-path="url(#p5a46c05370)">
     <use style="fill-opacity:0.7;stroke:#000000;stroke-opacity:0.7;" x="351.158324" xlink:href="#C3_0_8fa21a69e3" y="167.644243"/>
    </g>
    <g clip-path="url(#p5a46c05370)">
     <use style="fill-opacity:0.7;stroke:#000000;stroke-opacity:0.7;" x="301.95089" xlink:href="#C3_0_8fa21a69e3" y="253.421132"/>
    </g>
    <g clip-path="url(#p5a46c05370)">
     <use style="fill-opacity:0.7;stroke:#000000;stroke-opacity:0.7;" x="282.755577" xlink:href="#C3_0_8fa21a69e3" y="254.633508"/>
    </g>
    <g clip-path="url(#p5a46c05370)">
     <use style="fill-opacity:0.7;stroke:#000000;stroke-opacity:0.7;" x="270.874623" xlink:href="#C3_0_8fa21a69e3" y="253.827667"/>
    </g>
    <g clip-path="url(#p5a46c05370)">
     <use style="fill-opacity:0.7;stroke:#000000;stroke-opacity:0.7;" x="351.158324" xlink:href="#C3_0_8fa21a69e3" y="167.644243"/>
    </g>
    <g clip-path="url(#p5a46c05370)">
     <use style="fill-opacity:0.7;stroke:#000000;stroke-opacity:0.7;" x="351.158324" xlink:href="#C3_0_8fa21a69e3" y="167.644243"/>
    </g>
    <g clip-path="url(#p5a46c05370)">
     <use style="fill-opacity:0.7;stroke:#000000;stroke-opacity:0.7;" x="303.745564" xlink:href="#C3_0_8fa21a69e3" y="223.677599"/>
    </g>
    <g clip-path="url(#p5a46c05370)">
     <use style="fill-opacity:0.7;stroke:#000000;stroke-opacity:0.7;" x="283.984534" xlink:href="#C3_0_8fa21a69e3" y="225.154987"/>
    </g>
    <g clip-path="url(#p5a46c05370)">
     <use style="fill-opacity:0.7;stroke:#000000;stroke-opacity:0.7;" x="269.775525" xlink:href="#C3_0_8fa21a69e3" y="224.327596"/>
    </g>
    <g clip-path="url(#p5a46c05370)">
     <use style="fill-opacity:0.7;stroke:#000000;stroke-opacity:0.7;" x="351.158324" xlink:href="#C3_0_8fa21a69e3" y="167.644243"/>
    </g>
    <g clip-path="url(#p5a46c05370)">
     <use style="fill-opacity:0.7;stroke:#000000;stroke-opacity:0.7;" x="351.158324" xlink:href="#C3_0_8fa21a69e3" y="167.644243"/>
    </g>
    <g clip-path="url(#p5a46c05370)">
     <use style="fill-opacity:0.7;stroke:#000000;stroke-opacity:0.7;" x="304.440792" xlink:href="#C3_0_8fa21a69e3" y="193.459915"/>
    </g>
    <g clip-path="url(#p5a46c05370)">
     <use style="fill-opacity:0.7;stroke:#000000;stroke-opacity:0.7;" x="285.215141" xlink:href="#C3_0_8fa21a69e3" y="195.445322"/>
    </g>
    <g clip-path="url(#p5a46c05370)">
     <use style="fill-opacity:0.7;stroke:#000000;stroke-opacity:0.7;" x="275.443245" xlink:href="#C3_0_8fa21a69e3" y="195.089025"/>
    </g>
    <g clip-path="url(#p5a46c05370)">
     <use style="fill-opacity:0.7;stroke:#000000;stroke-opacity:0.7;" x="350.849487" xlink:href="#C3_0_8fa21a69e3" y="159.424234"/>
    </g>
    <g clip-path="url(#p5a46c05370)">
     <use style="fill-opacity:0.7;stroke:#000000;stroke-opacity:0.7;" x="350.849487" xlink:href="#C3_0_8fa21a69e3" y="159.424234"/>
    </g>
    <g clip-path="url(#p5a46c05370)">
     <use style="fill-opacity:0.7;stroke:#000000;stroke-opacity:0.7;" x="305.983217" xlink:href="#C3_0_8fa21a69e3" y="164.438973"/>
    </g>
    <g clip-path="url(#p5a46c05370)">
     <use style="fill-opacity:0.7;stroke:#000000;stroke-opacity:0.7;" x="286.824073" xlink:href="#C3_0_8fa21a69e3" y="165.290782"/>
    </g>
    <g clip-path="url(#p5a46c05370)">
     <use style="fill-opacity:0.7;stroke:#000000;stroke-opacity:0.7;" x="280.311773" xlink:href="#C3_0_8fa21a69e3" y="165.495176"/>
    </g>
    <g clip-path="url(#p5a46c05370)">
     <use style="fill-opacity:0.7;stroke:#000000;stroke-opacity:0.7;" x="350.446964" xlink:href="#C3_0_8fa21a69e3" y="129.715603"/>
    </g>
    <g clip-path="url(#p5a46c05370)">
     <use style="fill-opacity:0.7;stroke:#000000;stroke-opacity:0.7;" x="350.446964" xlink:href="#C3_0_8fa21a69e3" y="129.715603"/>
    </g>
    <g clip-path="url(#p5a46c05370)">
     <use style="fill-opacity:0.7;stroke:#000000;stroke-opacity:0.7;" x="308.347872" xlink:href="#C3_0_8fa21a69e3" y="120.722011"/>
    </g>
    <g clip-path="url(#p5a46c05370)">
     <use style="fill-opacity:0.7;stroke:#000000;stroke-opacity:0.7;" x="288.225827" xlink:href="#C3_0_8fa21a69e3" y="135.037304"/>
    </g>
    <g clip-path="url(#p5a46c05370)">
     <use style="fill-opacity:0.7;stroke:#000000;stroke-opacity:0.7;" x="286.919243" xlink:href="#C3_0_8fa21a69e3" y="135.143557"/>
    </g>
   </g>
   <g id="Path3DCollection_7">
    <defs>
     <path d="M 0 -3.162278 
L -0.709976 -0.977198 
L -3.007505 -0.977198 
L -1.148765 0.373256 
L -1.85874 2.558336 
L -0 1.207883 
L 1.85874 2.558336 
L 1.148765 0.373256 
L 3.007505 -0.977198 
L 0.709976 -0.977198 
z
" id="m6f24cfc4ed" style="stroke:#0000ff;stroke-opacity:0.7;"/>
    </defs>
    <g clip-path="url(#p5a46c05370)">
     <use style="fill:#0000ff;fill-opacity:0.7;stroke:#0000ff;stroke-opacity:0.7;" x="333.880269" xlink:href="#m6f24cfc4ed" y="103.245182"/>
    </g>
   </g>
   <g id="Path3DCollection_8">
    <g clip-path="url(#p5a46c05370)">
     <use style="fill:#0000ff;fill-opacity:0.7;stroke:#0000ff;stroke-opacity:0.7;" x="333.880269" xlink:href="#m6f24cfc4ed" y="103.245182"/>
    </g>
   </g>
  </g>
 </g>
 <defs>
  <clipPath id="p5a46c05370">
   <rect height="266.112" width="357.12" x="57.6" y="41.472"/>
  </clipPath>
 </defs>
</svg>
