<?xml version="1.0" encoding="utf-8" standalone="no"?>
<!DOCTYPE svg PUBLIC "-//W3C//DTD SVG 1.1//EN"
  "http://www.w3.org/Graphics/SVG/1.1/DTD/svg11.dtd">
<!-- Created with matplotlib (https://matplotlib.org/) -->
<svg height="345.6pt" version="1.1" viewBox="0 0 460.8 345.6" width="460.8pt" xmlns="http://www.w3.org/2000/svg" xmlns:xlink="http://www.w3.org/1999/xlink">
 <metadata>
  <rdf:RDF xmlns:cc="http://creativecommons.org/ns#" xmlns:dc="http://purl.org/dc/elements/1.1/" xmlns:rdf="http://www.w3.org/1999/02/22-rdf-syntax-ns#">
   <cc:Work>
    <dc:type rdf:resource="http://purl.org/dc/dcmitype/StillImage"/>
    <dc:date>2021-09-25T17:32:32.218662</dc:date>
    <dc:format>image/svg+xml</dc:format>
    <dc:creator>
     <cc:Agent>
      <dc:title>Matplotlib v3.3.4, https://matplotlib.org/</dc:title>
     </cc:Agent>
    </dc:creator>
   </cc:Work>
  </rdf:RDF>
 </metadata>
 <defs>
  <style type="text/css">*{stroke-linecap:butt;stroke-linejoin:round;}</style>
 </defs>
 <g id="figure_1">
  <g id="patch_1">
   <path d="M 0 345.6 
L 460.8 345.6 
L 460.8 0 
L 0 0 
z
" style="fill:#ffffff;"/>
  </g>
  <g id="patch_2">
   <path d="M 103.104 307.584 
L 369.216 307.584 
L 369.216 41.472 
L 103.104 41.472 
z
" style="fill:#ffffff;"/>
  </g>
  <g id="pane3d_1">
   <g id="patch_3">
    <path d="M 268.48219 147.11045 
L 355.329853 239.446552 
L 362.278189 140.503145 
L 270.077249 50.600312 
" style="fill:#f2f2f2;opacity:0.5;stroke:#f2f2f2;stroke-linejoin:miter;"/>
   </g>
  </g>
  <g id="pane3d_2">
   <g id="patch_4">
    <path d="M 268.48219 147.11045 
L 127.872721 198.718486 
L 121.373509 100.752081 
L 270.077249 50.600312 
" style="fill:#e6e6e6;opacity:0.5;stroke:#e6e6e6;stroke-linejoin:miter;"/>
   </g>
  </g>
  <g id="pane3d_3">
   <g id="patch_5">
    <path d="M 268.48219 147.11045 
L 127.872721 198.718486 
L 207.327063 299.628836 
L 355.329853 239.446552 
" style="fill:#ececec;opacity:0.5;stroke:#ececec;stroke-linejoin:miter;"/>
   </g>
  </g>
  <g id="axis3d_1">
   <g id="line2d_1">
    <path d="M 355.329853 239.446552 
L 207.327063 299.628836 
" style="fill:none;stroke:#000000;stroke-linecap:square;stroke-width:0.8;"/>
   </g>
   <g id="text_1">
    <!-- Life Cycle Cost -->
    <g transform="translate(263.561714 315.988382)rotate(-22.128104)scale(0.1 -0.1)">
     <defs>
      <path d="M 9.8125 72.90625 
L 19.671875 72.90625 
L 19.671875 8.296875 
L 55.171875 8.296875 
L 55.171875 0 
L 9.8125 0 
z
" id="DejaVuSans-76"/>
      <path d="M 9.421875 54.6875 
L 18.40625 54.6875 
L 18.40625 0 
L 9.421875 0 
z
M 9.421875 75.984375 
L 18.40625 75.984375 
L 18.40625 64.59375 
L 9.421875 64.59375 
z
" id="DejaVuSans-105"/>
      <path d="M 37.109375 75.984375 
L 37.109375 68.5 
L 28.515625 68.5 
Q 23.6875 68.5 21.796875 66.546875 
Q 19.921875 64.59375 19.921875 59.515625 
L 19.921875 54.6875 
L 34.71875 54.6875 
L 34.71875 47.703125 
L 19.921875 47.703125 
L 19.921875 0 
L 10.890625 0 
L 10.890625 47.703125 
L 2.296875 47.703125 
L 2.296875 54.6875 
L 10.890625 54.6875 
L 10.890625 58.5 
Q 10.890625 67.625 15.140625 71.796875 
Q 19.390625 75.984375 28.609375 75.984375 
z
" id="DejaVuSans-102"/>
      <path d="M 56.203125 29.59375 
L 56.203125 25.203125 
L 14.890625 25.203125 
Q 15.484375 15.921875 20.484375 11.0625 
Q 25.484375 6.203125 34.421875 6.203125 
Q 39.59375 6.203125 44.453125 7.46875 
Q 49.3125 8.734375 54.109375 11.28125 
L 54.109375 2.78125 
Q 49.265625 0.734375 44.1875 -0.34375 
Q 39.109375 -1.421875 33.890625 -1.421875 
Q 20.796875 -1.421875 13.15625 6.1875 
Q 5.515625 13.8125 5.515625 26.8125 
Q 5.515625 40.234375 12.765625 48.109375 
Q 20.015625 56 32.328125 56 
Q 43.359375 56 49.78125 48.890625 
Q 56.203125 41.796875 56.203125 29.59375 
z
M 47.21875 32.234375 
Q 47.125 39.59375 43.09375 43.984375 
Q 39.0625 48.390625 32.421875 48.390625 
Q 24.90625 48.390625 20.390625 44.140625 
Q 15.875 39.890625 15.1875 32.171875 
z
" id="DejaVuSans-101"/>
      <path id="DejaVuSans-32"/>
      <path d="M 64.40625 67.28125 
L 64.40625 56.890625 
Q 59.421875 61.53125 53.78125 63.8125 
Q 48.140625 66.109375 41.796875 66.109375 
Q 29.296875 66.109375 22.65625 58.46875 
Q 16.015625 50.828125 16.015625 36.375 
Q 16.015625 21.96875 22.65625 14.328125 
Q 29.296875 6.6875 41.796875 6.6875 
Q 48.140625 6.6875 53.78125 8.984375 
Q 59.421875 11.28125 64.40625 15.921875 
L 64.40625 5.609375 
Q 59.234375 2.09375 53.4375 0.328125 
Q 47.65625 -1.421875 41.21875 -1.421875 
Q 24.65625 -1.421875 15.125 8.703125 
Q 5.609375 18.84375 5.609375 36.375 
Q 5.609375 53.953125 15.125 64.078125 
Q 24.65625 74.21875 41.21875 74.21875 
Q 47.75 74.21875 53.53125 72.484375 
Q 59.328125 70.75 64.40625 67.28125 
z
" id="DejaVuSans-67"/>
      <path d="M 32.171875 -5.078125 
Q 28.375 -14.84375 24.75 -17.8125 
Q 21.140625 -20.796875 15.09375 -20.796875 
L 7.90625 -20.796875 
L 7.90625 -13.28125 
L 13.1875 -13.28125 
Q 16.890625 -13.28125 18.9375 -11.515625 
Q 21 -9.765625 23.484375 -3.21875 
L 25.09375 0.875 
L 2.984375 54.6875 
L 12.5 54.6875 
L 29.59375 11.921875 
L 46.6875 54.6875 
L 56.203125 54.6875 
z
" id="DejaVuSans-121"/>
      <path d="M 48.78125 52.59375 
L 48.78125 44.1875 
Q 44.96875 46.296875 41.140625 47.34375 
Q 37.3125 48.390625 33.40625 48.390625 
Q 24.65625 48.390625 19.8125 42.84375 
Q 14.984375 37.3125 14.984375 27.296875 
Q 14.984375 17.28125 19.8125 11.734375 
Q 24.65625 6.203125 33.40625 6.203125 
Q 37.3125 6.203125 41.140625 7.25 
Q 44.96875 8.296875 48.78125 10.40625 
L 48.78125 2.09375 
Q 45.015625 0.34375 40.984375 -0.53125 
Q 36.96875 -1.421875 32.421875 -1.421875 
Q 20.0625 -1.421875 12.78125 6.34375 
Q 5.515625 14.109375 5.515625 27.296875 
Q 5.515625 40.671875 12.859375 48.328125 
Q 20.21875 56 33.015625 56 
Q 37.15625 56 41.109375 55.140625 
Q 45.0625 54.296875 48.78125 52.59375 
z
" id="DejaVuSans-99"/>
      <path d="M 9.421875 75.984375 
L 18.40625 75.984375 
L 18.40625 0 
L 9.421875 0 
z
" id="DejaVuSans-108"/>
      <path d="M 30.609375 48.390625 
Q 23.390625 48.390625 19.1875 42.75 
Q 14.984375 37.109375 14.984375 27.296875 
Q 14.984375 17.484375 19.15625 11.84375 
Q 23.34375 6.203125 30.609375 6.203125 
Q 37.796875 6.203125 41.984375 11.859375 
Q 46.1875 17.53125 46.1875 27.296875 
Q 46.1875 37.015625 41.984375 42.703125 
Q 37.796875 48.390625 30.609375 48.390625 
z
M 30.609375 56 
Q 42.328125 56 49.015625 48.375 
Q 55.71875 40.765625 55.71875 27.296875 
Q 55.71875 13.875 49.015625 6.21875 
Q 42.328125 -1.421875 30.609375 -1.421875 
Q 18.84375 -1.421875 12.171875 6.21875 
Q 5.515625 13.875 5.515625 27.296875 
Q 5.515625 40.765625 12.171875 48.375 
Q 18.84375 56 30.609375 56 
z
" id="DejaVuSans-111"/>
      <path d="M 44.28125 53.078125 
L 44.28125 44.578125 
Q 40.484375 46.53125 36.375 47.5 
Q 32.28125 48.484375 27.875 48.484375 
Q 21.1875 48.484375 17.84375 46.4375 
Q 14.5 44.390625 14.5 40.28125 
Q 14.5 37.15625 16.890625 35.375 
Q 19.28125 33.59375 26.515625 31.984375 
L 29.59375 31.296875 
Q 39.15625 29.25 43.1875 25.515625 
Q 47.21875 21.78125 47.21875 15.09375 
Q 47.21875 7.46875 41.1875 3.015625 
Q 35.15625 -1.421875 24.609375 -1.421875 
Q 20.21875 -1.421875 15.453125 -0.5625 
Q 10.6875 0.296875 5.421875 2 
L 5.421875 11.28125 
Q 10.40625 8.6875 15.234375 7.390625 
Q 20.0625 6.109375 24.8125 6.109375 
Q 31.15625 6.109375 34.5625 8.28125 
Q 37.984375 10.453125 37.984375 14.40625 
Q 37.984375 18.0625 35.515625 20.015625 
Q 33.0625 21.96875 24.703125 23.78125 
L 21.578125 24.515625 
Q 13.234375 26.265625 9.515625 29.90625 
Q 5.8125 33.546875 5.8125 39.890625 
Q 5.8125 47.609375 11.28125 51.796875 
Q 16.75 56 26.8125 56 
Q 31.78125 56 36.171875 55.265625 
Q 40.578125 54.546875 44.28125 53.078125 
z
" id="DejaVuSans-115"/>
      <path d="M 18.3125 70.21875 
L 18.3125 54.6875 
L 36.8125 54.6875 
L 36.8125 47.703125 
L 18.3125 47.703125 
L 18.3125 18.015625 
Q 18.3125 11.328125 20.140625 9.421875 
Q 21.96875 7.515625 27.59375 7.515625 
L 36.8125 7.515625 
L 36.8125 0 
L 27.59375 0 
Q 17.1875 0 13.234375 3.875 
Q 9.28125 7.765625 9.28125 18.015625 
L 9.28125 47.703125 
L 2.6875 47.703125 
L 2.6875 54.6875 
L 9.28125 54.6875 
L 9.28125 70.21875 
z
" id="DejaVuSans-116"/>
     </defs>
     <use xlink:href="#DejaVuSans-76"/>
     <use x="55.712891" xlink:href="#DejaVuSans-105"/>
     <use x="83.496094" xlink:href="#DejaVuSans-102"/>
     <use x="118.701172" xlink:href="#DejaVuSans-101"/>
     <use x="180.224609" xlink:href="#DejaVuSans-32"/>
     <use x="212.011719" xlink:href="#DejaVuSans-67"/>
     <use x="281.835938" xlink:href="#DejaVuSans-121"/>
     <use x="341.015625" xlink:href="#DejaVuSans-99"/>
     <use x="395.996094" xlink:href="#DejaVuSans-108"/>
     <use x="423.779297" xlink:href="#DejaVuSans-101"/>
     <use x="485.302734" xlink:href="#DejaVuSans-32"/>
     <use x="517.089844" xlink:href="#DejaVuSans-67"/>
     <use x="586.914062" xlink:href="#DejaVuSans-111"/>
     <use x="648.095703" xlink:href="#DejaVuSans-115"/>
     <use x="700.195312" xlink:href="#DejaVuSans-116"/>
    </g>
    <!--  ($/house-yr) -->
    <g transform="translate(272.231209 324.55129)rotate(-22.128104)scale(0.1 -0.1)">
     <defs>
      <path d="M 31 75.875 
Q 24.46875 64.65625 21.28125 53.65625 
Q 18.109375 42.671875 18.109375 31.390625 
Q 18.109375 20.125 21.3125 9.0625 
Q 24.515625 -2 31 -13.1875 
L 23.1875 -13.1875 
Q 15.875 -1.703125 12.234375 9.375 
Q 8.59375 20.453125 8.59375 31.390625 
Q 8.59375 42.28125 12.203125 53.3125 
Q 15.828125 64.359375 23.1875 75.875 
z
" id="DejaVuSans-40"/>
      <path d="M 33.796875 -14.703125 
L 28.90625 -14.703125 
L 28.859375 0 
Q 23.734375 0.09375 18.609375 1.1875 
Q 13.484375 2.296875 8.296875 4.5 
L 8.296875 13.28125 
Q 13.28125 10.15625 18.375 8.5625 
Q 23.484375 6.984375 28.90625 6.9375 
L 28.90625 29.203125 
Q 18.109375 30.953125 13.203125 35.15625 
Q 8.296875 39.359375 8.296875 46.6875 
Q 8.296875 54.640625 13.625 59.21875 
Q 18.953125 63.8125 28.90625 64.5 
L 28.90625 75.984375 
L 33.796875 75.984375 
L 33.796875 64.65625 
Q 38.328125 64.453125 42.578125 63.6875 
Q 46.828125 62.9375 50.875 61.625 
L 50.875 53.078125 
Q 46.828125 55.125 42.546875 56.25 
Q 38.28125 57.375 33.796875 57.5625 
L 33.796875 36.71875 
Q 44.875 35.015625 50.09375 30.609375 
Q 55.328125 26.21875 55.328125 18.609375 
Q 55.328125 10.359375 49.78125 5.59375 
Q 44.234375 0.828125 33.796875 0.09375 
z
M 28.90625 37.59375 
L 28.90625 57.625 
Q 23.25 56.984375 20.265625 54.390625 
Q 17.28125 51.8125 17.28125 47.515625 
Q 17.28125 43.3125 20.03125 40.96875 
Q 22.796875 38.625 28.90625 37.59375 
z
M 33.796875 28.21875 
L 33.796875 7.078125 
Q 39.984375 7.90625 43.140625 10.59375 
Q 46.296875 13.28125 46.296875 17.671875 
Q 46.296875 21.96875 43.28125 24.5 
Q 40.28125 27.046875 33.796875 28.21875 
z
" id="DejaVuSans-36"/>
      <path d="M 25.390625 72.90625 
L 33.6875 72.90625 
L 8.296875 -9.28125 
L 0 -9.28125 
z
" id="DejaVuSans-47"/>
      <path d="M 54.890625 33.015625 
L 54.890625 0 
L 45.90625 0 
L 45.90625 32.71875 
Q 45.90625 40.484375 42.875 44.328125 
Q 39.84375 48.1875 33.796875 48.1875 
Q 26.515625 48.1875 22.3125 43.546875 
Q 18.109375 38.921875 18.109375 30.90625 
L 18.109375 0 
L 9.078125 0 
L 9.078125 75.984375 
L 18.109375 75.984375 
L 18.109375 46.1875 
Q 21.34375 51.125 25.703125 53.5625 
Q 30.078125 56 35.796875 56 
Q 45.21875 56 50.046875 50.171875 
Q 54.890625 44.34375 54.890625 33.015625 
z
" id="DejaVuSans-104"/>
      <path d="M 8.5 21.578125 
L 8.5 54.6875 
L 17.484375 54.6875 
L 17.484375 21.921875 
Q 17.484375 14.15625 20.5 10.265625 
Q 23.53125 6.390625 29.59375 6.390625 
Q 36.859375 6.390625 41.078125 11.03125 
Q 45.3125 15.671875 45.3125 23.6875 
L 45.3125 54.6875 
L 54.296875 54.6875 
L 54.296875 0 
L 45.3125 0 
L 45.3125 8.40625 
Q 42.046875 3.421875 37.71875 1 
Q 33.40625 -1.421875 27.6875 -1.421875 
Q 18.265625 -1.421875 13.375 4.4375 
Q 8.5 10.296875 8.5 21.578125 
z
M 31.109375 56 
z
" id="DejaVuSans-117"/>
      <path d="M 4.890625 31.390625 
L 31.203125 31.390625 
L 31.203125 23.390625 
L 4.890625 23.390625 
z
" id="DejaVuSans-45"/>
      <path d="M 41.109375 46.296875 
Q 39.59375 47.171875 37.8125 47.578125 
Q 36.03125 48 33.890625 48 
Q 26.265625 48 22.1875 43.046875 
Q 18.109375 38.09375 18.109375 28.8125 
L 18.109375 0 
L 9.078125 0 
L 9.078125 54.6875 
L 18.109375 54.6875 
L 18.109375 46.1875 
Q 20.953125 51.171875 25.484375 53.578125 
Q 30.03125 56 36.53125 56 
Q 37.453125 56 38.578125 55.875 
Q 39.703125 55.765625 41.0625 55.515625 
z
" id="DejaVuSans-114"/>
      <path d="M 8.015625 75.875 
L 15.828125 75.875 
Q 23.140625 64.359375 26.78125 53.3125 
Q 30.421875 42.28125 30.421875 31.390625 
Q 30.421875 20.453125 26.78125 9.375 
Q 23.140625 -1.703125 15.828125 -13.1875 
L 8.015625 -13.1875 
Q 14.5 -2 17.703125 9.0625 
Q 20.90625 20.125 20.90625 31.390625 
Q 20.90625 42.671875 17.703125 53.65625 
Q 14.5 64.65625 8.015625 75.875 
z
" id="DejaVuSans-41"/>
     </defs>
     <use xlink:href="#DejaVuSans-32"/>
     <use x="31.787109" xlink:href="#DejaVuSans-40"/>
     <use x="70.800781" xlink:href="#DejaVuSans-36"/>
     <use x="134.423828" xlink:href="#DejaVuSans-47"/>
     <use x="168.115234" xlink:href="#DejaVuSans-104"/>
     <use x="231.494141" xlink:href="#DejaVuSans-111"/>
     <use x="292.675781" xlink:href="#DejaVuSans-117"/>
     <use x="356.054688" xlink:href="#DejaVuSans-115"/>
     <use x="408.154297" xlink:href="#DejaVuSans-101"/>
     <use x="469.677734" xlink:href="#DejaVuSans-45"/>
     <use x="504.011719" xlink:href="#DejaVuSans-121"/>
     <use x="563.191406" xlink:href="#DejaVuSans-114"/>
     <use x="604.304688" xlink:href="#DejaVuSans-41"/>
    </g>
   </g>
   <g id="Line3DCollection_1">
    <path d="M 338.927197 246.116353 
L 252.851602 152.847361 
L 253.582472 56.163335 
" style="fill:none;stroke:#b0b0b0;stroke-width:0.8;"/>
    <path d="M 321.687667 253.126453 
L 236.436275 158.872295 
L 236.250001 62.008878 
" style="fill:none;stroke:#b0b0b0;stroke-width:0.8;"/>
    <path d="M 304.258591 260.213627 
L 219.853727 164.958604 
L 218.731007 67.917327 
" style="fill:none;stroke:#b0b0b0;stroke-width:0.8;"/>
    <path d="M 286.636828 267.379154 
L 203.101392 171.107231 
L 201.022463 73.889704 
" style="fill:none;stroke:#b0b0b0;stroke-width:0.8;"/>
    <path d="M 268.819165 274.62434 
L 186.176646 177.319137 
L 183.121275 79.927052 
" style="fill:none;stroke:#b0b0b0;stroke-width:0.8;"/>
    <path d="M 250.802315 281.95052 
L 169.076817 183.595305 
L 165.024284 86.030437 
" style="fill:none;stroke:#b0b0b0;stroke-width:0.8;"/>
    <path d="M 232.58292 289.359062 
L 151.799171 189.936737 
L 146.728259 92.200948 
" style="fill:none;stroke:#b0b0b0;stroke-width:0.8;"/>
    <path d="M 214.157547 296.85136 
L 134.340922 196.344455 
L 128.229897 98.439698 
" style="fill:none;stroke:#b0b0b0;stroke-width:0.8;"/>
   </g>
   <g id="xtick_1">
    <g id="line2d_2">
     <path d="M 338.185038 245.312171 
L 340.414314 247.72775 
" style="fill:none;stroke:#000000;stroke-linecap:square;stroke-width:0.8;"/>
    </g>
    <g id="text_2">
     <!-- 1.0 -->
     <g transform="translate(338.221632 269.842313)scale(0.1 -0.1)">
      <defs>
       <path d="M 12.40625 8.296875 
L 28.515625 8.296875 
L 28.515625 63.921875 
L 10.984375 60.40625 
L 10.984375 69.390625 
L 28.421875 72.90625 
L 38.28125 72.90625 
L 38.28125 8.296875 
L 54.390625 8.296875 
L 54.390625 0 
L 12.40625 0 
z
" id="DejaVuSans-49"/>
       <path d="M 10.6875 12.40625 
L 21 12.40625 
L 21 0 
L 10.6875 0 
z
" id="DejaVuSans-46"/>
       <path d="M 31.78125 66.40625 
Q 24.171875 66.40625 20.328125 58.90625 
Q 16.5 51.421875 16.5 36.375 
Q 16.5 21.390625 20.328125 13.890625 
Q 24.171875 6.390625 31.78125 6.390625 
Q 39.453125 6.390625 43.28125 13.890625 
Q 47.125 21.390625 47.125 36.375 
Q 47.125 51.421875 43.28125 58.90625 
Q 39.453125 66.40625 31.78125 66.40625 
z
M 31.78125 74.21875 
Q 44.046875 74.21875 50.515625 64.515625 
Q 56.984375 54.828125 56.984375 36.375 
Q 56.984375 17.96875 50.515625 8.265625 
Q 44.046875 -1.421875 31.78125 -1.421875 
Q 19.53125 -1.421875 13.0625 8.265625 
Q 6.59375 17.96875 6.59375 36.375 
Q 6.59375 54.828125 13.0625 64.515625 
Q 19.53125 74.21875 31.78125 74.21875 
z
" id="DejaVuSans-48"/>
      </defs>
      <use xlink:href="#DejaVuSans-49"/>
      <use x="63.623047" xlink:href="#DejaVuSans-46"/>
      <use x="95.410156" xlink:href="#DejaVuSans-48"/>
     </g>
    </g>
   </g>
   <g id="xtick_2">
    <g id="line2d_3">
     <path d="M 320.952324 252.313456 
L 323.16114 254.755529 
" style="fill:none;stroke:#000000;stroke-linecap:square;stroke-width:0.8;"/>
    </g>
    <g id="text_3">
     <!-- 1.5 -->
     <g transform="translate(320.990895 276.953308)scale(0.1 -0.1)">
      <defs>
       <path d="M 10.796875 72.90625 
L 49.515625 72.90625 
L 49.515625 64.59375 
L 19.828125 64.59375 
L 19.828125 46.734375 
Q 21.96875 47.46875 24.109375 47.828125 
Q 26.265625 48.1875 28.421875 48.1875 
Q 40.625 48.1875 47.75 41.5 
Q 54.890625 34.8125 54.890625 23.390625 
Q 54.890625 11.625 47.5625 5.09375 
Q 40.234375 -1.421875 26.90625 -1.421875 
Q 22.3125 -1.421875 17.546875 -0.640625 
Q 12.796875 0.140625 7.71875 1.703125 
L 7.71875 11.625 
Q 12.109375 9.234375 16.796875 8.0625 
Q 21.484375 6.890625 26.703125 6.890625 
Q 35.15625 6.890625 40.078125 11.328125 
Q 45.015625 15.765625 45.015625 23.390625 
Q 45.015625 31 40.078125 35.4375 
Q 35.15625 39.890625 26.703125 39.890625 
Q 22.75 39.890625 18.8125 39.015625 
Q 14.890625 38.140625 10.796875 36.28125 
z
" id="DejaVuSans-53"/>
      </defs>
      <use xlink:href="#DejaVuSans-49"/>
      <use x="63.623047" xlink:href="#DejaVuSans-46"/>
      <use x="95.410156" xlink:href="#DejaVuSans-53"/>
     </g>
    </g>
   </g>
   <g id="xtick_3">
    <g id="line2d_4">
     <path d="M 303.53026 259.39167 
L 305.71803 261.860675 
" style="fill:none;stroke:#000000;stroke-linecap:square;stroke-width:0.8;"/>
    </g>
    <g id="text_4">
     <!-- 2.0 -->
     <g transform="translate(303.570369 284.142626)scale(0.1 -0.1)">
      <defs>
       <path d="M 19.1875 8.296875 
L 53.609375 8.296875 
L 53.609375 0 
L 7.328125 0 
L 7.328125 8.296875 
Q 12.9375 14.109375 22.625 23.890625 
Q 32.328125 33.6875 34.8125 36.53125 
Q 39.546875 41.84375 41.421875 45.53125 
Q 43.3125 49.21875 43.3125 52.78125 
Q 43.3125 58.59375 39.234375 62.25 
Q 35.15625 65.921875 28.609375 65.921875 
Q 23.96875 65.921875 18.8125 64.3125 
Q 13.671875 62.703125 7.8125 59.421875 
L 7.8125 69.390625 
Q 13.765625 71.78125 18.9375 73 
Q 24.125 74.21875 28.421875 74.21875 
Q 39.75 74.21875 46.484375 68.546875 
Q 53.21875 62.890625 53.21875 53.421875 
Q 53.21875 48.921875 51.53125 44.890625 
Q 49.859375 40.875 45.40625 35.40625 
Q 44.1875 33.984375 37.640625 27.21875 
Q 31.109375 20.453125 19.1875 8.296875 
z
" id="DejaVuSans-50"/>
      </defs>
      <use xlink:href="#DejaVuSans-50"/>
      <use x="63.623047" xlink:href="#DejaVuSans-46"/>
      <use x="95.410156" xlink:href="#DejaVuSans-48"/>
     </g>
    </g>
   </g>
   <g id="xtick_4">
    <g id="line2d_5">
     <path d="M 285.915709 266.548088 
L 288.08183 269.044473 
" style="fill:none;stroke:#000000;stroke-linecap:square;stroke-width:0.8;"/>
    </g>
    <g id="text_5">
     <!-- 2.5 -->
     <g transform="translate(285.956901 291.411571)scale(0.1 -0.1)">
      <use xlink:href="#DejaVuSans-50"/>
      <use x="63.623047" xlink:href="#DejaVuSans-46"/>
      <use x="95.410156" xlink:href="#DejaVuSans-53"/>
     </g>
    </g>
   </g>
   <g id="xtick_5">
    <g id="line2d_6">
     <path d="M 268.105463 273.784012 
L 270.249318 276.308235 
" style="fill:none;stroke:#000000;stroke-linecap:square;stroke-width:0.8;"/>
    </g>
    <g id="text_6">
     <!-- 3.0 -->
     <g transform="translate(268.147268 298.761471)scale(0.1 -0.1)">
      <defs>
       <path d="M 40.578125 39.3125 
Q 47.65625 37.796875 51.625 33 
Q 55.609375 28.21875 55.609375 21.1875 
Q 55.609375 10.40625 48.1875 4.484375 
Q 40.765625 -1.421875 27.09375 -1.421875 
Q 22.515625 -1.421875 17.65625 -0.515625 
Q 12.796875 0.390625 7.625 2.203125 
L 7.625 11.71875 
Q 11.71875 9.328125 16.59375 8.109375 
Q 21.484375 6.890625 26.8125 6.890625 
Q 36.078125 6.890625 40.9375 10.546875 
Q 45.796875 14.203125 45.796875 21.1875 
Q 45.796875 27.640625 41.28125 31.265625 
Q 36.765625 34.90625 28.71875 34.90625 
L 20.21875 34.90625 
L 20.21875 43.015625 
L 29.109375 43.015625 
Q 36.375 43.015625 40.234375 45.921875 
Q 44.09375 48.828125 44.09375 54.296875 
Q 44.09375 59.90625 40.109375 62.90625 
Q 36.140625 65.921875 28.71875 65.921875 
Q 24.65625 65.921875 20.015625 65.03125 
Q 15.375 64.15625 9.8125 62.3125 
L 9.8125 71.09375 
Q 15.4375 72.65625 20.34375 73.4375 
Q 25.25 74.21875 29.59375 74.21875 
Q 40.828125 74.21875 47.359375 69.109375 
Q 53.90625 64.015625 53.90625 55.328125 
Q 53.90625 49.265625 50.4375 45.09375 
Q 46.96875 40.921875 40.578125 39.3125 
z
" id="DejaVuSans-51"/>
      </defs>
      <use xlink:href="#DejaVuSans-51"/>
      <use x="63.623047" xlink:href="#DejaVuSans-46"/>
      <use x="95.410156" xlink:href="#DejaVuSans-48"/>
     </g>
    </g>
   </g>
   <g id="xtick_6">
    <g id="line2d_7">
     <path d="M 250.096243 281.100775 
L 252.217196 283.653305 
" style="fill:none;stroke:#000000;stroke-linecap:square;stroke-width:0.8;"/>
    </g>
    <g id="text_7">
     <!-- 3.5 -->
     <g transform="translate(250.138174 306.193688)scale(0.1 -0.1)">
      <use xlink:href="#DejaVuSans-51"/>
      <use x="63.623047" xlink:href="#DejaVuSans-46"/>
      <use x="95.410156" xlink:href="#DejaVuSans-53"/>
     </g>
    </g>
   </g>
   <g id="xtick_7">
    <g id="line2d_8">
     <path d="M 231.884694 288.49974 
L 233.982094 291.081055 
" style="fill:none;stroke:#000000;stroke-linecap:square;stroke-width:0.8;"/>
    </g>
    <g id="text_8">
     <!-- 4.0 -->
     <g transform="translate(231.926249 313.709611)scale(0.1 -0.1)">
      <defs>
       <path d="M 37.796875 64.3125 
L 12.890625 25.390625 
L 37.796875 25.390625 
z
M 35.203125 72.90625 
L 47.609375 72.90625 
L 47.609375 25.390625 
L 58.015625 25.390625 
L 58.015625 17.1875 
L 47.609375 17.1875 
L 47.609375 0 
L 37.796875 0 
L 37.796875 17.1875 
L 4.890625 17.1875 
L 4.890625 26.703125 
z
" id="DejaVuSans-52"/>
      </defs>
      <use xlink:href="#DejaVuSans-52"/>
      <use x="63.623047" xlink:href="#DejaVuSans-46"/>
      <use x="95.410156" xlink:href="#DejaVuSans-48"/>
     </g>
    </g>
   </g>
   <g id="xtick_8">
    <g id="line2d_9">
     <path d="M 213.467389 295.982299 
L 215.540566 298.59289 
" style="fill:none;stroke:#000000;stroke-linecap:square;stroke-width:0.8;"/>
    </g>
    <g id="text_9">
     <!-- 4.5 -->
     <g transform="translate(213.508047 321.310663)scale(0.1 -0.1)">
      <use xlink:href="#DejaVuSans-52"/>
      <use x="63.623047" xlink:href="#DejaVuSans-46"/>
      <use x="95.410156" xlink:href="#DejaVuSans-53"/>
     </g>
    </g>
   </g>
  </g>
  <g id="axis3d_2">
   <g id="line2d_10">
    <path d="M 127.872721 198.718486 
L 207.327063 299.628836 
" style="fill:none;stroke:#000000;stroke-linecap:square;stroke-width:0.8;"/>
   </g>
   <g id="text_10">
    <!-- Global Warming Potential -->
    <g transform="translate(102.738049 223.00392)rotate(-308.216031)scale(0.1 -0.1)">
     <defs>
      <path d="M 59.515625 10.40625 
L 59.515625 29.984375 
L 43.40625 29.984375 
L 43.40625 38.09375 
L 69.28125 38.09375 
L 69.28125 6.78125 
Q 63.578125 2.734375 56.6875 0.65625 
Q 49.8125 -1.421875 42 -1.421875 
Q 24.90625 -1.421875 15.25 8.5625 
Q 5.609375 18.5625 5.609375 36.375 
Q 5.609375 54.25 15.25 64.234375 
Q 24.90625 74.21875 42 74.21875 
Q 49.125 74.21875 55.546875 72.453125 
Q 61.96875 70.703125 67.390625 67.28125 
L 67.390625 56.78125 
Q 61.921875 61.421875 55.765625 63.765625 
Q 49.609375 66.109375 42.828125 66.109375 
Q 29.4375 66.109375 22.71875 58.640625 
Q 16.015625 51.171875 16.015625 36.375 
Q 16.015625 21.625 22.71875 14.15625 
Q 29.4375 6.6875 42.828125 6.6875 
Q 48.046875 6.6875 52.140625 7.59375 
Q 56.25 8.5 59.515625 10.40625 
z
" id="DejaVuSans-71"/>
      <path d="M 48.6875 27.296875 
Q 48.6875 37.203125 44.609375 42.84375 
Q 40.53125 48.484375 33.40625 48.484375 
Q 26.265625 48.484375 22.1875 42.84375 
Q 18.109375 37.203125 18.109375 27.296875 
Q 18.109375 17.390625 22.1875 11.75 
Q 26.265625 6.109375 33.40625 6.109375 
Q 40.53125 6.109375 44.609375 11.75 
Q 48.6875 17.390625 48.6875 27.296875 
z
M 18.109375 46.390625 
Q 20.953125 51.265625 25.265625 53.625 
Q 29.59375 56 35.59375 56 
Q 45.5625 56 51.78125 48.09375 
Q 58.015625 40.1875 58.015625 27.296875 
Q 58.015625 14.40625 51.78125 6.484375 
Q 45.5625 -1.421875 35.59375 -1.421875 
Q 29.59375 -1.421875 25.265625 0.953125 
Q 20.953125 3.328125 18.109375 8.203125 
L 18.109375 0 
L 9.078125 0 
L 9.078125 75.984375 
L 18.109375 75.984375 
z
" id="DejaVuSans-98"/>
      <path d="M 34.28125 27.484375 
Q 23.390625 27.484375 19.1875 25 
Q 14.984375 22.515625 14.984375 16.5 
Q 14.984375 11.71875 18.140625 8.90625 
Q 21.296875 6.109375 26.703125 6.109375 
Q 34.1875 6.109375 38.703125 11.40625 
Q 43.21875 16.703125 43.21875 25.484375 
L 43.21875 27.484375 
z
M 52.203125 31.203125 
L 52.203125 0 
L 43.21875 0 
L 43.21875 8.296875 
Q 40.140625 3.328125 35.546875 0.953125 
Q 30.953125 -1.421875 24.3125 -1.421875 
Q 15.921875 -1.421875 10.953125 3.296875 
Q 6 8.015625 6 15.921875 
Q 6 25.140625 12.171875 29.828125 
Q 18.359375 34.515625 30.609375 34.515625 
L 43.21875 34.515625 
L 43.21875 35.40625 
Q 43.21875 41.609375 39.140625 45 
Q 35.0625 48.390625 27.6875 48.390625 
Q 23 48.390625 18.546875 47.265625 
Q 14.109375 46.140625 10.015625 43.890625 
L 10.015625 52.203125 
Q 14.9375 54.109375 19.578125 55.046875 
Q 24.21875 56 28.609375 56 
Q 40.484375 56 46.34375 49.84375 
Q 52.203125 43.703125 52.203125 31.203125 
z
" id="DejaVuSans-97"/>
      <path d="M 3.328125 72.90625 
L 13.28125 72.90625 
L 28.609375 11.28125 
L 43.890625 72.90625 
L 54.984375 72.90625 
L 70.3125 11.28125 
L 85.59375 72.90625 
L 95.609375 72.90625 
L 77.296875 0 
L 64.890625 0 
L 49.515625 63.28125 
L 33.984375 0 
L 21.578125 0 
z
" id="DejaVuSans-87"/>
      <path d="M 52 44.1875 
Q 55.375 50.25 60.0625 53.125 
Q 64.75 56 71.09375 56 
Q 79.640625 56 84.28125 50.015625 
Q 88.921875 44.046875 88.921875 33.015625 
L 88.921875 0 
L 79.890625 0 
L 79.890625 32.71875 
Q 79.890625 40.578125 77.09375 44.375 
Q 74.3125 48.1875 68.609375 48.1875 
Q 61.625 48.1875 57.5625 43.546875 
Q 53.515625 38.921875 53.515625 30.90625 
L 53.515625 0 
L 44.484375 0 
L 44.484375 32.71875 
Q 44.484375 40.625 41.703125 44.40625 
Q 38.921875 48.1875 33.109375 48.1875 
Q 26.21875 48.1875 22.15625 43.53125 
Q 18.109375 38.875 18.109375 30.90625 
L 18.109375 0 
L 9.078125 0 
L 9.078125 54.6875 
L 18.109375 54.6875 
L 18.109375 46.1875 
Q 21.1875 51.21875 25.484375 53.609375 
Q 29.78125 56 35.6875 56 
Q 41.65625 56 45.828125 52.96875 
Q 50 49.953125 52 44.1875 
z
" id="DejaVuSans-109"/>
      <path d="M 54.890625 33.015625 
L 54.890625 0 
L 45.90625 0 
L 45.90625 32.71875 
Q 45.90625 40.484375 42.875 44.328125 
Q 39.84375 48.1875 33.796875 48.1875 
Q 26.515625 48.1875 22.3125 43.546875 
Q 18.109375 38.921875 18.109375 30.90625 
L 18.109375 0 
L 9.078125 0 
L 9.078125 54.6875 
L 18.109375 54.6875 
L 18.109375 46.1875 
Q 21.34375 51.125 25.703125 53.5625 
Q 30.078125 56 35.796875 56 
Q 45.21875 56 50.046875 50.171875 
Q 54.890625 44.34375 54.890625 33.015625 
z
" id="DejaVuSans-110"/>
      <path d="M 45.40625 27.984375 
Q 45.40625 37.75 41.375 43.109375 
Q 37.359375 48.484375 30.078125 48.484375 
Q 22.859375 48.484375 18.828125 43.109375 
Q 14.796875 37.75 14.796875 27.984375 
Q 14.796875 18.265625 18.828125 12.890625 
Q 22.859375 7.515625 30.078125 7.515625 
Q 37.359375 7.515625 41.375 12.890625 
Q 45.40625 18.265625 45.40625 27.984375 
z
M 54.390625 6.78125 
Q 54.390625 -7.171875 48.1875 -13.984375 
Q 42 -20.796875 29.203125 -20.796875 
Q 24.46875 -20.796875 20.265625 -20.09375 
Q 16.0625 -19.390625 12.109375 -17.921875 
L 12.109375 -9.1875 
Q 16.0625 -11.328125 19.921875 -12.34375 
Q 23.78125 -13.375 27.78125 -13.375 
Q 36.625 -13.375 41.015625 -8.765625 
Q 45.40625 -4.15625 45.40625 5.171875 
L 45.40625 9.625 
Q 42.625 4.78125 38.28125 2.390625 
Q 33.9375 0 27.875 0 
Q 17.828125 0 11.671875 7.65625 
Q 5.515625 15.328125 5.515625 27.984375 
Q 5.515625 40.671875 11.671875 48.328125 
Q 17.828125 56 27.875 56 
Q 33.9375 56 38.28125 53.609375 
Q 42.625 51.21875 45.40625 46.390625 
L 45.40625 54.6875 
L 54.390625 54.6875 
z
" id="DejaVuSans-103"/>
      <path d="M 19.671875 64.796875 
L 19.671875 37.40625 
L 32.078125 37.40625 
Q 38.96875 37.40625 42.71875 40.96875 
Q 46.484375 44.53125 46.484375 51.125 
Q 46.484375 57.671875 42.71875 61.234375 
Q 38.96875 64.796875 32.078125 64.796875 
z
M 9.8125 72.90625 
L 32.078125 72.90625 
Q 44.34375 72.90625 50.609375 67.359375 
Q 56.890625 61.8125 56.890625 51.125 
Q 56.890625 40.328125 50.609375 34.8125 
Q 44.34375 29.296875 32.078125 29.296875 
L 19.671875 29.296875 
L 19.671875 0 
L 9.8125 0 
z
" id="DejaVuSans-80"/>
     </defs>
     <use xlink:href="#DejaVuSans-71"/>
     <use x="77.490234" xlink:href="#DejaVuSans-108"/>
     <use x="105.273438" xlink:href="#DejaVuSans-111"/>
     <use x="166.455078" xlink:href="#DejaVuSans-98"/>
     <use x="229.931641" xlink:href="#DejaVuSans-97"/>
     <use x="291.210938" xlink:href="#DejaVuSans-108"/>
     <use x="318.994141" xlink:href="#DejaVuSans-32"/>
     <use x="350.78125" xlink:href="#DejaVuSans-87"/>
     <use x="443.283203" xlink:href="#DejaVuSans-97"/>
     <use x="504.5625" xlink:href="#DejaVuSans-114"/>
     <use x="543.925781" xlink:href="#DejaVuSans-109"/>
     <use x="641.337891" xlink:href="#DejaVuSans-105"/>
     <use x="669.121094" xlink:href="#DejaVuSans-110"/>
     <use x="732.5" xlink:href="#DejaVuSans-103"/>
     <use x="795.976562" xlink:href="#DejaVuSans-32"/>
     <use x="827.763672" xlink:href="#DejaVuSans-80"/>
     <use x="884.441406" xlink:href="#DejaVuSans-111"/>
     <use x="945.623047" xlink:href="#DejaVuSans-116"/>
     <use x="984.832031" xlink:href="#DejaVuSans-101"/>
     <use x="1046.355469" xlink:href="#DejaVuSans-110"/>
     <use x="1109.734375" xlink:href="#DejaVuSans-116"/>
     <use x="1148.943359" xlink:href="#DejaVuSans-105"/>
     <use x="1176.726562" xlink:href="#DejaVuSans-97"/>
     <use x="1238.005859" xlink:href="#DejaVuSans-108"/>
    </g>
    <!--  (kgCO2eq/house-yr) -->
    <g transform="translate(100.977005 238.868357)rotate(-308.216031)scale(0.1 -0.1)">
     <defs>
      <path d="M 9.078125 75.984375 
L 18.109375 75.984375 
L 18.109375 31.109375 
L 44.921875 54.6875 
L 56.390625 54.6875 
L 27.390625 29.109375 
L 57.625 0 
L 45.90625 0 
L 18.109375 26.703125 
L 18.109375 0 
L 9.078125 0 
z
" id="DejaVuSans-107"/>
      <path d="M 39.40625 66.21875 
Q 28.65625 66.21875 22.328125 58.203125 
Q 16.015625 50.203125 16.015625 36.375 
Q 16.015625 22.609375 22.328125 14.59375 
Q 28.65625 6.59375 39.40625 6.59375 
Q 50.140625 6.59375 56.421875 14.59375 
Q 62.703125 22.609375 62.703125 36.375 
Q 62.703125 50.203125 56.421875 58.203125 
Q 50.140625 66.21875 39.40625 66.21875 
z
M 39.40625 74.21875 
Q 54.734375 74.21875 63.90625 63.9375 
Q 73.09375 53.65625 73.09375 36.375 
Q 73.09375 19.140625 63.90625 8.859375 
Q 54.734375 -1.421875 39.40625 -1.421875 
Q 24.03125 -1.421875 14.8125 8.828125 
Q 5.609375 19.09375 5.609375 36.375 
Q 5.609375 53.65625 14.8125 63.9375 
Q 24.03125 74.21875 39.40625 74.21875 
z
" id="DejaVuSans-79"/>
      <path d="M 14.796875 27.296875 
Q 14.796875 17.390625 18.875 11.75 
Q 22.953125 6.109375 30.078125 6.109375 
Q 37.203125 6.109375 41.296875 11.75 
Q 45.40625 17.390625 45.40625 27.296875 
Q 45.40625 37.203125 41.296875 42.84375 
Q 37.203125 48.484375 30.078125 48.484375 
Q 22.953125 48.484375 18.875 42.84375 
Q 14.796875 37.203125 14.796875 27.296875 
z
M 45.40625 8.203125 
Q 42.578125 3.328125 38.25 0.953125 
Q 33.9375 -1.421875 27.875 -1.421875 
Q 17.96875 -1.421875 11.734375 6.484375 
Q 5.515625 14.40625 5.515625 27.296875 
Q 5.515625 40.1875 11.734375 48.09375 
Q 17.96875 56 27.875 56 
Q 33.9375 56 38.25 53.625 
Q 42.578125 51.265625 45.40625 46.390625 
L 45.40625 54.6875 
L 54.390625 54.6875 
L 54.390625 -20.796875 
L 45.40625 -20.796875 
z
" id="DejaVuSans-113"/>
     </defs>
     <use xlink:href="#DejaVuSans-32"/>
     <use x="31.787109" xlink:href="#DejaVuSans-40"/>
     <use x="70.800781" xlink:href="#DejaVuSans-107"/>
     <use x="128.710938" xlink:href="#DejaVuSans-103"/>
     <use x="192.1875" xlink:href="#DejaVuSans-67"/>
     <use x="262.011719" xlink:href="#DejaVuSans-79"/>
     <use x="340.722656" xlink:href="#DejaVuSans-50"/>
     <use x="404.345703" xlink:href="#DejaVuSans-101"/>
     <use x="465.869141" xlink:href="#DejaVuSans-113"/>
     <use x="529.345703" xlink:href="#DejaVuSans-47"/>
     <use x="563.037109" xlink:href="#DejaVuSans-104"/>
     <use x="626.416016" xlink:href="#DejaVuSans-111"/>
     <use x="687.597656" xlink:href="#DejaVuSans-117"/>
     <use x="750.976562" xlink:href="#DejaVuSans-115"/>
     <use x="803.076172" xlink:href="#DejaVuSans-101"/>
     <use x="864.599609" xlink:href="#DejaVuSans-45"/>
     <use x="898.933594" xlink:href="#DejaVuSans-121"/>
     <use x="958.113281" xlink:href="#DejaVuSans-114"/>
     <use x="999.226562" xlink:href="#DejaVuSans-41"/>
    </g>
   </g>
   <g id="Line3DCollection_2">
    <path d="M 283.429759 63.620011 
L 281.106222 160.532272 
L 139.388456 213.343952 
" style="fill:none;stroke:#b0b0b0;stroke-width:0.8;"/>
    <path d="M 296.52571 76.389545 
L 293.472254 173.67979 
L 150.679901 227.684562 
" style="fill:none;stroke:#b0b0b0;stroke-width:0.8;"/>
    <path d="M 309.929374 89.459124 
L 306.113046 187.119432 
L 162.233561 242.358195 
" style="fill:none;stroke:#b0b0b0;stroke-width:0.8;"/>
    <path d="M 323.651726 102.839447 
L 319.037859 200.861044 
L 174.058676 257.376587 
" style="fill:none;stroke:#b0b0b0;stroke-width:0.8;"/>
    <path d="M 337.704268 116.541729 
L 332.256374 214.914918 
L 186.164927 272.752034 
" style="fill:none;stroke:#b0b0b0;stroke-width:0.8;"/>
    <path d="M 352.099064 130.577735 
L 345.778717 229.291821 
L 198.56246 288.497421 
" style="fill:none;stroke:#b0b0b0;stroke-width:0.8;"/>
   </g>
   <g id="xtick_9">
    <g id="line2d_11">
     <path d="M 140.571818 212.902968 
L 137.019223 214.226856 
" style="fill:none;stroke:#000000;stroke-linecap:square;stroke-width:0.8;"/>
    </g>
    <g id="text_11">
     <!-- 4 -->
     <g transform="translate(124.403339 233.211936)scale(0.1 -0.1)">
      <use xlink:href="#DejaVuSans-52"/>
     </g>
    </g>
   </g>
   <g id="xtick_10">
    <g id="line2d_12">
     <path d="M 151.87281 227.233398 
L 148.291527 228.587857 
" style="fill:none;stroke:#000000;stroke-linecap:square;stroke-width:0.8;"/>
    </g>
    <g id="text_12">
     <!-- 6 -->
     <g transform="translate(135.548623 247.679514)scale(0.1 -0.1)">
      <defs>
       <path d="M 33.015625 40.375 
Q 26.375 40.375 22.484375 35.828125 
Q 18.609375 31.296875 18.609375 23.390625 
Q 18.609375 15.53125 22.484375 10.953125 
Q 26.375 6.390625 33.015625 6.390625 
Q 39.65625 6.390625 43.53125 10.953125 
Q 47.40625 15.53125 47.40625 23.390625 
Q 47.40625 31.296875 43.53125 35.828125 
Q 39.65625 40.375 33.015625 40.375 
z
M 52.59375 71.296875 
L 52.59375 62.3125 
Q 48.875 64.0625 45.09375 64.984375 
Q 41.3125 65.921875 37.59375 65.921875 
Q 27.828125 65.921875 22.671875 59.328125 
Q 17.53125 52.734375 16.796875 39.40625 
Q 19.671875 43.65625 24.015625 45.921875 
Q 28.375 48.1875 33.59375 48.1875 
Q 44.578125 48.1875 50.953125 41.515625 
Q 57.328125 34.859375 57.328125 23.390625 
Q 57.328125 12.15625 50.6875 5.359375 
Q 44.046875 -1.421875 33.015625 -1.421875 
Q 20.359375 -1.421875 13.671875 8.265625 
Q 6.984375 17.96875 6.984375 36.375 
Q 6.984375 53.65625 15.1875 63.9375 
Q 23.390625 74.21875 37.203125 74.21875 
Q 40.921875 74.21875 44.703125 73.484375 
Q 48.484375 72.75 52.59375 71.296875 
z
" id="DejaVuSans-54"/>
      </defs>
      <use xlink:href="#DejaVuSans-54"/>
     </g>
    </g>
   </g>
   <g id="xtick_11">
    <g id="line2d_13">
     <path d="M 163.436143 241.896495 
L 159.825788 243.282596 
" style="fill:none;stroke:#000000;stroke-linecap:square;stroke-width:0.8;"/>
    </g>
    <g id="text_13">
     <!-- 8 -->
     <g transform="translate(146.952476 262.482739)scale(0.1 -0.1)">
      <defs>
       <path d="M 31.78125 34.625 
Q 24.75 34.625 20.71875 30.859375 
Q 16.703125 27.09375 16.703125 20.515625 
Q 16.703125 13.921875 20.71875 10.15625 
Q 24.75 6.390625 31.78125 6.390625 
Q 38.8125 6.390625 42.859375 10.171875 
Q 46.921875 13.96875 46.921875 20.515625 
Q 46.921875 27.09375 42.890625 30.859375 
Q 38.875 34.625 31.78125 34.625 
z
M 21.921875 38.8125 
Q 15.578125 40.375 12.03125 44.71875 
Q 8.5 49.078125 8.5 55.328125 
Q 8.5 64.0625 14.71875 69.140625 
Q 20.953125 74.21875 31.78125 74.21875 
Q 42.671875 74.21875 48.875 69.140625 
Q 55.078125 64.0625 55.078125 55.328125 
Q 55.078125 49.078125 51.53125 44.71875 
Q 48 40.375 41.703125 38.8125 
Q 48.828125 37.15625 52.796875 32.3125 
Q 56.78125 27.484375 56.78125 20.515625 
Q 56.78125 9.90625 50.3125 4.234375 
Q 43.84375 -1.421875 31.78125 -1.421875 
Q 19.734375 -1.421875 13.25 4.234375 
Q 6.78125 9.90625 6.78125 20.515625 
Q 6.78125 27.484375 10.78125 32.3125 
Q 14.796875 37.15625 21.921875 38.8125 
z
M 18.3125 54.390625 
Q 18.3125 48.734375 21.84375 45.5625 
Q 25.390625 42.390625 31.78125 42.390625 
Q 38.140625 42.390625 41.71875 45.5625 
Q 45.3125 48.734375 45.3125 54.390625 
Q 45.3125 60.0625 41.71875 63.234375 
Q 38.140625 66.40625 31.78125 66.40625 
Q 25.390625 66.40625 21.84375 63.234375 
Q 18.3125 60.0625 18.3125 54.390625 
z
" id="DejaVuSans-56"/>
      </defs>
      <use xlink:href="#DejaVuSans-56"/>
     </g>
    </g>
   </g>
   <g id="xtick_12">
    <g id="line2d_14">
     <path d="M 175.271059 256.903978 
L 171.631248 258.322843 
" style="fill:none;stroke:#000000;stroke-linecap:square;stroke-width:0.8;"/>
    </g>
    <g id="text_14">
     <!-- 10 -->
     <g transform="translate(155.442753 277.633426)scale(0.1 -0.1)">
      <use xlink:href="#DejaVuSans-49"/>
      <use x="63.623047" xlink:href="#DejaVuSans-48"/>
     </g>
    </g>
   </g>
   <g id="xtick_13">
    <g id="line2d_15">
     <path d="M 187.387241 272.268124 
L 183.717584 273.720928 
" style="fill:none;stroke:#000000;stroke-linecap:square;stroke-width:0.8;"/>
    </g>
    <g id="text_15">
     <!-- 12 -->
     <g transform="translate(167.391489 293.143957)scale(0.1 -0.1)">
      <use xlink:href="#DejaVuSans-49"/>
      <use x="63.623047" xlink:href="#DejaVuSans-50"/>
     </g>
    </g>
   </g>
   <g id="xtick_14">
    <g id="line2d_16">
     <path d="M 199.794834 288.0018 
L 196.094941 289.489777 
" style="fill:none;stroke:#000000;stroke-linecap:square;stroke-width:0.8;"/>
    </g>
    <g id="text_16">
     <!-- 14 -->
     <g transform="translate(179.627428 309.027304)scale(0.1 -0.1)">
      <use xlink:href="#DejaVuSans-49"/>
      <use x="63.623047" xlink:href="#DejaVuSans-52"/>
     </g>
    </g>
   </g>
  </g>
  <g id="axis3d_3">
   <g id="line2d_17">
    <path d="M 127.872721 198.718486 
L 121.373509 100.752081 
" style="fill:none;stroke:#000000;stroke-linecap:square;stroke-width:0.8;"/>
   </g>
   <g id="text_17">
    <!-- Circularity -->
    <g transform="translate(85.276686 118.438124)rotate(-273.795511)scale(0.1 -0.1)">
     <use xlink:href="#DejaVuSans-67"/>
     <use x="69.824219" xlink:href="#DejaVuSans-105"/>
     <use x="97.607422" xlink:href="#DejaVuSans-114"/>
     <use x="136.470703" xlink:href="#DejaVuSans-99"/>
     <use x="191.451172" xlink:href="#DejaVuSans-117"/>
     <use x="254.830078" xlink:href="#DejaVuSans-108"/>
     <use x="282.613281" xlink:href="#DejaVuSans-97"/>
     <use x="343.892578" xlink:href="#DejaVuSans-114"/>
     <use x="385.005859" xlink:href="#DejaVuSans-105"/>
     <use x="412.789062" xlink:href="#DejaVuSans-116"/>
     <use x="451.998047" xlink:href="#DejaVuSans-121"/>
    </g>
    <!--  (Economic Perspective) -->
    <g transform="translate(71.807684 84.574189)rotate(-273.795511)scale(0.1 -0.1)">
     <defs>
      <path d="M 9.8125 72.90625 
L 55.90625 72.90625 
L 55.90625 64.59375 
L 19.671875 64.59375 
L 19.671875 43.015625 
L 54.390625 43.015625 
L 54.390625 34.71875 
L 19.671875 34.71875 
L 19.671875 8.296875 
L 56.78125 8.296875 
L 56.78125 0 
L 9.8125 0 
z
" id="DejaVuSans-69"/>
      <path d="M 18.109375 8.203125 
L 18.109375 -20.796875 
L 9.078125 -20.796875 
L 9.078125 54.6875 
L 18.109375 54.6875 
L 18.109375 46.390625 
Q 20.953125 51.265625 25.265625 53.625 
Q 29.59375 56 35.59375 56 
Q 45.5625 56 51.78125 48.09375 
Q 58.015625 40.1875 58.015625 27.296875 
Q 58.015625 14.40625 51.78125 6.484375 
Q 45.5625 -1.421875 35.59375 -1.421875 
Q 29.59375 -1.421875 25.265625 0.953125 
Q 20.953125 3.328125 18.109375 8.203125 
z
M 48.6875 27.296875 
Q 48.6875 37.203125 44.609375 42.84375 
Q 40.53125 48.484375 33.40625 48.484375 
Q 26.265625 48.484375 22.1875 42.84375 
Q 18.109375 37.203125 18.109375 27.296875 
Q 18.109375 17.390625 22.1875 11.75 
Q 26.265625 6.109375 33.40625 6.109375 
Q 40.53125 6.109375 44.609375 11.75 
Q 48.6875 17.390625 48.6875 27.296875 
z
" id="DejaVuSans-112"/>
      <path d="M 2.984375 54.6875 
L 12.5 54.6875 
L 29.59375 8.796875 
L 46.6875 54.6875 
L 56.203125 54.6875 
L 35.6875 0 
L 23.484375 0 
z
" id="DejaVuSans-118"/>
     </defs>
     <use xlink:href="#DejaVuSans-32"/>
     <use x="31.787109" xlink:href="#DejaVuSans-40"/>
     <use x="70.800781" xlink:href="#DejaVuSans-69"/>
     <use x="133.984375" xlink:href="#DejaVuSans-99"/>
     <use x="188.964844" xlink:href="#DejaVuSans-111"/>
     <use x="250.146484" xlink:href="#DejaVuSans-110"/>
     <use x="313.525391" xlink:href="#DejaVuSans-111"/>
     <use x="374.707031" xlink:href="#DejaVuSans-109"/>
     <use x="472.119141" xlink:href="#DejaVuSans-105"/>
     <use x="499.902344" xlink:href="#DejaVuSans-99"/>
     <use x="554.882812" xlink:href="#DejaVuSans-32"/>
     <use x="586.669922" xlink:href="#DejaVuSans-80"/>
     <use x="643.347656" xlink:href="#DejaVuSans-101"/>
     <use x="704.871094" xlink:href="#DejaVuSans-114"/>
     <use x="745.984375" xlink:href="#DejaVuSans-115"/>
     <use x="798.083984" xlink:href="#DejaVuSans-112"/>
     <use x="861.560547" xlink:href="#DejaVuSans-101"/>
     <use x="923.083984" xlink:href="#DejaVuSans-99"/>
     <use x="978.064453" xlink:href="#DejaVuSans-116"/>
     <use x="1017.273438" xlink:href="#DejaVuSans-105"/>
     <use x="1045.056641" xlink:href="#DejaVuSans-118"/>
     <use x="1104.236328" xlink:href="#DejaVuSans-101"/>
     <use x="1165.759766" xlink:href="#DejaVuSans-41"/>
    </g>
   </g>
   <g id="Line3DCollection_3">
    <path d="M 127.480471 192.805863 
L 268.578677 141.272432 
L 355.748455 233.485715 
" style="fill:none;stroke:#b0b0b0;stroke-width:0.8;"/>
    <path d="M 126.594039 179.444161 
L 268.796621 128.085626 
L 356.694793 220.009979 
" style="fill:none;stroke:#b0b0b0;stroke-width:0.8;"/>
    <path d="M 125.693499 165.869796 
L 269.017885 114.697875 
L 357.6567 206.312546 
" style="fill:none;stroke:#b0b0b0;stroke-width:0.8;"/>
    <path d="M 124.77851 152.077648 
L 269.242547 101.10455 
L 358.634563 192.387902 
" style="fill:none;stroke:#b0b0b0;stroke-width:0.8;"/>
    <path d="M 123.848724 138.062436 
L 269.470685 87.300881 
L 359.628783 178.230345 
" style="fill:none;stroke:#b0b0b0;stroke-width:0.8;"/>
    <path d="M 122.903777 123.818702 
L 269.702381 73.281947 
L 360.639772 163.833982 
" style="fill:none;stroke:#b0b0b0;stroke-width:0.8;"/>
    <path d="M 121.943296 109.340812 
L 269.937719 59.042673 
L 361.66796 149.19272 
" style="fill:none;stroke:#b0b0b0;stroke-width:0.8;"/>
   </g>
   <g id="xtick_15">
    <g id="line2d_18">
     <path d="M 128.658252 192.3757 
L 125.122431 193.667092 
" style="fill:none;stroke:#000000;stroke-linecap:square;stroke-width:0.8;"/>
    </g>
    <g id="text_18">
     <!-- 0.0 -->
     <g transform="translate(101.244425 197.145805)scale(0.1 -0.1)">
      <use xlink:href="#DejaVuSans-48"/>
      <use x="63.623047" xlink:href="#DejaVuSans-46"/>
      <use x="95.410156" xlink:href="#DejaVuSans-48"/>
     </g>
    </g>
   </g>
   <g id="xtick_16">
    <g id="line2d_19">
     <path d="M 127.781428 179.015318 
L 124.216743 180.302756 
" style="fill:none;stroke:#000000;stroke-linecap:square;stroke-width:0.8;"/>
    </g>
    <g id="text_19">
     <!-- 0.1 -->
     <g transform="translate(100.216389 183.794155)scale(0.1 -0.1)">
      <use xlink:href="#DejaVuSans-48"/>
      <use x="63.623047" xlink:href="#DejaVuSans-46"/>
      <use x="95.410156" xlink:href="#DejaVuSans-49"/>
     </g>
    </g>
   </g>
   <g id="xtick_17">
    <g id="line2d_20">
     <path d="M 126.890654 165.442368 
L 123.29663 166.725563 
" style="fill:none;stroke:#000000;stroke-linecap:square;stroke-width:0.8;"/>
    </g>
    <g id="text_20">
     <!-- 0.2 -->
     <g transform="translate(99.172035 170.230574)scale(0.1 -0.1)">
      <use xlink:href="#DejaVuSans-48"/>
      <use x="63.623047" xlink:href="#DejaVuSans-46"/>
      <use x="95.410156" xlink:href="#DejaVuSans-50"/>
     </g>
    </g>
   </g>
   <g id="xtick_18">
    <g id="line2d_21">
     <path d="M 125.985594 151.651737 
L 122.361744 152.930387 
" style="fill:none;stroke:#000000;stroke-linecap:square;stroke-width:0.8;"/>
    </g>
    <g id="text_21">
     <!-- 0.3 -->
     <g transform="translate(98.110972 156.449974)scale(0.1 -0.1)">
      <use xlink:href="#DejaVuSans-48"/>
      <use x="63.623047" xlink:href="#DejaVuSans-46"/>
      <use x="95.410156" xlink:href="#DejaVuSans-51"/>
     </g>
    </g>
   </g>
   <g id="xtick_19">
    <g id="line2d_22">
     <path d="M 125.065901 137.638146 
L 121.411727 138.911935 
" style="fill:none;stroke:#000000;stroke-linecap:square;stroke-width:0.8;"/>
    </g>
    <g id="text_22">
     <!-- 0.4 -->
     <g transform="translate(97.032795 142.447106)scale(0.1 -0.1)">
      <use xlink:href="#DejaVuSans-48"/>
      <use x="63.623047" xlink:href="#DejaVuSans-46"/>
      <use x="95.410156" xlink:href="#DejaVuSans-52"/>
     </g>
    </g>
   </g>
   <g id="xtick_20">
    <g id="line2d_23">
     <path d="M 124.131218 123.396144 
L 120.446209 124.664742 
" style="fill:none;stroke:#000000;stroke-linecap:square;stroke-width:0.8;"/>
    </g>
    <g id="text_23">
     <!-- 0.5 -->
     <g transform="translate(95.937086 128.216549)scale(0.1 -0.1)">
      <use xlink:href="#DejaVuSans-48"/>
      <use x="63.623047" xlink:href="#DejaVuSans-46"/>
      <use x="95.410156" xlink:href="#DejaVuSans-53"/>
     </g>
    </g>
   </g>
   <g id="xtick_21">
    <g id="line2d_24">
     <path d="M 123.181175 108.9201 
L 119.464806 110.183165 
" style="fill:none;stroke:#000000;stroke-linecap:square;stroke-width:0.8;"/>
    </g>
    <g id="text_24">
     <!-- 0.6 -->
     <g transform="translate(94.823415 113.752702)scale(0.1 -0.1)">
      <use xlink:href="#DejaVuSans-48"/>
      <use x="63.623047" xlink:href="#DejaVuSans-46"/>
      <use x="95.410156" xlink:href="#DejaVuSans-54"/>
     </g>
    </g>
   </g>
  </g>
  <g id="axes_1">
   <g id="Poly3DCollection_1">
    <path clip-path="url(#p49c3e0981e)" d="M 262.951117 132.761623 
L 266.47007 150.705132 
L 266.233203 151.135851 
z
" style="fill:#0000e8;fill-opacity:0.5;"/>
    <path clip-path="url(#p49c3e0981e)" d="M 266.233203 151.135851 
L 265.247455 130.692884 
L 262.951117 132.761623 
z
" style="fill:#0000cd;fill-opacity:0.5;"/>
    <path clip-path="url(#p49c3e0981e)" d="M 262.951117 132.761623 
L 259.429671 108.74338 
L 266.47007 150.705132 
z
" style="fill:#0000e2;fill-opacity:0.5;"/>
    <path clip-path="url(#p49c3e0981e)" d="M 265.247455 130.692884 
L 254.929891 100.278489 
L 262.951117 132.761623 
z
" style="fill:#0000d0;fill-opacity:0.5;"/>
    <path clip-path="url(#p49c3e0981e)" d="M 262.951117 132.761623 
L 254.929891 100.278489 
L 254.58433 100.518667 
z
" style="fill:#0000bf;fill-opacity:0.5;"/>
    <path clip-path="url(#p49c3e0981e)" d="M 254.58433 100.518667 
L 259.429671 108.74338 
L 262.951117 132.761623 
z
" style="fill:#0000e3;fill-opacity:0.5;"/>
    <path clip-path="url(#p49c3e0981e)" d="M 258.382324 112.011827 
L 266.47007 150.705132 
L 259.429671 108.74338 
z
" style="fill:#0000de;fill-opacity:0.5;"/>
    <path clip-path="url(#p49c3e0981e)" d="M 254.58433 100.518667 
L 254.929891 100.278489 
L 254.892532 100.291603 
z
" style="fill:#0000c3;fill-opacity:0.5;"/>
    <path clip-path="url(#p49c3e0981e)" d="M 254.892532 100.291603 
L 254.875551 100.297564 
L 254.58433 100.518667 
z
" style="fill:#0000c3;fill-opacity:0.5;"/>
    <path clip-path="url(#p49c3e0981e)" d="M 254.58433 100.518667 
L 257.279592 114.274755 
L 259.429671 108.74338 
z
" style="fill:#0000ce;fill-opacity:0.5;"/>
    <path clip-path="url(#p49c3e0981e)" d="M 259.429671 108.74338 
L 257.279592 114.274755 
L 258.382324 112.011827 
z
" style="fill:#0000b5;fill-opacity:0.5;"/>
    <path clip-path="url(#p49c3e0981e)" d="M 254.58433 100.518667 
L 247.290187 135.342075 
L 257.279592 114.274755 
z
" style="fill:#0000c0;fill-opacity:0.5;"/>
    <path clip-path="url(#p49c3e0981e)" d="M 257.279592 114.274755 
L 247.290187 135.342075 
L 258.382324 112.011827 
z
" style="fill:#0000cf;fill-opacity:0.5;"/>
    <path clip-path="url(#p49c3e0981e)" d="M 246.422224 137.195659 
L 247.290187 135.342075 
L 254.58433 100.518667 
z
" style="fill:#0000bf;fill-opacity:0.5;"/>
    <path clip-path="url(#p49c3e0981e)" d="M 246.422224 137.195659 
L 254.58433 100.518667 
L 235.681711 160.509462 
z
" style="fill:#0000be;fill-opacity:0.5;"/>
    <path clip-path="url(#p49c3e0981e)" d="M 258.382324 112.011827 
L 247.290187 135.342075 
L 235.074096 161.83623 
z
" style="fill:#0000cd;fill-opacity:0.5;"/>
    <path clip-path="url(#p49c3e0981e)" d="M 235.681711 160.509462 
L 254.58433 100.518667 
L 235.074096 161.83623 
z
" style="fill:#0000be;fill-opacity:0.5;"/>
    <path clip-path="url(#p49c3e0981e)" d="M 247.290187 135.342075 
L 246.422224 137.195659 
L 235.074096 161.83623 
z
" style="fill:#0000d0;fill-opacity:0.5;"/>
    <path clip-path="url(#p49c3e0981e)" d="M 223.536798 187.21699 
L 235.074096 161.83623 
L 254.58433 100.518667 
z
" style="fill:#0000be;fill-opacity:0.5;"/>
    <path clip-path="url(#p49c3e0981e)" d="M 258.382324 112.011827 
L 235.074096 161.83623 
L 223.536798 187.21699 
z
" style="fill:#0000cd;fill-opacity:0.5;"/>
    <path clip-path="url(#p49c3e0981e)" d="M 235.074096 161.83623 
L 246.422224 137.195659 
L 235.681711 160.509462 
z
" style="fill:#0000d5;fill-opacity:0.5;"/>
    <path clip-path="url(#p49c3e0981e)" d="M 254.58433 100.518667 
L 223.20879 187.938366 
L 223.536798 187.21699 
z
" style="fill:#0000be;fill-opacity:0.5;"/>
    <path clip-path="url(#p49c3e0981e)" d="M 223.20879 187.938366 
L 254.58433 100.518667 
L 210.409923 216.265492 
z
" style="fill:#0000bd;fill-opacity:0.5;"/>
    <path clip-path="url(#p49c3e0981e)" d="M 223.536798 187.21699 
L 223.20879 187.938366 
L 210.409923 216.265492 
z
" style="fill:#0000d6;fill-opacity:0.5;"/>
   </g>
   <g id="Path3DCollection_1">
    <defs>
     <path d="M 0 0.866025 
C 0.229673 0.866025 0.449969 0.774776 0.612372 0.612372 
C 0.774776 0.449969 0.866025 0.229673 0.866025 -0 
C 0.866025 -0.229673 0.774776 -0.449969 0.612372 -0.612372 
C 0.449969 -0.774776 0.229673 -0.866025 0 -0.866025 
C -0.229673 -0.866025 -0.449969 -0.774776 -0.612372 -0.612372 
C -0.774776 -0.449969 -0.866025 -0.229673 -0.866025 0 
C -0.866025 0.229673 -0.774776 0.449969 -0.612372 0.612372 
C -0.449969 0.774776 -0.229673 0.866025 0 0.866025 
z
" id="C0_0_88b94dbb1e"/>
    </defs>
    <g clip-path="url(#p49c3e0981e)">
     <use style="fill-opacity:0.7;stroke:#000000;stroke-opacity:0.7;" x="266.233203" xlink:href="#C0_0_88b94dbb1e" y="151.135851"/>
    </g>
    <g clip-path="url(#p49c3e0981e)">
     <use style="fill-opacity:0.7;stroke:#000000;stroke-opacity:0.7;" x="266.47007" xlink:href="#C0_0_88b94dbb1e" y="150.705132"/>
    </g>
    <g clip-path="url(#p49c3e0981e)">
     <use style="fill-opacity:0.7;stroke:#000000;stroke-opacity:0.7;" x="266.47007" xlink:href="#C0_0_88b94dbb1e" y="150.705132"/>
    </g>
    <g clip-path="url(#p49c3e0981e)">
     <use style="fill-opacity:0.7;stroke:#000000;stroke-opacity:0.7;" x="265.247455" xlink:href="#C0_0_88b94dbb1e" y="130.692884"/>
    </g>
    <g clip-path="url(#p49c3e0981e)">
     <use style="fill-opacity:0.7;stroke:#000000;stroke-opacity:0.7;" x="262.951117" xlink:href="#C0_0_88b94dbb1e" y="132.761623"/>
    </g>
    <g clip-path="url(#p49c3e0981e)">
     <use style="fill-opacity:0.7;stroke:#000000;stroke-opacity:0.7;" x="254.929891" xlink:href="#C0_0_88b94dbb1e" y="100.278489"/>
    </g>
    <g clip-path="url(#p49c3e0981e)">
     <use style="fill-opacity:0.7;stroke:#000000;stroke-opacity:0.7;" x="254.892532" xlink:href="#C0_0_88b94dbb1e" y="100.291603"/>
    </g>
    <g clip-path="url(#p49c3e0981e)">
     <use style="fill-opacity:0.7;stroke:#000000;stroke-opacity:0.7;" x="254.892532" xlink:href="#C0_0_88b94dbb1e" y="100.291603"/>
    </g>
    <g clip-path="url(#p49c3e0981e)">
     <use style="fill-opacity:0.7;stroke:#000000;stroke-opacity:0.7;" x="254.875551" xlink:href="#C0_0_88b94dbb1e" y="100.297564"/>
    </g>
    <g clip-path="url(#p49c3e0981e)">
     <use style="fill-opacity:0.7;stroke:#000000;stroke-opacity:0.7;" x="254.58433" xlink:href="#C0_0_88b94dbb1e" y="100.518667"/>
    </g>
    <g clip-path="url(#p49c3e0981e)">
     <use style="fill-opacity:0.7;stroke:#000000;stroke-opacity:0.7;" x="259.429671" xlink:href="#C0_0_88b94dbb1e" y="108.74338"/>
    </g>
    <g clip-path="url(#p49c3e0981e)">
     <use style="fill-opacity:0.7;stroke:#000000;stroke-opacity:0.7;" x="258.382324" xlink:href="#C0_0_88b94dbb1e" y="112.011827"/>
    </g>
    <g clip-path="url(#p49c3e0981e)">
     <use style="fill-opacity:0.7;stroke:#000000;stroke-opacity:0.7;" x="258.382324" xlink:href="#C0_0_88b94dbb1e" y="112.011827"/>
    </g>
    <g clip-path="url(#p49c3e0981e)">
     <use style="fill-opacity:0.7;stroke:#000000;stroke-opacity:0.7;" x="258.382324" xlink:href="#C0_0_88b94dbb1e" y="112.011827"/>
    </g>
    <g clip-path="url(#p49c3e0981e)">
     <use style="fill-opacity:0.7;stroke:#000000;stroke-opacity:0.7;" x="258.382324" xlink:href="#C0_0_88b94dbb1e" y="112.011827"/>
    </g>
    <g clip-path="url(#p49c3e0981e)">
     <use style="fill-opacity:0.7;stroke:#000000;stroke-opacity:0.7;" x="258.382324" xlink:href="#C0_0_88b94dbb1e" y="112.011827"/>
    </g>
    <g clip-path="url(#p49c3e0981e)">
     <use style="fill-opacity:0.7;stroke:#000000;stroke-opacity:0.7;" x="257.279592" xlink:href="#C0_0_88b94dbb1e" y="114.274755"/>
    </g>
    <g clip-path="url(#p49c3e0981e)">
     <use style="fill-opacity:0.7;stroke:#000000;stroke-opacity:0.7;" x="257.279592" xlink:href="#C0_0_88b94dbb1e" y="114.274755"/>
    </g>
    <g clip-path="url(#p49c3e0981e)">
     <use style="fill-opacity:0.7;stroke:#000000;stroke-opacity:0.7;" x="257.279592" xlink:href="#C0_0_88b94dbb1e" y="114.274755"/>
    </g>
    <g clip-path="url(#p49c3e0981e)">
     <use style="fill-opacity:0.7;stroke:#000000;stroke-opacity:0.7;" x="257.279592" xlink:href="#C0_0_88b94dbb1e" y="114.274755"/>
    </g>
    <g clip-path="url(#p49c3e0981e)">
     <use style="fill-opacity:0.7;stroke:#000000;stroke-opacity:0.7;" x="247.290187" xlink:href="#C0_0_88b94dbb1e" y="135.342075"/>
    </g>
    <g clip-path="url(#p49c3e0981e)">
     <use style="fill-opacity:0.7;stroke:#000000;stroke-opacity:0.7;" x="247.290187" xlink:href="#C0_0_88b94dbb1e" y="135.342075"/>
    </g>
    <g clip-path="url(#p49c3e0981e)">
     <use style="fill-opacity:0.7;stroke:#000000;stroke-opacity:0.7;" x="246.422224" xlink:href="#C0_0_88b94dbb1e" y="137.195659"/>
    </g>
    <g clip-path="url(#p49c3e0981e)">
     <use style="fill-opacity:0.7;stroke:#000000;stroke-opacity:0.7;" x="246.422224" xlink:href="#C0_0_88b94dbb1e" y="137.195659"/>
    </g>
    <g clip-path="url(#p49c3e0981e)">
     <use style="fill-opacity:0.7;stroke:#000000;stroke-opacity:0.7;" x="246.422224" xlink:href="#C0_0_88b94dbb1e" y="137.195659"/>
    </g>
    <g clip-path="url(#p49c3e0981e)">
     <use style="fill-opacity:0.7;stroke:#000000;stroke-opacity:0.7;" x="235.681711" xlink:href="#C0_0_88b94dbb1e" y="160.509462"/>
    </g>
    <g clip-path="url(#p49c3e0981e)">
     <use style="fill-opacity:0.7;stroke:#000000;stroke-opacity:0.7;" x="235.681711" xlink:href="#C0_0_88b94dbb1e" y="160.509462"/>
    </g>
    <g clip-path="url(#p49c3e0981e)">
     <use style="fill-opacity:0.7;stroke:#000000;stroke-opacity:0.7;" x="235.074096" xlink:href="#C0_0_88b94dbb1e" y="161.83623"/>
    </g>
    <g clip-path="url(#p49c3e0981e)">
     <use style="fill-opacity:0.7;stroke:#000000;stroke-opacity:0.7;" x="223.536798" xlink:href="#C0_0_88b94dbb1e" y="187.21699"/>
    </g>
    <g clip-path="url(#p49c3e0981e)">
     <use style="fill-opacity:0.7;stroke:#000000;stroke-opacity:0.7;" x="223.536798" xlink:href="#C0_0_88b94dbb1e" y="187.21699"/>
    </g>
    <g clip-path="url(#p49c3e0981e)">
     <use style="fill-opacity:0.7;stroke:#000000;stroke-opacity:0.7;" x="223.20879" xlink:href="#C0_0_88b94dbb1e" y="187.938366"/>
    </g>
    <g clip-path="url(#p49c3e0981e)">
     <use style="fill-opacity:0.7;stroke:#000000;stroke-opacity:0.7;" x="210.409923" xlink:href="#C0_0_88b94dbb1e" y="216.265492"/>
    </g>
   </g>
   <g id="Poly3DCollection_2">
    <path clip-path="url(#p49c3e0981e)" d="M 243.686745 206.488976 
L 235.912254 186.021749 
L 243.734649 191.379503 
z
" style="fill:#e20000;fill-opacity:0.5;"/>
    <path clip-path="url(#p49c3e0981e)" d="M 243.686745 206.488976 
L 225.354026 169.240428 
L 235.912254 186.021749 
z
" style="fill:#eb0000;fill-opacity:0.5;"/>
    <path clip-path="url(#p49c3e0981e)" d="M 243.734649 191.379503 
L 244.158884 191.539824 
L 243.686745 206.488976 
z
" style="fill:#e10000;fill-opacity:0.5;"/>
    <path clip-path="url(#p49c3e0981e)" d="M 244.158884 191.539824 
L 245.784425 194.854784 
L 243.686745 206.488976 
z
" style="fill:#e40000;fill-opacity:0.5;"/>
    <path clip-path="url(#p49c3e0981e)" d="M 243.734649 191.379503 
L 235.912254 186.021749 
L 225.354026 169.240428 
z
" style="fill:#dc0000;fill-opacity:0.5;"/>
    <path clip-path="url(#p49c3e0981e)" d="M 243.686745 206.488976 
L 180.286474 157.770597 
L 225.354026 169.240428 
z
" style="fill:#ed0000;fill-opacity:0.5;"/>
    <path clip-path="url(#p49c3e0981e)" d="M 243.734649 191.379503 
L 233.190436 172.440932 
L 244.158884 191.539824 
z
" style="fill:#de0000;fill-opacity:0.5;"/>
    <path clip-path="url(#p49c3e0981e)" d="M 245.784425 194.854784 
L 244.158884 191.539824 
L 233.190436 172.440932 
z
" style="fill:#da0000;fill-opacity:0.5;"/>
    <path clip-path="url(#p49c3e0981e)" d="M 225.354026 169.240428 
L 233.190436 172.440932 
L 243.734649 191.379503 
z
" style="fill:#de0000;fill-opacity:0.5;"/>
    <path clip-path="url(#p49c3e0981e)" d="M 233.190436 172.440932 
L 225.354026 169.240428 
L 214.526788 156.422397 
z
" style="fill:#d90000;fill-opacity:0.5;"/>
    <path clip-path="url(#p49c3e0981e)" d="M 233.190436 172.440932 
L 222.371468 161.723907 
L 245.784425 194.854784 
z
" style="fill:#c90000;fill-opacity:0.5;"/>
    <path clip-path="url(#p49c3e0981e)" d="M 180.286474 157.770597 
L 214.526788 156.422397 
L 225.354026 169.240428 
z
" style="fill:#e80000;fill-opacity:0.5;"/>
    <path clip-path="url(#p49c3e0981e)" d="M 244.731892 177.326921 
L 245.784425 194.854784 
L 241.196664 175.782809 
z
" style="fill:#e00000;fill-opacity:0.5;"/>
    <path clip-path="url(#p49c3e0981e)" d="M 233.190436 172.440932 
L 214.526788 156.422397 
L 222.371468 161.723907 
z
" style="fill:#d70000;fill-opacity:0.5;"/>
    <path clip-path="url(#p49c3e0981e)" d="M 241.196664 175.782809 
L 245.784425 194.854784 
L 230.387976 170.811561 
z
" style="fill:#d80000;fill-opacity:0.5;"/>
    <path clip-path="url(#p49c3e0981e)" d="M 230.387976 170.811561 
L 245.784425 194.854784 
L 222.371468 161.723907 
z
" style="fill:#da0000;fill-opacity:0.5;"/>
    <path clip-path="url(#p49c3e0981e)" d="M 180.286474 157.770597 
L 203.680778 155.900202 
L 214.526788 156.422397 
z
" style="fill:#ce0000;fill-opacity:0.5;"/>
    <path clip-path="url(#p49c3e0981e)" d="M 192.851656 160.83174 
L 203.680778 155.900202 
L 180.286474 157.770597 
z
" style="fill:#c20000;fill-opacity:0.5;"/>
    <path clip-path="url(#p49c3e0981e)" d="M 214.799806 157.731332 
L 214.526788 156.422397 
L 203.680778 155.900202 
z
" style="fill:#cc0000;fill-opacity:0.5;"/>
    <path clip-path="url(#p49c3e0981e)" d="M 222.371468 161.723907 
L 214.526788 156.422397 
L 214.799806 157.731332 
z
" style="fill:#d10000;fill-opacity:0.5;"/>
    <path clip-path="url(#p49c3e0981e)" d="M 187.448174 152.586812 
L 192.851656 160.83174 
L 180.286474 157.770597 
z
" style="fill:#e20000;fill-opacity:0.5;"/>
    <path clip-path="url(#p49c3e0981e)" d="M 200.363877 157.798828 
L 203.680778 155.900202 
L 192.851656 160.83174 
z
" style="fill:#c60000;fill-opacity:0.5;"/>
    <path clip-path="url(#p49c3e0981e)" d="M 230.387976 170.811561 
L 244.731892 177.326921 
L 241.196664 175.782809 
z
" style="fill:#d10000;fill-opacity:0.5;"/>
    <path clip-path="url(#p49c3e0981e)" d="M 230.387976 170.811561 
L 222.371468 161.723907 
L 214.799806 157.731332 
z
" style="fill:#d00000;fill-opacity:0.5;"/>
    <path clip-path="url(#p49c3e0981e)" d="M 214.799806 157.731332 
L 203.680778 155.900202 
L 200.363877 157.798828 
z
" style="fill:#cb0000;fill-opacity:0.5;"/>
    <path clip-path="url(#p49c3e0981e)" d="M 180.286474 157.770597 
L 196.977409 158.567944 
L 187.448174 152.586812 
z
" style="fill:#840000;fill-opacity:0.5;"/>
    <path clip-path="url(#p49c3e0981e)" d="M 196.977409 158.567944 
L 192.851656 160.83174 
L 187.448174 152.586812 
z
" style="fill:#dd0000;fill-opacity:0.5;"/>
    <path clip-path="url(#p49c3e0981e)" d="M 220.614651 169.074008 
L 244.731892 177.326921 
L 230.387976 170.811561 
z
" style="fill:#cb0000;fill-opacity:0.5;"/>
    <path clip-path="url(#p49c3e0981e)" d="M 230.387976 170.811561 
L 214.799806 157.731332 
L 220.614651 169.074008 
z
" style="fill:#cb0000;fill-opacity:0.5;"/>
    <path clip-path="url(#p49c3e0981e)" d="M 192.851656 160.83174 
L 196.977409 158.567944 
L 200.363877 157.798828 
z
" style="fill:#c90000;fill-opacity:0.5;"/>
    <path clip-path="url(#p49c3e0981e)" d="M 220.614651 169.074008 
L 214.799806 157.731332 
L 200.363877 157.798828 
z
" style="fill:#c80000;fill-opacity:0.5;"/>
    <path clip-path="url(#p49c3e0981e)" d="M 220.614651 169.074008 
L 229.557174 172.113792 
L 244.731892 177.326921 
z
" style="fill:#d00000;fill-opacity:0.5;"/>
    <path clip-path="url(#p49c3e0981e)" d="M 239.495432 171.322928 
L 240.330781 173.882889 
L 244.731892 177.326921 
z
" style="fill:#d90000;fill-opacity:0.5;"/>
    <path clip-path="url(#p49c3e0981e)" d="M 244.731892 177.326921 
L 229.557174 172.113792 
L 239.495432 171.322928 
z
" style="fill:#cf0000;fill-opacity:0.5;"/>
    <path clip-path="url(#p49c3e0981e)" d="M 208.317193 166.406589 
L 220.614651 169.074008 
L 200.363877 157.798828 
z
" style="fill:#cc0000;fill-opacity:0.5;"/>
    <path clip-path="url(#p49c3e0981e)" d="M 200.363877 157.798828 
L 196.977409 158.567944 
L 206.668667 164.651105 
z
" style="fill:#c60000;fill-opacity:0.5;"/>
    <path clip-path="url(#p49c3e0981e)" d="M 200.363877 157.798828 
L 206.668667 164.651105 
L 208.317193 166.406589 
z
" style="fill:#d70000;fill-opacity:0.5;"/>
    <path clip-path="url(#p49c3e0981e)" d="M 240.330781 173.882889 
L 239.495432 171.322928 
L 239.071658 172.170971 
z
" style="fill:#c70000;fill-opacity:0.5;"/>
    <path clip-path="url(#p49c3e0981e)" d="M 239.071658 172.170971 
L 239.495432 171.322928 
L 229.557174 172.113792 
z
" style="fill:#c70000;fill-opacity:0.5;"/>
    <path clip-path="url(#p49c3e0981e)" d="M 196.977409 158.567944 
L 180.286474 157.770597 
L 220.276326 190.676552 
z
" style="fill:#b30000;fill-opacity:0.5;"/>
    <path clip-path="url(#p49c3e0981e)" d="M 229.557174 172.113792 
L 240.330781 173.882889 
L 239.071658 172.170971 
z
" style="fill:#c70000;fill-opacity:0.5;"/>
    <path clip-path="url(#p49c3e0981e)" d="M 216.520998 170.838821 
L 220.614651 169.074008 
L 208.317193 166.406589 
z
" style="fill:#ce0000;fill-opacity:0.5;"/>
    <path clip-path="url(#p49c3e0981e)" d="M 220.614651 169.074008 
L 216.520998 170.838821 
L 229.557174 172.113792 
z
" style="fill:#cc0000;fill-opacity:0.5;"/>
    <path clip-path="url(#p49c3e0981e)" d="M 206.668667 164.651105 
L 216.520998 170.838821 
L 208.317193 166.406589 
z
" style="fill:#d80000;fill-opacity:0.5;"/>
    <path clip-path="url(#p49c3e0981e)" d="M 216.520998 170.838821 
L 240.330781 173.882889 
L 229.557174 172.113792 
z
" style="fill:#cc0000;fill-opacity:0.5;"/>
    <path clip-path="url(#p49c3e0981e)" d="M 216.520998 170.838821 
L 233.14508 174.353078 
L 240.330781 173.882889 
z
" style="fill:#cc0000;fill-opacity:0.5;"/>
    <path clip-path="url(#p49c3e0981e)" d="M 233.904113 174.581323 
L 240.330781 173.882889 
L 233.14508 174.353078 
z
" style="fill:#cd0000;fill-opacity:0.5;"/>
    <path clip-path="url(#p49c3e0981e)" d="M 206.668667 164.651105 
L 196.977409 158.567944 
L 220.276326 190.676552 
z
" style="fill:#c30000;fill-opacity:0.5;"/>
    <path clip-path="url(#p49c3e0981e)" d="M 216.520998 170.838821 
L 206.668667 164.651105 
L 220.81615 185.02832 
z
" style="fill:#bc0000;fill-opacity:0.5;"/>
    <path clip-path="url(#p49c3e0981e)" d="M 233.14508 174.353078 
L 216.520998 170.838821 
L 222.537188 184.930008 
z
" style="fill:#b90000;fill-opacity:0.5;"/>
    <path clip-path="url(#p49c3e0981e)" d="M 233.904113 174.581323 
L 233.14508 174.353078 
L 225.886558 180.242695 
z
" style="fill:#c70000;fill-opacity:0.5;"/>
    <path clip-path="url(#p49c3e0981e)" d="M 224.489907 175.844659 
L 233.14508 174.353078 
L 222.537188 184.930008 
z
" style="fill:#d00000;fill-opacity:0.5;"/>
    <path clip-path="url(#p49c3e0981e)" d="M 240.330781 173.882889 
L 233.904113 174.581323 
L 220.276326 190.676552 
z
" style="fill:#d30000;fill-opacity:0.5;"/>
    <path clip-path="url(#p49c3e0981e)" d="M 222.537188 184.930008 
L 216.520998 170.838821 
L 220.81615 185.02832 
z
" style="fill:#d80000;fill-opacity:0.5;"/>
    <path clip-path="url(#p49c3e0981e)" d="M 225.886558 180.242695 
L 233.14508 174.353078 
L 224.489907 175.844659 
z
" style="fill:#c60000;fill-opacity:0.5;"/>
    <path clip-path="url(#p49c3e0981e)" d="M 222.537188 184.930008 
L 225.886558 180.242695 
L 224.489907 175.844659 
z
" style="fill:#850000;fill-opacity:0.5;"/>
    <path clip-path="url(#p49c3e0981e)" d="M 220.81615 185.02832 
L 225.886558 180.242695 
L 222.537188 184.930008 
z
" style="fill:#bf0000;fill-opacity:0.5;"/>
    <path clip-path="url(#p49c3e0981e)" d="M 220.276326 190.676552 
L 220.81615 185.02832 
L 206.668667 164.651105 
z
" style="fill:#cd0000;fill-opacity:0.5;"/>
    <path clip-path="url(#p49c3e0981e)" d="M 220.276326 190.676552 
L 233.904113 174.581323 
L 225.886558 180.242695 
z
" style="fill:#c50000;fill-opacity:0.5;"/>
    <path clip-path="url(#p49c3e0981e)" d="M 225.886558 180.242695 
L 220.81615 185.02832 
L 220.276326 190.676552 
z
" style="fill:#c10000;fill-opacity:0.5;"/>
   </g>
   <g id="Path3DCollection_2">
    <defs>
     <path d="M 0 0.866025 
C 0.229673 0.866025 0.449969 0.774776 0.612372 0.612372 
C 0.774776 0.449969 0.866025 0.229673 0.866025 -0 
C 0.866025 -0.229673 0.774776 -0.449969 0.612372 -0.612372 
C 0.449969 -0.774776 0.229673 -0.866025 0 -0.866025 
C -0.229673 -0.866025 -0.449969 -0.774776 -0.612372 -0.612372 
C -0.774776 -0.449969 -0.866025 -0.229673 -0.866025 0 
C -0.866025 0.229673 -0.774776 0.449969 -0.612372 0.612372 
C -0.449969 0.774776 -0.229673 0.866025 0 0.866025 
z
" id="C1_0_07a8d4fc83"/>
    </defs>
    <g clip-path="url(#p49c3e0981e)">
     <use style="fill-opacity:0.7;stroke:#000000;stroke-opacity:0.7;" x="243.686745" xlink:href="#C1_0_07a8d4fc83" y="206.488976"/>
    </g>
    <g clip-path="url(#p49c3e0981e)">
     <use style="fill-opacity:0.7;stroke:#000000;stroke-opacity:0.7;" x="235.912254" xlink:href="#C1_0_07a8d4fc83" y="186.021749"/>
    </g>
    <g clip-path="url(#p49c3e0981e)">
     <use style="fill-opacity:0.7;stroke:#000000;stroke-opacity:0.7;" x="243.734649" xlink:href="#C1_0_07a8d4fc83" y="191.379503"/>
    </g>
    <g clip-path="url(#p49c3e0981e)">
     <use style="fill-opacity:0.7;stroke:#000000;stroke-opacity:0.7;" x="244.158884" xlink:href="#C1_0_07a8d4fc83" y="191.539824"/>
    </g>
    <g clip-path="url(#p49c3e0981e)">
     <use style="fill-opacity:0.7;stroke:#000000;stroke-opacity:0.7;" x="244.158884" xlink:href="#C1_0_07a8d4fc83" y="191.539824"/>
    </g>
    <g clip-path="url(#p49c3e0981e)">
     <use style="fill-opacity:0.7;stroke:#000000;stroke-opacity:0.7;" x="244.158884" xlink:href="#C1_0_07a8d4fc83" y="191.539824"/>
    </g>
    <g clip-path="url(#p49c3e0981e)">
     <use style="fill-opacity:0.7;stroke:#000000;stroke-opacity:0.7;" x="245.784425" xlink:href="#C1_0_07a8d4fc83" y="194.854784"/>
    </g>
    <g clip-path="url(#p49c3e0981e)">
     <use style="fill-opacity:0.7;stroke:#000000;stroke-opacity:0.7;" x="225.354026" xlink:href="#C1_0_07a8d4fc83" y="169.240428"/>
    </g>
    <g clip-path="url(#p49c3e0981e)">
     <use style="fill-opacity:0.7;stroke:#000000;stroke-opacity:0.7;" x="233.190436" xlink:href="#C1_0_07a8d4fc83" y="172.440932"/>
    </g>
    <g clip-path="url(#p49c3e0981e)">
     <use style="fill-opacity:0.7;stroke:#000000;stroke-opacity:0.7;" x="214.526788" xlink:href="#C1_0_07a8d4fc83" y="156.422397"/>
    </g>
    <g clip-path="url(#p49c3e0981e)">
     <use style="fill-opacity:0.7;stroke:#000000;stroke-opacity:0.7;" x="203.680778" xlink:href="#C1_0_07a8d4fc83" y="155.900202"/>
    </g>
    <g clip-path="url(#p49c3e0981e)">
     <use style="fill-opacity:0.7;stroke:#000000;stroke-opacity:0.7;" x="180.286474" xlink:href="#C1_0_07a8d4fc83" y="157.770597"/>
    </g>
    <g clip-path="url(#p49c3e0981e)">
     <use style="fill-opacity:0.7;stroke:#000000;stroke-opacity:0.7;" x="241.196664" xlink:href="#C1_0_07a8d4fc83" y="175.782809"/>
    </g>
    <g clip-path="url(#p49c3e0981e)">
     <use style="fill-opacity:0.7;stroke:#000000;stroke-opacity:0.7;" x="192.851656" xlink:href="#C1_0_07a8d4fc83" y="160.83174"/>
    </g>
    <g clip-path="url(#p49c3e0981e)">
     <use style="fill-opacity:0.7;stroke:#000000;stroke-opacity:0.7;" x="222.371468" xlink:href="#C1_0_07a8d4fc83" y="161.723907"/>
    </g>
    <g clip-path="url(#p49c3e0981e)">
     <use style="fill-opacity:0.7;stroke:#000000;stroke-opacity:0.7;" x="244.731892" xlink:href="#C1_0_07a8d4fc83" y="177.326921"/>
    </g>
    <g clip-path="url(#p49c3e0981e)">
     <use style="fill-opacity:0.7;stroke:#000000;stroke-opacity:0.7;" x="244.731892" xlink:href="#C1_0_07a8d4fc83" y="177.326921"/>
    </g>
    <g clip-path="url(#p49c3e0981e)">
     <use style="fill-opacity:0.7;stroke:#000000;stroke-opacity:0.7;" x="244.731892" xlink:href="#C1_0_07a8d4fc83" y="177.326921"/>
    </g>
    <g clip-path="url(#p49c3e0981e)">
     <use style="fill-opacity:0.7;stroke:#000000;stroke-opacity:0.7;" x="214.799806" xlink:href="#C1_0_07a8d4fc83" y="157.731332"/>
    </g>
    <g clip-path="url(#p49c3e0981e)">
     <use style="fill-opacity:0.7;stroke:#000000;stroke-opacity:0.7;" x="187.448174" xlink:href="#C1_0_07a8d4fc83" y="152.586812"/>
    </g>
    <g clip-path="url(#p49c3e0981e)">
     <use style="fill-opacity:0.7;stroke:#000000;stroke-opacity:0.7;" x="230.387976" xlink:href="#C1_0_07a8d4fc83" y="170.811561"/>
    </g>
    <g clip-path="url(#p49c3e0981e)">
     <use style="fill-opacity:0.7;stroke:#000000;stroke-opacity:0.7;" x="220.614651" xlink:href="#C1_0_07a8d4fc83" y="169.074008"/>
    </g>
    <g clip-path="url(#p49c3e0981e)">
     <use style="fill-opacity:0.7;stroke:#000000;stroke-opacity:0.7;" x="200.363877" xlink:href="#C1_0_07a8d4fc83" y="157.798828"/>
    </g>
    <g clip-path="url(#p49c3e0981e)">
     <use style="fill-opacity:0.7;stroke:#000000;stroke-opacity:0.7;" x="196.977409" xlink:href="#C1_0_07a8d4fc83" y="158.567944"/>
    </g>
    <g clip-path="url(#p49c3e0981e)">
     <use style="fill-opacity:0.7;stroke:#000000;stroke-opacity:0.7;" x="239.495432" xlink:href="#C1_0_07a8d4fc83" y="171.322928"/>
    </g>
    <g clip-path="url(#p49c3e0981e)">
     <use style="fill-opacity:0.7;stroke:#000000;stroke-opacity:0.7;" x="239.071658" xlink:href="#C1_0_07a8d4fc83" y="172.170971"/>
    </g>
    <g clip-path="url(#p49c3e0981e)">
     <use style="fill-opacity:0.7;stroke:#000000;stroke-opacity:0.7;" x="240.330781" xlink:href="#C1_0_07a8d4fc83" y="173.882889"/>
    </g>
    <g clip-path="url(#p49c3e0981e)">
     <use style="fill-opacity:0.7;stroke:#000000;stroke-opacity:0.7;" x="208.317193" xlink:href="#C1_0_07a8d4fc83" y="166.406589"/>
    </g>
    <g clip-path="url(#p49c3e0981e)">
     <use style="fill-opacity:0.7;stroke:#000000;stroke-opacity:0.7;" x="206.668667" xlink:href="#C1_0_07a8d4fc83" y="164.651105"/>
    </g>
    <g clip-path="url(#p49c3e0981e)">
     <use style="fill-opacity:0.7;stroke:#000000;stroke-opacity:0.7;" x="229.557174" xlink:href="#C1_0_07a8d4fc83" y="172.113792"/>
    </g>
    <g clip-path="url(#p49c3e0981e)">
     <use style="fill-opacity:0.7;stroke:#000000;stroke-opacity:0.7;" x="216.520998" xlink:href="#C1_0_07a8d4fc83" y="170.838821"/>
    </g>
    <g clip-path="url(#p49c3e0981e)">
     <use style="fill-opacity:0.7;stroke:#000000;stroke-opacity:0.7;" x="216.520998" xlink:href="#C1_0_07a8d4fc83" y="170.838821"/>
    </g>
    <g clip-path="url(#p49c3e0981e)">
     <use style="fill-opacity:0.7;stroke:#000000;stroke-opacity:0.7;" x="233.904113" xlink:href="#C1_0_07a8d4fc83" y="174.581323"/>
    </g>
    <g clip-path="url(#p49c3e0981e)">
     <use style="fill-opacity:0.7;stroke:#000000;stroke-opacity:0.7;" x="233.14508" xlink:href="#C1_0_07a8d4fc83" y="174.353078"/>
    </g>
    <g clip-path="url(#p49c3e0981e)">
     <use style="fill-opacity:0.7;stroke:#000000;stroke-opacity:0.7;" x="222.537188" xlink:href="#C1_0_07a8d4fc83" y="184.930008"/>
    </g>
    <g clip-path="url(#p49c3e0981e)">
     <use style="fill-opacity:0.7;stroke:#000000;stroke-opacity:0.7;" x="224.489907" xlink:href="#C1_0_07a8d4fc83" y="175.844659"/>
    </g>
    <g clip-path="url(#p49c3e0981e)">
     <use style="fill-opacity:0.7;stroke:#000000;stroke-opacity:0.7;" x="225.886558" xlink:href="#C1_0_07a8d4fc83" y="180.242695"/>
    </g>
    <g clip-path="url(#p49c3e0981e)">
     <use style="fill-opacity:0.7;stroke:#000000;stroke-opacity:0.7;" x="220.81615" xlink:href="#C1_0_07a8d4fc83" y="185.02832"/>
    </g>
    <g clip-path="url(#p49c3e0981e)">
     <use style="fill-opacity:0.7;stroke:#000000;stroke-opacity:0.7;" x="220.276326" xlink:href="#C1_0_07a8d4fc83" y="190.676552"/>
    </g>
   </g>
  </g>
 </g>
 <defs>
  <clipPath id="p49c3e0981e">
   <rect height="266.112" width="266.112" x="103.104" y="41.472"/>
  </clipPath>
 </defs>
</svg>
