<?xml version="1.0" encoding="utf-8" standalone="no"?>
<!DOCTYPE svg PUBLIC "-//W3C//DTD SVG 1.1//EN"
  "http://www.w3.org/Graphics/SVG/1.1/DTD/svg11.dtd">
<!-- Created with matplotlib (https://matplotlib.org/) -->
<svg height="345.6pt" version="1.1" viewBox="0 0 460.8 345.6" width="460.8pt" xmlns="http://www.w3.org/2000/svg" xmlns:xlink="http://www.w3.org/1999/xlink">
 <metadata>
  <rdf:RDF xmlns:cc="http://creativecommons.org/ns#" xmlns:dc="http://purl.org/dc/elements/1.1/" xmlns:rdf="http://www.w3.org/1999/02/22-rdf-syntax-ns#">
   <cc:Work>
    <dc:type rdf:resource="http://purl.org/dc/dcmitype/StillImage"/>
    <dc:date>2021-09-25T16:35:25.657973</dc:date>
    <dc:format>image/svg+xml</dc:format>
    <dc:creator>
     <cc:Agent>
      <dc:title>Matplotlib v3.3.4, https://matplotlib.org/</dc:title>
     </cc:Agent>
    </dc:creator>
   </cc:Work>
  </rdf:RDF>
 </metadata>
 <defs>
  <style type="text/css">*{stroke-linecap:butt;stroke-linejoin:round;}</style>
 </defs>
 <g id="figure_1">
  <g id="patch_1">
   <path d="M 0 345.6 
L 460.8 345.6 
L 460.8 0 
L 0 0 
z
" style="fill:#ffffff;"/>
  </g>
  <g id="patch_2">
   <path d="M 103.104 307.584 
L 369.216 307.584 
L 369.216 41.472 
L 103.104 41.472 
z
" style="fill:#ffffff;"/>
  </g>
  <g id="pane3d_1">
   <g id="patch_3">
    <path d="M 123.17605 201.844848 
L 239.756108 103.611577 
L 239.756108 34.427058 
L 113.799119 137.532502 
" style="fill:#f2f2f2;opacity:0.5;stroke:#f2f2f2;stroke-linejoin:miter;"/>
   </g>
  </g>
  <g id="pane3d_2">
   <g id="patch_4">
    <path d="M 239.756108 103.611577 
L 356.336166 201.844848 
L 365.713097 137.532502 
L 239.756108 34.427058 
" style="fill:#e6e6e6;opacity:0.5;stroke:#e6e6e6;stroke-linejoin:miter;"/>
   </g>
  </g>
  <g id="pane3d_3">
   <g id="patch_5">
    <path d="M 123.17605 201.844848 
L 239.756108 308.375778 
L 356.336166 201.844848 
L 239.756108 103.611577 
" style="fill:#ececec;opacity:0.5;stroke:#ececec;stroke-linejoin:miter;"/>
   </g>
  </g>
  <g id="axis3d_1">
   <g id="line2d_1">
    <path d="M 123.17605 201.844848 
L 239.756108 308.375778 
" style="fill:none;stroke:#000000;stroke-linecap:square;stroke-width:0.8;"/>
   </g>
   <g id="text_1">
    <!-- Life Cycle Cost -->
    <g transform="translate(115.569096 269.375896)rotate(-317.578913)scale(0.12 -0.12)">
     <defs>
      <path d="M 9.8125 72.90625 
L 19.671875 72.90625 
L 19.671875 8.296875 
L 55.171875 8.296875 
L 55.171875 0 
L 9.8125 0 
z
" id="DejaVuSans-76"/>
      <path d="M 9.421875 54.6875 
L 18.40625 54.6875 
L 18.40625 0 
L 9.421875 0 
z
M 9.421875 75.984375 
L 18.40625 75.984375 
L 18.40625 64.59375 
L 9.421875 64.59375 
z
" id="DejaVuSans-105"/>
      <path d="M 37.109375 75.984375 
L 37.109375 68.5 
L 28.515625 68.5 
Q 23.6875 68.5 21.796875 66.546875 
Q 19.921875 64.59375 19.921875 59.515625 
L 19.921875 54.6875 
L 34.71875 54.6875 
L 34.71875 47.703125 
L 19.921875 47.703125 
L 19.921875 0 
L 10.890625 0 
L 10.890625 47.703125 
L 2.296875 47.703125 
L 2.296875 54.6875 
L 10.890625 54.6875 
L 10.890625 58.5 
Q 10.890625 67.625 15.140625 71.796875 
Q 19.390625 75.984375 28.609375 75.984375 
z
" id="DejaVuSans-102"/>
      <path d="M 56.203125 29.59375 
L 56.203125 25.203125 
L 14.890625 25.203125 
Q 15.484375 15.921875 20.484375 11.0625 
Q 25.484375 6.203125 34.421875 6.203125 
Q 39.59375 6.203125 44.453125 7.46875 
Q 49.3125 8.734375 54.109375 11.28125 
L 54.109375 2.78125 
Q 49.265625 0.734375 44.1875 -0.34375 
Q 39.109375 -1.421875 33.890625 -1.421875 
Q 20.796875 -1.421875 13.15625 6.1875 
Q 5.515625 13.8125 5.515625 26.8125 
Q 5.515625 40.234375 12.765625 48.109375 
Q 20.015625 56 32.328125 56 
Q 43.359375 56 49.78125 48.890625 
Q 56.203125 41.796875 56.203125 29.59375 
z
M 47.21875 32.234375 
Q 47.125 39.59375 43.09375 43.984375 
Q 39.0625 48.390625 32.421875 48.390625 
Q 24.90625 48.390625 20.390625 44.140625 
Q 15.875 39.890625 15.1875 32.171875 
z
" id="DejaVuSans-101"/>
      <path id="DejaVuSans-32"/>
      <path d="M 64.40625 67.28125 
L 64.40625 56.890625 
Q 59.421875 61.53125 53.78125 63.8125 
Q 48.140625 66.109375 41.796875 66.109375 
Q 29.296875 66.109375 22.65625 58.46875 
Q 16.015625 50.828125 16.015625 36.375 
Q 16.015625 21.96875 22.65625 14.328125 
Q 29.296875 6.6875 41.796875 6.6875 
Q 48.140625 6.6875 53.78125 8.984375 
Q 59.421875 11.28125 64.40625 15.921875 
L 64.40625 5.609375 
Q 59.234375 2.09375 53.4375 0.328125 
Q 47.65625 -1.421875 41.21875 -1.421875 
Q 24.65625 -1.421875 15.125 8.703125 
Q 5.609375 18.84375 5.609375 36.375 
Q 5.609375 53.953125 15.125 64.078125 
Q 24.65625 74.21875 41.21875 74.21875 
Q 47.75 74.21875 53.53125 72.484375 
Q 59.328125 70.75 64.40625 67.28125 
z
" id="DejaVuSans-67"/>
      <path d="M 32.171875 -5.078125 
Q 28.375 -14.84375 24.75 -17.8125 
Q 21.140625 -20.796875 15.09375 -20.796875 
L 7.90625 -20.796875 
L 7.90625 -13.28125 
L 13.1875 -13.28125 
Q 16.890625 -13.28125 18.9375 -11.515625 
Q 21 -9.765625 23.484375 -3.21875 
L 25.09375 0.875 
L 2.984375 54.6875 
L 12.5 54.6875 
L 29.59375 11.921875 
L 46.6875 54.6875 
L 56.203125 54.6875 
z
" id="DejaVuSans-121"/>
      <path d="M 48.78125 52.59375 
L 48.78125 44.1875 
Q 44.96875 46.296875 41.140625 47.34375 
Q 37.3125 48.390625 33.40625 48.390625 
Q 24.65625 48.390625 19.8125 42.84375 
Q 14.984375 37.3125 14.984375 27.296875 
Q 14.984375 17.28125 19.8125 11.734375 
Q 24.65625 6.203125 33.40625 6.203125 
Q 37.3125 6.203125 41.140625 7.25 
Q 44.96875 8.296875 48.78125 10.40625 
L 48.78125 2.09375 
Q 45.015625 0.34375 40.984375 -0.53125 
Q 36.96875 -1.421875 32.421875 -1.421875 
Q 20.0625 -1.421875 12.78125 6.34375 
Q 5.515625 14.109375 5.515625 27.296875 
Q 5.515625 40.671875 12.859375 48.328125 
Q 20.21875 56 33.015625 56 
Q 37.15625 56 41.109375 55.140625 
Q 45.0625 54.296875 48.78125 52.59375 
z
" id="DejaVuSans-99"/>
      <path d="M 9.421875 75.984375 
L 18.40625 75.984375 
L 18.40625 0 
L 9.421875 0 
z
" id="DejaVuSans-108"/>
      <path d="M 30.609375 48.390625 
Q 23.390625 48.390625 19.1875 42.75 
Q 14.984375 37.109375 14.984375 27.296875 
Q 14.984375 17.484375 19.15625 11.84375 
Q 23.34375 6.203125 30.609375 6.203125 
Q 37.796875 6.203125 41.984375 11.859375 
Q 46.1875 17.53125 46.1875 27.296875 
Q 46.1875 37.015625 41.984375 42.703125 
Q 37.796875 48.390625 30.609375 48.390625 
z
M 30.609375 56 
Q 42.328125 56 49.015625 48.375 
Q 55.71875 40.765625 55.71875 27.296875 
Q 55.71875 13.875 49.015625 6.21875 
Q 42.328125 -1.421875 30.609375 -1.421875 
Q 18.84375 -1.421875 12.171875 6.21875 
Q 5.515625 13.875 5.515625 27.296875 
Q 5.515625 40.765625 12.171875 48.375 
Q 18.84375 56 30.609375 56 
z
" id="DejaVuSans-111"/>
      <path d="M 44.28125 53.078125 
L 44.28125 44.578125 
Q 40.484375 46.53125 36.375 47.5 
Q 32.28125 48.484375 27.875 48.484375 
Q 21.1875 48.484375 17.84375 46.4375 
Q 14.5 44.390625 14.5 40.28125 
Q 14.5 37.15625 16.890625 35.375 
Q 19.28125 33.59375 26.515625 31.984375 
L 29.59375 31.296875 
Q 39.15625 29.25 43.1875 25.515625 
Q 47.21875 21.78125 47.21875 15.09375 
Q 47.21875 7.46875 41.1875 3.015625 
Q 35.15625 -1.421875 24.609375 -1.421875 
Q 20.21875 -1.421875 15.453125 -0.5625 
Q 10.6875 0.296875 5.421875 2 
L 5.421875 11.28125 
Q 10.40625 8.6875 15.234375 7.390625 
Q 20.0625 6.109375 24.8125 6.109375 
Q 31.15625 6.109375 34.5625 8.28125 
Q 37.984375 10.453125 37.984375 14.40625 
Q 37.984375 18.0625 35.515625 20.015625 
Q 33.0625 21.96875 24.703125 23.78125 
L 21.578125 24.515625 
Q 13.234375 26.265625 9.515625 29.90625 
Q 5.8125 33.546875 5.8125 39.890625 
Q 5.8125 47.609375 11.28125 51.796875 
Q 16.75 56 26.8125 56 
Q 31.78125 56 36.171875 55.265625 
Q 40.578125 54.546875 44.28125 53.078125 
z
" id="DejaVuSans-115"/>
      <path d="M 18.3125 70.21875 
L 18.3125 54.6875 
L 36.8125 54.6875 
L 36.8125 47.703125 
L 18.3125 47.703125 
L 18.3125 18.015625 
Q 18.3125 11.328125 20.140625 9.421875 
Q 21.96875 7.515625 27.59375 7.515625 
L 36.8125 7.515625 
L 36.8125 0 
L 27.59375 0 
Q 17.1875 0 13.234375 3.875 
Q 9.28125 7.765625 9.28125 18.015625 
L 9.28125 47.703125 
L 2.6875 47.703125 
L 2.6875 54.6875 
L 9.28125 54.6875 
L 9.28125 70.21875 
z
" id="DejaVuSans-116"/>
     </defs>
     <use xlink:href="#DejaVuSans-76"/>
     <use x="55.712891" xlink:href="#DejaVuSans-105"/>
     <use x="83.496094" xlink:href="#DejaVuSans-102"/>
     <use x="118.701172" xlink:href="#DejaVuSans-101"/>
     <use x="180.224609" xlink:href="#DejaVuSans-32"/>
     <use x="212.011719" xlink:href="#DejaVuSans-67"/>
     <use x="281.835938" xlink:href="#DejaVuSans-121"/>
     <use x="341.015625" xlink:href="#DejaVuSans-99"/>
     <use x="395.996094" xlink:href="#DejaVuSans-108"/>
     <use x="423.779297" xlink:href="#DejaVuSans-101"/>
     <use x="485.302734" xlink:href="#DejaVuSans-32"/>
     <use x="517.089844" xlink:href="#DejaVuSans-67"/>
     <use x="586.914062" xlink:href="#DejaVuSans-111"/>
     <use x="648.095703" xlink:href="#DejaVuSans-115"/>
     <use x="700.195312" xlink:href="#DejaVuSans-116"/>
    </g>
    <!--  ($/house-yr) -->
    <g transform="translate(110.761508 283.185436)rotate(-317.578913)scale(0.12 -0.12)">
     <defs>
      <path d="M 31 75.875 
Q 24.46875 64.65625 21.28125 53.65625 
Q 18.109375 42.671875 18.109375 31.390625 
Q 18.109375 20.125 21.3125 9.0625 
Q 24.515625 -2 31 -13.1875 
L 23.1875 -13.1875 
Q 15.875 -1.703125 12.234375 9.375 
Q 8.59375 20.453125 8.59375 31.390625 
Q 8.59375 42.28125 12.203125 53.3125 
Q 15.828125 64.359375 23.1875 75.875 
z
" id="DejaVuSans-40"/>
      <path d="M 33.796875 -14.703125 
L 28.90625 -14.703125 
L 28.859375 0 
Q 23.734375 0.09375 18.609375 1.1875 
Q 13.484375 2.296875 8.296875 4.5 
L 8.296875 13.28125 
Q 13.28125 10.15625 18.375 8.5625 
Q 23.484375 6.984375 28.90625 6.9375 
L 28.90625 29.203125 
Q 18.109375 30.953125 13.203125 35.15625 
Q 8.296875 39.359375 8.296875 46.6875 
Q 8.296875 54.640625 13.625 59.21875 
Q 18.953125 63.8125 28.90625 64.5 
L 28.90625 75.984375 
L 33.796875 75.984375 
L 33.796875 64.65625 
Q 38.328125 64.453125 42.578125 63.6875 
Q 46.828125 62.9375 50.875 61.625 
L 50.875 53.078125 
Q 46.828125 55.125 42.546875 56.25 
Q 38.28125 57.375 33.796875 57.5625 
L 33.796875 36.71875 
Q 44.875 35.015625 50.09375 30.609375 
Q 55.328125 26.21875 55.328125 18.609375 
Q 55.328125 10.359375 49.78125 5.59375 
Q 44.234375 0.828125 33.796875 0.09375 
z
M 28.90625 37.59375 
L 28.90625 57.625 
Q 23.25 56.984375 20.265625 54.390625 
Q 17.28125 51.8125 17.28125 47.515625 
Q 17.28125 43.3125 20.03125 40.96875 
Q 22.796875 38.625 28.90625 37.59375 
z
M 33.796875 28.21875 
L 33.796875 7.078125 
Q 39.984375 7.90625 43.140625 10.59375 
Q 46.296875 13.28125 46.296875 17.671875 
Q 46.296875 21.96875 43.28125 24.5 
Q 40.28125 27.046875 33.796875 28.21875 
z
" id="DejaVuSans-36"/>
      <path d="M 25.390625 72.90625 
L 33.6875 72.90625 
L 8.296875 -9.28125 
L 0 -9.28125 
z
" id="DejaVuSans-47"/>
      <path d="M 54.890625 33.015625 
L 54.890625 0 
L 45.90625 0 
L 45.90625 32.71875 
Q 45.90625 40.484375 42.875 44.328125 
Q 39.84375 48.1875 33.796875 48.1875 
Q 26.515625 48.1875 22.3125 43.546875 
Q 18.109375 38.921875 18.109375 30.90625 
L 18.109375 0 
L 9.078125 0 
L 9.078125 75.984375 
L 18.109375 75.984375 
L 18.109375 46.1875 
Q 21.34375 51.125 25.703125 53.5625 
Q 30.078125 56 35.796875 56 
Q 45.21875 56 50.046875 50.171875 
Q 54.890625 44.34375 54.890625 33.015625 
z
" id="DejaVuSans-104"/>
      <path d="M 8.5 21.578125 
L 8.5 54.6875 
L 17.484375 54.6875 
L 17.484375 21.921875 
Q 17.484375 14.15625 20.5 10.265625 
Q 23.53125 6.390625 29.59375 6.390625 
Q 36.859375 6.390625 41.078125 11.03125 
Q 45.3125 15.671875 45.3125 23.6875 
L 45.3125 54.6875 
L 54.296875 54.6875 
L 54.296875 0 
L 45.3125 0 
L 45.3125 8.40625 
Q 42.046875 3.421875 37.71875 1 
Q 33.40625 -1.421875 27.6875 -1.421875 
Q 18.265625 -1.421875 13.375 4.4375 
Q 8.5 10.296875 8.5 21.578125 
z
M 31.109375 56 
z
" id="DejaVuSans-117"/>
      <path d="M 4.890625 31.390625 
L 31.203125 31.390625 
L 31.203125 23.390625 
L 4.890625 23.390625 
z
" id="DejaVuSans-45"/>
      <path d="M 41.109375 46.296875 
Q 39.59375 47.171875 37.8125 47.578125 
Q 36.03125 48 33.890625 48 
Q 26.265625 48 22.1875 43.046875 
Q 18.109375 38.09375 18.109375 28.8125 
L 18.109375 0 
L 9.078125 0 
L 9.078125 54.6875 
L 18.109375 54.6875 
L 18.109375 46.1875 
Q 20.953125 51.171875 25.484375 53.578125 
Q 30.03125 56 36.53125 56 
Q 37.453125 56 38.578125 55.875 
Q 39.703125 55.765625 41.0625 55.515625 
z
" id="DejaVuSans-114"/>
      <path d="M 8.015625 75.875 
L 15.828125 75.875 
Q 23.140625 64.359375 26.78125 53.3125 
Q 30.421875 42.28125 30.421875 31.390625 
Q 30.421875 20.453125 26.78125 9.375 
Q 23.140625 -1.703125 15.828125 -13.1875 
L 8.015625 -13.1875 
Q 14.5 -2 17.703125 9.0625 
Q 20.90625 20.125 20.90625 31.390625 
Q 20.90625 42.671875 17.703125 53.65625 
Q 14.5 64.65625 8.015625 75.875 
z
" id="DejaVuSans-41"/>
     </defs>
     <use xlink:href="#DejaVuSans-32"/>
     <use x="31.787109" xlink:href="#DejaVuSans-40"/>
     <use x="70.800781" xlink:href="#DejaVuSans-36"/>
     <use x="134.423828" xlink:href="#DejaVuSans-47"/>
     <use x="168.115234" xlink:href="#DejaVuSans-104"/>
     <use x="231.494141" xlink:href="#DejaVuSans-111"/>
     <use x="292.675781" xlink:href="#DejaVuSans-117"/>
     <use x="356.054688" xlink:href="#DejaVuSans-115"/>
     <use x="408.154297" xlink:href="#DejaVuSans-101"/>
     <use x="469.677734" xlink:href="#DejaVuSans-45"/>
     <use x="504.011719" xlink:href="#DejaVuSans-121"/>
     <use x="563.191406" xlink:href="#DejaVuSans-114"/>
     <use x="604.304688" xlink:href="#DejaVuSans-41"/>
    </g>
   </g>
   <g id="Line3DCollection_1">
    <path d="M 136.150745 213.701132 
L 252.749766 114.560357 
L 253.755923 45.88698 
" style="fill:none;stroke:#b0b0b0;stroke-width:0.8;"/>
    <path d="M 163.529168 238.719553 
L 280.152601 137.650671 
L 283.312667 70.081438 
" style="fill:none;stroke:#b0b0b0;stroke-width:0.8;"/>
    <path d="M 191.453553 264.236873 
L 308.080097 161.183078 
L 313.480036 94.77574 
" style="fill:none;stroke:#b0b0b0;stroke-width:0.8;"/>
    <path d="M 219.940394 290.268166 
L 336.547468 185.170396 
L 344.277151 119.985538 
" style="fill:none;stroke:#b0b0b0;stroke-width:0.8;"/>
   </g>
   <g id="xtick_1">
    <g id="line2d_2">
     <path d="M 137.121198 212.875984 
L 134.207941 215.353043 
" style="fill:none;stroke:#000000;stroke-linecap:square;stroke-width:0.8;"/>
    </g>
    <g id="text_2">
     <!-- 1 -->
     <g transform="translate(122.577203 236.230749)scale(0.12 -0.12)">
      <defs>
       <path d="M 11.71875 12.984375 
L 28.328125 12.984375 
L 28.328125 60.109375 
L 11.28125 56.59375 
L 11.28125 69.390625 
L 28.21875 72.90625 
L 46.09375 72.90625 
L 46.09375 12.984375 
L 62.703125 12.984375 
L 62.703125 0 
L 11.71875 0 
z
" id="DejaVuSans-Bold-49"/>
      </defs>
      <use xlink:href="#DejaVuSans-Bold-49"/>
     </g>
    </g>
   </g>
   <g id="xtick_2">
    <g id="line2d_3">
     <path d="M 164.500197 237.878035 
L 161.585194 240.404251 
" style="fill:none;stroke:#000000;stroke-linecap:square;stroke-width:0.8;"/>
    </g>
    <g id="text_3">
     <!-- 2 -->
     <g transform="translate(149.785138 261.30995)scale(0.12 -0.12)">
      <defs>
       <path d="M 28.8125 13.8125 
L 60.890625 13.8125 
L 60.890625 0 
L 7.90625 0 
L 7.90625 13.8125 
L 34.515625 37.3125 
Q 38.09375 40.53125 39.796875 43.609375 
Q 41.5 46.6875 41.5 50 
Q 41.5 55.125 38.0625 58.25 
Q 34.625 61.375 28.90625 61.375 
Q 24.515625 61.375 19.28125 59.5 
Q 14.0625 57.625 8.109375 53.90625 
L 8.109375 69.921875 
Q 14.453125 72.015625 20.65625 73.109375 
Q 26.859375 74.21875 32.8125 74.21875 
Q 45.90625 74.21875 53.15625 68.453125 
Q 60.40625 62.703125 60.40625 52.390625 
Q 60.40625 46.4375 57.328125 41.28125 
Q 54.25 36.140625 44.390625 27.484375 
z
" id="DejaVuSans-Bold-50"/>
      </defs>
      <use xlink:href="#DejaVuSans-Bold-50"/>
     </g>
    </g>
   </g>
   <g id="xtick_3">
    <g id="line2d_4">
     <path d="M 192.424986 263.378493 
L 189.508749 265.955345 
" style="fill:none;stroke:#000000;stroke-linecap:square;stroke-width:0.8;"/>
    </g>
    <g id="text_4">
     <!-- 3 -->
     <g transform="translate(177.534075 286.887824)scale(0.12 -0.12)">
      <defs>
       <path d="M 46.578125 39.3125 
Q 53.953125 37.40625 57.78125 32.6875 
Q 61.625 27.984375 61.625 20.703125 
Q 61.625 9.859375 53.3125 4.21875 
Q 45.015625 -1.421875 29.109375 -1.421875 
Q 23.484375 -1.421875 17.84375 -0.515625 
Q 12.203125 0.390625 6.6875 2.203125 
L 6.6875 16.703125 
Q 11.96875 14.0625 17.15625 12.71875 
Q 22.359375 11.375 27.390625 11.375 
Q 34.859375 11.375 38.84375 13.953125 
Q 42.828125 16.546875 42.828125 21.390625 
Q 42.828125 26.375 38.75 28.9375 
Q 34.671875 31.5 26.703125 31.5 
L 19.1875 31.5 
L 19.1875 43.609375 
L 27.09375 43.609375 
Q 34.1875 43.609375 37.640625 45.828125 
Q 41.109375 48.046875 41.109375 52.59375 
Q 41.109375 56.78125 37.734375 59.078125 
Q 34.375 61.375 28.21875 61.375 
Q 23.6875 61.375 19.046875 60.34375 
Q 14.40625 59.328125 9.8125 57.328125 
L 9.8125 71.09375 
Q 15.375 72.65625 20.84375 73.4375 
Q 26.3125 74.21875 31.59375 74.21875 
Q 45.796875 74.21875 52.84375 69.546875 
Q 59.90625 64.890625 59.90625 55.515625 
Q 59.90625 49.125 56.53125 45.046875 
Q 53.171875 40.96875 46.578125 39.3125 
z
" id="DejaVuSans-Bold-51"/>
      </defs>
      <use xlink:href="#DejaVuSans-Bold-51"/>
     </g>
    </g>
   </g>
   <g id="xtick_4">
    <g id="line2d_5">
     <path d="M 220.912052 289.392412 
L 217.99512 292.021438 
" style="fill:none;stroke:#000000;stroke-linecap:square;stroke-width:0.8;"/>
    </g>
    <g id="text_5">
     <!-- 4 -->
     <g transform="translate(205.840311 312.979394)scale(0.12 -0.12)">
      <defs>
       <path d="M 36.8125 57.421875 
L 16.21875 26.90625 
L 36.8125 26.90625 
z
M 33.6875 72.90625 
L 54.59375 72.90625 
L 54.59375 26.90625 
L 64.984375 26.90625 
L 64.984375 13.28125 
L 54.59375 13.28125 
L 54.59375 0 
L 36.8125 0 
L 36.8125 13.28125 
L 4.5 13.28125 
L 4.5 29.390625 
z
" id="DejaVuSans-Bold-52"/>
      </defs>
      <use xlink:href="#DejaVuSans-Bold-52"/>
     </g>
    </g>
   </g>
  </g>
  <g id="axis3d_2">
   <g id="line2d_6">
    <path d="M 356.336166 201.844848 
L 239.756108 308.375778 
" style="fill:none;stroke:#000000;stroke-linecap:square;stroke-width:0.8;"/>
   </g>
   <g id="text_6">
    <!-- Global Warming Potential -->
    <g transform="translate(275.128499 350.534752)rotate(-42.421087)scale(0.12 -0.12)">
     <defs>
      <path d="M 59.515625 10.40625 
L 59.515625 29.984375 
L 43.40625 29.984375 
L 43.40625 38.09375 
L 69.28125 38.09375 
L 69.28125 6.78125 
Q 63.578125 2.734375 56.6875 0.65625 
Q 49.8125 -1.421875 42 -1.421875 
Q 24.90625 -1.421875 15.25 8.5625 
Q 5.609375 18.5625 5.609375 36.375 
Q 5.609375 54.25 15.25 64.234375 
Q 24.90625 74.21875 42 74.21875 
Q 49.125 74.21875 55.546875 72.453125 
Q 61.96875 70.703125 67.390625 67.28125 
L 67.390625 56.78125 
Q 61.921875 61.421875 55.765625 63.765625 
Q 49.609375 66.109375 42.828125 66.109375 
Q 29.4375 66.109375 22.71875 58.640625 
Q 16.015625 51.171875 16.015625 36.375 
Q 16.015625 21.625 22.71875 14.15625 
Q 29.4375 6.6875 42.828125 6.6875 
Q 48.046875 6.6875 52.140625 7.59375 
Q 56.25 8.5 59.515625 10.40625 
z
" id="DejaVuSans-71"/>
      <path d="M 48.6875 27.296875 
Q 48.6875 37.203125 44.609375 42.84375 
Q 40.53125 48.484375 33.40625 48.484375 
Q 26.265625 48.484375 22.1875 42.84375 
Q 18.109375 37.203125 18.109375 27.296875 
Q 18.109375 17.390625 22.1875 11.75 
Q 26.265625 6.109375 33.40625 6.109375 
Q 40.53125 6.109375 44.609375 11.75 
Q 48.6875 17.390625 48.6875 27.296875 
z
M 18.109375 46.390625 
Q 20.953125 51.265625 25.265625 53.625 
Q 29.59375 56 35.59375 56 
Q 45.5625 56 51.78125 48.09375 
Q 58.015625 40.1875 58.015625 27.296875 
Q 58.015625 14.40625 51.78125 6.484375 
Q 45.5625 -1.421875 35.59375 -1.421875 
Q 29.59375 -1.421875 25.265625 0.953125 
Q 20.953125 3.328125 18.109375 8.203125 
L 18.109375 0 
L 9.078125 0 
L 9.078125 75.984375 
L 18.109375 75.984375 
z
" id="DejaVuSans-98"/>
      <path d="M 34.28125 27.484375 
Q 23.390625 27.484375 19.1875 25 
Q 14.984375 22.515625 14.984375 16.5 
Q 14.984375 11.71875 18.140625 8.90625 
Q 21.296875 6.109375 26.703125 6.109375 
Q 34.1875 6.109375 38.703125 11.40625 
Q 43.21875 16.703125 43.21875 25.484375 
L 43.21875 27.484375 
z
M 52.203125 31.203125 
L 52.203125 0 
L 43.21875 0 
L 43.21875 8.296875 
Q 40.140625 3.328125 35.546875 0.953125 
Q 30.953125 -1.421875 24.3125 -1.421875 
Q 15.921875 -1.421875 10.953125 3.296875 
Q 6 8.015625 6 15.921875 
Q 6 25.140625 12.171875 29.828125 
Q 18.359375 34.515625 30.609375 34.515625 
L 43.21875 34.515625 
L 43.21875 35.40625 
Q 43.21875 41.609375 39.140625 45 
Q 35.0625 48.390625 27.6875 48.390625 
Q 23 48.390625 18.546875 47.265625 
Q 14.109375 46.140625 10.015625 43.890625 
L 10.015625 52.203125 
Q 14.9375 54.109375 19.578125 55.046875 
Q 24.21875 56 28.609375 56 
Q 40.484375 56 46.34375 49.84375 
Q 52.203125 43.703125 52.203125 31.203125 
z
" id="DejaVuSans-97"/>
      <path d="M 3.328125 72.90625 
L 13.28125 72.90625 
L 28.609375 11.28125 
L 43.890625 72.90625 
L 54.984375 72.90625 
L 70.3125 11.28125 
L 85.59375 72.90625 
L 95.609375 72.90625 
L 77.296875 0 
L 64.890625 0 
L 49.515625 63.28125 
L 33.984375 0 
L 21.578125 0 
z
" id="DejaVuSans-87"/>
      <path d="M 52 44.1875 
Q 55.375 50.25 60.0625 53.125 
Q 64.75 56 71.09375 56 
Q 79.640625 56 84.28125 50.015625 
Q 88.921875 44.046875 88.921875 33.015625 
L 88.921875 0 
L 79.890625 0 
L 79.890625 32.71875 
Q 79.890625 40.578125 77.09375 44.375 
Q 74.3125 48.1875 68.609375 48.1875 
Q 61.625 48.1875 57.5625 43.546875 
Q 53.515625 38.921875 53.515625 30.90625 
L 53.515625 0 
L 44.484375 0 
L 44.484375 32.71875 
Q 44.484375 40.625 41.703125 44.40625 
Q 38.921875 48.1875 33.109375 48.1875 
Q 26.21875 48.1875 22.15625 43.53125 
Q 18.109375 38.875 18.109375 30.90625 
L 18.109375 0 
L 9.078125 0 
L 9.078125 54.6875 
L 18.109375 54.6875 
L 18.109375 46.1875 
Q 21.1875 51.21875 25.484375 53.609375 
Q 29.78125 56 35.6875 56 
Q 41.65625 56 45.828125 52.96875 
Q 50 49.953125 52 44.1875 
z
" id="DejaVuSans-109"/>
      <path d="M 54.890625 33.015625 
L 54.890625 0 
L 45.90625 0 
L 45.90625 32.71875 
Q 45.90625 40.484375 42.875 44.328125 
Q 39.84375 48.1875 33.796875 48.1875 
Q 26.515625 48.1875 22.3125 43.546875 
Q 18.109375 38.921875 18.109375 30.90625 
L 18.109375 0 
L 9.078125 0 
L 9.078125 54.6875 
L 18.109375 54.6875 
L 18.109375 46.1875 
Q 21.34375 51.125 25.703125 53.5625 
Q 30.078125 56 35.796875 56 
Q 45.21875 56 50.046875 50.171875 
Q 54.890625 44.34375 54.890625 33.015625 
z
" id="DejaVuSans-110"/>
      <path d="M 45.40625 27.984375 
Q 45.40625 37.75 41.375 43.109375 
Q 37.359375 48.484375 30.078125 48.484375 
Q 22.859375 48.484375 18.828125 43.109375 
Q 14.796875 37.75 14.796875 27.984375 
Q 14.796875 18.265625 18.828125 12.890625 
Q 22.859375 7.515625 30.078125 7.515625 
Q 37.359375 7.515625 41.375 12.890625 
Q 45.40625 18.265625 45.40625 27.984375 
z
M 54.390625 6.78125 
Q 54.390625 -7.171875 48.1875 -13.984375 
Q 42 -20.796875 29.203125 -20.796875 
Q 24.46875 -20.796875 20.265625 -20.09375 
Q 16.0625 -19.390625 12.109375 -17.921875 
L 12.109375 -9.1875 
Q 16.0625 -11.328125 19.921875 -12.34375 
Q 23.78125 -13.375 27.78125 -13.375 
Q 36.625 -13.375 41.015625 -8.765625 
Q 45.40625 -4.15625 45.40625 5.171875 
L 45.40625 9.625 
Q 42.625 4.78125 38.28125 2.390625 
Q 33.9375 0 27.875 0 
Q 17.828125 0 11.671875 7.65625 
Q 5.515625 15.328125 5.515625 27.984375 
Q 5.515625 40.671875 11.671875 48.328125 
Q 17.828125 56 27.875 56 
Q 33.9375 56 38.28125 53.609375 
Q 42.625 51.21875 45.40625 46.390625 
L 45.40625 54.6875 
L 54.390625 54.6875 
z
" id="DejaVuSans-103"/>
      <path d="M 19.671875 64.796875 
L 19.671875 37.40625 
L 32.078125 37.40625 
Q 38.96875 37.40625 42.71875 40.96875 
Q 46.484375 44.53125 46.484375 51.125 
Q 46.484375 57.671875 42.71875 61.234375 
Q 38.96875 64.796875 32.078125 64.796875 
z
M 9.8125 72.90625 
L 32.078125 72.90625 
Q 44.34375 72.90625 50.609375 67.359375 
Q 56.890625 61.8125 56.890625 51.125 
Q 56.890625 40.328125 50.609375 34.8125 
Q 44.34375 29.296875 32.078125 29.296875 
L 19.671875 29.296875 
L 19.671875 0 
L 9.8125 0 
z
" id="DejaVuSans-80"/>
     </defs>
     <use xlink:href="#DejaVuSans-71"/>
     <use x="77.490234" xlink:href="#DejaVuSans-108"/>
     <use x="105.273438" xlink:href="#DejaVuSans-111"/>
     <use x="166.455078" xlink:href="#DejaVuSans-98"/>
     <use x="229.931641" xlink:href="#DejaVuSans-97"/>
     <use x="291.210938" xlink:href="#DejaVuSans-108"/>
     <use x="318.994141" xlink:href="#DejaVuSans-32"/>
     <use x="350.78125" xlink:href="#DejaVuSans-87"/>
     <use x="443.283203" xlink:href="#DejaVuSans-97"/>
     <use x="504.5625" xlink:href="#DejaVuSans-114"/>
     <use x="543.925781" xlink:href="#DejaVuSans-109"/>
     <use x="641.337891" xlink:href="#DejaVuSans-105"/>
     <use x="669.121094" xlink:href="#DejaVuSans-110"/>
     <use x="732.5" xlink:href="#DejaVuSans-103"/>
     <use x="795.976562" xlink:href="#DejaVuSans-32"/>
     <use x="827.763672" xlink:href="#DejaVuSans-80"/>
     <use x="884.441406" xlink:href="#DejaVuSans-111"/>
     <use x="945.623047" xlink:href="#DejaVuSans-116"/>
     <use x="984.832031" xlink:href="#DejaVuSans-101"/>
     <use x="1046.355469" xlink:href="#DejaVuSans-110"/>
     <use x="1109.734375" xlink:href="#DejaVuSans-116"/>
     <use x="1148.943359" xlink:href="#DejaVuSans-105"/>
     <use x="1176.726562" xlink:href="#DejaVuSans-97"/>
     <use x="1238.005859" xlink:href="#DejaVuSans-108"/>
    </g>
    <!--  (kgCO2eq/house-yr) -->
    <g transform="translate(294.269531 351.246381)rotate(-42.421087)scale(0.12 -0.12)">
     <defs>
      <path d="M 9.078125 75.984375 
L 18.109375 75.984375 
L 18.109375 31.109375 
L 44.921875 54.6875 
L 56.390625 54.6875 
L 27.390625 29.109375 
L 57.625 0 
L 45.90625 0 
L 18.109375 26.703125 
L 18.109375 0 
L 9.078125 0 
z
" id="DejaVuSans-107"/>
      <path d="M 39.40625 66.21875 
Q 28.65625 66.21875 22.328125 58.203125 
Q 16.015625 50.203125 16.015625 36.375 
Q 16.015625 22.609375 22.328125 14.59375 
Q 28.65625 6.59375 39.40625 6.59375 
Q 50.140625 6.59375 56.421875 14.59375 
Q 62.703125 22.609375 62.703125 36.375 
Q 62.703125 50.203125 56.421875 58.203125 
Q 50.140625 66.21875 39.40625 66.21875 
z
M 39.40625 74.21875 
Q 54.734375 74.21875 63.90625 63.9375 
Q 73.09375 53.65625 73.09375 36.375 
Q 73.09375 19.140625 63.90625 8.859375 
Q 54.734375 -1.421875 39.40625 -1.421875 
Q 24.03125 -1.421875 14.8125 8.828125 
Q 5.609375 19.09375 5.609375 36.375 
Q 5.609375 53.65625 14.8125 63.9375 
Q 24.03125 74.21875 39.40625 74.21875 
z
" id="DejaVuSans-79"/>
      <path d="M 19.1875 8.296875 
L 53.609375 8.296875 
L 53.609375 0 
L 7.328125 0 
L 7.328125 8.296875 
Q 12.9375 14.109375 22.625 23.890625 
Q 32.328125 33.6875 34.8125 36.53125 
Q 39.546875 41.84375 41.421875 45.53125 
Q 43.3125 49.21875 43.3125 52.78125 
Q 43.3125 58.59375 39.234375 62.25 
Q 35.15625 65.921875 28.609375 65.921875 
Q 23.96875 65.921875 18.8125 64.3125 
Q 13.671875 62.703125 7.8125 59.421875 
L 7.8125 69.390625 
Q 13.765625 71.78125 18.9375 73 
Q 24.125 74.21875 28.421875 74.21875 
Q 39.75 74.21875 46.484375 68.546875 
Q 53.21875 62.890625 53.21875 53.421875 
Q 53.21875 48.921875 51.53125 44.890625 
Q 49.859375 40.875 45.40625 35.40625 
Q 44.1875 33.984375 37.640625 27.21875 
Q 31.109375 20.453125 19.1875 8.296875 
z
" id="DejaVuSans-50"/>
      <path d="M 14.796875 27.296875 
Q 14.796875 17.390625 18.875 11.75 
Q 22.953125 6.109375 30.078125 6.109375 
Q 37.203125 6.109375 41.296875 11.75 
Q 45.40625 17.390625 45.40625 27.296875 
Q 45.40625 37.203125 41.296875 42.84375 
Q 37.203125 48.484375 30.078125 48.484375 
Q 22.953125 48.484375 18.875 42.84375 
Q 14.796875 37.203125 14.796875 27.296875 
z
M 45.40625 8.203125 
Q 42.578125 3.328125 38.25 0.953125 
Q 33.9375 -1.421875 27.875 -1.421875 
Q 17.96875 -1.421875 11.734375 6.484375 
Q 5.515625 14.40625 5.515625 27.296875 
Q 5.515625 40.1875 11.734375 48.09375 
Q 17.96875 56 27.875 56 
Q 33.9375 56 38.25 53.625 
Q 42.578125 51.265625 45.40625 46.390625 
L 45.40625 54.6875 
L 54.390625 54.6875 
L 54.390625 -20.796875 
L 45.40625 -20.796875 
z
" id="DejaVuSans-113"/>
     </defs>
     <use xlink:href="#DejaVuSans-32"/>
     <use x="31.787109" xlink:href="#DejaVuSans-40"/>
     <use x="70.800781" xlink:href="#DejaVuSans-107"/>
     <use x="128.710938" xlink:href="#DejaVuSans-103"/>
     <use x="192.1875" xlink:href="#DejaVuSans-67"/>
     <use x="262.011719" xlink:href="#DejaVuSans-79"/>
     <use x="340.722656" xlink:href="#DejaVuSans-50"/>
     <use x="404.345703" xlink:href="#DejaVuSans-101"/>
     <use x="465.869141" xlink:href="#DejaVuSans-113"/>
     <use x="529.345703" xlink:href="#DejaVuSans-47"/>
     <use x="563.037109" xlink:href="#DejaVuSans-104"/>
     <use x="626.416016" xlink:href="#DejaVuSans-111"/>
     <use x="687.597656" xlink:href="#DejaVuSans-117"/>
     <use x="750.976562" xlink:href="#DejaVuSans-115"/>
     <use x="803.076172" xlink:href="#DejaVuSans-101"/>
     <use x="864.599609" xlink:href="#DejaVuSans-45"/>
     <use x="898.933594" xlink:href="#DejaVuSans-121"/>
     <use x="958.113281" xlink:href="#DejaVuSans-114"/>
     <use x="999.226562" xlink:href="#DejaVuSans-41"/>
    </g>
   </g>
   <g id="Line3DCollection_2">
    <path d="M 124.711802 128.599635 
L 133.247517 193.358378 
L 249.842708 299.158637 
" style="fill:none;stroke:#b0b0b0;stroke-width:0.8;"/>
    <path d="M 143.749169 113.016091 
L 150.830425 178.54258 
L 267.445166 283.073499 
" style="fill:none;stroke:#b0b0b0;stroke-width:0.8;"/>
    <path d="M 162.545803 97.629607 
L 168.207295 163.900396 
L 284.832782 267.184686 
" style="fill:none;stroke:#b0b0b0;stroke-width:0.8;"/>
    <path d="M 181.106239 82.436468 
L 185.381726 149.428791 
L 302.009464 251.488623 
" style="fill:none;stroke:#b0b0b0;stroke-width:0.8;"/>
    <path d="M 199.434904 67.433053 
L 202.357236 135.124801 
L 318.979028 235.981824 
" style="fill:none;stroke:#b0b0b0;stroke-width:0.8;"/>
    <path d="M 217.53611 52.615829 
L 219.137261 120.985533 
L 335.745198 220.660888 
" style="fill:none;stroke:#b0b0b0;stroke-width:0.8;"/>
    <path d="M 235.414067 37.981352 
L 235.725159 107.008156 
L 352.311608 205.522492 
" style="fill:none;stroke:#b0b0b0;stroke-width:0.8;"/>
   </g>
   <g id="xtick_5">
    <g id="line2d_7">
     <path d="M 248.871017 298.27691 
L 251.788054 300.923874 
" style="fill:none;stroke:#000000;stroke-linecap:square;stroke-width:0.8;"/>
    </g>
    <g id="text_7">
     <!-- 0.0 -->
     <g transform="translate(249.201723 321.890105)scale(0.12 -0.12)">
      <defs>
       <path d="M 46 36.53125 
Q 46 50.203125 43.4375 55.78125 
Q 40.875 61.375 34.8125 61.375 
Q 28.765625 61.375 26.171875 55.78125 
Q 23.578125 50.203125 23.578125 36.53125 
Q 23.578125 22.703125 26.171875 17.03125 
Q 28.765625 11.375 34.8125 11.375 
Q 40.828125 11.375 43.40625 17.03125 
Q 46 22.703125 46 36.53125 
z
M 64.796875 36.375 
Q 64.796875 18.265625 56.984375 8.421875 
Q 49.171875 -1.421875 34.8125 -1.421875 
Q 20.40625 -1.421875 12.59375 8.421875 
Q 4.78125 18.265625 4.78125 36.375 
Q 4.78125 54.546875 12.59375 64.375 
Q 20.40625 74.21875 34.8125 74.21875 
Q 49.171875 74.21875 56.984375 64.375 
Q 64.796875 54.546875 64.796875 36.375 
z
" id="DejaVuSans-Bold-48"/>
       <path d="M 10.203125 18.890625 
L 27.78125 18.890625 
L 27.78125 0 
L 10.203125 0 
z
" id="DejaVuSans-Bold-46"/>
      </defs>
      <use xlink:href="#DejaVuSans-Bold-48"/>
      <use x="69.580078" xlink:href="#DejaVuSans-Bold-46"/>
      <use x="107.568359" xlink:href="#DejaVuSans-Bold-48"/>
     </g>
    </g>
   </g>
   <g id="xtick_6">
    <g id="line2d_8">
     <path d="M 266.473551 282.202565 
L 269.390348 284.817118 
" style="fill:none;stroke:#000000;stroke-linecap:square;stroke-width:0.8;"/>
    </g>
    <g id="text_8">
     <!-- 2.5 -->
     <g transform="translate(266.692043 305.768219)scale(0.12 -0.12)">
      <defs>
       <path d="M 10.59375 72.90625 
L 57.328125 72.90625 
L 57.328125 59.078125 
L 25.59375 59.078125 
L 25.59375 47.796875 
Q 27.734375 48.390625 29.90625 48.703125 
Q 32.078125 49.03125 34.421875 49.03125 
Q 47.75 49.03125 55.171875 42.359375 
Q 62.59375 35.6875 62.59375 23.78125 
Q 62.59375 11.96875 54.515625 5.265625 
Q 46.4375 -1.421875 32.078125 -1.421875 
Q 25.875 -1.421875 19.796875 -0.21875 
Q 13.71875 0.984375 7.71875 3.421875 
L 7.71875 18.21875 
Q 13.671875 14.796875 19.015625 13.078125 
Q 24.359375 11.375 29.109375 11.375 
Q 35.9375 11.375 39.859375 14.71875 
Q 43.796875 18.0625 43.796875 23.78125 
Q 43.796875 29.546875 39.859375 32.859375 
Q 35.9375 36.1875 29.109375 36.1875 
Q 25.046875 36.1875 20.453125 35.125 
Q 15.875 34.078125 10.59375 31.890625 
z
" id="DejaVuSans-Bold-53"/>
      </defs>
      <use xlink:href="#DejaVuSans-Bold-50"/>
      <use x="69.580078" xlink:href="#DejaVuSans-Bold-46"/>
      <use x="107.568359" xlink:href="#DejaVuSans-Bold-53"/>
     </g>
    </g>
   </g>
   <g id="xtick_7">
    <g id="line2d_9">
     <path d="M 283.861313 266.324347 
L 286.777658 268.907081 
" style="fill:none;stroke:#000000;stroke-linecap:square;stroke-width:0.8;"/>
    </g>
    <g id="text_9">
     <!-- 5.0 -->
     <g transform="translate(283.969504 289.842538)scale(0.12 -0.12)">
      <use xlink:href="#DejaVuSans-Bold-53"/>
      <use x="69.580078" xlink:href="#DejaVuSans-Bold-46"/>
      <use x="107.568359" xlink:href="#DejaVuSans-Bold-48"/>
     </g>
    </g>
   </g>
   <g id="xtick_8">
    <g id="line2d_10">
     <path d="M 301.03821 250.638688 
L 303.953899 253.19018 
" style="fill:none;stroke:#000000;stroke-linecap:square;stroke-width:0.8;"/>
    </g>
    <g id="text_10">
     <!-- 7.5 -->
     <g transform="translate(301.037967 274.109503)scale(0.12 -0.12)">
      <defs>
       <path d="M 6.6875 72.90625 
L 61.625 72.90625 
L 61.625 62.3125 
L 33.203125 0 
L 14.890625 0 
L 41.796875 59.078125 
L 6.6875 59.078125 
z
" id="DejaVuSans-Bold-55"/>
      </defs>
      <use xlink:href="#DejaVuSans-Bold-55"/>
      <use x="69.580078" xlink:href="#DejaVuSans-Bold-46"/>
      <use x="107.568359" xlink:href="#DejaVuSans-Bold-53"/>
     </g>
    </g>
   </g>
   <g id="xtick_9">
    <g id="line2d_11">
     <path d="M 318.008054 235.142105 
L 320.922891 237.662919 
" style="fill:none;stroke:#000000;stroke-linecap:square;stroke-width:0.8;"/>
    </g>
    <g id="text_11">
     <!-- 10.0 -->
     <g transform="translate(313.726515 258.565638)scale(0.12 -0.12)">
      <use xlink:href="#DejaVuSans-Bold-49"/>
      <use x="69.580078" xlink:href="#DejaVuSans-Bold-48"/>
      <use x="139.160156" xlink:href="#DejaVuSans-Bold-46"/>
      <use x="177.148438" xlink:href="#DejaVuSans-Bold-48"/>
     </g>
    </g>
   </g>
   <g id="xtick_10">
    <g id="line2d_12">
     <path d="M 334.774567 219.831202 
L 337.688363 222.321887 
" style="fill:none;stroke:#000000;stroke-linecap:square;stroke-width:0.8;"/>
    </g>
    <g id="text_12">
     <!-- 12.5 -->
     <g transform="translate(330.388202 243.207553)scale(0.12 -0.12)">
      <use xlink:href="#DejaVuSans-Bold-49"/>
      <use x="69.580078" xlink:href="#DejaVuSans-Bold-50"/>
      <use x="139.160156" xlink:href="#DejaVuSans-Bold-46"/>
      <use x="177.148438" xlink:href="#DejaVuSans-Bold-53"/>
     </g>
    </g>
   </g>
   <g id="xtick_11">
    <g id="line2d_13">
     <path d="M 351.341381 204.70266 
L 354.253953 207.163754 
" style="fill:none;stroke:#000000;stroke-linecap:square;stroke-width:0.8;"/>
    </g>
    <g id="text_13">
     <!-- 15.0 -->
     <g transform="translate(346.851933 228.031937)scale(0.12 -0.12)">
      <use xlink:href="#DejaVuSans-Bold-49"/>
      <use x="69.580078" xlink:href="#DejaVuSans-Bold-53"/>
      <use x="139.160156" xlink:href="#DejaVuSans-Bold-46"/>
      <use x="177.148438" xlink:href="#DejaVuSans-Bold-48"/>
     </g>
    </g>
   </g>
  </g>
  <g id="axis3d_3">
   <g id="line2d_14">
    <path d="M 356.336166 201.844848 
L 365.713097 137.532502 
" style="fill:none;stroke:#000000;stroke-linecap:square;stroke-width:0.8;"/>
   </g>
   <g id="text_14">
    <!-- Circularity -->
    <g transform="translate(424.685472 200.789693)rotate(-81.704559)scale(0.12 -0.12)">
     <use xlink:href="#DejaVuSans-67"/>
     <use x="69.824219" xlink:href="#DejaVuSans-105"/>
     <use x="97.607422" xlink:href="#DejaVuSans-114"/>
     <use x="136.470703" xlink:href="#DejaVuSans-99"/>
     <use x="191.451172" xlink:href="#DejaVuSans-117"/>
     <use x="254.830078" xlink:href="#DejaVuSans-108"/>
     <use x="282.613281" xlink:href="#DejaVuSans-97"/>
     <use x="343.892578" xlink:href="#DejaVuSans-114"/>
     <use x="385.005859" xlink:href="#DejaVuSans-105"/>
     <use x="412.789062" xlink:href="#DejaVuSans-116"/>
     <use x="451.998047" xlink:href="#DejaVuSans-121"/>
    </g>
    <!--  (Economic Perspective) -->
    <g transform="translate(431.977788 243.910471)rotate(-81.704559)scale(0.12 -0.12)">
     <defs>
      <path d="M 9.8125 72.90625 
L 55.90625 72.90625 
L 55.90625 64.59375 
L 19.671875 64.59375 
L 19.671875 43.015625 
L 54.390625 43.015625 
L 54.390625 34.71875 
L 19.671875 34.71875 
L 19.671875 8.296875 
L 56.78125 8.296875 
L 56.78125 0 
L 9.8125 0 
z
" id="DejaVuSans-69"/>
      <path d="M 18.109375 8.203125 
L 18.109375 -20.796875 
L 9.078125 -20.796875 
L 9.078125 54.6875 
L 18.109375 54.6875 
L 18.109375 46.390625 
Q 20.953125 51.265625 25.265625 53.625 
Q 29.59375 56 35.59375 56 
Q 45.5625 56 51.78125 48.09375 
Q 58.015625 40.1875 58.015625 27.296875 
Q 58.015625 14.40625 51.78125 6.484375 
Q 45.5625 -1.421875 35.59375 -1.421875 
Q 29.59375 -1.421875 25.265625 0.953125 
Q 20.953125 3.328125 18.109375 8.203125 
z
M 48.6875 27.296875 
Q 48.6875 37.203125 44.609375 42.84375 
Q 40.53125 48.484375 33.40625 48.484375 
Q 26.265625 48.484375 22.1875 42.84375 
Q 18.109375 37.203125 18.109375 27.296875 
Q 18.109375 17.390625 22.1875 11.75 
Q 26.265625 6.109375 33.40625 6.109375 
Q 40.53125 6.109375 44.609375 11.75 
Q 48.6875 17.390625 48.6875 27.296875 
z
" id="DejaVuSans-112"/>
      <path d="M 2.984375 54.6875 
L 12.5 54.6875 
L 29.59375 8.796875 
L 46.6875 54.6875 
L 56.203125 54.6875 
L 35.6875 0 
L 23.484375 0 
z
" id="DejaVuSans-118"/>
     </defs>
     <use xlink:href="#DejaVuSans-32"/>
     <use x="31.787109" xlink:href="#DejaVuSans-40"/>
     <use x="70.800781" xlink:href="#DejaVuSans-69"/>
     <use x="133.984375" xlink:href="#DejaVuSans-99"/>
     <use x="188.964844" xlink:href="#DejaVuSans-111"/>
     <use x="250.146484" xlink:href="#DejaVuSans-110"/>
     <use x="313.525391" xlink:href="#DejaVuSans-111"/>
     <use x="374.707031" xlink:href="#DejaVuSans-109"/>
     <use x="472.119141" xlink:href="#DejaVuSans-105"/>
     <use x="499.902344" xlink:href="#DejaVuSans-99"/>
     <use x="554.882812" xlink:href="#DejaVuSans-32"/>
     <use x="586.669922" xlink:href="#DejaVuSans-80"/>
     <use x="643.347656" xlink:href="#DejaVuSans-101"/>
     <use x="704.871094" xlink:href="#DejaVuSans-114"/>
     <use x="745.984375" xlink:href="#DejaVuSans-115"/>
     <use x="798.083984" xlink:href="#DejaVuSans-112"/>
     <use x="861.560547" xlink:href="#DejaVuSans-101"/>
     <use x="923.083984" xlink:href="#DejaVuSans-99"/>
     <use x="978.064453" xlink:href="#DejaVuSans-116"/>
     <use x="1017.273438" xlink:href="#DejaVuSans-105"/>
     <use x="1045.056641" xlink:href="#DejaVuSans-118"/>
     <use x="1104.236328" xlink:href="#DejaVuSans-101"/>
     <use x="1165.759766" xlink:href="#DejaVuSans-41"/>
    </g>
   </g>
   <g id="Line3DCollection_3">
    <path d="M 356.891086 198.03889 
L 239.756108 99.505223 
L 122.62113 198.03889 
" style="fill:none;stroke:#b0b0b0;stroke-width:0.8;"/>
    <path d="M 358.150251 189.402817 
L 239.756108 90.193167 
L 121.361965 189.402817 
" style="fill:none;stroke:#b0b0b0;stroke-width:0.8;"/>
    <path d="M 359.436782 180.579056 
L 239.756108 80.686816 
L 120.075434 180.579056 
" style="fill:none;stroke:#b0b0b0;stroke-width:0.8;"/>
    <path d="M 360.75158 171.561421 
L 239.756108 70.980023 
L 118.760637 171.561421 
" style="fill:none;stroke:#b0b0b0;stroke-width:0.8;"/>
    <path d="M 362.095587 162.343453 
L 239.756108 61.066383 
L 117.416629 162.343453 
" style="fill:none;stroke:#b0b0b0;stroke-width:0.8;"/>
    <path d="M 363.469787 152.918399 
L 239.756108 50.939211 
L 116.042429 152.918399 
" style="fill:none;stroke:#b0b0b0;stroke-width:0.8;"/>
    <path d="M 364.875211 143.279203 
L 239.756108 40.591534 
L 114.637005 143.279203 
" style="fill:none;stroke:#b0b0b0;stroke-width:0.8;"/>
   </g>
   <g id="xtick_12">
    <g id="line2d_15">
     <path d="M 355.91617 197.218792 
L 358.842826 199.680688 
" style="fill:none;stroke:#000000;stroke-linecap:square;stroke-width:0.8;"/>
    </g>
    <g id="text_15">
     <!-- 0.0 -->
     <g transform="translate(365.700632 207.157015)scale(0.12 -0.12)">
      <use xlink:href="#DejaVuSans-Bold-48"/>
      <use x="69.580078" xlink:href="#DejaVuSans-Bold-46"/>
      <use x="107.568359" xlink:href="#DejaVuSans-Bold-48"/>
     </g>
    </g>
   </g>
   <g id="xtick_13">
    <g id="line2d_16">
     <path d="M 357.164444 188.576749 
L 360.123815 191.056585 
" style="fill:none;stroke:#000000;stroke-linecap:square;stroke-width:0.8;"/>
    </g>
    <g id="text_16">
     <!-- 0.1 -->
     <g transform="translate(367.16875 198.520942)scale(0.12 -0.12)">
      <use xlink:href="#DejaVuSans-Bold-48"/>
      <use x="69.580078" xlink:href="#DejaVuSans-Bold-46"/>
      <use x="107.568359" xlink:href="#DejaVuSans-Bold-49"/>
     </g>
    </g>
   </g>
   <g id="xtick_14">
    <g id="line2d_17">
     <path d="M 358.439838 179.74695 
L 361.432662 182.24493 
" style="fill:none;stroke:#000000;stroke-linecap:square;stroke-width:0.8;"/>
    </g>
    <g id="text_17">
     <!-- 0.2 -->
     <g transform="translate(368.668774 189.697181)scale(0.12 -0.12)">
      <use xlink:href="#DejaVuSans-Bold-48"/>
      <use x="69.580078" xlink:href="#DejaVuSans-Bold-46"/>
      <use x="107.568359" xlink:href="#DejaVuSans-Bold-50"/>
     </g>
    </g>
   </g>
   <g id="xtick_15">
    <g id="line2d_18">
     <path d="M 359.743245 170.72321 
L 362.770286 173.239537 
" style="fill:none;stroke:#000000;stroke-linecap:square;stroke-width:0.8;"/>
    </g>
    <g id="text_18">
     <!-- 0.3 -->
     <g transform="translate(370.201756 180.679546)scale(0.12 -0.12)">
      <use xlink:href="#DejaVuSans-Bold-48"/>
      <use x="69.580078" xlink:href="#DejaVuSans-Bold-46"/>
      <use x="107.568359" xlink:href="#DejaVuSans-Bold-51"/>
     </g>
    </g>
   </g>
   <g id="xtick_16">
    <g id="line2d_19">
     <path d="M 361.075598 161.499069 
L 364.137648 164.033945 
" style="fill:none;stroke:#000000;stroke-linecap:square;stroke-width:0.8;"/>
    </g>
    <g id="text_19">
     <!-- 0.4 -->
     <g transform="translate(371.768794 171.461578)scale(0.12 -0.12)">
      <use xlink:href="#DejaVuSans-Bold-48"/>
      <use x="69.580078" xlink:href="#DejaVuSans-Bold-46"/>
      <use x="107.568359" xlink:href="#DejaVuSans-Bold-52"/>
     </g>
    </g>
   </g>
   <g id="xtick_17">
    <g id="line2d_20">
     <path d="M 362.437873 152.067775 
L 365.535748 154.621404 
" style="fill:none;stroke:#000000;stroke-linecap:square;stroke-width:0.8;"/>
    </g>
    <g id="text_20">
     <!-- 0.5 -->
     <g transform="translate(373.371037 162.036524)scale(0.12 -0.12)">
      <use xlink:href="#DejaVuSans-Bold-48"/>
      <use x="69.580078" xlink:href="#DejaVuSans-Bold-46"/>
      <use x="107.568359" xlink:href="#DejaVuSans-Bold-53"/>
     </g>
    </g>
   </g>
   <g id="xtick_18">
    <g id="line2d_21">
     <path d="M 363.831089 142.422272 
L 366.965636 144.994856 
" style="fill:none;stroke:#000000;stroke-linecap:square;stroke-width:0.8;"/>
    </g>
    <g id="text_21">
     <!-- 0.6 -->
     <g transform="translate(375.009684 152.397328)scale(0.12 -0.12)">
      <defs>
       <path d="M 36.1875 35.984375 
Q 31.25 35.984375 28.78125 32.78125 
Q 26.3125 29.59375 26.3125 23.1875 
Q 26.3125 16.796875 28.78125 13.59375 
Q 31.25 10.40625 36.1875 10.40625 
Q 41.15625 10.40625 43.625 13.59375 
Q 46.09375 16.796875 46.09375 23.1875 
Q 46.09375 29.59375 43.625 32.78125 
Q 41.15625 35.984375 36.1875 35.984375 
z
M 59.421875 71 
L 59.421875 57.515625 
Q 54.78125 59.71875 50.671875 60.765625 
Q 46.578125 61.8125 42.671875 61.8125 
Q 34.28125 61.8125 29.59375 57.140625 
Q 24.90625 52.484375 24.125 43.3125 
Q 27.34375 45.703125 31.09375 46.890625 
Q 34.859375 48.09375 39.3125 48.09375 
Q 50.484375 48.09375 57.34375 41.546875 
Q 64.203125 35.015625 64.203125 24.421875 
Q 64.203125 12.703125 56.53125 5.640625 
Q 48.875 -1.421875 35.984375 -1.421875 
Q 21.78125 -1.421875 13.984375 8.171875 
Q 6.203125 17.78125 6.203125 35.40625 
Q 6.203125 53.46875 15.3125 63.796875 
Q 24.421875 74.125 40.28125 74.125 
Q 45.3125 74.125 50.046875 73.34375 
Q 54.78125 72.5625 59.421875 71 
z
" id="DejaVuSans-Bold-54"/>
      </defs>
      <use xlink:href="#DejaVuSans-Bold-48"/>
      <use x="69.580078" xlink:href="#DejaVuSans-Bold-46"/>
      <use x="107.568359" xlink:href="#DejaVuSans-Bold-54"/>
     </g>
    </g>
   </g>
  </g>
  <g id="axes_1">
   <g id="Poly3DCollection_1">
    <path clip-path="url(#p1faacc5509)" d="M 160.803244 178.362861 
L 164.802877 159.078874 
L 161.263271 177.547402 
z
" style="fill:#0000e8;fill-opacity:0.5;"/>
    <path clip-path="url(#p1faacc5509)" d="M 160.803244 178.362861 
L 158.564706 180.439505 
L 160.836652 149.783917 
z
" style="fill:#0000e9;fill-opacity:0.5;"/>
    <path clip-path="url(#p1faacc5509)" d="M 167.750002 155.715637 
L 161.263271 177.547402 
L 164.802877 159.078874 
z
" style="fill:#0000ea;fill-opacity:0.5;"/>
    <path clip-path="url(#p1faacc5509)" d="M 160.836652 149.783917 
L 158.564706 180.439505 
L 169.60594 227.154991 
z
" style="fill:#0000f8;fill-opacity:0.5;"/>
    <path clip-path="url(#p1faacc5509)" d="M 239.173408 245.61565 
L 177.914666 193.17713 
L 169.60594 227.154991 
z
" style="fill:#0000c6;fill-opacity:0.5;"/>
    <path clip-path="url(#p1faacc5509)" d="M 164.802877 159.078874 
L 177.914666 193.17713 
L 167.750002 155.715637 
z
" style="fill:#0000a4;fill-opacity:0.5;"/>
    <path clip-path="url(#p1faacc5509)" d="M 195.093399 141.201044 
L 161.263271 177.547402 
L 167.750002 155.715637 
z
" style="fill:#0000cf;fill-opacity:0.5;"/>
    <path clip-path="url(#p1faacc5509)" d="M 160.836652 149.783917 
L 164.802877 159.078874 
L 160.803244 178.362861 
z
" style="fill:#0000d9;fill-opacity:0.5;"/>
    <path clip-path="url(#p1faacc5509)" d="M 177.914666 193.17713 
L 169.85319 149.074455 
L 167.750002 155.715637 
z
" style="fill:#0000e2;fill-opacity:0.5;"/>
    <path clip-path="url(#p1faacc5509)" d="M 169.60594 227.154991 
L 177.914666 193.17713 
L 160.836652 149.783917 
z
" style="fill:#00009a;fill-opacity:0.5;"/>
    <path clip-path="url(#p1faacc5509)" d="M 160.836652 149.783917 
L 177.914666 193.17713 
L 164.802877 159.078874 
z
" style="fill:#00008f;fill-opacity:0.5;"/>
    <path clip-path="url(#p1faacc5509)" d="M 173.174263 139.593172 
L 169.85319 149.074455 
L 177.914666 193.17713 
z
" style="fill:#0000e3;fill-opacity:0.5;"/>
    <path clip-path="url(#p1faacc5509)" d="M 169.60594 227.154991 
L 247.471078 252.852383 
L 239.173408 245.61565 
z
" style="fill:#0000c5;fill-opacity:0.5;"/>
    <path clip-path="url(#p1faacc5509)" d="M 177.914666 193.17713 
L 239.173408 245.61565 
L 173.174263 139.593172 
z
" style="fill:#0000d3;fill-opacity:0.5;"/>
    <path clip-path="url(#p1faacc5509)" d="M 167.750002 155.715637 
L 169.85319 149.074455 
L 195.093399 141.201044 
z
" style="fill:#0000cf;fill-opacity:0.5;"/>
    <path clip-path="url(#p1faacc5509)" d="M 209.20929 153.775757 
L 239.173408 245.61565 
L 247.471078 252.852383 
z
" style="fill:#0000ca;fill-opacity:0.5;"/>
    <path clip-path="url(#p1faacc5509)" d="M 169.85319 149.074455 
L 179.139196 139.901716 
L 195.093399 141.201044 
z
" style="fill:#0000d8;fill-opacity:0.5;"/>
    <path clip-path="url(#p1faacc5509)" d="M 179.139196 139.901716 
L 169.85319 149.074455 
L 173.174263 139.593172 
z
" style="fill:#0000cf;fill-opacity:0.5;"/>
    <path clip-path="url(#p1faacc5509)" d="M 239.173408 245.61565 
L 179.139196 139.901716 
L 173.174263 139.593172 
z
" style="fill:#0000bf;fill-opacity:0.5;"/>
    <path clip-path="url(#p1faacc5509)" d="M 239.173408 245.61565 
L 209.20929 153.775757 
L 184.299719 140.20579 
z
" style="fill:#0000be;fill-opacity:0.5;"/>
    <path clip-path="url(#p1faacc5509)" d="M 184.299719 140.20579 
L 179.139196 139.901716 
L 239.173408 245.61565 
z
" style="fill:#0000bf;fill-opacity:0.5;"/>
    <path clip-path="url(#p1faacc5509)" d="M 239.9303 153.508324 
L 232.654646 144.026302 
L 247.471078 252.852383 
z
" style="fill:#0000aa;fill-opacity:0.5;"/>
    <path clip-path="url(#p1faacc5509)" d="M 232.654646 144.026302 
L 209.20929 153.775757 
L 247.471078 252.852383 
z
" style="fill:#0000c1;fill-opacity:0.5;"/>
    <path clip-path="url(#p1faacc5509)" d="M 247.471078 252.852383 
L 292.588657 169.872439 
L 239.9303 153.508324 
z
" style="fill:#0000c4;fill-opacity:0.5;"/>
    <path clip-path="url(#p1faacc5509)" d="M 195.093399 141.201044 
L 179.139196 139.901716 
L 184.299719 140.20579 
z
" style="fill:#0000ce;fill-opacity:0.5;"/>
    <path clip-path="url(#p1faacc5509)" d="M 195.093399 141.201044 
L 184.299719 140.20579 
L 195.155057 140.93813 
z
" style="fill:#0000ce;fill-opacity:0.5;"/>
    <path clip-path="url(#p1faacc5509)" d="M 195.155057 140.93813 
L 184.299719 140.20579 
L 209.20929 153.775757 
z
" style="fill:#0000bc;fill-opacity:0.5;"/>
    <path clip-path="url(#p1faacc5509)" d="M 195.093399 141.201044 
L 195.155057 140.93813 
L 199.065823 141.227408 
z
" style="fill:#0000ce;fill-opacity:0.5;"/>
    <path clip-path="url(#p1faacc5509)" d="M 199.065823 141.227408 
L 195.155057 140.93813 
L 209.20929 153.775757 
z
" style="fill:#0000bc;fill-opacity:0.5;"/>
    <path clip-path="url(#p1faacc5509)" d="M 205.009074 141.682594 
L 205.988202 141.883628 
L 195.093399 141.201044 
z
" style="fill:#0000ce;fill-opacity:0.5;"/>
    <path clip-path="url(#p1faacc5509)" d="M 209.20929 153.775757 
L 205.988202 141.883628 
L 205.009074 141.682594 
z
" style="fill:#0000b0;fill-opacity:0.5;"/>
    <path clip-path="url(#p1faacc5509)" d="M 195.093399 141.201044 
L 199.065823 141.227408 
L 205.009074 141.682594 
z
" style="fill:#0000ce;fill-opacity:0.5;"/>
    <path clip-path="url(#p1faacc5509)" d="M 205.009074 141.682594 
L 199.065823 141.227408 
L 209.20929 153.775757 
z
" style="fill:#0000bc;fill-opacity:0.5;"/>
    <path clip-path="url(#p1faacc5509)" d="M 205.988202 141.883628 
L 232.654646 144.026302 
L 195.093399 141.201044 
z
" style="fill:#0000ce;fill-opacity:0.5;"/>
    <path clip-path="url(#p1faacc5509)" d="M 209.20929 153.775757 
L 232.654646 144.026302 
L 205.988202 141.883628 
z
" style="fill:#0000be;fill-opacity:0.5;"/>
    <path clip-path="url(#p1faacc5509)" d="M 247.814775 145.420443 
L 232.654646 144.026302 
L 239.9303 153.508324 
z
" style="fill:#000095;fill-opacity:0.5;"/>
    <path clip-path="url(#p1faacc5509)" d="M 247.814775 145.420443 
L 195.093399 141.201044 
L 232.654646 144.026302 
z
" style="fill:#0000cf;fill-opacity:0.5;"/>
    <path clip-path="url(#p1faacc5509)" d="M 239.9303 153.508324 
L 292.588657 169.872439 
L 247.814775 145.420443 
z
" style="fill:#0000bc;fill-opacity:0.5;"/>
    <path clip-path="url(#p1faacc5509)" d="M 270.357509 147.579658 
L 195.093399 141.201044 
L 247.814775 145.420443 
z
" style="fill:#0000d0;fill-opacity:0.5;"/>
    <path clip-path="url(#p1faacc5509)" d="M 292.588657 169.872439 
L 247.471078 252.852383 
L 347.408801 155.398698 
z
" style="fill:#0000bc;fill-opacity:0.5;"/>
    <path clip-path="url(#p1faacc5509)" d="M 270.357509 147.579658 
L 308.227767 151.369899 
L 195.093399 141.201044 
z
" style="fill:#0000d1;fill-opacity:0.5;"/>
    <path clip-path="url(#p1faacc5509)" d="M 266.835132 154.248588 
L 270.357509 147.579658 
L 247.814775 145.420443 
z
" style="fill:#0000b9;fill-opacity:0.5;"/>
    <path clip-path="url(#p1faacc5509)" d="M 247.814775 145.420443 
L 292.588657 169.872439 
L 266.835132 154.248588 
z
" style="fill:#0000c2;fill-opacity:0.5;"/>
    <path clip-path="url(#p1faacc5509)" d="M 292.588657 169.872439 
L 270.357509 147.579658 
L 266.835132 154.248588 
z
" style="fill:#0000c3;fill-opacity:0.5;"/>
    <path clip-path="url(#p1faacc5509)" d="M 195.093399 141.201044 
L 308.227767 151.369899 
L 346.242674 155.279324 
z
" style="fill:#0000d2;fill-opacity:0.5;"/>
    <path clip-path="url(#p1faacc5509)" d="M 347.408801 155.398698 
L 195.093399 141.201044 
L 346.242674 155.279324 
z
" style="fill:#0000d2;fill-opacity:0.5;"/>
    <path clip-path="url(#p1faacc5509)" d="M 292.588657 169.872439 
L 308.227767 151.369899 
L 270.357509 147.579658 
z
" style="fill:#0000c1;fill-opacity:0.5;"/>
    <path clip-path="url(#p1faacc5509)" d="M 346.194808 155.27446 
L 308.227767 151.369899 
L 292.588657 169.872439 
z
" style="fill:#0000c0;fill-opacity:0.5;"/>
    <path clip-path="url(#p1faacc5509)" d="M 346.194808 155.27446 
L 292.588657 169.872439 
L 347.408801 155.398698 
z
" style="fill:#0000c1;fill-opacity:0.5;"/>
    <path clip-path="url(#p1faacc5509)" d="M 346.194808 155.27446 
L 346.242674 155.279324 
L 308.227767 151.369899 
z
" style="fill:#0000cb;fill-opacity:0.5;"/>
    <path clip-path="url(#p1faacc5509)" d="M 347.408801 155.398698 
L 346.242674 155.279324 
L 346.194808 155.27446 
z
" style="fill:#0000cb;fill-opacity:0.5;"/>
   </g>
   <g id="Path3DCollection_1">
    <defs>
     <path d="M 0 1.369306 
C 0.363144 1.369306 0.711464 1.225028 0.968246 0.968246 
C 1.225028 0.711464 1.369306 0.363144 1.369306 -0 
C 1.369306 -0.363144 1.225028 -0.711464 0.968246 -0.968246 
C 0.711464 -1.225028 0.363144 -1.369306 0 -1.369306 
C -0.363144 -1.369306 -0.711464 -1.225028 -0.968246 -0.968246 
C -1.225028 -0.711464 -1.369306 -0.363144 -1.369306 0 
C -1.369306 0.363144 -1.225028 0.711464 -0.968246 0.968246 
C -0.711464 1.225028 -0.363144 1.369306 0 1.369306 
z
" id="C0_0_7567cb2765"/>
    </defs>
    <g clip-path="url(#p1faacc5509)">
     <use style="fill-opacity:0.7;stroke:#000000;stroke-opacity:0.7;" x="160.803244" xlink:href="#C0_0_7567cb2765" y="178.362861"/>
    </g>
    <g clip-path="url(#p1faacc5509)">
     <use style="fill-opacity:0.7;stroke:#000000;stroke-opacity:0.7;" x="161.263271" xlink:href="#C0_0_7567cb2765" y="177.547402"/>
    </g>
    <g clip-path="url(#p1faacc5509)">
     <use style="fill-opacity:0.7;stroke:#000000;stroke-opacity:0.7;" x="161.263271" xlink:href="#C0_0_7567cb2765" y="177.547402"/>
    </g>
    <g clip-path="url(#p1faacc5509)">
     <use style="fill-opacity:0.7;stroke:#000000;stroke-opacity:0.7;" x="161.263271" xlink:href="#C0_0_7567cb2765" y="177.547402"/>
    </g>
    <g clip-path="url(#p1faacc5509)">
     <use style="fill-opacity:0.7;stroke:#000000;stroke-opacity:0.7;" x="161.263271" xlink:href="#C0_0_7567cb2765" y="177.547402"/>
    </g>
    <g clip-path="url(#p1faacc5509)">
     <use style="fill-opacity:0.7;stroke:#000000;stroke-opacity:0.7;" x="158.564706" xlink:href="#C0_0_7567cb2765" y="180.439505"/>
    </g>
    <g clip-path="url(#p1faacc5509)">
     <use style="fill-opacity:0.7;stroke:#000000;stroke-opacity:0.7;" x="177.914666" xlink:href="#C0_0_7567cb2765" y="193.17713"/>
    </g>
    <g clip-path="url(#p1faacc5509)">
     <use style="fill-opacity:0.7;stroke:#000000;stroke-opacity:0.7;" x="169.60594" xlink:href="#C0_0_7567cb2765" y="227.154991"/>
    </g>
    <g clip-path="url(#p1faacc5509)">
     <use style="fill-opacity:0.7;stroke:#000000;stroke-opacity:0.7;" x="167.750002" xlink:href="#C0_0_7567cb2765" y="155.715637"/>
    </g>
    <g clip-path="url(#p1faacc5509)">
     <use style="fill-opacity:0.7;stroke:#000000;stroke-opacity:0.7;" x="164.802877" xlink:href="#C0_0_7567cb2765" y="159.078874"/>
    </g>
    <g clip-path="url(#p1faacc5509)">
     <use style="fill-opacity:0.7;stroke:#000000;stroke-opacity:0.7;" x="169.85319" xlink:href="#C0_0_7567cb2765" y="149.074455"/>
    </g>
    <g clip-path="url(#p1faacc5509)">
     <use style="fill-opacity:0.7;stroke:#000000;stroke-opacity:0.7;" x="239.173408" xlink:href="#C0_0_7567cb2765" y="245.61565"/>
    </g>
    <g clip-path="url(#p1faacc5509)">
     <use style="fill-opacity:0.7;stroke:#000000;stroke-opacity:0.7;" x="247.471078" xlink:href="#C0_0_7567cb2765" y="252.852383"/>
    </g>
    <g clip-path="url(#p1faacc5509)">
     <use style="fill-opacity:0.7;stroke:#000000;stroke-opacity:0.7;" x="239.9303" xlink:href="#C0_0_7567cb2765" y="153.508324"/>
    </g>
    <g clip-path="url(#p1faacc5509)">
     <use style="fill-opacity:0.7;stroke:#000000;stroke-opacity:0.7;" x="160.836652" xlink:href="#C0_0_7567cb2765" y="149.783917"/>
    </g>
    <g clip-path="url(#p1faacc5509)">
     <use style="fill-opacity:0.7;stroke:#000000;stroke-opacity:0.7;" x="160.836652" xlink:href="#C0_0_7567cb2765" y="149.783917"/>
    </g>
    <g clip-path="url(#p1faacc5509)">
     <use style="fill-opacity:0.7;stroke:#000000;stroke-opacity:0.7;" x="195.093399" xlink:href="#C0_0_7567cb2765" y="141.201044"/>
    </g>
    <g clip-path="url(#p1faacc5509)">
     <use style="fill-opacity:0.7;stroke:#000000;stroke-opacity:0.7;" x="209.20929" xlink:href="#C0_0_7567cb2765" y="153.775757"/>
    </g>
    <g clip-path="url(#p1faacc5509)">
     <use style="fill-opacity:0.7;stroke:#000000;stroke-opacity:0.7;" x="173.174263" xlink:href="#C0_0_7567cb2765" y="139.593172"/>
    </g>
    <g clip-path="url(#p1faacc5509)">
     <use style="fill-opacity:0.7;stroke:#000000;stroke-opacity:0.7;" x="179.139196" xlink:href="#C0_0_7567cb2765" y="139.901716"/>
    </g>
    <g clip-path="url(#p1faacc5509)">
     <use style="fill-opacity:0.7;stroke:#000000;stroke-opacity:0.7;" x="179.139196" xlink:href="#C0_0_7567cb2765" y="139.901716"/>
    </g>
    <g clip-path="url(#p1faacc5509)">
     <use style="fill-opacity:0.7;stroke:#000000;stroke-opacity:0.7;" x="184.299719" xlink:href="#C0_0_7567cb2765" y="140.20579"/>
    </g>
    <g clip-path="url(#p1faacc5509)">
     <use style="fill-opacity:0.7;stroke:#000000;stroke-opacity:0.7;" x="195.155057" xlink:href="#C0_0_7567cb2765" y="140.93813"/>
    </g>
    <g clip-path="url(#p1faacc5509)">
     <use style="fill-opacity:0.7;stroke:#000000;stroke-opacity:0.7;" x="195.155057" xlink:href="#C0_0_7567cb2765" y="140.93813"/>
    </g>
    <g clip-path="url(#p1faacc5509)">
     <use style="fill-opacity:0.7;stroke:#000000;stroke-opacity:0.7;" x="195.155057" xlink:href="#C0_0_7567cb2765" y="140.93813"/>
    </g>
    <g clip-path="url(#p1faacc5509)">
     <use style="fill-opacity:0.7;stroke:#000000;stroke-opacity:0.7;" x="195.155057" xlink:href="#C0_0_7567cb2765" y="140.93813"/>
    </g>
    <g clip-path="url(#p1faacc5509)">
     <use style="fill-opacity:0.7;stroke:#000000;stroke-opacity:0.7;" x="195.155057" xlink:href="#C0_0_7567cb2765" y="140.93813"/>
    </g>
    <g clip-path="url(#p1faacc5509)">
     <use style="fill-opacity:0.7;stroke:#000000;stroke-opacity:0.7;" x="205.988202" xlink:href="#C0_0_7567cb2765" y="141.883628"/>
    </g>
    <g clip-path="url(#p1faacc5509)">
     <use style="fill-opacity:0.7;stroke:#000000;stroke-opacity:0.7;" x="199.065823" xlink:href="#C0_0_7567cb2765" y="141.227408"/>
    </g>
    <g clip-path="url(#p1faacc5509)">
     <use style="fill-opacity:0.7;stroke:#000000;stroke-opacity:0.7;" x="199.065823" xlink:href="#C0_0_7567cb2765" y="141.227408"/>
    </g>
    <g clip-path="url(#p1faacc5509)">
     <use style="fill-opacity:0.7;stroke:#000000;stroke-opacity:0.7;" x="199.065823" xlink:href="#C0_0_7567cb2765" y="141.227408"/>
    </g>
    <g clip-path="url(#p1faacc5509)">
     <use style="fill-opacity:0.7;stroke:#000000;stroke-opacity:0.7;" x="199.065823" xlink:href="#C0_0_7567cb2765" y="141.227408"/>
    </g>
    <g clip-path="url(#p1faacc5509)">
     <use style="fill-opacity:0.7;stroke:#000000;stroke-opacity:0.7;" x="205.009074" xlink:href="#C0_0_7567cb2765" y="141.682594"/>
    </g>
    <g clip-path="url(#p1faacc5509)">
     <use style="fill-opacity:0.7;stroke:#000000;stroke-opacity:0.7;" x="266.835132" xlink:href="#C0_0_7567cb2765" y="154.248588"/>
    </g>
    <g clip-path="url(#p1faacc5509)">
     <use style="fill-opacity:0.7;stroke:#000000;stroke-opacity:0.7;" x="232.654646" xlink:href="#C0_0_7567cb2765" y="144.026302"/>
    </g>
    <g clip-path="url(#p1faacc5509)">
     <use style="fill-opacity:0.7;stroke:#000000;stroke-opacity:0.7;" x="232.654646" xlink:href="#C0_0_7567cb2765" y="144.026302"/>
    </g>
    <g clip-path="url(#p1faacc5509)">
     <use style="fill-opacity:0.7;stroke:#000000;stroke-opacity:0.7;" x="232.654646" xlink:href="#C0_0_7567cb2765" y="144.026302"/>
    </g>
    <g clip-path="url(#p1faacc5509)">
     <use style="fill-opacity:0.7;stroke:#000000;stroke-opacity:0.7;" x="247.814775" xlink:href="#C0_0_7567cb2765" y="145.420443"/>
    </g>
    <g clip-path="url(#p1faacc5509)">
     <use style="fill-opacity:0.7;stroke:#000000;stroke-opacity:0.7;" x="247.814775" xlink:href="#C0_0_7567cb2765" y="145.420443"/>
    </g>
    <g clip-path="url(#p1faacc5509)">
     <use style="fill-opacity:0.7;stroke:#000000;stroke-opacity:0.7;" x="270.357509" xlink:href="#C0_0_7567cb2765" y="147.579658"/>
    </g>
    <g clip-path="url(#p1faacc5509)">
     <use style="fill-opacity:0.7;stroke:#000000;stroke-opacity:0.7;" x="270.357509" xlink:href="#C0_0_7567cb2765" y="147.579658"/>
    </g>
    <g clip-path="url(#p1faacc5509)">
     <use style="fill-opacity:0.7;stroke:#000000;stroke-opacity:0.7;" x="270.357509" xlink:href="#C0_0_7567cb2765" y="147.579658"/>
    </g>
    <g clip-path="url(#p1faacc5509)">
     <use style="fill-opacity:0.7;stroke:#000000;stroke-opacity:0.7;" x="292.588657" xlink:href="#C0_0_7567cb2765" y="169.872439"/>
    </g>
    <g clip-path="url(#p1faacc5509)">
     <use style="fill-opacity:0.7;stroke:#000000;stroke-opacity:0.7;" x="308.227767" xlink:href="#C0_0_7567cb2765" y="151.369899"/>
    </g>
    <g clip-path="url(#p1faacc5509)">
     <use style="fill-opacity:0.7;stroke:#000000;stroke-opacity:0.7;" x="346.194808" xlink:href="#C0_0_7567cb2765" y="155.27446"/>
    </g>
    <g clip-path="url(#p1faacc5509)">
     <use style="fill-opacity:0.7;stroke:#000000;stroke-opacity:0.7;" x="346.242674" xlink:href="#C0_0_7567cb2765" y="155.279324"/>
    </g>
    <g clip-path="url(#p1faacc5509)">
     <use style="fill-opacity:0.7;stroke:#000000;stroke-opacity:0.7;" x="347.408801" xlink:href="#C0_0_7567cb2765" y="155.398698"/>
    </g>
   </g>
   <g id="Poly3DCollection_2">
    <path clip-path="url(#p1faacc5509)" d="M 258.678158 165.386954 
L 260.429834 164.810453 
L 241.180366 186.769061 
z
" style="fill:#e40000;fill-opacity:0.5;"/>
    <path clip-path="url(#p1faacc5509)" d="M 258.211243 165.997021 
L 258.678158 165.386954 
L 241.180366 186.769061 
z
" style="fill:#e10000;fill-opacity:0.5;"/>
    <path clip-path="url(#p1faacc5509)" d="M 241.180366 186.769061 
L 249.543884 175.780021 
L 258.211243 165.997021 
z
" style="fill:#e20000;fill-opacity:0.5;"/>
    <path clip-path="url(#p1faacc5509)" d="M 241.180366 186.769061 
L 258.302068 169.652641 
L 249.543884 175.780021 
z
" style="fill:#eb0000;fill-opacity:0.5;"/>
    <path clip-path="url(#p1faacc5509)" d="M 260.429834 164.810453 
L 258.678158 165.386954 
L 267.179556 158.314741 
z
" style="fill:#da0000;fill-opacity:0.5;"/>
    <path clip-path="url(#p1faacc5509)" d="M 258.211243 165.997021 
L 249.543884 175.780021 
L 258.302068 169.652641 
z
" style="fill:#dc0000;fill-opacity:0.5;"/>
    <path clip-path="url(#p1faacc5509)" d="M 258.211243 165.997021 
L 267.179556 158.314741 
L 258.678158 165.386954 
z
" style="fill:#de0000;fill-opacity:0.5;"/>
    <path clip-path="url(#p1faacc5509)" d="M 258.302068 169.652641 
L 267.179556 158.314741 
L 258.211243 165.997021 
z
" style="fill:#de0000;fill-opacity:0.5;"/>
    <path clip-path="url(#p1faacc5509)" d="M 279.954738 142.106054 
L 260.429834 164.810453 
L 276.079591 146.993023 
z
" style="fill:#e00000;fill-opacity:0.5;"/>
    <path clip-path="url(#p1faacc5509)" d="M 241.180366 186.769061 
L 285.745382 189.472747 
L 258.302068 169.652641 
z
" style="fill:#ed0000;fill-opacity:0.5;"/>
    <path clip-path="url(#p1faacc5509)" d="M 276.079591 146.993023 
L 260.429834 164.810453 
L 285.121941 148.481445 
z
" style="fill:#d80000;fill-opacity:0.5;"/>
    <path clip-path="url(#p1faacc5509)" d="M 267.179556 158.314741 
L 276.284809 156.132483 
L 260.429834 164.810453 
z
" style="fill:#c90000;fill-opacity:0.5;"/>
    <path clip-path="url(#p1faacc5509)" d="M 285.121941 148.481445 
L 260.429834 164.810453 
L 276.284809 156.132483 
z
" style="fill:#da0000;fill-opacity:0.5;"/>
    <path clip-path="url(#p1faacc5509)" d="M 267.179556 158.314741 
L 258.302068 169.652641 
L 267.313154 166.216895 
z
" style="fill:#d90000;fill-opacity:0.5;"/>
    <path clip-path="url(#p1faacc5509)" d="M 285.121941 148.481445 
L 279.954738 142.106054 
L 276.079591 146.993023 
z
" style="fill:#d10000;fill-opacity:0.5;"/>
    <path clip-path="url(#p1faacc5509)" d="M 267.179556 158.314741 
L 267.313154 166.216895 
L 276.284809 156.132483 
z
" style="fill:#d70000;fill-opacity:0.5;"/>
    <path clip-path="url(#p1faacc5509)" d="M 293.459065 134.690602 
L 296.176647 133.786918 
L 279.954738 142.106054 
z
" style="fill:#d90000;fill-opacity:0.5;"/>
    <path clip-path="url(#p1faacc5509)" d="M 293.231179 151.653885 
L 279.954738 142.106054 
L 285.121941 148.481445 
z
" style="fill:#cb0000;fill-opacity:0.5;"/>
    <path clip-path="url(#p1faacc5509)" d="M 279.954738 142.106054 
L 301.62549 139.509959 
L 293.459065 134.690602 
z
" style="fill:#cf0000;fill-opacity:0.5;"/>
    <path clip-path="url(#p1faacc5509)" d="M 293.231179 151.653885 
L 301.62549 139.509959 
L 279.954738 142.106054 
z
" style="fill:#d00000;fill-opacity:0.5;"/>
    <path clip-path="url(#p1faacc5509)" d="M 285.745382 189.472747 
L 267.313154 166.216895 
L 258.302068 169.652641 
z
" style="fill:#e80000;fill-opacity:0.5;"/>
    <path clip-path="url(#p1faacc5509)" d="M 296.176647 133.786918 
L 293.459065 134.690602 
L 294.847099 134.751238 
z
" style="fill:#c70000;fill-opacity:0.5;"/>
    <path clip-path="url(#p1faacc5509)" d="M 301.62549 139.509959 
L 296.176647 133.786918 
L 294.847099 134.751238 
z
" style="fill:#c70000;fill-opacity:0.5;"/>
    <path clip-path="url(#p1faacc5509)" d="M 285.121941 148.481445 
L 276.284809 156.132483 
L 282.610495 156.919458 
z
" style="fill:#d00000;fill-opacity:0.5;"/>
    <path clip-path="url(#p1faacc5509)" d="M 294.847099 134.751238 
L 293.459065 134.690602 
L 301.62549 139.509959 
z
" style="fill:#c70000;fill-opacity:0.5;"/>
    <path clip-path="url(#p1faacc5509)" d="M 276.284809 156.132483 
L 267.313154 166.216895 
L 282.610495 156.919458 
z
" style="fill:#d10000;fill-opacity:0.5;"/>
    <path clip-path="url(#p1faacc5509)" d="M 285.121941 148.481445 
L 282.610495 156.919458 
L 293.231179 151.653885 
z
" style="fill:#cb0000;fill-opacity:0.5;"/>
    <path clip-path="url(#p1faacc5509)" d="M 308.969993 132.185457 
L 296.176647 133.786918 
L 309.600399 132.361979 
z
" style="fill:#cd0000;fill-opacity:0.5;"/>
    <path clip-path="url(#p1faacc5509)" d="M 282.610495 156.919458 
L 267.313154 166.216895 
L 276.256919 170.889744 
z
" style="fill:#cc0000;fill-opacity:0.5;"/>
    <path clip-path="url(#p1faacc5509)" d="M 312.445666 144.304203 
L 296.176647 133.786918 
L 301.62549 139.509959 
z
" style="fill:#cc0000;fill-opacity:0.5;"/>
    <path clip-path="url(#p1faacc5509)" d="M 296.176647 133.786918 
L 308.969993 132.185457 
L 339.657809 135.362974 
z
" style="fill:#d30000;fill-opacity:0.5;"/>
    <path clip-path="url(#p1faacc5509)" d="M 312.445666 144.304203 
L 309.600399 132.361979 
L 296.176647 133.786918 
z
" style="fill:#cc0000;fill-opacity:0.5;"/>
    <path clip-path="url(#p1faacc5509)" d="M 285.745382 189.472747 
L 276.256919 170.889744 
L 267.313154 166.216895 
z
" style="fill:#ce0000;fill-opacity:0.5;"/>
    <path clip-path="url(#p1faacc5509)" d="M 293.231179 151.653885 
L 312.445666 144.304203 
L 301.62549 139.509959 
z
" style="fill:#cc0000;fill-opacity:0.5;"/>
    <path clip-path="url(#p1faacc5509)" d="M 308.969993 132.185457 
L 309.600399 132.361979 
L 320.347656 136.080331 
z
" style="fill:#c70000;fill-opacity:0.5;"/>
    <path clip-path="url(#p1faacc5509)" d="M 318.440938 135.891368 
L 309.600399 132.361979 
L 318.781836 143.250433 
z
" style="fill:#d00000;fill-opacity:0.5;"/>
    <path clip-path="url(#p1faacc5509)" d="M 327.056612 139.571752 
L 320.347656 136.080331 
L 318.781836 143.250433 
z
" style="fill:#bf0000;fill-opacity:0.5;"/>
    <path clip-path="url(#p1faacc5509)" d="M 309.600399 132.361979 
L 312.445666 144.304203 
L 318.781836 143.250433 
z
" style="fill:#b90000;fill-opacity:0.5;"/>
    <path clip-path="url(#p1faacc5509)" d="M 318.781836 143.250433 
L 320.347656 136.080331 
L 318.440938 135.891368 
z
" style="fill:#850000;fill-opacity:0.5;"/>
    <path clip-path="url(#p1faacc5509)" d="M 293.231179 151.653885 
L 282.610495 156.919458 
L 294.528701 163.503778 
z
" style="fill:#c80000;fill-opacity:0.5;"/>
    <path clip-path="url(#p1faacc5509)" d="M 320.347656 136.080331 
L 309.600399 132.361979 
L 318.440938 135.891368 
z
" style="fill:#c60000;fill-opacity:0.5;"/>
    <path clip-path="url(#p1faacc5509)" d="M 339.657809 135.362974 
L 308.969993 132.185457 
L 320.347656 136.080331 
z
" style="fill:#c50000;fill-opacity:0.5;"/>
    <path clip-path="url(#p1faacc5509)" d="M 318.781836 143.250433 
L 312.445666 144.304203 
L 327.056612 139.571752 
z
" style="fill:#d80000;fill-opacity:0.5;"/>
    <path clip-path="url(#p1faacc5509)" d="M 312.445666 144.304203 
L 293.231179 151.653885 
L 303.46799 155.334387 
z
" style="fill:#ce0000;fill-opacity:0.5;"/>
    <path clip-path="url(#p1faacc5509)" d="M 285.126884 179.147455 
L 276.256919 170.889744 
L 285.745382 189.472747 
z
" style="fill:#c20000;fill-opacity:0.5;"/>
    <path clip-path="url(#p1faacc5509)" d="M 282.610495 156.919458 
L 276.256919 170.889744 
L 294.528701 163.503778 
z
" style="fill:#cb0000;fill-opacity:0.5;"/>
    <path clip-path="url(#p1faacc5509)" d="M 294.528701 163.503778 
L 276.256919 170.889744 
L 285.126884 179.147455 
z
" style="fill:#c60000;fill-opacity:0.5;"/>
    <path clip-path="url(#p1faacc5509)" d="M 320.347656 136.080331 
L 327.056612 139.571752 
L 339.657809 135.362974 
z
" style="fill:#c10000;fill-opacity:0.5;"/>
    <path clip-path="url(#p1faacc5509)" d="M 303.46799 155.334387 
L 293.231179 151.653885 
L 294.528701 163.503778 
z
" style="fill:#cc0000;fill-opacity:0.5;"/>
    <path clip-path="url(#p1faacc5509)" d="M 339.657809 135.362974 
L 327.056612 139.571752 
L 304.889817 154.904431 
z
" style="fill:#cd0000;fill-opacity:0.5;"/>
    <path clip-path="url(#p1faacc5509)" d="M 312.445666 144.304203 
L 304.889817 154.904431 
L 327.056612 139.571752 
z
" style="fill:#bc0000;fill-opacity:0.5;"/>
    <path clip-path="url(#p1faacc5509)" d="M 304.889817 154.904431 
L 312.445666 144.304203 
L 303.46799 155.334387 
z
" style="fill:#d80000;fill-opacity:0.5;"/>
    <path clip-path="url(#p1faacc5509)" d="M 289.700145 176.227758 
L 285.126884 179.147455 
L 285.745382 189.472747 
z
" style="fill:#e20000;fill-opacity:0.5;"/>
    <path clip-path="url(#p1faacc5509)" d="M 285.126884 179.147455 
L 297.308573 165.546825 
L 294.528701 163.503778 
z
" style="fill:#c90000;fill-opacity:0.5;"/>
    <path clip-path="url(#p1faacc5509)" d="M 297.308573 165.546825 
L 285.745382 189.472747 
L 339.657809 135.362974 
z
" style="fill:#b30000;fill-opacity:0.5;"/>
    <path clip-path="url(#p1faacc5509)" d="M 294.528701 163.503778 
L 304.889817 154.904431 
L 303.46799 155.334387 
z
" style="fill:#d70000;fill-opacity:0.5;"/>
    <path clip-path="url(#p1faacc5509)" d="M 304.889817 154.904431 
L 297.308573 165.546825 
L 339.657809 135.362974 
z
" style="fill:#c30000;fill-opacity:0.5;"/>
    <path clip-path="url(#p1faacc5509)" d="M 297.308573 165.546825 
L 285.126884 179.147455 
L 289.700145 176.227758 
z
" style="fill:#dd0000;fill-opacity:0.5;"/>
    <path clip-path="url(#p1faacc5509)" d="M 294.528701 163.503778 
L 297.308573 165.546825 
L 304.889817 154.904431 
z
" style="fill:#c60000;fill-opacity:0.5;"/>
    <path clip-path="url(#p1faacc5509)" d="M 285.745382 189.472747 
L 297.308573 165.546825 
L 289.700145 176.227758 
z
" style="fill:#840000;fill-opacity:0.5;"/>
   </g>
   <g id="Path3DCollection_2">
    <defs>
     <path d="M 0 1.369306 
C 0.363144 1.369306 0.711464 1.225028 0.968246 0.968246 
C 1.225028 0.711464 1.369306 0.363144 1.369306 -0 
C 1.369306 -0.363144 1.225028 -0.711464 0.968246 -0.968246 
C 0.711464 -1.225028 0.363144 -1.369306 0 -1.369306 
C -0.363144 -1.369306 -0.711464 -1.225028 -0.968246 -0.968246 
C -1.225028 -0.711464 -1.369306 -0.363144 -1.369306 0 
C -1.369306 0.363144 -1.225028 0.711464 -0.968246 0.968246 
C -0.711464 1.225028 -0.363144 1.369306 0 1.369306 
z
" id="C1_0_dd6c798875"/>
    </defs>
    <g clip-path="url(#p1faacc5509)">
     <use style="fill-opacity:0.7;stroke:#000000;stroke-opacity:0.7;" x="241.180366" xlink:href="#C1_0_dd6c798875" y="186.769061"/>
    </g>
    <g clip-path="url(#p1faacc5509)">
     <use style="fill-opacity:0.7;stroke:#000000;stroke-opacity:0.7;" x="260.429834" xlink:href="#C1_0_dd6c798875" y="164.810453"/>
    </g>
    <g clip-path="url(#p1faacc5509)">
     <use style="fill-opacity:0.7;stroke:#000000;stroke-opacity:0.7;" x="258.211243" xlink:href="#C1_0_dd6c798875" y="165.997021"/>
    </g>
    <g clip-path="url(#p1faacc5509)">
     <use style="fill-opacity:0.7;stroke:#000000;stroke-opacity:0.7;" x="258.678158" xlink:href="#C1_0_dd6c798875" y="165.386954"/>
    </g>
    <g clip-path="url(#p1faacc5509)">
     <use style="fill-opacity:0.7;stroke:#000000;stroke-opacity:0.7;" x="258.678158" xlink:href="#C1_0_dd6c798875" y="165.386954"/>
    </g>
    <g clip-path="url(#p1faacc5509)">
     <use style="fill-opacity:0.7;stroke:#000000;stroke-opacity:0.7;" x="258.678158" xlink:href="#C1_0_dd6c798875" y="165.386954"/>
    </g>
    <g clip-path="url(#p1faacc5509)">
     <use style="fill-opacity:0.7;stroke:#000000;stroke-opacity:0.7;" x="249.543884" xlink:href="#C1_0_dd6c798875" y="175.780021"/>
    </g>
    <g clip-path="url(#p1faacc5509)">
     <use style="fill-opacity:0.7;stroke:#000000;stroke-opacity:0.7;" x="258.302068" xlink:href="#C1_0_dd6c798875" y="169.652641"/>
    </g>
    <g clip-path="url(#p1faacc5509)">
     <use style="fill-opacity:0.7;stroke:#000000;stroke-opacity:0.7;" x="267.179556" xlink:href="#C1_0_dd6c798875" y="158.314741"/>
    </g>
    <g clip-path="url(#p1faacc5509)">
     <use style="fill-opacity:0.7;stroke:#000000;stroke-opacity:0.7;" x="276.079591" xlink:href="#C1_0_dd6c798875" y="146.993023"/>
    </g>
    <g clip-path="url(#p1faacc5509)">
     <use style="fill-opacity:0.7;stroke:#000000;stroke-opacity:0.7;" x="279.954738" xlink:href="#C1_0_dd6c798875" y="142.106054"/>
    </g>
    <g clip-path="url(#p1faacc5509)">
     <use style="fill-opacity:0.7;stroke:#000000;stroke-opacity:0.7;" x="279.954738" xlink:href="#C1_0_dd6c798875" y="142.106054"/>
    </g>
    <g clip-path="url(#p1faacc5509)">
     <use style="fill-opacity:0.7;stroke:#000000;stroke-opacity:0.7;" x="279.954738" xlink:href="#C1_0_dd6c798875" y="142.106054"/>
    </g>
    <g clip-path="url(#p1faacc5509)">
     <use style="fill-opacity:0.7;stroke:#000000;stroke-opacity:0.7;" x="285.121941" xlink:href="#C1_0_dd6c798875" y="148.481445"/>
    </g>
    <g clip-path="url(#p1faacc5509)">
     <use style="fill-opacity:0.7;stroke:#000000;stroke-opacity:0.7;" x="296.176647" xlink:href="#C1_0_dd6c798875" y="133.786918"/>
    </g>
    <g clip-path="url(#p1faacc5509)">
     <use style="fill-opacity:0.7;stroke:#000000;stroke-opacity:0.7;" x="293.459065" xlink:href="#C1_0_dd6c798875" y="134.690602"/>
    </g>
    <g clip-path="url(#p1faacc5509)">
     <use style="fill-opacity:0.7;stroke:#000000;stroke-opacity:0.7;" x="294.847099" xlink:href="#C1_0_dd6c798875" y="134.751238"/>
    </g>
    <g clip-path="url(#p1faacc5509)">
     <use style="fill-opacity:0.7;stroke:#000000;stroke-opacity:0.7;" x="276.284809" xlink:href="#C1_0_dd6c798875" y="156.132483"/>
    </g>
    <g clip-path="url(#p1faacc5509)">
     <use style="fill-opacity:0.7;stroke:#000000;stroke-opacity:0.7;" x="267.313154" xlink:href="#C1_0_dd6c798875" y="166.216895"/>
    </g>
    <g clip-path="url(#p1faacc5509)">
     <use style="fill-opacity:0.7;stroke:#000000;stroke-opacity:0.7;" x="293.231179" xlink:href="#C1_0_dd6c798875" y="151.653885"/>
    </g>
    <g clip-path="url(#p1faacc5509)">
     <use style="fill-opacity:0.7;stroke:#000000;stroke-opacity:0.7;" x="301.62549" xlink:href="#C1_0_dd6c798875" y="139.509959"/>
    </g>
    <g clip-path="url(#p1faacc5509)">
     <use style="fill-opacity:0.7;stroke:#000000;stroke-opacity:0.7;" x="318.781836" xlink:href="#C1_0_dd6c798875" y="143.250433"/>
    </g>
    <g clip-path="url(#p1faacc5509)">
     <use style="fill-opacity:0.7;stroke:#000000;stroke-opacity:0.7;" x="308.969993" xlink:href="#C1_0_dd6c798875" y="132.185457"/>
    </g>
    <g clip-path="url(#p1faacc5509)">
     <use style="fill-opacity:0.7;stroke:#000000;stroke-opacity:0.7;" x="276.256919" xlink:href="#C1_0_dd6c798875" y="170.889744"/>
    </g>
    <g clip-path="url(#p1faacc5509)">
     <use style="fill-opacity:0.7;stroke:#000000;stroke-opacity:0.7;" x="309.600399" xlink:href="#C1_0_dd6c798875" y="132.361979"/>
    </g>
    <g clip-path="url(#p1faacc5509)">
     <use style="fill-opacity:0.7;stroke:#000000;stroke-opacity:0.7;" x="282.610495" xlink:href="#C1_0_dd6c798875" y="156.919458"/>
    </g>
    <g clip-path="url(#p1faacc5509)">
     <use style="fill-opacity:0.7;stroke:#000000;stroke-opacity:0.7;" x="285.126884" xlink:href="#C1_0_dd6c798875" y="179.147455"/>
    </g>
    <g clip-path="url(#p1faacc5509)">
     <use style="fill-opacity:0.7;stroke:#000000;stroke-opacity:0.7;" x="320.347656" xlink:href="#C1_0_dd6c798875" y="136.080331"/>
    </g>
    <g clip-path="url(#p1faacc5509)">
     <use style="fill-opacity:0.7;stroke:#000000;stroke-opacity:0.7;" x="327.056612" xlink:href="#C1_0_dd6c798875" y="139.571752"/>
    </g>
    <g clip-path="url(#p1faacc5509)">
     <use style="fill-opacity:0.7;stroke:#000000;stroke-opacity:0.7;" x="318.440938" xlink:href="#C1_0_dd6c798875" y="135.891368"/>
    </g>
    <g clip-path="url(#p1faacc5509)">
     <use style="fill-opacity:0.7;stroke:#000000;stroke-opacity:0.7;" x="339.657809" xlink:href="#C1_0_dd6c798875" y="135.362974"/>
    </g>
    <g clip-path="url(#p1faacc5509)">
     <use style="fill-opacity:0.7;stroke:#000000;stroke-opacity:0.7;" x="303.46799" xlink:href="#C1_0_dd6c798875" y="155.334387"/>
    </g>
    <g clip-path="url(#p1faacc5509)">
     <use style="fill-opacity:0.7;stroke:#000000;stroke-opacity:0.7;" x="312.445666" xlink:href="#C1_0_dd6c798875" y="144.304203"/>
    </g>
    <g clip-path="url(#p1faacc5509)">
     <use style="fill-opacity:0.7;stroke:#000000;stroke-opacity:0.7;" x="312.445666" xlink:href="#C1_0_dd6c798875" y="144.304203"/>
    </g>
    <g clip-path="url(#p1faacc5509)">
     <use style="fill-opacity:0.7;stroke:#000000;stroke-opacity:0.7;" x="285.745382" xlink:href="#C1_0_dd6c798875" y="189.472747"/>
    </g>
    <g clip-path="url(#p1faacc5509)">
     <use style="fill-opacity:0.7;stroke:#000000;stroke-opacity:0.7;" x="304.889817" xlink:href="#C1_0_dd6c798875" y="154.904431"/>
    </g>
    <g clip-path="url(#p1faacc5509)">
     <use style="fill-opacity:0.7;stroke:#000000;stroke-opacity:0.7;" x="294.528701" xlink:href="#C1_0_dd6c798875" y="163.503778"/>
    </g>
    <g clip-path="url(#p1faacc5509)">
     <use style="fill-opacity:0.7;stroke:#000000;stroke-opacity:0.7;" x="297.308573" xlink:href="#C1_0_dd6c798875" y="165.546825"/>
    </g>
    <g clip-path="url(#p1faacc5509)">
     <use style="fill-opacity:0.7;stroke:#000000;stroke-opacity:0.7;" x="289.700145" xlink:href="#C1_0_dd6c798875" y="176.227758"/>
    </g>
   </g>
  </g>
 </g>
 <defs>
  <clipPath id="p1faacc5509">
   <rect height="266.112" width="266.112" x="103.104" y="41.472"/>
  </clipPath>
 </defs>
</svg>
