<?xml version="1.0" encoding="utf-8" standalone="no"?>
<!DOCTYPE svg PUBLIC "-//W3C//DTD SVG 1.1//EN"
  "http://www.w3.org/Graphics/SVG/1.1/DTD/svg11.dtd">
<!-- Created with matplotlib (https://matplotlib.org/) -->
<svg height="345.6pt" version="1.1" viewBox="0 0 460.8 345.6" width="460.8pt" xmlns="http://www.w3.org/2000/svg" xmlns:xlink="http://www.w3.org/1999/xlink">
 <defs>
  <style type="text/css">
*{stroke-linecap:butt;stroke-linejoin:round;}
  </style>
 </defs>
 <g id="figure_1">
  <g id="patch_1">
   <path d="M 0 345.6 
L 460.8 345.6 
L 460.8 0 
L 0 0 
z
" style="fill:#ffffff;"/>
  </g>
  <g id="axes_1">
   <g id="patch_2">
    <path d="M 57.6 307.584 
L 414.72 307.584 
L 414.72 41.472 
L 57.6 41.472 
z
" style="fill:#ffffff;"/>
   </g>
   <g id="PathCollection_1">
    <path clip-path="url(#p4f4f632198)" d="M 102.307072 298.532329 
C 103.141514 298.532329 103.941892 298.200802 104.531932 297.610762 
C 105.121971 297.020722 105.453499 296.220345 105.453499 295.385903 
C 105.453499 294.55146 105.121971 293.751083 104.531932 293.161043 
C 103.941892 292.571003 103.141514 292.239476 102.307072 292.239476 
C 101.47263 292.239476 100.672252 292.571003 100.082213 293.161043 
C 99.492173 293.751083 99.160646 294.55146 99.160646 295.385903 
C 99.160646 296.220345 99.492173 297.020722 100.082213 297.610762 
C 100.672252 298.200802 101.47263 298.532329 102.307072 298.532329 
z
" style="fill:#7f2704;fill-opacity:0.7;stroke:#000000;stroke-opacity:0.7;"/>
    <path clip-path="url(#p4f4f632198)" d="M 398.487273 62.862891 
C 400.952307 62.862891 403.316711 61.883523 405.059753 60.140481 
C 406.802795 58.397438 407.782164 56.033034 407.782164 53.568 
C 407.782164 51.102966 406.802795 48.738562 405.059753 46.995519 
C 403.316711 45.252477 400.952307 44.273109 398.487273 44.273109 
C 396.022239 44.273109 393.657834 45.252477 391.914792 46.995519 
C 390.17175 48.738562 389.192382 51.102966 389.192382 53.568 
C 389.192382 56.033034 390.17175 58.397438 391.914792 60.140481 
C 393.657834 61.883523 396.022239 62.862891 398.487273 62.862891 
z
" style="fill:#08306b;fill-opacity:0.7;stroke:#000000;stroke-opacity:0.7;"/>
    <path clip-path="url(#p4f4f632198)" d="M 96.736893 298.699697 
C 97.588645 298.699697 98.405627 298.361293 99.007906 297.759013 
C 99.610186 297.156733 99.948591 296.339752 99.948591 295.488 
C 99.948591 294.636248 99.610186 293.819267 99.007906 293.216987 
C 98.405627 292.614707 97.588645 292.276303 96.736893 292.276303 
C 95.885141 292.276303 95.06816 292.614707 94.46588 293.216987 
C 93.863601 293.819267 93.525196 294.636248 93.525196 295.488 
C 93.525196 296.339752 93.863601 297.156733 94.46588 297.759013 
C 95.06816 298.361293 95.885141 298.699697 96.736893 298.699697 
z
" style="fill:#812804;fill-opacity:0.7;stroke:#000000;stroke-opacity:0.7;"/>
    <path clip-path="url(#p4f4f632198)" d="M 139.342799 248.500659 
C 140.419896 248.500659 141.453022 248.072724 142.214645 247.311102 
C 142.976267 246.549479 143.404202 245.516352 143.404202 244.439256 
C 143.404202 243.362159 142.976267 242.329032 142.214645 241.567409 
C 141.453022 240.805787 140.419896 240.377852 139.342799 240.377852 
C 138.265702 240.377852 137.232575 240.805787 136.470953 241.567409 
C 135.70933 242.329032 135.281395 243.362159 135.281395 244.439256 
C 135.281395 245.516352 135.70933 246.549479 136.470953 247.311102 
C 137.232575 248.072724 138.265702 248.500659 139.342799 248.500659 
z
" style="fill:#ba3d02;fill-opacity:0.7;stroke:#000000;stroke-opacity:0.7;"/>
    <path clip-path="url(#p4f4f632198)" d="M 174.038028 248.45734 
C 175.103636 248.45734 176.125744 248.033969 176.879243 247.28047 
C 177.632742 246.526971 178.056112 245.504864 178.056112 244.439256 
C 178.056112 243.373647 177.632742 242.35154 176.879243 241.598041 
C 176.125744 240.844542 175.103636 240.421171 174.038028 240.421171 
C 172.97242 240.421171 171.950313 240.844542 171.196814 241.598041 
C 170.443315 242.35154 170.019944 243.373647 170.019944 244.439256 
C 170.019944 245.504864 170.443315 246.526971 171.196814 247.28047 
C 171.950313 248.033969 172.97242 248.45734 174.038028 248.45734 
z
" style="fill:#b33b02;fill-opacity:0.7;stroke:#000000;stroke-opacity:0.7;"/>
    <path clip-path="url(#p4f4f632198)" d="M 174.038028 248.45734 
C 175.103636 248.45734 176.125744 248.033969 176.879243 247.28047 
C 177.632742 246.526971 178.056112 245.504864 178.056112 244.439256 
C 178.056112 243.373647 177.632742 242.35154 176.879243 241.598041 
C 176.125744 240.844542 175.103636 240.421171 174.038028 240.421171 
C 172.97242 240.421171 171.950313 240.844542 171.196814 241.598041 
C 170.443315 242.35154 170.019944 243.373647 170.019944 244.439256 
C 170.019944 245.504864 170.443315 246.526971 171.196814 247.28047 
C 171.950313 248.033969 172.97242 248.45734 174.038028 248.45734 
z
" style="fill:#b33b02;fill-opacity:0.7;stroke:#000000;stroke-opacity:0.7;"/>
    <path clip-path="url(#p4f4f632198)" d="M 174.038028 248.45734 
C 175.103636 248.45734 176.125744 248.033969 176.879243 247.28047 
C 177.632742 246.526971 178.056112 245.504864 178.056112 244.439256 
C 178.056112 243.373647 177.632742 242.35154 176.879243 241.598041 
C 176.125744 240.844542 175.103636 240.421171 174.038028 240.421171 
C 172.97242 240.421171 171.950313 240.844542 171.196814 241.598041 
C 170.443315 242.35154 170.019944 243.373647 170.019944 244.439256 
C 170.019944 245.504864 170.443315 246.526971 171.196814 247.28047 
C 171.950313 248.033969 172.97242 248.45734 174.038028 248.45734 
z
" style="fill:#b33b02;fill-opacity:0.7;stroke:#000000;stroke-opacity:0.7;"/>
    <path clip-path="url(#p4f4f632198)" d="M 174.038028 248.45734 
C 175.103636 248.45734 176.125744 248.033969 176.879243 247.28047 
C 177.632742 246.526971 178.056112 245.504864 178.056112 244.439256 
C 178.056112 243.373647 177.632742 242.35154 176.879243 241.598041 
C 176.125744 240.844542 175.103636 240.421171 174.038028 240.421171 
C 172.97242 240.421171 171.950313 240.844542 171.196814 241.598041 
C 170.443315 242.35154 170.019944 243.373647 170.019944 244.439256 
C 170.019944 245.504864 170.443315 246.526971 171.196814 247.28047 
C 171.950313 248.033969 172.97242 248.45734 174.038028 248.45734 
z
" style="fill:#b33b02;fill-opacity:0.7;stroke:#000000;stroke-opacity:0.7;"/>
    <path clip-path="url(#p4f4f632198)" d="M 173.574698 248.457651 
C 174.640389 248.457651 175.662576 248.034247 176.416133 247.28069 
C 177.16969 246.527133 177.593093 245.504946 177.593093 244.439256 
C 177.593093 243.373565 177.16969 242.351378 176.416133 241.597821 
C 175.662576 240.844264 174.640389 240.42086 173.574698 240.42086 
C 172.509007 240.42086 171.486821 240.844264 170.733264 241.597821 
C 169.979707 242.351378 169.556303 243.373565 169.556303 244.439256 
C 169.556303 245.504946 169.979707 246.527133 170.733264 247.28069 
C 171.486821 248.034247 172.509007 248.457651 173.574698 248.457651 
z
" style="fill:#b33b02;fill-opacity:0.7;stroke:#000000;stroke-opacity:0.7;"/>
    <path clip-path="url(#p4f4f632198)" d="M 139.342799 223.028276 
C 140.433683 223.028276 141.480035 222.594863 142.251407 221.823491 
C 143.022778 221.052119 143.456191 220.005768 143.456191 218.914883 
C 143.456191 217.823999 143.022778 216.777647 142.251407 216.006275 
C 141.480035 215.234904 140.433683 214.801491 139.342799 214.801491 
C 138.251914 214.801491 137.205563 215.234904 136.434191 216.006275 
C 135.662819 216.777647 135.229406 217.823999 135.229406 218.914883 
C 135.229406 220.005768 135.662819 221.052119 136.434191 221.823491 
C 137.205563 222.594863 138.251914 223.028276 139.342799 223.028276 
z
" style="fill:#bd3e02;fill-opacity:0.7;stroke:#000000;stroke-opacity:0.7;"/>
    <path clip-path="url(#p4f4f632198)" d="M 180.66092 222.994405 
C 181.742821 222.994405 182.780557 222.564561 183.545577 221.799541 
C 184.310597 221.034521 184.740442 219.996785 184.740442 218.914883 
C 184.740442 217.832981 184.310597 216.795246 183.545577 216.030226 
C 182.780557 215.265205 181.742821 214.835361 180.66092 214.835361 
C 179.579018 214.835361 178.541282 215.265205 177.776262 216.030226 
C 177.011242 216.795246 176.581398 217.832981 176.581398 218.914883 
C 176.581398 219.996785 177.011242 221.034521 177.776262 221.799541 
C 178.541282 222.564561 179.579018 222.994405 180.66092 222.994405 
z
" style="fill:#ba3d02;fill-opacity:0.7;stroke:#000000;stroke-opacity:0.7;"/>
    <path clip-path="url(#p4f4f632198)" d="M 187.512069 222.990113 
C 188.592833 222.990113 189.629477 222.560721 190.393692 221.796506 
C 191.157907 221.032291 191.587299 219.995647 191.587299 218.914883 
C 191.587299 217.83412 191.157907 216.797476 190.393692 216.033261 
C 189.629477 215.269045 188.592833 214.839653 187.512069 214.839653 
C 186.431305 214.839653 185.394662 215.269045 184.630446 216.033261 
C 183.866231 216.797476 183.436839 217.83412 183.436839 218.914883 
C 183.436839 219.995647 183.866231 221.032291 184.630446 221.796506 
C 185.394662 222.560721 186.431305 222.990113 187.512069 222.990113 
z
" style="fill:#ba3d02;fill-opacity:0.7;stroke:#000000;stroke-opacity:0.7;"/>
    <path clip-path="url(#p4f4f632198)" d="M 177.853686 222.996243 
C 178.936075 222.996243 179.974278 222.566206 180.739643 221.800841 
C 181.505008 221.035476 181.935046 219.997273 181.935046 218.914883 
C 181.935046 217.832494 181.505008 216.794291 180.739643 216.028926 
C 179.974278 215.263561 178.936075 214.833523 177.853686 214.833523 
C 176.771296 214.833523 175.733093 215.263561 174.967728 216.028926 
C 174.202364 216.794291 173.772326 217.832494 173.772326 218.914883 
C 173.772326 219.997273 174.202364 221.035476 174.967728 221.800841 
C 175.733093 222.566206 176.771296 222.996243 177.853686 222.996243 
z
" style="fill:#ba3d02;fill-opacity:0.7;stroke:#000000;stroke-opacity:0.7;"/>
    <path clip-path="url(#p4f4f632198)" d="M 187.508662 222.990113 
C 188.589426 222.990113 189.62607 222.560721 190.390285 221.796506 
C 191.1545 221.032291 191.583892 219.995647 191.583892 218.914883 
C 191.583892 217.83412 191.1545 216.797476 190.390285 216.033261 
C 189.62607 215.269045 188.589426 214.839653 187.508662 214.839653 
C 186.427899 214.839653 185.391255 215.269045 184.627039 216.033261 
C 183.862824 216.797476 183.433432 217.83412 183.433432 218.914883 
C 183.433432 219.995647 183.862824 221.032291 184.627039 221.796506 
C 185.391255 222.560721 186.427899 222.990113 187.508662 222.990113 
z
" style="fill:#ba3d02;fill-opacity:0.7;stroke:#000000;stroke-opacity:0.7;"/>
    <path clip-path="url(#p4f4f632198)" d="M 187.508662 222.990113 
C 188.589426 222.990113 189.62607 222.560721 190.390285 221.796506 
C 191.1545 221.032291 191.583892 219.995647 191.583892 218.914883 
C 191.583892 217.83412 191.1545 216.797476 190.390285 216.033261 
C 189.62607 215.269045 188.589426 214.839653 187.508662 214.839653 
C 186.427899 214.839653 185.391255 215.269045 184.627039 216.033261 
C 183.862824 216.797476 183.433432 217.83412 183.433432 218.914883 
C 183.433432 219.995647 183.862824 221.032291 184.627039 221.796506 
C 185.391255 222.560721 186.427899 222.990113 187.508662 222.990113 
z
" style="fill:#ba3d02;fill-opacity:0.7;stroke:#000000;stroke-opacity:0.7;"/>
    <path clip-path="url(#p4f4f632198)" d="M 139.342799 197.570523 
C 140.451351 197.570523 141.514649 197.130091 142.298513 196.346226 
C 143.082378 195.562361 143.522811 194.499063 143.522811 193.390511 
C 143.522811 192.281959 143.082378 191.218661 142.298513 190.434796 
C 141.514649 189.650932 140.451351 189.210499 139.342799 189.210499 
C 138.234247 189.210499 137.170949 189.650932 136.387084 190.434796 
C 135.603219 191.218661 135.162787 192.281959 135.162787 193.390511 
C 135.162787 194.499063 135.603219 195.562361 136.387084 196.346226 
C 137.170949 197.130091 138.234247 197.570523 139.342799 197.570523 
z
" style="fill:#c34002;fill-opacity:0.7;stroke:#000000;stroke-opacity:0.7;"/>
    <path clip-path="url(#p4f4f632198)" d="M 180.66092 197.535991 
C 181.760314 197.535991 182.814827 197.099197 183.592216 196.321808 
C 184.369605 195.544419 184.806399 194.489905 184.806399 193.390511 
C 184.806399 192.291117 184.369605 191.236603 183.592216 190.459214 
C 182.814827 189.681825 181.760314 189.245032 180.66092 189.245032 
C 179.561526 189.245032 178.507012 189.681825 177.729623 190.459214 
C 176.952234 191.236603 176.51544 192.291117 176.51544 193.390511 
C 176.51544 194.489905 176.952234 195.544419 177.729623 196.321808 
C 178.507012 197.099197 179.561526 197.535991 180.66092 197.535991 
z
" style="fill:#c03f02;fill-opacity:0.7;stroke:#000000;stroke-opacity:0.7;"/>
    <path clip-path="url(#p4f4f632198)" d="M 200.979296 197.521794 
C 202.074925 197.521794 203.125828 197.086496 203.900555 196.311769 
C 204.675281 195.537043 205.110579 194.48614 205.110579 193.390511 
C 205.110579 192.294882 204.675281 191.24398 203.900555 190.469253 
C 203.125828 189.694526 202.074925 189.259228 200.979296 189.259228 
C 199.883667 189.259228 198.832765 189.694526 198.058038 190.469253 
C 197.283311 191.24398 196.848013 192.294882 196.848013 193.390511 
C 196.848013 194.48614 197.283311 195.537043 198.058038 196.311769 
C 198.832765 197.086496 199.883667 197.521794 200.979296 197.521794 
z
" style="fill:#bd3e02;fill-opacity:0.7;stroke:#000000;stroke-opacity:0.7;"/>
    <path clip-path="url(#p4f4f632198)" d="M 200.979296 197.521794 
C 202.074925 197.521794 203.125828 197.086496 203.900555 196.311769 
C 204.675281 195.537043 205.110579 194.48614 205.110579 193.390511 
C 205.110579 192.294882 204.675281 191.24398 203.900555 190.469253 
C 203.125828 189.694526 202.074925 189.259228 200.979296 189.259228 
C 199.883667 189.259228 198.832765 189.694526 198.058038 190.469253 
C 197.283311 191.24398 196.848013 192.294882 196.848013 193.390511 
C 196.848013 194.48614 197.283311 195.537043 198.058038 196.311769 
C 198.832765 197.086496 199.883667 197.521794 200.979296 197.521794 
z
" style="fill:#bd3e02;fill-opacity:0.7;stroke:#000000;stroke-opacity:0.7;"/>
    <path clip-path="url(#p4f4f632198)" d="M 200.979296 197.521794 
C 202.074925 197.521794 203.125828 197.086496 203.900555 196.311769 
C 204.675281 195.537043 205.110579 194.48614 205.110579 193.390511 
C 205.110579 192.294882 204.675281 191.24398 203.900555 190.469253 
C 203.125828 189.694526 202.074925 189.259228 200.979296 189.259228 
C 199.883667 189.259228 198.832765 189.694526 198.058038 190.469253 
C 197.283311 191.24398 196.848013 192.294882 196.848013 193.390511 
C 196.848013 194.48614 197.283311 195.537043 198.058038 196.311769 
C 198.832765 197.086496 199.883667 197.521794 200.979296 197.521794 
z
" style="fill:#bd3e02;fill-opacity:0.7;stroke:#000000;stroke-opacity:0.7;"/>
    <path clip-path="url(#p4f4f632198)" d="M 200.979296 197.521794 
C 202.074925 197.521794 203.125828 197.086496 203.900555 196.311769 
C 204.675281 195.537043 205.110579 194.48614 205.110579 193.390511 
C 205.110579 192.294882 204.675281 191.24398 203.900555 190.469253 
C 203.125828 189.694526 202.074925 189.259228 200.979296 189.259228 
C 199.883667 189.259228 198.832765 189.694526 198.058038 190.469253 
C 197.283311 191.24398 196.848013 192.294882 196.848013 193.390511 
C 196.848013 194.48614 197.283311 195.537043 198.058038 196.311769 
C 198.832765 197.086496 199.883667 197.521794 200.979296 197.521794 
z
" style="fill:#bd3e02;fill-opacity:0.7;stroke:#000000;stroke-opacity:0.7;"/>
    <path clip-path="url(#p4f4f632198)" d="M 139.342799 172.341628 
C 140.529712 172.341628 141.668173 171.870062 142.507447 171.030787 
C 143.346722 170.191513 143.818287 169.053052 143.818287 167.866139 
C 143.818287 166.679225 143.346722 165.540765 142.507447 164.70149 
C 141.668173 163.862216 140.529712 163.39065 139.342799 163.39065 
C 138.155885 163.39065 137.017425 163.862216 136.17815 164.70149 
C 135.338876 165.540765 134.86731 166.679225 134.86731 167.866139 
C 134.86731 169.053052 135.338876 170.191513 136.17815 171.030787 
C 137.017425 171.870062 138.155885 172.341628 139.342799 172.341628 
z
" style="fill:#db4b02;fill-opacity:0.7;stroke:#000000;stroke-opacity:0.7;"/>
    <path clip-path="url(#p4f4f632198)" d="M 180.66092 172.131406 
C 181.792081 172.131406 182.877066 171.68199 183.676919 170.882138 
C 184.476771 170.082286 184.926186 168.997301 184.926186 167.866139 
C 184.926186 166.734977 184.476771 165.649992 183.676919 164.85014 
C 182.877066 164.050288 181.792081 163.600872 180.66092 163.600872 
C 179.529758 163.600872 178.444773 164.050288 177.644921 164.85014 
C 176.845068 165.649992 176.395653 166.734977 176.395653 167.866139 
C 176.395653 168.997301 176.845068 170.082286 177.644921 170.882138 
C 178.444773 171.68199 179.529758 172.131406 180.66092 172.131406 
z
" style="fill:#ca4302;fill-opacity:0.7;stroke:#000000;stroke-opacity:0.7;"/>
    <path clip-path="url(#p4f4f632198)" d="M 191.60368 172.069709 
C 192.71848 172.069709 193.787771 171.626794 194.576053 170.838512 
C 195.364336 170.050229 195.80725 168.980939 195.80725 167.866139 
C 195.80725 166.751339 195.364336 165.682049 194.576053 164.893766 
C 193.787771 164.105484 192.71848 163.662569 191.60368 163.662569 
C 190.488881 163.662569 189.41959 164.105484 188.631308 164.893766 
C 187.843025 165.682049 187.400111 166.751339 187.400111 167.866139 
C 187.400111 168.980939 187.843025 170.050229 188.631308 170.838512 
C 189.41959 171.626794 190.488881 172.069709 191.60368 172.069709 
z
" style="fill:#c74102;fill-opacity:0.7;stroke:#000000;stroke-opacity:0.7;"/>
    <path clip-path="url(#p4f4f632198)" d="M 191.60368 172.069709 
C 192.71848 172.069709 193.787771 171.626794 194.576053 170.838512 
C 195.364336 170.050229 195.80725 168.980939 195.80725 167.866139 
C 195.80725 166.751339 195.364336 165.682049 194.576053 164.893766 
C 193.787771 164.105484 192.71848 163.662569 191.60368 163.662569 
C 190.488881 163.662569 189.41959 164.105484 188.631308 164.893766 
C 187.843025 165.682049 187.400111 166.751339 187.400111 167.866139 
C 187.400111 168.980939 187.843025 170.050229 188.631308 170.838512 
C 189.41959 171.626794 190.488881 172.069709 191.60368 172.069709 
z
" style="fill:#c74102;fill-opacity:0.7;stroke:#000000;stroke-opacity:0.7;"/>
    <path clip-path="url(#p4f4f632198)" d="M 191.60368 172.069709 
C 192.71848 172.069709 193.787771 171.626794 194.576053 170.838512 
C 195.364336 170.050229 195.80725 168.980939 195.80725 167.866139 
C 195.80725 166.751339 195.364336 165.682049 194.576053 164.893766 
C 193.787771 164.105484 192.71848 163.662569 191.60368 163.662569 
C 190.488881 163.662569 189.41959 164.105484 188.631308 164.893766 
C 187.843025 165.682049 187.400111 166.751339 187.400111 167.866139 
C 187.400111 168.980939 187.843025 170.050229 188.631308 170.838512 
C 189.41959 171.626794 190.488881 172.069709 191.60368 172.069709 
z
" style="fill:#c74102;fill-opacity:0.7;stroke:#000000;stroke-opacity:0.7;"/>
    <path clip-path="url(#p4f4f632198)" d="M 192.983449 172.072087 
C 194.09888 172.072087 195.168775 171.628922 195.957504 170.840193 
C 196.746232 170.051465 197.189398 168.981569 197.189398 167.866139 
C 197.189398 166.750708 196.746232 165.680813 195.957504 164.892084 
C 195.168775 164.103356 194.09888 163.660191 192.983449 163.660191 
C 191.868019 163.660191 190.798123 164.103356 190.009395 164.892084 
C 189.220667 165.680813 188.777501 166.750708 188.777501 167.866139 
C 188.777501 168.981569 189.220667 170.051465 190.009395 170.840193 
C 190.798123 171.628922 191.868019 172.072087 192.983449 172.072087 
z
" style="fill:#c74102;fill-opacity:0.7;stroke:#000000;stroke-opacity:0.7;"/>
    <path clip-path="url(#p4f4f632198)" d="M 139.342799 146.655698 
C 140.486867 146.655698 141.58423 146.201155 142.393208 145.392176 
C 143.202187 144.583198 143.65673 143.485834 143.65673 142.341767 
C 143.65673 141.197699 143.202187 140.100335 142.393208 139.291357 
C 141.58423 138.482379 140.486867 138.027836 139.342799 138.027836 
C 138.198731 138.027836 137.101367 138.482379 136.292389 139.291357 
C 135.483411 140.100335 135.028868 141.197699 135.028868 142.341767 
C 135.028868 143.485834 135.483411 144.583198 136.292389 145.392176 
C 137.101367 146.201155 138.198731 146.655698 139.342799 146.655698 
z
" style="fill:#d04501;fill-opacity:0.7;stroke:#000000;stroke-opacity:0.7;"/>
    <path clip-path="url(#p4f4f632198)" d="M 178.552087 146.620785 
C 179.686896 146.620785 180.775379 146.169921 181.57781 145.36749 
C 182.380242 144.565059 182.831106 143.476576 182.831106 142.341767 
C 182.831106 141.206958 182.380242 140.118475 181.57781 139.316044 
C 180.775379 138.513612 179.686896 138.062748 178.552087 138.062748 
C 177.417278 138.062748 176.328795 138.513612 175.526364 139.316044 
C 174.723933 140.118475 174.273069 141.206958 174.273069 142.341767 
C 174.273069 143.476576 174.723933 144.565059 175.526364 145.36749 
C 176.328795 146.169921 177.417278 146.620785 178.552087 146.620785 
z
" style="fill:#cd4401;fill-opacity:0.7;stroke:#000000;stroke-opacity:0.7;"/>
    <path clip-path="url(#p4f4f632198)" d="M 192.308896 146.806629 
C 193.492991 146.806629 194.628749 146.336183 195.466031 145.498901 
C 196.303312 144.661619 196.773759 143.525862 196.773759 142.341767 
C 196.773759 141.157671 196.303312 140.021914 195.466031 139.184632 
C 194.628749 138.34735 193.492991 137.876904 192.308896 137.876904 
C 191.1248 137.876904 189.989043 138.34735 189.151761 139.184632 
C 188.314479 140.021914 187.844033 141.157671 187.844033 142.341767 
C 187.844033 143.525862 188.314479 144.661619 189.151761 145.498901 
C 189.989043 146.336183 191.1248 146.806629 192.308896 146.806629 
z
" style="fill:#db4b02;fill-opacity:0.7;stroke:#000000;stroke-opacity:0.7;"/>
    <path clip-path="url(#p4f4f632198)" d="M 178.548681 146.620785 
C 179.68349 146.620785 180.771972 146.169921 181.574404 145.36749 
C 182.376835 144.565059 182.827699 143.476576 182.827699 142.341767 
C 182.827699 141.206958 182.376835 140.118475 181.574404 139.316044 
C 180.771972 138.513612 179.68349 138.062748 178.548681 138.062748 
C 177.413872 138.062748 176.325389 138.513612 175.522957 139.316044 
C 174.720526 140.118475 174.269662 141.206958 174.269662 142.341767 
C 174.269662 143.476576 174.720526 144.565059 175.522957 145.36749 
C 176.325389 146.169921 177.413872 146.620785 178.548681 146.620785 
z
" style="fill:#cd4401;fill-opacity:0.7;stroke:#000000;stroke-opacity:0.7;"/>
    <path clip-path="url(#p4f4f632198)" d="M 186.742124 146.62283 
C 187.877475 146.62283 188.966478 146.17175 189.769292 145.368935 
C 190.572107 144.566121 191.023187 143.477118 191.023187 142.341767 
C 191.023187 141.206415 190.572107 140.117412 189.769292 139.314598 
C 188.966478 138.511783 187.877475 138.060704 186.742124 138.060704 
C 185.606773 138.060704 184.51777 138.511783 183.714955 139.314598 
C 182.912141 140.117412 182.461061 141.206415 182.461061 142.341767 
C 182.461061 143.477118 182.912141 144.566121 183.714955 145.368935 
C 184.51777 146.17175 185.606773 146.62283 186.742124 146.62283 
z
" style="fill:#cd4401;fill-opacity:0.7;stroke:#000000;stroke-opacity:0.7;"/>
    <path clip-path="url(#p4f4f632198)" d="M 178.548681 146.620785 
C 179.68349 146.620785 180.771972 146.169921 181.574404 145.36749 
C 182.376835 144.565059 182.827699 143.476576 182.827699 142.341767 
C 182.827699 141.206958 182.376835 140.118475 181.574404 139.316044 
C 180.771972 138.513612 179.68349 138.062748 178.548681 138.062748 
C 177.413872 138.062748 176.325389 138.513612 175.522957 139.316044 
C 174.720526 140.118475 174.269662 141.206958 174.269662 142.341767 
C 174.269662 143.476576 174.720526 144.565059 175.522957 145.36749 
C 176.325389 146.169921 177.413872 146.620785 178.548681 146.620785 
z
" style="fill:#cd4401;fill-opacity:0.7;stroke:#000000;stroke-opacity:0.7;"/>
    <path clip-path="url(#p4f4f632198)" d="M 139.342799 121.227893 
C 140.512477 121.227893 141.634405 120.763175 142.461492 119.936088 
C 143.28858 119.109001 143.753298 117.987072 143.753298 116.817394 
C 143.753298 115.647716 143.28858 114.525788 142.461492 113.698701 
C 141.634405 112.871614 140.512477 112.406896 139.342799 112.406896 
C 138.173121 112.406896 137.051192 112.871614 136.224105 113.698701 
C 135.397018 114.525788 134.9323 115.647716 134.9323 116.817394 
C 134.9323 117.987072 135.397018 119.109001 136.224105 119.936088 
C 137.051192 120.763175 138.173121 121.227893 139.342799 121.227893 
z
" style="fill:#d74701;fill-opacity:0.7;stroke:#000000;stroke-opacity:0.7;"/>
    <path clip-path="url(#p4f4f632198)" d="M 170.603936 121.174285 
C 171.759397 121.174285 172.867689 120.715216 173.684724 119.898182 
C 174.501758 119.081147 174.960827 117.972855 174.960827 116.817394 
C 174.960827 115.661933 174.501758 114.553641 173.684724 113.736607 
C 172.867689 112.919573 171.759397 112.460503 170.603936 112.460503 
C 169.448475 112.460503 168.340183 112.919573 167.523149 113.736607 
C 166.706115 114.553641 166.247045 115.661933 166.247045 116.817394 
C 166.247045 117.972855 166.706115 119.081147 167.523149 119.898182 
C 168.340183 120.715216 169.448475 121.174285 170.603936 121.174285 
z
" style="fill:#d34601;fill-opacity:0.7;stroke:#000000;stroke-opacity:0.7;"/>
    <path clip-path="url(#p4f4f632198)" d="M 163.664209 121.174285 
C 164.81967 121.174285 165.927962 120.715216 166.744996 119.898182 
C 167.562031 119.081147 168.0211 117.972855 168.0211 116.817394 
C 168.0211 115.661933 167.562031 114.553641 166.744996 113.736607 
C 165.927962 112.919573 164.81967 112.460503 163.664209 112.460503 
C 162.508748 112.460503 161.400456 112.919573 160.583422 113.736607 
C 159.766387 114.553641 159.307318 115.661933 159.307318 116.817394 
C 159.307318 117.972855 159.766387 119.081147 160.583422 119.898182 
C 161.400456 120.715216 162.508748 121.174285 163.664209 121.174285 
z
" style="fill:#d34601;fill-opacity:0.7;stroke:#000000;stroke-opacity:0.7;"/>
    <path clip-path="url(#p4f4f632198)" d="M 169.401323 121.219099 
C 170.568668 121.219099 171.68836 120.755307 172.513798 119.929869 
C 173.339236 119.104431 173.803027 117.98474 173.803027 116.817394 
C 173.803027 115.650049 173.339236 114.530357 172.513798 113.704919 
C 171.68836 112.879481 170.568668 112.41569 169.401323 112.41569 
C 168.233977 112.41569 167.114286 112.879481 166.288848 113.704919 
C 165.46341 114.530357 164.999619 115.650049 164.999619 116.817394 
C 164.999619 117.98474 165.46341 119.104431 166.288848 119.929869 
C 167.114286 120.755307 168.233977 121.219099 169.401323 121.219099 
z
" style="fill:#d74701;fill-opacity:0.7;stroke:#000000;stroke-opacity:0.7;"/>
    <path clip-path="url(#p4f4f632198)" d="M 165.023537 121.173138 
C 166.178694 121.173138 167.286694 120.714189 168.103513 119.89737 
C 168.920332 119.080551 169.37928 117.972551 169.37928 116.817394 
C 169.37928 115.662238 168.920332 114.554238 168.103513 113.737419 
C 167.286694 112.9206 166.178694 112.461651 165.023537 112.461651 
C 163.86838 112.461651 162.76038 112.9206 161.943561 113.737419 
C 161.126742 114.554238 160.667794 115.662238 160.667794 116.817394 
C 160.667794 117.972551 161.126742 119.080551 161.943561 119.89737 
C 162.76038 120.714189 163.86838 121.173138 165.023537 121.173138 
z
" style="fill:#d34601;fill-opacity:0.7;stroke:#000000;stroke-opacity:0.7;"/>
    <path clip-path="url(#p4f4f632198)" d="M 165.023537 121.173138 
C 166.178694 121.173138 167.286694 120.714189 168.103513 119.89737 
C 168.920332 119.080551 169.37928 117.972551 169.37928 116.817394 
C 169.37928 115.662238 168.920332 114.554238 168.103513 113.737419 
C 167.286694 112.9206 166.178694 112.461651 165.023537 112.461651 
C 163.86838 112.461651 162.76038 112.9206 161.943561 113.737419 
C 161.126742 114.554238 160.667794 115.662238 160.667794 116.817394 
C 160.667794 117.972551 161.126742 119.080551 161.943561 119.89737 
C 162.76038 120.714189 163.86838 121.173138 165.023537 121.173138 
z
" style="fill:#d34601;fill-opacity:0.7;stroke:#000000;stroke-opacity:0.7;"/>
    <path clip-path="url(#p4f4f632198)" d="M 139.342799 95.771861 
C 140.530601 95.771861 141.669913 95.299943 142.509816 94.46004 
C 143.349719 93.620137 143.821638 92.480824 143.821638 91.293022 
C 143.821638 90.10522 143.349719 88.965907 142.509816 88.126005 
C 141.669913 87.286102 140.530601 86.814183 139.342799 86.814183 
C 138.154997 86.814183 137.015684 87.286102 136.175781 88.126005 
C 135.335878 88.965907 134.86396 90.10522 134.86396 91.293022 
C 134.86396 92.480824 135.335878 93.620137 136.175781 94.46004 
C 137.015684 95.299943 138.154997 95.771861 139.342799 95.771861 
z
" style="fill:#dc4d04;fill-opacity:0.7;stroke:#000000;stroke-opacity:0.7;"/>
    <path clip-path="url(#p4f4f632198)" d="M 153.804822 95.72811 
C 154.981021 95.72811 156.109204 95.260801 156.940903 94.429103 
C 157.772601 93.597404 158.23991 92.469221 158.23991 91.293022 
C 158.23991 90.116823 157.772601 88.98864 156.940903 88.156942 
C 156.109204 87.325244 154.981021 86.857935 153.804822 86.857935 
C 152.628623 86.857935 151.50044 87.325244 150.668742 88.156942 
C 149.837044 88.98864 149.369735 90.116823 149.369735 91.293022 
C 149.369735 92.469221 149.837044 93.597404 150.668742 94.429103 
C 151.50044 95.260801 152.628623 95.72811 153.804822 95.72811 
z
" style="fill:#d94901;fill-opacity:0.7;stroke:#000000;stroke-opacity:0.7;"/>
    <path clip-path="url(#p4f4f632198)" d="M 153.212033 95.727546 
C 154.388082 95.727546 155.516122 95.260296 156.347714 94.428704 
C 157.179307 93.597111 157.646556 92.469072 157.646556 91.293022 
C 157.646556 90.116973 157.179307 88.988933 156.347714 88.15734 
C 155.516122 87.325748 154.388082 86.858499 153.212033 86.858499 
C 152.035983 86.858499 150.907943 87.325748 150.076351 88.15734 
C 149.244758 88.988933 148.777509 90.116973 148.777509 91.293022 
C 148.777509 92.469072 149.244758 93.597111 150.076351 94.428704 
C 150.907943 95.260296 152.035983 95.727546 153.212033 95.727546 
z
" style="fill:#d94901;fill-opacity:0.7;stroke:#000000;stroke-opacity:0.7;"/>
    <path clip-path="url(#p4f4f632198)" d="M 153.212033 95.727546 
C 154.388082 95.727546 155.516122 95.260296 156.347714 94.428704 
C 157.179307 93.597111 157.646556 92.469072 157.646556 91.293022 
C 157.646556 90.116973 157.179307 88.988933 156.347714 88.15734 
C 155.516122 87.325748 154.388082 86.858499 153.212033 86.858499 
C 152.035983 86.858499 150.907943 87.325748 150.076351 88.15734 
C 149.244758 88.988933 148.777509 90.116973 148.777509 91.293022 
C 148.777509 92.469072 149.244758 93.597111 150.076351 94.428704 
C 150.907943 95.260296 152.035983 95.727546 153.212033 95.727546 
z
" style="fill:#d94901;fill-opacity:0.7;stroke:#000000;stroke-opacity:0.7;"/>
    <path clip-path="url(#p4f4f632198)" d="M 165.626547 95.746672 
C 166.807669 95.746672 167.940574 95.277408 168.775753 94.442228 
C 169.610933 93.607049 170.080197 92.474144 170.080197 91.293022 
C 170.080197 90.1119 169.610933 88.978995 168.775753 88.143816 
C 167.940574 87.308637 166.807669 86.839372 165.626547 86.839372 
C 164.445425 86.839372 163.31252 87.308637 162.477341 88.143816 
C 161.642162 88.978995 161.172897 90.1119 161.172897 91.293022 
C 161.172897 92.474144 161.642162 93.607049 162.477341 94.442228 
C 163.31252 95.277408 164.445425 95.746672 165.626547 95.746672 
z
" style="fill:#db4b02;fill-opacity:0.7;stroke:#000000;stroke-opacity:0.7;"/>
    <path clip-path="url(#p4f4f632198)" d="M 153.212033 95.727546 
C 154.388082 95.727546 155.516122 95.260296 156.347714 94.428704 
C 157.179307 93.597111 157.646556 92.469072 157.646556 91.293022 
C 157.646556 90.116973 157.179307 88.988933 156.347714 88.15734 
C 155.516122 87.325748 154.388082 86.858499 153.212033 86.858499 
C 152.035983 86.858499 150.907943 87.325748 150.076351 88.15734 
C 149.244758 88.988933 148.777509 90.116973 148.777509 91.293022 
C 148.777509 92.469072 149.244758 93.597111 150.076351 94.428704 
C 150.907943 95.260296 152.035983 95.727546 153.212033 95.727546 
z
" style="fill:#d94901;fill-opacity:0.7;stroke:#000000;stroke-opacity:0.7;"/>
   </g>
   <g id="matplotlib.axis_1">
    <g id="xtick_1">
     <g id="line2d_1">
      <defs>
       <path d="M 0 0 
L 0 3.5 
" id="m249637c0e2" style="stroke:#000000;stroke-width:0.8;"/>
      </defs>
      <g>
       <use style="stroke:#000000;stroke-width:0.8;" x="73.832727" xlink:href="#m249637c0e2" y="307.584"/>
      </g>
     </g>
     <g id="text_1">
      <!-- 0 -->
      <defs>
       <path d="M 31.78125 66.40625 
Q 24.171875 66.40625 20.328125 58.90625 
Q 16.5 51.421875 16.5 36.375 
Q 16.5 21.390625 20.328125 13.890625 
Q 24.171875 6.390625 31.78125 6.390625 
Q 39.453125 6.390625 43.28125 13.890625 
Q 47.125 21.390625 47.125 36.375 
Q 47.125 51.421875 43.28125 58.90625 
Q 39.453125 66.40625 31.78125 66.40625 
z
M 31.78125 74.21875 
Q 44.046875 74.21875 50.515625 64.515625 
Q 56.984375 54.828125 56.984375 36.375 
Q 56.984375 17.96875 50.515625 8.265625 
Q 44.046875 -1.421875 31.78125 -1.421875 
Q 19.53125 -1.421875 13.0625 8.265625 
Q 6.59375 17.96875 6.59375 36.375 
Q 6.59375 54.828125 13.0625 64.515625 
Q 19.53125 74.21875 31.78125 74.21875 
z
" id="DejaVuSans-48"/>
      </defs>
      <g transform="translate(70.651477 322.182437)scale(0.1 -0.1)">
       <use xlink:href="#DejaVuSans-48"/>
      </g>
     </g>
    </g>
    <g id="xtick_2">
     <g id="line2d_2">
      <g>
       <use style="stroke:#000000;stroke-width:0.8;" x="141.96947" xlink:href="#m249637c0e2" y="307.584"/>
      </g>
     </g>
     <g id="text_2">
      <!-- 2 -->
      <defs>
       <path d="M 19.1875 8.296875 
L 53.609375 8.296875 
L 53.609375 0 
L 7.328125 0 
L 7.328125 8.296875 
Q 12.9375 14.109375 22.625 23.890625 
Q 32.328125 33.6875 34.8125 36.53125 
Q 39.546875 41.84375 41.421875 45.53125 
Q 43.3125 49.21875 43.3125 52.78125 
Q 43.3125 58.59375 39.234375 62.25 
Q 35.15625 65.921875 28.609375 65.921875 
Q 23.96875 65.921875 18.8125 64.3125 
Q 13.671875 62.703125 7.8125 59.421875 
L 7.8125 69.390625 
Q 13.765625 71.78125 18.9375 73 
Q 24.125 74.21875 28.421875 74.21875 
Q 39.75 74.21875 46.484375 68.546875 
Q 53.21875 62.890625 53.21875 53.421875 
Q 53.21875 48.921875 51.53125 44.890625 
Q 49.859375 40.875 45.40625 35.40625 
Q 44.1875 33.984375 37.640625 27.21875 
Q 31.109375 20.453125 19.1875 8.296875 
z
" id="DejaVuSans-50"/>
      </defs>
      <g transform="translate(138.78822 322.182437)scale(0.1 -0.1)">
       <use xlink:href="#DejaVuSans-50"/>
      </g>
     </g>
    </g>
    <g id="xtick_3">
     <g id="line2d_3">
      <g>
       <use style="stroke:#000000;stroke-width:0.8;" x="210.106213" xlink:href="#m249637c0e2" y="307.584"/>
      </g>
     </g>
     <g id="text_3">
      <!-- 4 -->
      <defs>
       <path d="M 37.796875 64.3125 
L 12.890625 25.390625 
L 37.796875 25.390625 
z
M 35.203125 72.90625 
L 47.609375 72.90625 
L 47.609375 25.390625 
L 58.015625 25.390625 
L 58.015625 17.1875 
L 47.609375 17.1875 
L 47.609375 0 
L 37.796875 0 
L 37.796875 17.1875 
L 4.890625 17.1875 
L 4.890625 26.703125 
z
" id="DejaVuSans-52"/>
      </defs>
      <g transform="translate(206.924963 322.182437)scale(0.1 -0.1)">
       <use xlink:href="#DejaVuSans-52"/>
      </g>
     </g>
    </g>
    <g id="xtick_4">
     <g id="line2d_4">
      <g>
       <use style="stroke:#000000;stroke-width:0.8;" x="278.242956" xlink:href="#m249637c0e2" y="307.584"/>
      </g>
     </g>
     <g id="text_4">
      <!-- 6 -->
      <defs>
       <path d="M 33.015625 40.375 
Q 26.375 40.375 22.484375 35.828125 
Q 18.609375 31.296875 18.609375 23.390625 
Q 18.609375 15.53125 22.484375 10.953125 
Q 26.375 6.390625 33.015625 6.390625 
Q 39.65625 6.390625 43.53125 10.953125 
Q 47.40625 15.53125 47.40625 23.390625 
Q 47.40625 31.296875 43.53125 35.828125 
Q 39.65625 40.375 33.015625 40.375 
z
M 52.59375 71.296875 
L 52.59375 62.3125 
Q 48.875 64.0625 45.09375 64.984375 
Q 41.3125 65.921875 37.59375 65.921875 
Q 27.828125 65.921875 22.671875 59.328125 
Q 17.53125 52.734375 16.796875 39.40625 
Q 19.671875 43.65625 24.015625 45.921875 
Q 28.375 48.1875 33.59375 48.1875 
Q 44.578125 48.1875 50.953125 41.515625 
Q 57.328125 34.859375 57.328125 23.390625 
Q 57.328125 12.15625 50.6875 5.359375 
Q 44.046875 -1.421875 33.015625 -1.421875 
Q 20.359375 -1.421875 13.671875 8.265625 
Q 6.984375 17.96875 6.984375 36.375 
Q 6.984375 53.65625 15.1875 63.9375 
Q 23.390625 74.21875 37.203125 74.21875 
Q 40.921875 74.21875 44.703125 73.484375 
Q 48.484375 72.75 52.59375 71.296875 
z
" id="DejaVuSans-54"/>
      </defs>
      <g transform="translate(275.061706 322.182437)scale(0.1 -0.1)">
       <use xlink:href="#DejaVuSans-54"/>
      </g>
     </g>
    </g>
    <g id="xtick_5">
     <g id="line2d_5">
      <g>
       <use style="stroke:#000000;stroke-width:0.8;" x="346.379699" xlink:href="#m249637c0e2" y="307.584"/>
      </g>
     </g>
     <g id="text_5">
      <!-- 8 -->
      <defs>
       <path d="M 31.78125 34.625 
Q 24.75 34.625 20.71875 30.859375 
Q 16.703125 27.09375 16.703125 20.515625 
Q 16.703125 13.921875 20.71875 10.15625 
Q 24.75 6.390625 31.78125 6.390625 
Q 38.8125 6.390625 42.859375 10.171875 
Q 46.921875 13.96875 46.921875 20.515625 
Q 46.921875 27.09375 42.890625 30.859375 
Q 38.875 34.625 31.78125 34.625 
z
M 21.921875 38.8125 
Q 15.578125 40.375 12.03125 44.71875 
Q 8.5 49.078125 8.5 55.328125 
Q 8.5 64.0625 14.71875 69.140625 
Q 20.953125 74.21875 31.78125 74.21875 
Q 42.671875 74.21875 48.875 69.140625 
Q 55.078125 64.0625 55.078125 55.328125 
Q 55.078125 49.078125 51.53125 44.71875 
Q 48 40.375 41.703125 38.8125 
Q 48.828125 37.15625 52.796875 32.3125 
Q 56.78125 27.484375 56.78125 20.515625 
Q 56.78125 9.90625 50.3125 4.234375 
Q 43.84375 -1.421875 31.78125 -1.421875 
Q 19.734375 -1.421875 13.25 4.234375 
Q 6.78125 9.90625 6.78125 20.515625 
Q 6.78125 27.484375 10.78125 32.3125 
Q 14.796875 37.15625 21.921875 38.8125 
z
M 18.3125 54.390625 
Q 18.3125 48.734375 21.84375 45.5625 
Q 25.390625 42.390625 31.78125 42.390625 
Q 38.140625 42.390625 41.71875 45.5625 
Q 45.3125 48.734375 45.3125 54.390625 
Q 45.3125 60.0625 41.71875 63.234375 
Q 38.140625 66.40625 31.78125 66.40625 
Q 25.390625 66.40625 21.84375 63.234375 
Q 18.3125 60.0625 18.3125 54.390625 
z
" id="DejaVuSans-56"/>
      </defs>
      <g transform="translate(343.198449 322.182437)scale(0.1 -0.1)">
       <use xlink:href="#DejaVuSans-56"/>
      </g>
     </g>
    </g>
    <g id="xtick_6">
     <g id="line2d_6">
      <g>
       <use style="stroke:#000000;stroke-width:0.8;" x="414.516441" xlink:href="#m249637c0e2" y="307.584"/>
      </g>
     </g>
     <g id="text_6">
      <!-- 10 -->
      <defs>
       <path d="M 12.40625 8.296875 
L 28.515625 8.296875 
L 28.515625 63.921875 
L 10.984375 60.40625 
L 10.984375 69.390625 
L 28.421875 72.90625 
L 38.28125 72.90625 
L 38.28125 8.296875 
L 54.390625 8.296875 
L 54.390625 0 
L 12.40625 0 
z
" id="DejaVuSans-49"/>
      </defs>
      <g transform="translate(408.153941 322.182437)scale(0.1 -0.1)">
       <use xlink:href="#DejaVuSans-49"/>
       <use x="63.623047" xlink:href="#DejaVuSans-48"/>
      </g>
     </g>
    </g>
    <g id="text_7">
     <!-- Global Warming Potential (kgCO2eq/house-yr) -->
     <defs>
      <path d="M 59.515625 10.40625 
L 59.515625 29.984375 
L 43.40625 29.984375 
L 43.40625 38.09375 
L 69.28125 38.09375 
L 69.28125 6.78125 
Q 63.578125 2.734375 56.6875 0.65625 
Q 49.8125 -1.421875 42 -1.421875 
Q 24.90625 -1.421875 15.25 8.5625 
Q 5.609375 18.5625 5.609375 36.375 
Q 5.609375 54.25 15.25 64.234375 
Q 24.90625 74.21875 42 74.21875 
Q 49.125 74.21875 55.546875 72.453125 
Q 61.96875 70.703125 67.390625 67.28125 
L 67.390625 56.78125 
Q 61.921875 61.421875 55.765625 63.765625 
Q 49.609375 66.109375 42.828125 66.109375 
Q 29.4375 66.109375 22.71875 58.640625 
Q 16.015625 51.171875 16.015625 36.375 
Q 16.015625 21.625 22.71875 14.15625 
Q 29.4375 6.6875 42.828125 6.6875 
Q 48.046875 6.6875 52.140625 7.59375 
Q 56.25 8.5 59.515625 10.40625 
z
" id="DejaVuSans-71"/>
      <path d="M 9.421875 75.984375 
L 18.40625 75.984375 
L 18.40625 0 
L 9.421875 0 
z
" id="DejaVuSans-108"/>
      <path d="M 30.609375 48.390625 
Q 23.390625 48.390625 19.1875 42.75 
Q 14.984375 37.109375 14.984375 27.296875 
Q 14.984375 17.484375 19.15625 11.84375 
Q 23.34375 6.203125 30.609375 6.203125 
Q 37.796875 6.203125 41.984375 11.859375 
Q 46.1875 17.53125 46.1875 27.296875 
Q 46.1875 37.015625 41.984375 42.703125 
Q 37.796875 48.390625 30.609375 48.390625 
z
M 30.609375 56 
Q 42.328125 56 49.015625 48.375 
Q 55.71875 40.765625 55.71875 27.296875 
Q 55.71875 13.875 49.015625 6.21875 
Q 42.328125 -1.421875 30.609375 -1.421875 
Q 18.84375 -1.421875 12.171875 6.21875 
Q 5.515625 13.875 5.515625 27.296875 
Q 5.515625 40.765625 12.171875 48.375 
Q 18.84375 56 30.609375 56 
z
" id="DejaVuSans-111"/>
      <path d="M 48.6875 27.296875 
Q 48.6875 37.203125 44.609375 42.84375 
Q 40.53125 48.484375 33.40625 48.484375 
Q 26.265625 48.484375 22.1875 42.84375 
Q 18.109375 37.203125 18.109375 27.296875 
Q 18.109375 17.390625 22.1875 11.75 
Q 26.265625 6.109375 33.40625 6.109375 
Q 40.53125 6.109375 44.609375 11.75 
Q 48.6875 17.390625 48.6875 27.296875 
z
M 18.109375 46.390625 
Q 20.953125 51.265625 25.265625 53.625 
Q 29.59375 56 35.59375 56 
Q 45.5625 56 51.78125 48.09375 
Q 58.015625 40.1875 58.015625 27.296875 
Q 58.015625 14.40625 51.78125 6.484375 
Q 45.5625 -1.421875 35.59375 -1.421875 
Q 29.59375 -1.421875 25.265625 0.953125 
Q 20.953125 3.328125 18.109375 8.203125 
L 18.109375 0 
L 9.078125 0 
L 9.078125 75.984375 
L 18.109375 75.984375 
z
" id="DejaVuSans-98"/>
      <path d="M 34.28125 27.484375 
Q 23.390625 27.484375 19.1875 25 
Q 14.984375 22.515625 14.984375 16.5 
Q 14.984375 11.71875 18.140625 8.90625 
Q 21.296875 6.109375 26.703125 6.109375 
Q 34.1875 6.109375 38.703125 11.40625 
Q 43.21875 16.703125 43.21875 25.484375 
L 43.21875 27.484375 
z
M 52.203125 31.203125 
L 52.203125 0 
L 43.21875 0 
L 43.21875 8.296875 
Q 40.140625 3.328125 35.546875 0.953125 
Q 30.953125 -1.421875 24.3125 -1.421875 
Q 15.921875 -1.421875 10.953125 3.296875 
Q 6 8.015625 6 15.921875 
Q 6 25.140625 12.171875 29.828125 
Q 18.359375 34.515625 30.609375 34.515625 
L 43.21875 34.515625 
L 43.21875 35.40625 
Q 43.21875 41.609375 39.140625 45 
Q 35.0625 48.390625 27.6875 48.390625 
Q 23 48.390625 18.546875 47.265625 
Q 14.109375 46.140625 10.015625 43.890625 
L 10.015625 52.203125 
Q 14.9375 54.109375 19.578125 55.046875 
Q 24.21875 56 28.609375 56 
Q 40.484375 56 46.34375 49.84375 
Q 52.203125 43.703125 52.203125 31.203125 
z
" id="DejaVuSans-97"/>
      <path id="DejaVuSans-32"/>
      <path d="M 3.328125 72.90625 
L 13.28125 72.90625 
L 28.609375 11.28125 
L 43.890625 72.90625 
L 54.984375 72.90625 
L 70.3125 11.28125 
L 85.59375 72.90625 
L 95.609375 72.90625 
L 77.296875 0 
L 64.890625 0 
L 49.515625 63.28125 
L 33.984375 0 
L 21.578125 0 
z
" id="DejaVuSans-87"/>
      <path d="M 41.109375 46.296875 
Q 39.59375 47.171875 37.8125 47.578125 
Q 36.03125 48 33.890625 48 
Q 26.265625 48 22.1875 43.046875 
Q 18.109375 38.09375 18.109375 28.8125 
L 18.109375 0 
L 9.078125 0 
L 9.078125 54.6875 
L 18.109375 54.6875 
L 18.109375 46.1875 
Q 20.953125 51.171875 25.484375 53.578125 
Q 30.03125 56 36.53125 56 
Q 37.453125 56 38.578125 55.875 
Q 39.703125 55.765625 41.0625 55.515625 
z
" id="DejaVuSans-114"/>
      <path d="M 52 44.1875 
Q 55.375 50.25 60.0625 53.125 
Q 64.75 56 71.09375 56 
Q 79.640625 56 84.28125 50.015625 
Q 88.921875 44.046875 88.921875 33.015625 
L 88.921875 0 
L 79.890625 0 
L 79.890625 32.71875 
Q 79.890625 40.578125 77.09375 44.375 
Q 74.3125 48.1875 68.609375 48.1875 
Q 61.625 48.1875 57.5625 43.546875 
Q 53.515625 38.921875 53.515625 30.90625 
L 53.515625 0 
L 44.484375 0 
L 44.484375 32.71875 
Q 44.484375 40.625 41.703125 44.40625 
Q 38.921875 48.1875 33.109375 48.1875 
Q 26.21875 48.1875 22.15625 43.53125 
Q 18.109375 38.875 18.109375 30.90625 
L 18.109375 0 
L 9.078125 0 
L 9.078125 54.6875 
L 18.109375 54.6875 
L 18.109375 46.1875 
Q 21.1875 51.21875 25.484375 53.609375 
Q 29.78125 56 35.6875 56 
Q 41.65625 56 45.828125 52.96875 
Q 50 49.953125 52 44.1875 
z
" id="DejaVuSans-109"/>
      <path d="M 9.421875 54.6875 
L 18.40625 54.6875 
L 18.40625 0 
L 9.421875 0 
z
M 9.421875 75.984375 
L 18.40625 75.984375 
L 18.40625 64.59375 
L 9.421875 64.59375 
z
" id="DejaVuSans-105"/>
      <path d="M 54.890625 33.015625 
L 54.890625 0 
L 45.90625 0 
L 45.90625 32.71875 
Q 45.90625 40.484375 42.875 44.328125 
Q 39.84375 48.1875 33.796875 48.1875 
Q 26.515625 48.1875 22.3125 43.546875 
Q 18.109375 38.921875 18.109375 30.90625 
L 18.109375 0 
L 9.078125 0 
L 9.078125 54.6875 
L 18.109375 54.6875 
L 18.109375 46.1875 
Q 21.34375 51.125 25.703125 53.5625 
Q 30.078125 56 35.796875 56 
Q 45.21875 56 50.046875 50.171875 
Q 54.890625 44.34375 54.890625 33.015625 
z
" id="DejaVuSans-110"/>
      <path d="M 45.40625 27.984375 
Q 45.40625 37.75 41.375 43.109375 
Q 37.359375 48.484375 30.078125 48.484375 
Q 22.859375 48.484375 18.828125 43.109375 
Q 14.796875 37.75 14.796875 27.984375 
Q 14.796875 18.265625 18.828125 12.890625 
Q 22.859375 7.515625 30.078125 7.515625 
Q 37.359375 7.515625 41.375 12.890625 
Q 45.40625 18.265625 45.40625 27.984375 
z
M 54.390625 6.78125 
Q 54.390625 -7.171875 48.1875 -13.984375 
Q 42 -20.796875 29.203125 -20.796875 
Q 24.46875 -20.796875 20.265625 -20.09375 
Q 16.0625 -19.390625 12.109375 -17.921875 
L 12.109375 -9.1875 
Q 16.0625 -11.328125 19.921875 -12.34375 
Q 23.78125 -13.375 27.78125 -13.375 
Q 36.625 -13.375 41.015625 -8.765625 
Q 45.40625 -4.15625 45.40625 5.171875 
L 45.40625 9.625 
Q 42.625 4.78125 38.28125 2.390625 
Q 33.9375 0 27.875 0 
Q 17.828125 0 11.671875 7.65625 
Q 5.515625 15.328125 5.515625 27.984375 
Q 5.515625 40.671875 11.671875 48.328125 
Q 17.828125 56 27.875 56 
Q 33.9375 56 38.28125 53.609375 
Q 42.625 51.21875 45.40625 46.390625 
L 45.40625 54.6875 
L 54.390625 54.6875 
z
" id="DejaVuSans-103"/>
      <path d="M 19.671875 64.796875 
L 19.671875 37.40625 
L 32.078125 37.40625 
Q 38.96875 37.40625 42.71875 40.96875 
Q 46.484375 44.53125 46.484375 51.125 
Q 46.484375 57.671875 42.71875 61.234375 
Q 38.96875 64.796875 32.078125 64.796875 
z
M 9.8125 72.90625 
L 32.078125 72.90625 
Q 44.34375 72.90625 50.609375 67.359375 
Q 56.890625 61.8125 56.890625 51.125 
Q 56.890625 40.328125 50.609375 34.8125 
Q 44.34375 29.296875 32.078125 29.296875 
L 19.671875 29.296875 
L 19.671875 0 
L 9.8125 0 
z
" id="DejaVuSans-80"/>
      <path d="M 18.3125 70.21875 
L 18.3125 54.6875 
L 36.8125 54.6875 
L 36.8125 47.703125 
L 18.3125 47.703125 
L 18.3125 18.015625 
Q 18.3125 11.328125 20.140625 9.421875 
Q 21.96875 7.515625 27.59375 7.515625 
L 36.8125 7.515625 
L 36.8125 0 
L 27.59375 0 
Q 17.1875 0 13.234375 3.875 
Q 9.28125 7.765625 9.28125 18.015625 
L 9.28125 47.703125 
L 2.6875 47.703125 
L 2.6875 54.6875 
L 9.28125 54.6875 
L 9.28125 70.21875 
z
" id="DejaVuSans-116"/>
      <path d="M 56.203125 29.59375 
L 56.203125 25.203125 
L 14.890625 25.203125 
Q 15.484375 15.921875 20.484375 11.0625 
Q 25.484375 6.203125 34.421875 6.203125 
Q 39.59375 6.203125 44.453125 7.46875 
Q 49.3125 8.734375 54.109375 11.28125 
L 54.109375 2.78125 
Q 49.265625 0.734375 44.1875 -0.34375 
Q 39.109375 -1.421875 33.890625 -1.421875 
Q 20.796875 -1.421875 13.15625 6.1875 
Q 5.515625 13.8125 5.515625 26.8125 
Q 5.515625 40.234375 12.765625 48.109375 
Q 20.015625 56 32.328125 56 
Q 43.359375 56 49.78125 48.890625 
Q 56.203125 41.796875 56.203125 29.59375 
z
M 47.21875 32.234375 
Q 47.125 39.59375 43.09375 43.984375 
Q 39.0625 48.390625 32.421875 48.390625 
Q 24.90625 48.390625 20.390625 44.140625 
Q 15.875 39.890625 15.1875 32.171875 
z
" id="DejaVuSans-101"/>
      <path d="M 31 75.875 
Q 24.46875 64.65625 21.28125 53.65625 
Q 18.109375 42.671875 18.109375 31.390625 
Q 18.109375 20.125 21.3125 9.0625 
Q 24.515625 -2 31 -13.1875 
L 23.1875 -13.1875 
Q 15.875 -1.703125 12.234375 9.375 
Q 8.59375 20.453125 8.59375 31.390625 
Q 8.59375 42.28125 12.203125 53.3125 
Q 15.828125 64.359375 23.1875 75.875 
z
" id="DejaVuSans-40"/>
      <path d="M 9.078125 75.984375 
L 18.109375 75.984375 
L 18.109375 31.109375 
L 44.921875 54.6875 
L 56.390625 54.6875 
L 27.390625 29.109375 
L 57.625 0 
L 45.90625 0 
L 18.109375 26.703125 
L 18.109375 0 
L 9.078125 0 
z
" id="DejaVuSans-107"/>
      <path d="M 64.40625 67.28125 
L 64.40625 56.890625 
Q 59.421875 61.53125 53.78125 63.8125 
Q 48.140625 66.109375 41.796875 66.109375 
Q 29.296875 66.109375 22.65625 58.46875 
Q 16.015625 50.828125 16.015625 36.375 
Q 16.015625 21.96875 22.65625 14.328125 
Q 29.296875 6.6875 41.796875 6.6875 
Q 48.140625 6.6875 53.78125 8.984375 
Q 59.421875 11.28125 64.40625 15.921875 
L 64.40625 5.609375 
Q 59.234375 2.09375 53.4375 0.328125 
Q 47.65625 -1.421875 41.21875 -1.421875 
Q 24.65625 -1.421875 15.125 8.703125 
Q 5.609375 18.84375 5.609375 36.375 
Q 5.609375 53.953125 15.125 64.078125 
Q 24.65625 74.21875 41.21875 74.21875 
Q 47.75 74.21875 53.53125 72.484375 
Q 59.328125 70.75 64.40625 67.28125 
z
" id="DejaVuSans-67"/>
      <path d="M 39.40625 66.21875 
Q 28.65625 66.21875 22.328125 58.203125 
Q 16.015625 50.203125 16.015625 36.375 
Q 16.015625 22.609375 22.328125 14.59375 
Q 28.65625 6.59375 39.40625 6.59375 
Q 50.140625 6.59375 56.421875 14.59375 
Q 62.703125 22.609375 62.703125 36.375 
Q 62.703125 50.203125 56.421875 58.203125 
Q 50.140625 66.21875 39.40625 66.21875 
z
M 39.40625 74.21875 
Q 54.734375 74.21875 63.90625 63.9375 
Q 73.09375 53.65625 73.09375 36.375 
Q 73.09375 19.140625 63.90625 8.859375 
Q 54.734375 -1.421875 39.40625 -1.421875 
Q 24.03125 -1.421875 14.8125 8.828125 
Q 5.609375 19.09375 5.609375 36.375 
Q 5.609375 53.65625 14.8125 63.9375 
Q 24.03125 74.21875 39.40625 74.21875 
z
" id="DejaVuSans-79"/>
      <path d="M 14.796875 27.296875 
Q 14.796875 17.390625 18.875 11.75 
Q 22.953125 6.109375 30.078125 6.109375 
Q 37.203125 6.109375 41.296875 11.75 
Q 45.40625 17.390625 45.40625 27.296875 
Q 45.40625 37.203125 41.296875 42.84375 
Q 37.203125 48.484375 30.078125 48.484375 
Q 22.953125 48.484375 18.875 42.84375 
Q 14.796875 37.203125 14.796875 27.296875 
z
M 45.40625 8.203125 
Q 42.578125 3.328125 38.25 0.953125 
Q 33.9375 -1.421875 27.875 -1.421875 
Q 17.96875 -1.421875 11.734375 6.484375 
Q 5.515625 14.40625 5.515625 27.296875 
Q 5.515625 40.1875 11.734375 48.09375 
Q 17.96875 56 27.875 56 
Q 33.9375 56 38.25 53.625 
Q 42.578125 51.265625 45.40625 46.390625 
L 45.40625 54.6875 
L 54.390625 54.6875 
L 54.390625 -20.796875 
L 45.40625 -20.796875 
z
" id="DejaVuSans-113"/>
      <path d="M 25.390625 72.90625 
L 33.6875 72.90625 
L 8.296875 -9.28125 
L 0 -9.28125 
z
" id="DejaVuSans-47"/>
      <path d="M 54.890625 33.015625 
L 54.890625 0 
L 45.90625 0 
L 45.90625 32.71875 
Q 45.90625 40.484375 42.875 44.328125 
Q 39.84375 48.1875 33.796875 48.1875 
Q 26.515625 48.1875 22.3125 43.546875 
Q 18.109375 38.921875 18.109375 30.90625 
L 18.109375 0 
L 9.078125 0 
L 9.078125 75.984375 
L 18.109375 75.984375 
L 18.109375 46.1875 
Q 21.34375 51.125 25.703125 53.5625 
Q 30.078125 56 35.796875 56 
Q 45.21875 56 50.046875 50.171875 
Q 54.890625 44.34375 54.890625 33.015625 
z
" id="DejaVuSans-104"/>
      <path d="M 8.5 21.578125 
L 8.5 54.6875 
L 17.484375 54.6875 
L 17.484375 21.921875 
Q 17.484375 14.15625 20.5 10.265625 
Q 23.53125 6.390625 29.59375 6.390625 
Q 36.859375 6.390625 41.078125 11.03125 
Q 45.3125 15.671875 45.3125 23.6875 
L 45.3125 54.6875 
L 54.296875 54.6875 
L 54.296875 0 
L 45.3125 0 
L 45.3125 8.40625 
Q 42.046875 3.421875 37.71875 1 
Q 33.40625 -1.421875 27.6875 -1.421875 
Q 18.265625 -1.421875 13.375 4.4375 
Q 8.5 10.296875 8.5 21.578125 
z
M 31.109375 56 
z
" id="DejaVuSans-117"/>
      <path d="M 44.28125 53.078125 
L 44.28125 44.578125 
Q 40.484375 46.53125 36.375 47.5 
Q 32.28125 48.484375 27.875 48.484375 
Q 21.1875 48.484375 17.84375 46.4375 
Q 14.5 44.390625 14.5 40.28125 
Q 14.5 37.15625 16.890625 35.375 
Q 19.28125 33.59375 26.515625 31.984375 
L 29.59375 31.296875 
Q 39.15625 29.25 43.1875 25.515625 
Q 47.21875 21.78125 47.21875 15.09375 
Q 47.21875 7.46875 41.1875 3.015625 
Q 35.15625 -1.421875 24.609375 -1.421875 
Q 20.21875 -1.421875 15.453125 -0.5625 
Q 10.6875 0.296875 5.421875 2 
L 5.421875 11.28125 
Q 10.40625 8.6875 15.234375 7.390625 
Q 20.0625 6.109375 24.8125 6.109375 
Q 31.15625 6.109375 34.5625 8.28125 
Q 37.984375 10.453125 37.984375 14.40625 
Q 37.984375 18.0625 35.515625 20.015625 
Q 33.0625 21.96875 24.703125 23.78125 
L 21.578125 24.515625 
Q 13.234375 26.265625 9.515625 29.90625 
Q 5.8125 33.546875 5.8125 39.890625 
Q 5.8125 47.609375 11.28125 51.796875 
Q 16.75 56 26.8125 56 
Q 31.78125 56 36.171875 55.265625 
Q 40.578125 54.546875 44.28125 53.078125 
z
" id="DejaVuSans-115"/>
      <path d="M 4.890625 31.390625 
L 31.203125 31.390625 
L 31.203125 23.390625 
L 4.890625 23.390625 
z
" id="DejaVuSans-45"/>
      <path d="M 32.171875 -5.078125 
Q 28.375 -14.84375 24.75 -17.8125 
Q 21.140625 -20.796875 15.09375 -20.796875 
L 7.90625 -20.796875 
L 7.90625 -13.28125 
L 13.1875 -13.28125 
Q 16.890625 -13.28125 18.9375 -11.515625 
Q 21 -9.765625 23.484375 -3.21875 
L 25.09375 0.875 
L 2.984375 54.6875 
L 12.5 54.6875 
L 29.59375 11.921875 
L 46.6875 54.6875 
L 56.203125 54.6875 
z
" id="DejaVuSans-121"/>
      <path d="M 8.015625 75.875 
L 15.828125 75.875 
Q 23.140625 64.359375 26.78125 53.3125 
Q 30.421875 42.28125 30.421875 31.390625 
Q 30.421875 20.453125 26.78125 9.375 
Q 23.140625 -1.703125 15.828125 -13.1875 
L 8.015625 -13.1875 
Q 14.5 -2 17.703125 9.0625 
Q 20.90625 20.125 20.90625 31.390625 
Q 20.90625 42.671875 17.703125 53.65625 
Q 14.5 64.65625 8.015625 75.875 
z
" id="DejaVuSans-41"/>
     </defs>
     <g transform="translate(120.958437 335.860562)scale(0.1 -0.1)">
      <use xlink:href="#DejaVuSans-71"/>
      <use x="77.490234" xlink:href="#DejaVuSans-108"/>
      <use x="105.273438" xlink:href="#DejaVuSans-111"/>
      <use x="166.455078" xlink:href="#DejaVuSans-98"/>
      <use x="229.931641" xlink:href="#DejaVuSans-97"/>
      <use x="291.210938" xlink:href="#DejaVuSans-108"/>
      <use x="318.994141" xlink:href="#DejaVuSans-32"/>
      <use x="350.78125" xlink:href="#DejaVuSans-87"/>
      <use x="443.283203" xlink:href="#DejaVuSans-97"/>
      <use x="504.5625" xlink:href="#DejaVuSans-114"/>
      <use x="543.925781" xlink:href="#DejaVuSans-109"/>
      <use x="641.337891" xlink:href="#DejaVuSans-105"/>
      <use x="669.121094" xlink:href="#DejaVuSans-110"/>
      <use x="732.5" xlink:href="#DejaVuSans-103"/>
      <use x="795.976562" xlink:href="#DejaVuSans-32"/>
      <use x="827.763672" xlink:href="#DejaVuSans-80"/>
      <use x="884.441406" xlink:href="#DejaVuSans-111"/>
      <use x="945.623047" xlink:href="#DejaVuSans-116"/>
      <use x="984.832031" xlink:href="#DejaVuSans-101"/>
      <use x="1046.355469" xlink:href="#DejaVuSans-110"/>
      <use x="1109.734375" xlink:href="#DejaVuSans-116"/>
      <use x="1148.943359" xlink:href="#DejaVuSans-105"/>
      <use x="1176.726562" xlink:href="#DejaVuSans-97"/>
      <use x="1238.005859" xlink:href="#DejaVuSans-108"/>
      <use x="1265.789062" xlink:href="#DejaVuSans-32"/>
      <use x="1297.576172" xlink:href="#DejaVuSans-40"/>
      <use x="1336.589844" xlink:href="#DejaVuSans-107"/>
      <use x="1394.5" xlink:href="#DejaVuSans-103"/>
      <use x="1457.976562" xlink:href="#DejaVuSans-67"/>
      <use x="1527.800781" xlink:href="#DejaVuSans-79"/>
      <use x="1606.511719" xlink:href="#DejaVuSans-50"/>
      <use x="1670.134766" xlink:href="#DejaVuSans-101"/>
      <use x="1731.658203" xlink:href="#DejaVuSans-113"/>
      <use x="1795.134766" xlink:href="#DejaVuSans-47"/>
      <use x="1828.826172" xlink:href="#DejaVuSans-104"/>
      <use x="1892.205078" xlink:href="#DejaVuSans-111"/>
      <use x="1953.386719" xlink:href="#DejaVuSans-117"/>
      <use x="2016.765625" xlink:href="#DejaVuSans-115"/>
      <use x="2068.865234" xlink:href="#DejaVuSans-101"/>
      <use x="2130.388672" xlink:href="#DejaVuSans-45"/>
      <use x="2164.722656" xlink:href="#DejaVuSans-121"/>
      <use x="2223.902344" xlink:href="#DejaVuSans-114"/>
      <use x="2265.015625" xlink:href="#DejaVuSans-41"/>
     </g>
    </g>
   </g>
   <g id="matplotlib.axis_2">
    <g id="ytick_1">
     <g id="line2d_7">
      <defs>
       <path d="M 0 0 
L -3.5 0 
" id="m3cf3649c01" style="stroke:#000000;stroke-width:0.8;"/>
      </defs>
      <g>
       <use style="stroke:#000000;stroke-width:0.8;" x="57.6" xlink:href="#m3cf3649c01" y="295.488"/>
      </g>
     </g>
     <g id="text_8">
      <!-- 0.0 -->
      <defs>
       <path d="M 10.6875 12.40625 
L 21 12.40625 
L 21 0 
L 10.6875 0 
z
" id="DejaVuSans-46"/>
      </defs>
      <g transform="translate(34.696875 299.287219)scale(0.1 -0.1)">
       <use xlink:href="#DejaVuSans-48"/>
       <use x="63.623047" xlink:href="#DejaVuSans-46"/>
       <use x="95.410156" xlink:href="#DejaVuSans-48"/>
      </g>
     </g>
    </g>
    <g id="ytick_2">
     <g id="line2d_8">
      <g>
       <use style="stroke:#000000;stroke-width:0.8;" x="57.6" xlink:href="#m3cf3649c01" y="244.439256"/>
      </g>
     </g>
     <g id="text_9">
      <!-- 0.1 -->
      <g transform="translate(34.696875 248.238474)scale(0.1 -0.1)">
       <use xlink:href="#DejaVuSans-48"/>
       <use x="63.623047" xlink:href="#DejaVuSans-46"/>
       <use x="95.410156" xlink:href="#DejaVuSans-49"/>
      </g>
     </g>
    </g>
    <g id="ytick_3">
     <g id="line2d_9">
      <g>
       <use style="stroke:#000000;stroke-width:0.8;" x="57.6" xlink:href="#m3cf3649c01" y="193.390511"/>
      </g>
     </g>
     <g id="text_10">
      <!-- 0.2 -->
      <g transform="translate(34.696875 197.18973)scale(0.1 -0.1)">
       <use xlink:href="#DejaVuSans-48"/>
       <use x="63.623047" xlink:href="#DejaVuSans-46"/>
       <use x="95.410156" xlink:href="#DejaVuSans-50"/>
      </g>
     </g>
    </g>
    <g id="ytick_4">
     <g id="line2d_10">
      <g>
       <use style="stroke:#000000;stroke-width:0.8;" x="57.6" xlink:href="#m3cf3649c01" y="142.341767"/>
      </g>
     </g>
     <g id="text_11">
      <!-- 0.3 -->
      <defs>
       <path d="M 40.578125 39.3125 
Q 47.65625 37.796875 51.625 33 
Q 55.609375 28.21875 55.609375 21.1875 
Q 55.609375 10.40625 48.1875 4.484375 
Q 40.765625 -1.421875 27.09375 -1.421875 
Q 22.515625 -1.421875 17.65625 -0.515625 
Q 12.796875 0.390625 7.625 2.203125 
L 7.625 11.71875 
Q 11.71875 9.328125 16.59375 8.109375 
Q 21.484375 6.890625 26.8125 6.890625 
Q 36.078125 6.890625 40.9375 10.546875 
Q 45.796875 14.203125 45.796875 21.1875 
Q 45.796875 27.640625 41.28125 31.265625 
Q 36.765625 34.90625 28.71875 34.90625 
L 20.21875 34.90625 
L 20.21875 43.015625 
L 29.109375 43.015625 
Q 36.375 43.015625 40.234375 45.921875 
Q 44.09375 48.828125 44.09375 54.296875 
Q 44.09375 59.90625 40.109375 62.90625 
Q 36.140625 65.921875 28.71875 65.921875 
Q 24.65625 65.921875 20.015625 65.03125 
Q 15.375 64.15625 9.8125 62.3125 
L 9.8125 71.09375 
Q 15.4375 72.65625 20.34375 73.4375 
Q 25.25 74.21875 29.59375 74.21875 
Q 40.828125 74.21875 47.359375 69.109375 
Q 53.90625 64.015625 53.90625 55.328125 
Q 53.90625 49.265625 50.4375 45.09375 
Q 46.96875 40.921875 40.578125 39.3125 
z
" id="DejaVuSans-51"/>
      </defs>
      <g transform="translate(34.696875 146.140985)scale(0.1 -0.1)">
       <use xlink:href="#DejaVuSans-48"/>
       <use x="63.623047" xlink:href="#DejaVuSans-46"/>
       <use x="95.410156" xlink:href="#DejaVuSans-51"/>
      </g>
     </g>
    </g>
    <g id="ytick_5">
     <g id="line2d_11">
      <g>
       <use style="stroke:#000000;stroke-width:0.8;" x="57.6" xlink:href="#m3cf3649c01" y="91.293022"/>
      </g>
     </g>
     <g id="text_12">
      <!-- 0.4 -->
      <g transform="translate(34.696875 95.092241)scale(0.1 -0.1)">
       <use xlink:href="#DejaVuSans-48"/>
       <use x="63.623047" xlink:href="#DejaVuSans-46"/>
       <use x="95.410156" xlink:href="#DejaVuSans-52"/>
      </g>
     </g>
    </g>
    <g id="text_13">
     <!-- Circularity -->
     <defs>
      <path d="M 48.78125 52.59375 
L 48.78125 44.1875 
Q 44.96875 46.296875 41.140625 47.34375 
Q 37.3125 48.390625 33.40625 48.390625 
Q 24.65625 48.390625 19.8125 42.84375 
Q 14.984375 37.3125 14.984375 27.296875 
Q 14.984375 17.28125 19.8125 11.734375 
Q 24.65625 6.203125 33.40625 6.203125 
Q 37.3125 6.203125 41.140625 7.25 
Q 44.96875 8.296875 48.78125 10.40625 
L 48.78125 2.09375 
Q 45.015625 0.34375 40.984375 -0.53125 
Q 36.96875 -1.421875 32.421875 -1.421875 
Q 20.0625 -1.421875 12.78125 6.34375 
Q 5.515625 14.109375 5.515625 27.296875 
Q 5.515625 40.671875 12.859375 48.328125 
Q 20.21875 56 33.015625 56 
Q 37.15625 56 41.109375 55.140625 
Q 45.0625 54.296875 48.78125 52.59375 
z
" id="DejaVuSans-99"/>
     </defs>
     <g transform="translate(17.419375 200.086594)rotate(-90)scale(0.1 -0.1)">
      <use xlink:href="#DejaVuSans-67"/>
      <use x="69.824219" xlink:href="#DejaVuSans-105"/>
      <use x="97.607422" xlink:href="#DejaVuSans-114"/>
      <use x="136.470703" xlink:href="#DejaVuSans-99"/>
      <use x="191.451172" xlink:href="#DejaVuSans-117"/>
      <use x="254.830078" xlink:href="#DejaVuSans-108"/>
      <use x="282.613281" xlink:href="#DejaVuSans-97"/>
      <use x="343.892578" xlink:href="#DejaVuSans-114"/>
      <use x="385.005859" xlink:href="#DejaVuSans-105"/>
      <use x="412.789062" xlink:href="#DejaVuSans-116"/>
      <use x="451.998047" xlink:href="#DejaVuSans-121"/>
     </g>
     <!--  (Fraction of economic value regenerated) -->
     <defs>
      <path d="M 9.8125 72.90625 
L 51.703125 72.90625 
L 51.703125 64.59375 
L 19.671875 64.59375 
L 19.671875 43.109375 
L 48.578125 43.109375 
L 48.578125 34.8125 
L 19.671875 34.8125 
L 19.671875 0 
L 9.8125 0 
z
" id="DejaVuSans-70"/>
      <path d="M 37.109375 75.984375 
L 37.109375 68.5 
L 28.515625 68.5 
Q 23.6875 68.5 21.796875 66.546875 
Q 19.921875 64.59375 19.921875 59.515625 
L 19.921875 54.6875 
L 34.71875 54.6875 
L 34.71875 47.703125 
L 19.921875 47.703125 
L 19.921875 0 
L 10.890625 0 
L 10.890625 47.703125 
L 2.296875 47.703125 
L 2.296875 54.6875 
L 10.890625 54.6875 
L 10.890625 58.5 
Q 10.890625 67.625 15.140625 71.796875 
Q 19.390625 75.984375 28.609375 75.984375 
z
" id="DejaVuSans-102"/>
      <path d="M 2.984375 54.6875 
L 12.5 54.6875 
L 29.59375 8.796875 
L 46.6875 54.6875 
L 56.203125 54.6875 
L 35.6875 0 
L 23.484375 0 
z
" id="DejaVuSans-118"/>
      <path d="M 45.40625 46.390625 
L 45.40625 75.984375 
L 54.390625 75.984375 
L 54.390625 0 
L 45.40625 0 
L 45.40625 8.203125 
Q 42.578125 3.328125 38.25 0.953125 
Q 33.9375 -1.421875 27.875 -1.421875 
Q 17.96875 -1.421875 11.734375 6.484375 
Q 5.515625 14.40625 5.515625 27.296875 
Q 5.515625 40.1875 11.734375 48.09375 
Q 17.96875 56 27.875 56 
Q 33.9375 56 38.25 53.625 
Q 42.578125 51.265625 45.40625 46.390625 
z
M 14.796875 27.296875 
Q 14.796875 17.390625 18.875 11.75 
Q 22.953125 6.109375 30.078125 6.109375 
Q 37.203125 6.109375 41.296875 11.75 
Q 45.40625 17.390625 45.40625 27.296875 
Q 45.40625 37.203125 41.296875 42.84375 
Q 37.203125 48.484375 30.078125 48.484375 
Q 22.953125 48.484375 18.875 42.84375 
Q 14.796875 37.203125 14.796875 27.296875 
z
" id="DejaVuSans-100"/>
     </defs>
     <g transform="translate(28.617187 279.779562)rotate(-90)scale(0.1 -0.1)">
      <use xlink:href="#DejaVuSans-32"/>
      <use x="31.787109" xlink:href="#DejaVuSans-40"/>
      <use x="70.800781" xlink:href="#DejaVuSans-70"/>
      <use x="121.070312" xlink:href="#DejaVuSans-114"/>
      <use x="162.183594" xlink:href="#DejaVuSans-97"/>
      <use x="223.462891" xlink:href="#DejaVuSans-99"/>
      <use x="278.443359" xlink:href="#DejaVuSans-116"/>
      <use x="317.652344" xlink:href="#DejaVuSans-105"/>
      <use x="345.435547" xlink:href="#DejaVuSans-111"/>
      <use x="406.617188" xlink:href="#DejaVuSans-110"/>
      <use x="469.996094" xlink:href="#DejaVuSans-32"/>
      <use x="501.783203" xlink:href="#DejaVuSans-111"/>
      <use x="562.964844" xlink:href="#DejaVuSans-102"/>
      <use x="598.169922" xlink:href="#DejaVuSans-32"/>
      <use x="629.957031" xlink:href="#DejaVuSans-101"/>
      <use x="691.480469" xlink:href="#DejaVuSans-99"/>
      <use x="746.460938" xlink:href="#DejaVuSans-111"/>
      <use x="807.642578" xlink:href="#DejaVuSans-110"/>
      <use x="871.021484" xlink:href="#DejaVuSans-111"/>
      <use x="932.203125" xlink:href="#DejaVuSans-109"/>
      <use x="1029.615234" xlink:href="#DejaVuSans-105"/>
      <use x="1057.398438" xlink:href="#DejaVuSans-99"/>
      <use x="1112.378906" xlink:href="#DejaVuSans-32"/>
      <use x="1144.166016" xlink:href="#DejaVuSans-118"/>
      <use x="1203.345703" xlink:href="#DejaVuSans-97"/>
      <use x="1264.625" xlink:href="#DejaVuSans-108"/>
      <use x="1292.408203" xlink:href="#DejaVuSans-117"/>
      <use x="1355.787109" xlink:href="#DejaVuSans-101"/>
      <use x="1417.310547" xlink:href="#DejaVuSans-32"/>
      <use x="1449.097656" xlink:href="#DejaVuSans-114"/>
      <use x="1487.960938" xlink:href="#DejaVuSans-101"/>
      <use x="1549.484375" xlink:href="#DejaVuSans-103"/>
      <use x="1612.960938" xlink:href="#DejaVuSans-101"/>
      <use x="1674.484375" xlink:href="#DejaVuSans-110"/>
      <use x="1737.863281" xlink:href="#DejaVuSans-101"/>
      <use x="1799.386719" xlink:href="#DejaVuSans-114"/>
      <use x="1840.5" xlink:href="#DejaVuSans-97"/>
      <use x="1901.779297" xlink:href="#DejaVuSans-116"/>
      <use x="1940.988281" xlink:href="#DejaVuSans-101"/>
      <use x="2002.511719" xlink:href="#DejaVuSans-100"/>
      <use x="2065.988281" xlink:href="#DejaVuSans-41"/>
     </g>
    </g>
   </g>
   <g id="LineCollection_1">
    <path clip-path="url(#p4f4f632198)" d="M 73.832727 295.488 
L 73.832727 53.568 
" style="fill:none;stroke:#ff0000;stroke-dasharray:5.55,2.4;stroke-dashoffset:0;stroke-opacity:0.7;stroke-width:1.5;"/>
   </g>
   <g id="patch_3">
    <path d="M 57.6 307.584 
L 57.6 41.472 
" style="fill:none;stroke:#000000;stroke-linecap:square;stroke-linejoin:miter;stroke-width:0.8;"/>
   </g>
   <g id="patch_4">
    <path d="M 414.72 307.584 
L 414.72 41.472 
" style="fill:none;stroke:#000000;stroke-linecap:square;stroke-linejoin:miter;stroke-width:0.8;"/>
   </g>
   <g id="patch_5">
    <path d="M 57.6 307.584 
L 414.72 307.584 
" style="fill:none;stroke:#000000;stroke-linecap:square;stroke-linejoin:miter;stroke-width:0.8;"/>
   </g>
   <g id="patch_6">
    <path d="M 57.6 41.472 
L 414.72 41.472 
" style="fill:none;stroke:#000000;stroke-linecap:square;stroke-linejoin:miter;stroke-width:0.8;"/>
   </g>
   <g id="patch_7">
    <path d="M 167.236155 83.985616 
Q 87.455054 90.754842 76.899158 90.357804 
" style="fill:none;stroke:#000000;stroke-linecap:round;"/>
    <path d="M 80.821159 92.506736 
L 76.899158 90.357804 
L 80.971505 88.509562 
" style="fill:none;stroke:#000000;stroke-linecap:round;"/>
   </g>
   <g id="text_14">
    <!-- Net-zero -->
    <defs>
     <path d="M 9.8125 72.90625 
L 23.09375 72.90625 
L 55.421875 11.921875 
L 55.421875 72.90625 
L 64.984375 72.90625 
L 64.984375 0 
L 51.703125 0 
L 19.390625 60.984375 
L 19.390625 0 
L 9.8125 0 
z
" id="DejaVuSans-78"/>
     <path d="M 5.515625 54.6875 
L 48.1875 54.6875 
L 48.1875 46.484375 
L 14.40625 7.171875 
L 48.1875 7.171875 
L 48.1875 0 
L 4.296875 0 
L 4.296875 8.203125 
L 38.09375 47.515625 
L 5.515625 47.515625 
z
" id="DejaVuSans-122"/>
    </defs>
    <g transform="translate(171.229091 78.658187)scale(0.1 -0.1)">
     <use xlink:href="#DejaVuSans-78"/>
     <use x="74.804688" xlink:href="#DejaVuSans-101"/>
     <use x="136.328125" xlink:href="#DejaVuSans-116"/>
     <use x="175.537109" xlink:href="#DejaVuSans-45"/>
     <use x="211.621094" xlink:href="#DejaVuSans-122"/>
     <use x="264.111328" xlink:href="#DejaVuSans-101"/>
     <use x="325.634766" xlink:href="#DejaVuSans-114"/>
     <use x="364.498047" xlink:href="#DejaVuSans-111"/>
    </g>
    <!-- Emissions -->
    <defs>
     <path d="M 9.8125 72.90625 
L 55.90625 72.90625 
L 55.90625 64.59375 
L 19.671875 64.59375 
L 19.671875 43.015625 
L 54.390625 43.015625 
L 54.390625 34.71875 
L 19.671875 34.71875 
L 19.671875 8.296875 
L 56.78125 8.296875 
L 56.78125 0 
L 9.8125 0 
z
" id="DejaVuSans-69"/>
    </defs>
    <g transform="translate(171.229091 89.856)scale(0.1 -0.1)">
     <use xlink:href="#DejaVuSans-69"/>
     <use x="63.183594" xlink:href="#DejaVuSans-109"/>
     <use x="160.595703" xlink:href="#DejaVuSans-105"/>
     <use x="188.378906" xlink:href="#DejaVuSans-115"/>
     <use x="240.478516" xlink:href="#DejaVuSans-115"/>
     <use x="292.578125" xlink:href="#DejaVuSans-105"/>
     <use x="320.361328" xlink:href="#DejaVuSans-111"/>
     <use x="381.542969" xlink:href="#DejaVuSans-110"/>
     <use x="444.921875" xlink:href="#DejaVuSans-115"/>
    </g>
   </g>
   <g id="legend_1">
    <g id="patch_8">
     <path d="M 342.566875 302.584 
L 407.72 302.584 
Q 409.72 302.584 409.72 300.584 
L 409.72 216.995562 
Q 409.72 214.995562 407.72 214.995562 
L 342.566875 214.995562 
Q 340.566875 214.995562 340.566875 216.995562 
L 340.566875 300.584 
Q 340.566875 302.584 342.566875 302.584 
z
" style="fill:#ffffff;opacity:0.8;stroke:#cccccc;stroke-linejoin:miter;"/>
    </g>
    <g id="text_15">
     <!-- LCC -->
     <defs>
      <path d="M 9.8125 72.90625 
L 19.671875 72.90625 
L 19.671875 8.296875 
L 55.171875 8.296875 
L 55.171875 0 
L 9.8125 0 
z
" id="DejaVuSans-76"/>
     </defs>
     <g transform="translate(344.566875 226.594)scale(0.1 -0.1)">
      <use xlink:href="#DejaVuSans-76"/>
      <use x="55.712891" xlink:href="#DejaVuSans-67"/>
      <use x="125.537109" xlink:href="#DejaVuSans-67"/>
     </g>
     <!-- ($/house-yr) -->
     <defs>
      <path d="M 33.796875 -14.703125 
L 28.90625 -14.703125 
L 28.859375 0 
Q 23.734375 0.09375 18.609375 1.1875 
Q 13.484375 2.296875 8.296875 4.5 
L 8.296875 13.28125 
Q 13.28125 10.15625 18.375 8.5625 
Q 23.484375 6.984375 28.90625 6.9375 
L 28.90625 29.203125 
Q 18.109375 30.953125 13.203125 35.15625 
Q 8.296875 39.359375 8.296875 46.6875 
Q 8.296875 54.640625 13.625 59.21875 
Q 18.953125 63.8125 28.90625 64.5 
L 28.90625 75.984375 
L 33.796875 75.984375 
L 33.796875 64.65625 
Q 38.328125 64.453125 42.578125 63.6875 
Q 46.828125 62.9375 50.875 61.625 
L 50.875 53.078125 
Q 46.828125 55.125 42.546875 56.25 
Q 38.28125 57.375 33.796875 57.5625 
L 33.796875 36.71875 
Q 44.875 35.015625 50.09375 30.609375 
Q 55.328125 26.21875 55.328125 18.609375 
Q 55.328125 10.359375 49.78125 5.59375 
Q 44.234375 0.828125 33.796875 0.09375 
z
M 28.90625 37.59375 
L 28.90625 57.625 
Q 23.25 56.984375 20.265625 54.390625 
Q 17.28125 51.8125 17.28125 47.515625 
Q 17.28125 43.3125 20.03125 40.96875 
Q 22.796875 38.625 28.90625 37.59375 
z
M 33.796875 28.21875 
L 33.796875 7.078125 
Q 39.984375 7.90625 43.140625 10.59375 
Q 46.296875 13.28125 46.296875 17.671875 
Q 46.296875 21.96875 43.28125 24.5 
Q 40.28125 27.046875 33.796875 28.21875 
z
" id="DejaVuSans-36"/>
     </defs>
     <g transform="translate(344.566875 237.791812)scale(0.1 -0.1)">
      <use xlink:href="#DejaVuSans-40"/>
      <use x="39.013672" xlink:href="#DejaVuSans-36"/>
      <use x="102.636719" xlink:href="#DejaVuSans-47"/>
      <use x="136.328125" xlink:href="#DejaVuSans-104"/>
      <use x="199.707031" xlink:href="#DejaVuSans-111"/>
      <use x="260.888672" xlink:href="#DejaVuSans-117"/>
      <use x="324.267578" xlink:href="#DejaVuSans-115"/>
      <use x="376.367188" xlink:href="#DejaVuSans-101"/>
      <use x="437.890625" xlink:href="#DejaVuSans-45"/>
      <use x="472.224609" xlink:href="#DejaVuSans-121"/>
      <use x="531.404297" xlink:href="#DejaVuSans-114"/>
      <use x="572.517578" xlink:href="#DejaVuSans-41"/>
     </g>
    </g>
    <g id="line2d_12"/>
    <g id="line2d_13">
     <defs>
      <path d="M 0 3 
C 0.795609 3 1.55874 2.683901 2.12132 2.12132 
C 2.683901 1.55874 3 0.795609 3 0 
C 3 -0.795609 2.683901 -1.55874 2.12132 -2.12132 
C 1.55874 -2.683901 0.795609 -3 0 -3 
C -0.795609 -3 -1.55874 -2.683901 -2.12132 -2.12132 
C -2.683901 -1.55874 -3 -0.795609 -3 0 
C -3 0.795609 -2.683901 1.55874 -2.12132 2.12132 
C -1.55874 2.683901 -0.795609 3 0 3 
z
" id="m065fa07c02" style="stroke:#db4b02;stroke-opacity:0.7;"/>
     </defs>
     <g>
      <use style="fill:#db4b02;fill-opacity:0.7;stroke:#db4b02;stroke-opacity:0.7;" x="363.143438" xlink:href="#m065fa07c02" y="248.969937"/>
     </g>
    </g>
    <g id="text_16">
     <!-- $\mathdefault{0.8}$ -->
     <g transform="translate(381.143438 252.469937)scale(0.1 -0.1)">
      <use transform="translate(0 0.78125)" xlink:href="#DejaVuSans-48"/>
      <use transform="translate(63.623047 0.78125)" xlink:href="#DejaVuSans-46"/>
      <use transform="translate(92.785156 0.78125)" xlink:href="#DejaVuSans-56"/>
     </g>
    </g>
    <g id="line2d_14"/>
    <g id="line2d_15">
     <defs>
      <path d="M 0 3 
C 0.795609 3 1.55874 2.683901 2.12132 2.12132 
C 2.683901 1.55874 3 0.795609 3 0 
C 3 -0.795609 2.683901 -1.55874 2.12132 -2.12132 
C 1.55874 -2.683901 0.795609 -3 0 -3 
C -0.795609 -3 -1.55874 -2.683901 -2.12132 -2.12132 
C -2.683901 -1.55874 -3 -0.795609 -3 0 
C -3 0.795609 -2.683901 1.55874 -2.12132 2.12132 
C -1.55874 2.683901 -0.795609 3 0 3 
z
" id="mfebde9e441" style="stroke:#fdd7af;stroke-opacity:0.7;"/>
     </defs>
     <g>
      <use style="fill:#fdd7af;fill-opacity:0.7;stroke:#fdd7af;stroke-opacity:0.7;" x="363.143438" xlink:href="#mfebde9e441" y="263.648062"/>
     </g>
    </g>
    <g id="text_17">
     <!-- $\mathdefault{1.6}$ -->
     <g transform="translate(381.143438 267.148062)scale(0.1 -0.1)">
      <use transform="translate(0 0.78125)" xlink:href="#DejaVuSans-49"/>
      <use transform="translate(63.623047 0.78125)" xlink:href="#DejaVuSans-46"/>
      <use transform="translate(95.410156 0.78125)" xlink:href="#DejaVuSans-54"/>
     </g>
    </g>
    <g id="line2d_16"/>
    <g id="line2d_17">
     <defs>
      <path d="M 0 3 
C 0.795609 3 1.55874 2.683901 2.12132 2.12132 
C 2.683901 1.55874 3 0.795609 3 0 
C 3 -0.795609 2.683901 -1.55874 2.12132 -2.12132 
C 1.55874 -2.683901 0.795609 -3 0 -3 
C -0.795609 -3 -1.55874 -2.683901 -2.12132 -2.12132 
C -2.683901 -1.55874 -3 -0.795609 -3 0 
C -3 0.795609 -2.683901 1.55874 -2.12132 2.12132 
C -1.55874 2.683901 -0.795609 3 0 3 
z
" id="m1defe3809c" style="stroke:#b4d3e9;stroke-opacity:0.7;"/>
     </defs>
     <g>
      <use style="fill:#b4d3e9;fill-opacity:0.7;stroke:#b4d3e9;stroke-opacity:0.7;" x="363.143438" xlink:href="#m1defe3809c" y="278.326188"/>
     </g>
    </g>
    <g id="text_18">
     <!-- $\mathdefault{2.4}$ -->
     <g transform="translate(381.143438 281.826188)scale(0.1 -0.1)">
      <use transform="translate(0 0.78125)" xlink:href="#DejaVuSans-50"/>
      <use transform="translate(63.623047 0.78125)" xlink:href="#DejaVuSans-46"/>
      <use transform="translate(95.410156 0.78125)" xlink:href="#DejaVuSans-52"/>
     </g>
    </g>
    <g id="line2d_18"/>
    <g id="line2d_19">
     <defs>
      <path d="M 0 3 
C 0.795609 3 1.55874 2.683901 2.12132 2.12132 
C 2.683901 1.55874 3 0.795609 3 0 
C 3 -0.795609 2.683901 -1.55874 2.12132 -2.12132 
C 1.55874 -2.683901 0.795609 -3 0 -3 
C -0.795609 -3 -1.55874 -2.683901 -2.12132 -2.12132 
C -2.683901 -1.55874 -3 -0.795609 -3 0 
C -3 0.795609 -2.683901 1.55874 -2.12132 2.12132 
C -1.55874 2.683901 -0.795609 3 0 3 
z
" id="mf328de17a4" style="stroke:#105ba4;stroke-opacity:0.7;"/>
     </defs>
     <g>
      <use style="fill:#105ba4;fill-opacity:0.7;stroke:#105ba4;stroke-opacity:0.7;" x="363.143438" xlink:href="#mf328de17a4" y="293.004312"/>
     </g>
    </g>
    <g id="text_19">
     <!-- $\mathdefault{3.2}$ -->
     <g transform="translate(381.143438 296.504312)scale(0.1 -0.1)">
      <use transform="translate(0 0.78125)" xlink:href="#DejaVuSans-51"/>
      <use transform="translate(63.623047 0.78125)" xlink:href="#DejaVuSans-46"/>
      <use transform="translate(89.910156 0.78125)" xlink:href="#DejaVuSans-50"/>
     </g>
    </g>
   </g>
   <g id="legend_2">
    <g id="patch_9">
     <path d="M 342.566875 302.584 
L 407.72 302.584 
Q 409.72 302.584 409.72 300.584 
L 409.72 216.995562 
Q 409.72 214.995562 407.72 214.995562 
L 342.566875 214.995562 
Q 340.566875 214.995562 340.566875 216.995562 
L 340.566875 300.584 
Q 340.566875 302.584 342.566875 302.584 
z
" style="fill:#ffffff;opacity:0.8;stroke:#cccccc;stroke-linejoin:miter;"/>
    </g>
    <g id="text_20">
     <!-- LCC -->
     <g transform="translate(344.566875 226.594)scale(0.1 -0.1)">
      <use xlink:href="#DejaVuSans-76"/>
      <use x="55.712891" xlink:href="#DejaVuSans-67"/>
      <use x="125.537109" xlink:href="#DejaVuSans-67"/>
     </g>
     <!-- ($/house-yr) -->
     <g transform="translate(344.566875 237.791812)scale(0.1 -0.1)">
      <use xlink:href="#DejaVuSans-40"/>
      <use x="39.013672" xlink:href="#DejaVuSans-36"/>
      <use x="102.636719" xlink:href="#DejaVuSans-47"/>
      <use x="136.328125" xlink:href="#DejaVuSans-104"/>
      <use x="199.707031" xlink:href="#DejaVuSans-111"/>
      <use x="260.888672" xlink:href="#DejaVuSans-117"/>
      <use x="324.267578" xlink:href="#DejaVuSans-115"/>
      <use x="376.367188" xlink:href="#DejaVuSans-101"/>
      <use x="437.890625" xlink:href="#DejaVuSans-45"/>
      <use x="472.224609" xlink:href="#DejaVuSans-121"/>
      <use x="531.404297" xlink:href="#DejaVuSans-114"/>
      <use x="572.517578" xlink:href="#DejaVuSans-41"/>
     </g>
    </g>
    <g id="line2d_20"/>
    <g id="line2d_21">
     <g>
      <use style="fill:#db4b02;fill-opacity:0.7;stroke:#db4b02;stroke-opacity:0.7;" x="363.143438" xlink:href="#m065fa07c02" y="248.969937"/>
     </g>
    </g>
    <g id="text_21">
     <!-- $\mathdefault{0.8}$ -->
     <g transform="translate(381.143438 252.469937)scale(0.1 -0.1)">
      <use transform="translate(0 0.78125)" xlink:href="#DejaVuSans-48"/>
      <use transform="translate(63.623047 0.78125)" xlink:href="#DejaVuSans-46"/>
      <use transform="translate(92.785156 0.78125)" xlink:href="#DejaVuSans-56"/>
     </g>
    </g>
    <g id="line2d_22"/>
    <g id="line2d_23">
     <g>
      <use style="fill:#fdd7af;fill-opacity:0.7;stroke:#fdd7af;stroke-opacity:0.7;" x="363.143438" xlink:href="#mfebde9e441" y="263.648062"/>
     </g>
    </g>
    <g id="text_22">
     <!-- $\mathdefault{1.6}$ -->
     <g transform="translate(381.143438 267.148062)scale(0.1 -0.1)">
      <use transform="translate(0 0.78125)" xlink:href="#DejaVuSans-49"/>
      <use transform="translate(63.623047 0.78125)" xlink:href="#DejaVuSans-46"/>
      <use transform="translate(95.410156 0.78125)" xlink:href="#DejaVuSans-54"/>
     </g>
    </g>
    <g id="line2d_24"/>
    <g id="line2d_25">
     <g>
      <use style="fill:#b4d3e9;fill-opacity:0.7;stroke:#b4d3e9;stroke-opacity:0.7;" x="363.143438" xlink:href="#m1defe3809c" y="278.326188"/>
     </g>
    </g>
    <g id="text_23">
     <!-- $\mathdefault{2.4}$ -->
     <g transform="translate(381.143438 281.826188)scale(0.1 -0.1)">
      <use transform="translate(0 0.78125)" xlink:href="#DejaVuSans-50"/>
      <use transform="translate(63.623047 0.78125)" xlink:href="#DejaVuSans-46"/>
      <use transform="translate(95.410156 0.78125)" xlink:href="#DejaVuSans-52"/>
     </g>
    </g>
    <g id="line2d_26"/>
    <g id="line2d_27">
     <g>
      <use style="fill:#105ba4;fill-opacity:0.7;stroke:#105ba4;stroke-opacity:0.7;" x="363.143438" xlink:href="#mf328de17a4" y="293.004312"/>
     </g>
    </g>
    <g id="text_24">
     <!-- $\mathdefault{3.2}$ -->
     <g transform="translate(381.143438 296.504312)scale(0.1 -0.1)">
      <use transform="translate(0 0.78125)" xlink:href="#DejaVuSans-51"/>
      <use transform="translate(63.623047 0.78125)" xlink:href="#DejaVuSans-46"/>
      <use transform="translate(89.910156 0.78125)" xlink:href="#DejaVuSans-50"/>
     </g>
    </g>
   </g>
  </g>
 </g>
 <defs>
  <clipPath id="p4f4f632198">
   <rect height="266.112" width="357.12" x="57.6" y="41.472"/>
  </clipPath>
 </defs>
</svg>
