<?xml version="1.0" encoding="utf-8" standalone="no"?>
<!DOCTYPE svg PUBLIC "-//W3C//DTD SVG 1.1//EN"
  "http://www.w3.org/Graphics/SVG/1.1/DTD/svg11.dtd">
<!-- Created with matplotlib (https://matplotlib.org/) -->
<svg height="345.6pt" version="1.1" viewBox="0 0 460.8 345.6" width="460.8pt" xmlns="http://www.w3.org/2000/svg" xmlns:xlink="http://www.w3.org/1999/xlink">
 <defs>
  <style type="text/css">
*{stroke-linecap:butt;stroke-linejoin:round;}
  </style>
 </defs>
 <g id="figure_1">
  <g id="patch_1">
   <path d="M 0 345.6 
L 460.8 345.6 
L 460.8 0 
L 0 0 
z
" style="fill:#ffffff;"/>
  </g>
  <g id="axes_1">
   <g id="patch_2">
    <path d="M 57.6 307.584 
L 414.72 307.584 
L 414.72 41.472 
L 57.6 41.472 
z
" style="fill:#ffffff;"/>
   </g>
   <g id="PathCollection_1">
    <path clip-path="url(#p8b191b2227)" d="M 322.847022 59.391444 
C 324.391417 59.391444 325.872766 58.777849 326.964818 57.685797 
C 328.056871 56.593744 328.670466 55.112395 328.670466 53.568 
C 328.670466 52.023605 328.056871 50.542256 326.964818 49.450203 
C 325.872766 48.358151 324.391417 47.744556 322.847022 47.744556 
C 321.302626 47.744556 319.821277 48.358151 318.729225 49.450203 
C 317.637172 50.542256 317.023578 52.023605 317.023578 53.568 
C 317.023578 55.112395 317.637172 56.593744 318.729225 57.685797 
C 319.821277 58.777849 321.302626 59.391444 322.847022 59.391444 
z
" style="fill:#08306b;fill-opacity:0.7;stroke:#000000;stroke-opacity:0.7;"/>
    <path clip-path="url(#p8b191b2227)" d="M 169.531236 226.108806 
C 170.365151 226.108806 171.165023 225.777488 171.75469 225.187821 
C 172.344357 224.598154 172.675675 223.798282 172.675675 222.964366 
C 172.675675 222.130451 172.344357 221.330579 171.75469 220.740912 
C 171.165023 220.151245 170.365151 219.819927 169.531236 219.819927 
C 168.697321 219.819927 167.897448 220.151245 167.307781 220.740912 
C 166.718114 221.330579 166.386796 222.130451 166.386796 222.964366 
C 166.386796 223.798282 166.718114 224.598154 167.307781 225.187821 
C 167.897448 225.777488 168.697321 226.108806 169.531236 226.108806 
z
" style="fill:#fda35b;fill-opacity:0.7;stroke:#000000;stroke-opacity:0.7;"/>
    <path clip-path="url(#p8b191b2227)" d="M 169.531236 218.410308 
C 169.531236 218.410308 169.531236 218.410308 169.531236 218.410308 
C 169.531236 218.410308 169.531236 218.410308 169.531236 218.410308 
C 169.531236 218.410308 169.531236 218.410308 169.531236 218.410308 
C 169.531236 218.410308 169.531236 218.410308 169.531236 218.410308 
C 169.531236 218.410308 169.531236 218.410308 169.531236 218.410308 
C 169.531236 218.410308 169.531236 218.410308 169.531236 218.410308 
C 169.531236 218.410308 169.531236 218.410308 169.531236 218.410308 
C 169.531236 218.410308 169.531236 218.410308 169.531236 218.410308 
z
" style="fill:#7f2704;fill-opacity:0.7;stroke:#000000;stroke-opacity:0.7;"/>
    <path clip-path="url(#p8b191b2227)" d="M 221.230122 175.137922 
C 222.716739 175.137922 224.142667 174.547283 225.193864 173.496086 
C 226.245061 172.44489 226.8357 171.018961 226.8357 169.532344 
C 226.8357 168.045728 226.245061 166.619799 225.193864 165.568602 
C 224.142667 164.517406 222.716739 163.926767 221.230122 163.926767 
C 219.743506 163.926767 218.317577 164.517406 217.26638 165.568602 
C 216.215184 166.619799 215.624545 168.045728 215.624545 169.532344 
C 215.624545 171.018961 216.215184 172.44489 217.26638 173.496086 
C 218.317577 174.547283 219.743506 175.137922 221.230122 175.137922 
z
" style="fill:#0b559f;fill-opacity:0.7;stroke:#000000;stroke-opacity:0.7;"/>
    <path clip-path="url(#p8b191b2227)" d="M 221.230122 175.137922 
C 222.716739 175.137922 224.142667 174.547283 225.193864 173.496086 
C 226.245061 172.44489 226.8357 171.018961 226.8357 169.532344 
C 226.8357 168.045728 226.245061 166.619799 225.193864 165.568602 
C 224.142667 164.517406 222.716739 163.926767 221.230122 163.926767 
C 219.743506 163.926767 218.317577 164.517406 217.26638 165.568602 
C 216.215184 166.619799 215.624545 168.045728 215.624545 169.532344 
C 215.624545 171.018961 216.215184 172.44489 217.26638 173.496086 
C 218.317577 174.547283 219.743506 175.137922 221.230122 175.137922 
z
" style="fill:#0b559f;fill-opacity:0.7;stroke:#000000;stroke-opacity:0.7;"/>
    <path clip-path="url(#p8b191b2227)" d="M 221.230122 175.137922 
C 222.716739 175.137922 224.142667 174.547283 225.193864 173.496086 
C 226.245061 172.44489 226.8357 171.018961 226.8357 169.532344 
C 226.8357 168.045728 226.245061 166.619799 225.193864 165.568602 
C 224.142667 164.517406 222.716739 163.926767 221.230122 163.926767 
C 219.743506 163.926767 218.317577 164.517406 217.26638 165.568602 
C 216.215184 166.619799 215.624545 168.045728 215.624545 169.532344 
C 215.624545 171.018961 216.215184 172.44489 217.26638 173.496086 
C 218.317577 174.547283 219.743506 175.137922 221.230122 175.137922 
z
" style="fill:#0b559f;fill-opacity:0.7;stroke:#000000;stroke-opacity:0.7;"/>
    <path clip-path="url(#p8b191b2227)" d="M 221.230122 175.137922 
C 222.716739 175.137922 224.142667 174.547283 225.193864 173.496086 
C 226.245061 172.44489 226.8357 171.018961 226.8357 169.532344 
C 226.8357 168.045728 226.245061 166.619799 225.193864 165.568602 
C 224.142667 164.517406 222.716739 163.926767 221.230122 163.926767 
C 219.743506 163.926767 218.317577 164.517406 217.26638 165.568602 
C 216.215184 166.619799 215.624545 168.045728 215.624545 169.532344 
C 215.624545 171.018961 216.215184 172.44489 217.26638 173.496086 
C 218.317577 174.547283 219.743506 175.137922 221.230122 175.137922 
z
" style="fill:#0b559f;fill-opacity:0.7;stroke:#000000;stroke-opacity:0.7;"/>
    <path clip-path="url(#p8b191b2227)" d="M 221.230122 175.137922 
C 222.716739 175.137922 224.142667 174.547283 225.193864 173.496086 
C 226.245061 172.44489 226.8357 171.018961 226.8357 169.532344 
C 226.8357 168.045728 226.245061 166.619799 225.193864 165.568602 
C 224.142667 164.517406 222.716739 163.926767 221.230122 163.926767 
C 219.743506 163.926767 218.317577 164.517406 217.26638 165.568602 
C 216.215184 166.619799 215.624545 168.045728 215.624545 169.532344 
C 215.624545 171.018961 216.215184 172.44489 217.26638 173.496086 
C 218.317577 174.547283 219.743506 175.137922 221.230122 175.137922 
z
" style="fill:#0b559f;fill-opacity:0.7;stroke:#000000;stroke-opacity:0.7;"/>
    <path clip-path="url(#p8b191b2227)" d="M 221.230122 175.137922 
C 222.716739 175.137922 224.142667 174.547283 225.193864 173.496086 
C 226.245061 172.44489 226.8357 171.018961 226.8357 169.532344 
C 226.8357 168.045728 226.245061 166.619799 225.193864 165.568602 
C 224.142667 164.517406 222.716739 163.926767 221.230122 163.926767 
C 219.743506 163.926767 218.317577 164.517406 217.26638 165.568602 
C 216.215184 166.619799 215.624545 168.045728 215.624545 169.532344 
C 215.624545 171.018961 216.215184 172.44489 217.26638 173.496086 
C 218.317577 174.547283 219.743506 175.137922 221.230122 175.137922 
z
" style="fill:#0b559f;fill-opacity:0.7;stroke:#000000;stroke-opacity:0.7;"/>
    <path clip-path="url(#p8b191b2227)" d="M 221.230122 175.137922 
C 222.716739 175.137922 224.142667 174.547283 225.193864 173.496086 
C 226.245061 172.44489 226.8357 171.018961 226.8357 169.532344 
C 226.8357 168.045728 226.245061 166.619799 225.193864 165.568602 
C 224.142667 164.517406 222.716739 163.926767 221.230122 163.926767 
C 219.743506 163.926767 218.317577 164.517406 217.26638 165.568602 
C 216.215184 166.619799 215.624545 168.045728 215.624545 169.532344 
C 215.624545 171.018961 216.215184 172.44489 217.26638 173.496086 
C 218.317577 174.547283 219.743506 175.137922 221.230122 175.137922 
z
" style="fill:#0b559f;fill-opacity:0.7;stroke:#000000;stroke-opacity:0.7;"/>
    <path clip-path="url(#p8b191b2227)" d="M 169.531236 206.605164 
C 171.028342 206.605164 172.464332 206.010358 173.522946 204.951744 
C 174.58156 203.89313 175.176366 202.45714 175.176366 200.960034 
C 175.176366 199.462928 174.58156 198.026938 173.522946 196.968324 
C 172.464332 195.90971 171.028342 195.314903 169.531236 195.314903 
C 168.03413 195.314903 166.598139 195.90971 165.539526 196.968324 
C 164.480912 198.026938 163.886105 199.462928 163.886105 200.960034 
C 163.886105 202.45714 164.480912 203.89313 165.539526 204.951744 
C 166.598139 206.010358 168.03413 206.605164 169.531236 206.605164 
z
" style="fill:#084f99;fill-opacity:0.7;stroke:#000000;stroke-opacity:0.7;"/>
    <path clip-path="url(#p8b191b2227)" d="M 169.531236 206.605164 
C 171.028342 206.605164 172.464332 206.010358 173.522946 204.951744 
C 174.58156 203.89313 175.176366 202.45714 175.176366 200.960034 
C 175.176366 199.462928 174.58156 198.026938 173.522946 196.968324 
C 172.464332 195.90971 171.028342 195.314903 169.531236 195.314903 
C 168.03413 195.314903 166.598139 195.90971 165.539526 196.968324 
C 164.480912 198.026938 163.886105 199.462928 163.886105 200.960034 
C 163.886105 202.45714 164.480912 203.89313 165.539526 204.951744 
C 166.598139 206.010358 168.03413 206.605164 169.531236 206.605164 
z
" style="fill:#084f99;fill-opacity:0.7;stroke:#000000;stroke-opacity:0.7;"/>
    <path clip-path="url(#p8b191b2227)" d="M 169.531236 206.605164 
C 171.028342 206.605164 172.464332 206.010358 173.522946 204.951744 
C 174.58156 203.89313 175.176366 202.45714 175.176366 200.960034 
C 175.176366 199.462928 174.58156 198.026938 173.522946 196.968324 
C 172.464332 195.90971 171.028342 195.314903 169.531236 195.314903 
C 168.03413 195.314903 166.598139 195.90971 165.539526 196.968324 
C 164.480912 198.026938 163.886105 199.462928 163.886105 200.960034 
C 163.886105 202.45714 164.480912 203.89313 165.539526 204.951744 
C 166.598139 206.010358 168.03413 206.605164 169.531236 206.605164 
z
" style="fill:#084f99;fill-opacity:0.7;stroke:#000000;stroke-opacity:0.7;"/>
    <path clip-path="url(#p8b191b2227)" d="M 169.531236 206.605164 
C 171.028342 206.605164 172.464332 206.010358 173.522946 204.951744 
C 174.58156 203.89313 175.176366 202.45714 175.176366 200.960034 
C 175.176366 199.462928 174.58156 198.026938 173.522946 196.968324 
C 172.464332 195.90971 171.028342 195.314903 169.531236 195.314903 
C 168.03413 195.314903 166.598139 195.90971 165.539526 196.968324 
C 164.480912 198.026938 163.886105 199.462928 163.886105 200.960034 
C 163.886105 202.45714 164.480912 203.89313 165.539526 204.951744 
C 166.598139 206.010358 168.03413 206.605164 169.531236 206.605164 
z
" style="fill:#084f99;fill-opacity:0.7;stroke:#000000;stroke-opacity:0.7;"/>
    <path clip-path="url(#p8b191b2227)" d="M 169.531236 206.605164 
C 171.028342 206.605164 172.464332 206.010358 173.522946 204.951744 
C 174.58156 203.89313 175.176366 202.45714 175.176366 200.960034 
C 175.176366 199.462928 174.58156 198.026938 173.522946 196.968324 
C 172.464332 195.90971 171.028342 195.314903 169.531236 195.314903 
C 168.03413 195.314903 166.598139 195.90971 165.539526 196.968324 
C 164.480912 198.026938 163.886105 199.462928 163.886105 200.960034 
C 163.886105 202.45714 164.480912 203.89313 165.539526 204.951744 
C 166.598139 206.010358 168.03413 206.605164 169.531236 206.605164 
z
" style="fill:#084f99;fill-opacity:0.7;stroke:#000000;stroke-opacity:0.7;"/>
    <path clip-path="url(#p8b191b2227)" d="M 169.531236 206.605164 
C 171.028342 206.605164 172.464332 206.010358 173.522946 204.951744 
C 174.58156 203.89313 175.176366 202.45714 175.176366 200.960034 
C 175.176366 199.462928 174.58156 198.026938 173.522946 196.968324 
C 172.464332 195.90971 171.028342 195.314903 169.531236 195.314903 
C 168.03413 195.314903 166.598139 195.90971 165.539526 196.968324 
C 164.480912 198.026938 163.886105 199.462928 163.886105 200.960034 
C 163.886105 202.45714 164.480912 203.89313 165.539526 204.951744 
C 166.598139 206.010358 168.03413 206.605164 169.531236 206.605164 
z
" style="fill:#084f99;fill-opacity:0.7;stroke:#000000;stroke-opacity:0.7;"/>
    <path clip-path="url(#p8b191b2227)" d="M 169.531236 206.605164 
C 171.028342 206.605164 172.464332 206.010358 173.522946 204.951744 
C 174.58156 203.89313 175.176366 202.45714 175.176366 200.960034 
C 175.176366 199.462928 174.58156 198.026938 173.522946 196.968324 
C 172.464332 195.90971 171.028342 195.314903 169.531236 195.314903 
C 168.03413 195.314903 166.598139 195.90971 165.539526 196.968324 
C 164.480912 198.026938 163.886105 199.462928 163.886105 200.960034 
C 163.886105 202.45714 164.480912 203.89313 165.539526 204.951744 
C 166.598139 206.010358 168.03413 206.605164 169.531236 206.605164 
z
" style="fill:#084f99;fill-opacity:0.7;stroke:#000000;stroke-opacity:0.7;"/>
    <path clip-path="url(#p8b191b2227)" d="M 202.350187 175.103905 
C 203.864401 175.103905 205.316801 174.502301 206.387513 173.431589 
C 207.458224 172.360878 208.059828 170.908478 208.059828 169.394264 
C 208.059828 167.880049 207.458224 166.427649 206.387513 165.356938 
C 205.316801 164.286226 203.864401 163.684623 202.350187 163.684623 
C 200.835972 163.684623 199.383572 164.286226 198.312861 165.356938 
C 197.24215 166.427649 196.640546 167.880049 196.640546 169.394264 
C 196.640546 170.908478 197.24215 172.360878 198.312861 173.431589 
C 199.383572 174.502301 200.835972 175.103905 202.350187 175.103905 
z
" style="fill:#084387;fill-opacity:0.7;stroke:#000000;stroke-opacity:0.7;"/>
    <path clip-path="url(#p8b191b2227)" d="M 202.350187 175.103905 
C 203.864401 175.103905 205.316801 174.502301 206.387513 173.431589 
C 207.458224 172.360878 208.059828 170.908478 208.059828 169.394264 
C 208.059828 167.880049 207.458224 166.427649 206.387513 165.356938 
C 205.316801 164.286226 203.864401 163.684623 202.350187 163.684623 
C 200.835972 163.684623 199.383572 164.286226 198.312861 165.356938 
C 197.24215 166.427649 196.640546 167.880049 196.640546 169.394264 
C 196.640546 170.908478 197.24215 172.360878 198.312861 173.431589 
C 199.383572 174.502301 200.835972 175.103905 202.350187 175.103905 
z
" style="fill:#084387;fill-opacity:0.7;stroke:#000000;stroke-opacity:0.7;"/>
    <path clip-path="url(#p8b191b2227)" d="M 202.350187 175.103905 
C 203.864401 175.103905 205.316801 174.502301 206.387513 173.431589 
C 207.458224 172.360878 208.059828 170.908478 208.059828 169.394264 
C 208.059828 167.880049 207.458224 166.427649 206.387513 165.356938 
C 205.316801 164.286226 203.864401 163.684623 202.350187 163.684623 
C 200.835972 163.684623 199.383572 164.286226 198.312861 165.356938 
C 197.24215 166.427649 196.640546 167.880049 196.640546 169.394264 
C 196.640546 170.908478 197.24215 172.360878 198.312861 173.431589 
C 199.383572 174.502301 200.835972 175.103905 202.350187 175.103905 
z
" style="fill:#084387;fill-opacity:0.7;stroke:#000000;stroke-opacity:0.7;"/>
    <path clip-path="url(#p8b191b2227)" d="M 202.350187 175.103905 
C 203.864401 175.103905 205.316801 174.502301 206.387513 173.431589 
C 207.458224 172.360878 208.059828 170.908478 208.059828 169.394264 
C 208.059828 167.880049 207.458224 166.427649 206.387513 165.356938 
C 205.316801 164.286226 203.864401 163.684623 202.350187 163.684623 
C 200.835972 163.684623 199.383572 164.286226 198.312861 165.356938 
C 197.24215 166.427649 196.640546 167.880049 196.640546 169.394264 
C 196.640546 170.908478 197.24215 172.360878 198.312861 173.431589 
C 199.383572 174.502301 200.835972 175.103905 202.350187 175.103905 
z
" style="fill:#084387;fill-opacity:0.7;stroke:#000000;stroke-opacity:0.7;"/>
    <path clip-path="url(#p8b191b2227)" d="M 202.350187 175.103905 
C 203.864401 175.103905 205.316801 174.502301 206.387513 173.431589 
C 207.458224 172.360878 208.059828 170.908478 208.059828 169.394264 
C 208.059828 167.880049 207.458224 166.427649 206.387513 165.356938 
C 205.316801 164.286226 203.864401 163.684623 202.350187 163.684623 
C 200.835972 163.684623 199.383572 164.286226 198.312861 165.356938 
C 197.24215 166.427649 196.640546 167.880049 196.640546 169.394264 
C 196.640546 170.908478 197.24215 172.360878 198.312861 173.431589 
C 199.383572 174.502301 200.835972 175.103905 202.350187 175.103905 
z
" style="fill:#084387;fill-opacity:0.7;stroke:#000000;stroke-opacity:0.7;"/>
    <path clip-path="url(#p8b191b2227)" d="M 202.350187 175.103905 
C 203.864401 175.103905 205.316801 174.502301 206.387513 173.431589 
C 207.458224 172.360878 208.059828 170.908478 208.059828 169.394264 
C 208.059828 167.880049 207.458224 166.427649 206.387513 165.356938 
C 205.316801 164.286226 203.864401 163.684623 202.350187 163.684623 
C 200.835972 163.684623 199.383572 164.286226 198.312861 165.356938 
C 197.24215 166.427649 196.640546 167.880049 196.640546 169.394264 
C 196.640546 170.908478 197.24215 172.360878 198.312861 173.431589 
C 199.383572 174.502301 200.835972 175.103905 202.350187 175.103905 
z
" style="fill:#084387;fill-opacity:0.7;stroke:#000000;stroke-opacity:0.7;"/>
    <path clip-path="url(#p8b191b2227)" d="M 202.350187 175.103905 
C 203.864401 175.103905 205.316801 174.502301 206.387513 173.431589 
C 207.458224 172.360878 208.059828 170.908478 208.059828 169.394264 
C 208.059828 167.880049 207.458224 166.427649 206.387513 165.356938 
C 205.316801 164.286226 203.864401 163.684623 202.350187 163.684623 
C 200.835972 163.684623 199.383572 164.286226 198.312861 165.356938 
C 197.24215 166.427649 196.640546 167.880049 196.640546 169.394264 
C 196.640546 170.908478 197.24215 172.360878 198.312861 173.431589 
C 199.383572 174.502301 200.835972 175.103905 202.350187 175.103905 
z
" style="fill:#084387;fill-opacity:0.7;stroke:#000000;stroke-opacity:0.7;"/>
    <path clip-path="url(#p8b191b2227)" d="M 170.307857 206.056394 
C 171.803142 206.056394 173.237385 205.462311 174.294711 204.404986 
C 175.352036 203.34766 175.946119 201.913417 175.946119 200.418132 
C 175.946119 198.922848 175.352036 197.488605 174.294711 196.431279 
C 173.237385 195.373953 171.803142 194.77987 170.307857 194.77987 
C 168.812573 194.77987 167.37833 195.373953 166.321004 196.431279 
C 165.263678 197.488605 164.669595 198.922848 164.669595 200.418132 
C 164.669595 201.913417 165.263678 203.34766 166.321004 204.404986 
C 167.37833 205.462311 168.812573 206.056394 170.307857 206.056394 
z
" style="fill:#08519c;fill-opacity:0.7;stroke:#000000;stroke-opacity:0.7;"/>
    <path clip-path="url(#p8b191b2227)" d="M 170.307857 206.056394 
C 171.803142 206.056394 173.237385 205.462311 174.294711 204.404986 
C 175.352036 203.34766 175.946119 201.913417 175.946119 200.418132 
C 175.946119 198.922848 175.352036 197.488605 174.294711 196.431279 
C 173.237385 195.373953 171.803142 194.77987 170.307857 194.77987 
C 168.812573 194.77987 167.37833 195.373953 166.321004 196.431279 
C 165.263678 197.488605 164.669595 198.922848 164.669595 200.418132 
C 164.669595 201.913417 165.263678 203.34766 166.321004 204.404986 
C 167.37833 205.462311 168.812573 206.056394 170.307857 206.056394 
z
" style="fill:#08519c;fill-opacity:0.7;stroke:#000000;stroke-opacity:0.7;"/>
    <path clip-path="url(#p8b191b2227)" d="M 170.307857 206.056394 
C 171.803142 206.056394 173.237385 205.462311 174.294711 204.404986 
C 175.352036 203.34766 175.946119 201.913417 175.946119 200.418132 
C 175.946119 198.922848 175.352036 197.488605 174.294711 196.431279 
C 173.237385 195.373953 171.803142 194.77987 170.307857 194.77987 
C 168.812573 194.77987 167.37833 195.373953 166.321004 196.431279 
C 165.263678 197.488605 164.669595 198.922848 164.669595 200.418132 
C 164.669595 201.913417 165.263678 203.34766 166.321004 204.404986 
C 167.37833 205.462311 168.812573 206.056394 170.307857 206.056394 
z
" style="fill:#08519c;fill-opacity:0.7;stroke:#000000;stroke-opacity:0.7;"/>
    <path clip-path="url(#p8b191b2227)" d="M 170.307857 206.056394 
C 171.803142 206.056394 173.237385 205.462311 174.294711 204.404986 
C 175.352036 203.34766 175.946119 201.913417 175.946119 200.418132 
C 175.946119 198.922848 175.352036 197.488605 174.294711 196.431279 
C 173.237385 195.373953 171.803142 194.77987 170.307857 194.77987 
C 168.812573 194.77987 167.37833 195.373953 166.321004 196.431279 
C 165.263678 197.488605 164.669595 198.922848 164.669595 200.418132 
C 164.669595 201.913417 165.263678 203.34766 166.321004 204.404986 
C 167.37833 205.462311 168.812573 206.056394 170.307857 206.056394 
z
" style="fill:#08519c;fill-opacity:0.7;stroke:#000000;stroke-opacity:0.7;"/>
    <path clip-path="url(#p8b191b2227)" d="M 170.307857 206.056394 
C 171.803142 206.056394 173.237385 205.462311 174.294711 204.404986 
C 175.352036 203.34766 175.946119 201.913417 175.946119 200.418132 
C 175.946119 198.922848 175.352036 197.488605 174.294711 196.431279 
C 173.237385 195.373953 171.803142 194.77987 170.307857 194.77987 
C 168.812573 194.77987 167.37833 195.373953 166.321004 196.431279 
C 165.263678 197.488605 164.669595 198.922848 164.669595 200.418132 
C 164.669595 201.913417 165.263678 203.34766 166.321004 204.404986 
C 167.37833 205.462311 168.812573 206.056394 170.307857 206.056394 
z
" style="fill:#08519c;fill-opacity:0.7;stroke:#000000;stroke-opacity:0.7;"/>
    <path clip-path="url(#p8b191b2227)" d="M 170.307857 206.056394 
C 171.803142 206.056394 173.237385 205.462311 174.294711 204.404986 
C 175.352036 203.34766 175.946119 201.913417 175.946119 200.418132 
C 175.946119 198.922848 175.352036 197.488605 174.294711 196.431279 
C 173.237385 195.373953 171.803142 194.77987 170.307857 194.77987 
C 168.812573 194.77987 167.37833 195.373953 166.321004 196.431279 
C 165.263678 197.488605 164.669595 198.922848 164.669595 200.418132 
C 164.669595 201.913417 165.263678 203.34766 166.321004 204.404986 
C 167.37833 205.462311 168.812573 206.056394 170.307857 206.056394 
z
" style="fill:#08519c;fill-opacity:0.7;stroke:#000000;stroke-opacity:0.7;"/>
    <path clip-path="url(#p8b191b2227)" d="M 170.307857 206.056394 
C 171.803142 206.056394 173.237385 205.462311 174.294711 204.404986 
C 175.352036 203.34766 175.946119 201.913417 175.946119 200.418132 
C 175.946119 198.922848 175.352036 197.488605 174.294711 196.431279 
C 173.237385 195.373953 171.803142 194.77987 170.307857 194.77987 
C 168.812573 194.77987 167.37833 195.373953 166.321004 196.431279 
C 165.263678 197.488605 164.669595 198.922848 164.669595 200.418132 
C 164.669595 201.913417 165.263678 203.34766 166.321004 204.404986 
C 167.37833 205.462311 168.812573 206.056394 170.307857 206.056394 
z
" style="fill:#08519c;fill-opacity:0.7;stroke:#000000;stroke-opacity:0.7;"/>
    <path clip-path="url(#p8b191b2227)" d="M 210.504712 164.563477 
C 211.972103 164.563477 213.37959 163.980477 214.417192 162.942875 
C 215.454794 161.905273 216.037794 160.497785 216.037794 159.030395 
C 216.037794 157.563004 215.454794 156.155517 214.417192 155.117915 
C 213.37959 154.080313 211.972103 153.497313 210.504712 153.497313 
C 209.037322 153.497313 207.629834 154.080313 206.592232 155.117915 
C 205.55463 156.155517 204.97163 157.563004 204.97163 159.030395 
C 204.97163 160.497785 205.55463 161.905273 206.592232 162.942875 
C 207.629834 163.980477 209.037322 164.563477 210.504712 164.563477 
z
" style="fill:#1561a9;fill-opacity:0.7;stroke:#000000;stroke-opacity:0.7;"/>
    <path clip-path="url(#p8b191b2227)" d="M 289.184499 125.653163 
C 290.650451 125.653163 292.056559 125.070734 293.093143 124.034149 
C 294.129728 122.997565 294.712157 121.591457 294.712157 120.125505 
C 294.712157 118.659553 294.129728 117.253445 293.093143 116.216861 
C 292.056559 115.180276 290.650451 114.597847 289.184499 114.597847 
C 287.718547 114.597847 286.312439 115.180276 285.275855 116.216861 
C 284.23927 117.253445 283.656841 118.659553 283.656841 120.125505 
C 283.656841 121.591457 284.23927 122.997565 285.275855 124.034149 
C 286.312439 125.070734 287.718547 125.653163 289.184499 125.653163 
z
" style="fill:#1663aa;fill-opacity:0.7;stroke:#000000;stroke-opacity:0.7;"/>
    <path clip-path="url(#p8b191b2227)" d="M 219.060938 160.316521 
C 220.577299 160.316521 222.031758 159.714065 223.103988 158.641835 
C 224.176217 157.569606 224.778674 156.115147 224.778674 154.598786 
C 224.778674 153.082425 224.176217 151.627966 223.103988 150.555736 
C 222.031758 149.483507 220.577299 148.88105 219.060938 148.88105 
C 217.544577 148.88105 216.090118 149.483507 215.017889 150.555736 
C 213.945659 151.627966 213.343203 153.082425 213.343203 154.598786 
C 213.343203 156.115147 213.945659 157.569606 215.017889 158.641835 
C 216.090118 159.714065 217.544577 160.316521 219.060938 160.316521 
z
" style="fill:#084387;fill-opacity:0.7;stroke:#000000;stroke-opacity:0.7;"/>
    <path clip-path="url(#p8b191b2227)" d="M 398.487273 197.197462 
C 399.98784 197.197462 401.427149 196.601281 402.48821 195.54022 
C 403.549271 194.479159 404.145453 193.039849 404.145453 191.539282 
C 404.145453 190.038715 403.549271 188.599406 402.48821 187.538345 
C 401.427149 186.477284 399.98784 185.881102 398.487273 185.881102 
C 396.986706 185.881102 395.547396 186.477284 394.486335 187.538345 
C 393.425274 188.599406 392.829093 190.038715 392.829093 191.539282 
C 392.829093 193.039849 393.425274 194.479159 394.486335 195.54022 
C 395.547396 196.601281 396.986706 197.197462 398.487273 197.197462 
z
" style="fill:#084d96;fill-opacity:0.7;stroke:#000000;stroke-opacity:0.7;"/>
    <path clip-path="url(#p8b191b2227)" d="M 217.065824 223.664688 
C 218.055107 223.664688 219.004004 223.271642 219.703532 222.572114 
C 220.40306 221.872586 220.796106 220.923689 220.796106 219.934407 
C 220.796106 218.945125 220.40306 217.996228 219.703532 217.2967 
C 219.004004 216.597171 218.055107 216.204125 217.065824 216.204125 
C 216.076542 216.204125 215.127645 216.597171 214.428117 217.2967 
C 213.728589 217.996228 213.335543 218.945125 213.335543 219.934407 
C 213.335543 220.923689 213.728589 221.872586 214.428117 222.572114 
C 215.127645 223.271642 216.076542 223.664688 217.065824 223.664688 
z
" style="fill:#fedebd;fill-opacity:0.7;stroke:#000000;stroke-opacity:0.7;"/>
    <path clip-path="url(#p8b191b2227)" d="M 262.471399 138.549957 
C 263.953396 138.549957 265.374893 137.961154 266.422823 136.913224 
C 267.470753 135.865294 268.059556 134.443797 268.059556 132.9618 
C 268.059556 131.479803 267.470753 130.058306 266.422823 129.010376 
C 265.374893 127.962446 263.953396 127.373643 262.471399 127.373643 
C 260.989402 127.373643 259.567905 127.962446 258.519975 129.010376 
C 257.472045 130.058306 256.883242 131.479803 256.883242 132.9618 
C 256.883242 134.443797 257.472045 135.865294 258.519975 136.913224 
C 259.567905 137.961154 260.989402 138.549957 262.471399 138.549957 
z
" style="fill:#0e59a2;fill-opacity:0.7;stroke:#000000;stroke-opacity:0.7;"/>
    <path clip-path="url(#p8b191b2227)" d="M 339.838963 182.756448 
C 341.295349 182.756448 342.69228 182.17782 343.7221 181.148 
C 344.75192 180.118181 345.330548 178.721249 345.330548 177.264864 
C 345.330548 175.808479 344.75192 174.411547 343.7221 173.381727 
C 342.69228 172.351907 341.295349 171.773279 339.838963 171.773279 
C 338.382578 171.773279 336.985647 172.351907 335.955827 173.381727 
C 334.926007 174.411547 334.347379 175.808479 334.347379 177.264864 
C 334.347379 178.721249 334.926007 180.118181 335.955827 181.148 
C 336.985647 182.17782 338.382578 182.756448 339.838963 182.756448 
z
" style="fill:#1b69af;fill-opacity:0.7;stroke:#000000;stroke-opacity:0.7;"/>
    <path clip-path="url(#p8b191b2227)" d="M 185.934016 190.030149 
C 187.432473 190.030149 188.869758 189.434806 189.929326 188.375238 
C 190.988895 187.315669 191.584238 185.878384 191.584238 184.379928 
C 191.584238 182.881472 190.988895 181.444187 189.929326 180.384618 
C 188.869758 179.32505 187.432473 178.729707 185.934016 178.729707 
C 184.43556 178.729707 182.998275 179.32505 181.938707 180.384618 
C 180.879138 181.444187 180.283795 182.881472 180.283795 184.379928 
C 180.283795 185.878384 180.879138 187.315669 181.938707 188.375238 
C 182.998275 189.434806 184.43556 190.030149 185.934016 190.030149 
z
" style="fill:#084f99;fill-opacity:0.7;stroke:#000000;stroke-opacity:0.7;"/>
    <path clip-path="url(#p8b191b2227)" d="M 185.237735 201.248103 
C 186.698761 201.248103 188.100144 200.667632 189.133245 199.63453 
C 190.166347 198.601429 190.746818 197.200046 190.746818 195.73902 
C 190.746818 194.277994 190.166347 192.876611 189.133245 191.84351 
C 188.100144 190.810408 186.698761 190.229937 185.237735 190.229937 
C 183.776709 190.229937 182.375326 190.810408 181.342225 191.84351 
C 180.309123 192.876611 179.728652 194.277994 179.728652 195.73902 
C 179.728652 197.200046 180.309123 198.601429 181.342225 199.63453 
C 182.375326 200.667632 183.776709 201.248103 185.237735 201.248103 
z
" style="fill:#1865ac;fill-opacity:0.7;stroke:#000000;stroke-opacity:0.7;"/>
    <path clip-path="url(#p8b191b2227)" d="M 204.800562 223.676732 
C 205.793038 223.676732 206.744999 223.282417 207.446785 222.580631 
C 208.148572 221.878844 208.542887 220.926883 208.542887 219.934407 
C 208.542887 218.941931 208.148572 217.98997 207.446785 217.288183 
C 206.744999 216.586396 205.793038 216.192081 204.800562 216.192081 
C 203.808085 216.192081 202.856125 216.586396 202.154338 217.288183 
C 201.452551 217.98997 201.058236 218.941931 201.058236 219.934407 
C 201.058236 220.926883 201.452551 221.878844 202.154338 222.580631 
C 202.856125 223.282417 203.808085 223.676732 204.800562 223.676732 
z
" style="fill:#fedebd;fill-opacity:0.7;stroke:#000000;stroke-opacity:0.7;"/>
    <path clip-path="url(#p8b191b2227)" d="M 266.515187 195.197555 
C 267.967643 195.197555 269.360806 194.620488 270.387847 193.593446 
C 271.414889 192.566404 271.991956 191.173242 271.991956 189.720785 
C 271.991956 188.268329 271.414889 186.875166 270.387847 185.848125 
C 269.360806 184.821083 267.967643 184.244016 266.515187 184.244016 
C 265.06273 184.244016 263.669568 184.821083 262.642526 185.848125 
C 261.615484 186.875166 261.038417 188.268329 261.038417 189.720785 
C 261.038417 191.173242 261.615484 192.566404 262.642526 193.593446 
C 263.669568 194.620488 265.06273 195.197555 266.515187 195.197555 
z
" style="fill:#1d6bb1;fill-opacity:0.7;stroke:#000000;stroke-opacity:0.7;"/>
    <path clip-path="url(#p8b191b2227)" d="M 193.633281 184.42111 
C 195.142144 184.42111 196.589412 183.821632 197.656339 182.754704 
C 198.723267 181.687777 199.322745 180.240509 199.322745 178.731646 
C 199.322745 177.222782 198.723267 175.775515 197.656339 174.708587 
C 196.589412 173.641659 195.142144 173.042182 193.633281 173.042182 
C 192.124417 173.042182 190.67715 173.641659 189.610222 174.708587 
C 188.543295 175.775515 187.943817 177.222782 187.943817 178.731646 
C 187.943817 180.240509 188.543295 181.687777 189.610222 182.754704 
C 190.67715 183.821632 192.124417 184.42111 193.633281 184.42111 
z
" style="fill:#08478d;fill-opacity:0.7;stroke:#000000;stroke-opacity:0.7;"/>
    <path clip-path="url(#p8b191b2227)" d="M 169.531236 206.605164 
C 171.028342 206.605164 172.464332 206.010358 173.522946 204.951744 
C 174.58156 203.89313 175.176366 202.45714 175.176366 200.960034 
C 175.176366 199.462928 174.58156 198.026938 173.522946 196.968324 
C 172.464332 195.90971 171.028342 195.314903 169.531236 195.314903 
C 168.03413 195.314903 166.598139 195.90971 165.539526 196.968324 
C 164.480912 198.026938 163.886105 199.462928 163.886105 200.960034 
C 163.886105 202.45714 164.480912 203.89313 165.539526 204.951744 
C 166.598139 206.010358 168.03413 206.605164 169.531236 206.605164 
z
" style="fill:#084f99;fill-opacity:0.7;stroke:#000000;stroke-opacity:0.7;"/>
    <path clip-path="url(#p8b191b2227)" d="M 174.632835 201.205297 
C 176.10531 201.205297 177.517674 200.620277 178.55887 199.57908 
C 179.600067 198.537883 180.185087 197.12552 180.185087 195.653045 
C 180.185087 194.180571 179.600067 192.768207 178.55887 191.72701 
C 177.517674 190.685814 176.10531 190.100793 174.632835 190.100793 
C 173.160361 190.100793 171.747997 190.685814 170.7068 191.72701 
C 169.665604 192.768207 169.080583 194.180571 169.080583 195.653045 
C 169.080583 197.12552 169.665604 198.537883 170.7068 199.57908 
C 171.747997 200.620277 173.160361 201.205297 174.632835 201.205297 
z
" style="fill:#135fa7;fill-opacity:0.7;stroke:#000000;stroke-opacity:0.7;"/>
    <path clip-path="url(#p8b191b2227)" d="M 227.804624 223.749181 
C 228.816314 223.749181 229.786704 223.347232 230.502077 222.631859 
C 231.21745 221.916487 231.619398 220.946097 231.619398 219.934407 
C 231.619398 218.922717 231.21745 217.952327 230.502077 217.236954 
C 229.786704 216.521582 228.816314 216.119633 227.804624 216.119633 
C 226.792935 216.119633 225.822545 216.521582 225.107172 217.236954 
C 224.391799 217.952327 223.989851 218.922717 223.989851 219.934407 
C 223.989851 220.946097 224.391799 221.916487 225.107172 222.631859 
C 225.822545 223.347232 226.792935 223.749181 227.804624 223.749181 
z
" style="fill:#fee3c8;fill-opacity:0.7;stroke:#000000;stroke-opacity:0.7;"/>
    <path clip-path="url(#p8b191b2227)" d="M 170.401587 205.115952 
C 171.878235 205.115952 173.294602 204.529274 174.33875 203.485126 
C 175.382898 202.440978 175.969576 201.024611 175.969576 199.547963 
C 175.969576 198.071315 175.382898 196.654948 174.33875 195.6108 
C 173.294602 194.566653 171.878235 193.979974 170.401587 193.979974 
C 168.924939 193.979974 167.508572 194.566653 166.464425 195.6108 
C 165.420277 196.654948 164.833599 198.071315 164.833599 199.547963 
C 164.833599 201.024611 165.420277 202.440978 166.464425 203.485126 
C 167.508572 204.529274 168.924939 205.115952 170.401587 205.115952 
z
" style="fill:#105ba4;fill-opacity:0.7;stroke:#000000;stroke-opacity:0.7;"/>
    <path clip-path="url(#p8b191b2227)" d="M 175.061316 201.660413 
C 176.559831 201.660413 177.997172 201.065047 179.056782 200.005437 
C 180.116392 198.945827 180.711759 197.508486 180.711759 196.009971 
C 180.711759 194.511456 180.116392 193.074115 179.056782 192.014505 
C 177.997172 190.954895 176.559831 190.359528 175.061316 190.359528 
C 173.562801 190.359528 172.12546 190.954895 171.06585 192.014505 
C 170.00624 193.074115 169.410874 194.511456 169.410874 196.009971 
C 169.410874 197.508486 170.00624 198.945827 171.06585 200.005437 
C 172.12546 201.065047 173.562801 201.660413 175.061316 201.660413 
z
" style="fill:#084d96;fill-opacity:0.7;stroke:#000000;stroke-opacity:0.7;"/>
    <path clip-path="url(#p8b191b2227)" d="M 174.793516 202.753872 
C 176.290446 202.753872 177.726267 202.159136 178.784756 201.100646 
C 179.843245 200.042157 180.437982 198.606336 180.437982 197.109406 
C 180.437982 195.612476 179.843245 194.176655 178.784756 193.118165 
C 177.726267 192.059676 176.290446 191.46494 174.793516 191.46494 
C 173.296586 191.46494 171.860764 192.059676 170.802275 193.118165 
C 169.743786 194.176655 169.149049 195.612476 169.149049 197.109406 
C 169.149049 198.606336 169.743786 200.042157 170.802275 201.100646 
C 171.860764 202.159136 173.296586 202.753872 174.793516 202.753872 
z
" style="fill:#084f99;fill-opacity:0.7;stroke:#000000;stroke-opacity:0.7;"/>
    <path clip-path="url(#p8b191b2227)" d="M 169.531236 201.789691 
C 171.028107 201.789691 172.463872 201.194978 173.52232 200.13653 
C 174.580767 199.078082 175.175481 197.642317 175.175481 196.145446 
C 175.175481 194.648575 174.580767 193.21281 173.52232 192.154362 
C 172.463872 191.095915 171.028107 190.501201 169.531236 190.501201 
C 168.034365 190.501201 166.5986 191.095915 165.540152 192.154362 
C 164.481704 193.21281 163.886991 194.648575 163.886991 196.145446 
C 163.886991 197.642317 164.481704 199.078082 165.540152 200.13653 
C 166.5986 201.194978 168.034365 201.789691 169.531236 201.789691 
z
" style="fill:#084f99;fill-opacity:0.7;stroke:#000000;stroke-opacity:0.7;"/>
    <path clip-path="url(#p8b191b2227)" d="M 208.014168 223.695058 
C 209.011504 223.695058 209.968126 223.298812 210.67335 222.593589 
C 211.378573 221.888366 211.774819 220.931743 211.774819 219.934407 
C 211.774819 218.93707 211.378573 217.980448 210.67335 217.275225 
C 209.968126 216.570001 209.011504 216.173755 208.014168 216.173755 
C 207.016831 216.173755 206.060209 216.570001 205.354985 217.275225 
C 204.649762 217.980448 204.253516 218.93707 204.253516 219.934407 
C 204.253516 220.931743 204.649762 221.888366 205.354985 222.593589 
C 206.060209 223.298812 207.016831 223.695058 208.014168 223.695058 
z
" style="fill:#fedfc0;fill-opacity:0.7;stroke:#000000;stroke-opacity:0.7;"/>
    <path clip-path="url(#p8b191b2227)" d="M 169.531236 218.478414 
C 169.549988 218.478414 169.567976 218.470963 169.581236 218.457703 
C 169.594496 218.444443 169.601946 218.426456 169.601946 218.407703 
C 169.601946 218.388951 169.594496 218.370963 169.581236 218.357703 
C 169.567976 218.344443 169.549988 218.336993 169.531236 218.336993 
C 169.512483 218.336993 169.494496 218.344443 169.481236 218.357703 
C 169.467976 218.370963 169.460525 218.388951 169.460525 218.407703 
C 169.460525 218.426456 169.467976 218.444443 169.481236 218.457703 
C 169.494496 218.470963 169.512483 218.478414 169.531236 218.478414 
z
" style="fill:#7f2704;fill-opacity:0.7;stroke:#000000;stroke-opacity:0.7;"/>
    <path clip-path="url(#p8b191b2227)" d="M 169.531236 218.478414 
C 169.549988 218.478414 169.567976 218.470963 169.581236 218.457703 
C 169.594496 218.444443 169.601946 218.426456 169.601946 218.407703 
C 169.601946 218.388951 169.594496 218.370963 169.581236 218.357703 
C 169.567976 218.344443 169.549988 218.336993 169.531236 218.336993 
C 169.512483 218.336993 169.494496 218.344443 169.481236 218.357703 
C 169.467976 218.370963 169.460525 218.388951 169.460525 218.407703 
C 169.460525 218.426456 169.467976 218.444443 169.481236 218.457703 
C 169.494496 218.470963 169.512483 218.478414 169.531236 218.478414 
z
" style="fill:#7f2704;fill-opacity:0.7;stroke:#000000;stroke-opacity:0.7;"/>
    <path clip-path="url(#p8b191b2227)" d="M 169.531236 218.478414 
C 169.549988 218.478414 169.567976 218.470963 169.581236 218.457703 
C 169.594496 218.444443 169.601946 218.426456 169.601946 218.407703 
C 169.601946 218.388951 169.594496 218.370963 169.581236 218.357703 
C 169.567976 218.344443 169.549988 218.336993 169.531236 218.336993 
C 169.512483 218.336993 169.494496 218.344443 169.481236 218.357703 
C 169.467976 218.370963 169.460525 218.388951 169.460525 218.407703 
C 169.460525 218.426456 169.467976 218.444443 169.481236 218.457703 
C 169.494496 218.470963 169.512483 218.478414 169.531236 218.478414 
z
" style="fill:#7f2704;fill-opacity:0.7;stroke:#000000;stroke-opacity:0.7;"/>
    <path clip-path="url(#p8b191b2227)" d="M 169.531236 218.478414 
C 169.549988 218.478414 169.567976 218.470963 169.581236 218.457703 
C 169.594496 218.444443 169.601946 218.426456 169.601946 218.407703 
C 169.601946 218.388951 169.594496 218.370963 169.581236 218.357703 
C 169.567976 218.344443 169.549988 218.336993 169.531236 218.336993 
C 169.512483 218.336993 169.494496 218.344443 169.481236 218.357703 
C 169.467976 218.370963 169.460525 218.388951 169.460525 218.407703 
C 169.460525 218.426456 169.467976 218.444443 169.481236 218.457703 
C 169.494496 218.470963 169.512483 218.478414 169.531236 218.478414 
z
" style="fill:#7f2704;fill-opacity:0.7;stroke:#000000;stroke-opacity:0.7;"/>
    <path clip-path="url(#p8b191b2227)" d="M 275.352603 104.970131 
C 276.885686 104.970131 278.356184 104.361031 279.440237 103.276978 
C 280.52429 102.192924 281.13339 100.722426 281.13339 99.189344 
C 281.13339 97.656261 280.52429 96.185763 279.440237 95.10171 
C 278.356184 94.017657 276.885686 93.408557 275.352603 93.408557 
C 273.81952 93.408557 272.349022 94.017657 271.264969 95.10171 
C 270.180916 96.185763 269.571816 97.656261 269.571816 99.189344 
C 269.571816 100.722426 270.180916 102.192924 271.264969 103.276978 
C 272.349022 104.361031 273.81952 104.970131 275.352603 104.970131 
z
" style="fill:#083674;fill-opacity:0.7;stroke:#000000;stroke-opacity:0.7;"/>
    <path clip-path="url(#p8b191b2227)" d="M 245.278607 147.114775 
C 246.752633 147.114775 248.166485 146.529138 249.208779 145.486844 
C 250.251072 144.44455 250.836709 143.030698 250.836709 141.556672 
C 250.836709 140.082647 250.251072 138.668794 249.208779 137.626501 
C 248.166485 136.584207 246.752633 135.99857 245.278607 135.99857 
C 243.804581 135.99857 242.390729 136.584207 241.348435 137.626501 
C 240.306142 138.668794 239.720505 140.082647 239.720505 141.556672 
C 239.720505 143.030698 240.306142 144.44455 241.348435 145.486844 
C 242.390729 146.529138 243.804581 147.114775 245.278607 147.114775 
z
" style="fill:#125da6;fill-opacity:0.7;stroke:#000000;stroke-opacity:0.7;"/>
    <path clip-path="url(#p8b191b2227)" d="M 169.531236 203.372405 
C 171.000123 203.372405 172.409047 202.78881 173.447707 201.75015 
C 174.486368 200.711489 175.069963 199.302566 175.069963 197.833678 
C 175.069963 196.364791 174.486368 194.955867 173.447707 193.917207 
C 172.409047 192.878546 171.000123 192.294951 169.531236 192.294951 
C 168.062348 192.294951 166.653425 192.878546 165.614764 193.917207 
C 164.576104 194.955867 163.992508 196.364791 163.992508 197.833678 
C 163.992508 199.302566 164.576104 200.711489 165.614764 201.75015 
C 166.653425 202.78881 168.062348 203.372405 169.531236 203.372405 
z
" style="fill:#1561a9;fill-opacity:0.7;stroke:#000000;stroke-opacity:0.7;"/>
    <path clip-path="url(#p8b191b2227)" d="M 169.999887 206.121858 
C 171.493877 206.121858 172.926879 205.528289 173.98329 204.471878 
C 175.039701 203.415467 175.633269 201.982466 175.633269 200.488475 
C 175.633269 198.994485 175.039701 197.561483 173.98329 196.505072 
C 172.926879 195.448661 171.493877 194.855092 169.999887 194.855092 
C 168.505896 194.855092 167.072894 195.448661 166.016484 196.505072 
C 164.960073 197.561483 164.366504 198.994485 164.366504 200.488475 
C 164.366504 201.982466 164.960073 203.415467 166.016484 204.471878 
C 167.072894 205.528289 168.505896 206.121858 169.999887 206.121858 
z
" style="fill:#08519c;fill-opacity:0.7;stroke:#000000;stroke-opacity:0.7;"/>
    <path clip-path="url(#p8b191b2227)" d="M 203.83648 223.645876 
C 204.820773 223.645876 205.764884 223.254812 206.460884 222.558812 
C 207.156885 221.862811 207.547948 220.9187 207.547948 219.934407 
C 207.547948 218.950114 207.156885 218.006002 206.460884 217.310002 
C 205.764884 216.614002 204.820773 216.222938 203.83648 216.222938 
C 202.852187 216.222938 201.908075 216.614002 201.212075 217.310002 
C 200.516075 218.006002 200.125011 218.950114 200.125011 219.934407 
C 200.125011 220.9187 200.516075 221.862811 201.212075 222.558812 
C 201.908075 223.254812 202.852187 223.645876 203.83648 223.645876 
z
" style="fill:#fddbb7;fill-opacity:0.7;stroke:#000000;stroke-opacity:0.7;"/>
   </g>
   <g id="matplotlib.axis_1">
    <g id="xtick_1">
     <g id="line2d_1">
      <defs>
       <path d="M 0 0 
L 0 3.5 
" id="m80e8091cc8" style="stroke:#000000;stroke-width:0.8;"/>
      </defs>
      <g>
       <use style="stroke:#000000;stroke-width:0.8;" x="73.832727" xlink:href="#m80e8091cc8" y="307.584"/>
      </g>
     </g>
     <g id="text_1">
      <!-- 0.0 -->
      <defs>
       <path d="M 31.78125 66.40625 
Q 24.171875 66.40625 20.328125 58.90625 
Q 16.5 51.421875 16.5 36.375 
Q 16.5 21.390625 20.328125 13.890625 
Q 24.171875 6.390625 31.78125 6.390625 
Q 39.453125 6.390625 43.28125 13.890625 
Q 47.125 21.390625 47.125 36.375 
Q 47.125 51.421875 43.28125 58.90625 
Q 39.453125 66.40625 31.78125 66.40625 
z
M 31.78125 74.21875 
Q 44.046875 74.21875 50.515625 64.515625 
Q 56.984375 54.828125 56.984375 36.375 
Q 56.984375 17.96875 50.515625 8.265625 
Q 44.046875 -1.421875 31.78125 -1.421875 
Q 19.53125 -1.421875 13.0625 8.265625 
Q 6.59375 17.96875 6.59375 36.375 
Q 6.59375 54.828125 13.0625 64.515625 
Q 19.53125 74.21875 31.78125 74.21875 
z
" id="DejaVuSans-48"/>
       <path d="M 10.6875 12.40625 
L 21 12.40625 
L 21 0 
L 10.6875 0 
z
" id="DejaVuSans-46"/>
      </defs>
      <g transform="translate(65.881165 322.182437)scale(0.1 -0.1)">
       <use xlink:href="#DejaVuSans-48"/>
       <use x="63.623047" xlink:href="#DejaVuSans-46"/>
       <use x="95.410156" xlink:href="#DejaVuSans-48"/>
      </g>
     </g>
    </g>
    <g id="xtick_2">
     <g id="line2d_2">
      <g>
       <use style="stroke:#000000;stroke-width:0.8;" x="140.782852" xlink:href="#m80e8091cc8" y="307.584"/>
      </g>
     </g>
     <g id="text_2">
      <!-- 0.5 -->
      <defs>
       <path d="M 10.796875 72.90625 
L 49.515625 72.90625 
L 49.515625 64.59375 
L 19.828125 64.59375 
L 19.828125 46.734375 
Q 21.96875 47.46875 24.109375 47.828125 
Q 26.265625 48.1875 28.421875 48.1875 
Q 40.625 48.1875 47.75 41.5 
Q 54.890625 34.8125 54.890625 23.390625 
Q 54.890625 11.625 47.5625 5.09375 
Q 40.234375 -1.421875 26.90625 -1.421875 
Q 22.3125 -1.421875 17.546875 -0.640625 
Q 12.796875 0.140625 7.71875 1.703125 
L 7.71875 11.625 
Q 12.109375 9.234375 16.796875 8.0625 
Q 21.484375 6.890625 26.703125 6.890625 
Q 35.15625 6.890625 40.078125 11.328125 
Q 45.015625 15.765625 45.015625 23.390625 
Q 45.015625 31 40.078125 35.4375 
Q 35.15625 39.890625 26.703125 39.890625 
Q 22.75 39.890625 18.8125 39.015625 
Q 14.890625 38.140625 10.796875 36.28125 
z
" id="DejaVuSans-53"/>
      </defs>
      <g transform="translate(132.83129 322.182437)scale(0.1 -0.1)">
       <use xlink:href="#DejaVuSans-48"/>
       <use x="63.623047" xlink:href="#DejaVuSans-46"/>
       <use x="95.410156" xlink:href="#DejaVuSans-53"/>
      </g>
     </g>
    </g>
    <g id="xtick_3">
     <g id="line2d_3">
      <g>
       <use style="stroke:#000000;stroke-width:0.8;" x="207.732977" xlink:href="#m80e8091cc8" y="307.584"/>
      </g>
     </g>
     <g id="text_3">
      <!-- 1.0 -->
      <defs>
       <path d="M 12.40625 8.296875 
L 28.515625 8.296875 
L 28.515625 63.921875 
L 10.984375 60.40625 
L 10.984375 69.390625 
L 28.421875 72.90625 
L 38.28125 72.90625 
L 38.28125 8.296875 
L 54.390625 8.296875 
L 54.390625 0 
L 12.40625 0 
z
" id="DejaVuSans-49"/>
      </defs>
      <g transform="translate(199.781414 322.182437)scale(0.1 -0.1)">
       <use xlink:href="#DejaVuSans-49"/>
       <use x="63.623047" xlink:href="#DejaVuSans-46"/>
       <use x="95.410156" xlink:href="#DejaVuSans-48"/>
      </g>
     </g>
    </g>
    <g id="xtick_4">
     <g id="line2d_4">
      <g>
       <use style="stroke:#000000;stroke-width:0.8;" x="274.683102" xlink:href="#m80e8091cc8" y="307.584"/>
      </g>
     </g>
     <g id="text_4">
      <!-- 1.5 -->
      <g transform="translate(266.731539 322.182437)scale(0.1 -0.1)">
       <use xlink:href="#DejaVuSans-49"/>
       <use x="63.623047" xlink:href="#DejaVuSans-46"/>
       <use x="95.410156" xlink:href="#DejaVuSans-53"/>
      </g>
     </g>
    </g>
    <g id="xtick_5">
     <g id="line2d_5">
      <g>
       <use style="stroke:#000000;stroke-width:0.8;" x="341.633227" xlink:href="#m80e8091cc8" y="307.584"/>
      </g>
     </g>
     <g id="text_5">
      <!-- 2.0 -->
      <defs>
       <path d="M 19.1875 8.296875 
L 53.609375 8.296875 
L 53.609375 0 
L 7.328125 0 
L 7.328125 8.296875 
Q 12.9375 14.109375 22.625 23.890625 
Q 32.328125 33.6875 34.8125 36.53125 
Q 39.546875 41.84375 41.421875 45.53125 
Q 43.3125 49.21875 43.3125 52.78125 
Q 43.3125 58.59375 39.234375 62.25 
Q 35.15625 65.921875 28.609375 65.921875 
Q 23.96875 65.921875 18.8125 64.3125 
Q 13.671875 62.703125 7.8125 59.421875 
L 7.8125 69.390625 
Q 13.765625 71.78125 18.9375 73 
Q 24.125 74.21875 28.421875 74.21875 
Q 39.75 74.21875 46.484375 68.546875 
Q 53.21875 62.890625 53.21875 53.421875 
Q 53.21875 48.921875 51.53125 44.890625 
Q 49.859375 40.875 45.40625 35.40625 
Q 44.1875 33.984375 37.640625 27.21875 
Q 31.109375 20.453125 19.1875 8.296875 
z
" id="DejaVuSans-50"/>
      </defs>
      <g transform="translate(333.681664 322.182437)scale(0.1 -0.1)">
       <use xlink:href="#DejaVuSans-50"/>
       <use x="63.623047" xlink:href="#DejaVuSans-46"/>
       <use x="95.410156" xlink:href="#DejaVuSans-48"/>
      </g>
     </g>
    </g>
    <g id="xtick_6">
     <g id="line2d_6">
      <g>
       <use style="stroke:#000000;stroke-width:0.8;" x="408.583352" xlink:href="#m80e8091cc8" y="307.584"/>
      </g>
     </g>
     <g id="text_6">
      <!-- 2.5 -->
      <g transform="translate(400.631789 322.182437)scale(0.1 -0.1)">
       <use xlink:href="#DejaVuSans-50"/>
       <use x="63.623047" xlink:href="#DejaVuSans-46"/>
       <use x="95.410156" xlink:href="#DejaVuSans-53"/>
      </g>
     </g>
    </g>
    <g id="text_7">
     <!-- Global Warming Potential (kgCO2eq/house-yr) -->
     <defs>
      <path d="M 59.515625 10.40625 
L 59.515625 29.984375 
L 43.40625 29.984375 
L 43.40625 38.09375 
L 69.28125 38.09375 
L 69.28125 6.78125 
Q 63.578125 2.734375 56.6875 0.65625 
Q 49.8125 -1.421875 42 -1.421875 
Q 24.90625 -1.421875 15.25 8.5625 
Q 5.609375 18.5625 5.609375 36.375 
Q 5.609375 54.25 15.25 64.234375 
Q 24.90625 74.21875 42 74.21875 
Q 49.125 74.21875 55.546875 72.453125 
Q 61.96875 70.703125 67.390625 67.28125 
L 67.390625 56.78125 
Q 61.921875 61.421875 55.765625 63.765625 
Q 49.609375 66.109375 42.828125 66.109375 
Q 29.4375 66.109375 22.71875 58.640625 
Q 16.015625 51.171875 16.015625 36.375 
Q 16.015625 21.625 22.71875 14.15625 
Q 29.4375 6.6875 42.828125 6.6875 
Q 48.046875 6.6875 52.140625 7.59375 
Q 56.25 8.5 59.515625 10.40625 
z
" id="DejaVuSans-71"/>
      <path d="M 9.421875 75.984375 
L 18.40625 75.984375 
L 18.40625 0 
L 9.421875 0 
z
" id="DejaVuSans-108"/>
      <path d="M 30.609375 48.390625 
Q 23.390625 48.390625 19.1875 42.75 
Q 14.984375 37.109375 14.984375 27.296875 
Q 14.984375 17.484375 19.15625 11.84375 
Q 23.34375 6.203125 30.609375 6.203125 
Q 37.796875 6.203125 41.984375 11.859375 
Q 46.1875 17.53125 46.1875 27.296875 
Q 46.1875 37.015625 41.984375 42.703125 
Q 37.796875 48.390625 30.609375 48.390625 
z
M 30.609375 56 
Q 42.328125 56 49.015625 48.375 
Q 55.71875 40.765625 55.71875 27.296875 
Q 55.71875 13.875 49.015625 6.21875 
Q 42.328125 -1.421875 30.609375 -1.421875 
Q 18.84375 -1.421875 12.171875 6.21875 
Q 5.515625 13.875 5.515625 27.296875 
Q 5.515625 40.765625 12.171875 48.375 
Q 18.84375 56 30.609375 56 
z
" id="DejaVuSans-111"/>
      <path d="M 48.6875 27.296875 
Q 48.6875 37.203125 44.609375 42.84375 
Q 40.53125 48.484375 33.40625 48.484375 
Q 26.265625 48.484375 22.1875 42.84375 
Q 18.109375 37.203125 18.109375 27.296875 
Q 18.109375 17.390625 22.1875 11.75 
Q 26.265625 6.109375 33.40625 6.109375 
Q 40.53125 6.109375 44.609375 11.75 
Q 48.6875 17.390625 48.6875 27.296875 
z
M 18.109375 46.390625 
Q 20.953125 51.265625 25.265625 53.625 
Q 29.59375 56 35.59375 56 
Q 45.5625 56 51.78125 48.09375 
Q 58.015625 40.1875 58.015625 27.296875 
Q 58.015625 14.40625 51.78125 6.484375 
Q 45.5625 -1.421875 35.59375 -1.421875 
Q 29.59375 -1.421875 25.265625 0.953125 
Q 20.953125 3.328125 18.109375 8.203125 
L 18.109375 0 
L 9.078125 0 
L 9.078125 75.984375 
L 18.109375 75.984375 
z
" id="DejaVuSans-98"/>
      <path d="M 34.28125 27.484375 
Q 23.390625 27.484375 19.1875 25 
Q 14.984375 22.515625 14.984375 16.5 
Q 14.984375 11.71875 18.140625 8.90625 
Q 21.296875 6.109375 26.703125 6.109375 
Q 34.1875 6.109375 38.703125 11.40625 
Q 43.21875 16.703125 43.21875 25.484375 
L 43.21875 27.484375 
z
M 52.203125 31.203125 
L 52.203125 0 
L 43.21875 0 
L 43.21875 8.296875 
Q 40.140625 3.328125 35.546875 0.953125 
Q 30.953125 -1.421875 24.3125 -1.421875 
Q 15.921875 -1.421875 10.953125 3.296875 
Q 6 8.015625 6 15.921875 
Q 6 25.140625 12.171875 29.828125 
Q 18.359375 34.515625 30.609375 34.515625 
L 43.21875 34.515625 
L 43.21875 35.40625 
Q 43.21875 41.609375 39.140625 45 
Q 35.0625 48.390625 27.6875 48.390625 
Q 23 48.390625 18.546875 47.265625 
Q 14.109375 46.140625 10.015625 43.890625 
L 10.015625 52.203125 
Q 14.9375 54.109375 19.578125 55.046875 
Q 24.21875 56 28.609375 56 
Q 40.484375 56 46.34375 49.84375 
Q 52.203125 43.703125 52.203125 31.203125 
z
" id="DejaVuSans-97"/>
      <path id="DejaVuSans-32"/>
      <path d="M 3.328125 72.90625 
L 13.28125 72.90625 
L 28.609375 11.28125 
L 43.890625 72.90625 
L 54.984375 72.90625 
L 70.3125 11.28125 
L 85.59375 72.90625 
L 95.609375 72.90625 
L 77.296875 0 
L 64.890625 0 
L 49.515625 63.28125 
L 33.984375 0 
L 21.578125 0 
z
" id="DejaVuSans-87"/>
      <path d="M 41.109375 46.296875 
Q 39.59375 47.171875 37.8125 47.578125 
Q 36.03125 48 33.890625 48 
Q 26.265625 48 22.1875 43.046875 
Q 18.109375 38.09375 18.109375 28.8125 
L 18.109375 0 
L 9.078125 0 
L 9.078125 54.6875 
L 18.109375 54.6875 
L 18.109375 46.1875 
Q 20.953125 51.171875 25.484375 53.578125 
Q 30.03125 56 36.53125 56 
Q 37.453125 56 38.578125 55.875 
Q 39.703125 55.765625 41.0625 55.515625 
z
" id="DejaVuSans-114"/>
      <path d="M 52 44.1875 
Q 55.375 50.25 60.0625 53.125 
Q 64.75 56 71.09375 56 
Q 79.640625 56 84.28125 50.015625 
Q 88.921875 44.046875 88.921875 33.015625 
L 88.921875 0 
L 79.890625 0 
L 79.890625 32.71875 
Q 79.890625 40.578125 77.09375 44.375 
Q 74.3125 48.1875 68.609375 48.1875 
Q 61.625 48.1875 57.5625 43.546875 
Q 53.515625 38.921875 53.515625 30.90625 
L 53.515625 0 
L 44.484375 0 
L 44.484375 32.71875 
Q 44.484375 40.625 41.703125 44.40625 
Q 38.921875 48.1875 33.109375 48.1875 
Q 26.21875 48.1875 22.15625 43.53125 
Q 18.109375 38.875 18.109375 30.90625 
L 18.109375 0 
L 9.078125 0 
L 9.078125 54.6875 
L 18.109375 54.6875 
L 18.109375 46.1875 
Q 21.1875 51.21875 25.484375 53.609375 
Q 29.78125 56 35.6875 56 
Q 41.65625 56 45.828125 52.96875 
Q 50 49.953125 52 44.1875 
z
" id="DejaVuSans-109"/>
      <path d="M 9.421875 54.6875 
L 18.40625 54.6875 
L 18.40625 0 
L 9.421875 0 
z
M 9.421875 75.984375 
L 18.40625 75.984375 
L 18.40625 64.59375 
L 9.421875 64.59375 
z
" id="DejaVuSans-105"/>
      <path d="M 54.890625 33.015625 
L 54.890625 0 
L 45.90625 0 
L 45.90625 32.71875 
Q 45.90625 40.484375 42.875 44.328125 
Q 39.84375 48.1875 33.796875 48.1875 
Q 26.515625 48.1875 22.3125 43.546875 
Q 18.109375 38.921875 18.109375 30.90625 
L 18.109375 0 
L 9.078125 0 
L 9.078125 54.6875 
L 18.109375 54.6875 
L 18.109375 46.1875 
Q 21.34375 51.125 25.703125 53.5625 
Q 30.078125 56 35.796875 56 
Q 45.21875 56 50.046875 50.171875 
Q 54.890625 44.34375 54.890625 33.015625 
z
" id="DejaVuSans-110"/>
      <path d="M 45.40625 27.984375 
Q 45.40625 37.75 41.375 43.109375 
Q 37.359375 48.484375 30.078125 48.484375 
Q 22.859375 48.484375 18.828125 43.109375 
Q 14.796875 37.75 14.796875 27.984375 
Q 14.796875 18.265625 18.828125 12.890625 
Q 22.859375 7.515625 30.078125 7.515625 
Q 37.359375 7.515625 41.375 12.890625 
Q 45.40625 18.265625 45.40625 27.984375 
z
M 54.390625 6.78125 
Q 54.390625 -7.171875 48.1875 -13.984375 
Q 42 -20.796875 29.203125 -20.796875 
Q 24.46875 -20.796875 20.265625 -20.09375 
Q 16.0625 -19.390625 12.109375 -17.921875 
L 12.109375 -9.1875 
Q 16.0625 -11.328125 19.921875 -12.34375 
Q 23.78125 -13.375 27.78125 -13.375 
Q 36.625 -13.375 41.015625 -8.765625 
Q 45.40625 -4.15625 45.40625 5.171875 
L 45.40625 9.625 
Q 42.625 4.78125 38.28125 2.390625 
Q 33.9375 0 27.875 0 
Q 17.828125 0 11.671875 7.65625 
Q 5.515625 15.328125 5.515625 27.984375 
Q 5.515625 40.671875 11.671875 48.328125 
Q 17.828125 56 27.875 56 
Q 33.9375 56 38.28125 53.609375 
Q 42.625 51.21875 45.40625 46.390625 
L 45.40625 54.6875 
L 54.390625 54.6875 
z
" id="DejaVuSans-103"/>
      <path d="M 19.671875 64.796875 
L 19.671875 37.40625 
L 32.078125 37.40625 
Q 38.96875 37.40625 42.71875 40.96875 
Q 46.484375 44.53125 46.484375 51.125 
Q 46.484375 57.671875 42.71875 61.234375 
Q 38.96875 64.796875 32.078125 64.796875 
z
M 9.8125 72.90625 
L 32.078125 72.90625 
Q 44.34375 72.90625 50.609375 67.359375 
Q 56.890625 61.8125 56.890625 51.125 
Q 56.890625 40.328125 50.609375 34.8125 
Q 44.34375 29.296875 32.078125 29.296875 
L 19.671875 29.296875 
L 19.671875 0 
L 9.8125 0 
z
" id="DejaVuSans-80"/>
      <path d="M 18.3125 70.21875 
L 18.3125 54.6875 
L 36.8125 54.6875 
L 36.8125 47.703125 
L 18.3125 47.703125 
L 18.3125 18.015625 
Q 18.3125 11.328125 20.140625 9.421875 
Q 21.96875 7.515625 27.59375 7.515625 
L 36.8125 7.515625 
L 36.8125 0 
L 27.59375 0 
Q 17.1875 0 13.234375 3.875 
Q 9.28125 7.765625 9.28125 18.015625 
L 9.28125 47.703125 
L 2.6875 47.703125 
L 2.6875 54.6875 
L 9.28125 54.6875 
L 9.28125 70.21875 
z
" id="DejaVuSans-116"/>
      <path d="M 56.203125 29.59375 
L 56.203125 25.203125 
L 14.890625 25.203125 
Q 15.484375 15.921875 20.484375 11.0625 
Q 25.484375 6.203125 34.421875 6.203125 
Q 39.59375 6.203125 44.453125 7.46875 
Q 49.3125 8.734375 54.109375 11.28125 
L 54.109375 2.78125 
Q 49.265625 0.734375 44.1875 -0.34375 
Q 39.109375 -1.421875 33.890625 -1.421875 
Q 20.796875 -1.421875 13.15625 6.1875 
Q 5.515625 13.8125 5.515625 26.8125 
Q 5.515625 40.234375 12.765625 48.109375 
Q 20.015625 56 32.328125 56 
Q 43.359375 56 49.78125 48.890625 
Q 56.203125 41.796875 56.203125 29.59375 
z
M 47.21875 32.234375 
Q 47.125 39.59375 43.09375 43.984375 
Q 39.0625 48.390625 32.421875 48.390625 
Q 24.90625 48.390625 20.390625 44.140625 
Q 15.875 39.890625 15.1875 32.171875 
z
" id="DejaVuSans-101"/>
      <path d="M 31 75.875 
Q 24.46875 64.65625 21.28125 53.65625 
Q 18.109375 42.671875 18.109375 31.390625 
Q 18.109375 20.125 21.3125 9.0625 
Q 24.515625 -2 31 -13.1875 
L 23.1875 -13.1875 
Q 15.875 -1.703125 12.234375 9.375 
Q 8.59375 20.453125 8.59375 31.390625 
Q 8.59375 42.28125 12.203125 53.3125 
Q 15.828125 64.359375 23.1875 75.875 
z
" id="DejaVuSans-40"/>
      <path d="M 9.078125 75.984375 
L 18.109375 75.984375 
L 18.109375 31.109375 
L 44.921875 54.6875 
L 56.390625 54.6875 
L 27.390625 29.109375 
L 57.625 0 
L 45.90625 0 
L 18.109375 26.703125 
L 18.109375 0 
L 9.078125 0 
z
" id="DejaVuSans-107"/>
      <path d="M 64.40625 67.28125 
L 64.40625 56.890625 
Q 59.421875 61.53125 53.78125 63.8125 
Q 48.140625 66.109375 41.796875 66.109375 
Q 29.296875 66.109375 22.65625 58.46875 
Q 16.015625 50.828125 16.015625 36.375 
Q 16.015625 21.96875 22.65625 14.328125 
Q 29.296875 6.6875 41.796875 6.6875 
Q 48.140625 6.6875 53.78125 8.984375 
Q 59.421875 11.28125 64.40625 15.921875 
L 64.40625 5.609375 
Q 59.234375 2.09375 53.4375 0.328125 
Q 47.65625 -1.421875 41.21875 -1.421875 
Q 24.65625 -1.421875 15.125 8.703125 
Q 5.609375 18.84375 5.609375 36.375 
Q 5.609375 53.953125 15.125 64.078125 
Q 24.65625 74.21875 41.21875 74.21875 
Q 47.75 74.21875 53.53125 72.484375 
Q 59.328125 70.75 64.40625 67.28125 
z
" id="DejaVuSans-67"/>
      <path d="M 39.40625 66.21875 
Q 28.65625 66.21875 22.328125 58.203125 
Q 16.015625 50.203125 16.015625 36.375 
Q 16.015625 22.609375 22.328125 14.59375 
Q 28.65625 6.59375 39.40625 6.59375 
Q 50.140625 6.59375 56.421875 14.59375 
Q 62.703125 22.609375 62.703125 36.375 
Q 62.703125 50.203125 56.421875 58.203125 
Q 50.140625 66.21875 39.40625 66.21875 
z
M 39.40625 74.21875 
Q 54.734375 74.21875 63.90625 63.9375 
Q 73.09375 53.65625 73.09375 36.375 
Q 73.09375 19.140625 63.90625 8.859375 
Q 54.734375 -1.421875 39.40625 -1.421875 
Q 24.03125 -1.421875 14.8125 8.828125 
Q 5.609375 19.09375 5.609375 36.375 
Q 5.609375 53.65625 14.8125 63.9375 
Q 24.03125 74.21875 39.40625 74.21875 
z
" id="DejaVuSans-79"/>
      <path d="M 14.796875 27.296875 
Q 14.796875 17.390625 18.875 11.75 
Q 22.953125 6.109375 30.078125 6.109375 
Q 37.203125 6.109375 41.296875 11.75 
Q 45.40625 17.390625 45.40625 27.296875 
Q 45.40625 37.203125 41.296875 42.84375 
Q 37.203125 48.484375 30.078125 48.484375 
Q 22.953125 48.484375 18.875 42.84375 
Q 14.796875 37.203125 14.796875 27.296875 
z
M 45.40625 8.203125 
Q 42.578125 3.328125 38.25 0.953125 
Q 33.9375 -1.421875 27.875 -1.421875 
Q 17.96875 -1.421875 11.734375 6.484375 
Q 5.515625 14.40625 5.515625 27.296875 
Q 5.515625 40.1875 11.734375 48.09375 
Q 17.96875 56 27.875 56 
Q 33.9375 56 38.25 53.625 
Q 42.578125 51.265625 45.40625 46.390625 
L 45.40625 54.6875 
L 54.390625 54.6875 
L 54.390625 -20.796875 
L 45.40625 -20.796875 
z
" id="DejaVuSans-113"/>
      <path d="M 25.390625 72.90625 
L 33.6875 72.90625 
L 8.296875 -9.28125 
L 0 -9.28125 
z
" id="DejaVuSans-47"/>
      <path d="M 54.890625 33.015625 
L 54.890625 0 
L 45.90625 0 
L 45.90625 32.71875 
Q 45.90625 40.484375 42.875 44.328125 
Q 39.84375 48.1875 33.796875 48.1875 
Q 26.515625 48.1875 22.3125 43.546875 
Q 18.109375 38.921875 18.109375 30.90625 
L 18.109375 0 
L 9.078125 0 
L 9.078125 75.984375 
L 18.109375 75.984375 
L 18.109375 46.1875 
Q 21.34375 51.125 25.703125 53.5625 
Q 30.078125 56 35.796875 56 
Q 45.21875 56 50.046875 50.171875 
Q 54.890625 44.34375 54.890625 33.015625 
z
" id="DejaVuSans-104"/>
      <path d="M 8.5 21.578125 
L 8.5 54.6875 
L 17.484375 54.6875 
L 17.484375 21.921875 
Q 17.484375 14.15625 20.5 10.265625 
Q 23.53125 6.390625 29.59375 6.390625 
Q 36.859375 6.390625 41.078125 11.03125 
Q 45.3125 15.671875 45.3125 23.6875 
L 45.3125 54.6875 
L 54.296875 54.6875 
L 54.296875 0 
L 45.3125 0 
L 45.3125 8.40625 
Q 42.046875 3.421875 37.71875 1 
Q 33.40625 -1.421875 27.6875 -1.421875 
Q 18.265625 -1.421875 13.375 4.4375 
Q 8.5 10.296875 8.5 21.578125 
z
M 31.109375 56 
z
" id="DejaVuSans-117"/>
      <path d="M 44.28125 53.078125 
L 44.28125 44.578125 
Q 40.484375 46.53125 36.375 47.5 
Q 32.28125 48.484375 27.875 48.484375 
Q 21.1875 48.484375 17.84375 46.4375 
Q 14.5 44.390625 14.5 40.28125 
Q 14.5 37.15625 16.890625 35.375 
Q 19.28125 33.59375 26.515625 31.984375 
L 29.59375 31.296875 
Q 39.15625 29.25 43.1875 25.515625 
Q 47.21875 21.78125 47.21875 15.09375 
Q 47.21875 7.46875 41.1875 3.015625 
Q 35.15625 -1.421875 24.609375 -1.421875 
Q 20.21875 -1.421875 15.453125 -0.5625 
Q 10.6875 0.296875 5.421875 2 
L 5.421875 11.28125 
Q 10.40625 8.6875 15.234375 7.390625 
Q 20.0625 6.109375 24.8125 6.109375 
Q 31.15625 6.109375 34.5625 8.28125 
Q 37.984375 10.453125 37.984375 14.40625 
Q 37.984375 18.0625 35.515625 20.015625 
Q 33.0625 21.96875 24.703125 23.78125 
L 21.578125 24.515625 
Q 13.234375 26.265625 9.515625 29.90625 
Q 5.8125 33.546875 5.8125 39.890625 
Q 5.8125 47.609375 11.28125 51.796875 
Q 16.75 56 26.8125 56 
Q 31.78125 56 36.171875 55.265625 
Q 40.578125 54.546875 44.28125 53.078125 
z
" id="DejaVuSans-115"/>
      <path d="M 4.890625 31.390625 
L 31.203125 31.390625 
L 31.203125 23.390625 
L 4.890625 23.390625 
z
" id="DejaVuSans-45"/>
      <path d="M 32.171875 -5.078125 
Q 28.375 -14.84375 24.75 -17.8125 
Q 21.140625 -20.796875 15.09375 -20.796875 
L 7.90625 -20.796875 
L 7.90625 -13.28125 
L 13.1875 -13.28125 
Q 16.890625 -13.28125 18.9375 -11.515625 
Q 21 -9.765625 23.484375 -3.21875 
L 25.09375 0.875 
L 2.984375 54.6875 
L 12.5 54.6875 
L 29.59375 11.921875 
L 46.6875 54.6875 
L 56.203125 54.6875 
z
" id="DejaVuSans-121"/>
      <path d="M 8.015625 75.875 
L 15.828125 75.875 
Q 23.140625 64.359375 26.78125 53.3125 
Q 30.421875 42.28125 30.421875 31.390625 
Q 30.421875 20.453125 26.78125 9.375 
Q 23.140625 -1.703125 15.828125 -13.1875 
L 8.015625 -13.1875 
Q 14.5 -2 17.703125 9.0625 
Q 20.90625 20.125 20.90625 31.390625 
Q 20.90625 42.671875 17.703125 53.65625 
Q 14.5 64.65625 8.015625 75.875 
z
" id="DejaVuSans-41"/>
     </defs>
     <g transform="translate(120.958437 335.860562)scale(0.1 -0.1)">
      <use xlink:href="#DejaVuSans-71"/>
      <use x="77.490234" xlink:href="#DejaVuSans-108"/>
      <use x="105.273438" xlink:href="#DejaVuSans-111"/>
      <use x="166.455078" xlink:href="#DejaVuSans-98"/>
      <use x="229.931641" xlink:href="#DejaVuSans-97"/>
      <use x="291.210938" xlink:href="#DejaVuSans-108"/>
      <use x="318.994141" xlink:href="#DejaVuSans-32"/>
      <use x="350.78125" xlink:href="#DejaVuSans-87"/>
      <use x="443.283203" xlink:href="#DejaVuSans-97"/>
      <use x="504.5625" xlink:href="#DejaVuSans-114"/>
      <use x="543.925781" xlink:href="#DejaVuSans-109"/>
      <use x="641.337891" xlink:href="#DejaVuSans-105"/>
      <use x="669.121094" xlink:href="#DejaVuSans-110"/>
      <use x="732.5" xlink:href="#DejaVuSans-103"/>
      <use x="795.976562" xlink:href="#DejaVuSans-32"/>
      <use x="827.763672" xlink:href="#DejaVuSans-80"/>
      <use x="884.441406" xlink:href="#DejaVuSans-111"/>
      <use x="945.623047" xlink:href="#DejaVuSans-116"/>
      <use x="984.832031" xlink:href="#DejaVuSans-101"/>
      <use x="1046.355469" xlink:href="#DejaVuSans-110"/>
      <use x="1109.734375" xlink:href="#DejaVuSans-116"/>
      <use x="1148.943359" xlink:href="#DejaVuSans-105"/>
      <use x="1176.726562" xlink:href="#DejaVuSans-97"/>
      <use x="1238.005859" xlink:href="#DejaVuSans-108"/>
      <use x="1265.789062" xlink:href="#DejaVuSans-32"/>
      <use x="1297.576172" xlink:href="#DejaVuSans-40"/>
      <use x="1336.589844" xlink:href="#DejaVuSans-107"/>
      <use x="1394.5" xlink:href="#DejaVuSans-103"/>
      <use x="1457.976562" xlink:href="#DejaVuSans-67"/>
      <use x="1527.800781" xlink:href="#DejaVuSans-79"/>
      <use x="1606.511719" xlink:href="#DejaVuSans-50"/>
      <use x="1670.134766" xlink:href="#DejaVuSans-101"/>
      <use x="1731.658203" xlink:href="#DejaVuSans-113"/>
      <use x="1795.134766" xlink:href="#DejaVuSans-47"/>
      <use x="1828.826172" xlink:href="#DejaVuSans-104"/>
      <use x="1892.205078" xlink:href="#DejaVuSans-111"/>
      <use x="1953.386719" xlink:href="#DejaVuSans-117"/>
      <use x="2016.765625" xlink:href="#DejaVuSans-115"/>
      <use x="2068.865234" xlink:href="#DejaVuSans-101"/>
      <use x="2130.388672" xlink:href="#DejaVuSans-45"/>
      <use x="2164.722656" xlink:href="#DejaVuSans-121"/>
      <use x="2223.902344" xlink:href="#DejaVuSans-114"/>
      <use x="2265.015625" xlink:href="#DejaVuSans-41"/>
     </g>
    </g>
   </g>
   <g id="matplotlib.axis_2">
    <g id="ytick_1">
     <g id="line2d_7">
      <defs>
       <path d="M 0 0 
L -3.5 0 
" id="m538cee8d56" style="stroke:#000000;stroke-width:0.8;"/>
      </defs>
      <g>
       <use style="stroke:#000000;stroke-width:0.8;" x="57.6" xlink:href="#m538cee8d56" y="295.488"/>
      </g>
     </g>
     <g id="text_8">
      <!-- 0 -->
      <g transform="translate(44.2375 299.287219)scale(0.1 -0.1)">
       <use xlink:href="#DejaVuSans-48"/>
      </g>
     </g>
    </g>
    <g id="ytick_2">
     <g id="line2d_8">
      <g>
       <use style="stroke:#000000;stroke-width:0.8;" x="57.6" xlink:href="#m538cee8d56" y="243.382074"/>
      </g>
     </g>
     <g id="text_9">
      <!-- 2 -->
      <g transform="translate(44.2375 247.181292)scale(0.1 -0.1)">
       <use xlink:href="#DejaVuSans-50"/>
      </g>
     </g>
    </g>
    <g id="ytick_3">
     <g id="line2d_9">
      <g>
       <use style="stroke:#000000;stroke-width:0.8;" x="57.6" xlink:href="#m538cee8d56" y="191.276147"/>
      </g>
     </g>
     <g id="text_10">
      <!-- 4 -->
      <defs>
       <path d="M 37.796875 64.3125 
L 12.890625 25.390625 
L 37.796875 25.390625 
z
M 35.203125 72.90625 
L 47.609375 72.90625 
L 47.609375 25.390625 
L 58.015625 25.390625 
L 58.015625 17.1875 
L 47.609375 17.1875 
L 47.609375 0 
L 37.796875 0 
L 37.796875 17.1875 
L 4.890625 17.1875 
L 4.890625 26.703125 
z
" id="DejaVuSans-52"/>
      </defs>
      <g transform="translate(44.2375 195.075366)scale(0.1 -0.1)">
       <use xlink:href="#DejaVuSans-52"/>
      </g>
     </g>
    </g>
    <g id="ytick_4">
     <g id="line2d_10">
      <g>
       <use style="stroke:#000000;stroke-width:0.8;" x="57.6" xlink:href="#m538cee8d56" y="139.170221"/>
      </g>
     </g>
     <g id="text_11">
      <!-- 6 -->
      <defs>
       <path d="M 33.015625 40.375 
Q 26.375 40.375 22.484375 35.828125 
Q 18.609375 31.296875 18.609375 23.390625 
Q 18.609375 15.53125 22.484375 10.953125 
Q 26.375 6.390625 33.015625 6.390625 
Q 39.65625 6.390625 43.53125 10.953125 
Q 47.40625 15.53125 47.40625 23.390625 
Q 47.40625 31.296875 43.53125 35.828125 
Q 39.65625 40.375 33.015625 40.375 
z
M 52.59375 71.296875 
L 52.59375 62.3125 
Q 48.875 64.0625 45.09375 64.984375 
Q 41.3125 65.921875 37.59375 65.921875 
Q 27.828125 65.921875 22.671875 59.328125 
Q 17.53125 52.734375 16.796875 39.40625 
Q 19.671875 43.65625 24.015625 45.921875 
Q 28.375 48.1875 33.59375 48.1875 
Q 44.578125 48.1875 50.953125 41.515625 
Q 57.328125 34.859375 57.328125 23.390625 
Q 57.328125 12.15625 50.6875 5.359375 
Q 44.046875 -1.421875 33.015625 -1.421875 
Q 20.359375 -1.421875 13.671875 8.265625 
Q 6.984375 17.96875 6.984375 36.375 
Q 6.984375 53.65625 15.1875 63.9375 
Q 23.390625 74.21875 37.203125 74.21875 
Q 40.921875 74.21875 44.703125 73.484375 
Q 48.484375 72.75 52.59375 71.296875 
z
" id="DejaVuSans-54"/>
      </defs>
      <g transform="translate(44.2375 142.96944)scale(0.1 -0.1)">
       <use xlink:href="#DejaVuSans-54"/>
      </g>
     </g>
    </g>
    <g id="ytick_5">
     <g id="line2d_11">
      <g>
       <use style="stroke:#000000;stroke-width:0.8;" x="57.6" xlink:href="#m538cee8d56" y="87.064295"/>
      </g>
     </g>
     <g id="text_12">
      <!-- 8 -->
      <defs>
       <path d="M 31.78125 34.625 
Q 24.75 34.625 20.71875 30.859375 
Q 16.703125 27.09375 16.703125 20.515625 
Q 16.703125 13.921875 20.71875 10.15625 
Q 24.75 6.390625 31.78125 6.390625 
Q 38.8125 6.390625 42.859375 10.171875 
Q 46.921875 13.96875 46.921875 20.515625 
Q 46.921875 27.09375 42.890625 30.859375 
Q 38.875 34.625 31.78125 34.625 
z
M 21.921875 38.8125 
Q 15.578125 40.375 12.03125 44.71875 
Q 8.5 49.078125 8.5 55.328125 
Q 8.5 64.0625 14.71875 69.140625 
Q 20.953125 74.21875 31.78125 74.21875 
Q 42.671875 74.21875 48.875 69.140625 
Q 55.078125 64.0625 55.078125 55.328125 
Q 55.078125 49.078125 51.53125 44.71875 
Q 48 40.375 41.703125 38.8125 
Q 48.828125 37.15625 52.796875 32.3125 
Q 56.78125 27.484375 56.78125 20.515625 
Q 56.78125 9.90625 50.3125 4.234375 
Q 43.84375 -1.421875 31.78125 -1.421875 
Q 19.734375 -1.421875 13.25 4.234375 
Q 6.78125 9.90625 6.78125 20.515625 
Q 6.78125 27.484375 10.78125 32.3125 
Q 14.796875 37.15625 21.921875 38.8125 
z
M 18.3125 54.390625 
Q 18.3125 48.734375 21.84375 45.5625 
Q 25.390625 42.390625 31.78125 42.390625 
Q 38.140625 42.390625 41.71875 45.5625 
Q 45.3125 48.734375 45.3125 54.390625 
Q 45.3125 60.0625 41.71875 63.234375 
Q 38.140625 66.40625 31.78125 66.40625 
Q 25.390625 66.40625 21.84375 63.234375 
Q 18.3125 60.0625 18.3125 54.390625 
z
" id="DejaVuSans-56"/>
      </defs>
      <g transform="translate(44.2375 90.863513)scale(0.1 -0.1)">
       <use xlink:href="#DejaVuSans-56"/>
      </g>
     </g>
    </g>
    <g id="text_13">
     <!-- Circularity -->
     <defs>
      <path d="M 48.78125 52.59375 
L 48.78125 44.1875 
Q 44.96875 46.296875 41.140625 47.34375 
Q 37.3125 48.390625 33.40625 48.390625 
Q 24.65625 48.390625 19.8125 42.84375 
Q 14.984375 37.3125 14.984375 27.296875 
Q 14.984375 17.28125 19.8125 11.734375 
Q 24.65625 6.203125 33.40625 6.203125 
Q 37.3125 6.203125 41.140625 7.25 
Q 44.96875 8.296875 48.78125 10.40625 
L 48.78125 2.09375 
Q 45.015625 0.34375 40.984375 -0.53125 
Q 36.96875 -1.421875 32.421875 -1.421875 
Q 20.0625 -1.421875 12.78125 6.34375 
Q 5.515625 14.109375 5.515625 27.296875 
Q 5.515625 40.671875 12.859375 48.328125 
Q 20.21875 56 33.015625 56 
Q 37.15625 56 41.109375 55.140625 
Q 45.0625 54.296875 48.78125 52.59375 
z
" id="DejaVuSans-99"/>
     </defs>
     <g transform="translate(26.96 200.086594)rotate(-90)scale(0.1 -0.1)">
      <use xlink:href="#DejaVuSans-67"/>
      <use x="69.824219" xlink:href="#DejaVuSans-105"/>
      <use x="97.607422" xlink:href="#DejaVuSans-114"/>
      <use x="136.470703" xlink:href="#DejaVuSans-99"/>
      <use x="191.451172" xlink:href="#DejaVuSans-117"/>
      <use x="254.830078" xlink:href="#DejaVuSans-108"/>
      <use x="282.613281" xlink:href="#DejaVuSans-97"/>
      <use x="343.892578" xlink:href="#DejaVuSans-114"/>
      <use x="385.005859" xlink:href="#DejaVuSans-105"/>
      <use x="412.789062" xlink:href="#DejaVuSans-116"/>
      <use x="451.998047" xlink:href="#DejaVuSans-121"/>
     </g>
     <!--  (Fraction of economic value regenerated) -->
     <defs>
      <path d="M 9.8125 72.90625 
L 51.703125 72.90625 
L 51.703125 64.59375 
L 19.671875 64.59375 
L 19.671875 43.109375 
L 48.578125 43.109375 
L 48.578125 34.8125 
L 19.671875 34.8125 
L 19.671875 0 
L 9.8125 0 
z
" id="DejaVuSans-70"/>
      <path d="M 37.109375 75.984375 
L 37.109375 68.5 
L 28.515625 68.5 
Q 23.6875 68.5 21.796875 66.546875 
Q 19.921875 64.59375 19.921875 59.515625 
L 19.921875 54.6875 
L 34.71875 54.6875 
L 34.71875 47.703125 
L 19.921875 47.703125 
L 19.921875 0 
L 10.890625 0 
L 10.890625 47.703125 
L 2.296875 47.703125 
L 2.296875 54.6875 
L 10.890625 54.6875 
L 10.890625 58.5 
Q 10.890625 67.625 15.140625 71.796875 
Q 19.390625 75.984375 28.609375 75.984375 
z
" id="DejaVuSans-102"/>
      <path d="M 2.984375 54.6875 
L 12.5 54.6875 
L 29.59375 8.796875 
L 46.6875 54.6875 
L 56.203125 54.6875 
L 35.6875 0 
L 23.484375 0 
z
" id="DejaVuSans-118"/>
      <path d="M 45.40625 46.390625 
L 45.40625 75.984375 
L 54.390625 75.984375 
L 54.390625 0 
L 45.40625 0 
L 45.40625 8.203125 
Q 42.578125 3.328125 38.25 0.953125 
Q 33.9375 -1.421875 27.875 -1.421875 
Q 17.96875 -1.421875 11.734375 6.484375 
Q 5.515625 14.40625 5.515625 27.296875 
Q 5.515625 40.1875 11.734375 48.09375 
Q 17.96875 56 27.875 56 
Q 33.9375 56 38.25 53.625 
Q 42.578125 51.265625 45.40625 46.390625 
z
M 14.796875 27.296875 
Q 14.796875 17.390625 18.875 11.75 
Q 22.953125 6.109375 30.078125 6.109375 
Q 37.203125 6.109375 41.296875 11.75 
Q 45.40625 17.390625 45.40625 27.296875 
Q 45.40625 37.203125 41.296875 42.84375 
Q 37.203125 48.484375 30.078125 48.484375 
Q 22.953125 48.484375 18.875 42.84375 
Q 14.796875 37.203125 14.796875 27.296875 
z
" id="DejaVuSans-100"/>
     </defs>
     <g transform="translate(38.157812 279.779562)rotate(-90)scale(0.1 -0.1)">
      <use xlink:href="#DejaVuSans-32"/>
      <use x="31.787109" xlink:href="#DejaVuSans-40"/>
      <use x="70.800781" xlink:href="#DejaVuSans-70"/>
      <use x="121.070312" xlink:href="#DejaVuSans-114"/>
      <use x="162.183594" xlink:href="#DejaVuSans-97"/>
      <use x="223.462891" xlink:href="#DejaVuSans-99"/>
      <use x="278.443359" xlink:href="#DejaVuSans-116"/>
      <use x="317.652344" xlink:href="#DejaVuSans-105"/>
      <use x="345.435547" xlink:href="#DejaVuSans-111"/>
      <use x="406.617188" xlink:href="#DejaVuSans-110"/>
      <use x="469.996094" xlink:href="#DejaVuSans-32"/>
      <use x="501.783203" xlink:href="#DejaVuSans-111"/>
      <use x="562.964844" xlink:href="#DejaVuSans-102"/>
      <use x="598.169922" xlink:href="#DejaVuSans-32"/>
      <use x="629.957031" xlink:href="#DejaVuSans-101"/>
      <use x="691.480469" xlink:href="#DejaVuSans-99"/>
      <use x="746.460938" xlink:href="#DejaVuSans-111"/>
      <use x="807.642578" xlink:href="#DejaVuSans-110"/>
      <use x="871.021484" xlink:href="#DejaVuSans-111"/>
      <use x="932.203125" xlink:href="#DejaVuSans-109"/>
      <use x="1029.615234" xlink:href="#DejaVuSans-105"/>
      <use x="1057.398438" xlink:href="#DejaVuSans-99"/>
      <use x="1112.378906" xlink:href="#DejaVuSans-32"/>
      <use x="1144.166016" xlink:href="#DejaVuSans-118"/>
      <use x="1203.345703" xlink:href="#DejaVuSans-97"/>
      <use x="1264.625" xlink:href="#DejaVuSans-108"/>
      <use x="1292.408203" xlink:href="#DejaVuSans-117"/>
      <use x="1355.787109" xlink:href="#DejaVuSans-101"/>
      <use x="1417.310547" xlink:href="#DejaVuSans-32"/>
      <use x="1449.097656" xlink:href="#DejaVuSans-114"/>
      <use x="1487.960938" xlink:href="#DejaVuSans-101"/>
      <use x="1549.484375" xlink:href="#DejaVuSans-103"/>
      <use x="1612.960938" xlink:href="#DejaVuSans-101"/>
      <use x="1674.484375" xlink:href="#DejaVuSans-110"/>
      <use x="1737.863281" xlink:href="#DejaVuSans-101"/>
      <use x="1799.386719" xlink:href="#DejaVuSans-114"/>
      <use x="1840.5" xlink:href="#DejaVuSans-97"/>
      <use x="1901.779297" xlink:href="#DejaVuSans-116"/>
      <use x="1940.988281" xlink:href="#DejaVuSans-101"/>
      <use x="2002.511719" xlink:href="#DejaVuSans-100"/>
      <use x="2065.988281" xlink:href="#DejaVuSans-41"/>
     </g>
    </g>
   </g>
   <g id="LineCollection_1">
    <path clip-path="url(#p8b191b2227)" d="M 73.832727 295.488 
L 73.832727 53.568 
" style="fill:none;stroke:#ff0000;stroke-dasharray:5.55,2.4;stroke-dashoffset:0;stroke-opacity:0.7;stroke-width:1.5;"/>
   </g>
   <g id="patch_3">
    <path d="M 57.6 307.584 
L 57.6 41.472 
" style="fill:none;stroke:#000000;stroke-linecap:square;stroke-linejoin:miter;stroke-width:0.8;"/>
   </g>
   <g id="patch_4">
    <path d="M 414.72 307.584 
L 414.72 41.472 
" style="fill:none;stroke:#000000;stroke-linecap:square;stroke-linejoin:miter;stroke-width:0.8;"/>
   </g>
   <g id="patch_5">
    <path d="M 57.6 307.584 
L 414.72 307.584 
" style="fill:none;stroke:#000000;stroke-linecap:square;stroke-linejoin:miter;stroke-width:0.8;"/>
   </g>
   <g id="patch_6">
    <path d="M 57.6 41.472 
L 414.72 41.472 
" style="fill:none;stroke:#000000;stroke-linecap:square;stroke-linejoin:miter;stroke-width:0.8;"/>
   </g>
   <g id="patch_7">
    <path d="M 167.236155 83.985616 
Q 87.455054 90.754842 76.899158 90.357804 
" style="fill:none;stroke:#000000;stroke-linecap:round;"/>
    <path d="M 80.821159 92.506736 
L 76.899158 90.357804 
L 80.971505 88.509562 
" style="fill:none;stroke:#000000;stroke-linecap:round;"/>
   </g>
   <g id="text_14">
    <!-- Net-zero -->
    <defs>
     <path d="M 9.8125 72.90625 
L 23.09375 72.90625 
L 55.421875 11.921875 
L 55.421875 72.90625 
L 64.984375 72.90625 
L 64.984375 0 
L 51.703125 0 
L 19.390625 60.984375 
L 19.390625 0 
L 9.8125 0 
z
" id="DejaVuSans-78"/>
     <path d="M 5.515625 54.6875 
L 48.1875 54.6875 
L 48.1875 46.484375 
L 14.40625 7.171875 
L 48.1875 7.171875 
L 48.1875 0 
L 4.296875 0 
L 4.296875 8.203125 
L 38.09375 47.515625 
L 5.515625 47.515625 
z
" id="DejaVuSans-122"/>
    </defs>
    <g transform="translate(171.229091 78.658187)scale(0.1 -0.1)">
     <use xlink:href="#DejaVuSans-78"/>
     <use x="74.804688" xlink:href="#DejaVuSans-101"/>
     <use x="136.328125" xlink:href="#DejaVuSans-116"/>
     <use x="175.537109" xlink:href="#DejaVuSans-45"/>
     <use x="211.621094" xlink:href="#DejaVuSans-122"/>
     <use x="264.111328" xlink:href="#DejaVuSans-101"/>
     <use x="325.634766" xlink:href="#DejaVuSans-114"/>
     <use x="364.498047" xlink:href="#DejaVuSans-111"/>
    </g>
    <!-- Emissions -->
    <defs>
     <path d="M 9.8125 72.90625 
L 55.90625 72.90625 
L 55.90625 64.59375 
L 19.671875 64.59375 
L 19.671875 43.015625 
L 54.390625 43.015625 
L 54.390625 34.71875 
L 19.671875 34.71875 
L 19.671875 8.296875 
L 56.78125 8.296875 
L 56.78125 0 
L 9.8125 0 
z
" id="DejaVuSans-69"/>
    </defs>
    <g transform="translate(171.229091 89.856)scale(0.1 -0.1)">
     <use xlink:href="#DejaVuSans-69"/>
     <use x="63.183594" xlink:href="#DejaVuSans-109"/>
     <use x="160.595703" xlink:href="#DejaVuSans-105"/>
     <use x="188.378906" xlink:href="#DejaVuSans-115"/>
     <use x="240.478516" xlink:href="#DejaVuSans-115"/>
     <use x="292.578125" xlink:href="#DejaVuSans-105"/>
     <use x="320.361328" xlink:href="#DejaVuSans-111"/>
     <use x="381.542969" xlink:href="#DejaVuSans-110"/>
     <use x="444.921875" xlink:href="#DejaVuSans-115"/>
    </g>
   </g>
   <g id="legend_1">
    <g id="patch_8">
     <path d="M 342.566875 302.584 
L 407.72 302.584 
Q 409.72 302.584 409.72 300.584 
L 409.72 202.317437 
Q 409.72 200.317437 407.72 200.317437 
L 342.566875 200.317437 
Q 340.566875 200.317437 340.566875 202.317437 
L 340.566875 300.584 
Q 340.566875 302.584 342.566875 302.584 
z
" style="fill:#ffffff;opacity:0.8;stroke:#cccccc;stroke-linejoin:miter;"/>
    </g>
    <g id="text_15">
     <!-- LCC -->
     <defs>
      <path d="M 9.8125 72.90625 
L 19.671875 72.90625 
L 19.671875 8.296875 
L 55.171875 8.296875 
L 55.171875 0 
L 9.8125 0 
z
" id="DejaVuSans-76"/>
     </defs>
     <g transform="translate(344.566875 211.915875)scale(0.1 -0.1)">
      <use xlink:href="#DejaVuSans-76"/>
      <use x="55.712891" xlink:href="#DejaVuSans-67"/>
      <use x="125.537109" xlink:href="#DejaVuSans-67"/>
     </g>
     <!-- ($/house-yr) -->
     <defs>
      <path d="M 33.796875 -14.703125 
L 28.90625 -14.703125 
L 28.859375 0 
Q 23.734375 0.09375 18.609375 1.1875 
Q 13.484375 2.296875 8.296875 4.5 
L 8.296875 13.28125 
Q 13.28125 10.15625 18.375 8.5625 
Q 23.484375 6.984375 28.90625 6.9375 
L 28.90625 29.203125 
Q 18.109375 30.953125 13.203125 35.15625 
Q 8.296875 39.359375 8.296875 46.6875 
Q 8.296875 54.640625 13.625 59.21875 
Q 18.953125 63.8125 28.90625 64.5 
L 28.90625 75.984375 
L 33.796875 75.984375 
L 33.796875 64.65625 
Q 38.328125 64.453125 42.578125 63.6875 
Q 46.828125 62.9375 50.875 61.625 
L 50.875 53.078125 
Q 46.828125 55.125 42.546875 56.25 
Q 38.28125 57.375 33.796875 57.5625 
L 33.796875 36.71875 
Q 44.875 35.015625 50.09375 30.609375 
Q 55.328125 26.21875 55.328125 18.609375 
Q 55.328125 10.359375 49.78125 5.59375 
Q 44.234375 0.828125 33.796875 0.09375 
z
M 28.90625 37.59375 
L 28.90625 57.625 
Q 23.25 56.984375 20.265625 54.390625 
Q 17.28125 51.8125 17.28125 47.515625 
Q 17.28125 43.3125 20.03125 40.96875 
Q 22.796875 38.625 28.90625 37.59375 
z
M 33.796875 28.21875 
L 33.796875 7.078125 
Q 39.984375 7.90625 43.140625 10.59375 
Q 46.296875 13.28125 46.296875 17.671875 
Q 46.296875 21.96875 43.28125 24.5 
Q 40.28125 27.046875 33.796875 28.21875 
z
" id="DejaVuSans-36"/>
     </defs>
     <g transform="translate(344.566875 223.113687)scale(0.1 -0.1)">
      <use xlink:href="#DejaVuSans-40"/>
      <use x="39.013672" xlink:href="#DejaVuSans-36"/>
      <use x="102.636719" xlink:href="#DejaVuSans-47"/>
      <use x="136.328125" xlink:href="#DejaVuSans-104"/>
      <use x="199.707031" xlink:href="#DejaVuSans-111"/>
      <use x="260.888672" xlink:href="#DejaVuSans-117"/>
      <use x="324.267578" xlink:href="#DejaVuSans-115"/>
      <use x="376.367188" xlink:href="#DejaVuSans-101"/>
      <use x="437.890625" xlink:href="#DejaVuSans-45"/>
      <use x="472.224609" xlink:href="#DejaVuSans-121"/>
      <use x="531.404297" xlink:href="#DejaVuSans-114"/>
      <use x="572.517578" xlink:href="#DejaVuSans-41"/>
     </g>
    </g>
    <g id="line2d_12"/>
    <g id="line2d_13">
     <defs>
      <path d="M 0 3 
C 0.795609 3 1.55874 2.683901 2.12132 2.12132 
C 2.683901 1.55874 3 0.795609 3 0 
C 3 -0.795609 2.683901 -1.55874 2.12132 -2.12132 
C 1.55874 -2.683901 0.795609 -3 0 -3 
C -0.795609 -3 -1.55874 -2.683901 -2.12132 -2.12132 
C -2.683901 -1.55874 -3 -0.795609 -3 0 
C -3 0.795609 -2.683901 1.55874 -2.12132 2.12132 
C -1.55874 2.683901 -0.795609 3 0 3 
z
" id="m111922a34f" style="stroke:#7f2704;stroke-opacity:0.7;"/>
     </defs>
     <g>
      <use style="fill:#7f2704;fill-opacity:0.7;stroke:#7f2704;stroke-opacity:0.7;" x="363.143438" xlink:href="#m111922a34f" y="234.291812"/>
     </g>
    </g>
    <g id="text_16">
     <!-- $\mathdefault{0.0}$ -->
     <g transform="translate(381.143438 237.791812)scale(0.1 -0.1)">
      <use transform="translate(0 0.78125)" xlink:href="#DejaVuSans-48"/>
      <use transform="translate(63.623047 0.78125)" xlink:href="#DejaVuSans-46"/>
      <use transform="translate(95.410156 0.78125)" xlink:href="#DejaVuSans-48"/>
     </g>
    </g>
    <g id="line2d_14"/>
    <g id="line2d_15">
     <defs>
      <path d="M 0 3 
C 0.795609 3 1.55874 2.683901 2.12132 2.12132 
C 2.683901 1.55874 3 0.795609 3 0 
C 3 -0.795609 2.683901 -1.55874 2.12132 -2.12132 
C 1.55874 -2.683901 0.795609 -3 0 -3 
C -0.795609 -3 -1.55874 -2.683901 -2.12132 -2.12132 
C -2.683901 -1.55874 -3 -0.795609 -3 0 
C -3 0.795609 -2.683901 1.55874 -2.12132 2.12132 
C -1.55874 2.683901 -0.795609 3 0 3 
z
" id="mcf52ad1096" style="stroke:#f77c29;stroke-opacity:0.7;"/>
     </defs>
     <g>
      <use style="fill:#f77c29;fill-opacity:0.7;stroke:#f77c29;stroke-opacity:0.7;" x="363.143438" xlink:href="#mcf52ad1096" y="248.969937"/>
     </g>
    </g>
    <g id="text_17">
     <!-- $\mathdefault{0.3}$ -->
     <defs>
      <path d="M 40.578125 39.3125 
Q 47.65625 37.796875 51.625 33 
Q 55.609375 28.21875 55.609375 21.1875 
Q 55.609375 10.40625 48.1875 4.484375 
Q 40.765625 -1.421875 27.09375 -1.421875 
Q 22.515625 -1.421875 17.65625 -0.515625 
Q 12.796875 0.390625 7.625 2.203125 
L 7.625 11.71875 
Q 11.71875 9.328125 16.59375 8.109375 
Q 21.484375 6.890625 26.8125 6.890625 
Q 36.078125 6.890625 40.9375 10.546875 
Q 45.796875 14.203125 45.796875 21.1875 
Q 45.796875 27.640625 41.28125 31.265625 
Q 36.765625 34.90625 28.71875 34.90625 
L 20.21875 34.90625 
L 20.21875 43.015625 
L 29.109375 43.015625 
Q 36.375 43.015625 40.234375 45.921875 
Q 44.09375 48.828125 44.09375 54.296875 
Q 44.09375 59.90625 40.109375 62.90625 
Q 36.140625 65.921875 28.71875 65.921875 
Q 24.65625 65.921875 20.015625 65.03125 
Q 15.375 64.15625 9.8125 62.3125 
L 9.8125 71.09375 
Q 15.4375 72.65625 20.34375 73.4375 
Q 25.25 74.21875 29.59375 74.21875 
Q 40.828125 74.21875 47.359375 69.109375 
Q 53.90625 64.015625 53.90625 55.328125 
Q 53.90625 49.265625 50.4375 45.09375 
Q 46.96875 40.921875 40.578125 39.3125 
z
" id="DejaVuSans-51"/>
     </defs>
     <g transform="translate(381.143438 252.469937)scale(0.1 -0.1)">
      <use transform="translate(0 0.78125)" xlink:href="#DejaVuSans-48"/>
      <use transform="translate(63.623047 0.78125)" xlink:href="#DejaVuSans-46"/>
      <use transform="translate(95.410156 0.78125)" xlink:href="#DejaVuSans-51"/>
     </g>
    </g>
    <g id="line2d_16"/>
    <g id="line2d_17">
     <defs>
      <path d="M 0 3 
C 0.795609 3 1.55874 2.683901 2.12132 2.12132 
C 2.683901 1.55874 3 0.795609 3 0 
C 3 -0.795609 2.683901 -1.55874 2.12132 -2.12132 
C 1.55874 -2.683901 0.795609 -3 0 -3 
C -0.795609 -3 -1.55874 -2.683901 -2.12132 -2.12132 
C -2.683901 -1.55874 -3 -0.795609 -3 0 
C -3 0.795609 -2.683901 1.55874 -2.12132 2.12132 
C -1.55874 2.683901 -0.795609 3 0 3 
z
" id="m8eb9572768" style="stroke:#fee8d1;stroke-opacity:0.7;"/>
     </defs>
     <g>
      <use style="fill:#fee8d1;fill-opacity:0.7;stroke:#fee8d1;stroke-opacity:0.7;" x="363.143438" xlink:href="#m8eb9572768" y="263.648062"/>
     </g>
    </g>
    <g id="text_18">
     <!-- $\mathdefault{0.6}$ -->
     <g transform="translate(381.143438 267.148062)scale(0.1 -0.1)">
      <use transform="translate(0 0.78125)" xlink:href="#DejaVuSans-48"/>
      <use transform="translate(63.623047 0.78125)" xlink:href="#DejaVuSans-46"/>
      <use transform="translate(95.410156 0.78125)" xlink:href="#DejaVuSans-54"/>
     </g>
    </g>
    <g id="line2d_18"/>
    <g id="line2d_19">
     <defs>
      <path d="M 0 3 
C 0.795609 3 1.55874 2.683901 2.12132 2.12132 
C 2.683901 1.55874 3 0.795609 3 0 
C 3 -0.795609 2.683901 -1.55874 2.12132 -2.12132 
C 1.55874 -2.683901 0.795609 -3 0 -3 
C -0.795609 -3 -1.55874 -2.683901 -2.12132 -2.12132 
C -2.683901 -1.55874 -3 -0.795609 -3 0 
C -3 0.795609 -2.683901 1.55874 -2.12132 2.12132 
C -1.55874 2.683901 -0.795609 3 0 3 
z
" id="md29f16fd2b" style="stroke:#afd1e7;stroke-opacity:0.7;"/>
     </defs>
     <g>
      <use style="fill:#afd1e7;fill-opacity:0.7;stroke:#afd1e7;stroke-opacity:0.7;" x="363.143438" xlink:href="#md29f16fd2b" y="278.326188"/>
     </g>
    </g>
    <g id="text_19">
     <!-- $\mathdefault{0.9}$ -->
     <defs>
      <path d="M 10.984375 1.515625 
L 10.984375 10.5 
Q 14.703125 8.734375 18.5 7.8125 
Q 22.3125 6.890625 25.984375 6.890625 
Q 35.75 6.890625 40.890625 13.453125 
Q 46.046875 20.015625 46.78125 33.40625 
Q 43.953125 29.203125 39.59375 26.953125 
Q 35.25 24.703125 29.984375 24.703125 
Q 19.046875 24.703125 12.671875 31.3125 
Q 6.296875 37.9375 6.296875 49.421875 
Q 6.296875 60.640625 12.9375 67.421875 
Q 19.578125 74.21875 30.609375 74.21875 
Q 43.265625 74.21875 49.921875 64.515625 
Q 56.59375 54.828125 56.59375 36.375 
Q 56.59375 19.140625 48.40625 8.859375 
Q 40.234375 -1.421875 26.421875 -1.421875 
Q 22.703125 -1.421875 18.890625 -0.6875 
Q 15.09375 0.046875 10.984375 1.515625 
z
M 30.609375 32.421875 
Q 37.25 32.421875 41.125 36.953125 
Q 45.015625 41.5 45.015625 49.421875 
Q 45.015625 57.28125 41.125 61.84375 
Q 37.25 66.40625 30.609375 66.40625 
Q 23.96875 66.40625 20.09375 61.84375 
Q 16.21875 57.28125 16.21875 49.421875 
Q 16.21875 41.5 20.09375 36.953125 
Q 23.96875 32.421875 30.609375 32.421875 
z
" id="DejaVuSans-57"/>
     </defs>
     <g transform="translate(381.143438 281.826188)scale(0.1 -0.1)">
      <use transform="translate(0 0.78125)" xlink:href="#DejaVuSans-48"/>
      <use transform="translate(63.623047 0.78125)" xlink:href="#DejaVuSans-46"/>
      <use transform="translate(95.410156 0.78125)" xlink:href="#DejaVuSans-57"/>
     </g>
    </g>
    <g id="line2d_20"/>
    <g id="line2d_21">
     <defs>
      <path d="M 0 3 
C 0.795609 3 1.55874 2.683901 2.12132 2.12132 
C 2.683901 1.55874 3 0.795609 3 0 
C 3 -0.795609 2.683901 -1.55874 2.12132 -2.12132 
C 1.55874 -2.683901 0.795609 -3 0 -3 
C -0.795609 -3 -1.55874 -2.683901 -2.12132 -2.12132 
C -2.683901 -1.55874 -3 -0.795609 -3 0 
C -3 0.795609 -2.683901 1.55874 -2.12132 2.12132 
C -1.55874 2.683901 -0.795609 3 0 3 
z
" id="m60a2bedfb0" style="stroke:#1d6bb1;stroke-opacity:0.7;"/>
     </defs>
     <g>
      <use style="fill:#1d6bb1;fill-opacity:0.7;stroke:#1d6bb1;stroke-opacity:0.7;" x="363.143438" xlink:href="#m60a2bedfb0" y="293.004312"/>
     </g>
    </g>
    <g id="text_20">
     <!-- $\mathdefault{1.2}$ -->
     <g transform="translate(381.143438 296.504312)scale(0.1 -0.1)">
      <use transform="translate(0 0.78125)" xlink:href="#DejaVuSans-49"/>
      <use transform="translate(63.623047 0.78125)" xlink:href="#DejaVuSans-46"/>
      <use transform="translate(89.910156 0.78125)" xlink:href="#DejaVuSans-50"/>
     </g>
    </g>
   </g>
   <g id="legend_2">
    <g id="patch_9">
     <path d="M 342.566875 302.584 
L 407.72 302.584 
Q 409.72 302.584 409.72 300.584 
L 409.72 202.317437 
Q 409.72 200.317437 407.72 200.317437 
L 342.566875 200.317437 
Q 340.566875 200.317437 340.566875 202.317437 
L 340.566875 300.584 
Q 340.566875 302.584 342.566875 302.584 
z
" style="fill:#ffffff;opacity:0.8;stroke:#cccccc;stroke-linejoin:miter;"/>
    </g>
    <g id="text_21">
     <!-- LCC -->
     <g transform="translate(344.566875 211.915875)scale(0.1 -0.1)">
      <use xlink:href="#DejaVuSans-76"/>
      <use x="55.712891" xlink:href="#DejaVuSans-67"/>
      <use x="125.537109" xlink:href="#DejaVuSans-67"/>
     </g>
     <!-- ($/house-yr) -->
     <g transform="translate(344.566875 223.113687)scale(0.1 -0.1)">
      <use xlink:href="#DejaVuSans-40"/>
      <use x="39.013672" xlink:href="#DejaVuSans-36"/>
      <use x="102.636719" xlink:href="#DejaVuSans-47"/>
      <use x="136.328125" xlink:href="#DejaVuSans-104"/>
      <use x="199.707031" xlink:href="#DejaVuSans-111"/>
      <use x="260.888672" xlink:href="#DejaVuSans-117"/>
      <use x="324.267578" xlink:href="#DejaVuSans-115"/>
      <use x="376.367188" xlink:href="#DejaVuSans-101"/>
      <use x="437.890625" xlink:href="#DejaVuSans-45"/>
      <use x="472.224609" xlink:href="#DejaVuSans-121"/>
      <use x="531.404297" xlink:href="#DejaVuSans-114"/>
      <use x="572.517578" xlink:href="#DejaVuSans-41"/>
     </g>
    </g>
    <g id="line2d_22"/>
    <g id="line2d_23">
     <g>
      <use style="fill:#7f2704;fill-opacity:0.7;stroke:#7f2704;stroke-opacity:0.7;" x="363.143438" xlink:href="#m111922a34f" y="234.291812"/>
     </g>
    </g>
    <g id="text_22">
     <!-- $\mathdefault{0.0}$ -->
     <g transform="translate(381.143438 237.791812)scale(0.1 -0.1)">
      <use transform="translate(0 0.78125)" xlink:href="#DejaVuSans-48"/>
      <use transform="translate(63.623047 0.78125)" xlink:href="#DejaVuSans-46"/>
      <use transform="translate(95.410156 0.78125)" xlink:href="#DejaVuSans-48"/>
     </g>
    </g>
    <g id="line2d_24"/>
    <g id="line2d_25">
     <g>
      <use style="fill:#f77c29;fill-opacity:0.7;stroke:#f77c29;stroke-opacity:0.7;" x="363.143438" xlink:href="#mcf52ad1096" y="248.969937"/>
     </g>
    </g>
    <g id="text_23">
     <!-- $\mathdefault{0.3}$ -->
     <g transform="translate(381.143438 252.469937)scale(0.1 -0.1)">
      <use transform="translate(0 0.78125)" xlink:href="#DejaVuSans-48"/>
      <use transform="translate(63.623047 0.78125)" xlink:href="#DejaVuSans-46"/>
      <use transform="translate(95.410156 0.78125)" xlink:href="#DejaVuSans-51"/>
     </g>
    </g>
    <g id="line2d_26"/>
    <g id="line2d_27">
     <g>
      <use style="fill:#fee8d1;fill-opacity:0.7;stroke:#fee8d1;stroke-opacity:0.7;" x="363.143438" xlink:href="#m8eb9572768" y="263.648062"/>
     </g>
    </g>
    <g id="text_24">
     <!-- $\mathdefault{0.6}$ -->
     <g transform="translate(381.143438 267.148062)scale(0.1 -0.1)">
      <use transform="translate(0 0.78125)" xlink:href="#DejaVuSans-48"/>
      <use transform="translate(63.623047 0.78125)" xlink:href="#DejaVuSans-46"/>
      <use transform="translate(95.410156 0.78125)" xlink:href="#DejaVuSans-54"/>
     </g>
    </g>
    <g id="line2d_28"/>
    <g id="line2d_29">
     <g>
      <use style="fill:#afd1e7;fill-opacity:0.7;stroke:#afd1e7;stroke-opacity:0.7;" x="363.143438" xlink:href="#md29f16fd2b" y="278.326188"/>
     </g>
    </g>
    <g id="text_25">
     <!-- $\mathdefault{0.9}$ -->
     <g transform="translate(381.143438 281.826188)scale(0.1 -0.1)">
      <use transform="translate(0 0.78125)" xlink:href="#DejaVuSans-48"/>
      <use transform="translate(63.623047 0.78125)" xlink:href="#DejaVuSans-46"/>
      <use transform="translate(95.410156 0.78125)" xlink:href="#DejaVuSans-57"/>
     </g>
    </g>
    <g id="line2d_30"/>
    <g id="line2d_31">
     <g>
      <use style="fill:#1d6bb1;fill-opacity:0.7;stroke:#1d6bb1;stroke-opacity:0.7;" x="363.143438" xlink:href="#m60a2bedfb0" y="293.004312"/>
     </g>
    </g>
    <g id="text_26">
     <!-- $\mathdefault{1.2}$ -->
     <g transform="translate(381.143438 296.504312)scale(0.1 -0.1)">
      <use transform="translate(0 0.78125)" xlink:href="#DejaVuSans-49"/>
      <use transform="translate(63.623047 0.78125)" xlink:href="#DejaVuSans-46"/>
      <use transform="translate(89.910156 0.78125)" xlink:href="#DejaVuSans-50"/>
     </g>
    </g>
   </g>
  </g>
 </g>
 <defs>
  <clipPath id="p8b191b2227">
   <rect height="266.112" width="357.12" x="57.6" y="41.472"/>
  </clipPath>
 </defs>
</svg>
