<?xml version="1.0" encoding="utf-8" standalone="no"?>
<!DOCTYPE svg PUBLIC "-//W3C//DTD SVG 1.1//EN"
  "http://www.w3.org/Graphics/SVG/1.1/DTD/svg11.dtd">
<!-- Created with matplotlib (https://matplotlib.org/) -->
<svg height="345.6pt" version="1.1" viewBox="0 0 460.8 345.6" width="460.8pt" xmlns="http://www.w3.org/2000/svg" xmlns:xlink="http://www.w3.org/1999/xlink">
 <defs>
  <style type="text/css">
*{stroke-linecap:butt;stroke-linejoin:round;}
  </style>
 </defs>
 <g id="figure_1">
  <g id="patch_1">
   <path d="M 0 345.6 
L 460.8 345.6 
L 460.8 0 
L 0 0 
z
" style="fill:#ffffff;"/>
  </g>
  <g id="patch_2">
   <path d="M 57.6 307.584 
L 414.72 307.584 
L 414.72 41.472 
L 57.6 41.472 
z
" style="fill:#ffffff;"/>
  </g>
  <g id="pane3d_1">
   <g id="patch_3">
    <path d="M 375.112876 254.290992 
L 285.860956 200.614983 
L 287.53718 68.736292 
L 380.581129 112.539907 
" style="fill:#f2f2f2;opacity:0.5;stroke:#f2f2f2;stroke-linejoin:miter;"/>
   </g>
  </g>
  <g id="pane3d_2">
   <g id="patch_4">
    <path d="M 112.867262 224.523314 
L 285.860956 200.614983 
L 287.53718 68.736292 
L 107.887035 88.2117 
" style="fill:#e6e6e6;opacity:0.5;stroke:#e6e6e6;stroke-linejoin:miter;"/>
   </g>
  </g>
  <g id="pane3d_3">
   <g id="patch_5">
    <path d="M 190.081955 282.683257 
L 375.112876 254.290992 
L 285.860956 200.614983 
L 112.867262 224.523314 
" style="fill:#ececec;opacity:0.5;stroke:#ececec;stroke-linejoin:miter;"/>
   </g>
  </g>
  <g id="axis3d_1">
   <g id="line2d_1">
    <path d="M 375.112876 254.290992 
L 190.081955 282.683257 
" style="fill:none;stroke:#000000;stroke-linecap:square;stroke-width:0.8;"/>
   </g>
   <g id="text_1">
    <!-- Life Cycle Cost -->
    <defs>
     <path d="M 9.8125 72.90625 
L 19.671875 72.90625 
L 19.671875 8.296875 
L 55.171875 8.296875 
L 55.171875 0 
L 9.8125 0 
z
" id="DejaVuSans-76"/>
     <path d="M 9.421875 54.6875 
L 18.40625 54.6875 
L 18.40625 0 
L 9.421875 0 
z
M 9.421875 75.984375 
L 18.40625 75.984375 
L 18.40625 64.59375 
L 9.421875 64.59375 
z
" id="DejaVuSans-105"/>
     <path d="M 37.109375 75.984375 
L 37.109375 68.5 
L 28.515625 68.5 
Q 23.6875 68.5 21.796875 66.546875 
Q 19.921875 64.59375 19.921875 59.515625 
L 19.921875 54.6875 
L 34.71875 54.6875 
L 34.71875 47.703125 
L 19.921875 47.703125 
L 19.921875 0 
L 10.890625 0 
L 10.890625 47.703125 
L 2.296875 47.703125 
L 2.296875 54.6875 
L 10.890625 54.6875 
L 10.890625 58.5 
Q 10.890625 67.625 15.140625 71.796875 
Q 19.390625 75.984375 28.609375 75.984375 
z
" id="DejaVuSans-102"/>
     <path d="M 56.203125 29.59375 
L 56.203125 25.203125 
L 14.890625 25.203125 
Q 15.484375 15.921875 20.484375 11.0625 
Q 25.484375 6.203125 34.421875 6.203125 
Q 39.59375 6.203125 44.453125 7.46875 
Q 49.3125 8.734375 54.109375 11.28125 
L 54.109375 2.78125 
Q 49.265625 0.734375 44.1875 -0.34375 
Q 39.109375 -1.421875 33.890625 -1.421875 
Q 20.796875 -1.421875 13.15625 6.1875 
Q 5.515625 13.8125 5.515625 26.8125 
Q 5.515625 40.234375 12.765625 48.109375 
Q 20.015625 56 32.328125 56 
Q 43.359375 56 49.78125 48.890625 
Q 56.203125 41.796875 56.203125 29.59375 
z
M 47.21875 32.234375 
Q 47.125 39.59375 43.09375 43.984375 
Q 39.0625 48.390625 32.421875 48.390625 
Q 24.90625 48.390625 20.390625 44.140625 
Q 15.875 39.890625 15.1875 32.171875 
z
" id="DejaVuSans-101"/>
     <path id="DejaVuSans-32"/>
     <path d="M 64.40625 67.28125 
L 64.40625 56.890625 
Q 59.421875 61.53125 53.78125 63.8125 
Q 48.140625 66.109375 41.796875 66.109375 
Q 29.296875 66.109375 22.65625 58.46875 
Q 16.015625 50.828125 16.015625 36.375 
Q 16.015625 21.96875 22.65625 14.328125 
Q 29.296875 6.6875 41.796875 6.6875 
Q 48.140625 6.6875 53.78125 8.984375 
Q 59.421875 11.28125 64.40625 15.921875 
L 64.40625 5.609375 
Q 59.234375 2.09375 53.4375 0.328125 
Q 47.65625 -1.421875 41.21875 -1.421875 
Q 24.65625 -1.421875 15.125 8.703125 
Q 5.609375 18.84375 5.609375 36.375 
Q 5.609375 53.953125 15.125 64.078125 
Q 24.65625 74.21875 41.21875 74.21875 
Q 47.75 74.21875 53.53125 72.484375 
Q 59.328125 70.75 64.40625 67.28125 
z
" id="DejaVuSans-67"/>
     <path d="M 32.171875 -5.078125 
Q 28.375 -14.84375 24.75 -17.8125 
Q 21.140625 -20.796875 15.09375 -20.796875 
L 7.90625 -20.796875 
L 7.90625 -13.28125 
L 13.1875 -13.28125 
Q 16.890625 -13.28125 18.9375 -11.515625 
Q 21 -9.765625 23.484375 -3.21875 
L 25.09375 0.875 
L 2.984375 54.6875 
L 12.5 54.6875 
L 29.59375 11.921875 
L 46.6875 54.6875 
L 56.203125 54.6875 
z
" id="DejaVuSans-121"/>
     <path d="M 48.78125 52.59375 
L 48.78125 44.1875 
Q 44.96875 46.296875 41.140625 47.34375 
Q 37.3125 48.390625 33.40625 48.390625 
Q 24.65625 48.390625 19.8125 42.84375 
Q 14.984375 37.3125 14.984375 27.296875 
Q 14.984375 17.28125 19.8125 11.734375 
Q 24.65625 6.203125 33.40625 6.203125 
Q 37.3125 6.203125 41.140625 7.25 
Q 44.96875 8.296875 48.78125 10.40625 
L 48.78125 2.09375 
Q 45.015625 0.34375 40.984375 -0.53125 
Q 36.96875 -1.421875 32.421875 -1.421875 
Q 20.0625 -1.421875 12.78125 6.34375 
Q 5.515625 14.109375 5.515625 27.296875 
Q 5.515625 40.671875 12.859375 48.328125 
Q 20.21875 56 33.015625 56 
Q 37.15625 56 41.109375 55.140625 
Q 45.0625 54.296875 48.78125 52.59375 
z
" id="DejaVuSans-99"/>
     <path d="M 9.421875 75.984375 
L 18.40625 75.984375 
L 18.40625 0 
L 9.421875 0 
z
" id="DejaVuSans-108"/>
     <path d="M 30.609375 48.390625 
Q 23.390625 48.390625 19.1875 42.75 
Q 14.984375 37.109375 14.984375 27.296875 
Q 14.984375 17.484375 19.15625 11.84375 
Q 23.34375 6.203125 30.609375 6.203125 
Q 37.796875 6.203125 41.984375 11.859375 
Q 46.1875 17.53125 46.1875 27.296875 
Q 46.1875 37.015625 41.984375 42.703125 
Q 37.796875 48.390625 30.609375 48.390625 
z
M 30.609375 56 
Q 42.328125 56 49.015625 48.375 
Q 55.71875 40.765625 55.71875 27.296875 
Q 55.71875 13.875 49.015625 6.21875 
Q 42.328125 -1.421875 30.609375 -1.421875 
Q 18.84375 -1.421875 12.171875 6.21875 
Q 5.515625 13.875 5.515625 27.296875 
Q 5.515625 40.765625 12.171875 48.375 
Q 18.84375 56 30.609375 56 
z
" id="DejaVuSans-111"/>
     <path d="M 44.28125 53.078125 
L 44.28125 44.578125 
Q 40.484375 46.53125 36.375 47.5 
Q 32.28125 48.484375 27.875 48.484375 
Q 21.1875 48.484375 17.84375 46.4375 
Q 14.5 44.390625 14.5 40.28125 
Q 14.5 37.15625 16.890625 35.375 
Q 19.28125 33.59375 26.515625 31.984375 
L 29.59375 31.296875 
Q 39.15625 29.25 43.1875 25.515625 
Q 47.21875 21.78125 47.21875 15.09375 
Q 47.21875 7.46875 41.1875 3.015625 
Q 35.15625 -1.421875 24.609375 -1.421875 
Q 20.21875 -1.421875 15.453125 -0.5625 
Q 10.6875 0.296875 5.421875 2 
L 5.421875 11.28125 
Q 10.40625 8.6875 15.234375 7.390625 
Q 20.0625 6.109375 24.8125 6.109375 
Q 31.15625 6.109375 34.5625 8.28125 
Q 37.984375 10.453125 37.984375 14.40625 
Q 37.984375 18.0625 35.515625 20.015625 
Q 33.0625 21.96875 24.703125 23.78125 
L 21.578125 24.515625 
Q 13.234375 26.265625 9.515625 29.90625 
Q 5.8125 33.546875 5.8125 39.890625 
Q 5.8125 47.609375 11.28125 51.796875 
Q 16.75 56 26.8125 56 
Q 31.78125 56 36.171875 55.265625 
Q 40.578125 54.546875 44.28125 53.078125 
z
" id="DejaVuSans-115"/>
     <path d="M 18.3125 70.21875 
L 18.3125 54.6875 
L 36.8125 54.6875 
L 36.8125 47.703125 
L 18.3125 47.703125 
L 18.3125 18.015625 
Q 18.3125 11.328125 20.140625 9.421875 
Q 21.96875 7.515625 27.59375 7.515625 
L 36.8125 7.515625 
L 36.8125 0 
L 27.59375 0 
Q 17.1875 0 13.234375 3.875 
Q 9.28125 7.765625 9.28125 18.015625 
L 9.28125 47.703125 
L 2.6875 47.703125 
L 2.6875 54.6875 
L 9.28125 54.6875 
L 9.28125 70.21875 
z
" id="DejaVuSans-116"/>
    </defs>
    <g transform="translate(264.770529 309.433104)rotate(-8.723767)scale(0.1 -0.1)">
     <use xlink:href="#DejaVuSans-76"/>
     <use x="55.712891" xlink:href="#DejaVuSans-105"/>
     <use x="83.496094" xlink:href="#DejaVuSans-102"/>
     <use x="118.701172" xlink:href="#DejaVuSans-101"/>
     <use x="180.224609" xlink:href="#DejaVuSans-32"/>
     <use x="212.011719" xlink:href="#DejaVuSans-67"/>
     <use x="281.835938" xlink:href="#DejaVuSans-121"/>
     <use x="341.015625" xlink:href="#DejaVuSans-99"/>
     <use x="395.996094" xlink:href="#DejaVuSans-108"/>
     <use x="423.779297" xlink:href="#DejaVuSans-101"/>
     <use x="485.302734" xlink:href="#DejaVuSans-32"/>
     <use x="517.089844" xlink:href="#DejaVuSans-67"/>
     <use x="586.914062" xlink:href="#DejaVuSans-111"/>
     <use x="648.095703" xlink:href="#DejaVuSans-115"/>
     <use x="700.195312" xlink:href="#DejaVuSans-116"/>
    </g>
    <!--  ($/house-yr) -->
    <defs>
     <path d="M 31 75.875 
Q 24.46875 64.65625 21.28125 53.65625 
Q 18.109375 42.671875 18.109375 31.390625 
Q 18.109375 20.125 21.3125 9.0625 
Q 24.515625 -2 31 -13.1875 
L 23.1875 -13.1875 
Q 15.875 -1.703125 12.234375 9.375 
Q 8.59375 20.453125 8.59375 31.390625 
Q 8.59375 42.28125 12.203125 53.3125 
Q 15.828125 64.359375 23.1875 75.875 
z
" id="DejaVuSans-40"/>
     <path d="M 33.796875 -14.703125 
L 28.90625 -14.703125 
L 28.859375 0 
Q 23.734375 0.09375 18.609375 1.1875 
Q 13.484375 2.296875 8.296875 4.5 
L 8.296875 13.28125 
Q 13.28125 10.15625 18.375 8.5625 
Q 23.484375 6.984375 28.90625 6.9375 
L 28.90625 29.203125 
Q 18.109375 30.953125 13.203125 35.15625 
Q 8.296875 39.359375 8.296875 46.6875 
Q 8.296875 54.640625 13.625 59.21875 
Q 18.953125 63.8125 28.90625 64.5 
L 28.90625 75.984375 
L 33.796875 75.984375 
L 33.796875 64.65625 
Q 38.328125 64.453125 42.578125 63.6875 
Q 46.828125 62.9375 50.875 61.625 
L 50.875 53.078125 
Q 46.828125 55.125 42.546875 56.25 
Q 38.28125 57.375 33.796875 57.5625 
L 33.796875 36.71875 
Q 44.875 35.015625 50.09375 30.609375 
Q 55.328125 26.21875 55.328125 18.609375 
Q 55.328125 10.359375 49.78125 5.59375 
Q 44.234375 0.828125 33.796875 0.09375 
z
M 28.90625 37.59375 
L 28.90625 57.625 
Q 23.25 56.984375 20.265625 54.390625 
Q 17.28125 51.8125 17.28125 47.515625 
Q 17.28125 43.3125 20.03125 40.96875 
Q 22.796875 38.625 28.90625 37.59375 
z
M 33.796875 28.21875 
L 33.796875 7.078125 
Q 39.984375 7.90625 43.140625 10.59375 
Q 46.296875 13.28125 46.296875 17.671875 
Q 46.296875 21.96875 43.28125 24.5 
Q 40.28125 27.046875 33.796875 28.21875 
z
" id="DejaVuSans-36"/>
     <path d="M 25.390625 72.90625 
L 33.6875 72.90625 
L 8.296875 -9.28125 
L 0 -9.28125 
z
" id="DejaVuSans-47"/>
     <path d="M 54.890625 33.015625 
L 54.890625 0 
L 45.90625 0 
L 45.90625 32.71875 
Q 45.90625 40.484375 42.875 44.328125 
Q 39.84375 48.1875 33.796875 48.1875 
Q 26.515625 48.1875 22.3125 43.546875 
Q 18.109375 38.921875 18.109375 30.90625 
L 18.109375 0 
L 9.078125 0 
L 9.078125 75.984375 
L 18.109375 75.984375 
L 18.109375 46.1875 
Q 21.34375 51.125 25.703125 53.5625 
Q 30.078125 56 35.796875 56 
Q 45.21875 56 50.046875 50.171875 
Q 54.890625 44.34375 54.890625 33.015625 
z
" id="DejaVuSans-104"/>
     <path d="M 8.5 21.578125 
L 8.5 54.6875 
L 17.484375 54.6875 
L 17.484375 21.921875 
Q 17.484375 14.15625 20.5 10.265625 
Q 23.53125 6.390625 29.59375 6.390625 
Q 36.859375 6.390625 41.078125 11.03125 
Q 45.3125 15.671875 45.3125 23.6875 
L 45.3125 54.6875 
L 54.296875 54.6875 
L 54.296875 0 
L 45.3125 0 
L 45.3125 8.40625 
Q 42.046875 3.421875 37.71875 1 
Q 33.40625 -1.421875 27.6875 -1.421875 
Q 18.265625 -1.421875 13.375 4.4375 
Q 8.5 10.296875 8.5 21.578125 
z
M 31.109375 56 
z
" id="DejaVuSans-117"/>
     <path d="M 4.890625 31.390625 
L 31.203125 31.390625 
L 31.203125 23.390625 
L 4.890625 23.390625 
z
" id="DejaVuSans-45"/>
     <path d="M 41.109375 46.296875 
Q 39.59375 47.171875 37.8125 47.578125 
Q 36.03125 48 33.890625 48 
Q 26.265625 48 22.1875 43.046875 
Q 18.109375 38.09375 18.109375 28.8125 
L 18.109375 0 
L 9.078125 0 
L 9.078125 54.6875 
L 18.109375 54.6875 
L 18.109375 46.1875 
Q 20.953125 51.171875 25.484375 53.578125 
Q 30.03125 56 36.53125 56 
Q 37.453125 56 38.578125 55.875 
Q 39.703125 55.765625 41.0625 55.515625 
z
" id="DejaVuSans-114"/>
     <path d="M 8.015625 75.875 
L 15.828125 75.875 
Q 23.140625 64.359375 26.78125 53.3125 
Q 30.421875 42.28125 30.421875 31.390625 
Q 30.421875 20.453125 26.78125 9.375 
Q 23.140625 -1.703125 15.828125 -13.1875 
L 8.015625 -13.1875 
Q 14.5 -2 17.703125 9.0625 
Q 20.90625 20.125 20.90625 31.390625 
Q 20.90625 42.671875 17.703125 53.65625 
Q 14.5 64.65625 8.015625 75.875 
z
" id="DejaVuSans-41"/>
    </defs>
    <g transform="translate(271.218785 319.77252)rotate(-8.723767)scale(0.1 -0.1)">
     <use xlink:href="#DejaVuSans-32"/>
     <use x="31.787109" xlink:href="#DejaVuSans-40"/>
     <use x="70.800781" xlink:href="#DejaVuSans-36"/>
     <use x="134.423828" xlink:href="#DejaVuSans-47"/>
     <use x="168.115234" xlink:href="#DejaVuSans-104"/>
     <use x="231.494141" xlink:href="#DejaVuSans-111"/>
     <use x="292.675781" xlink:href="#DejaVuSans-117"/>
     <use x="356.054688" xlink:href="#DejaVuSans-115"/>
     <use x="408.154297" xlink:href="#DejaVuSans-101"/>
     <use x="469.677734" xlink:href="#DejaVuSans-45"/>
     <use x="504.011719" xlink:href="#DejaVuSans-121"/>
     <use x="563.191406" xlink:href="#DejaVuSans-114"/>
     <use x="604.304688" xlink:href="#DejaVuSans-41"/>
    </g>
   </g>
   <g id="Line3DCollection_1">
    <path d="M 223.672834 277.528869 
L 144.184422 220.195173 
L 140.448203 84.681828 
" style="fill:none;stroke:#b0b0b0;stroke-width:0.8;"/>
    <path d="M 254.483542 272.801087 
L 172.944023 216.220496 
L 170.335022 81.441875 
" style="fill:none;stroke:#b0b0b0;stroke-width:0.8;"/>
    <path d="M 284.87355 268.137861 
L 201.343256 212.295623 
L 199.833082 78.244066 
" style="fill:none;stroke:#b0b0b0;stroke-width:0.8;"/>
    <path d="M 314.851415 263.537876 
L 229.388852 208.419625 
L 228.949919 75.087585 
" style="fill:none;stroke:#b0b0b0;stroke-width:0.8;"/>
    <path d="M 344.425464 258.999854 
L 257.087374 204.591592 
L 257.692876 71.971636 
" style="fill:none;stroke:#b0b0b0;stroke-width:0.8;"/>
   </g>
   <g id="xtick_1">
    <g id="line2d_2">
     <path d="M 222.9796 277.02885 
L 225.062334 278.531092 
" style="fill:none;stroke:#000000;stroke-linecap:square;stroke-width:0.8;"/>
    </g>
    <g id="text_2">
     <!-- 0.5 -->
     <defs>
      <path d="M 31.78125 66.40625 
Q 24.171875 66.40625 20.328125 58.90625 
Q 16.5 51.421875 16.5 36.375 
Q 16.5 21.390625 20.328125 13.890625 
Q 24.171875 6.390625 31.78125 6.390625 
Q 39.453125 6.390625 43.28125 13.890625 
Q 47.125 21.390625 47.125 36.375 
Q 47.125 51.421875 43.28125 58.90625 
Q 39.453125 66.40625 31.78125 66.40625 
z
M 31.78125 74.21875 
Q 44.046875 74.21875 50.515625 64.515625 
Q 56.984375 54.828125 56.984375 36.375 
Q 56.984375 17.96875 50.515625 8.265625 
Q 44.046875 -1.421875 31.78125 -1.421875 
Q 19.53125 -1.421875 13.0625 8.265625 
Q 6.59375 17.96875 6.59375 36.375 
Q 6.59375 54.828125 13.0625 64.515625 
Q 19.53125 74.21875 31.78125 74.21875 
z
" id="DejaVuSans-48"/>
      <path d="M 10.6875 12.40625 
L 21 12.40625 
L 21 0 
L 10.6875 0 
z
" id="DejaVuSans-46"/>
      <path d="M 10.796875 72.90625 
L 49.515625 72.90625 
L 49.515625 64.59375 
L 19.828125 64.59375 
L 19.828125 46.734375 
Q 21.96875 47.46875 24.109375 47.828125 
Q 26.265625 48.1875 28.421875 48.1875 
Q 40.625 48.1875 47.75 41.5 
Q 54.890625 34.8125 54.890625 23.390625 
Q 54.890625 11.625 47.5625 5.09375 
Q 40.234375 -1.421875 26.90625 -1.421875 
Q 22.3125 -1.421875 17.546875 -0.640625 
Q 12.796875 0.140625 7.71875 1.703125 
L 7.71875 11.625 
Q 12.109375 9.234375 16.796875 8.0625 
Q 21.484375 6.890625 26.703125 6.890625 
Q 35.15625 6.890625 40.078125 11.328125 
Q 45.015625 15.765625 45.015625 23.390625 
Q 45.015625 31 40.078125 35.4375 
Q 35.15625 39.890625 26.703125 39.890625 
Q 22.75 39.890625 18.8125 39.015625 
Q 14.890625 38.140625 10.796875 36.28125 
z
" id="DejaVuSans-53"/>
     </defs>
     <g transform="translate(221.937691 299.531912)scale(0.1 -0.1)">
      <use xlink:href="#DejaVuSans-48"/>
      <use x="63.623047" xlink:href="#DejaVuSans-46"/>
      <use x="95.410156" xlink:href="#DejaVuSans-53"/>
     </g>
    </g>
   </g>
   <g id="xtick_2">
    <g id="line2d_3">
     <path d="M 253.772824 272.307917 
L 255.908065 273.78957 
" style="fill:none;stroke:#000000;stroke-linecap:square;stroke-width:0.8;"/>
    </g>
    <g id="text_3">
     <!-- 1.0 -->
     <defs>
      <path d="M 12.40625 8.296875 
L 28.515625 8.296875 
L 28.515625 63.921875 
L 10.984375 60.40625 
L 10.984375 69.390625 
L 28.421875 72.90625 
L 38.28125 72.90625 
L 38.28125 8.296875 
L 54.390625 8.296875 
L 54.390625 0 
L 12.40625 0 
z
" id="DejaVuSans-49"/>
     </defs>
     <g transform="translate(252.81518 294.687932)scale(0.1 -0.1)">
      <use xlink:href="#DejaVuSans-49"/>
      <use x="63.623047" xlink:href="#DejaVuSans-46"/>
      <use x="95.410156" xlink:href="#DejaVuSans-48"/>
     </g>
    </g>
   </g>
   <g id="xtick_3">
    <g id="line2d_4">
     <path d="M 284.145887 267.651399 
L 286.332013 269.112882 
" style="fill:none;stroke:#000000;stroke-linecap:square;stroke-width:0.8;"/>
    </g>
    <g id="text_4">
     <!-- 1.5 -->
     <g transform="translate(283.269567 289.910326)scale(0.1 -0.1)">
      <use xlink:href="#DejaVuSans-49"/>
      <use x="63.623047" xlink:href="#DejaVuSans-46"/>
      <use x="95.410156" xlink:href="#DejaVuSans-53"/>
     </g>
    </g>
   </g>
   <g id="xtick_4">
    <g id="line2d_5">
     <path d="M 314.107331 263.057986 
L 316.342768 264.499709 
" style="fill:none;stroke:#000000;stroke-linecap:square;stroke-width:0.8;"/>
    </g>
    <g id="text_5">
     <!-- 2.0 -->
     <defs>
      <path d="M 19.1875 8.296875 
L 53.609375 8.296875 
L 53.609375 0 
L 7.328125 0 
L 7.328125 8.296875 
Q 12.9375 14.109375 22.625 23.890625 
Q 32.328125 33.6875 34.8125 36.53125 
Q 39.546875 41.84375 41.421875 45.53125 
Q 43.3125 49.21875 43.3125 52.78125 
Q 43.3125 58.59375 39.234375 62.25 
Q 35.15625 65.921875 28.609375 65.921875 
Q 23.96875 65.921875 18.8125 64.3125 
Q 13.671875 62.703125 7.8125 59.421875 
L 7.8125 69.390625 
Q 13.765625 71.78125 18.9375 73 
Q 24.125 74.21875 28.421875 74.21875 
Q 39.75 74.21875 46.484375 68.546875 
Q 53.21875 62.890625 53.21875 53.421875 
Q 53.21875 48.921875 51.53125 44.890625 
Q 49.859375 40.875 45.40625 35.40625 
Q 44.1875 33.984375 37.640625 27.21875 
Q 31.109375 20.453125 19.1875 8.296875 
z
" id="DejaVuSans-50"/>
     </defs>
     <g transform="translate(313.309488 285.197741)scale(0.1 -0.1)">
      <use xlink:href="#DejaVuSans-50"/>
      <use x="63.623047" xlink:href="#DejaVuSans-46"/>
      <use x="95.410156" xlink:href="#DejaVuSans-48"/>
     </g>
    </g>
   </g>
   <g id="xtick_5">
    <g id="line2d_6">
     <path d="M 343.665467 258.526405 
L 345.948692 259.948766 
" style="fill:none;stroke:#000000;stroke-linecap:square;stroke-width:0.8;"/>
    </g>
    <g id="text_6">
     <!-- 2.5 -->
     <g transform="translate(342.943346 280.548858)scale(0.1 -0.1)">
      <use xlink:href="#DejaVuSans-50"/>
      <use x="63.623047" xlink:href="#DejaVuSans-46"/>
      <use x="95.410156" xlink:href="#DejaVuSans-53"/>
     </g>
    </g>
   </g>
  </g>
  <g id="axis3d_2">
   <g id="line2d_7">
    <path d="M 112.867262 224.523314 
L 190.081955 282.683257 
" style="fill:none;stroke:#000000;stroke-linecap:square;stroke-width:0.8;"/>
   </g>
   <g id="text_7">
    <!-- Global Warming Potential -->
    <defs>
     <path d="M 59.515625 10.40625 
L 59.515625 29.984375 
L 43.40625 29.984375 
L 43.40625 38.09375 
L 69.28125 38.09375 
L 69.28125 6.78125 
Q 63.578125 2.734375 56.6875 0.65625 
Q 49.8125 -1.421875 42 -1.421875 
Q 24.90625 -1.421875 15.25 8.5625 
Q 5.609375 18.5625 5.609375 36.375 
Q 5.609375 54.25 15.25 64.234375 
Q 24.90625 74.21875 42 74.21875 
Q 49.125 74.21875 55.546875 72.453125 
Q 61.96875 70.703125 67.390625 67.28125 
L 67.390625 56.78125 
Q 61.921875 61.421875 55.765625 63.765625 
Q 49.609375 66.109375 42.828125 66.109375 
Q 29.4375 66.109375 22.71875 58.640625 
Q 16.015625 51.171875 16.015625 36.375 
Q 16.015625 21.625 22.71875 14.15625 
Q 29.4375 6.6875 42.828125 6.6875 
Q 48.046875 6.6875 52.140625 7.59375 
Q 56.25 8.5 59.515625 10.40625 
z
" id="DejaVuSans-71"/>
     <path d="M 48.6875 27.296875 
Q 48.6875 37.203125 44.609375 42.84375 
Q 40.53125 48.484375 33.40625 48.484375 
Q 26.265625 48.484375 22.1875 42.84375 
Q 18.109375 37.203125 18.109375 27.296875 
Q 18.109375 17.390625 22.1875 11.75 
Q 26.265625 6.109375 33.40625 6.109375 
Q 40.53125 6.109375 44.609375 11.75 
Q 48.6875 17.390625 48.6875 27.296875 
z
M 18.109375 46.390625 
Q 20.953125 51.265625 25.265625 53.625 
Q 29.59375 56 35.59375 56 
Q 45.5625 56 51.78125 48.09375 
Q 58.015625 40.1875 58.015625 27.296875 
Q 58.015625 14.40625 51.78125 6.484375 
Q 45.5625 -1.421875 35.59375 -1.421875 
Q 29.59375 -1.421875 25.265625 0.953125 
Q 20.953125 3.328125 18.109375 8.203125 
L 18.109375 0 
L 9.078125 0 
L 9.078125 75.984375 
L 18.109375 75.984375 
z
" id="DejaVuSans-98"/>
     <path d="M 34.28125 27.484375 
Q 23.390625 27.484375 19.1875 25 
Q 14.984375 22.515625 14.984375 16.5 
Q 14.984375 11.71875 18.140625 8.90625 
Q 21.296875 6.109375 26.703125 6.109375 
Q 34.1875 6.109375 38.703125 11.40625 
Q 43.21875 16.703125 43.21875 25.484375 
L 43.21875 27.484375 
z
M 52.203125 31.203125 
L 52.203125 0 
L 43.21875 0 
L 43.21875 8.296875 
Q 40.140625 3.328125 35.546875 0.953125 
Q 30.953125 -1.421875 24.3125 -1.421875 
Q 15.921875 -1.421875 10.953125 3.296875 
Q 6 8.015625 6 15.921875 
Q 6 25.140625 12.171875 29.828125 
Q 18.359375 34.515625 30.609375 34.515625 
L 43.21875 34.515625 
L 43.21875 35.40625 
Q 43.21875 41.609375 39.140625 45 
Q 35.0625 48.390625 27.6875 48.390625 
Q 23 48.390625 18.546875 47.265625 
Q 14.109375 46.140625 10.015625 43.890625 
L 10.015625 52.203125 
Q 14.9375 54.109375 19.578125 55.046875 
Q 24.21875 56 28.609375 56 
Q 40.484375 56 46.34375 49.84375 
Q 52.203125 43.703125 52.203125 31.203125 
z
" id="DejaVuSans-97"/>
     <path d="M 3.328125 72.90625 
L 13.28125 72.90625 
L 28.609375 11.28125 
L 43.890625 72.90625 
L 54.984375 72.90625 
L 70.3125 11.28125 
L 85.59375 72.90625 
L 95.609375 72.90625 
L 77.296875 0 
L 64.890625 0 
L 49.515625 63.28125 
L 33.984375 0 
L 21.578125 0 
z
" id="DejaVuSans-87"/>
     <path d="M 52 44.1875 
Q 55.375 50.25 60.0625 53.125 
Q 64.75 56 71.09375 56 
Q 79.640625 56 84.28125 50.015625 
Q 88.921875 44.046875 88.921875 33.015625 
L 88.921875 0 
L 79.890625 0 
L 79.890625 32.71875 
Q 79.890625 40.578125 77.09375 44.375 
Q 74.3125 48.1875 68.609375 48.1875 
Q 61.625 48.1875 57.5625 43.546875 
Q 53.515625 38.921875 53.515625 30.90625 
L 53.515625 0 
L 44.484375 0 
L 44.484375 32.71875 
Q 44.484375 40.625 41.703125 44.40625 
Q 38.921875 48.1875 33.109375 48.1875 
Q 26.21875 48.1875 22.15625 43.53125 
Q 18.109375 38.875 18.109375 30.90625 
L 18.109375 0 
L 9.078125 0 
L 9.078125 54.6875 
L 18.109375 54.6875 
L 18.109375 46.1875 
Q 21.1875 51.21875 25.484375 53.609375 
Q 29.78125 56 35.6875 56 
Q 41.65625 56 45.828125 52.96875 
Q 50 49.953125 52 44.1875 
z
" id="DejaVuSans-109"/>
     <path d="M 54.890625 33.015625 
L 54.890625 0 
L 45.90625 0 
L 45.90625 32.71875 
Q 45.90625 40.484375 42.875 44.328125 
Q 39.84375 48.1875 33.796875 48.1875 
Q 26.515625 48.1875 22.3125 43.546875 
Q 18.109375 38.921875 18.109375 30.90625 
L 18.109375 0 
L 9.078125 0 
L 9.078125 54.6875 
L 18.109375 54.6875 
L 18.109375 46.1875 
Q 21.34375 51.125 25.703125 53.5625 
Q 30.078125 56 35.796875 56 
Q 45.21875 56 50.046875 50.171875 
Q 54.890625 44.34375 54.890625 33.015625 
z
" id="DejaVuSans-110"/>
     <path d="M 45.40625 27.984375 
Q 45.40625 37.75 41.375 43.109375 
Q 37.359375 48.484375 30.078125 48.484375 
Q 22.859375 48.484375 18.828125 43.109375 
Q 14.796875 37.75 14.796875 27.984375 
Q 14.796875 18.265625 18.828125 12.890625 
Q 22.859375 7.515625 30.078125 7.515625 
Q 37.359375 7.515625 41.375 12.890625 
Q 45.40625 18.265625 45.40625 27.984375 
z
M 54.390625 6.78125 
Q 54.390625 -7.171875 48.1875 -13.984375 
Q 42 -20.796875 29.203125 -20.796875 
Q 24.46875 -20.796875 20.265625 -20.09375 
Q 16.0625 -19.390625 12.109375 -17.921875 
L 12.109375 -9.1875 
Q 16.0625 -11.328125 19.921875 -12.34375 
Q 23.78125 -13.375 27.78125 -13.375 
Q 36.625 -13.375 41.015625 -8.765625 
Q 45.40625 -4.15625 45.40625 5.171875 
L 45.40625 9.625 
Q 42.625 4.78125 38.28125 2.390625 
Q 33.9375 0 27.875 0 
Q 17.828125 0 11.671875 7.65625 
Q 5.515625 15.328125 5.515625 27.984375 
Q 5.515625 40.671875 11.671875 48.328125 
Q 17.828125 56 27.875 56 
Q 33.9375 56 38.28125 53.609375 
Q 42.625 51.21875 45.40625 46.390625 
L 45.40625 54.6875 
L 54.390625 54.6875 
z
" id="DejaVuSans-103"/>
     <path d="M 19.671875 64.796875 
L 19.671875 37.40625 
L 32.078125 37.40625 
Q 38.96875 37.40625 42.71875 40.96875 
Q 46.484375 44.53125 46.484375 51.125 
Q 46.484375 57.671875 42.71875 61.234375 
Q 38.96875 64.796875 32.078125 64.796875 
z
M 9.8125 72.90625 
L 32.078125 72.90625 
Q 44.34375 72.90625 50.609375 67.359375 
Q 56.890625 61.8125 56.890625 51.125 
Q 56.890625 40.328125 50.609375 34.8125 
Q 44.34375 29.296875 32.078125 29.296875 
L 19.671875 29.296875 
L 19.671875 0 
L 9.8125 0 
z
" id="DejaVuSans-80"/>
    </defs>
    <g transform="translate(66.056042 243.117305)rotate(-323.012071)scale(0.1 -0.1)">
     <use xlink:href="#DejaVuSans-71"/>
     <use x="77.490234" xlink:href="#DejaVuSans-108"/>
     <use x="105.273438" xlink:href="#DejaVuSans-111"/>
     <use x="166.455078" xlink:href="#DejaVuSans-98"/>
     <use x="229.931641" xlink:href="#DejaVuSans-97"/>
     <use x="291.210938" xlink:href="#DejaVuSans-108"/>
     <use x="318.994141" xlink:href="#DejaVuSans-32"/>
     <use x="350.78125" xlink:href="#DejaVuSans-87"/>
     <use x="443.283203" xlink:href="#DejaVuSans-97"/>
     <use x="504.5625" xlink:href="#DejaVuSans-114"/>
     <use x="543.925781" xlink:href="#DejaVuSans-109"/>
     <use x="641.337891" xlink:href="#DejaVuSans-105"/>
     <use x="669.121094" xlink:href="#DejaVuSans-110"/>
     <use x="732.5" xlink:href="#DejaVuSans-103"/>
     <use x="795.976562" xlink:href="#DejaVuSans-32"/>
     <use x="827.763672" xlink:href="#DejaVuSans-80"/>
     <use x="884.441406" xlink:href="#DejaVuSans-111"/>
     <use x="945.623047" xlink:href="#DejaVuSans-116"/>
     <use x="984.832031" xlink:href="#DejaVuSans-101"/>
     <use x="1046.355469" xlink:href="#DejaVuSans-110"/>
     <use x="1109.734375" xlink:href="#DejaVuSans-116"/>
     <use x="1148.943359" xlink:href="#DejaVuSans-105"/>
     <use x="1176.726562" xlink:href="#DejaVuSans-97"/>
     <use x="1238.005859" xlink:href="#DejaVuSans-108"/>
    </g>
    <!--  (kgCO2eq/house-yr) -->
    <defs>
     <path d="M 9.078125 75.984375 
L 18.109375 75.984375 
L 18.109375 31.109375 
L 44.921875 54.6875 
L 56.390625 54.6875 
L 27.390625 29.109375 
L 57.625 0 
L 45.90625 0 
L 18.109375 26.703125 
L 18.109375 0 
L 9.078125 0 
z
" id="DejaVuSans-107"/>
     <path d="M 39.40625 66.21875 
Q 28.65625 66.21875 22.328125 58.203125 
Q 16.015625 50.203125 16.015625 36.375 
Q 16.015625 22.609375 22.328125 14.59375 
Q 28.65625 6.59375 39.40625 6.59375 
Q 50.140625 6.59375 56.421875 14.59375 
Q 62.703125 22.609375 62.703125 36.375 
Q 62.703125 50.203125 56.421875 58.203125 
Q 50.140625 66.21875 39.40625 66.21875 
z
M 39.40625 74.21875 
Q 54.734375 74.21875 63.90625 63.9375 
Q 73.09375 53.65625 73.09375 36.375 
Q 73.09375 19.140625 63.90625 8.859375 
Q 54.734375 -1.421875 39.40625 -1.421875 
Q 24.03125 -1.421875 14.8125 8.828125 
Q 5.609375 19.09375 5.609375 36.375 
Q 5.609375 53.65625 14.8125 63.9375 
Q 24.03125 74.21875 39.40625 74.21875 
z
" id="DejaVuSans-79"/>
     <path d="M 14.796875 27.296875 
Q 14.796875 17.390625 18.875 11.75 
Q 22.953125 6.109375 30.078125 6.109375 
Q 37.203125 6.109375 41.296875 11.75 
Q 45.40625 17.390625 45.40625 27.296875 
Q 45.40625 37.203125 41.296875 42.84375 
Q 37.203125 48.484375 30.078125 48.484375 
Q 22.953125 48.484375 18.875 42.84375 
Q 14.796875 37.203125 14.796875 27.296875 
z
M 45.40625 8.203125 
Q 42.578125 3.328125 38.25 0.953125 
Q 33.9375 -1.421875 27.875 -1.421875 
Q 17.96875 -1.421875 11.734375 6.484375 
Q 5.515625 14.40625 5.515625 27.296875 
Q 5.515625 40.1875 11.734375 48.09375 
Q 17.96875 56 27.875 56 
Q 33.9375 56 38.25 53.625 
Q 42.578125 51.265625 45.40625 46.390625 
L 45.40625 54.6875 
L 54.390625 54.6875 
L 54.390625 -20.796875 
L 45.40625 -20.796875 
z
" id="DejaVuSans-113"/>
    </defs>
    <g transform="translate(68.404836 258.905427)rotate(-323.012071)scale(0.1 -0.1)">
     <use xlink:href="#DejaVuSans-32"/>
     <use x="31.787109" xlink:href="#DejaVuSans-40"/>
     <use x="70.800781" xlink:href="#DejaVuSans-107"/>
     <use x="128.710938" xlink:href="#DejaVuSans-103"/>
     <use x="192.1875" xlink:href="#DejaVuSans-67"/>
     <use x="262.011719" xlink:href="#DejaVuSans-79"/>
     <use x="340.722656" xlink:href="#DejaVuSans-50"/>
     <use x="404.345703" xlink:href="#DejaVuSans-101"/>
     <use x="465.869141" xlink:href="#DejaVuSans-113"/>
     <use x="529.345703" xlink:href="#DejaVuSans-47"/>
     <use x="563.037109" xlink:href="#DejaVuSans-104"/>
     <use x="626.416016" xlink:href="#DejaVuSans-111"/>
     <use x="687.597656" xlink:href="#DejaVuSans-117"/>
     <use x="750.976562" xlink:href="#DejaVuSans-115"/>
     <use x="803.076172" xlink:href="#DejaVuSans-101"/>
     <use x="864.599609" xlink:href="#DejaVuSans-45"/>
     <use x="898.933594" xlink:href="#DejaVuSans-121"/>
     <use x="958.113281" xlink:href="#DejaVuSans-114"/>
     <use x="999.226562" xlink:href="#DejaVuSans-41"/>
    </g>
   </g>
   <g id="Line3DCollection_2">
    <path d="M 371.738989 108.377167 
L 366.656301 249.205217 
L 182.743052 277.155421 
" style="fill:none;stroke:#b0b0b0;stroke-width:0.8;"/>
    <path d="M 360.715737 103.187595 
L 356.106329 242.860475 
L 173.594153 270.264253 
" style="fill:none;stroke:#b0b0b0;stroke-width:0.8;"/>
    <path d="M 349.91091 98.100854 
L 345.757433 236.63666 
L 164.62687 263.509882 
" style="fill:none;stroke:#b0b0b0;stroke-width:0.8;"/>
    <path d="M 339.31808 93.113918 
L 335.603919 230.530348 
L 155.835849 256.888276 
" style="fill:none;stroke:#b0b0b0;stroke-width:0.8;"/>
    <path d="M 328.931068 88.223877 
L 325.640305 224.538241 
L 147.215943 250.395557 
" style="fill:none;stroke:#b0b0b0;stroke-width:0.8;"/>
    <path d="M 318.743933 83.427936 
L 315.861313 218.657166 
L 138.762204 244.028 
" style="fill:none;stroke:#b0b0b0;stroke-width:0.8;"/>
    <path d="M 308.750961 78.723404 
L 306.261859 212.884064 
L 130.469873 237.782019 
" style="fill:none;stroke:#b0b0b0;stroke-width:0.8;"/>
    <path d="M 298.946654 74.107691 
L 296.837043 207.21599 
L 122.334372 231.654166 
" style="fill:none;stroke:#b0b0b0;stroke-width:0.8;"/>
    <path d="M 289.325718 69.578307 
L 287.582143 201.650103 
L 114.351293 225.641121 
" style="fill:none;stroke:#b0b0b0;stroke-width:0.8;"/>
   </g>
   <g id="xtick_6">
    <g id="line2d_8">
     <path d="M 184.276199 276.922421 
L 179.673637 277.621895 
" style="fill:none;stroke:#000000;stroke-linecap:square;stroke-width:0.8;"/>
    </g>
    <g id="text_8">
     <!-- −4 -->
     <defs>
      <path d="M 10.59375 35.5 
L 73.1875 35.5 
L 73.1875 27.203125 
L 10.59375 27.203125 
z
" id="DejaVuSans-8722"/>
      <path d="M 37.796875 64.3125 
L 12.890625 25.390625 
L 37.796875 25.390625 
z
M 35.203125 72.90625 
L 47.609375 72.90625 
L 47.609375 25.390625 
L 58.015625 25.390625 
L 58.015625 17.1875 
L 47.609375 17.1875 
L 47.609375 0 
L 37.796875 0 
L 37.796875 17.1875 
L 4.890625 17.1875 
L 4.890625 26.703125 
z
" id="DejaVuSans-52"/>
     </defs>
     <g transform="translate(161.953637 296.736767)scale(0.1 -0.1)">
      <use xlink:href="#DejaVuSans-8722"/>
      <use x="83.789062" xlink:href="#DejaVuSans-52"/>
     </g>
    </g>
   </g>
   <g id="xtick_7">
    <g id="line2d_9">
     <path d="M 175.115005 270.0359 
L 170.549384 270.721418 
" style="fill:none;stroke:#000000;stroke-linecap:square;stroke-width:0.8;"/>
    </g>
    <g id="text_9">
     <!-- −3 -->
     <defs>
      <path d="M 40.578125 39.3125 
Q 47.65625 37.796875 51.625 33 
Q 55.609375 28.21875 55.609375 21.1875 
Q 55.609375 10.40625 48.1875 4.484375 
Q 40.765625 -1.421875 27.09375 -1.421875 
Q 22.515625 -1.421875 17.65625 -0.515625 
Q 12.796875 0.390625 7.625 2.203125 
L 7.625 11.71875 
Q 11.71875 9.328125 16.59375 8.109375 
Q 21.484375 6.890625 26.8125 6.890625 
Q 36.078125 6.890625 40.9375 10.546875 
Q 45.796875 14.203125 45.796875 21.1875 
Q 45.796875 27.640625 41.28125 31.265625 
Q 36.765625 34.90625 28.71875 34.90625 
L 20.21875 34.90625 
L 20.21875 43.015625 
L 29.109375 43.015625 
Q 36.375 43.015625 40.234375 45.921875 
Q 44.09375 48.828125 44.09375 54.296875 
Q 44.09375 59.90625 40.109375 62.90625 
Q 36.140625 65.921875 28.71875 65.921875 
Q 24.65625 65.921875 20.015625 65.03125 
Q 15.375 64.15625 9.8125 62.3125 
L 9.8125 71.09375 
Q 15.4375 72.65625 20.34375 73.4375 
Q 25.25 74.21875 29.59375 74.21875 
Q 40.828125 74.21875 47.359375 69.109375 
Q 53.90625 64.015625 53.90625 55.328125 
Q 53.90625 49.265625 50.4375 45.09375 
Q 46.96875 40.921875 40.578125 39.3125 
z
" id="DejaVuSans-51"/>
     </defs>
     <g transform="translate(152.938078 289.724551)scale(0.1 -0.1)">
      <use xlink:href="#DejaVuSans-8722"/>
      <use x="83.789062" xlink:href="#DejaVuSans-51"/>
     </g>
    </g>
   </g>
   <g id="xtick_8">
    <g id="line2d_10">
     <path d="M 166.135612 263.286039 
L 161.606378 263.958014 
" style="fill:none;stroke:#000000;stroke-linecap:square;stroke-width:0.8;"/>
    </g>
    <g id="text_10">
     <!-- −2 -->
     <g transform="translate(144.101512 282.851555)scale(0.1 -0.1)">
      <use xlink:href="#DejaVuSans-8722"/>
      <use x="83.789062" xlink:href="#DejaVuSans-50"/>
     </g>
    </g>
   </g>
   <g id="xtick_9">
    <g id="line2d_11">
     <path d="M 157.332659 256.66881 
L 152.839272 257.327639 
" style="fill:none;stroke:#000000;stroke-linecap:square;stroke-width:0.8;"/>
    </g>
    <g id="text_11">
     <!-- −1 -->
     <g transform="translate(135.438661 276.113671)scale(0.1 -0.1)">
      <use xlink:href="#DejaVuSans-8722"/>
      <use x="83.789062" xlink:href="#DejaVuSans-49"/>
     </g>
    </g>
   </g>
   <g id="xtick_10">
    <g id="line2d_12">
     <path d="M 148.700998 250.180342 
L 144.242927 250.826408 
" style="fill:none;stroke:#000000;stroke-linecap:square;stroke-width:0.8;"/>
    </g>
    <g id="text_12">
     <!-- 0 -->
     <g transform="translate(131.134295 269.506956)scale(0.1 -0.1)">
      <use xlink:href="#DejaVuSans-48"/>
     </g>
    </g>
   </g>
   <g id="xtick_11">
    <g id="line2d_13">
     <path d="M 140.235678 243.816913 
L 135.812402 244.450582 
" style="fill:none;stroke:#000000;stroke-linecap:square;stroke-width:0.8;"/>
    </g>
    <g id="text_13">
     <!-- 1 -->
     <g transform="translate(122.80385 263.027616)scale(0.1 -0.1)">
      <use xlink:href="#DejaVuSans-49"/>
     </g>
    </g>
   </g>
   <g id="xtick_12">
    <g id="line2d_14">
     <path d="M 131.931935 237.574943 
L 127.542945 238.196569 
" style="fill:none;stroke:#000000;stroke-linecap:square;stroke-width:0.8;"/>
    </g>
    <g id="text_14">
     <!-- 2 -->
     <g transform="translate(114.632479 256.672001)scale(0.1 -0.1)">
      <use xlink:href="#DejaVuSans-50"/>
     </g>
    </g>
   </g>
   <g id="xtick_13">
    <g id="line2d_15">
     <path d="M 123.785187 231.450987 
L 119.429984 232.06091 
" style="fill:none;stroke:#000000;stroke-linecap:square;stroke-width:0.8;"/>
    </g>
    <g id="text_15">
     <!-- 3 -->
     <g transform="translate(106.615669 250.436603)scale(0.1 -0.1)">
      <use xlink:href="#DejaVuSans-51"/>
     </g>
    </g>
   </g>
   <g id="xtick_14">
    <g id="line2d_16">
     <path d="M 115.791025 225.44173 
L 111.469118 226.040278 
" style="fill:none;stroke:#000000;stroke-linecap:square;stroke-width:0.8;"/>
    </g>
    <g id="text_16">
     <!-- 4 -->
     <g transform="translate(98.749075 244.318041)scale(0.1 -0.1)">
      <use xlink:href="#DejaVuSans-52"/>
     </g>
    </g>
   </g>
  </g>
  <g id="axis3d_3">
   <g id="line2d_17">
    <path d="M 112.867262 224.523314 
L 107.887035 88.2117 
" style="fill:none;stroke:#000000;stroke-linecap:square;stroke-width:0.8;"/>
   </g>
   <g id="text_17">
    <!-- Circularity -->
    <g transform="translate(58.418028 127.317253)rotate(-272.092405)scale(0.1 -0.1)">
     <use xlink:href="#DejaVuSans-67"/>
     <use x="69.824219" xlink:href="#DejaVuSans-105"/>
     <use x="97.607422" xlink:href="#DejaVuSans-114"/>
     <use x="136.470703" xlink:href="#DejaVuSans-99"/>
     <use x="191.451172" xlink:href="#DejaVuSans-117"/>
     <use x="254.830078" xlink:href="#DejaVuSans-108"/>
     <use x="282.613281" xlink:href="#DejaVuSans-97"/>
     <use x="343.892578" xlink:href="#DejaVuSans-114"/>
     <use x="385.005859" xlink:href="#DejaVuSans-105"/>
     <use x="412.789062" xlink:href="#DejaVuSans-116"/>
     <use x="451.998047" xlink:href="#DejaVuSans-121"/>
    </g>
   </g>
   <g id="Line3DCollection_3">
    <path d="M 112.323876 209.650537 
L 286.044085 186.207111 
L 375.708541 238.849845 
" style="fill:none;stroke:#b0b0b0;stroke-width:0.8;"/>
    <path d="M 111.721186 193.154583 
L 286.247132 170.232182 
L 376.369492 221.716302 
" style="fill:none;stroke:#b0b0b0;stroke-width:0.8;"/>
    <path d="M 111.112824 176.503358 
L 286.452017 154.112625 
L 377.03696 204.413815 
" style="fill:none;stroke:#b0b0b0;stroke-width:0.8;"/>
    <path d="M 110.498708 159.694659 
L 286.658765 137.846466 
L 377.711043 186.939873 
" style="fill:none;stroke:#b0b0b0;stroke-width:0.8;"/>
    <path d="M 109.878757 142.726243 
L 286.867403 121.431697 
L 378.391838 169.291916 
" style="fill:none;stroke:#b0b0b0;stroke-width:0.8;"/>
    <path d="M 109.252886 125.595821 
L 287.077955 104.866271 
L 379.079448 151.467329 
" style="fill:none;stroke:#b0b0b0;stroke-width:0.8;"/>
    <path d="M 108.621012 108.301063 
L 287.290449 88.148106 
L 379.773973 133.46345 
" style="fill:none;stroke:#b0b0b0;stroke-width:0.8;"/>
   </g>
   <g id="xtick_15">
    <g id="line2d_18">
     <path d="M 113.767809 209.455679 
L 109.433285 210.04062 
" style="fill:none;stroke:#000000;stroke-linecap:square;stroke-width:0.8;"/>
    </g>
    <g id="text_18">
     <!-- 0.25 -->
     <g transform="translate(83.424731 215.279366)scale(0.1 -0.1)">
      <use xlink:href="#DejaVuSans-48"/>
      <use x="63.623047" xlink:href="#DejaVuSans-46"/>
      <use x="95.410156" xlink:href="#DejaVuSans-50"/>
      <use x="159.033203" xlink:href="#DejaVuSans-53"/>
     </g>
    </g>
   </g>
   <g id="xtick_16">
    <g id="line2d_19">
     <path d="M 113.172071 192.964022 
L 108.816665 193.536065 
" style="fill:none;stroke:#000000;stroke-linecap:square;stroke-width:0.8;"/>
    </g>
    <g id="text_19">
     <!-- 0.50 -->
     <g transform="translate(82.741008 198.826874)scale(0.1 -0.1)">
      <use xlink:href="#DejaVuSans-48"/>
      <use x="63.623047" xlink:href="#DejaVuSans-46"/>
      <use x="95.410156" xlink:href="#DejaVuSans-53"/>
      <use x="159.033203" xlink:href="#DejaVuSans-48"/>
     </g>
    </g>
   </g>
   <g id="xtick_17">
    <g id="line2d_20">
     <path d="M 112.570728 176.317184 
L 108.194238 176.87606 
" style="fill:none;stroke:#000000;stroke-linecap:square;stroke-width:0.8;"/>
    </g>
    <g id="text_20">
     <!-- 0.75 -->
     <defs>
      <path d="M 8.203125 72.90625 
L 55.078125 72.90625 
L 55.078125 68.703125 
L 28.609375 0 
L 18.3125 0 
L 43.21875 64.59375 
L 8.203125 64.59375 
z
" id="DejaVuSans-55"/>
     </defs>
     <g transform="translate(82.050871 182.220016)scale(0.1 -0.1)">
      <use xlink:href="#DejaVuSans-48"/>
      <use x="63.623047" xlink:href="#DejaVuSans-46"/>
      <use x="95.410156" xlink:href="#DejaVuSans-55"/>
      <use x="159.033203" xlink:href="#DejaVuSans-53"/>
     </g>
    </g>
   </g>
   <g id="xtick_18">
    <g id="line2d_21">
     <path d="M 111.963699 159.512964 
L 107.56592 160.058397 
" style="fill:none;stroke:#000000;stroke-linecap:square;stroke-width:0.8;"/>
    </g>
    <g id="text_21">
     <!-- 1.00 -->
     <g transform="translate(81.354227 165.45661)scale(0.1 -0.1)">
      <use xlink:href="#DejaVuSans-49"/>
      <use x="63.623047" xlink:href="#DejaVuSans-46"/>
      <use x="95.410156" xlink:href="#DejaVuSans-48"/>
      <use x="159.033203" xlink:href="#DejaVuSans-48"/>
     </g>
    </g>
   </g>
   <g id="xtick_19">
    <g id="line2d_22">
     <path d="M 111.350905 142.54912 
L 106.931629 143.080829 
" style="fill:none;stroke:#000000;stroke-linecap:square;stroke-width:0.8;"/>
    </g>
    <g id="text_22">
     <!-- 1.25 -->
     <g transform="translate(80.650986 148.534433)scale(0.1 -0.1)">
      <use xlink:href="#DejaVuSans-49"/>
      <use x="63.623047" xlink:href="#DejaVuSans-46"/>
      <use x="95.410156" xlink:href="#DejaVuSans-50"/>
      <use x="159.033203" xlink:href="#DejaVuSans-53"/>
     </g>
    </g>
   </g>
   <g id="xtick_20">
    <g id="line2d_23">
     <path d="M 110.732261 125.423366 
L 106.291278 125.941064 
" style="fill:none;stroke:#000000;stroke-linecap:square;stroke-width:0.8;"/>
    </g>
    <g id="text_23">
     <!-- 1.50 -->
     <g transform="translate(79.941052 131.451217)scale(0.1 -0.1)">
      <use xlink:href="#DejaVuSans-49"/>
      <use x="63.623047" xlink:href="#DejaVuSans-46"/>
      <use x="95.410156" xlink:href="#DejaVuSans-53"/>
      <use x="159.033203" xlink:href="#DejaVuSans-48"/>
     </g>
    </g>
   </g>
   <g id="xtick_21">
    <g id="line2d_24">
     <path d="M 110.107685 108.133374 
L 105.644779 108.636766 
" style="fill:none;stroke:#000000;stroke-linecap:square;stroke-width:0.8;"/>
    </g>
    <g id="text_24">
     <!-- 1.75 -->
     <g transform="translate(79.22433 114.204654)scale(0.1 -0.1)">
      <use xlink:href="#DejaVuSans-49"/>
      <use x="63.623047" xlink:href="#DejaVuSans-46"/>
      <use x="95.410156" xlink:href="#DejaVuSans-55"/>
      <use x="159.033203" xlink:href="#DejaVuSans-53"/>
     </g>
    </g>
   </g>
  </g>
  <g id="axes_1">
   <g id="Poly3DCollection_1">
    <path clip-path="url(#p89168150d2)" d="M 298.068477 220.140459 
L 314.879588 217.736201 
L 315.150005 204.878472 
L 298.278177 207.242155 
z
" style="fill:#e10000;fill-opacity:0.5;"/>
    <path clip-path="url(#p89168150d2)" d="M 298.278177 207.242155 
L 315.150005 204.878472 
L 315.42241 191.92629 
L 298.489423 194.248734 
z
" style="fill:#e10000;fill-opacity:0.5;"/>
    <path clip-path="url(#p89168150d2)" d="M 281.128146 222.563199 
L 298.068477 220.140459 
L 298.278177 207.242155 
L 281.276182 209.624074 
z
" style="fill:#e10000;fill-opacity:0.5;"/>
    <path clip-path="url(#p89168150d2)" d="M 298.489423 194.248734 
L 315.42241 191.92629 
L 315.696823 178.87861 
L 298.702232 181.15914 
z
" style="fill:#e10000;fill-opacity:0.5;"/>
    <path clip-path="url(#p89168150d2)" d="M 281.276182 209.624074 
L 298.278177 207.242155 
L 298.489423 194.248734 
L 281.425314 196.589161 
z
" style="fill:#e10000;fill-opacity:0.5;"/>
    <path clip-path="url(#p89168150d2)" d="M 264.057099 225.004633 
L 281.128146 222.563199 
L 281.276182 209.624074 
L 264.14251 212.02444 
z
" style="fill:#e10000;fill-opacity:0.5;"/>
    <path clip-path="url(#p89168150d2)" d="M 298.702232 181.15914 
L 315.696823 178.87861 
L 315.973266 165.734373 
L 298.916622 167.972303 
z
" style="fill:#e10000;fill-opacity:0.5;"/>
    <path clip-path="url(#p89168150d2)" d="M 281.425314 196.589161 
L 298.489423 194.248734 
L 298.702232 181.15914 
L 281.575554 183.457395 
z
" style="fill:#e10000;fill-opacity:0.5;"/>
    <path clip-path="url(#p89168150d2)" d="M 264.14251 212.02444 
L 281.276182 209.624074 
L 281.425314 196.589161 
L 264.228556 198.947783 
z
" style="fill:#e10000;fill-opacity:0.5;"/>
    <path clip-path="url(#p89168150d2)" d="M 246.853816 227.464978 
L 264.057099 225.004633 
L 264.14251 212.02444 
L 246.875624 214.443469 
z
" style="fill:#e10000;fill-opacity:0.5;"/>
    <path clip-path="url(#p89168150d2)" d="M 298.916622 167.972303 
L 315.973266 165.734373 
L 316.251763 152.492503 
L 299.132611 154.687134 
z
" style="fill:#e10000;fill-opacity:0.5;"/>
    <path clip-path="url(#p89168150d2)" d="M 281.575554 183.457395 
L 298.702232 181.15914 
L 298.916622 167.972303 
L 281.726915 170.227691 
z
" style="fill:#e10000;fill-opacity:0.5;"/>
    <path clip-path="url(#p89168150d2)" d="M 264.228556 198.947783 
L 281.425314 196.589161 
L 281.575554 183.457395 
L 264.315243 185.773582 
z
" style="fill:#e10000;fill-opacity:0.5;"/>
    <path clip-path="url(#p89168150d2)" d="M 246.875624 214.443469 
L 264.14251 212.02444 
L 264.228556 198.947783 
L 246.897594 201.324811 
z
" style="fill:#e10000;fill-opacity:0.5;"/>
    <path clip-path="url(#p89168150d2)" d="M 229.516756 229.944457 
L 246.853816 227.464978 
L 246.875624 214.443469 
L 229.473964 216.88138 
z
" style="fill:#e10000;fill-opacity:0.5;"/>
    <path clip-path="url(#p89168150d2)" d="M 299.132611 154.687134 
L 316.251763 152.492503 
L 316.532336 139.151908 
L 299.350217 141.302529 
z
" style="fill:#e10000;fill-opacity:0.5;"/>
    <path clip-path="url(#p89168150d2)" d="M 281.726915 170.227691 
L 298.916622 167.972303 
L 299.132611 154.687134 
L 281.879408 156.898949 
z
" style="fill:#e10000;fill-opacity:0.5;"/>
    <path clip-path="url(#p89168150d2)" d="M 264.315243 185.773582 
L 281.575554 183.457395 
L 281.726915 170.227691 
L 264.40258 172.500743 
z
" style="fill:#e10000;fill-opacity:0.5;"/>
    <path clip-path="url(#p89168150d2)" d="M 246.897594 201.324811 
L 264.228556 198.947783 
L 264.315243 185.773582 
L 246.919729 188.107913 
z
" style="fill:#e10000;fill-opacity:0.5;"/>
    <path clip-path="url(#p89168150d2)" d="M 229.473964 216.88138 
L 246.875624 214.443469 
L 246.897594 201.324811 
L 229.430853 203.720462 
z
" style="fill:#e10000;fill-opacity:0.5;"/>
    <path clip-path="url(#p89168150d2)" d="M 212.044351 232.443291 
L 229.516756 229.944457 
L 229.473964 216.88138 
L 211.935948 219.338393 
z
" style="fill:#e10000;fill-opacity:0.5;"/>
    <path clip-path="url(#p89168150d2)" d="M 299.350217 141.302529 
L 316.532336 139.151908 
L 316.815009 125.711479 
L 299.569457 127.817367 
z
" style="fill:#e10000;fill-opacity:0.5;"/>
    <path clip-path="url(#p89168150d2)" d="M 281.879408 156.898949 
L 299.132611 154.687134 
L 299.350217 141.302529 
L 282.033048 143.470053 
z
" style="fill:#e10000;fill-opacity:0.5;"/>
    <path clip-path="url(#p89168150d2)" d="M 264.40258 172.500743 
L 281.726915 170.227691 
L 281.879408 156.898949 
L 264.490573 159.128152 
z
" style="fill:#e10000;fill-opacity:0.5;"/>
    <path clip-path="url(#p89168150d2)" d="M 246.919729 188.107913 
L 264.315243 185.773582 
L 264.40258 172.500743 
L 246.942031 174.791667 
z
" style="fill:#e10000;fill-opacity:0.5;"/>
    <path clip-path="url(#p89168150d2)" d="M 229.430853 203.720462 
L 246.897594 201.324811 
L 246.919729 188.107913 
L 229.387417 190.4606 
z
" style="fill:#e10000;fill-opacity:0.5;"/>
    <path clip-path="url(#p89168150d2)" d="M 211.935948 219.338393 
L 229.473964 216.88138 
L 229.430853 203.720462 
L 211.826729 206.134956 
z
" style="fill:#e10000;fill-opacity:0.5;"/>
    <path clip-path="url(#p89168150d2)" d="M 194.435011 234.961709 
L 212.044351 232.443291 
L 211.935948 219.338393 
L 194.259964 221.814736 
z
" style="fill:#e10000;fill-opacity:0.5;"/>
    <path clip-path="url(#p89168150d2)" d="M 299.569457 127.817367 
L 316.815009 125.711479 
L 317.099806 112.170092 
L 299.790351 114.230513 
z
" style="fill:#e10000;fill-opacity:0.5;"/>
    <path clip-path="url(#p89168150d2)" d="M 282.033048 143.470053 
L 299.350217 141.302529 
L 299.569457 127.817367 
L 282.187846 129.93987 
z
" style="fill:#e10000;fill-opacity:0.5;"/>
    <path clip-path="url(#p89168150d2)" d="M 264.490573 159.128152 
L 281.879408 156.898949 
L 282.033048 143.470053 
L 264.57923 145.654681 
z
" style="fill:#e10000;fill-opacity:0.5;"/>
    <path clip-path="url(#p89168150d2)" d="M 246.942031 174.791667 
L 264.40258 172.500743 
L 264.490573 159.128152 
L 246.9645 161.374948 
z
" style="fill:#e10000;fill-opacity:0.5;"/>
    <path clip-path="url(#p89168150d2)" d="M 229.387417 190.4606 
L 246.919729 188.107913 
L 246.942031 174.791667 
L 229.343654 177.100674 
z
" style="fill:#e10000;fill-opacity:0.5;"/>
    <path clip-path="url(#p89168150d2)" d="M 211.826729 206.134956 
L 229.430853 203.720462 
L 229.387417 190.4606 
L 211.716687 192.831862 
z
" style="fill:#e10000;fill-opacity:0.5;"/>
    <path clip-path="url(#p89168150d2)" d="M 194.259964 221.814736 
L 211.935948 219.338393 
L 211.826729 206.134956 
L 194.083597 208.568515 
z
" style="fill:#e10000;fill-opacity:0.5;"/>
    <path clip-path="url(#p89168150d2)" d="M 176.687119 237.499943 
L 194.435011 234.961709 
L 194.259964 221.814736 
L 176.44438 224.310636 
z
" style="fill:#e10000;fill-opacity:0.5;"/>
    <path clip-path="url(#p89168150d2)" d="M 299.790351 114.230513 
L 317.099806 112.170092 
L 317.386749 98.526606 
L 300.012917 100.540809 
z
" style="fill:#e10000;fill-opacity:0.5;"/>
    <path clip-path="url(#p89168150d2)" d="M 282.187846 129.93987 
L 299.569457 127.817367 
L 299.790351 114.230513 
L 282.343816 116.30725 
z
" style="fill:#e10000;fill-opacity:0.5;"/>
    <path clip-path="url(#p89168150d2)" d="M 264.57923 145.654681 
L 282.033048 143.470053 
L 282.187846 129.93987 
L 264.668558 132.079185 
z
" style="fill:#e10000;fill-opacity:0.5;"/>
    <path clip-path="url(#p89168150d2)" d="M 246.9645 161.374948 
L 264.490573 159.128152 
L 264.57923 145.654681 
L 246.98714 147.856616 
z
" style="fill:#e10000;fill-opacity:0.5;"/>
    <path clip-path="url(#p89168150d2)" d="M 229.343654 177.100674 
L 246.942031 174.791667 
L 246.9645 161.374948 
L 229.299558 163.639547 
z
" style="fill:#e10000;fill-opacity:0.5;"/>
    <path clip-path="url(#p89168150d2)" d="M 211.716687 192.831862 
L 229.387417 190.4606 
L 229.343654 177.100674 
L 211.60581 179.427981 
z
" style="fill:#e10000;fill-opacity:0.5;"/>
    <path clip-path="url(#p89168150d2)" d="M 194.083597 208.568515 
L 211.826729 206.134956 
L 211.716687 192.831862 
L 193.905893 195.22192 
z
" style="fill:#e10000;fill-opacity:0.5;"/>
    <path clip-path="url(#p89168150d2)" d="M 176.44438 224.310636 
L 194.259964 221.814736 
L 194.083597 208.568515 
L 176.199802 211.021367 
z
" style="fill:#e10000;fill-opacity:0.5;"/>
    <path clip-path="url(#p89168150d2)" d="M 158.799034 240.058226 
L 176.687119 237.499943 
L 176.44438 224.310636 
L 158.487535 226.826326 
z
" style="fill:#e10000;fill-opacity:0.5;"/>
    <path clip-path="url(#p89168150d2)" d="M 282.343816 116.30725 
L 299.790351 114.230513 
L 300.012917 100.540809 
L 282.500971 102.571025 
z
" style="fill:#e10000;fill-opacity:0.5;"/>
    <path clip-path="url(#p89168150d2)" d="M 264.668558 132.079185 
L 282.187846 129.93987 
L 282.343816 116.30725 
L 264.758565 118.400499 
z
" style="fill:#e10000;fill-opacity:0.5;"/>
    <path clip-path="url(#p89168150d2)" d="M 246.98714 147.856616 
L 264.57923 145.654681 
L 264.668558 132.079185 
L 247.009952 134.235512 
z
" style="fill:#e10000;fill-opacity:0.5;"/>
    <path clip-path="url(#p89168150d2)" d="M 229.299558 163.639547 
L 246.9645 161.374948 
L 246.98714 147.856616 
L 229.255128 150.076065 
z
" style="fill:#e10000;fill-opacity:0.5;"/>
    <path clip-path="url(#p89168150d2)" d="M 211.60581 179.427981 
L 229.343654 177.100674 
L 229.299558 163.639547 
L 211.494091 165.922161 
z
" style="fill:#e10000;fill-opacity:0.5;"/>
    <path clip-path="url(#p89168150d2)" d="M 193.905893 195.22192 
L 211.716687 192.831862 
L 211.60581 179.427981 
L 193.726837 181.773804 
z
" style="fill:#e10000;fill-opacity:0.5;"/>
    <path clip-path="url(#p89168150d2)" d="M 176.199802 211.021367 
L 194.083597 208.568515 
L 193.905893 195.22192 
L 175.953363 197.630997 
z
" style="fill:#e10000;fill-opacity:0.5;"/>
    <path clip-path="url(#p89168150d2)" d="M 158.487535 226.826326 
L 176.44438 224.310636 
L 176.199802 211.021367 
L 158.173666 213.493742 
z
" style="fill:#e10000;fill-opacity:0.5;"/>
    <path clip-path="url(#p89168150d2)" d="M 264.758565 118.400499 
L 282.343816 116.30725 
L 282.500971 102.571025 
L 264.849259 104.617444 
z
" style="fill:#e10000;fill-opacity:0.5;"/>
    <path clip-path="url(#p89168150d2)" d="M 247.009952 134.235512 
L 264.668558 132.079185 
L 264.758565 118.400499 
L 247.032938 120.510458 
z
" style="fill:#e10000;fill-opacity:0.5;"/>
    <path clip-path="url(#p89168150d2)" d="M 229.255128 150.076065 
L 246.98714 147.856616 
L 247.009952 134.235512 
L 229.210359 136.409055 
z
" style="fill:#e10000;fill-opacity:0.5;"/>
    <path clip-path="url(#p89168150d2)" d="M 211.494091 165.922161 
L 229.299558 163.639547 
L 229.255128 150.076065 
L 211.381518 152.313237 
z
" style="fill:#e10000;fill-opacity:0.5;"/>
    <path clip-path="url(#p89168150d2)" d="M 193.726837 181.773804 
L 211.60581 179.427981 
L 211.494091 165.922161 
L 193.546414 168.223006 
z
" style="fill:#e10000;fill-opacity:0.5;"/>
    <path clip-path="url(#p89168150d2)" d="M 175.953363 197.630997 
L 193.905893 195.22192 
L 193.726837 181.773804 
L 175.705042 184.138367 
z
" style="fill:#e10000;fill-opacity:0.5;"/>
    <path clip-path="url(#p89168150d2)" d="M 158.173666 213.493742 
L 176.199802 211.021367 
L 175.953363 197.630997 
L 157.857399 200.059322 
z
" style="fill:#e10000;fill-opacity:0.5;"/>
    <path clip-path="url(#p89168150d2)" d="M 247.032938 120.510458 
L 264.758565 118.400499 
L 264.849259 104.617444 
L 247.0561 106.680262 
z
" style="fill:#e10000;fill-opacity:0.5;"/>
    <path clip-path="url(#p89168150d2)" d="M 229.210359 136.409055 
L 247.009952 134.235512 
L 247.032938 120.510458 
L 229.165246 122.637328 
z
" style="fill:#e10000;fill-opacity:0.5;"/>
    <path clip-path="url(#p89168150d2)" d="M 211.381518 152.313237 
L 229.255128 150.076065 
L 229.210359 136.409055 
L 211.268083 138.600021 
z
" style="fill:#e10000;fill-opacity:0.5;"/>
    <path clip-path="url(#p89168150d2)" d="M 193.546414 168.223006 
L 211.494091 165.922161 
L 211.381518 152.313237 
L 193.364608 154.568345 
z
" style="fill:#e10000;fill-opacity:0.5;"/>
    <path clip-path="url(#p89168150d2)" d="M 175.705042 184.138367 
L 193.726837 181.773804 
L 193.546414 168.223006 
L 175.454817 170.542301 
z
" style="fill:#e10000;fill-opacity:0.5;"/>
    <path clip-path="url(#p89168150d2)" d="M 157.857399 200.059322 
L 175.953363 197.630997 
L 175.705042 184.138367 
L 157.538707 186.521894 
z
" style="fill:#e10000;fill-opacity:0.5;"/>
    <path clip-path="url(#p89168150d2)" d="M 229.165246 122.637328 
L 247.032938 120.510458 
L 247.0561 106.680262 
L 229.119787 108.759676 
z
" style="fill:#e10000;fill-opacity:0.5;"/>
    <path clip-path="url(#p89168150d2)" d="M 211.268083 138.600021 
L 229.210359 136.409055 
L 229.165246 122.637328 
L 211.153776 124.781312 
z
" style="fill:#e10000;fill-opacity:0.5;"/>
    <path clip-path="url(#p89168150d2)" d="M 193.364608 154.568345 
L 211.381518 152.313237 
L 211.268083 138.600021 
L 193.181403 140.808621 
z
" style="fill:#e10000;fill-opacity:0.5;"/>
    <path clip-path="url(#p89168150d2)" d="M 175.454817 170.542301 
L 193.546414 168.223006 
L 193.364608 154.568345 
L 175.202667 156.841606 
z
" style="fill:#e10000;fill-opacity:0.5;"/>
    <path clip-path="url(#p89168150d2)" d="M 157.538707 186.521894 
L 175.705042 184.138367 
L 175.454817 170.542301 
L 157.217562 172.88027 
z
" style="fill:#e10000;fill-opacity:0.5;"/>
    <path clip-path="url(#p89168150d2)" d="M 211.153776 124.781312 
L 229.165246 122.637328 
L 229.119787 108.759676 
L 211.038585 110.855887 
z
" style="fill:#e10000;fill-opacity:0.5;"/>
    <path clip-path="url(#p89168150d2)" d="M 193.181403 140.808621 
L 211.268083 138.600021 
L 211.153776 124.781312 
L 192.996784 126.942618 
z
" style="fill:#e10000;fill-opacity:0.5;"/>
    <path clip-path="url(#p89168150d2)" d="M 175.202667 156.841606 
L 193.364608 154.568345 
L 193.181403 140.808621 
L 174.948568 143.035068 
z
" style="fill:#e10000;fill-opacity:0.5;"/>
    <path clip-path="url(#p89168150d2)" d="M 157.217562 172.88027 
L 175.454817 170.542301 
L 175.202667 156.841606 
L 156.893936 159.13324 
z
" style="fill:#e10000;fill-opacity:0.5;"/>
    <path clip-path="url(#p89168150d2)" d="M 192.996784 126.942618 
L 211.153776 124.781312 
L 211.038585 110.855887 
L 192.810732 112.9691 
z
" style="fill:#e10000;fill-opacity:0.5;"/>
    <path clip-path="url(#p89168150d2)" d="M 174.948568 143.035068 
L 193.181403 140.808621 
L 192.996784 126.942618 
L 174.6925 129.121457 
z
" style="fill:#e10000;fill-opacity:0.5;"/>
    <path clip-path="url(#p89168150d2)" d="M 156.893936 159.13324 
L 175.202667 156.841606 
L 174.948568 143.035068 
L 156.5678 145.27958 
z
" style="fill:#e10000;fill-opacity:0.5;"/>
    <path clip-path="url(#p89168150d2)" d="M 174.6925 129.121457 
L 192.996784 126.942618 
L 192.810732 112.9691 
L 174.434437 115.099522 
z
" style="fill:#e10000;fill-opacity:0.5;"/>
    <path clip-path="url(#p89168150d2)" d="M 156.5678 145.27958 
L 174.948568 143.035068 
L 174.6925 129.121457 
L 156.239124 131.318043 
z
" style="fill:#e10000;fill-opacity:0.5;"/>
    <path clip-path="url(#p89168150d2)" d="M 156.239124 131.318043 
L 174.6925 129.121457 
L 174.434437 115.099522 
L 155.907878 117.247365 
z
" style="fill:#e10000;fill-opacity:0.5;"/>
   </g>
   <g id="Poly3DCollection_2">
    <path clip-path="url(#p89168150d2)" d="M 144.844473 213.583819 
L 129.478637 217.825952 
L 141.607039 226.228616 
z
" style="fill:#7f2704;fill-opacity:0.95;"/>
    <path clip-path="url(#p89168150d2)" d="M 144.844473 213.583819 
L 151.171107 188.067633 
L 129.478637 217.825952 
z
" style="fill:#df5106;fill-opacity:0.95;"/>
    <path clip-path="url(#p89168150d2)" d="M 151.171107 188.067633 
L 154.526107 175.280116 
L 129.478637 217.825952 
z
" style="fill:#fda158;fill-opacity:0.95;"/>
    <path clip-path="url(#p89168150d2)" d="M 129.478637 217.825952 
L 154.526107 175.280116 
L 159.676359 162.691497 
z
" style="fill:#fdd4aa;fill-opacity:0.95;"/>
    <path clip-path="url(#p89168150d2)" d="M 141.607039 226.228616 
L 145.760347 227.265075 
L 149.611015 214.754241 
z
" style="fill:#812804;fill-opacity:0.95;"/>
    <path clip-path="url(#p89168150d2)" d="M 149.611015 214.754241 
L 144.844473 213.583819 
L 141.607039 226.228616 
z
" style="fill:#9f3303;fill-opacity:0.95;"/>
    <path clip-path="url(#p89168150d2)" d="M 144.844473 213.583819 
L 149.611015 214.754241 
L 154.849451 202.003633 
z
" style="fill:#e25508;fill-opacity:0.95;"/>
    <path clip-path="url(#p89168150d2)" d="M 144.844473 213.583819 
L 154.849451 202.003633 
L 148.055136 200.87495 
z
" style="fill:#f36e19;fill-opacity:0.95;"/>
    <path clip-path="url(#p89168150d2)" d="M 151.171107 188.067633 
L 144.844473 213.583819 
L 148.055136 200.87495 
z
" style="fill:#fc8a38;fill-opacity:0.95;"/>
    <path clip-path="url(#p89168150d2)" d="M 167.536613 217.101797 
L 149.611015 214.754241 
L 145.760347 227.265075 
z
" style="fill:#a43503;fill-opacity:0.95;"/>
    <path clip-path="url(#p89168150d2)" d="M 157.334367 189.556359 
L 148.055136 200.87495 
L 154.849451 202.003633 
z
" style="fill:#fda55e;fill-opacity:0.95;"/>
    <path clip-path="url(#p89168150d2)" d="M 159.676359 162.691497 
L 151.171107 188.067633 
L 148.055136 200.87495 
z
" style="fill:#fee6ce;fill-opacity:0.95;"/>
    <path clip-path="url(#p89168150d2)" d="M 159.676359 162.691497 
L 256.504335 143.378802 
L 129.478637 217.825952 
z
" style="fill:#ecf4fb;fill-opacity:0.95;"/>
    <path clip-path="url(#p89168150d2)" d="M 159.676359 162.691497 
L 148.055136 200.87495 
L 157.334367 189.556359 
z
" style="fill:#fee6ce;fill-opacity:0.95;"/>
    <path clip-path="url(#p89168150d2)" d="M 151.171107 188.067633 
L 159.676359 162.691497 
L 154.526107 175.280116 
z
" style="fill:#eaf3fb;fill-opacity:0.95;"/>
    <path clip-path="url(#p89168150d2)" d="M 176.490995 152.252574 
L 154.849451 202.003633 
L 149.611015 214.754241 
z
" style="fill:#fdd5ac;fill-opacity:0.95;"/>
    <path clip-path="url(#p89168150d2)" d="M 157.334367 189.556359 
L 163.221361 176.608072 
L 159.676359 162.691497 
z
" style="fill:#eaf3fb;fill-opacity:0.95;"/>
    <path clip-path="url(#p89168150d2)" d="M 167.536613 217.101797 
L 176.490995 152.252574 
L 149.611015 214.754241 
z
" style="fill:#fdc38c;fill-opacity:0.95;"/>
    <path clip-path="url(#p89168150d2)" d="M 154.849451 202.003633 
L 176.490995 152.252574 
L 157.334367 189.556359 
z
" style="fill:#fff2e6;fill-opacity:0.95;"/>
    <path clip-path="url(#p89168150d2)" d="M 159.676359 162.691497 
L 163.221361 176.608072 
L 165.537898 164.053934 
z
" style="fill:#c3daee;fill-opacity:0.95;"/>
    <path clip-path="url(#p89168150d2)" d="M 157.334367 189.556359 
L 176.490995 152.252574 
L 163.221361 176.608072 
z
" style="fill:#d8e7f5;fill-opacity:0.95;"/>
    <path clip-path="url(#p89168150d2)" d="M 176.490995 152.252574 
L 167.536613 217.101797 
L 167.569485 217.8132 
z
" style="fill:#fdc38c;fill-opacity:0.95;"/>
    <path clip-path="url(#p89168150d2)" d="M 167.569485 217.8132 
L 167.536613 217.101797 
L 197.410195 203.873449 
z
" style="fill:#ef6611;fill-opacity:0.95;"/>
    <path clip-path="url(#p89168150d2)" d="M 167.569485 217.8132 
L 172.18237 206.036329 
L 176.490995 152.252574 
z
" style="fill:#fdd7af;fill-opacity:0.95;"/>
    <path clip-path="url(#p89168150d2)" d="M 197.410195 203.873449 
L 172.18237 206.036329 
L 167.569485 217.8132 
z
" style="fill:#f77c29;fill-opacity:0.95;"/>
    <path clip-path="url(#p89168150d2)" d="M 165.537898 164.053934 
L 163.221361 176.608072 
L 176.510506 152.242275 
z
" style="fill:#a5cde3;fill-opacity:0.95;"/>
    <path clip-path="url(#p89168150d2)" d="M 176.510506 152.242275 
L 159.676359 162.691497 
L 165.537898 164.053934 
z
" style="fill:#80b9db;fill-opacity:0.95;"/>
    <path clip-path="url(#p89168150d2)" d="M 174.960861 193.487845 
L 176.490995 152.252574 
L 172.18237 206.036329 
z
" style="fill:#fff2e6;fill-opacity:0.95;"/>
    <path clip-path="url(#p89168150d2)" d="M 198.503492 233.090965 
L 197.410195 203.873449 
L 224.219954 231.173074 
z
" style="fill:#bd3e02;fill-opacity:0.95;"/>
    <path clip-path="url(#p89168150d2)" d="M 224.219954 231.173074 
L 197.410195 203.873449 
L 167.536613 217.101797 
z
" style="fill:#e15307;fill-opacity:0.95;"/>
    <path clip-path="url(#p89168150d2)" d="M 197.410195 203.873449 
L 174.960861 193.487845 
L 172.18237 206.036329 
z
" style="fill:#fdaf6d;fill-opacity:0.95;"/>
    <path clip-path="url(#p89168150d2)" d="M 176.510506 152.242275 
L 163.221361 176.608072 
L 176.490995 152.252574 
z
" style="fill:#80b9db;fill-opacity:0.95;"/>
    <path clip-path="url(#p89168150d2)" d="M 224.219954 231.173074 
L 198.722783 196.67635 
L 198.503492 233.090965 
z
" style="fill:#d74701;fill-opacity:0.95;"/>
    <path clip-path="url(#p89168150d2)" d="M 179.541036 180.643134 
L 176.490995 152.252574 
L 174.960861 193.487845 
z
" style="fill:#d8e7f5;fill-opacity:0.95;"/>
    <path clip-path="url(#p89168150d2)" d="M 198.503492 233.090965 
L 198.403776 142.152104 
L 197.410195 203.873449 
z
" style="fill:#fedcba;fill-opacity:0.95;"/>
    <path clip-path="url(#p89168150d2)" d="M 183.799888 167.773881 
L 176.490995 152.252574 
L 179.541036 180.643134 
z
" style="fill:#a5cde3;fill-opacity:0.95;"/>
    <path clip-path="url(#p89168150d2)" d="M 198.722783 196.67635 
L 198.403776 142.152104 
L 198.503492 233.090965 
z
" style="fill:#fee6ce;fill-opacity:0.95;"/>
    <path clip-path="url(#p89168150d2)" d="M 159.676359 162.691497 
L 176.510506 152.242275 
L 256.504335 143.378802 
z
" style="fill:#3d8dc3;fill-opacity:0.95;"/>
    <path clip-path="url(#p89168150d2)" d="M 224.219954 231.173074 
L 256.641561 223.873213 
L 226.811865 223.720492 
z
" style="fill:#b63c02;fill-opacity:0.95;"/>
    <path clip-path="url(#p89168150d2)" d="M 176.490995 152.252574 
L 190.29179 154.571116 
L 176.510506 152.242275 
z
" style="fill:#3d8dc3;fill-opacity:0.95;"/>
    <path clip-path="url(#p89168150d2)" d="M 198.403776 142.152104 
L 179.541036 180.643134 
L 174.960861 193.487845 
z
" style="fill:#c3daee;fill-opacity:0.95;"/>
    <path clip-path="url(#p89168150d2)" d="M 224.219954 231.173074 
L 201.68376 197.119911 
L 201.459807 184.025189 
z
" style="fill:#fdad6a;fill-opacity:0.95;"/>
    <path clip-path="url(#p89168150d2)" d="M 198.403776 142.152104 
L 174.960861 193.487845 
L 197.410195 203.873449 
z
" style="fill:#e3eef8;fill-opacity:0.95;"/>
    <path clip-path="url(#p89168150d2)" d="M 183.799888 167.773881 
L 190.29179 154.571116 
L 176.490995 152.252574 
z
" style="fill:#5da4d0;fill-opacity:0.95;"/>
    <path clip-path="url(#p89168150d2)" d="M 201.459807 184.025189 
L 198.722783 196.67635 
L 224.219954 231.173074 
z
" style="fill:#fdaf6d;fill-opacity:0.95;"/>
    <path clip-path="url(#p89168150d2)" d="M 224.219954 231.173074 
L 206.189229 171.03991 
L 201.68376 197.119911 
z
" style="fill:#fdc793;fill-opacity:0.95;"/>
    <path clip-path="url(#p89168150d2)" d="M 183.799888 167.773881 
L 179.541036 180.643134 
L 198.403776 142.152104 
z
" style="fill:#80b9db;fill-opacity:0.95;"/>
    <path clip-path="url(#p89168150d2)" d="M 226.811865 223.720492 
L 215.91592 144.870903 
L 224.219954 231.173074 
z
" style="fill:#fdc997;fill-opacity:0.95;"/>
    <path clip-path="url(#p89168150d2)" d="M 228.312769 199.139868 
L 226.811865 223.720492 
L 256.641561 223.873213 
z
" style="fill:#f4731e;fill-opacity:0.95;"/>
    <path clip-path="url(#p89168150d2)" d="M 190.29179 154.571116 
L 198.415844 142.150625 
L 176.510506 152.242275 
z
" style="fill:#2474b6;fill-opacity:0.95;"/>
    <path clip-path="url(#p89168150d2)" d="M 198.403776 142.152104 
L 190.29179 154.571116 
L 183.799888 167.773881 
z
" style="fill:#3d8dc3;fill-opacity:0.95;"/>
    <path clip-path="url(#p89168150d2)" d="M 201.68376 197.119911 
L 198.403776 142.152104 
L 201.459807 184.025189 
z
" style="fill:#c5dbef;fill-opacity:0.95;"/>
    <path clip-path="url(#p89168150d2)" d="M 201.459807 184.025189 
L 198.403776 142.152104 
L 198.722783 196.67635 
z
" style="fill:#c3daee;fill-opacity:0.95;"/>
    <path clip-path="url(#p89168150d2)" d="M 214.299161 157.574665 
L 206.189229 171.03991 
L 224.219954 231.173074 
z
" style="fill:#f5fafe;fill-opacity:0.95;"/>
    <path clip-path="url(#p89168150d2)" d="M 256.641561 223.873213 
L 230.035327 204.26698 
L 228.312769 199.139868 
z
" style="fill:#fd9f55;fill-opacity:0.95;"/>
    <path clip-path="url(#p89168150d2)" d="M 198.403776 142.152104 
L 201.68376 197.119911 
L 206.189229 171.03991 
z
" style="fill:#a7cee4;fill-opacity:0.95;"/>
    <path clip-path="url(#p89168150d2)" d="M 256.504335 143.378802 
L 176.510506 152.242275 
L 198.415844 142.150625 
z
" style="fill:#105ba4;fill-opacity:0.95;"/>
    <path clip-path="url(#p89168150d2)" d="M 215.91592 144.870903 
L 226.811865 223.720492 
L 228.312769 199.139868 
z
" style="fill:#fff2e6;fill-opacity:0.95;"/>
    <path clip-path="url(#p89168150d2)" d="M 198.415844 142.150625 
L 190.29179 154.571116 
L 198.403776 142.152104 
z
" style="fill:#105ba4;fill-opacity:0.95;"/>
    <path clip-path="url(#p89168150d2)" d="M 224.219954 231.173074 
L 215.91592 144.870903 
L 214.299161 157.574665 
z
" style="fill:#d0e2f2;fill-opacity:0.95;"/>
    <path clip-path="url(#p89168150d2)" d="M 256.641561 223.873213 
L 235.304131 173.498094 
L 230.035327 204.26698 
z
" style="fill:#fdd1a4;fill-opacity:0.95;"/>
    <path clip-path="url(#p89168150d2)" d="M 259.399199 213.713676 
L 256.641561 223.873213 
L 289.463366 216.476405 
z
" style="fill:#f4731e;fill-opacity:0.95;"/>
    <path clip-path="url(#p89168150d2)" d="M 198.403776 142.152104 
L 206.189229 171.03991 
L 198.415844 142.150625 
z
" style="fill:#2474b6;fill-opacity:0.95;"/>
    <path clip-path="url(#p89168150d2)" d="M 228.312769 199.139868 
L 230.035327 204.26698 
L 215.91592 144.870903 
z
" style="fill:#dfecf7;fill-opacity:0.95;"/>
    <path clip-path="url(#p89168150d2)" d="M 240.511196 185.195258 
L 235.304131 173.498094 
L 256.641561 223.873213 
z
" style="fill:#fee9d3;fill-opacity:0.95;"/>
    <path clip-path="url(#p89168150d2)" d="M 198.415844 142.150625 
L 206.189229 171.03991 
L 214.299161 157.574665 
z
" style="fill:#3d8dc3;fill-opacity:0.95;"/>
    <path clip-path="url(#p89168150d2)" d="M 242.967851 160.047484 
L 256.641561 223.873213 
L 259.399199 213.713676 
z
" style="fill:#fdd9b5;fill-opacity:0.95;"/>
    <path clip-path="url(#p89168150d2)" d="M 289.463366 216.476405 
L 259.813441 199.555388 
L 259.399199 213.713676 
z
" style="fill:#fda761;fill-opacity:0.95;"/>
    <path clip-path="url(#p89168150d2)" d="M 256.504335 143.378802 
L 235.304131 173.498094 
L 240.511196 185.195258 
z
" style="fill:#80b9db;fill-opacity:0.95;"/>
    <path clip-path="url(#p89168150d2)" d="M 230.035327 204.26698 
L 235.304131 173.498094 
L 215.91592 144.870903 
z
" style="fill:#b4d3e9;fill-opacity:0.95;"/>
    <path clip-path="url(#p89168150d2)" d="M 242.437861 147.576337 
L 240.511196 185.195258 
L 256.641561 223.873213 
z
" style="fill:#e7f1fa;fill-opacity:0.95;"/>
    <path clip-path="url(#p89168150d2)" d="M 214.299161 157.574665 
L 215.91592 144.870903 
L 198.415844 142.150625 
z
" style="fill:#105ba4;fill-opacity:0.95;"/>
    <path clip-path="url(#p89168150d2)" d="M 256.504335 143.378802 
L 198.415844 142.150625 
L 215.91592 144.870903 
z
" style="fill:#084184;fill-opacity:0.95;"/>
    <path clip-path="url(#p89168150d2)" d="M 259.399199 213.713676 
L 259.813441 199.555388 
L 242.967851 160.047484 
z
" style="fill:#fff4e9;fill-opacity:0.95;"/>
    <path clip-path="url(#p89168150d2)" d="M 289.463366 216.476405 
L 264.882296 188.369516 
L 259.813441 199.555388 
z
" style="fill:#fdd8b2;fill-opacity:0.95;"/>
    <path clip-path="url(#p89168150d2)" d="M 256.504335 143.378802 
L 215.91592 144.870903 
L 235.304131 173.498094 
z
" style="fill:#2474b6;fill-opacity:0.95;"/>
    <path clip-path="url(#p89168150d2)" d="M 256.504335 143.378802 
L 240.511196 185.195258 
L 242.437861 147.576337 
z
" style="fill:#3d8dc3;fill-opacity:0.95;"/>
    <path clip-path="url(#p89168150d2)" d="M 242.437861 147.576337 
L 256.641561 223.873213 
L 242.967851 160.047484 
z
" style="fill:#bed8ec;fill-opacity:0.95;"/>
    <path clip-path="url(#p89168150d2)" d="M 259.813441 199.555388 
L 264.882296 188.369516 
L 242.967851 160.047484 
z
" style="fill:#d5e5f4;fill-opacity:0.95;"/>
    <path clip-path="url(#p89168150d2)" d="M 289.463366 216.476405 
L 322.692859 208.98772 
L 290.575557 216.085789 
z
" style="fill:#fd9d52;fill-opacity:0.95;"/>
    <path clip-path="url(#p89168150d2)" d="M 289.463366 216.476405 
L 268.530906 175.467048 
L 264.882296 188.369516 
z
" style="fill:#fff1e4;fill-opacity:0.95;"/>
    <path clip-path="url(#p89168150d2)" d="M 242.437861 147.576337 
L 242.967851 160.047484 
L 256.504335 143.378802 
z
" style="fill:#105ba4;fill-opacity:0.95;"/>
    <path clip-path="url(#p89168150d2)" d="M 290.575557 216.085789 
L 279.825841 148.968213 
L 289.463366 216.476405 
z
" style="fill:#fff1e4;fill-opacity:0.95;"/>
    <path clip-path="url(#p89168150d2)" d="M 264.882296 188.369516 
L 268.530906 175.467048 
L 242.967851 160.047484 
z
" style="fill:#a5cde3;fill-opacity:0.95;"/>
    <path clip-path="url(#p89168150d2)" d="M 322.692859 208.98772 
L 291.420689 203.316724 
L 290.575557 216.085789 
z
" style="fill:#fdb87b;fill-opacity:0.95;"/>
    <path clip-path="url(#p89168150d2)" d="M 242.967851 160.047484 
L 279.825841 148.968213 
L 256.504335 143.378802 
z
" style="fill:#105ba4;fill-opacity:0.95;"/>
    <path clip-path="url(#p89168150d2)" d="M 271.275408 162.620986 
L 268.530906 175.467048 
L 289.463366 216.476405 
z
" style="fill:#d8e7f5;fill-opacity:0.95;"/>
    <path clip-path="url(#p89168150d2)" d="M 290.575557 216.085789 
L 291.420689 203.316724 
L 279.825841 148.968213 
z
" style="fill:#eaf3fb;fill-opacity:0.95;"/>
    <path clip-path="url(#p89168150d2)" d="M 322.692859 208.98772 
L 297.481303 190.49217 
L 291.420689 203.316724 
z
" style="fill:#fee3c8;fill-opacity:0.95;"/>
    <path clip-path="url(#p89168150d2)" d="M 242.967851 160.047484 
L 268.530906 175.467048 
L 271.275408 162.620986 
z
" style="fill:#5da4d0;fill-opacity:0.95;"/>
    <path clip-path="url(#p89168150d2)" d="M 289.463366 216.476405 
L 279.825841 148.968213 
L 271.275408 162.620986 
z
" style="fill:#a5cde3;fill-opacity:0.95;"/>
    <path clip-path="url(#p89168150d2)" d="M 337.831655 203.93957 
L 331.455724 206.069654 
L 334.594062 192.235205 
z
" style="fill:#fee4cb;fill-opacity:0.95;"/>
    <path clip-path="url(#p89168150d2)" d="M 291.420689 203.316724 
L 297.481303 190.49217 
L 279.825841 148.968213 
z
" style="fill:#c3daee;fill-opacity:0.95;"/>
    <path clip-path="url(#p89168150d2)" d="M 353.84041 164.513331 
L 256.504335 143.378802 
L 279.825841 148.968213 
z
" style="fill:#105ba4;fill-opacity:0.95;"/>
    <path clip-path="url(#p89168150d2)" d="M 302.805103 177.339566 
L 297.481303 190.49217 
L 322.692859 208.98772 
z
" style="fill:#eff6fc;fill-opacity:0.95;"/>
    <path clip-path="url(#p89168150d2)" d="M 279.825841 148.968213 
L 242.967851 160.047484 
L 271.275408 162.620986 
z
" style="fill:#2474b6;fill-opacity:0.95;"/>
    <path clip-path="url(#p89168150d2)" d="M 334.594062 192.235205 
L 331.455724 206.069654 
L 331.459317 197.429395 
z
" style="fill:#feecdb;fill-opacity:0.95;"/>
    <path clip-path="url(#p89168150d2)" d="M 334.594062 192.235205 
L 331.459317 197.429395 
L 322.692859 208.98772 
z
" style="fill:#feebd7;fill-opacity:0.95;"/>
    <path clip-path="url(#p89168150d2)" d="M 331.455724 206.069654 
L 337.831655 203.93957 
L 309.163572 151.41934 
z
" style="fill:#d9e8f5;fill-opacity:0.95;"/>
    <path clip-path="url(#p89168150d2)" d="M 279.825841 148.968213 
L 297.481303 190.49217 
L 302.805103 177.339566 
z
" style="fill:#80b9db;fill-opacity:0.95;"/>
    <path clip-path="url(#p89168150d2)" d="M 307.83172 164.173986 
L 302.805103 177.339566 
L 322.692859 208.98772 
z
" style="fill:#c9ddf0;fill-opacity:0.95;"/>
    <path clip-path="url(#p89168150d2)" d="M 334.594062 192.235205 
L 322.692859 208.98772 
L 345.700464 203.806132 
z
" style="fill:#fee7d0;fill-opacity:0.95;"/>
    <path clip-path="url(#p89168150d2)" d="M 309.163572 151.41934 
L 331.459317 197.429395 
L 331.455724 206.069654 
z
" style="fill:#cfe1f2;fill-opacity:0.95;"/>
    <path clip-path="url(#p89168150d2)" d="M 331.459317 197.429395 
L 309.163572 151.41934 
L 322.692859 208.98772 
z
" style="fill:#d0e2f2;fill-opacity:0.95;"/>
    <path clip-path="url(#p89168150d2)" d="M 279.825841 148.968213 
L 302.805103 177.339566 
L 307.83172 164.173986 
z
" style="fill:#3d8dc3;fill-opacity:0.95;"/>
    <path clip-path="url(#p89168150d2)" d="M 353.84041 164.513331 
L 309.163572 151.41934 
L 337.831655 203.93957 
z
" style="fill:#80b9db;fill-opacity:0.95;"/>
    <path clip-path="url(#p89168150d2)" d="M 334.594062 192.235205 
L 355.115392 153.872273 
L 337.831655 203.93957 
z
" style="fill:#c3daee;fill-opacity:0.95;"/>
    <path clip-path="url(#p89168150d2)" d="M 322.692859 208.98772 
L 309.163572 151.41934 
L 307.83172 164.173986 
z
" style="fill:#8abfdd;fill-opacity:0.95;"/>
    <path clip-path="url(#p89168150d2)" d="M 345.700464 203.806132 
L 351.670528 180.232432 
L 334.594062 192.235205 
z
" style="fill:#e4eff9;fill-opacity:0.95;"/>
    <path clip-path="url(#p89168150d2)" d="M 307.83172 164.173986 
L 309.163572 151.41934 
L 279.825841 148.968213 
z
" style="fill:#105ba4;fill-opacity:0.95;"/>
    <path clip-path="url(#p89168150d2)" d="M 353.84041 164.513331 
L 279.825841 148.968213 
L 309.163572 151.41934 
z
" style="fill:#105ba4;fill-opacity:0.95;"/>
    <path clip-path="url(#p89168150d2)" d="M 351.670528 180.232432 
L 355.115392 153.872273 
L 334.594062 192.235205 
z
" style="fill:#80b9db;fill-opacity:0.95;"/>
    <path clip-path="url(#p89168150d2)" d="M 337.831655 203.93957 
L 357.915598 118.245129 
L 353.84041 164.513331 
z
" style="fill:#2a7aba;fill-opacity:0.95;"/>
    <path clip-path="url(#p89168150d2)" d="M 357.915598 118.245129 
L 337.831655 203.93957 
L 355.115392 153.872273 
z
" style="fill:#1561a9;fill-opacity:0.95;"/>
    <path clip-path="url(#p89168150d2)" d="M 345.700464 203.806132 
L 357.915598 118.245129 
L 351.670528 180.232432 
z
" style="fill:#3d8dc3;fill-opacity:0.95;"/>
    <path clip-path="url(#p89168150d2)" d="M 355.115392 153.872273 
L 351.670528 180.232432 
L 357.915598 118.245129 
z
" style="fill:#08306b;fill-opacity:0.95;"/>
   </g>
   <g id="Path3DCollection_1">
    <defs>
     <path d="M 0 1.369306 
C 0.363144 1.369306 0.711464 1.225028 0.968246 0.968246 
C 1.225028 0.711464 1.369306 0.363144 1.369306 0 
C 1.369306 -0.363144 1.225028 -0.711464 0.968246 -0.968246 
C 0.711464 -1.225028 0.363144 -1.369306 0 -1.369306 
C -0.363144 -1.369306 -0.711464 -1.225028 -0.968246 -0.968246 
C -1.225028 -0.711464 -1.369306 -0.363144 -1.369306 0 
C -1.369306 0.363144 -1.225028 0.711464 -0.968246 0.968246 
C -0.711464 1.225028 -0.363144 1.369306 0 1.369306 
z
" id="C0_0_37418cf193"/>
    </defs>
    <g clip-path="url(#p89168150d2)">
     <use style="fill-opacity:0.7;stroke:#000000;stroke-opacity:0.7;" x="357.915598" xlink:href="#C0_0_37418cf193" y="118.245129"/>
    </g>
    <g clip-path="url(#p89168150d2)">
     <use style="fill-opacity:0.7;stroke:#000000;stroke-opacity:0.7;" x="345.700464" xlink:href="#C0_0_37418cf193" y="203.806132"/>
    </g>
    <g clip-path="url(#p89168150d2)">
     <use style="fill-opacity:0.7;stroke:#000000;stroke-opacity:0.7;" x="129.478637" xlink:href="#C0_0_37418cf193" y="217.825952"/>
    </g>
    <g clip-path="url(#p89168150d2)">
     <use style="fill-opacity:0.7;stroke:#000000;stroke-opacity:0.7;" x="331.455724" xlink:href="#C0_0_37418cf193" y="206.069654"/>
    </g>
    <g clip-path="url(#p89168150d2)">
     <use style="fill-opacity:0.7;stroke:#000000;stroke-opacity:0.7;" x="289.463366" xlink:href="#C0_0_37418cf193" y="216.476405"/>
    </g>
    <g clip-path="url(#p89168150d2)">
     <use style="fill-opacity:0.7;stroke:#000000;stroke-opacity:0.7;" x="256.641561" xlink:href="#C0_0_37418cf193" y="223.873213"/>
    </g>
    <g clip-path="url(#p89168150d2)">
     <use style="fill-opacity:0.7;stroke:#000000;stroke-opacity:0.7;" x="224.219954" xlink:href="#C0_0_37418cf193" y="231.173074"/>
    </g>
    <g clip-path="url(#p89168150d2)">
     <use style="fill-opacity:0.7;stroke:#000000;stroke-opacity:0.7;" x="198.503492" xlink:href="#C0_0_37418cf193" y="233.090965"/>
    </g>
    <g clip-path="url(#p89168150d2)">
     <use style="fill-opacity:0.7;stroke:#000000;stroke-opacity:0.7;" x="167.569485" xlink:href="#C0_0_37418cf193" y="217.8132"/>
    </g>
    <g clip-path="url(#p89168150d2)">
     <use style="fill-opacity:0.7;stroke:#000000;stroke-opacity:0.7;" x="145.760347" xlink:href="#C0_0_37418cf193" y="227.265075"/>
    </g>
    <g clip-path="url(#p89168150d2)">
     <use style="fill-opacity:0.7;stroke:#000000;stroke-opacity:0.7;" x="141.607039" xlink:href="#C0_0_37418cf193" y="226.228616"/>
    </g>
    <g clip-path="url(#p89168150d2)">
     <use style="fill-opacity:0.7;stroke:#000000;stroke-opacity:0.7;" x="331.459317" xlink:href="#C0_0_37418cf193" y="197.429395"/>
    </g>
    <g clip-path="url(#p89168150d2)">
     <use style="fill-opacity:0.7;stroke:#000000;stroke-opacity:0.7;" x="289.463366" xlink:href="#C0_0_37418cf193" y="216.476405"/>
    </g>
    <g clip-path="url(#p89168150d2)">
     <use style="fill-opacity:0.7;stroke:#000000;stroke-opacity:0.7;" x="256.641561" xlink:href="#C0_0_37418cf193" y="223.873213"/>
    </g>
    <g clip-path="url(#p89168150d2)">
     <use style="fill-opacity:0.7;stroke:#000000;stroke-opacity:0.7;" x="226.811865" xlink:href="#C0_0_37418cf193" y="223.720492"/>
    </g>
    <g clip-path="url(#p89168150d2)">
     <use style="fill-opacity:0.7;stroke:#000000;stroke-opacity:0.7;" x="197.410195" xlink:href="#C0_0_37418cf193" y="203.873449"/>
    </g>
    <g clip-path="url(#p89168150d2)">
     <use style="fill-opacity:0.7;stroke:#000000;stroke-opacity:0.7;" x="167.536613" xlink:href="#C0_0_37418cf193" y="217.101797"/>
    </g>
    <g clip-path="url(#p89168150d2)">
     <use style="fill-opacity:0.7;stroke:#000000;stroke-opacity:0.7;" x="149.611015" xlink:href="#C0_0_37418cf193" y="214.754241"/>
    </g>
    <g clip-path="url(#p89168150d2)">
     <use style="fill-opacity:0.7;stroke:#000000;stroke-opacity:0.7;" x="144.844473" xlink:href="#C0_0_37418cf193" y="213.583819"/>
    </g>
    <g clip-path="url(#p89168150d2)">
     <use style="fill-opacity:0.7;stroke:#000000;stroke-opacity:0.7;" x="322.692859" xlink:href="#C0_0_37418cf193" y="208.98772"/>
    </g>
    <g clip-path="url(#p89168150d2)">
     <use style="fill-opacity:0.7;stroke:#000000;stroke-opacity:0.7;" x="290.575557" xlink:href="#C0_0_37418cf193" y="216.085789"/>
    </g>
    <g clip-path="url(#p89168150d2)">
     <use style="fill-opacity:0.7;stroke:#000000;stroke-opacity:0.7;" x="259.399199" xlink:href="#C0_0_37418cf193" y="213.713676"/>
    </g>
    <g clip-path="url(#p89168150d2)">
     <use style="fill-opacity:0.7;stroke:#000000;stroke-opacity:0.7;" x="230.035327" xlink:href="#C0_0_37418cf193" y="204.26698"/>
    </g>
    <g clip-path="url(#p89168150d2)">
     <use style="fill-opacity:0.7;stroke:#000000;stroke-opacity:0.7;" x="201.68376" xlink:href="#C0_0_37418cf193" y="197.119911"/>
    </g>
    <g clip-path="url(#p89168150d2)">
     <use style="fill-opacity:0.7;stroke:#000000;stroke-opacity:0.7;" x="172.18237" xlink:href="#C0_0_37418cf193" y="206.036329"/>
    </g>
    <g clip-path="url(#p89168150d2)">
     <use style="fill-opacity:0.7;stroke:#000000;stroke-opacity:0.7;" x="154.849451" xlink:href="#C0_0_37418cf193" y="202.003633"/>
    </g>
    <g clip-path="url(#p89168150d2)">
     <use style="fill-opacity:0.7;stroke:#000000;stroke-opacity:0.7;" x="148.055136" xlink:href="#C0_0_37418cf193" y="200.87495"/>
    </g>
    <g clip-path="url(#p89168150d2)">
     <use style="fill-opacity:0.7;stroke:#000000;stroke-opacity:0.7;" x="337.831655" xlink:href="#C0_0_37418cf193" y="203.93957"/>
    </g>
    <g clip-path="url(#p89168150d2)">
     <use style="fill-opacity:0.7;stroke:#000000;stroke-opacity:0.7;" x="291.420689" xlink:href="#C0_0_37418cf193" y="203.316724"/>
    </g>
    <g clip-path="url(#p89168150d2)">
     <use style="fill-opacity:0.7;stroke:#000000;stroke-opacity:0.7;" x="259.813441" xlink:href="#C0_0_37418cf193" y="199.555388"/>
    </g>
    <g clip-path="url(#p89168150d2)">
     <use style="fill-opacity:0.7;stroke:#000000;stroke-opacity:0.7;" x="228.312769" xlink:href="#C0_0_37418cf193" y="199.139868"/>
    </g>
    <g clip-path="url(#p89168150d2)">
     <use style="fill-opacity:0.7;stroke:#000000;stroke-opacity:0.7;" x="198.722783" xlink:href="#C0_0_37418cf193" y="196.67635"/>
    </g>
    <g clip-path="url(#p89168150d2)">
     <use style="fill-opacity:0.7;stroke:#000000;stroke-opacity:0.7;" x="174.960861" xlink:href="#C0_0_37418cf193" y="193.487845"/>
    </g>
    <g clip-path="url(#p89168150d2)">
     <use style="fill-opacity:0.7;stroke:#000000;stroke-opacity:0.7;" x="157.334367" xlink:href="#C0_0_37418cf193" y="189.556359"/>
    </g>
    <g clip-path="url(#p89168150d2)">
     <use style="fill-opacity:0.7;stroke:#000000;stroke-opacity:0.7;" x="151.171107" xlink:href="#C0_0_37418cf193" y="188.067633"/>
    </g>
    <g clip-path="url(#p89168150d2)">
     <use style="fill-opacity:0.7;stroke:#000000;stroke-opacity:0.7;" x="334.594062" xlink:href="#C0_0_37418cf193" y="192.235205"/>
    </g>
    <g clip-path="url(#p89168150d2)">
     <use style="fill-opacity:0.7;stroke:#000000;stroke-opacity:0.7;" x="297.481303" xlink:href="#C0_0_37418cf193" y="190.49217"/>
    </g>
    <g clip-path="url(#p89168150d2)">
     <use style="fill-opacity:0.7;stroke:#000000;stroke-opacity:0.7;" x="264.882296" xlink:href="#C0_0_37418cf193" y="188.369516"/>
    </g>
    <g clip-path="url(#p89168150d2)">
     <use style="fill-opacity:0.7;stroke:#000000;stroke-opacity:0.7;" x="240.511196" xlink:href="#C0_0_37418cf193" y="185.195258"/>
    </g>
    <g clip-path="url(#p89168150d2)">
     <use style="fill-opacity:0.7;stroke:#000000;stroke-opacity:0.7;" x="201.459807" xlink:href="#C0_0_37418cf193" y="184.025189"/>
    </g>
    <g clip-path="url(#p89168150d2)">
     <use style="fill-opacity:0.7;stroke:#000000;stroke-opacity:0.7;" x="179.541036" xlink:href="#C0_0_37418cf193" y="180.643134"/>
    </g>
    <g clip-path="url(#p89168150d2)">
     <use style="fill-opacity:0.7;stroke:#000000;stroke-opacity:0.7;" x="163.221361" xlink:href="#C0_0_37418cf193" y="176.608072"/>
    </g>
    <g clip-path="url(#p89168150d2)">
     <use style="fill-opacity:0.7;stroke:#000000;stroke-opacity:0.7;" x="154.526107" xlink:href="#C0_0_37418cf193" y="175.280116"/>
    </g>
    <g clip-path="url(#p89168150d2)">
     <use style="fill-opacity:0.7;stroke:#000000;stroke-opacity:0.7;" x="351.670528" xlink:href="#C0_0_37418cf193" y="180.232432"/>
    </g>
    <g clip-path="url(#p89168150d2)">
     <use style="fill-opacity:0.7;stroke:#000000;stroke-opacity:0.7;" x="302.805103" xlink:href="#C0_0_37418cf193" y="177.339566"/>
    </g>
    <g clip-path="url(#p89168150d2)">
     <use style="fill-opacity:0.7;stroke:#000000;stroke-opacity:0.7;" x="268.530906" xlink:href="#C0_0_37418cf193" y="175.467048"/>
    </g>
    <g clip-path="url(#p89168150d2)">
     <use style="fill-opacity:0.7;stroke:#000000;stroke-opacity:0.7;" x="235.304131" xlink:href="#C0_0_37418cf193" y="173.498094"/>
    </g>
    <g clip-path="url(#p89168150d2)">
     <use style="fill-opacity:0.7;stroke:#000000;stroke-opacity:0.7;" x="206.189229" xlink:href="#C0_0_37418cf193" y="171.03991"/>
    </g>
    <g clip-path="url(#p89168150d2)">
     <use style="fill-opacity:0.7;stroke:#000000;stroke-opacity:0.7;" x="183.799888" xlink:href="#C0_0_37418cf193" y="167.773881"/>
    </g>
    <g clip-path="url(#p89168150d2)">
     <use style="fill-opacity:0.7;stroke:#000000;stroke-opacity:0.7;" x="165.537898" xlink:href="#C0_0_37418cf193" y="164.053934"/>
    </g>
    <g clip-path="url(#p89168150d2)">
     <use style="fill-opacity:0.7;stroke:#000000;stroke-opacity:0.7;" x="159.676359" xlink:href="#C0_0_37418cf193" y="162.691497"/>
    </g>
    <g clip-path="url(#p89168150d2)">
     <use style="fill-opacity:0.7;stroke:#000000;stroke-opacity:0.7;" x="353.84041" xlink:href="#C0_0_37418cf193" y="164.513331"/>
    </g>
    <g clip-path="url(#p89168150d2)">
     <use style="fill-opacity:0.7;stroke:#000000;stroke-opacity:0.7;" x="307.83172" xlink:href="#C0_0_37418cf193" y="164.173986"/>
    </g>
    <g clip-path="url(#p89168150d2)">
     <use style="fill-opacity:0.7;stroke:#000000;stroke-opacity:0.7;" x="271.275408" xlink:href="#C0_0_37418cf193" y="162.620986"/>
    </g>
    <g clip-path="url(#p89168150d2)">
     <use style="fill-opacity:0.7;stroke:#000000;stroke-opacity:0.7;" x="242.967851" xlink:href="#C0_0_37418cf193" y="160.047484"/>
    </g>
    <g clip-path="url(#p89168150d2)">
     <use style="fill-opacity:0.7;stroke:#000000;stroke-opacity:0.7;" x="214.299161" xlink:href="#C0_0_37418cf193" y="157.574665"/>
    </g>
    <g clip-path="url(#p89168150d2)">
     <use style="fill-opacity:0.7;stroke:#000000;stroke-opacity:0.7;" x="190.29179" xlink:href="#C0_0_37418cf193" y="154.571116"/>
    </g>
    <g clip-path="url(#p89168150d2)">
     <use style="fill-opacity:0.7;stroke:#000000;stroke-opacity:0.7;" x="176.490995" xlink:href="#C0_0_37418cf193" y="152.252574"/>
    </g>
    <g clip-path="url(#p89168150d2)">
     <use style="fill-opacity:0.7;stroke:#000000;stroke-opacity:0.7;" x="176.510506" xlink:href="#C0_0_37418cf193" y="152.242275"/>
    </g>
    <g clip-path="url(#p89168150d2)">
     <use style="fill-opacity:0.7;stroke:#000000;stroke-opacity:0.7;" x="355.115392" xlink:href="#C0_0_37418cf193" y="153.872273"/>
    </g>
    <g clip-path="url(#p89168150d2)">
     <use style="fill-opacity:0.7;stroke:#000000;stroke-opacity:0.7;" x="309.163572" xlink:href="#C0_0_37418cf193" y="151.41934"/>
    </g>
    <g clip-path="url(#p89168150d2)">
     <use style="fill-opacity:0.7;stroke:#000000;stroke-opacity:0.7;" x="279.825841" xlink:href="#C0_0_37418cf193" y="148.968213"/>
    </g>
    <g clip-path="url(#p89168150d2)">
     <use style="fill-opacity:0.7;stroke:#000000;stroke-opacity:0.7;" x="242.437861" xlink:href="#C0_0_37418cf193" y="147.576337"/>
    </g>
    <g clip-path="url(#p89168150d2)">
     <use style="fill-opacity:0.7;stroke:#000000;stroke-opacity:0.7;" x="215.91592" xlink:href="#C0_0_37418cf193" y="144.870903"/>
    </g>
    <g clip-path="url(#p89168150d2)">
     <use style="fill-opacity:0.7;stroke:#000000;stroke-opacity:0.7;" x="198.403776" xlink:href="#C0_0_37418cf193" y="142.152104"/>
    </g>
    <g clip-path="url(#p89168150d2)">
     <use style="fill-opacity:0.7;stroke:#000000;stroke-opacity:0.7;" x="256.504335" xlink:href="#C0_0_37418cf193" y="143.378802"/>
    </g>
    <g clip-path="url(#p89168150d2)">
     <use style="fill-opacity:0.7;stroke:#000000;stroke-opacity:0.7;" x="198.415844" xlink:href="#C0_0_37418cf193" y="142.150625"/>
    </g>
   </g>
  </g>
 </g>
 <defs>
  <clipPath id="p89168150d2">
   <rect height="266.112" width="357.12" x="57.6" y="41.472"/>
  </clipPath>
 </defs>
</svg>
