<?xml version="1.0" encoding="utf-8" standalone="no"?>
<!DOCTYPE svg PUBLIC "-//W3C//DTD SVG 1.1//EN"
  "http://www.w3.org/Graphics/SVG/1.1/DTD/svg11.dtd">
<!-- Created with matplotlib (https://matplotlib.org/) -->
<svg height="345.6pt" version="1.1" viewBox="0 0 460.8 345.6" width="460.8pt" xmlns="http://www.w3.org/2000/svg" xmlns:xlink="http://www.w3.org/1999/xlink">
 <defs>
  <style type="text/css">
*{stroke-linecap:butt;stroke-linejoin:round;}
  </style>
 </defs>
 <g id="figure_1">
  <g id="patch_1">
   <path d="M 0 345.6 
L 460.8 345.6 
L 460.8 0 
L 0 0 
z
" style="fill:#ffffff;"/>
  </g>
  <g id="patch_2">
   <path d="M 57.6 307.584 
L 414.72 307.584 
L 414.72 41.472 
L 57.6 41.472 
z
" style="fill:#ffffff;"/>
  </g>
  <g id="pane3d_1">
   <g id="patch_3">
    <path d="M 375.112876 254.290992 
L 285.860956 200.614983 
L 287.53718 68.736292 
L 380.581129 112.539907 
" style="fill:#f2f2f2;opacity:0.5;stroke:#f2f2f2;stroke-linejoin:miter;"/>
   </g>
  </g>
  <g id="pane3d_2">
   <g id="patch_4">
    <path d="M 112.867262 224.523314 
L 285.860956 200.614983 
L 287.53718 68.736292 
L 107.887035 88.2117 
" style="fill:#e6e6e6;opacity:0.5;stroke:#e6e6e6;stroke-linejoin:miter;"/>
   </g>
  </g>
  <g id="pane3d_3">
   <g id="patch_5">
    <path d="M 190.081955 282.683257 
L 375.112876 254.290992 
L 285.860956 200.614983 
L 112.867262 224.523314 
" style="fill:#ececec;opacity:0.5;stroke:#ececec;stroke-linejoin:miter;"/>
   </g>
  </g>
  <g id="axis3d_1">
   <g id="line2d_1">
    <path d="M 375.112876 254.290992 
L 190.081955 282.683257 
" style="fill:none;stroke:#000000;stroke-linecap:square;stroke-width:0.8;"/>
   </g>
   <g id="text_1">
    <!-- Life Cycle Cost -->
    <defs>
     <path d="M 9.8125 72.90625 
L 19.671875 72.90625 
L 19.671875 8.296875 
L 55.171875 8.296875 
L 55.171875 0 
L 9.8125 0 
z
" id="DejaVuSans-76"/>
     <path d="M 9.421875 54.6875 
L 18.40625 54.6875 
L 18.40625 0 
L 9.421875 0 
z
M 9.421875 75.984375 
L 18.40625 75.984375 
L 18.40625 64.59375 
L 9.421875 64.59375 
z
" id="DejaVuSans-105"/>
     <path d="M 37.109375 75.984375 
L 37.109375 68.5 
L 28.515625 68.5 
Q 23.6875 68.5 21.796875 66.546875 
Q 19.921875 64.59375 19.921875 59.515625 
L 19.921875 54.6875 
L 34.71875 54.6875 
L 34.71875 47.703125 
L 19.921875 47.703125 
L 19.921875 0 
L 10.890625 0 
L 10.890625 47.703125 
L 2.296875 47.703125 
L 2.296875 54.6875 
L 10.890625 54.6875 
L 10.890625 58.5 
Q 10.890625 67.625 15.140625 71.796875 
Q 19.390625 75.984375 28.609375 75.984375 
z
" id="DejaVuSans-102"/>
     <path d="M 56.203125 29.59375 
L 56.203125 25.203125 
L 14.890625 25.203125 
Q 15.484375 15.921875 20.484375 11.0625 
Q 25.484375 6.203125 34.421875 6.203125 
Q 39.59375 6.203125 44.453125 7.46875 
Q 49.3125 8.734375 54.109375 11.28125 
L 54.109375 2.78125 
Q 49.265625 0.734375 44.1875 -0.34375 
Q 39.109375 -1.421875 33.890625 -1.421875 
Q 20.796875 -1.421875 13.15625 6.1875 
Q 5.515625 13.8125 5.515625 26.8125 
Q 5.515625 40.234375 12.765625 48.109375 
Q 20.015625 56 32.328125 56 
Q 43.359375 56 49.78125 48.890625 
Q 56.203125 41.796875 56.203125 29.59375 
z
M 47.21875 32.234375 
Q 47.125 39.59375 43.09375 43.984375 
Q 39.0625 48.390625 32.421875 48.390625 
Q 24.90625 48.390625 20.390625 44.140625 
Q 15.875 39.890625 15.1875 32.171875 
z
" id="DejaVuSans-101"/>
     <path id="DejaVuSans-32"/>
     <path d="M 64.40625 67.28125 
L 64.40625 56.890625 
Q 59.421875 61.53125 53.78125 63.8125 
Q 48.140625 66.109375 41.796875 66.109375 
Q 29.296875 66.109375 22.65625 58.46875 
Q 16.015625 50.828125 16.015625 36.375 
Q 16.015625 21.96875 22.65625 14.328125 
Q 29.296875 6.6875 41.796875 6.6875 
Q 48.140625 6.6875 53.78125 8.984375 
Q 59.421875 11.28125 64.40625 15.921875 
L 64.40625 5.609375 
Q 59.234375 2.09375 53.4375 0.328125 
Q 47.65625 -1.421875 41.21875 -1.421875 
Q 24.65625 -1.421875 15.125 8.703125 
Q 5.609375 18.84375 5.609375 36.375 
Q 5.609375 53.953125 15.125 64.078125 
Q 24.65625 74.21875 41.21875 74.21875 
Q 47.75 74.21875 53.53125 72.484375 
Q 59.328125 70.75 64.40625 67.28125 
z
" id="DejaVuSans-67"/>
     <path d="M 32.171875 -5.078125 
Q 28.375 -14.84375 24.75 -17.8125 
Q 21.140625 -20.796875 15.09375 -20.796875 
L 7.90625 -20.796875 
L 7.90625 -13.28125 
L 13.1875 -13.28125 
Q 16.890625 -13.28125 18.9375 -11.515625 
Q 21 -9.765625 23.484375 -3.21875 
L 25.09375 0.875 
L 2.984375 54.6875 
L 12.5 54.6875 
L 29.59375 11.921875 
L 46.6875 54.6875 
L 56.203125 54.6875 
z
" id="DejaVuSans-121"/>
     <path d="M 48.78125 52.59375 
L 48.78125 44.1875 
Q 44.96875 46.296875 41.140625 47.34375 
Q 37.3125 48.390625 33.40625 48.390625 
Q 24.65625 48.390625 19.8125 42.84375 
Q 14.984375 37.3125 14.984375 27.296875 
Q 14.984375 17.28125 19.8125 11.734375 
Q 24.65625 6.203125 33.40625 6.203125 
Q 37.3125 6.203125 41.140625 7.25 
Q 44.96875 8.296875 48.78125 10.40625 
L 48.78125 2.09375 
Q 45.015625 0.34375 40.984375 -0.53125 
Q 36.96875 -1.421875 32.421875 -1.421875 
Q 20.0625 -1.421875 12.78125 6.34375 
Q 5.515625 14.109375 5.515625 27.296875 
Q 5.515625 40.671875 12.859375 48.328125 
Q 20.21875 56 33.015625 56 
Q 37.15625 56 41.109375 55.140625 
Q 45.0625 54.296875 48.78125 52.59375 
z
" id="DejaVuSans-99"/>
     <path d="M 9.421875 75.984375 
L 18.40625 75.984375 
L 18.40625 0 
L 9.421875 0 
z
" id="DejaVuSans-108"/>
     <path d="M 30.609375 48.390625 
Q 23.390625 48.390625 19.1875 42.75 
Q 14.984375 37.109375 14.984375 27.296875 
Q 14.984375 17.484375 19.15625 11.84375 
Q 23.34375 6.203125 30.609375 6.203125 
Q 37.796875 6.203125 41.984375 11.859375 
Q 46.1875 17.53125 46.1875 27.296875 
Q 46.1875 37.015625 41.984375 42.703125 
Q 37.796875 48.390625 30.609375 48.390625 
z
M 30.609375 56 
Q 42.328125 56 49.015625 48.375 
Q 55.71875 40.765625 55.71875 27.296875 
Q 55.71875 13.875 49.015625 6.21875 
Q 42.328125 -1.421875 30.609375 -1.421875 
Q 18.84375 -1.421875 12.171875 6.21875 
Q 5.515625 13.875 5.515625 27.296875 
Q 5.515625 40.765625 12.171875 48.375 
Q 18.84375 56 30.609375 56 
z
" id="DejaVuSans-111"/>
     <path d="M 44.28125 53.078125 
L 44.28125 44.578125 
Q 40.484375 46.53125 36.375 47.5 
Q 32.28125 48.484375 27.875 48.484375 
Q 21.1875 48.484375 17.84375 46.4375 
Q 14.5 44.390625 14.5 40.28125 
Q 14.5 37.15625 16.890625 35.375 
Q 19.28125 33.59375 26.515625 31.984375 
L 29.59375 31.296875 
Q 39.15625 29.25 43.1875 25.515625 
Q 47.21875 21.78125 47.21875 15.09375 
Q 47.21875 7.46875 41.1875 3.015625 
Q 35.15625 -1.421875 24.609375 -1.421875 
Q 20.21875 -1.421875 15.453125 -0.5625 
Q 10.6875 0.296875 5.421875 2 
L 5.421875 11.28125 
Q 10.40625 8.6875 15.234375 7.390625 
Q 20.0625 6.109375 24.8125 6.109375 
Q 31.15625 6.109375 34.5625 8.28125 
Q 37.984375 10.453125 37.984375 14.40625 
Q 37.984375 18.0625 35.515625 20.015625 
Q 33.0625 21.96875 24.703125 23.78125 
L 21.578125 24.515625 
Q 13.234375 26.265625 9.515625 29.90625 
Q 5.8125 33.546875 5.8125 39.890625 
Q 5.8125 47.609375 11.28125 51.796875 
Q 16.75 56 26.8125 56 
Q 31.78125 56 36.171875 55.265625 
Q 40.578125 54.546875 44.28125 53.078125 
z
" id="DejaVuSans-115"/>
     <path d="M 18.3125 70.21875 
L 18.3125 54.6875 
L 36.8125 54.6875 
L 36.8125 47.703125 
L 18.3125 47.703125 
L 18.3125 18.015625 
Q 18.3125 11.328125 20.140625 9.421875 
Q 21.96875 7.515625 27.59375 7.515625 
L 36.8125 7.515625 
L 36.8125 0 
L 27.59375 0 
Q 17.1875 0 13.234375 3.875 
Q 9.28125 7.765625 9.28125 18.015625 
L 9.28125 47.703125 
L 2.6875 47.703125 
L 2.6875 54.6875 
L 9.28125 54.6875 
L 9.28125 70.21875 
z
" id="DejaVuSans-116"/>
    </defs>
    <g transform="translate(264.770529 309.433104)rotate(-8.723767)scale(0.1 -0.1)">
     <use xlink:href="#DejaVuSans-76"/>
     <use x="55.712891" xlink:href="#DejaVuSans-105"/>
     <use x="83.496094" xlink:href="#DejaVuSans-102"/>
     <use x="118.701172" xlink:href="#DejaVuSans-101"/>
     <use x="180.224609" xlink:href="#DejaVuSans-32"/>
     <use x="212.011719" xlink:href="#DejaVuSans-67"/>
     <use x="281.835938" xlink:href="#DejaVuSans-121"/>
     <use x="341.015625" xlink:href="#DejaVuSans-99"/>
     <use x="395.996094" xlink:href="#DejaVuSans-108"/>
     <use x="423.779297" xlink:href="#DejaVuSans-101"/>
     <use x="485.302734" xlink:href="#DejaVuSans-32"/>
     <use x="517.089844" xlink:href="#DejaVuSans-67"/>
     <use x="586.914062" xlink:href="#DejaVuSans-111"/>
     <use x="648.095703" xlink:href="#DejaVuSans-115"/>
     <use x="700.195312" xlink:href="#DejaVuSans-116"/>
    </g>
    <!--  ($/house-yr) -->
    <defs>
     <path d="M 31 75.875 
Q 24.46875 64.65625 21.28125 53.65625 
Q 18.109375 42.671875 18.109375 31.390625 
Q 18.109375 20.125 21.3125 9.0625 
Q 24.515625 -2 31 -13.1875 
L 23.1875 -13.1875 
Q 15.875 -1.703125 12.234375 9.375 
Q 8.59375 20.453125 8.59375 31.390625 
Q 8.59375 42.28125 12.203125 53.3125 
Q 15.828125 64.359375 23.1875 75.875 
z
" id="DejaVuSans-40"/>
     <path d="M 33.796875 -14.703125 
L 28.90625 -14.703125 
L 28.859375 0 
Q 23.734375 0.09375 18.609375 1.1875 
Q 13.484375 2.296875 8.296875 4.5 
L 8.296875 13.28125 
Q 13.28125 10.15625 18.375 8.5625 
Q 23.484375 6.984375 28.90625 6.9375 
L 28.90625 29.203125 
Q 18.109375 30.953125 13.203125 35.15625 
Q 8.296875 39.359375 8.296875 46.6875 
Q 8.296875 54.640625 13.625 59.21875 
Q 18.953125 63.8125 28.90625 64.5 
L 28.90625 75.984375 
L 33.796875 75.984375 
L 33.796875 64.65625 
Q 38.328125 64.453125 42.578125 63.6875 
Q 46.828125 62.9375 50.875 61.625 
L 50.875 53.078125 
Q 46.828125 55.125 42.546875 56.25 
Q 38.28125 57.375 33.796875 57.5625 
L 33.796875 36.71875 
Q 44.875 35.015625 50.09375 30.609375 
Q 55.328125 26.21875 55.328125 18.609375 
Q 55.328125 10.359375 49.78125 5.59375 
Q 44.234375 0.828125 33.796875 0.09375 
z
M 28.90625 37.59375 
L 28.90625 57.625 
Q 23.25 56.984375 20.265625 54.390625 
Q 17.28125 51.8125 17.28125 47.515625 
Q 17.28125 43.3125 20.03125 40.96875 
Q 22.796875 38.625 28.90625 37.59375 
z
M 33.796875 28.21875 
L 33.796875 7.078125 
Q 39.984375 7.90625 43.140625 10.59375 
Q 46.296875 13.28125 46.296875 17.671875 
Q 46.296875 21.96875 43.28125 24.5 
Q 40.28125 27.046875 33.796875 28.21875 
z
" id="DejaVuSans-36"/>
     <path d="M 25.390625 72.90625 
L 33.6875 72.90625 
L 8.296875 -9.28125 
L 0 -9.28125 
z
" id="DejaVuSans-47"/>
     <path d="M 54.890625 33.015625 
L 54.890625 0 
L 45.90625 0 
L 45.90625 32.71875 
Q 45.90625 40.484375 42.875 44.328125 
Q 39.84375 48.1875 33.796875 48.1875 
Q 26.515625 48.1875 22.3125 43.546875 
Q 18.109375 38.921875 18.109375 30.90625 
L 18.109375 0 
L 9.078125 0 
L 9.078125 75.984375 
L 18.109375 75.984375 
L 18.109375 46.1875 
Q 21.34375 51.125 25.703125 53.5625 
Q 30.078125 56 35.796875 56 
Q 45.21875 56 50.046875 50.171875 
Q 54.890625 44.34375 54.890625 33.015625 
z
" id="DejaVuSans-104"/>
     <path d="M 8.5 21.578125 
L 8.5 54.6875 
L 17.484375 54.6875 
L 17.484375 21.921875 
Q 17.484375 14.15625 20.5 10.265625 
Q 23.53125 6.390625 29.59375 6.390625 
Q 36.859375 6.390625 41.078125 11.03125 
Q 45.3125 15.671875 45.3125 23.6875 
L 45.3125 54.6875 
L 54.296875 54.6875 
L 54.296875 0 
L 45.3125 0 
L 45.3125 8.40625 
Q 42.046875 3.421875 37.71875 1 
Q 33.40625 -1.421875 27.6875 -1.421875 
Q 18.265625 -1.421875 13.375 4.4375 
Q 8.5 10.296875 8.5 21.578125 
z
M 31.109375 56 
z
" id="DejaVuSans-117"/>
     <path d="M 4.890625 31.390625 
L 31.203125 31.390625 
L 31.203125 23.390625 
L 4.890625 23.390625 
z
" id="DejaVuSans-45"/>
     <path d="M 41.109375 46.296875 
Q 39.59375 47.171875 37.8125 47.578125 
Q 36.03125 48 33.890625 48 
Q 26.265625 48 22.1875 43.046875 
Q 18.109375 38.09375 18.109375 28.8125 
L 18.109375 0 
L 9.078125 0 
L 9.078125 54.6875 
L 18.109375 54.6875 
L 18.109375 46.1875 
Q 20.953125 51.171875 25.484375 53.578125 
Q 30.03125 56 36.53125 56 
Q 37.453125 56 38.578125 55.875 
Q 39.703125 55.765625 41.0625 55.515625 
z
" id="DejaVuSans-114"/>
     <path d="M 8.015625 75.875 
L 15.828125 75.875 
Q 23.140625 64.359375 26.78125 53.3125 
Q 30.421875 42.28125 30.421875 31.390625 
Q 30.421875 20.453125 26.78125 9.375 
Q 23.140625 -1.703125 15.828125 -13.1875 
L 8.015625 -13.1875 
Q 14.5 -2 17.703125 9.0625 
Q 20.90625 20.125 20.90625 31.390625 
Q 20.90625 42.671875 17.703125 53.65625 
Q 14.5 64.65625 8.015625 75.875 
z
" id="DejaVuSans-41"/>
    </defs>
    <g transform="translate(271.218785 319.77252)rotate(-8.723767)scale(0.1 -0.1)">
     <use xlink:href="#DejaVuSans-32"/>
     <use x="31.787109" xlink:href="#DejaVuSans-40"/>
     <use x="70.800781" xlink:href="#DejaVuSans-36"/>
     <use x="134.423828" xlink:href="#DejaVuSans-47"/>
     <use x="168.115234" xlink:href="#DejaVuSans-104"/>
     <use x="231.494141" xlink:href="#DejaVuSans-111"/>
     <use x="292.675781" xlink:href="#DejaVuSans-117"/>
     <use x="356.054688" xlink:href="#DejaVuSans-115"/>
     <use x="408.154297" xlink:href="#DejaVuSans-101"/>
     <use x="469.677734" xlink:href="#DejaVuSans-45"/>
     <use x="504.011719" xlink:href="#DejaVuSans-121"/>
     <use x="563.191406" xlink:href="#DejaVuSans-114"/>
     <use x="604.304688" xlink:href="#DejaVuSans-41"/>
    </g>
   </g>
   <g id="Line3DCollection_1">
    <path d="M 218.905732 278.260362 
L 139.737616 220.809737 
L 135.825808 85.18293 
" style="fill:none;stroke:#b0b0b0;stroke-width:0.8;"/>
    <path d="M 243.900015 274.425088 
L 163.061337 217.586318 
L 160.066629 82.555045 
" style="fill:none;stroke:#b0b0b0;stroke-width:0.8;"/>
    <path d="M 268.61738 270.632306 
L 186.147992 214.395662 
L 184.051643 79.954892 
" style="fill:none;stroke:#b0b0b0;stroke-width:0.8;"/>
    <path d="M 293.062403 266.881313 
L 209.001176 211.237272 
L 207.784878 77.382033 
" style="fill:none;stroke:#b0b0b0;stroke-width:0.8;"/>
    <path d="M 317.23956 263.171424 
L 231.624413 208.110662 
L 231.270277 74.836041 
" style="fill:none;stroke:#b0b0b0;stroke-width:0.8;"/>
    <path d="M 341.153231 259.501966 
L 254.021157 205.015354 
L 254.511703 72.316498 
" style="fill:none;stroke:#b0b0b0;stroke-width:0.8;"/>
    <path d="M 364.807699 255.872281 
L 276.194791 201.950881 
L 277.512937 69.822994 
" style="fill:none;stroke:#b0b0b0;stroke-width:0.8;"/>
   </g>
   <g id="xtick_1">
    <g id="line2d_2">
     <path d="M 218.21523 277.75928 
L 220.289757 279.26472 
" style="fill:none;stroke:#000000;stroke-linecap:square;stroke-width:0.8;"/>
    </g>
    <g id="text_2">
     <!-- 0.5 -->
     <defs>
      <path d="M 31.78125 66.40625 
Q 24.171875 66.40625 20.328125 58.90625 
Q 16.5 51.421875 16.5 36.375 
Q 16.5 21.390625 20.328125 13.890625 
Q 24.171875 6.390625 31.78125 6.390625 
Q 39.453125 6.390625 43.28125 13.890625 
Q 47.125 21.390625 47.125 36.375 
Q 47.125 51.421875 43.28125 58.90625 
Q 39.453125 66.40625 31.78125 66.40625 
z
M 31.78125 74.21875 
Q 44.046875 74.21875 50.515625 64.515625 
Q 56.984375 54.828125 56.984375 36.375 
Q 56.984375 17.96875 50.515625 8.265625 
Q 44.046875 -1.421875 31.78125 -1.421875 
Q 19.53125 -1.421875 13.0625 8.265625 
Q 6.59375 17.96875 6.59375 36.375 
Q 6.59375 54.828125 13.0625 64.515625 
Q 19.53125 74.21875 31.78125 74.21875 
z
" id="DejaVuSans-48"/>
      <path d="M 10.6875 12.40625 
L 21 12.40625 
L 21 0 
L 10.6875 0 
z
" id="DejaVuSans-46"/>
      <path d="M 10.796875 72.90625 
L 49.515625 72.90625 
L 49.515625 64.59375 
L 19.828125 64.59375 
L 19.828125 46.734375 
Q 21.96875 47.46875 24.109375 47.828125 
Q 26.265625 48.1875 28.421875 48.1875 
Q 40.625 48.1875 47.75 41.5 
Q 54.890625 34.8125 54.890625 23.390625 
Q 54.890625 11.625 47.5625 5.09375 
Q 40.234375 -1.421875 26.90625 -1.421875 
Q 22.3125 -1.421875 17.546875 -0.640625 
Q 12.796875 0.140625 7.71875 1.703125 
L 7.71875 11.625 
Q 12.109375 9.234375 16.796875 8.0625 
Q 21.484375 6.890625 26.703125 6.890625 
Q 35.15625 6.890625 40.078125 11.328125 
Q 45.015625 15.765625 45.015625 23.390625 
Q 45.015625 31 40.078125 35.4375 
Q 35.15625 39.890625 26.703125 39.890625 
Q 22.75 39.890625 18.8125 39.015625 
Q 14.890625 38.140625 10.796875 36.28125 
z
" id="DejaVuSans-53"/>
     </defs>
     <g transform="translate(217.16012 300.281405)scale(0.1 -0.1)">
      <use xlink:href="#DejaVuSans-48"/>
      <use x="63.623047" xlink:href="#DejaVuSans-46"/>
      <use x="95.410156" xlink:href="#DejaVuSans-53"/>
     </g>
    </g>
   </g>
   <g id="xtick_2">
    <g id="line2d_3">
     <path d="M 243.195268 273.92957 
L 245.312577 275.418279 
" style="fill:none;stroke:#000000;stroke-linecap:square;stroke-width:0.8;"/>
    </g>
    <g id="text_3">
     <!-- 1.0 -->
     <defs>
      <path d="M 12.40625 8.296875 
L 28.515625 8.296875 
L 28.515625 63.921875 
L 10.984375 60.40625 
L 10.984375 69.390625 
L 28.421875 72.90625 
L 38.28125 72.90625 
L 38.28125 8.296875 
L 54.390625 8.296875 
L 54.390625 0 
L 12.40625 0 
z
" id="DejaVuSans-49"/>
     </defs>
     <g transform="translate(242.208885 296.35182)scale(0.1 -0.1)">
      <use xlink:href="#DejaVuSans-49"/>
      <use x="63.623047" xlink:href="#DejaVuSans-46"/>
      <use x="95.410156" xlink:href="#DejaVuSans-48"/>
     </g>
    </g>
   </g>
   <g id="xtick_3">
    <g id="line2d_4">
     <path d="M 267.898744 270.142261 
L 270.057763 271.614516 
" style="fill:none;stroke:#000000;stroke-linecap:square;stroke-width:0.8;"/>
    </g>
    <g id="text_4">
     <!-- 1.5 -->
     <g transform="translate(266.979144 292.465926)scale(0.1 -0.1)">
      <use xlink:href="#DejaVuSans-49"/>
      <use x="63.623047" xlink:href="#DejaVuSans-46"/>
      <use x="95.410156" xlink:href="#DejaVuSans-53"/>
     </g>
    </g>
   </g>
   <g id="xtick_4">
    <g id="line2d_5">
     <path d="M 292.330226 266.396651 
L 294.529908 267.852724 
" style="fill:none;stroke:#000000;stroke-linecap:square;stroke-width:0.8;"/>
    </g>
    <g id="text_5">
     <!-- 2.0 -->
     <defs>
      <path d="M 19.1875 8.296875 
L 53.609375 8.296875 
L 53.609375 0 
L 7.328125 0 
L 7.328125 8.296875 
Q 12.9375 14.109375 22.625 23.890625 
Q 32.328125 33.6875 34.8125 36.53125 
Q 39.546875 41.84375 41.421875 45.53125 
Q 43.3125 49.21875 43.3125 52.78125 
Q 43.3125 58.59375 39.234375 62.25 
Q 35.15625 65.921875 28.609375 65.921875 
Q 23.96875 65.921875 18.8125 64.3125 
Q 13.671875 62.703125 7.8125 59.421875 
L 7.8125 69.390625 
Q 13.765625 71.78125 18.9375 73 
Q 24.125 74.21875 28.421875 74.21875 
Q 39.75 74.21875 46.484375 68.546875 
Q 53.21875 62.890625 53.21875 53.421875 
Q 53.21875 48.921875 51.53125 44.890625 
Q 49.859375 40.875 45.40625 35.40625 
Q 44.1875 33.984375 37.640625 27.21875 
Q 31.109375 20.453125 19.1875 8.296875 
z
" id="DejaVuSans-50"/>
     </defs>
     <g transform="translate(291.475514 288.622998)scale(0.1 -0.1)">
      <use xlink:href="#DejaVuSans-50"/>
      <use x="63.623047" xlink:href="#DejaVuSans-46"/>
      <use x="95.410156" xlink:href="#DejaVuSans-48"/>
     </g>
    </g>
   </g>
   <g id="xtick_5">
    <g id="line2d_6">
     <path d="M 316.494181 262.692056 
L 318.733509 264.132211 
" style="fill:none;stroke:#000000;stroke-linecap:square;stroke-width:0.8;"/>
    </g>
    <g id="text_6">
     <!-- 2.5 -->
     <g transform="translate(315.702515 284.822329)scale(0.1 -0.1)">
      <use xlink:href="#DejaVuSans-50"/>
      <use x="63.623047" xlink:href="#DejaVuSans-46"/>
      <use x="95.410156" xlink:href="#DejaVuSans-53"/>
     </g>
    </g>
   </g>
   <g id="xtick_6">
    <g id="line2d_7">
     <path d="M 340.39498 259.027806 
L 342.67296 260.452303 
" style="fill:none;stroke:#000000;stroke-linecap:square;stroke-width:0.8;"/>
    </g>
    <g id="text_7">
     <!-- 3.0 -->
     <defs>
      <path d="M 40.578125 39.3125 
Q 47.65625 37.796875 51.625 33 
Q 55.609375 28.21875 55.609375 21.1875 
Q 55.609375 10.40625 48.1875 4.484375 
Q 40.765625 -1.421875 27.09375 -1.421875 
Q 22.515625 -1.421875 17.65625 -0.515625 
Q 12.796875 0.390625 7.625 2.203125 
L 7.625 11.71875 
Q 11.71875 9.328125 16.59375 8.109375 
Q 21.484375 6.890625 26.8125 6.890625 
Q 36.078125 6.890625 40.9375 10.546875 
Q 45.796875 14.203125 45.796875 21.1875 
Q 45.796875 27.640625 41.28125 31.265625 
Q 36.765625 34.90625 28.71875 34.90625 
L 20.21875 34.90625 
L 20.21875 43.015625 
L 29.109375 43.015625 
Q 36.375 43.015625 40.234375 45.921875 
Q 44.09375 48.828125 44.09375 54.296875 
Q 44.09375 59.90625 40.109375 62.90625 
Q 36.140625 65.921875 28.71875 65.921875 
Q 24.65625 65.921875 20.015625 65.03125 
Q 15.375 64.15625 9.8125 62.3125 
L 9.8125 71.09375 
Q 15.4375 72.65625 20.34375 73.4375 
Q 25.25 74.21875 29.59375 74.21875 
Q 40.828125 74.21875 47.359375 69.109375 
Q 53.90625 64.015625 53.90625 55.328125 
Q 53.90625 49.265625 50.4375 45.09375 
Q 46.96875 40.921875 40.578125 39.3125 
z
" id="DejaVuSans-51"/>
     </defs>
     <g transform="translate(339.664564 281.063225)scale(0.1 -0.1)">
      <use xlink:href="#DejaVuSans-51"/>
      <use x="63.623047" xlink:href="#DejaVuSans-46"/>
      <use x="95.410156" xlink:href="#DejaVuSans-48"/>
     </g>
    </g>
   </g>
   <g id="xtick_7">
    <g id="line2d_8">
     <path d="M 364.036899 255.403245 
L 366.352563 256.812338 
" style="fill:none;stroke:#000000;stroke-linecap:square;stroke-width:0.8;"/>
    </g>
    <g id="text_8">
     <!-- 3.5 -->
     <g transform="translate(363.365985 277.345007)scale(0.1 -0.1)">
      <use xlink:href="#DejaVuSans-51"/>
      <use x="63.623047" xlink:href="#DejaVuSans-46"/>
      <use x="95.410156" xlink:href="#DejaVuSans-53"/>
     </g>
    </g>
   </g>
  </g>
  <g id="axis3d_2">
   <g id="line2d_9">
    <path d="M 112.867262 224.523314 
L 190.081955 282.683257 
" style="fill:none;stroke:#000000;stroke-linecap:square;stroke-width:0.8;"/>
   </g>
   <g id="text_9">
    <!-- Global Warming Potential -->
    <defs>
     <path d="M 59.515625 10.40625 
L 59.515625 29.984375 
L 43.40625 29.984375 
L 43.40625 38.09375 
L 69.28125 38.09375 
L 69.28125 6.78125 
Q 63.578125 2.734375 56.6875 0.65625 
Q 49.8125 -1.421875 42 -1.421875 
Q 24.90625 -1.421875 15.25 8.5625 
Q 5.609375 18.5625 5.609375 36.375 
Q 5.609375 54.25 15.25 64.234375 
Q 24.90625 74.21875 42 74.21875 
Q 49.125 74.21875 55.546875 72.453125 
Q 61.96875 70.703125 67.390625 67.28125 
L 67.390625 56.78125 
Q 61.921875 61.421875 55.765625 63.765625 
Q 49.609375 66.109375 42.828125 66.109375 
Q 29.4375 66.109375 22.71875 58.640625 
Q 16.015625 51.171875 16.015625 36.375 
Q 16.015625 21.625 22.71875 14.15625 
Q 29.4375 6.6875 42.828125 6.6875 
Q 48.046875 6.6875 52.140625 7.59375 
Q 56.25 8.5 59.515625 10.40625 
z
" id="DejaVuSans-71"/>
     <path d="M 48.6875 27.296875 
Q 48.6875 37.203125 44.609375 42.84375 
Q 40.53125 48.484375 33.40625 48.484375 
Q 26.265625 48.484375 22.1875 42.84375 
Q 18.109375 37.203125 18.109375 27.296875 
Q 18.109375 17.390625 22.1875 11.75 
Q 26.265625 6.109375 33.40625 6.109375 
Q 40.53125 6.109375 44.609375 11.75 
Q 48.6875 17.390625 48.6875 27.296875 
z
M 18.109375 46.390625 
Q 20.953125 51.265625 25.265625 53.625 
Q 29.59375 56 35.59375 56 
Q 45.5625 56 51.78125 48.09375 
Q 58.015625 40.1875 58.015625 27.296875 
Q 58.015625 14.40625 51.78125 6.484375 
Q 45.5625 -1.421875 35.59375 -1.421875 
Q 29.59375 -1.421875 25.265625 0.953125 
Q 20.953125 3.328125 18.109375 8.203125 
L 18.109375 0 
L 9.078125 0 
L 9.078125 75.984375 
L 18.109375 75.984375 
z
" id="DejaVuSans-98"/>
     <path d="M 34.28125 27.484375 
Q 23.390625 27.484375 19.1875 25 
Q 14.984375 22.515625 14.984375 16.5 
Q 14.984375 11.71875 18.140625 8.90625 
Q 21.296875 6.109375 26.703125 6.109375 
Q 34.1875 6.109375 38.703125 11.40625 
Q 43.21875 16.703125 43.21875 25.484375 
L 43.21875 27.484375 
z
M 52.203125 31.203125 
L 52.203125 0 
L 43.21875 0 
L 43.21875 8.296875 
Q 40.140625 3.328125 35.546875 0.953125 
Q 30.953125 -1.421875 24.3125 -1.421875 
Q 15.921875 -1.421875 10.953125 3.296875 
Q 6 8.015625 6 15.921875 
Q 6 25.140625 12.171875 29.828125 
Q 18.359375 34.515625 30.609375 34.515625 
L 43.21875 34.515625 
L 43.21875 35.40625 
Q 43.21875 41.609375 39.140625 45 
Q 35.0625 48.390625 27.6875 48.390625 
Q 23 48.390625 18.546875 47.265625 
Q 14.109375 46.140625 10.015625 43.890625 
L 10.015625 52.203125 
Q 14.9375 54.109375 19.578125 55.046875 
Q 24.21875 56 28.609375 56 
Q 40.484375 56 46.34375 49.84375 
Q 52.203125 43.703125 52.203125 31.203125 
z
" id="DejaVuSans-97"/>
     <path d="M 3.328125 72.90625 
L 13.28125 72.90625 
L 28.609375 11.28125 
L 43.890625 72.90625 
L 54.984375 72.90625 
L 70.3125 11.28125 
L 85.59375 72.90625 
L 95.609375 72.90625 
L 77.296875 0 
L 64.890625 0 
L 49.515625 63.28125 
L 33.984375 0 
L 21.578125 0 
z
" id="DejaVuSans-87"/>
     <path d="M 52 44.1875 
Q 55.375 50.25 60.0625 53.125 
Q 64.75 56 71.09375 56 
Q 79.640625 56 84.28125 50.015625 
Q 88.921875 44.046875 88.921875 33.015625 
L 88.921875 0 
L 79.890625 0 
L 79.890625 32.71875 
Q 79.890625 40.578125 77.09375 44.375 
Q 74.3125 48.1875 68.609375 48.1875 
Q 61.625 48.1875 57.5625 43.546875 
Q 53.515625 38.921875 53.515625 30.90625 
L 53.515625 0 
L 44.484375 0 
L 44.484375 32.71875 
Q 44.484375 40.625 41.703125 44.40625 
Q 38.921875 48.1875 33.109375 48.1875 
Q 26.21875 48.1875 22.15625 43.53125 
Q 18.109375 38.875 18.109375 30.90625 
L 18.109375 0 
L 9.078125 0 
L 9.078125 54.6875 
L 18.109375 54.6875 
L 18.109375 46.1875 
Q 21.1875 51.21875 25.484375 53.609375 
Q 29.78125 56 35.6875 56 
Q 41.65625 56 45.828125 52.96875 
Q 50 49.953125 52 44.1875 
z
" id="DejaVuSans-109"/>
     <path d="M 54.890625 33.015625 
L 54.890625 0 
L 45.90625 0 
L 45.90625 32.71875 
Q 45.90625 40.484375 42.875 44.328125 
Q 39.84375 48.1875 33.796875 48.1875 
Q 26.515625 48.1875 22.3125 43.546875 
Q 18.109375 38.921875 18.109375 30.90625 
L 18.109375 0 
L 9.078125 0 
L 9.078125 54.6875 
L 18.109375 54.6875 
L 18.109375 46.1875 
Q 21.34375 51.125 25.703125 53.5625 
Q 30.078125 56 35.796875 56 
Q 45.21875 56 50.046875 50.171875 
Q 54.890625 44.34375 54.890625 33.015625 
z
" id="DejaVuSans-110"/>
     <path d="M 45.40625 27.984375 
Q 45.40625 37.75 41.375 43.109375 
Q 37.359375 48.484375 30.078125 48.484375 
Q 22.859375 48.484375 18.828125 43.109375 
Q 14.796875 37.75 14.796875 27.984375 
Q 14.796875 18.265625 18.828125 12.890625 
Q 22.859375 7.515625 30.078125 7.515625 
Q 37.359375 7.515625 41.375 12.890625 
Q 45.40625 18.265625 45.40625 27.984375 
z
M 54.390625 6.78125 
Q 54.390625 -7.171875 48.1875 -13.984375 
Q 42 -20.796875 29.203125 -20.796875 
Q 24.46875 -20.796875 20.265625 -20.09375 
Q 16.0625 -19.390625 12.109375 -17.921875 
L 12.109375 -9.1875 
Q 16.0625 -11.328125 19.921875 -12.34375 
Q 23.78125 -13.375 27.78125 -13.375 
Q 36.625 -13.375 41.015625 -8.765625 
Q 45.40625 -4.15625 45.40625 5.171875 
L 45.40625 9.625 
Q 42.625 4.78125 38.28125 2.390625 
Q 33.9375 0 27.875 0 
Q 17.828125 0 11.671875 7.65625 
Q 5.515625 15.328125 5.515625 27.984375 
Q 5.515625 40.671875 11.671875 48.328125 
Q 17.828125 56 27.875 56 
Q 33.9375 56 38.28125 53.609375 
Q 42.625 51.21875 45.40625 46.390625 
L 45.40625 54.6875 
L 54.390625 54.6875 
z
" id="DejaVuSans-103"/>
     <path d="M 19.671875 64.796875 
L 19.671875 37.40625 
L 32.078125 37.40625 
Q 38.96875 37.40625 42.71875 40.96875 
Q 46.484375 44.53125 46.484375 51.125 
Q 46.484375 57.671875 42.71875 61.234375 
Q 38.96875 64.796875 32.078125 64.796875 
z
M 9.8125 72.90625 
L 32.078125 72.90625 
Q 44.34375 72.90625 50.609375 67.359375 
Q 56.890625 61.8125 56.890625 51.125 
Q 56.890625 40.328125 50.609375 34.8125 
Q 44.34375 29.296875 32.078125 29.296875 
L 19.671875 29.296875 
L 19.671875 0 
L 9.8125 0 
z
" id="DejaVuSans-80"/>
    </defs>
    <g transform="translate(66.056042 243.117305)rotate(-323.012071)scale(0.1 -0.1)">
     <use xlink:href="#DejaVuSans-71"/>
     <use x="77.490234" xlink:href="#DejaVuSans-108"/>
     <use x="105.273438" xlink:href="#DejaVuSans-111"/>
     <use x="166.455078" xlink:href="#DejaVuSans-98"/>
     <use x="229.931641" xlink:href="#DejaVuSans-97"/>
     <use x="291.210938" xlink:href="#DejaVuSans-108"/>
     <use x="318.994141" xlink:href="#DejaVuSans-32"/>
     <use x="350.78125" xlink:href="#DejaVuSans-87"/>
     <use x="443.283203" xlink:href="#DejaVuSans-97"/>
     <use x="504.5625" xlink:href="#DejaVuSans-114"/>
     <use x="543.925781" xlink:href="#DejaVuSans-109"/>
     <use x="641.337891" xlink:href="#DejaVuSans-105"/>
     <use x="669.121094" xlink:href="#DejaVuSans-110"/>
     <use x="732.5" xlink:href="#DejaVuSans-103"/>
     <use x="795.976562" xlink:href="#DejaVuSans-32"/>
     <use x="827.763672" xlink:href="#DejaVuSans-80"/>
     <use x="884.441406" xlink:href="#DejaVuSans-111"/>
     <use x="945.623047" xlink:href="#DejaVuSans-116"/>
     <use x="984.832031" xlink:href="#DejaVuSans-101"/>
     <use x="1046.355469" xlink:href="#DejaVuSans-110"/>
     <use x="1109.734375" xlink:href="#DejaVuSans-116"/>
     <use x="1148.943359" xlink:href="#DejaVuSans-105"/>
     <use x="1176.726562" xlink:href="#DejaVuSans-97"/>
     <use x="1238.005859" xlink:href="#DejaVuSans-108"/>
    </g>
    <!--  (kgCO2eq/house-yr) -->
    <defs>
     <path d="M 9.078125 75.984375 
L 18.109375 75.984375 
L 18.109375 31.109375 
L 44.921875 54.6875 
L 56.390625 54.6875 
L 27.390625 29.109375 
L 57.625 0 
L 45.90625 0 
L 18.109375 26.703125 
L 18.109375 0 
L 9.078125 0 
z
" id="DejaVuSans-107"/>
     <path d="M 39.40625 66.21875 
Q 28.65625 66.21875 22.328125 58.203125 
Q 16.015625 50.203125 16.015625 36.375 
Q 16.015625 22.609375 22.328125 14.59375 
Q 28.65625 6.59375 39.40625 6.59375 
Q 50.140625 6.59375 56.421875 14.59375 
Q 62.703125 22.609375 62.703125 36.375 
Q 62.703125 50.203125 56.421875 58.203125 
Q 50.140625 66.21875 39.40625 66.21875 
z
M 39.40625 74.21875 
Q 54.734375 74.21875 63.90625 63.9375 
Q 73.09375 53.65625 73.09375 36.375 
Q 73.09375 19.140625 63.90625 8.859375 
Q 54.734375 -1.421875 39.40625 -1.421875 
Q 24.03125 -1.421875 14.8125 8.828125 
Q 5.609375 19.09375 5.609375 36.375 
Q 5.609375 53.65625 14.8125 63.9375 
Q 24.03125 74.21875 39.40625 74.21875 
z
" id="DejaVuSans-79"/>
     <path d="M 14.796875 27.296875 
Q 14.796875 17.390625 18.875 11.75 
Q 22.953125 6.109375 30.078125 6.109375 
Q 37.203125 6.109375 41.296875 11.75 
Q 45.40625 17.390625 45.40625 27.296875 
Q 45.40625 37.203125 41.296875 42.84375 
Q 37.203125 48.484375 30.078125 48.484375 
Q 22.953125 48.484375 18.875 42.84375 
Q 14.796875 37.203125 14.796875 27.296875 
z
M 45.40625 8.203125 
Q 42.578125 3.328125 38.25 0.953125 
Q 33.9375 -1.421875 27.875 -1.421875 
Q 17.96875 -1.421875 11.734375 6.484375 
Q 5.515625 14.40625 5.515625 27.296875 
Q 5.515625 40.1875 11.734375 48.09375 
Q 17.96875 56 27.875 56 
Q 33.9375 56 38.25 53.625 
Q 42.578125 51.265625 45.40625 46.390625 
L 45.40625 54.6875 
L 54.390625 54.6875 
L 54.390625 -20.796875 
L 45.40625 -20.796875 
z
" id="DejaVuSans-113"/>
    </defs>
    <g transform="translate(68.404836 258.905427)rotate(-323.012071)scale(0.1 -0.1)">
     <use xlink:href="#DejaVuSans-32"/>
     <use x="31.787109" xlink:href="#DejaVuSans-40"/>
     <use x="70.800781" xlink:href="#DejaVuSans-107"/>
     <use x="128.710938" xlink:href="#DejaVuSans-103"/>
     <use x="192.1875" xlink:href="#DejaVuSans-67"/>
     <use x="262.011719" xlink:href="#DejaVuSans-79"/>
     <use x="340.722656" xlink:href="#DejaVuSans-50"/>
     <use x="404.345703" xlink:href="#DejaVuSans-101"/>
     <use x="465.869141" xlink:href="#DejaVuSans-113"/>
     <use x="529.345703" xlink:href="#DejaVuSans-47"/>
     <use x="563.037109" xlink:href="#DejaVuSans-104"/>
     <use x="626.416016" xlink:href="#DejaVuSans-111"/>
     <use x="687.597656" xlink:href="#DejaVuSans-117"/>
     <use x="750.976562" xlink:href="#DejaVuSans-115"/>
     <use x="803.076172" xlink:href="#DejaVuSans-101"/>
     <use x="864.599609" xlink:href="#DejaVuSans-45"/>
     <use x="898.933594" xlink:href="#DejaVuSans-121"/>
     <use x="958.113281" xlink:href="#DejaVuSans-114"/>
     <use x="999.226562" xlink:href="#DejaVuSans-41"/>
    </g>
   </g>
   <g id="Line3DCollection_2">
    <path d="M 367.068607 106.178426 
L 362.187443 246.51765 
L 178.866763 274.235708 
" style="fill:none;stroke:#b0b0b0;stroke-width:0.8;"/>
    <path d="M 355.277394 100.62731 
L 350.898456 239.728465 
L 169.080652 266.864576 
" style="fill:none;stroke:#b0b0b0;stroke-width:0.8;"/>
    <path d="M 343.736981 95.194266 
L 339.840479 233.078211 
L 159.50307 259.650514 
" style="fill:none;stroke:#b0b0b0;stroke-width:0.8;"/>
    <path d="M 332.43945 89.875568 
L 329.006495 226.562664 
L 150.127422 252.588553 
" style="fill:none;stroke:#b0b0b0;stroke-width:0.8;"/>
    <path d="M 321.377212 84.667642 
L 318.389766 220.177775 
L 140.947388 245.673933 
" style="fill:none;stroke:#b0b0b0;stroke-width:0.8;"/>
    <path d="M 310.542993 79.567064 
L 307.983821 213.91965 
L 131.95691 238.902091 
" style="fill:none;stroke:#b0b0b0;stroke-width:0.8;"/>
    <path d="M 299.929816 74.570548 
L 297.782444 207.784554 
L 123.150176 232.268649 
" style="fill:none;stroke:#b0b0b0;stroke-width:0.8;"/>
    <path d="M 289.530982 69.674942 
L 287.779663 201.768892 
L 114.52161 225.769408 
" style="fill:none;stroke:#b0b0b0;stroke-width:0.8;"/>
   </g>
   <g id="xtick_8">
    <g id="line2d_10">
     <path d="M 180.394709 274.004683 
L 175.807775 274.698226 
" style="fill:none;stroke:#000000;stroke-linecap:square;stroke-width:0.8;"/>
    </g>
    <g id="text_10">
     <!-- −1.0 -->
     <defs>
      <path d="M 10.59375 35.5 
L 73.1875 35.5 
L 73.1875 27.203125 
L 10.59375 27.203125 
z
" id="DejaVuSans-8722"/>
     </defs>
     <g transform="translate(153.363527 293.765765)scale(0.1 -0.1)">
      <use xlink:href="#DejaVuSans-8722"/>
      <use x="83.789062" xlink:href="#DejaVuSans-49"/>
      <use x="147.412109" xlink:href="#DejaVuSans-46"/>
      <use x="179.199219" xlink:href="#DejaVuSans-48"/>
     </g>
    </g>
   </g>
   <g id="xtick_9">
    <g id="line2d_11">
     <path d="M 170.595416 266.6385 
L 166.048087 267.317183 
" style="fill:none;stroke:#000000;stroke-linecap:square;stroke-width:0.8;"/>
    </g>
    <g id="text_11">
     <!-- −0.5 -->
     <g transform="translate(143.720056 286.265165)scale(0.1 -0.1)">
      <use xlink:href="#DejaVuSans-8722"/>
      <use x="83.789062" xlink:href="#DejaVuSans-48"/>
      <use x="147.412109" xlink:href="#DejaVuSans-46"/>
      <use x="179.199219" xlink:href="#DejaVuSans-53"/>
     </g>
    </g>
   </g>
   <g id="xtick_10">
    <g id="line2d_12">
     <path d="M 161.004864 259.429228 
L 156.496503 260.093525 
" style="fill:none;stroke:#000000;stroke-linecap:square;stroke-width:0.8;"/>
    </g>
    <g id="text_12">
     <!-- 0.0 -->
     <g transform="translate(138.471944 278.924413)scale(0.1 -0.1)">
      <use xlink:href="#DejaVuSans-48"/>
      <use x="63.623047" xlink:href="#DejaVuSans-46"/>
      <use x="95.410156" xlink:href="#DejaVuSans-48"/>
     </g>
    </g>
   </g>
   <g id="xtick_11">
    <g id="line2d_13">
     <path d="M 151.616454 252.371907 
L 147.146436 253.022269 
" style="fill:none;stroke:#000000;stroke-linecap:square;stroke-width:0.8;"/>
    </g>
    <g id="text_13">
     <!-- 0.5 -->
     <g transform="translate(129.233004 271.738454)scale(0.1 -0.1)">
      <use xlink:href="#DejaVuSans-48"/>
      <use x="63.623047" xlink:href="#DejaVuSans-46"/>
      <use x="95.410156" xlink:href="#DejaVuSans-53"/>
     </g>
    </g>
   </g>
   <g id="xtick_12">
    <g id="line2d_14">
     <path d="M 142.423861 245.461783 
L 137.991576 246.098645 
" style="fill:none;stroke:#000000;stroke-linecap:square;stroke-width:0.8;"/>
    </g>
    <g id="text_14">
     <!-- 1.0 -->
     <g transform="translate(120.18685 264.702442)scale(0.1 -0.1)">
      <use xlink:href="#DejaVuSans-49"/>
      <use x="63.623047" xlink:href="#DejaVuSans-46"/>
      <use x="95.410156" xlink:href="#DejaVuSans-48"/>
     </g>
    </g>
   </g>
   <g id="xtick_13">
    <g id="line2d_15">
     <path d="M 133.421022 238.694298 
L 129.025872 239.318075 
" style="fill:none;stroke:#000000;stroke-linecap:square;stroke-width:0.8;"/>
    </g>
    <g id="text_15">
     <!-- 1.5 -->
     <g transform="translate(111.32751 257.811732)scale(0.1 -0.1)">
      <use xlink:href="#DejaVuSans-49"/>
      <use x="63.623047" xlink:href="#DejaVuSans-46"/>
      <use x="95.410156" xlink:href="#DejaVuSans-53"/>
     </g>
    </g>
   </g>
   <g id="xtick_14">
    <g id="line2d_16">
     <path d="M 124.602121 232.065081 
L 120.243523 232.676173 
" style="fill:none;stroke:#000000;stroke-linecap:square;stroke-width:0.8;"/>
    </g>
    <g id="text_16">
     <!-- 2.0 -->
     <g transform="translate(102.649257 251.061869)scale(0.1 -0.1)">
      <use xlink:href="#DejaVuSans-50"/>
      <use x="63.623047" xlink:href="#DejaVuSans-46"/>
      <use x="95.410156" xlink:href="#DejaVuSans-48"/>
     </g>
    </g>
   </g>
   <g id="xtick_15">
    <g id="line2d_17">
     <path d="M 115.961579 225.569937 
L 111.638961 226.168726 
" style="fill:none;stroke:#000000;stroke-linecap:square;stroke-width:0.8;"/>
    </g>
    <g id="text_17">
     <!-- 2.5 -->
     <g transform="translate(94.146595 244.44858)scale(0.1 -0.1)">
      <use xlink:href="#DejaVuSans-50"/>
      <use x="63.623047" xlink:href="#DejaVuSans-46"/>
      <use x="95.410156" xlink:href="#DejaVuSans-53"/>
     </g>
    </g>
   </g>
  </g>
  <g id="axis3d_3">
   <g id="line2d_18">
    <path d="M 112.867262 224.523314 
L 107.887035 88.2117 
" style="fill:none;stroke:#000000;stroke-linecap:square;stroke-width:0.8;"/>
   </g>
   <g id="text_18">
    <!-- Circularity -->
    <g transform="translate(58.418028 127.317253)rotate(-272.092405)scale(0.1 -0.1)">
     <use xlink:href="#DejaVuSans-67"/>
     <use x="69.824219" xlink:href="#DejaVuSans-105"/>
     <use x="97.607422" xlink:href="#DejaVuSans-114"/>
     <use x="136.470703" xlink:href="#DejaVuSans-99"/>
     <use x="191.451172" xlink:href="#DejaVuSans-117"/>
     <use x="254.830078" xlink:href="#DejaVuSans-108"/>
     <use x="282.613281" xlink:href="#DejaVuSans-97"/>
     <use x="343.892578" xlink:href="#DejaVuSans-114"/>
     <use x="385.005859" xlink:href="#DejaVuSans-105"/>
     <use x="412.789062" xlink:href="#DejaVuSans-116"/>
     <use x="451.998047" xlink:href="#DejaVuSans-121"/>
    </g>
   </g>
   <g id="Line3DCollection_3">
    <path d="M 112.561469 216.153582 
L 285.96402 192.506313 
L 375.448061 245.602163 
" style="fill:none;stroke:#b0b0b0;stroke-width:0.8;"/>
    <path d="M 112.019446 201.318126 
L 286.146657 178.137172 
L 376.042363 230.196321 
" style="fill:none;stroke:#b0b0b0;stroke-width:0.8;"/>
    <path d="M 111.472829 186.356911 
L 286.330783 163.650862 
L 376.641942 214.653692 
" style="fill:none;stroke:#b0b0b0;stroke-width:0.8;"/>
    <path d="M 110.921559 171.268332 
L 286.516416 149.045943 
L 377.246869 198.972444 
" style="fill:none;stroke:#b0b0b0;stroke-width:0.8;"/>
    <path d="M 110.365576 156.050756 
L 286.703576 134.320953 
L 377.857215 183.150717 
" style="fill:none;stroke:#b0b0b0;stroke-width:0.8;"/>
    <path d="M 109.804819 140.70252 
L 286.892281 119.474404 
L 378.473053 167.186613 
" style="fill:none;stroke:#b0b0b0;stroke-width:0.8;"/>
    <path d="M 109.239226 125.221936 
L 287.08255 104.504786 
L 379.094459 151.078202 
" style="fill:none;stroke:#b0b0b0;stroke-width:0.8;"/>
    <path d="M 108.668736 109.607283 
L 287.274403 89.410561 
L 379.721507 134.823519 
" style="fill:none;stroke:#b0b0b0;stroke-width:0.8;"/>
    <path d="M 108.093283 93.856812 
L 287.467859 74.190168 
L 380.354274 118.420562 
" style="fill:none;stroke:#b0b0b0;stroke-width:0.8;"/>
   </g>
   <g id="xtick_16">
    <g id="line2d_19">
     <path d="M 114.002661 215.957044 
L 109.676368 216.547029 
" style="fill:none;stroke:#000000;stroke-linecap:square;stroke-width:0.8;"/>
    </g>
    <g id="text_19">
     <!-- 0.00 -->
     <g transform="translate(83.694274 221.765413)scale(0.1 -0.1)">
      <use xlink:href="#DejaVuSans-48"/>
      <use x="63.623047" xlink:href="#DejaVuSans-46"/>
      <use x="95.410156" xlink:href="#DejaVuSans-48"/>
      <use x="159.033203" xlink:href="#DejaVuSans-48"/>
     </g>
    </g>
   </g>
   <g id="xtick_17">
    <g id="line2d_20">
     <path d="M 113.46689 201.125433 
L 109.121819 201.703877 
" style="fill:none;stroke:#000000;stroke-linecap:square;stroke-width:0.8;"/>
    </g>
    <g id="text_20">
     <!-- 0.25 -->
     <g transform="translate(83.079367 206.968847)scale(0.1 -0.1)">
      <use xlink:href="#DejaVuSans-48"/>
      <use x="63.623047" xlink:href="#DejaVuSans-46"/>
      <use x="95.410156" xlink:href="#DejaVuSans-50"/>
      <use x="159.033203" xlink:href="#DejaVuSans-53"/>
     </g>
    </g>
   </g>
   <g id="xtick_18">
    <g id="line2d_21">
     <path d="M 112.926579 186.168136 
L 108.562567 186.734821 
" style="fill:none;stroke:#000000;stroke-linecap:square;stroke-width:0.8;"/>
    </g>
    <g id="text_21">
     <!-- 0.50 -->
     <g transform="translate(82.459265 192.047254)scale(0.1 -0.1)">
      <use xlink:href="#DejaVuSans-48"/>
      <use x="63.623047" xlink:href="#DejaVuSans-46"/>
      <use x="95.410156" xlink:href="#DejaVuSans-53"/>
      <use x="159.033203" xlink:href="#DejaVuSans-48"/>
     </g>
    </g>
   </g>
   <g id="xtick_19">
    <g id="line2d_22">
     <path d="M 112.38167 171.083548 
L 107.998551 171.638253 
" style="fill:none;stroke:#000000;stroke-linecap:square;stroke-width:0.8;"/>
    </g>
    <g id="text_22">
     <!-- 0.75 -->
     <defs>
      <path d="M 8.203125 72.90625 
L 55.078125 72.90625 
L 55.078125 68.703125 
L 28.609375 0 
L 18.3125 0 
L 43.21875 64.59375 
L 8.203125 64.59375 
z
" id="DejaVuSans-55"/>
     </defs>
     <g transform="translate(81.833901 176.999043)scale(0.1 -0.1)">
      <use xlink:href="#DejaVuSans-48"/>
      <use x="63.623047" xlink:href="#DejaVuSans-46"/>
      <use x="95.410156" xlink:href="#DejaVuSans-55"/>
      <use x="159.033203" xlink:href="#DejaVuSans-53"/>
     </g>
    </g>
   </g>
   <g id="xtick_20">
    <g id="line2d_23">
     <path d="M 111.832104 155.870038 
L 107.429709 156.412537 
" style="fill:none;stroke:#000000;stroke-linecap:square;stroke-width:0.8;"/>
    </g>
    <g id="text_23">
     <!-- 1.00 -->
     <g transform="translate(81.203207 161.822593)scale(0.1 -0.1)">
      <use xlink:href="#DejaVuSans-49"/>
      <use x="63.623047" xlink:href="#DejaVuSans-46"/>
      <use x="95.410156" xlink:href="#DejaVuSans-48"/>
      <use x="159.033203" xlink:href="#DejaVuSans-48"/>
     </g>
    </g>
   </g>
   <g id="xtick_21">
    <g id="line2d_24">
     <path d="M 111.27782 140.525946 
L 106.85598 141.056008 
" style="fill:none;stroke:#000000;stroke-linecap:square;stroke-width:0.8;"/>
    </g>
    <g id="text_24">
     <!-- 1.25 -->
     <g transform="translate(80.567116 146.51626)scale(0.1 -0.1)">
      <use xlink:href="#DejaVuSans-49"/>
      <use x="63.623047" xlink:href="#DejaVuSans-46"/>
      <use x="95.410156" xlink:href="#DejaVuSans-50"/>
      <use x="159.033203" xlink:href="#DejaVuSans-53"/>
     </g>
    </g>
   </g>
   <g id="xtick_22">
    <g id="line2d_25">
     <path d="M 110.718759 125.049583 
L 106.277301 125.566973 
" style="fill:none;stroke:#000000;stroke-linecap:square;stroke-width:0.8;"/>
    </g>
    <g id="text_25">
     <!-- 1.50 -->
     <g transform="translate(79.925557 131.078369)scale(0.1 -0.1)">
      <use xlink:href="#DejaVuSans-49"/>
      <use x="63.623047" xlink:href="#DejaVuSans-46"/>
      <use x="95.410156" xlink:href="#DejaVuSans-53"/>
      <use x="159.033203" xlink:href="#DejaVuSans-48"/>
     </g>
    </g>
   </g>
   <g id="xtick_23">
    <g id="line2d_26">
     <path d="M 110.154857 109.439232 
L 105.693607 109.94371 
" style="fill:none;stroke:#000000;stroke-linecap:square;stroke-width:0.8;"/>
    </g>
    <g id="text_26">
     <!-- 1.75 -->
     <g transform="translate(79.278461 115.507215)scale(0.1 -0.1)">
      <use xlink:href="#DejaVuSans-49"/>
      <use x="63.623047" xlink:href="#DejaVuSans-46"/>
      <use x="95.410156" xlink:href="#DejaVuSans-55"/>
      <use x="159.033203" xlink:href="#DejaVuSans-53"/>
     </g>
    </g>
   </g>
   <g id="xtick_24">
    <g id="line2d_27">
     <path d="M 109.586052 93.693145 
L 105.104833 94.184466 
" style="fill:none;stroke:#000000;stroke-linecap:square;stroke-width:0.8;"/>
    </g>
    <g id="text_27">
     <!-- 2.00 -->
     <g transform="translate(78.625755 99.801067)scale(0.1 -0.1)">
      <use xlink:href="#DejaVuSans-50"/>
      <use x="63.623047" xlink:href="#DejaVuSans-46"/>
      <use x="95.410156" xlink:href="#DejaVuSans-48"/>
      <use x="159.033203" xlink:href="#DejaVuSans-48"/>
     </g>
    </g>
   </g>
  </g>
  <g id="axes_1">
   <g id="Poly3DCollection_1">
    <path clip-path="url(#p49a59c18fd)" d="M 128.585227 217.948565 
L 163.06106 202.005135 
L 158.181391 204.427228 
z
" style="fill:#7f2704;fill-opacity:0.75;"/>
    <path clip-path="url(#p49a59c18fd)" d="M 158.181391 204.427228 
L 166.451925 181.547733 
L 128.585227 217.948565 
z
" style="fill:#a63603;fill-opacity:0.75;"/>
    <path clip-path="url(#p49a59c18fd)" d="M 166.451925 181.547733 
L 183.185509 147.257777 
L 128.585227 217.948565 
z
" style="fill:#fd8e3d;fill-opacity:0.75;"/>
    <path clip-path="url(#p49a59c18fd)" d="M 163.06106 202.005135 
L 166.451925 181.547733 
L 158.181391 204.427228 
z
" style="fill:#e15307;fill-opacity:0.75;"/>
    <path clip-path="url(#p49a59c18fd)" d="M 183.185509 147.257777 
L 194.06972 134.488193 
L 128.585227 217.948565 
z
" style="fill:#fedcba;fill-opacity:0.75;"/>
    <path clip-path="url(#p49a59c18fd)" d="M 175.148188 175.675689 
L 166.451925 181.547733 
L 163.06106 202.005135 
z
" style="fill:#fc8a38;fill-opacity:0.75;"/>
    <path clip-path="url(#p49a59c18fd)" d="M 183.185509 147.257777 
L 166.451925 181.547733 
L 175.148188 175.675689 
z
" style="fill:#fee0c3;fill-opacity:0.75;"/>
    <path clip-path="url(#p49a59c18fd)" d="M 163.06106 202.005135 
L 192.556804 189.930892 
L 175.148188 175.675689 
z
" style="fill:#fa8330;fill-opacity:0.75;"/>
    <path clip-path="url(#p49a59c18fd)" d="M 163.06106 202.005135 
L 205.231789 189.301289 
L 192.556804 189.930892 
z
" style="fill:#f57521;fill-opacity:0.75;"/>
    <path clip-path="url(#p49a59c18fd)" d="M 194.06972 134.488193 
L 183.185509 147.257777 
L 175.148188 175.675689 
z
" style="fill:#d9e8f5;fill-opacity:0.75;"/>
    <path clip-path="url(#p49a59c18fd)" d="M 193.672217 186.37341 
L 175.148188 175.675689 
L 192.556804 189.930892 
z
" style="fill:#fda761;fill-opacity:0.75;"/>
    <path clip-path="url(#p49a59c18fd)" d="M 194.06972 134.488193 
L 175.148188 175.675689 
L 193.672217 186.37341 
z
" style="fill:#feeddc;fill-opacity:0.75;"/>
    <path clip-path="url(#p49a59c18fd)" d="M 193.672217 186.37341 
L 192.556804 189.930892 
L 205.231789 189.301289 
z
" style="fill:#fd984c;fill-opacity:0.75;"/>
    <path clip-path="url(#p49a59c18fd)" d="M 193.672217 186.37341 
L 210.332892 151.871673 
L 194.06972 134.488193 
z
" style="fill:#e3eef8;fill-opacity:0.75;"/>
    <path clip-path="url(#p49a59c18fd)" d="M 205.231789 189.301289 
L 210.332892 151.871673 
L 193.672217 186.37341 
z
" style="fill:#fdd8b2;fill-opacity:0.75;"/>
    <path clip-path="url(#p49a59c18fd)" d="M 213.336085 180.735942 
L 210.332892 151.871673 
L 205.231789 189.301289 
z
" style="fill:#fedfc0;fill-opacity:0.75;"/>
    <path clip-path="url(#p49a59c18fd)" d="M 205.231789 189.301289 
L 226.866853 189.427647 
L 213.336085 180.735942 
z
" style="fill:#fdad6a;fill-opacity:0.75;"/>
    <path clip-path="url(#p49a59c18fd)" d="M 194.06972 134.488193 
L 210.332892 151.871673 
L 231.414137 139.378482 
z
" style="fill:#8dc1dd;fill-opacity:0.75;"/>
    <path clip-path="url(#p49a59c18fd)" d="M 227.863162 190.290587 
L 213.336085 180.735942 
L 226.866853 189.427647 
z
" style="fill:#fdaf6d;fill-opacity:0.75;"/>
    <path clip-path="url(#p49a59c18fd)" d="M 210.332892 151.871673 
L 213.336085 180.735942 
L 231.414137 139.378482 
z
" style="fill:#d9e8f5;fill-opacity:0.75;"/>
    <path clip-path="url(#p49a59c18fd)" d="M 213.336085 180.735942 
L 227.863162 190.290587 
L 231.414137 139.378482 
z
" style="fill:#feeddc;fill-opacity:0.75;"/>
    <path clip-path="url(#p49a59c18fd)" d="M 226.866853 189.427647 
L 205.231789 189.301289 
L 263.336236 191.539181 
z
" style="fill:#fda761;fill-opacity:0.75;"/>
    <path clip-path="url(#p49a59c18fd)" d="M 252.857883 118.428245 
L 194.06972 134.488193 
L 231.414137 139.378482 
z
" style="fill:#3d8dc3;fill-opacity:0.75;"/>
    <path clip-path="url(#p49a59c18fd)" d="M 231.414137 139.378482 
L 227.863162 190.290587 
L 257.69492 154.054153 
z
" style="fill:#e1edf8;fill-opacity:0.75;"/>
    <path clip-path="url(#p49a59c18fd)" d="M 227.863162 190.290587 
L 257.676782 182.862231 
L 257.69492 154.054153 
z
" style="fill:#fee3c8;fill-opacity:0.75;"/>
    <path clip-path="url(#p49a59c18fd)" d="M 227.863162 190.290587 
L 226.866853 189.427647 
L 263.336236 191.539181 
z
" style="fill:#fda964;fill-opacity:0.75;"/>
    <path clip-path="url(#p49a59c18fd)" d="M 258.573482 185.02984 
L 257.69492 154.054153 
L 257.676782 182.862231 
z
" style="fill:#feead5;fill-opacity:0.75;"/>
    <path clip-path="url(#p49a59c18fd)" d="M 263.336236 191.539181 
L 257.676782 182.862231 
L 227.863162 190.290587 
z
" style="fill:#fdb678;fill-opacity:0.75;"/>
    <path clip-path="url(#p49a59c18fd)" d="M 231.414137 139.378482 
L 257.69492 154.054153 
L 252.809674 118.433968 
z
" style="fill:#5aa3cf;fill-opacity:0.75;"/>
    <path clip-path="url(#p49a59c18fd)" d="M 257.676782 182.862231 
L 263.336236 191.539181 
L 258.573482 185.02984 
z
" style="fill:#fdc38c;fill-opacity:0.75;"/>
    <path clip-path="url(#p49a59c18fd)" d="M 252.857883 118.428245 
L 252.809674 118.433968 
L 257.69492 154.054153 
z
" style="fill:#3282be;fill-opacity:0.75;"/>
    <path clip-path="url(#p49a59c18fd)" d="M 258.573482 185.02984 
L 266.976973 119.994236 
L 257.69492 154.054153 
z
" style="fill:#bbd6eb;fill-opacity:0.75;"/>
    <path clip-path="url(#p49a59c18fd)" d="M 231.414137 139.378482 
L 252.809674 118.433968 
L 252.857883 118.428245 
z
" style="fill:#1b69af;fill-opacity:0.75;"/>
    <path clip-path="url(#p49a59c18fd)" d="M 258.573482 185.02984 
L 263.336236 191.539181 
L 263.408355 191.541855 
z
" style="fill:#fdb87b;fill-opacity:0.75;"/>
    <path clip-path="url(#p49a59c18fd)" d="M 257.69492 154.054153 
L 266.976973 119.994236 
L 252.857883 118.428245 
z
" style="fill:#3282be;fill-opacity:0.75;"/>
    <path clip-path="url(#p49a59c18fd)" d="M 263.408355 191.541855 
L 285.476068 142.352084 
L 258.573482 185.02984 
z
" style="fill:#ffefe0;fill-opacity:0.75;"/>
    <path clip-path="url(#p49a59c18fd)" d="M 258.573482 185.02984 
L 285.476068 142.352084 
L 266.976973 119.994236 
z
" style="fill:#9dc9e1;fill-opacity:0.75;"/>
    <path clip-path="url(#p49a59c18fd)" d="M 263.336236 191.539181 
L 205.231789 189.301289 
L 337.74657 197.994888 
z
" style="fill:#fdab67;fill-opacity:0.75;"/>
    <path clip-path="url(#p49a59c18fd)" d="M 263.408355 191.541855 
L 290.425435 158.18479 
L 285.476068 142.352084 
z
" style="fill:#deebf7;fill-opacity:0.75;"/>
    <path clip-path="url(#p49a59c18fd)" d="M 263.336236 191.539181 
L 303.898364 194.145406 
L 263.408355 191.541855 
z
" style="fill:#fdb171;fill-opacity:0.75;"/>
    <path clip-path="url(#p49a59c18fd)" d="M 302.031021 189.719289 
L 290.425435 158.18479 
L 263.408355 191.541855 
z
" style="fill:#fee4cb;fill-opacity:0.75;"/>
    <path clip-path="url(#p49a59c18fd)" d="M 305.679544 200.373887 
L 290.425435 158.18479 
L 302.031021 189.719289 
z
" style="fill:#fddbb7;fill-opacity:0.75;"/>
    <path clip-path="url(#p49a59c18fd)" d="M 263.408355 191.541855 
L 303.898364 194.145406 
L 302.031021 189.719289 
z
" style="fill:#fdb87b;fill-opacity:0.75;"/>
    <path clip-path="url(#p49a59c18fd)" d="M 304.331302 194.01729 
L 305.679544 200.373887 
L 302.031021 189.719289 
z
" style="fill:#fdab67;fill-opacity:0.75;"/>
    <path clip-path="url(#p49a59c18fd)" d="M 290.425435 158.18479 
L 305.679544 200.373887 
L 306.161797 123.157859 
z
" style="fill:#cfe1f2;fill-opacity:0.75;"/>
    <path clip-path="url(#p49a59c18fd)" d="M 306.161797 123.157859 
L 266.976973 119.994236 
L 285.476068 142.352084 
z
" style="fill:#1b69af;fill-opacity:0.75;"/>
    <path clip-path="url(#p49a59c18fd)" d="M 285.476068 142.352084 
L 290.425435 158.18479 
L 306.161797 123.157859 
z
" style="fill:#5aa3cf;fill-opacity:0.75;"/>
    <path clip-path="url(#p49a59c18fd)" d="M 302.031021 189.719289 
L 303.898364 194.145406 
L 304.331302 194.01729 
z
" style="fill:#fdba7e;fill-opacity:0.75;"/>
    <path clip-path="url(#p49a59c18fd)" d="M 343.188143 111.061227 
L 252.857883 118.428245 
L 266.976973 119.994236 
z
" style="fill:#08306b;fill-opacity:0.75;"/>
    <path clip-path="url(#p49a59c18fd)" d="M 306.161797 123.157859 
L 305.679544 200.373887 
L 332.923939 146.274624 
z
" style="fill:#b6d4e9;fill-opacity:0.75;"/>
    <path clip-path="url(#p49a59c18fd)" d="M 337.74657 197.994888 
L 305.679544 200.373887 
L 304.331302 194.01729 
z
" style="fill:#fda761;fill-opacity:0.75;"/>
    <path clip-path="url(#p49a59c18fd)" d="M 337.74657 197.994888 
L 303.898364 194.145406 
L 263.336236 191.539181 
z
" style="fill:#fdb474;fill-opacity:0.75;"/>
    <path clip-path="url(#p49a59c18fd)" d="M 305.679544 200.373887 
L 337.74657 197.994888 
L 332.923939 146.274624 
z
" style="fill:#fee8d1;fill-opacity:0.75;"/>
    <path clip-path="url(#p49a59c18fd)" d="M 303.898364 194.145406 
L 337.74657 197.994888 
L 304.331302 194.01729 
z
" style="fill:#fdb678;fill-opacity:0.75;"/>
    <path clip-path="url(#p49a59c18fd)" d="M 343.188143 111.061227 
L 266.976973 119.994236 
L 306.161797 123.157859 
z
" style="fill:#08306b;fill-opacity:0.75;"/>
    <path clip-path="url(#p49a59c18fd)" d="M 344.103447 194.099605 
L 342.752957 159.880214 
L 332.923939 146.274624 
z
" style="fill:#d8e7f5;fill-opacity:0.75;"/>
    <path clip-path="url(#p49a59c18fd)" d="M 343.188143 111.061227 
L 332.923939 146.274624 
L 342.752957 159.880214 
z
" style="fill:#3d8dc3;fill-opacity:0.75;"/>
    <path clip-path="url(#p49a59c18fd)" d="M 342.752957 159.880214 
L 344.103447 194.099605 
L 344.136429 194.766492 
z
" style="fill:#fee9d3;fill-opacity:0.75;"/>
    <path clip-path="url(#p49a59c18fd)" d="M 306.161797 123.157859 
L 332.923939 146.274624 
L 343.188143 111.061227 
z
" style="fill:#0a539e;fill-opacity:0.75;"/>
    <path clip-path="url(#p49a59c18fd)" d="M 332.923939 146.274624 
L 337.74657 197.994888 
L 344.103447 194.099605 
z
" style="fill:#fff1e4;fill-opacity:0.75;"/>
    <path clip-path="url(#p49a59c18fd)" d="M 344.136429 194.766492 
L 344.103447 194.099605 
L 344.44504 198.625953 
z
" style="fill:#fdc38c;fill-opacity:0.75;"/>
    <path clip-path="url(#p49a59c18fd)" d="M 344.103447 194.099605 
L 337.74657 197.994888 
L 344.44504 198.625953 
z
" style="fill:#fdbe85;fill-opacity:0.75;"/>
   </g>
   <g id="Path3DCollection_1">
    <defs>
     <path d="M 0 0.790569 
C 0.209661 0.790569 0.410764 0.70727 0.559017 0.559017 
C 0.70727 0.410764 0.790569 0.209661 0.790569 0 
C 0.790569 -0.209661 0.70727 -0.410764 0.559017 -0.559017 
C 0.410764 -0.70727 0.209661 -0.790569 0 -0.790569 
C -0.209661 -0.790569 -0.410764 -0.70727 -0.559017 -0.559017 
C -0.70727 -0.410764 -0.790569 -0.209661 -0.790569 0 
C -0.790569 0.209661 -0.70727 0.410764 -0.559017 0.559017 
C -0.410764 0.70727 -0.209661 0.790569 0 0.790569 
z
" id="C0_0_c5ea13ccb1"/>
    </defs>
    <g clip-path="url(#p49a59c18fd)">
     <use style="fill-opacity:0.7;stroke:#000000;stroke-opacity:0.7;" x="343.188143" xlink:href="#C0_0_c5ea13ccb1" y="111.061227"/>
    </g>
    <g clip-path="url(#p49a59c18fd)">
     <use style="fill-opacity:0.7;stroke:#000000;stroke-opacity:0.7;" x="344.44504" xlink:href="#C0_0_c5ea13ccb1" y="198.625953"/>
    </g>
    <g clip-path="url(#p49a59c18fd)">
     <use style="fill-opacity:0.7;stroke:#000000;stroke-opacity:0.7;" x="128.585227" xlink:href="#C0_0_c5ea13ccb1" y="217.948565"/>
    </g>
    <g clip-path="url(#p49a59c18fd)">
     <use style="fill-opacity:0.7;stroke:#000000;stroke-opacity:0.7;" x="344.103447" xlink:href="#C0_0_c5ea13ccb1" y="194.099605"/>
    </g>
    <g clip-path="url(#p49a59c18fd)">
     <use style="fill-opacity:0.7;stroke:#000000;stroke-opacity:0.7;" x="303.898364" xlink:href="#C0_0_c5ea13ccb1" y="194.145406"/>
    </g>
    <g clip-path="url(#p49a59c18fd)">
     <use style="fill-opacity:0.7;stroke:#000000;stroke-opacity:0.7;" x="263.336236" xlink:href="#C0_0_c5ea13ccb1" y="191.539181"/>
    </g>
    <g clip-path="url(#p49a59c18fd)">
     <use style="fill-opacity:0.7;stroke:#000000;stroke-opacity:0.7;" x="226.866853" xlink:href="#C0_0_c5ea13ccb1" y="189.427647"/>
    </g>
    <g clip-path="url(#p49a59c18fd)">
     <use style="fill-opacity:0.7;stroke:#000000;stroke-opacity:0.7;" x="192.556804" xlink:href="#C0_0_c5ea13ccb1" y="189.930892"/>
    </g>
    <g clip-path="url(#p49a59c18fd)">
     <use style="fill-opacity:0.7;stroke:#000000;stroke-opacity:0.7;" x="158.181391" xlink:href="#C0_0_c5ea13ccb1" y="204.427228"/>
    </g>
    <g clip-path="url(#p49a59c18fd)">
     <use style="fill-opacity:0.7;stroke:#000000;stroke-opacity:0.7;" x="337.74657" xlink:href="#C0_0_c5ea13ccb1" y="197.994888"/>
    </g>
    <g clip-path="url(#p49a59c18fd)">
     <use style="fill-opacity:0.7;stroke:#000000;stroke-opacity:0.7;" x="304.331302" xlink:href="#C0_0_c5ea13ccb1" y="194.01729"/>
    </g>
    <g clip-path="url(#p49a59c18fd)">
     <use style="fill-opacity:0.7;stroke:#000000;stroke-opacity:0.7;" x="263.408355" xlink:href="#C0_0_c5ea13ccb1" y="191.541855"/>
    </g>
    <g clip-path="url(#p49a59c18fd)">
     <use style="fill-opacity:0.7;stroke:#000000;stroke-opacity:0.7;" x="227.863162" xlink:href="#C0_0_c5ea13ccb1" y="190.290587"/>
    </g>
    <g clip-path="url(#p49a59c18fd)">
     <use style="fill-opacity:0.7;stroke:#000000;stroke-opacity:0.7;" x="193.672217" xlink:href="#C0_0_c5ea13ccb1" y="186.37341"/>
    </g>
    <g clip-path="url(#p49a59c18fd)">
     <use style="fill-opacity:0.7;stroke:#000000;stroke-opacity:0.7;" x="166.451925" xlink:href="#C0_0_c5ea13ccb1" y="181.547733"/>
    </g>
    <g clip-path="url(#p49a59c18fd)">
     <use style="fill-opacity:0.7;stroke:#000000;stroke-opacity:0.7;" x="342.752957" xlink:href="#C0_0_c5ea13ccb1" y="159.880214"/>
    </g>
    <g clip-path="url(#p49a59c18fd)">
     <use style="fill-opacity:0.7;stroke:#000000;stroke-opacity:0.7;" x="290.425435" xlink:href="#C0_0_c5ea13ccb1" y="158.18479"/>
    </g>
    <g clip-path="url(#p49a59c18fd)">
     <use style="fill-opacity:0.7;stroke:#000000;stroke-opacity:0.7;" x="257.69492" xlink:href="#C0_0_c5ea13ccb1" y="154.054153"/>
    </g>
    <g clip-path="url(#p49a59c18fd)">
     <use style="fill-opacity:0.7;stroke:#000000;stroke-opacity:0.7;" x="210.332892" xlink:href="#C0_0_c5ea13ccb1" y="151.871673"/>
    </g>
    <g clip-path="url(#p49a59c18fd)">
     <use style="fill-opacity:0.7;stroke:#000000;stroke-opacity:0.7;" x="183.185509" xlink:href="#C0_0_c5ea13ccb1" y="147.257777"/>
    </g>
    <g clip-path="url(#p49a59c18fd)">
     <use style="fill-opacity:0.7;stroke:#000000;stroke-opacity:0.7;" x="306.161797" xlink:href="#C0_0_c5ea13ccb1" y="123.157859"/>
    </g>
    <g clip-path="url(#p49a59c18fd)">
     <use style="fill-opacity:0.7;stroke:#000000;stroke-opacity:0.7;" x="266.976973" xlink:href="#C0_0_c5ea13ccb1" y="119.994236"/>
    </g>
    <g clip-path="url(#p49a59c18fd)">
     <use style="fill-opacity:0.7;stroke:#000000;stroke-opacity:0.7;" x="252.857883" xlink:href="#C0_0_c5ea13ccb1" y="118.428245"/>
    </g>
    <g clip-path="url(#p49a59c18fd)">
     <use style="fill-opacity:0.7;stroke:#000000;stroke-opacity:0.7;" x="252.809674" xlink:href="#C0_0_c5ea13ccb1" y="118.433968"/>
    </g>
    <g clip-path="url(#p49a59c18fd)">
     <use style="fill-opacity:0.7;stroke:#000000;stroke-opacity:0.7;" x="344.103447" xlink:href="#C0_0_c5ea13ccb1" y="194.099605"/>
    </g>
    <g clip-path="url(#p49a59c18fd)">
     <use style="fill-opacity:0.7;stroke:#000000;stroke-opacity:0.7;" x="305.679544" xlink:href="#C0_0_c5ea13ccb1" y="200.373887"/>
    </g>
    <g clip-path="url(#p49a59c18fd)">
     <use style="fill-opacity:0.7;stroke:#000000;stroke-opacity:0.7;" x="257.676782" xlink:href="#C0_0_c5ea13ccb1" y="182.862231"/>
    </g>
    <g clip-path="url(#p49a59c18fd)">
     <use style="fill-opacity:0.7;stroke:#000000;stroke-opacity:0.7;" x="205.231789" xlink:href="#C0_0_c5ea13ccb1" y="189.301289"/>
    </g>
    <g clip-path="url(#p49a59c18fd)">
     <use style="fill-opacity:0.7;stroke:#000000;stroke-opacity:0.7;" x="163.06106" xlink:href="#C0_0_c5ea13ccb1" y="202.005135"/>
    </g>
    <g clip-path="url(#p49a59c18fd)">
     <use style="fill-opacity:0.7;stroke:#000000;stroke-opacity:0.7;" x="344.136429" xlink:href="#C0_0_c5ea13ccb1" y="194.766492"/>
    </g>
    <g clip-path="url(#p49a59c18fd)">
     <use style="fill-opacity:0.7;stroke:#000000;stroke-opacity:0.7;" x="302.031021" xlink:href="#C0_0_c5ea13ccb1" y="189.719289"/>
    </g>
    <g clip-path="url(#p49a59c18fd)">
     <use style="fill-opacity:0.7;stroke:#000000;stroke-opacity:0.7;" x="258.573482" xlink:href="#C0_0_c5ea13ccb1" y="185.02984"/>
    </g>
    <g clip-path="url(#p49a59c18fd)">
     <use style="fill-opacity:0.7;stroke:#000000;stroke-opacity:0.7;" x="213.336085" xlink:href="#C0_0_c5ea13ccb1" y="180.735942"/>
    </g>
    <g clip-path="url(#p49a59c18fd)">
     <use style="fill-opacity:0.7;stroke:#000000;stroke-opacity:0.7;" x="175.148188" xlink:href="#C0_0_c5ea13ccb1" y="175.675689"/>
    </g>
    <g clip-path="url(#p49a59c18fd)">
     <use style="fill-opacity:0.7;stroke:#000000;stroke-opacity:0.7;" x="332.923939" xlink:href="#C0_0_c5ea13ccb1" y="146.274624"/>
    </g>
    <g clip-path="url(#p49a59c18fd)">
     <use style="fill-opacity:0.7;stroke:#000000;stroke-opacity:0.7;" x="285.476068" xlink:href="#C0_0_c5ea13ccb1" y="142.352084"/>
    </g>
    <g clip-path="url(#p49a59c18fd)">
     <use style="fill-opacity:0.7;stroke:#000000;stroke-opacity:0.7;" x="231.414137" xlink:href="#C0_0_c5ea13ccb1" y="139.378482"/>
    </g>
    <g clip-path="url(#p49a59c18fd)">
     <use style="fill-opacity:0.7;stroke:#000000;stroke-opacity:0.7;" x="194.06972" xlink:href="#C0_0_c5ea13ccb1" y="134.488193"/>
    </g>
   </g>
  </g>
 </g>
 <defs>
  <clipPath id="p49a59c18fd">
   <rect height="266.112" width="357.12" x="57.6" y="41.472"/>
  </clipPath>
 </defs>
</svg>
