<?xml version="1.0" encoding="utf-8" standalone="no"?>
<!DOCTYPE svg PUBLIC "-//W3C//DTD SVG 1.1//EN"
  "http://www.w3.org/Graphics/SVG/1.1/DTD/svg11.dtd">
<!-- Created with matplotlib (https://matplotlib.org/) -->
<svg height="345.6pt" version="1.1" viewBox="0 0 460.8 345.6" width="460.8pt" xmlns="http://www.w3.org/2000/svg" xmlns:xlink="http://www.w3.org/1999/xlink">
 <metadata>
  <rdf:RDF xmlns:cc="http://creativecommons.org/ns#" xmlns:dc="http://purl.org/dc/elements/1.1/" xmlns:rdf="http://www.w3.org/1999/02/22-rdf-syntax-ns#">
   <cc:Work>
    <dc:type rdf:resource="http://purl.org/dc/dcmitype/StillImage"/>
    <dc:date>2022-10-26T01:21:50.455118</dc:date>
    <dc:format>image/svg+xml</dc:format>
    <dc:creator>
     <cc:Agent>
      <dc:title>Matplotlib v3.3.4, https://matplotlib.org/</dc:title>
     </cc:Agent>
    </dc:creator>
   </cc:Work>
  </rdf:RDF>
 </metadata>
 <defs>
  <style type="text/css">*{stroke-linecap:butt;stroke-linejoin:round;}</style>
 </defs>
 <g id="figure_1">
  <g id="patch_1">
   <path d="M 0 345.6 
L 460.8 345.6 
L 460.8 0 
L 0 0 
z
" style="fill:#ffffff;"/>
  </g>
  <g id="axes_1">
   <g id="patch_2">
    <path d="M 57.6 307.584 
L 414.72 307.584 
L 414.72 41.472 
L 57.6 41.472 
z
" style="fill:#ffffff;"/>
   </g>
   <g id="PathCollection_1">
    <path clip-path="url(#p8de2973c33)" d="M 398.487273 62.957755 
C 400.977465 62.957755 403.366 61.968391 405.126832 60.207559 
C 406.887664 58.446728 407.877028 56.058192 407.877028 53.568 
C 407.877028 51.077808 406.887664 48.689272 405.126832 46.928441 
C 403.366 45.167609 400.977465 44.178245 398.487273 44.178245 
C 395.997081 44.178245 393.608545 45.167609 391.847713 46.928441 
C 390.086881 48.689272 389.097518 51.077808 389.097518 53.568 
C 389.097518 56.058192 390.086881 58.446728 391.847713 60.207559 
C 393.608545 61.968391 395.997081 62.957755 398.487273 62.957755 
z
" style="fill:#08306b;fill-opacity:0.7;stroke:#000000;stroke-opacity:0.7;"/>
    <path clip-path="url(#p8de2973c33)" d="M 168.895478 230.10789 
C 170.262303 230.10789 171.573331 229.564845 172.539823 228.598353 
C 173.506314 227.631861 174.04936 226.320834 174.04936 224.954008 
C 174.04936 223.587183 173.506314 222.276155 172.539823 221.309663 
C 171.573331 220.343172 170.262303 219.800126 168.895478 219.800126 
C 167.528652 219.800126 166.217625 220.343172 165.251133 221.309663 
C 164.284641 222.276155 163.741596 223.587183 163.741596 224.954008 
C 163.741596 226.320834 164.284641 227.631861 165.251133 228.598353 
C 166.217625 229.564845 167.528652 230.10789 168.895478 230.10789 
z
" style="fill:#c34002;fill-opacity:0.7;stroke:#000000;stroke-opacity:0.7;"/>
    <path clip-path="url(#p8de2973c33)" d="M 185.801494 299.915753 
C 186.975748 299.915753 188.102065 299.449217 188.932388 298.618894 
C 189.762711 297.788572 190.229247 296.662254 190.229247 295.488 
C 190.229247 294.313746 189.762711 293.187428 188.932388 292.357106 
C 188.102065 291.526783 186.975748 291.060247 185.801494 291.060247 
C 184.62724 291.060247 183.500922 291.526783 182.670599 292.357106 
C 181.840276 293.187428 181.37374 294.313746 181.37374 295.488 
C 181.37374 296.662254 181.840276 297.788572 182.670599 298.618894 
C 183.500922 299.449217 184.62724 299.915753 185.801494 299.915753 
z
" style="fill:#7f2704;fill-opacity:0.7;stroke:#000000;stroke-opacity:0.7;"/>
    <path clip-path="url(#p8de2973c33)" d="M 173.648994 208.157975 
C 175.031043 208.157975 176.356673 207.608881 177.333929 206.631625 
C 178.311186 205.654368 178.86028 204.328738 178.86028 202.946689 
C 178.86028 201.56464 178.311186 200.23901 177.333929 199.261754 
C 176.356673 198.284497 175.031043 197.735403 173.648994 197.735403 
C 172.266945 197.735403 170.941315 198.284497 169.964058 199.261754 
C 168.986802 200.23901 168.437708 201.56464 168.437708 202.946689 
C 168.437708 204.328738 168.986802 205.654368 169.964058 206.631625 
C 170.941315 207.608881 172.266945 208.157975 173.648994 208.157975 
z
" style="fill:#cd4401;fill-opacity:0.7;stroke:#000000;stroke-opacity:0.7;"/>
    <path clip-path="url(#p8de2973c33)" d="M 173.648994 211.278595 
C 175.035679 211.278595 176.365756 210.727659 177.34629 209.747125 
C 178.326825 208.76659 178.87776 207.436513 178.87776 206.049828 
C 178.87776 204.663143 178.326825 203.333066 177.34629 202.352532 
C 176.365756 201.371997 175.035679 200.821062 173.648994 200.821062 
C 172.262309 200.821062 170.932232 201.371997 169.951698 202.352532 
C 168.971163 203.333066 168.420227 204.663143 168.420227 206.049828 
C 168.420227 207.436513 168.971163 208.76659 169.951698 209.747125 
C 170.932232 210.727659 172.262309 211.278595 173.648994 211.278595 
z
" style="fill:#cd4401;fill-opacity:0.7;stroke:#000000;stroke-opacity:0.7;"/>
    <path clip-path="url(#p8de2973c33)" d="M 173.648994 208.157975 
C 175.031043 208.157975 176.356673 207.608881 177.333929 206.631625 
C 178.311186 205.654368 178.86028 204.328738 178.86028 202.946689 
C 178.86028 201.56464 178.311186 200.23901 177.333929 199.261754 
C 176.356673 198.284497 175.031043 197.735403 173.648994 197.735403 
C 172.266945 197.735403 170.941315 198.284497 169.964058 199.261754 
C 168.986802 200.23901 168.437708 201.56464 168.437708 202.946689 
C 168.437708 204.328738 168.986802 205.654368 169.964058 206.631625 
C 170.941315 207.608881 172.266945 208.157975 173.648994 208.157975 
z
" style="fill:#cd4401;fill-opacity:0.7;stroke:#000000;stroke-opacity:0.7;"/>
    <path clip-path="url(#p8de2973c33)" d="M 173.648994 212.731282 
C 175.023644 212.731282 176.342177 212.185128 177.314202 211.213103 
C 178.286226 210.241079 178.832381 208.922546 178.832381 207.547895 
C 178.832381 206.173245 178.286226 204.854712 177.314202 203.882687 
C 176.342177 202.910663 175.023644 202.364508 173.648994 202.364508 
C 172.274344 202.364508 170.95581 202.910663 169.983786 203.882687 
C 169.011761 204.854712 168.465607 206.173245 168.465607 207.547895 
C 168.465607 208.922546 169.011761 210.241079 169.983786 211.213103 
C 170.95581 212.185128 172.274344 212.731282 173.648994 212.731282 
z
" style="fill:#ca4302;fill-opacity:0.7;stroke:#000000;stroke-opacity:0.7;"/>
    <path clip-path="url(#p8de2973c33)" d="M 187.179105 279.801164 
C 188.38235 279.801164 189.536475 279.32311 190.387298 278.472287 
C 191.23812 277.621464 191.716175 276.467339 191.716175 275.264094 
C 191.716175 274.060849 191.23812 272.906724 190.387298 272.055902 
C 189.536475 271.205079 188.38235 270.727025 187.179105 270.727025 
C 185.97586 270.727025 184.821735 271.205079 183.970912 272.055902 
C 183.12009 272.906724 182.642036 274.060849 182.642036 275.264094 
C 182.642036 276.467339 183.12009 277.621464 183.970912 278.472287 
C 184.821735 279.32311 185.97586 279.801164 187.179105 279.801164 
z
" style="fill:#862a04;fill-opacity:0.7;stroke:#000000;stroke-opacity:0.7;"/>
    <path clip-path="url(#p8de2973c33)" d="M 220.237992 72.244592 
C 221.833019 72.244592 223.362931 71.610881 224.490785 70.483027 
C 225.618639 69.355173 226.25235 67.82526 226.25235 66.230234 
C 226.25235 64.635207 225.618639 63.105294 224.490785 61.97744 
C 223.362931 60.849587 221.833019 60.215876 220.237992 60.215876 
C 218.642966 60.215876 217.113053 60.849587 215.985199 61.97744 
C 214.857345 63.105294 214.223634 64.635207 214.223634 66.230234 
C 214.223634 67.82526 214.857345 69.355173 215.985199 70.483027 
C 217.113053 71.610881 218.642966 72.244592 220.237992 72.244592 
z
" style="fill:#fb8736;fill-opacity:0.7;stroke:#000000;stroke-opacity:0.7;"/>
    <path clip-path="url(#p8de2973c33)" d="M 225.801423 86.467519 
C 227.403598 86.467519 228.940369 85.830968 230.073278 84.698058 
C 231.206187 83.565149 231.842739 82.028378 231.842739 80.426203 
C 231.842739 78.824027 231.206187 77.287256 230.073278 76.154347 
C 228.940369 75.021438 227.403598 74.384887 225.801423 74.384887 
C 224.199247 74.384887 222.662476 75.021438 221.529567 76.154347 
C 220.396658 77.287256 219.760106 78.824027 219.760106 80.426203 
C 219.760106 82.028378 220.396658 83.565149 221.529567 84.698058 
C 222.662476 85.830968 224.199247 86.467519 225.801423 86.467519 
z
" style="fill:#fd8c3b;fill-opacity:0.7;stroke:#000000;stroke-opacity:0.7;"/>
    <path clip-path="url(#p8de2973c33)" d="M 225.767361 70.828054 
C 227.398198 70.828054 228.96246 70.180116 230.115636 69.02694 
C 231.268812 67.873764 231.916751 66.309502 231.916751 64.678664 
C 231.916751 63.047827 231.268812 61.483565 230.115636 60.330389 
C 228.96246 59.177213 227.398198 58.529274 225.767361 58.529274 
C 224.136523 58.529274 222.572261 59.177213 221.419085 60.330389 
C 220.265909 61.483565 219.617971 63.047827 219.617971 64.678664 
C 219.617971 66.309502 220.265909 67.873764 221.419085 69.02694 
C 222.572261 70.180116 224.136523 70.828054 225.767361 70.828054 
z
" style="fill:#fd9446;fill-opacity:0.7;stroke:#000000;stroke-opacity:0.7;"/>
    <path clip-path="url(#p8de2973c33)" d="M 222.618535 79.053927 
C 224.217415 79.053927 225.751024 78.418685 226.881603 77.288106 
C 228.012182 76.157527 228.647424 74.623918 228.647424 73.025038 
C 228.647424 71.426158 228.012182 69.892549 226.881603 68.76197 
C 225.751024 67.631391 224.217415 66.996149 222.618535 66.996149 
C 221.019655 66.996149 219.486046 67.631391 218.355467 68.76197 
C 217.224888 69.892549 216.589646 71.426158 216.589646 73.025038 
C 216.589646 74.623918 217.224888 76.157527 218.355467 77.288106 
C 219.486046 78.418685 221.019655 79.053927 222.618535 79.053927 
z
" style="fill:#fc8a38;fill-opacity:0.7;stroke:#000000;stroke-opacity:0.7;"/>
    <path clip-path="url(#p8de2973c33)" d="M 187.148828 279.694159 
C 188.352073 279.694159 189.506198 279.216105 190.357021 278.365282 
C 191.207843 277.51446 191.685897 276.360334 191.685897 275.15709 
C 191.685897 273.953845 191.207843 272.79972 190.357021 271.948897 
C 189.506198 271.098074 188.352073 270.62002 187.148828 270.62002 
C 185.945583 270.62002 184.791458 271.098074 183.940635 271.948897 
C 183.089813 272.79972 182.611758 273.953845 182.611758 275.15709 
C 182.611758 276.360334 183.089813 277.51446 183.940635 278.365282 
C 184.791458 279.216105 185.945583 279.694159 187.148828 279.694159 
z
" style="fill:#862a04;fill-opacity:0.7;stroke:#000000;stroke-opacity:0.7;"/>
    <path clip-path="url(#p8de2973c33)" d="M 212.861716 76.840532 
C 214.40332 76.840532 215.881991 76.228046 216.972069 75.137968 
C 218.062147 74.04789 218.674633 72.569219 218.674633 71.027615 
C 218.674633 69.486012 218.062147 68.007341 216.972069 66.917262 
C 215.881991 65.827184 214.40332 65.214699 212.861716 65.214699 
C 211.320113 65.214699 209.841442 65.827184 208.751363 66.917262 
C 207.661285 68.007341 207.0488 69.486012 207.0488 71.027615 
C 207.0488 72.569219 207.661285 74.04789 208.751363 75.137968 
C 209.841442 76.228046 211.320113 76.840532 212.861716 76.840532 
z
" style="fill:#f4731e;fill-opacity:0.7;stroke:#000000;stroke-opacity:0.7;"/>
    <path clip-path="url(#p8de2973c33)" d="M 267.023792 86.19596 
C 268.875567 86.19596 270.651747 85.460242 271.96115 84.150839 
C 273.270552 82.841437 274.00627 81.065257 274.00627 79.213482 
C 274.00627 77.361707 273.270552 75.585527 271.96115 74.276124 
C 270.651747 72.966722 268.875567 72.231004 267.023792 72.231004 
C 265.172017 72.231004 263.395837 72.966722 262.086435 74.276124 
C 260.777032 75.585527 260.041314 77.361707 260.041314 79.213482 
C 260.041314 81.065257 260.777032 82.841437 262.086435 84.150839 
C 263.395837 85.460242 265.172017 86.19596 267.023792 86.19596 
z
" style="fill:#fee2c5;fill-opacity:0.7;stroke:#000000;stroke-opacity:0.7;"/>
    <path clip-path="url(#p8de2973c33)" d="M 262.92502 83.282262 
C 264.770279 83.282262 266.54021 82.549132 267.845005 81.244337 
C 269.1498 79.939542 269.882929 78.169611 269.882929 76.324352 
C 269.882929 74.479093 269.1498 72.709163 267.845005 71.404368 
C 266.54021 70.099572 264.770279 69.366443 262.92502 69.366443 
C 261.079761 69.366443 259.30983 70.099572 258.005035 71.404368 
C 256.70024 72.709163 255.967111 74.479093 255.967111 76.324352 
C 255.967111 78.169611 256.70024 79.939542 258.005035 81.244337 
C 259.30983 82.549132 261.079761 83.282262 262.92502 83.282262 
z
" style="fill:#fee0c3;fill-opacity:0.7;stroke:#000000;stroke-opacity:0.7;"/>
    <path clip-path="url(#p8de2973c33)" d="M 253.251464 68.771853 
C 255.04644 68.771853 256.76814 68.058701 258.03738 66.789461 
C 259.30662 65.520221 260.019772 63.798521 260.019772 62.003544 
C 260.019772 60.208568 259.30662 58.486868 258.03738 57.217628 
C 256.76814 55.948388 255.04644 55.235236 253.251464 55.235236 
C 251.456487 55.235236 249.734787 55.948388 248.465547 57.217628 
C 247.196307 58.486868 246.483155 60.208568 246.483155 62.003544 
C 246.483155 63.798521 247.196307 65.520221 248.465547 66.789461 
C 249.734787 68.058701 251.456487 68.771853 253.251464 68.771853 
z
" style="fill:#fdd2a7;fill-opacity:0.7;stroke:#000000;stroke-opacity:0.7;"/>
    <path clip-path="url(#p8de2973c33)" d="M 187.156397 279.694159 
C 188.359642 279.694159 189.513767 279.216105 190.36459 278.365282 
C 191.215412 277.51446 191.693467 276.360334 191.693467 275.15709 
C 191.693467 273.953845 191.215412 272.79972 190.36459 271.948897 
C 189.513767 271.098074 188.359642 270.62002 187.156397 270.62002 
C 185.953152 270.62002 184.799027 271.098074 183.948205 271.948897 
C 183.097382 272.79972 182.619328 273.953845 182.619328 275.15709 
C 182.619328 276.360334 183.097382 277.51446 183.948205 278.365282 
C 184.799027 279.216105 185.953152 279.694159 187.156397 279.694159 
z
" style="fill:#862a04;fill-opacity:0.7;stroke:#000000;stroke-opacity:0.7;"/>
    <path clip-path="url(#p8de2973c33)" d="M 220.642949 72.305779 
C 222.240014 72.305779 223.771882 71.671259 224.901177 70.541963 
C 226.030472 69.412668 226.664992 67.880801 226.664992 66.283736 
C 226.664992 64.686672 226.030472 63.154804 224.901177 62.025509 
C 223.771882 60.896214 222.240014 60.261693 220.642949 60.261693 
C 219.045885 60.261693 217.514017 60.896214 216.384722 62.025509 
C 215.255427 63.154804 214.620907 64.686672 214.620907 66.283736 
C 214.620907 67.880801 215.255427 69.412668 216.384722 70.541963 
C 217.514017 71.671259 219.045885 72.305779 220.642949 72.305779 
z
" style="fill:#fc8a38;fill-opacity:0.7;stroke:#000000;stroke-opacity:0.7;"/>
    <path clip-path="url(#p8de2973c33)" d="M 266.774005 84.452492 
C 268.612726 84.452492 270.376384 83.721961 271.676556 82.42179 
C 272.976727 81.121618 273.707259 79.357959 273.707259 77.519239 
C 273.707259 75.680519 272.976727 73.91686 271.676556 72.616689 
C 270.376384 71.316517 268.612726 70.585986 266.774005 70.585986 
C 264.935285 70.585986 263.171627 71.316517 261.871455 72.616689 
C 260.571284 73.91686 259.840752 75.680519 259.840752 77.519239 
C 259.840752 79.357959 260.571284 81.121618 261.871455 82.42179 
C 263.171627 83.721961 264.935285 84.452492 266.774005 84.452492 
z
" style="fill:#fedfc0;fill-opacity:0.7;stroke:#000000;stroke-opacity:0.7;"/>
    <path clip-path="url(#p8de2973c33)" d="M 306.671749 86.651801 
C 308.720089 86.651801 310.68481 85.837987 312.133205 84.389591 
C 313.5816 82.941196 314.395414 80.976476 314.395414 78.928136 
C 314.395414 76.879796 313.5816 74.915075 312.133205 73.46668 
C 310.68481 72.018285 308.720089 71.204471 306.671749 71.204471 
C 304.623409 71.204471 302.658688 72.018285 301.210293 73.46668 
C 299.761898 74.915075 298.948084 76.879796 298.948084 78.928136 
C 298.948084 80.976476 299.761898 82.941196 301.210293 84.389591 
C 302.658688 85.837987 304.623409 86.651801 306.671749 86.651801 
z
" style="fill:#d6e6f4;fill-opacity:0.7;stroke:#000000;stroke-opacity:0.7;"/>
    <path clip-path="url(#p8de2973c33)" d="M 200.864387 73.683978 
C 202.330339 73.683978 203.736446 73.101549 204.773031 72.064964 
C 205.809616 71.02838 206.392045 69.622272 206.392045 68.15632 
C 206.392045 66.690368 205.809616 65.28426 204.773031 64.247676 
C 203.736446 63.211091 202.330339 62.628662 200.864387 62.628662 
C 199.398435 62.628662 197.992327 63.211091 196.955743 64.247676 
C 195.919158 65.28426 195.336729 66.690368 195.336729 68.15632 
C 195.336729 69.622272 195.919158 71.02838 196.955743 72.064964 
C 197.992327 73.101549 199.398435 73.683978 200.864387 73.683978 
z
" style="fill:#e5590a;fill-opacity:0.7;stroke:#000000;stroke-opacity:0.7;"/>
    <path clip-path="url(#p8de2973c33)" d="M 187.239659 279.997339 
C 188.442904 279.997339 189.597029 279.519285 190.447852 278.668462 
C 191.298675 277.81764 191.776729 276.663515 191.776729 275.46027 
C 191.776729 274.257025 191.298675 273.1029 190.447852 272.252077 
C 189.597029 271.401255 188.442904 270.9232 187.239659 270.9232 
C 186.036415 270.9232 184.882289 271.401255 184.031467 272.252077 
C 183.180644 273.1029 182.70259 274.257025 182.70259 275.46027 
C 182.70259 276.663515 183.180644 277.81764 184.031467 278.668462 
C 184.882289 279.519285 186.036415 279.997339 187.239659 279.997339 
z
" style="fill:#862a04;fill-opacity:0.7;stroke:#000000;stroke-opacity:0.7;"/>
    <path clip-path="url(#p8de2973c33)" d="M 220.052545 74.604673 
C 221.644426 74.604673 223.171322 73.972212 224.296953 72.846581 
C 225.422583 71.720951 226.055044 70.194055 226.055044 68.602173 
C 226.055044 67.010292 225.422583 65.483395 224.296953 64.357765 
C 223.171322 63.232135 221.644426 62.599674 220.052545 62.599674 
C 218.460663 62.599674 216.933767 63.232135 215.808136 64.357765 
C 214.682506 65.483395 214.050045 67.010292 214.050045 68.602173 
C 214.050045 70.194055 214.682506 71.720951 215.808136 72.846581 
C 216.933767 73.972212 218.460663 74.604673 220.052545 74.604673 
z
" style="fill:#fb8736;fill-opacity:0.7;stroke:#000000;stroke-opacity:0.7;"/>
    <path clip-path="url(#p8de2973c33)" d="M 280.258701 78.179332 
C 282.174277 78.179332 284.011654 77.418266 285.366171 76.063749 
C 286.720688 74.709232 287.481754 72.871855 287.481754 70.956279 
C 287.481754 69.040703 286.720688 67.203326 285.366171 65.848809 
C 284.011654 64.494292 282.174277 63.733225 280.258701 63.733225 
C 278.343125 63.733225 276.505748 64.494292 275.151231 65.848809 
C 273.796714 67.203326 273.035648 69.040703 273.035648 70.956279 
C 273.035648 72.871855 273.796714 74.709232 275.151231 76.063749 
C 276.505748 77.418266 278.343125 78.179332 280.258701 78.179332 
z
" style="fill:#ffefe0;fill-opacity:0.7;stroke:#000000;stroke-opacity:0.7;"/>
    <path clip-path="url(#p8de2973c33)" d="M 264.253431 86.155028 
C 266.061243 86.155028 267.795255 85.436777 269.073571 84.158461 
C 270.351887 82.880145 271.070138 81.146133 271.070138 79.338321 
C 271.070138 77.530509 270.351887 75.796497 269.073571 74.518181 
C 267.795255 73.239865 266.061243 72.521613 264.253431 72.521613 
C 262.445619 72.521613 260.711607 73.239865 259.433291 74.518181 
C 258.154975 75.796497 257.436724 77.530509 257.436724 79.338321 
C 257.436724 81.146133 258.154975 82.880145 259.433291 84.158461 
C 260.711607 85.436777 262.445619 86.155028 264.253431 86.155028 
z
" style="fill:#fdd7af;fill-opacity:0.7;stroke:#000000;stroke-opacity:0.7;"/>
    <path clip-path="url(#p8de2973c33)" d="M 381.149807 66.727311 
C 383.561333 66.727311 385.874414 65.769202 387.579621 64.063995 
C 389.284827 62.358789 390.242936 60.045708 390.242936 57.634182 
C 390.242936 55.222656 389.284827 52.909575 387.579621 51.204369 
C 385.874414 49.499162 383.561333 48.541053 381.149807 48.541053 
C 378.738281 48.541053 376.4252 49.499162 374.719994 51.204369 
C 373.014787 52.909575 372.056678 55.222656 372.056678 57.634182 
C 372.056678 60.045708 373.014787 62.358789 374.719994 64.063995 
C 376.4252 65.769202 378.738281 66.727311 381.149807 66.727311 
z
" style="fill:#0e59a2;fill-opacity:0.7;stroke:#000000;stroke-opacity:0.7;"/>
   </g>
   <g id="matplotlib.axis_1">
    <g id="xtick_1">
     <g id="line2d_1">
      <defs>
       <path d="M 0 0 
L 0 3.5 
" id="mc40816f304" style="stroke:#000000;stroke-width:0.8;"/>
      </defs>
      <g>
       <use style="stroke:#000000;stroke-width:0.8;" x="73.832727" xlink:href="#mc40816f304" y="307.584"/>
      </g>
     </g>
     <g id="text_1">
      <!-- 0 -->
      <g transform="translate(70.651477 322.182437)scale(0.1 -0.1)">
       <defs>
        <path d="M 31.78125 66.40625 
Q 24.171875 66.40625 20.328125 58.90625 
Q 16.5 51.421875 16.5 36.375 
Q 16.5 21.390625 20.328125 13.890625 
Q 24.171875 6.390625 31.78125 6.390625 
Q 39.453125 6.390625 43.28125 13.890625 
Q 47.125 21.390625 47.125 36.375 
Q 47.125 51.421875 43.28125 58.90625 
Q 39.453125 66.40625 31.78125 66.40625 
z
M 31.78125 74.21875 
Q 44.046875 74.21875 50.515625 64.515625 
Q 56.984375 54.828125 56.984375 36.375 
Q 56.984375 17.96875 50.515625 8.265625 
Q 44.046875 -1.421875 31.78125 -1.421875 
Q 19.53125 -1.421875 13.0625 8.265625 
Q 6.59375 17.96875 6.59375 36.375 
Q 6.59375 54.828125 13.0625 64.515625 
Q 19.53125 74.21875 31.78125 74.21875 
z
" id="DejaVuSans-48"/>
       </defs>
       <use xlink:href="#DejaVuSans-48"/>
      </g>
     </g>
    </g>
    <g id="xtick_2">
     <g id="line2d_2">
      <g>
       <use style="stroke:#000000;stroke-width:0.8;" x="149.525657" xlink:href="#mc40816f304" y="307.584"/>
      </g>
     </g>
     <g id="text_2">
      <!-- 2 -->
      <g transform="translate(146.344407 322.182437)scale(0.1 -0.1)">
       <defs>
        <path d="M 19.1875 8.296875 
L 53.609375 8.296875 
L 53.609375 0 
L 7.328125 0 
L 7.328125 8.296875 
Q 12.9375 14.109375 22.625 23.890625 
Q 32.328125 33.6875 34.8125 36.53125 
Q 39.546875 41.84375 41.421875 45.53125 
Q 43.3125 49.21875 43.3125 52.78125 
Q 43.3125 58.59375 39.234375 62.25 
Q 35.15625 65.921875 28.609375 65.921875 
Q 23.96875 65.921875 18.8125 64.3125 
Q 13.671875 62.703125 7.8125 59.421875 
L 7.8125 69.390625 
Q 13.765625 71.78125 18.9375 73 
Q 24.125 74.21875 28.421875 74.21875 
Q 39.75 74.21875 46.484375 68.546875 
Q 53.21875 62.890625 53.21875 53.421875 
Q 53.21875 48.921875 51.53125 44.890625 
Q 49.859375 40.875 45.40625 35.40625 
Q 44.1875 33.984375 37.640625 27.21875 
Q 31.109375 20.453125 19.1875 8.296875 
z
" id="DejaVuSans-50"/>
       </defs>
       <use xlink:href="#DejaVuSans-50"/>
      </g>
     </g>
    </g>
    <g id="xtick_3">
     <g id="line2d_3">
      <g>
       <use style="stroke:#000000;stroke-width:0.8;" x="225.218587" xlink:href="#mc40816f304" y="307.584"/>
      </g>
     </g>
     <g id="text_3">
      <!-- 4 -->
      <g transform="translate(222.037337 322.182437)scale(0.1 -0.1)">
       <defs>
        <path d="M 37.796875 64.3125 
L 12.890625 25.390625 
L 37.796875 25.390625 
z
M 35.203125 72.90625 
L 47.609375 72.90625 
L 47.609375 25.390625 
L 58.015625 25.390625 
L 58.015625 17.1875 
L 47.609375 17.1875 
L 47.609375 0 
L 37.796875 0 
L 37.796875 17.1875 
L 4.890625 17.1875 
L 4.890625 26.703125 
z
" id="DejaVuSans-52"/>
       </defs>
       <use xlink:href="#DejaVuSans-52"/>
      </g>
     </g>
    </g>
    <g id="xtick_4">
     <g id="line2d_4">
      <g>
       <use style="stroke:#000000;stroke-width:0.8;" x="300.911517" xlink:href="#mc40816f304" y="307.584"/>
      </g>
     </g>
     <g id="text_4">
      <!-- 6 -->
      <g transform="translate(297.730267 322.182437)scale(0.1 -0.1)">
       <defs>
        <path d="M 33.015625 40.375 
Q 26.375 40.375 22.484375 35.828125 
Q 18.609375 31.296875 18.609375 23.390625 
Q 18.609375 15.53125 22.484375 10.953125 
Q 26.375 6.390625 33.015625 6.390625 
Q 39.65625 6.390625 43.53125 10.953125 
Q 47.40625 15.53125 47.40625 23.390625 
Q 47.40625 31.296875 43.53125 35.828125 
Q 39.65625 40.375 33.015625 40.375 
z
M 52.59375 71.296875 
L 52.59375 62.3125 
Q 48.875 64.0625 45.09375 64.984375 
Q 41.3125 65.921875 37.59375 65.921875 
Q 27.828125 65.921875 22.671875 59.328125 
Q 17.53125 52.734375 16.796875 39.40625 
Q 19.671875 43.65625 24.015625 45.921875 
Q 28.375 48.1875 33.59375 48.1875 
Q 44.578125 48.1875 50.953125 41.515625 
Q 57.328125 34.859375 57.328125 23.390625 
Q 57.328125 12.15625 50.6875 5.359375 
Q 44.046875 -1.421875 33.015625 -1.421875 
Q 20.359375 -1.421875 13.671875 8.265625 
Q 6.984375 17.96875 6.984375 36.375 
Q 6.984375 53.65625 15.1875 63.9375 
Q 23.390625 74.21875 37.203125 74.21875 
Q 40.921875 74.21875 44.703125 73.484375 
Q 48.484375 72.75 52.59375 71.296875 
z
" id="DejaVuSans-54"/>
       </defs>
       <use xlink:href="#DejaVuSans-54"/>
      </g>
     </g>
    </g>
    <g id="xtick_5">
     <g id="line2d_5">
      <g>
       <use style="stroke:#000000;stroke-width:0.8;" x="376.604447" xlink:href="#mc40816f304" y="307.584"/>
      </g>
     </g>
     <g id="text_5">
      <!-- 8 -->
      <g transform="translate(373.423197 322.182437)scale(0.1 -0.1)">
       <defs>
        <path d="M 31.78125 34.625 
Q 24.75 34.625 20.71875 30.859375 
Q 16.703125 27.09375 16.703125 20.515625 
Q 16.703125 13.921875 20.71875 10.15625 
Q 24.75 6.390625 31.78125 6.390625 
Q 38.8125 6.390625 42.859375 10.171875 
Q 46.921875 13.96875 46.921875 20.515625 
Q 46.921875 27.09375 42.890625 30.859375 
Q 38.875 34.625 31.78125 34.625 
z
M 21.921875 38.8125 
Q 15.578125 40.375 12.03125 44.71875 
Q 8.5 49.078125 8.5 55.328125 
Q 8.5 64.0625 14.71875 69.140625 
Q 20.953125 74.21875 31.78125 74.21875 
Q 42.671875 74.21875 48.875 69.140625 
Q 55.078125 64.0625 55.078125 55.328125 
Q 55.078125 49.078125 51.53125 44.71875 
Q 48 40.375 41.703125 38.8125 
Q 48.828125 37.15625 52.796875 32.3125 
Q 56.78125 27.484375 56.78125 20.515625 
Q 56.78125 9.90625 50.3125 4.234375 
Q 43.84375 -1.421875 31.78125 -1.421875 
Q 19.734375 -1.421875 13.25 4.234375 
Q 6.78125 9.90625 6.78125 20.515625 
Q 6.78125 27.484375 10.78125 32.3125 
Q 14.796875 37.15625 21.921875 38.8125 
z
M 18.3125 54.390625 
Q 18.3125 48.734375 21.84375 45.5625 
Q 25.390625 42.390625 31.78125 42.390625 
Q 38.140625 42.390625 41.71875 45.5625 
Q 45.3125 48.734375 45.3125 54.390625 
Q 45.3125 60.0625 41.71875 63.234375 
Q 38.140625 66.40625 31.78125 66.40625 
Q 25.390625 66.40625 21.84375 63.234375 
Q 18.3125 60.0625 18.3125 54.390625 
z
" id="DejaVuSans-56"/>
       </defs>
       <use xlink:href="#DejaVuSans-56"/>
      </g>
     </g>
    </g>
    <g id="text_6">
     <!-- Global Warming Potential (kgCO2eq/house-yr) -->
     <g transform="translate(120.958437 335.860562)scale(0.1 -0.1)">
      <defs>
       <path d="M 59.515625 10.40625 
L 59.515625 29.984375 
L 43.40625 29.984375 
L 43.40625 38.09375 
L 69.28125 38.09375 
L 69.28125 6.78125 
Q 63.578125 2.734375 56.6875 0.65625 
Q 49.8125 -1.421875 42 -1.421875 
Q 24.90625 -1.421875 15.25 8.5625 
Q 5.609375 18.5625 5.609375 36.375 
Q 5.609375 54.25 15.25 64.234375 
Q 24.90625 74.21875 42 74.21875 
Q 49.125 74.21875 55.546875 72.453125 
Q 61.96875 70.703125 67.390625 67.28125 
L 67.390625 56.78125 
Q 61.921875 61.421875 55.765625 63.765625 
Q 49.609375 66.109375 42.828125 66.109375 
Q 29.4375 66.109375 22.71875 58.640625 
Q 16.015625 51.171875 16.015625 36.375 
Q 16.015625 21.625 22.71875 14.15625 
Q 29.4375 6.6875 42.828125 6.6875 
Q 48.046875 6.6875 52.140625 7.59375 
Q 56.25 8.5 59.515625 10.40625 
z
" id="DejaVuSans-71"/>
       <path d="M 9.421875 75.984375 
L 18.40625 75.984375 
L 18.40625 0 
L 9.421875 0 
z
" id="DejaVuSans-108"/>
       <path d="M 30.609375 48.390625 
Q 23.390625 48.390625 19.1875 42.75 
Q 14.984375 37.109375 14.984375 27.296875 
Q 14.984375 17.484375 19.15625 11.84375 
Q 23.34375 6.203125 30.609375 6.203125 
Q 37.796875 6.203125 41.984375 11.859375 
Q 46.1875 17.53125 46.1875 27.296875 
Q 46.1875 37.015625 41.984375 42.703125 
Q 37.796875 48.390625 30.609375 48.390625 
z
M 30.609375 56 
Q 42.328125 56 49.015625 48.375 
Q 55.71875 40.765625 55.71875 27.296875 
Q 55.71875 13.875 49.015625 6.21875 
Q 42.328125 -1.421875 30.609375 -1.421875 
Q 18.84375 -1.421875 12.171875 6.21875 
Q 5.515625 13.875 5.515625 27.296875 
Q 5.515625 40.765625 12.171875 48.375 
Q 18.84375 56 30.609375 56 
z
" id="DejaVuSans-111"/>
       <path d="M 48.6875 27.296875 
Q 48.6875 37.203125 44.609375 42.84375 
Q 40.53125 48.484375 33.40625 48.484375 
Q 26.265625 48.484375 22.1875 42.84375 
Q 18.109375 37.203125 18.109375 27.296875 
Q 18.109375 17.390625 22.1875 11.75 
Q 26.265625 6.109375 33.40625 6.109375 
Q 40.53125 6.109375 44.609375 11.75 
Q 48.6875 17.390625 48.6875 27.296875 
z
M 18.109375 46.390625 
Q 20.953125 51.265625 25.265625 53.625 
Q 29.59375 56 35.59375 56 
Q 45.5625 56 51.78125 48.09375 
Q 58.015625 40.1875 58.015625 27.296875 
Q 58.015625 14.40625 51.78125 6.484375 
Q 45.5625 -1.421875 35.59375 -1.421875 
Q 29.59375 -1.421875 25.265625 0.953125 
Q 20.953125 3.328125 18.109375 8.203125 
L 18.109375 0 
L 9.078125 0 
L 9.078125 75.984375 
L 18.109375 75.984375 
z
" id="DejaVuSans-98"/>
       <path d="M 34.28125 27.484375 
Q 23.390625 27.484375 19.1875 25 
Q 14.984375 22.515625 14.984375 16.5 
Q 14.984375 11.71875 18.140625 8.90625 
Q 21.296875 6.109375 26.703125 6.109375 
Q 34.1875 6.109375 38.703125 11.40625 
Q 43.21875 16.703125 43.21875 25.484375 
L 43.21875 27.484375 
z
M 52.203125 31.203125 
L 52.203125 0 
L 43.21875 0 
L 43.21875 8.296875 
Q 40.140625 3.328125 35.546875 0.953125 
Q 30.953125 -1.421875 24.3125 -1.421875 
Q 15.921875 -1.421875 10.953125 3.296875 
Q 6 8.015625 6 15.921875 
Q 6 25.140625 12.171875 29.828125 
Q 18.359375 34.515625 30.609375 34.515625 
L 43.21875 34.515625 
L 43.21875 35.40625 
Q 43.21875 41.609375 39.140625 45 
Q 35.0625 48.390625 27.6875 48.390625 
Q 23 48.390625 18.546875 47.265625 
Q 14.109375 46.140625 10.015625 43.890625 
L 10.015625 52.203125 
Q 14.9375 54.109375 19.578125 55.046875 
Q 24.21875 56 28.609375 56 
Q 40.484375 56 46.34375 49.84375 
Q 52.203125 43.703125 52.203125 31.203125 
z
" id="DejaVuSans-97"/>
       <path id="DejaVuSans-32"/>
       <path d="M 3.328125 72.90625 
L 13.28125 72.90625 
L 28.609375 11.28125 
L 43.890625 72.90625 
L 54.984375 72.90625 
L 70.3125 11.28125 
L 85.59375 72.90625 
L 95.609375 72.90625 
L 77.296875 0 
L 64.890625 0 
L 49.515625 63.28125 
L 33.984375 0 
L 21.578125 0 
z
" id="DejaVuSans-87"/>
       <path d="M 41.109375 46.296875 
Q 39.59375 47.171875 37.8125 47.578125 
Q 36.03125 48 33.890625 48 
Q 26.265625 48 22.1875 43.046875 
Q 18.109375 38.09375 18.109375 28.8125 
L 18.109375 0 
L 9.078125 0 
L 9.078125 54.6875 
L 18.109375 54.6875 
L 18.109375 46.1875 
Q 20.953125 51.171875 25.484375 53.578125 
Q 30.03125 56 36.53125 56 
Q 37.453125 56 38.578125 55.875 
Q 39.703125 55.765625 41.0625 55.515625 
z
" id="DejaVuSans-114"/>
       <path d="M 52 44.1875 
Q 55.375 50.25 60.0625 53.125 
Q 64.75 56 71.09375 56 
Q 79.640625 56 84.28125 50.015625 
Q 88.921875 44.046875 88.921875 33.015625 
L 88.921875 0 
L 79.890625 0 
L 79.890625 32.71875 
Q 79.890625 40.578125 77.09375 44.375 
Q 74.3125 48.1875 68.609375 48.1875 
Q 61.625 48.1875 57.5625 43.546875 
Q 53.515625 38.921875 53.515625 30.90625 
L 53.515625 0 
L 44.484375 0 
L 44.484375 32.71875 
Q 44.484375 40.625 41.703125 44.40625 
Q 38.921875 48.1875 33.109375 48.1875 
Q 26.21875 48.1875 22.15625 43.53125 
Q 18.109375 38.875 18.109375 30.90625 
L 18.109375 0 
L 9.078125 0 
L 9.078125 54.6875 
L 18.109375 54.6875 
L 18.109375 46.1875 
Q 21.1875 51.21875 25.484375 53.609375 
Q 29.78125 56 35.6875 56 
Q 41.65625 56 45.828125 52.96875 
Q 50 49.953125 52 44.1875 
z
" id="DejaVuSans-109"/>
       <path d="M 9.421875 54.6875 
L 18.40625 54.6875 
L 18.40625 0 
L 9.421875 0 
z
M 9.421875 75.984375 
L 18.40625 75.984375 
L 18.40625 64.59375 
L 9.421875 64.59375 
z
" id="DejaVuSans-105"/>
       <path d="M 54.890625 33.015625 
L 54.890625 0 
L 45.90625 0 
L 45.90625 32.71875 
Q 45.90625 40.484375 42.875 44.328125 
Q 39.84375 48.1875 33.796875 48.1875 
Q 26.515625 48.1875 22.3125 43.546875 
Q 18.109375 38.921875 18.109375 30.90625 
L 18.109375 0 
L 9.078125 0 
L 9.078125 54.6875 
L 18.109375 54.6875 
L 18.109375 46.1875 
Q 21.34375 51.125 25.703125 53.5625 
Q 30.078125 56 35.796875 56 
Q 45.21875 56 50.046875 50.171875 
Q 54.890625 44.34375 54.890625 33.015625 
z
" id="DejaVuSans-110"/>
       <path d="M 45.40625 27.984375 
Q 45.40625 37.75 41.375 43.109375 
Q 37.359375 48.484375 30.078125 48.484375 
Q 22.859375 48.484375 18.828125 43.109375 
Q 14.796875 37.75 14.796875 27.984375 
Q 14.796875 18.265625 18.828125 12.890625 
Q 22.859375 7.515625 30.078125 7.515625 
Q 37.359375 7.515625 41.375 12.890625 
Q 45.40625 18.265625 45.40625 27.984375 
z
M 54.390625 6.78125 
Q 54.390625 -7.171875 48.1875 -13.984375 
Q 42 -20.796875 29.203125 -20.796875 
Q 24.46875 -20.796875 20.265625 -20.09375 
Q 16.0625 -19.390625 12.109375 -17.921875 
L 12.109375 -9.1875 
Q 16.0625 -11.328125 19.921875 -12.34375 
Q 23.78125 -13.375 27.78125 -13.375 
Q 36.625 -13.375 41.015625 -8.765625 
Q 45.40625 -4.15625 45.40625 5.171875 
L 45.40625 9.625 
Q 42.625 4.78125 38.28125 2.390625 
Q 33.9375 0 27.875 0 
Q 17.828125 0 11.671875 7.65625 
Q 5.515625 15.328125 5.515625 27.984375 
Q 5.515625 40.671875 11.671875 48.328125 
Q 17.828125 56 27.875 56 
Q 33.9375 56 38.28125 53.609375 
Q 42.625 51.21875 45.40625 46.390625 
L 45.40625 54.6875 
L 54.390625 54.6875 
z
" id="DejaVuSans-103"/>
       <path d="M 19.671875 64.796875 
L 19.671875 37.40625 
L 32.078125 37.40625 
Q 38.96875 37.40625 42.71875 40.96875 
Q 46.484375 44.53125 46.484375 51.125 
Q 46.484375 57.671875 42.71875 61.234375 
Q 38.96875 64.796875 32.078125 64.796875 
z
M 9.8125 72.90625 
L 32.078125 72.90625 
Q 44.34375 72.90625 50.609375 67.359375 
Q 56.890625 61.8125 56.890625 51.125 
Q 56.890625 40.328125 50.609375 34.8125 
Q 44.34375 29.296875 32.078125 29.296875 
L 19.671875 29.296875 
L 19.671875 0 
L 9.8125 0 
z
" id="DejaVuSans-80"/>
       <path d="M 18.3125 70.21875 
L 18.3125 54.6875 
L 36.8125 54.6875 
L 36.8125 47.703125 
L 18.3125 47.703125 
L 18.3125 18.015625 
Q 18.3125 11.328125 20.140625 9.421875 
Q 21.96875 7.515625 27.59375 7.515625 
L 36.8125 7.515625 
L 36.8125 0 
L 27.59375 0 
Q 17.1875 0 13.234375 3.875 
Q 9.28125 7.765625 9.28125 18.015625 
L 9.28125 47.703125 
L 2.6875 47.703125 
L 2.6875 54.6875 
L 9.28125 54.6875 
L 9.28125 70.21875 
z
" id="DejaVuSans-116"/>
       <path d="M 56.203125 29.59375 
L 56.203125 25.203125 
L 14.890625 25.203125 
Q 15.484375 15.921875 20.484375 11.0625 
Q 25.484375 6.203125 34.421875 6.203125 
Q 39.59375 6.203125 44.453125 7.46875 
Q 49.3125 8.734375 54.109375 11.28125 
L 54.109375 2.78125 
Q 49.265625 0.734375 44.1875 -0.34375 
Q 39.109375 -1.421875 33.890625 -1.421875 
Q 20.796875 -1.421875 13.15625 6.1875 
Q 5.515625 13.8125 5.515625 26.8125 
Q 5.515625 40.234375 12.765625 48.109375 
Q 20.015625 56 32.328125 56 
Q 43.359375 56 49.78125 48.890625 
Q 56.203125 41.796875 56.203125 29.59375 
z
M 47.21875 32.234375 
Q 47.125 39.59375 43.09375 43.984375 
Q 39.0625 48.390625 32.421875 48.390625 
Q 24.90625 48.390625 20.390625 44.140625 
Q 15.875 39.890625 15.1875 32.171875 
z
" id="DejaVuSans-101"/>
       <path d="M 31 75.875 
Q 24.46875 64.65625 21.28125 53.65625 
Q 18.109375 42.671875 18.109375 31.390625 
Q 18.109375 20.125 21.3125 9.0625 
Q 24.515625 -2 31 -13.1875 
L 23.1875 -13.1875 
Q 15.875 -1.703125 12.234375 9.375 
Q 8.59375 20.453125 8.59375 31.390625 
Q 8.59375 42.28125 12.203125 53.3125 
Q 15.828125 64.359375 23.1875 75.875 
z
" id="DejaVuSans-40"/>
       <path d="M 9.078125 75.984375 
L 18.109375 75.984375 
L 18.109375 31.109375 
L 44.921875 54.6875 
L 56.390625 54.6875 
L 27.390625 29.109375 
L 57.625 0 
L 45.90625 0 
L 18.109375 26.703125 
L 18.109375 0 
L 9.078125 0 
z
" id="DejaVuSans-107"/>
       <path d="M 64.40625 67.28125 
L 64.40625 56.890625 
Q 59.421875 61.53125 53.78125 63.8125 
Q 48.140625 66.109375 41.796875 66.109375 
Q 29.296875 66.109375 22.65625 58.46875 
Q 16.015625 50.828125 16.015625 36.375 
Q 16.015625 21.96875 22.65625 14.328125 
Q 29.296875 6.6875 41.796875 6.6875 
Q 48.140625 6.6875 53.78125 8.984375 
Q 59.421875 11.28125 64.40625 15.921875 
L 64.40625 5.609375 
Q 59.234375 2.09375 53.4375 0.328125 
Q 47.65625 -1.421875 41.21875 -1.421875 
Q 24.65625 -1.421875 15.125 8.703125 
Q 5.609375 18.84375 5.609375 36.375 
Q 5.609375 53.953125 15.125 64.078125 
Q 24.65625 74.21875 41.21875 74.21875 
Q 47.75 74.21875 53.53125 72.484375 
Q 59.328125 70.75 64.40625 67.28125 
z
" id="DejaVuSans-67"/>
       <path d="M 39.40625 66.21875 
Q 28.65625 66.21875 22.328125 58.203125 
Q 16.015625 50.203125 16.015625 36.375 
Q 16.015625 22.609375 22.328125 14.59375 
Q 28.65625 6.59375 39.40625 6.59375 
Q 50.140625 6.59375 56.421875 14.59375 
Q 62.703125 22.609375 62.703125 36.375 
Q 62.703125 50.203125 56.421875 58.203125 
Q 50.140625 66.21875 39.40625 66.21875 
z
M 39.40625 74.21875 
Q 54.734375 74.21875 63.90625 63.9375 
Q 73.09375 53.65625 73.09375 36.375 
Q 73.09375 19.140625 63.90625 8.859375 
Q 54.734375 -1.421875 39.40625 -1.421875 
Q 24.03125 -1.421875 14.8125 8.828125 
Q 5.609375 19.09375 5.609375 36.375 
Q 5.609375 53.65625 14.8125 63.9375 
Q 24.03125 74.21875 39.40625 74.21875 
z
" id="DejaVuSans-79"/>
       <path d="M 14.796875 27.296875 
Q 14.796875 17.390625 18.875 11.75 
Q 22.953125 6.109375 30.078125 6.109375 
Q 37.203125 6.109375 41.296875 11.75 
Q 45.40625 17.390625 45.40625 27.296875 
Q 45.40625 37.203125 41.296875 42.84375 
Q 37.203125 48.484375 30.078125 48.484375 
Q 22.953125 48.484375 18.875 42.84375 
Q 14.796875 37.203125 14.796875 27.296875 
z
M 45.40625 8.203125 
Q 42.578125 3.328125 38.25 0.953125 
Q 33.9375 -1.421875 27.875 -1.421875 
Q 17.96875 -1.421875 11.734375 6.484375 
Q 5.515625 14.40625 5.515625 27.296875 
Q 5.515625 40.1875 11.734375 48.09375 
Q 17.96875 56 27.875 56 
Q 33.9375 56 38.25 53.625 
Q 42.578125 51.265625 45.40625 46.390625 
L 45.40625 54.6875 
L 54.390625 54.6875 
L 54.390625 -20.796875 
L 45.40625 -20.796875 
z
" id="DejaVuSans-113"/>
       <path d="M 25.390625 72.90625 
L 33.6875 72.90625 
L 8.296875 -9.28125 
L 0 -9.28125 
z
" id="DejaVuSans-47"/>
       <path d="M 54.890625 33.015625 
L 54.890625 0 
L 45.90625 0 
L 45.90625 32.71875 
Q 45.90625 40.484375 42.875 44.328125 
Q 39.84375 48.1875 33.796875 48.1875 
Q 26.515625 48.1875 22.3125 43.546875 
Q 18.109375 38.921875 18.109375 30.90625 
L 18.109375 0 
L 9.078125 0 
L 9.078125 75.984375 
L 18.109375 75.984375 
L 18.109375 46.1875 
Q 21.34375 51.125 25.703125 53.5625 
Q 30.078125 56 35.796875 56 
Q 45.21875 56 50.046875 50.171875 
Q 54.890625 44.34375 54.890625 33.015625 
z
" id="DejaVuSans-104"/>
       <path d="M 8.5 21.578125 
L 8.5 54.6875 
L 17.484375 54.6875 
L 17.484375 21.921875 
Q 17.484375 14.15625 20.5 10.265625 
Q 23.53125 6.390625 29.59375 6.390625 
Q 36.859375 6.390625 41.078125 11.03125 
Q 45.3125 15.671875 45.3125 23.6875 
L 45.3125 54.6875 
L 54.296875 54.6875 
L 54.296875 0 
L 45.3125 0 
L 45.3125 8.40625 
Q 42.046875 3.421875 37.71875 1 
Q 33.40625 -1.421875 27.6875 -1.421875 
Q 18.265625 -1.421875 13.375 4.4375 
Q 8.5 10.296875 8.5 21.578125 
z
M 31.109375 56 
z
" id="DejaVuSans-117"/>
       <path d="M 44.28125 53.078125 
L 44.28125 44.578125 
Q 40.484375 46.53125 36.375 47.5 
Q 32.28125 48.484375 27.875 48.484375 
Q 21.1875 48.484375 17.84375 46.4375 
Q 14.5 44.390625 14.5 40.28125 
Q 14.5 37.15625 16.890625 35.375 
Q 19.28125 33.59375 26.515625 31.984375 
L 29.59375 31.296875 
Q 39.15625 29.25 43.1875 25.515625 
Q 47.21875 21.78125 47.21875 15.09375 
Q 47.21875 7.46875 41.1875 3.015625 
Q 35.15625 -1.421875 24.609375 -1.421875 
Q 20.21875 -1.421875 15.453125 -0.5625 
Q 10.6875 0.296875 5.421875 2 
L 5.421875 11.28125 
Q 10.40625 8.6875 15.234375 7.390625 
Q 20.0625 6.109375 24.8125 6.109375 
Q 31.15625 6.109375 34.5625 8.28125 
Q 37.984375 10.453125 37.984375 14.40625 
Q 37.984375 18.0625 35.515625 20.015625 
Q 33.0625 21.96875 24.703125 23.78125 
L 21.578125 24.515625 
Q 13.234375 26.265625 9.515625 29.90625 
Q 5.8125 33.546875 5.8125 39.890625 
Q 5.8125 47.609375 11.28125 51.796875 
Q 16.75 56 26.8125 56 
Q 31.78125 56 36.171875 55.265625 
Q 40.578125 54.546875 44.28125 53.078125 
z
" id="DejaVuSans-115"/>
       <path d="M 4.890625 31.390625 
L 31.203125 31.390625 
L 31.203125 23.390625 
L 4.890625 23.390625 
z
" id="DejaVuSans-45"/>
       <path d="M 32.171875 -5.078125 
Q 28.375 -14.84375 24.75 -17.8125 
Q 21.140625 -20.796875 15.09375 -20.796875 
L 7.90625 -20.796875 
L 7.90625 -13.28125 
L 13.1875 -13.28125 
Q 16.890625 -13.28125 18.9375 -11.515625 
Q 21 -9.765625 23.484375 -3.21875 
L 25.09375 0.875 
L 2.984375 54.6875 
L 12.5 54.6875 
L 29.59375 11.921875 
L 46.6875 54.6875 
L 56.203125 54.6875 
z
" id="DejaVuSans-121"/>
       <path d="M 8.015625 75.875 
L 15.828125 75.875 
Q 23.140625 64.359375 26.78125 53.3125 
Q 30.421875 42.28125 30.421875 31.390625 
Q 30.421875 20.453125 26.78125 9.375 
Q 23.140625 -1.703125 15.828125 -13.1875 
L 8.015625 -13.1875 
Q 14.5 -2 17.703125 9.0625 
Q 20.90625 20.125 20.90625 31.390625 
Q 20.90625 42.671875 17.703125 53.65625 
Q 14.5 64.65625 8.015625 75.875 
z
" id="DejaVuSans-41"/>
      </defs>
      <use xlink:href="#DejaVuSans-71"/>
      <use x="77.490234" xlink:href="#DejaVuSans-108"/>
      <use x="105.273438" xlink:href="#DejaVuSans-111"/>
      <use x="166.455078" xlink:href="#DejaVuSans-98"/>
      <use x="229.931641" xlink:href="#DejaVuSans-97"/>
      <use x="291.210938" xlink:href="#DejaVuSans-108"/>
      <use x="318.994141" xlink:href="#DejaVuSans-32"/>
      <use x="350.78125" xlink:href="#DejaVuSans-87"/>
      <use x="443.283203" xlink:href="#DejaVuSans-97"/>
      <use x="504.5625" xlink:href="#DejaVuSans-114"/>
      <use x="543.925781" xlink:href="#DejaVuSans-109"/>
      <use x="641.337891" xlink:href="#DejaVuSans-105"/>
      <use x="669.121094" xlink:href="#DejaVuSans-110"/>
      <use x="732.5" xlink:href="#DejaVuSans-103"/>
      <use x="795.976562" xlink:href="#DejaVuSans-32"/>
      <use x="827.763672" xlink:href="#DejaVuSans-80"/>
      <use x="884.441406" xlink:href="#DejaVuSans-111"/>
      <use x="945.623047" xlink:href="#DejaVuSans-116"/>
      <use x="984.832031" xlink:href="#DejaVuSans-101"/>
      <use x="1046.355469" xlink:href="#DejaVuSans-110"/>
      <use x="1109.734375" xlink:href="#DejaVuSans-116"/>
      <use x="1148.943359" xlink:href="#DejaVuSans-105"/>
      <use x="1176.726562" xlink:href="#DejaVuSans-97"/>
      <use x="1238.005859" xlink:href="#DejaVuSans-108"/>
      <use x="1265.789062" xlink:href="#DejaVuSans-32"/>
      <use x="1297.576172" xlink:href="#DejaVuSans-40"/>
      <use x="1336.589844" xlink:href="#DejaVuSans-107"/>
      <use x="1394.5" xlink:href="#DejaVuSans-103"/>
      <use x="1457.976562" xlink:href="#DejaVuSans-67"/>
      <use x="1527.800781" xlink:href="#DejaVuSans-79"/>
      <use x="1606.511719" xlink:href="#DejaVuSans-50"/>
      <use x="1670.134766" xlink:href="#DejaVuSans-101"/>
      <use x="1731.658203" xlink:href="#DejaVuSans-113"/>
      <use x="1795.134766" xlink:href="#DejaVuSans-47"/>
      <use x="1828.826172" xlink:href="#DejaVuSans-104"/>
      <use x="1892.205078" xlink:href="#DejaVuSans-111"/>
      <use x="1953.386719" xlink:href="#DejaVuSans-117"/>
      <use x="2016.765625" xlink:href="#DejaVuSans-115"/>
      <use x="2068.865234" xlink:href="#DejaVuSans-101"/>
      <use x="2130.388672" xlink:href="#DejaVuSans-45"/>
      <use x="2164.722656" xlink:href="#DejaVuSans-121"/>
      <use x="2223.902344" xlink:href="#DejaVuSans-114"/>
      <use x="2265.015625" xlink:href="#DejaVuSans-41"/>
     </g>
    </g>
   </g>
   <g id="matplotlib.axis_2">
    <g id="ytick_1">
     <g id="line2d_6">
      <defs>
       <path d="M 0 0 
L -3.5 0 
" id="ma8caef29c7" style="stroke:#000000;stroke-width:0.8;"/>
      </defs>
      <g>
       <use style="stroke:#000000;stroke-width:0.8;" x="57.6" xlink:href="#ma8caef29c7" y="295.488"/>
      </g>
     </g>
     <g id="text_7">
      <!-- 0.0 -->
      <g transform="translate(34.696875 299.287219)scale(0.1 -0.1)">
       <defs>
        <path d="M 10.6875 12.40625 
L 21 12.40625 
L 21 0 
L 10.6875 0 
z
" id="DejaVuSans-46"/>
       </defs>
       <use xlink:href="#DejaVuSans-48"/>
       <use x="63.623047" xlink:href="#DejaVuSans-46"/>
       <use x="95.410156" xlink:href="#DejaVuSans-48"/>
      </g>
     </g>
    </g>
    <g id="ytick_2">
     <g id="line2d_7">
      <g>
       <use style="stroke:#000000;stroke-width:0.8;" x="57.6" xlink:href="#ma8caef29c7" y="259.819736"/>
      </g>
     </g>
     <g id="text_8">
      <!-- 0.2 -->
      <g transform="translate(34.696875 263.618955)scale(0.1 -0.1)">
       <use xlink:href="#DejaVuSans-48"/>
       <use x="63.623047" xlink:href="#DejaVuSans-46"/>
       <use x="95.410156" xlink:href="#DejaVuSans-50"/>
      </g>
     </g>
    </g>
    <g id="ytick_3">
     <g id="line2d_8">
      <g>
       <use style="stroke:#000000;stroke-width:0.8;" x="57.6" xlink:href="#ma8caef29c7" y="224.151472"/>
      </g>
     </g>
     <g id="text_9">
      <!-- 0.4 -->
      <g transform="translate(34.696875 227.950691)scale(0.1 -0.1)">
       <use xlink:href="#DejaVuSans-48"/>
       <use x="63.623047" xlink:href="#DejaVuSans-46"/>
       <use x="95.410156" xlink:href="#DejaVuSans-52"/>
      </g>
     </g>
    </g>
    <g id="ytick_4">
     <g id="line2d_9">
      <g>
       <use style="stroke:#000000;stroke-width:0.8;" x="57.6" xlink:href="#ma8caef29c7" y="188.483208"/>
      </g>
     </g>
     <g id="text_10">
      <!-- 0.6 -->
      <g transform="translate(34.696875 192.282427)scale(0.1 -0.1)">
       <use xlink:href="#DejaVuSans-48"/>
       <use x="63.623047" xlink:href="#DejaVuSans-46"/>
       <use x="95.410156" xlink:href="#DejaVuSans-54"/>
      </g>
     </g>
    </g>
    <g id="ytick_5">
     <g id="line2d_10">
      <g>
       <use style="stroke:#000000;stroke-width:0.8;" x="57.6" xlink:href="#ma8caef29c7" y="152.814944"/>
      </g>
     </g>
     <g id="text_11">
      <!-- 0.8 -->
      <g transform="translate(34.696875 156.614163)scale(0.1 -0.1)">
       <use xlink:href="#DejaVuSans-48"/>
       <use x="63.623047" xlink:href="#DejaVuSans-46"/>
       <use x="95.410156" xlink:href="#DejaVuSans-56"/>
      </g>
     </g>
    </g>
    <g id="ytick_6">
     <g id="line2d_11">
      <g>
       <use style="stroke:#000000;stroke-width:0.8;" x="57.6" xlink:href="#ma8caef29c7" y="117.14668"/>
      </g>
     </g>
     <g id="text_12">
      <!-- 1.0 -->
      <g transform="translate(34.696875 120.945899)scale(0.1 -0.1)">
       <defs>
        <path d="M 12.40625 8.296875 
L 28.515625 8.296875 
L 28.515625 63.921875 
L 10.984375 60.40625 
L 10.984375 69.390625 
L 28.421875 72.90625 
L 38.28125 72.90625 
L 38.28125 8.296875 
L 54.390625 8.296875 
L 54.390625 0 
L 12.40625 0 
z
" id="DejaVuSans-49"/>
       </defs>
       <use xlink:href="#DejaVuSans-49"/>
       <use x="63.623047" xlink:href="#DejaVuSans-46"/>
       <use x="95.410156" xlink:href="#DejaVuSans-48"/>
      </g>
     </g>
    </g>
    <g id="ytick_7">
     <g id="line2d_12">
      <g>
       <use style="stroke:#000000;stroke-width:0.8;" x="57.6" xlink:href="#ma8caef29c7" y="81.478417"/>
      </g>
     </g>
     <g id="text_13">
      <!-- 1.2 -->
      <g transform="translate(34.696875 85.277635)scale(0.1 -0.1)">
       <use xlink:href="#DejaVuSans-49"/>
       <use x="63.623047" xlink:href="#DejaVuSans-46"/>
       <use x="95.410156" xlink:href="#DejaVuSans-50"/>
      </g>
     </g>
    </g>
    <g id="ytick_8">
     <g id="line2d_13">
      <g>
       <use style="stroke:#000000;stroke-width:0.8;" x="57.6" xlink:href="#ma8caef29c7" y="45.810153"/>
      </g>
     </g>
     <g id="text_14">
      <!-- 1.4 -->
      <g transform="translate(34.696875 49.609371)scale(0.1 -0.1)">
       <use xlink:href="#DejaVuSans-49"/>
       <use x="63.623047" xlink:href="#DejaVuSans-46"/>
       <use x="95.410156" xlink:href="#DejaVuSans-52"/>
      </g>
     </g>
    </g>
    <g id="text_15">
     <!-- Circularity -->
     <g transform="translate(17.419375 200.086594)rotate(-90)scale(0.1 -0.1)">
      <defs>
       <path d="M 48.78125 52.59375 
L 48.78125 44.1875 
Q 44.96875 46.296875 41.140625 47.34375 
Q 37.3125 48.390625 33.40625 48.390625 
Q 24.65625 48.390625 19.8125 42.84375 
Q 14.984375 37.3125 14.984375 27.296875 
Q 14.984375 17.28125 19.8125 11.734375 
Q 24.65625 6.203125 33.40625 6.203125 
Q 37.3125 6.203125 41.140625 7.25 
Q 44.96875 8.296875 48.78125 10.40625 
L 48.78125 2.09375 
Q 45.015625 0.34375 40.984375 -0.53125 
Q 36.96875 -1.421875 32.421875 -1.421875 
Q 20.0625 -1.421875 12.78125 6.34375 
Q 5.515625 14.109375 5.515625 27.296875 
Q 5.515625 40.671875 12.859375 48.328125 
Q 20.21875 56 33.015625 56 
Q 37.15625 56 41.109375 55.140625 
Q 45.0625 54.296875 48.78125 52.59375 
z
" id="DejaVuSans-99"/>
      </defs>
      <use xlink:href="#DejaVuSans-67"/>
      <use x="69.824219" xlink:href="#DejaVuSans-105"/>
      <use x="97.607422" xlink:href="#DejaVuSans-114"/>
      <use x="136.470703" xlink:href="#DejaVuSans-99"/>
      <use x="191.451172" xlink:href="#DejaVuSans-117"/>
      <use x="254.830078" xlink:href="#DejaVuSans-108"/>
      <use x="282.613281" xlink:href="#DejaVuSans-97"/>
      <use x="343.892578" xlink:href="#DejaVuSans-114"/>
      <use x="385.005859" xlink:href="#DejaVuSans-105"/>
      <use x="412.789062" xlink:href="#DejaVuSans-116"/>
      <use x="451.998047" xlink:href="#DejaVuSans-121"/>
     </g>
     <!--  (Fraction of economic value regenerated) -->
     <g transform="translate(28.617187 279.779562)rotate(-90)scale(0.1 -0.1)">
      <defs>
       <path d="M 9.8125 72.90625 
L 51.703125 72.90625 
L 51.703125 64.59375 
L 19.671875 64.59375 
L 19.671875 43.109375 
L 48.578125 43.109375 
L 48.578125 34.8125 
L 19.671875 34.8125 
L 19.671875 0 
L 9.8125 0 
z
" id="DejaVuSans-70"/>
       <path d="M 37.109375 75.984375 
L 37.109375 68.5 
L 28.515625 68.5 
Q 23.6875 68.5 21.796875 66.546875 
Q 19.921875 64.59375 19.921875 59.515625 
L 19.921875 54.6875 
L 34.71875 54.6875 
L 34.71875 47.703125 
L 19.921875 47.703125 
L 19.921875 0 
L 10.890625 0 
L 10.890625 47.703125 
L 2.296875 47.703125 
L 2.296875 54.6875 
L 10.890625 54.6875 
L 10.890625 58.5 
Q 10.890625 67.625 15.140625 71.796875 
Q 19.390625 75.984375 28.609375 75.984375 
z
" id="DejaVuSans-102"/>
       <path d="M 2.984375 54.6875 
L 12.5 54.6875 
L 29.59375 8.796875 
L 46.6875 54.6875 
L 56.203125 54.6875 
L 35.6875 0 
L 23.484375 0 
z
" id="DejaVuSans-118"/>
       <path d="M 45.40625 46.390625 
L 45.40625 75.984375 
L 54.390625 75.984375 
L 54.390625 0 
L 45.40625 0 
L 45.40625 8.203125 
Q 42.578125 3.328125 38.25 0.953125 
Q 33.9375 -1.421875 27.875 -1.421875 
Q 17.96875 -1.421875 11.734375 6.484375 
Q 5.515625 14.40625 5.515625 27.296875 
Q 5.515625 40.1875 11.734375 48.09375 
Q 17.96875 56 27.875 56 
Q 33.9375 56 38.25 53.625 
Q 42.578125 51.265625 45.40625 46.390625 
z
M 14.796875 27.296875 
Q 14.796875 17.390625 18.875 11.75 
Q 22.953125 6.109375 30.078125 6.109375 
Q 37.203125 6.109375 41.296875 11.75 
Q 45.40625 17.390625 45.40625 27.296875 
Q 45.40625 37.203125 41.296875 42.84375 
Q 37.203125 48.484375 30.078125 48.484375 
Q 22.953125 48.484375 18.875 42.84375 
Q 14.796875 37.203125 14.796875 27.296875 
z
" id="DejaVuSans-100"/>
      </defs>
      <use xlink:href="#DejaVuSans-32"/>
      <use x="31.787109" xlink:href="#DejaVuSans-40"/>
      <use x="70.800781" xlink:href="#DejaVuSans-70"/>
      <use x="121.070312" xlink:href="#DejaVuSans-114"/>
      <use x="162.183594" xlink:href="#DejaVuSans-97"/>
      <use x="223.462891" xlink:href="#DejaVuSans-99"/>
      <use x="278.443359" xlink:href="#DejaVuSans-116"/>
      <use x="317.652344" xlink:href="#DejaVuSans-105"/>
      <use x="345.435547" xlink:href="#DejaVuSans-111"/>
      <use x="406.617188" xlink:href="#DejaVuSans-110"/>
      <use x="469.996094" xlink:href="#DejaVuSans-32"/>
      <use x="501.783203" xlink:href="#DejaVuSans-111"/>
      <use x="562.964844" xlink:href="#DejaVuSans-102"/>
      <use x="598.169922" xlink:href="#DejaVuSans-32"/>
      <use x="629.957031" xlink:href="#DejaVuSans-101"/>
      <use x="691.480469" xlink:href="#DejaVuSans-99"/>
      <use x="746.460938" xlink:href="#DejaVuSans-111"/>
      <use x="807.642578" xlink:href="#DejaVuSans-110"/>
      <use x="871.021484" xlink:href="#DejaVuSans-111"/>
      <use x="932.203125" xlink:href="#DejaVuSans-109"/>
      <use x="1029.615234" xlink:href="#DejaVuSans-105"/>
      <use x="1057.398438" xlink:href="#DejaVuSans-99"/>
      <use x="1112.378906" xlink:href="#DejaVuSans-32"/>
      <use x="1144.166016" xlink:href="#DejaVuSans-118"/>
      <use x="1203.345703" xlink:href="#DejaVuSans-97"/>
      <use x="1264.625" xlink:href="#DejaVuSans-108"/>
      <use x="1292.408203" xlink:href="#DejaVuSans-117"/>
      <use x="1355.787109" xlink:href="#DejaVuSans-101"/>
      <use x="1417.310547" xlink:href="#DejaVuSans-32"/>
      <use x="1449.097656" xlink:href="#DejaVuSans-114"/>
      <use x="1487.960938" xlink:href="#DejaVuSans-101"/>
      <use x="1549.484375" xlink:href="#DejaVuSans-103"/>
      <use x="1612.960938" xlink:href="#DejaVuSans-101"/>
      <use x="1674.484375" xlink:href="#DejaVuSans-110"/>
      <use x="1737.863281" xlink:href="#DejaVuSans-101"/>
      <use x="1799.386719" xlink:href="#DejaVuSans-114"/>
      <use x="1840.5" xlink:href="#DejaVuSans-97"/>
      <use x="1901.779297" xlink:href="#DejaVuSans-116"/>
      <use x="1940.988281" xlink:href="#DejaVuSans-101"/>
      <use x="2002.511719" xlink:href="#DejaVuSans-100"/>
      <use x="2065.988281" xlink:href="#DejaVuSans-41"/>
     </g>
    </g>
   </g>
   <g id="LineCollection_1">
    <path clip-path="url(#p8de2973c33)" d="M 73.832727 295.488 
L 73.832727 53.568 
" style="fill:none;stroke:#ff0000;stroke-dasharray:5.55,2.4;stroke-dashoffset:0;stroke-opacity:0.7;stroke-width:1.5;"/>
   </g>
   <g id="patch_3">
    <path d="M 57.6 307.584 
L 57.6 41.472 
" style="fill:none;stroke:#000000;stroke-linecap:square;stroke-linejoin:miter;stroke-width:0.8;"/>
   </g>
   <g id="patch_4">
    <path d="M 414.72 307.584 
L 414.72 41.472 
" style="fill:none;stroke:#000000;stroke-linecap:square;stroke-linejoin:miter;stroke-width:0.8;"/>
   </g>
   <g id="patch_5">
    <path d="M 57.6 307.584 
L 414.72 307.584 
" style="fill:none;stroke:#000000;stroke-linecap:square;stroke-linejoin:miter;stroke-width:0.8;"/>
   </g>
   <g id="patch_6">
    <path d="M 57.6 41.472 
L 414.72 41.472 
" style="fill:none;stroke:#000000;stroke-linecap:square;stroke-linejoin:miter;stroke-width:0.8;"/>
   </g>
   <g id="patch_7">
    <path d="M 167.236155 83.985616 
Q 87.455054 90.754842 76.899158 90.357804 
" style="fill:none;stroke:#000000;stroke-linecap:round;"/>
    <path d="M 80.821159 92.506736 
L 76.899158 90.357804 
L 80.971505 88.509562 
" style="fill:none;stroke:#000000;stroke-linecap:round;"/>
   </g>
   <g id="text_16">
    <!-- Net-zero -->
    <g transform="translate(171.229091 78.658187)scale(0.1 -0.1)">
     <defs>
      <path d="M 9.8125 72.90625 
L 23.09375 72.90625 
L 55.421875 11.921875 
L 55.421875 72.90625 
L 64.984375 72.90625 
L 64.984375 0 
L 51.703125 0 
L 19.390625 60.984375 
L 19.390625 0 
L 9.8125 0 
z
" id="DejaVuSans-78"/>
      <path d="M 5.515625 54.6875 
L 48.1875 54.6875 
L 48.1875 46.484375 
L 14.40625 7.171875 
L 48.1875 7.171875 
L 48.1875 0 
L 4.296875 0 
L 4.296875 8.203125 
L 38.09375 47.515625 
L 5.515625 47.515625 
z
" id="DejaVuSans-122"/>
     </defs>
     <use xlink:href="#DejaVuSans-78"/>
     <use x="74.804688" xlink:href="#DejaVuSans-101"/>
     <use x="136.328125" xlink:href="#DejaVuSans-116"/>
     <use x="175.537109" xlink:href="#DejaVuSans-45"/>
     <use x="211.621094" xlink:href="#DejaVuSans-122"/>
     <use x="264.111328" xlink:href="#DejaVuSans-101"/>
     <use x="325.634766" xlink:href="#DejaVuSans-114"/>
     <use x="364.498047" xlink:href="#DejaVuSans-111"/>
    </g>
    <!-- Emissions -->
    <g transform="translate(171.229091 89.856)scale(0.1 -0.1)">
     <defs>
      <path d="M 9.8125 72.90625 
L 55.90625 72.90625 
L 55.90625 64.59375 
L 19.671875 64.59375 
L 19.671875 43.015625 
L 54.390625 43.015625 
L 54.390625 34.71875 
L 19.671875 34.71875 
L 19.671875 8.296875 
L 56.78125 8.296875 
L 56.78125 0 
L 9.8125 0 
z
" id="DejaVuSans-69"/>
     </defs>
     <use xlink:href="#DejaVuSans-69"/>
     <use x="63.183594" xlink:href="#DejaVuSans-109"/>
     <use x="160.595703" xlink:href="#DejaVuSans-105"/>
     <use x="188.378906" xlink:href="#DejaVuSans-115"/>
     <use x="240.478516" xlink:href="#DejaVuSans-115"/>
     <use x="292.578125" xlink:href="#DejaVuSans-105"/>
     <use x="320.361328" xlink:href="#DejaVuSans-111"/>
     <use x="381.542969" xlink:href="#DejaVuSans-110"/>
     <use x="444.921875" xlink:href="#DejaVuSans-115"/>
    </g>
   </g>
   <g id="legend_1">
    <g id="patch_8">
     <path d="M 342.566875 302.584 
L 407.72 302.584 
Q 409.72 302.584 409.72 300.584 
L 409.72 216.995562 
Q 409.72 214.995562 407.72 214.995562 
L 342.566875 214.995562 
Q 340.566875 214.995562 340.566875 216.995562 
L 340.566875 300.584 
Q 340.566875 302.584 342.566875 302.584 
z
" style="fill:#ffffff;opacity:0.8;stroke:#cccccc;stroke-linejoin:miter;"/>
    </g>
    <g id="text_17">
     <!-- LCC -->
     <g transform="translate(344.566875 226.594)scale(0.1 -0.1)">
      <defs>
       <path d="M 9.8125 72.90625 
L 19.671875 72.90625 
L 19.671875 8.296875 
L 55.171875 8.296875 
L 55.171875 0 
L 9.8125 0 
z
" id="DejaVuSans-76"/>
      </defs>
      <use xlink:href="#DejaVuSans-76"/>
      <use x="55.712891" xlink:href="#DejaVuSans-67"/>
      <use x="125.537109" xlink:href="#DejaVuSans-67"/>
     </g>
     <!-- ($/house-yr) -->
     <g transform="translate(344.566875 237.791812)scale(0.1 -0.1)">
      <defs>
       <path d="M 33.796875 -14.703125 
L 28.90625 -14.703125 
L 28.859375 0 
Q 23.734375 0.09375 18.609375 1.1875 
Q 13.484375 2.296875 8.296875 4.5 
L 8.296875 13.28125 
Q 13.28125 10.15625 18.375 8.5625 
Q 23.484375 6.984375 28.90625 6.9375 
L 28.90625 29.203125 
Q 18.109375 30.953125 13.203125 35.15625 
Q 8.296875 39.359375 8.296875 46.6875 
Q 8.296875 54.640625 13.625 59.21875 
Q 18.953125 63.8125 28.90625 64.5 
L 28.90625 75.984375 
L 33.796875 75.984375 
L 33.796875 64.65625 
Q 38.328125 64.453125 42.578125 63.6875 
Q 46.828125 62.9375 50.875 61.625 
L 50.875 53.078125 
Q 46.828125 55.125 42.546875 56.25 
Q 38.28125 57.375 33.796875 57.5625 
L 33.796875 36.71875 
Q 44.875 35.015625 50.09375 30.609375 
Q 55.328125 26.21875 55.328125 18.609375 
Q 55.328125 10.359375 49.78125 5.59375 
Q 44.234375 0.828125 33.796875 0.09375 
z
M 28.90625 37.59375 
L 28.90625 57.625 
Q 23.25 56.984375 20.265625 54.390625 
Q 17.28125 51.8125 17.28125 47.515625 
Q 17.28125 43.3125 20.03125 40.96875 
Q 22.796875 38.625 28.90625 37.59375 
z
M 33.796875 28.21875 
L 33.796875 7.078125 
Q 39.984375 7.90625 43.140625 10.59375 
Q 46.296875 13.28125 46.296875 17.671875 
Q 46.296875 21.96875 43.28125 24.5 
Q 40.28125 27.046875 33.796875 28.21875 
z
" id="DejaVuSans-36"/>
      </defs>
      <use xlink:href="#DejaVuSans-40"/>
      <use x="39.013672" xlink:href="#DejaVuSans-36"/>
      <use x="102.636719" xlink:href="#DejaVuSans-47"/>
      <use x="136.328125" xlink:href="#DejaVuSans-104"/>
      <use x="199.707031" xlink:href="#DejaVuSans-111"/>
      <use x="260.888672" xlink:href="#DejaVuSans-117"/>
      <use x="324.267578" xlink:href="#DejaVuSans-115"/>
      <use x="376.367188" xlink:href="#DejaVuSans-101"/>
      <use x="437.890625" xlink:href="#DejaVuSans-45"/>
      <use x="472.224609" xlink:href="#DejaVuSans-121"/>
      <use x="531.404297" xlink:href="#DejaVuSans-114"/>
      <use x="572.517578" xlink:href="#DejaVuSans-41"/>
     </g>
    </g>
    <g id="line2d_14"/>
    <g id="line2d_15">
     <defs>
      <path d="M 0 3 
C 0.795609 3 1.55874 2.683901 2.12132 2.12132 
C 2.683901 1.55874 3 0.795609 3 0 
C 3 -0.795609 2.683901 -1.55874 2.12132 -2.12132 
C 1.55874 -2.683901 0.795609 -3 0 -3 
C -0.795609 -3 -1.55874 -2.683901 -2.12132 -2.12132 
C -2.683901 -1.55874 -3 -0.795609 -3 0 
C -3 0.795609 -2.683901 1.55874 -2.12132 2.12132 
C -1.55874 2.683901 -0.795609 3 0 3 
z
" id="me576cb04d4" style="stroke:#e25508;stroke-opacity:0.7;"/>
     </defs>
     <g>
      <use style="fill:#e25508;fill-opacity:0.7;stroke:#e25508;stroke-opacity:0.7;" x="363.143438" xlink:href="#me576cb04d4" y="248.969937"/>
     </g>
    </g>
    <g id="text_18">
     <!-- $\mathdefault{1.2}$ -->
     <g transform="translate(381.143438 252.469937)scale(0.1 -0.1)">
      <use transform="translate(0 0.78125)" xlink:href="#DejaVuSans-49"/>
      <use transform="translate(63.623047 0.78125)" xlink:href="#DejaVuSans-46"/>
      <use transform="translate(89.910156 0.78125)" xlink:href="#DejaVuSans-50"/>
     </g>
    </g>
    <g id="line2d_16"/>
    <g id="line2d_17">
     <defs>
      <path d="M 0 3 
C 0.795609 3 1.55874 2.683901 2.12132 2.12132 
C 2.683901 1.55874 3 0.795609 3 0 
C 3 -0.795609 2.683901 -1.55874 2.12132 -2.12132 
C 1.55874 -2.683901 0.795609 -3 0 -3 
C -0.795609 -3 -1.55874 -2.683901 -2.12132 -2.12132 
C -2.683901 -1.55874 -3 -0.795609 -3 0 
C -3 0.795609 -2.683901 1.55874 -2.12132 2.12132 
C -1.55874 2.683901 -0.795609 3 0 3 
z
" id="m45e551bfd2" style="stroke:#fdcd9e;stroke-opacity:0.7;"/>
     </defs>
     <g>
      <use style="fill:#fdcd9e;fill-opacity:0.7;stroke:#fdcd9e;stroke-opacity:0.7;" x="363.143438" xlink:href="#m45e551bfd2" y="263.648062"/>
     </g>
    </g>
    <g id="text_19">
     <!-- $\mathdefault{1.8}$ -->
     <g transform="translate(381.143438 267.148062)scale(0.1 -0.1)">
      <use transform="translate(0 0.78125)" xlink:href="#DejaVuSans-49"/>
      <use transform="translate(63.623047 0.78125)" xlink:href="#DejaVuSans-46"/>
      <use transform="translate(92.785156 0.78125)" xlink:href="#DejaVuSans-56"/>
     </g>
    </g>
    <g id="line2d_18"/>
    <g id="line2d_19">
     <defs>
      <path d="M 0 3 
C 0.795609 3 1.55874 2.683901 2.12132 2.12132 
C 2.683901 1.55874 3 0.795609 3 0 
C 3 -0.795609 2.683901 -1.55874 2.12132 -2.12132 
C 1.55874 -2.683901 0.795609 -3 0 -3 
C -0.795609 -3 -1.55874 -2.683901 -2.12132 -2.12132 
C -2.683901 -1.55874 -3 -0.795609 -3 0 
C -3 0.795609 -2.683901 1.55874 -2.12132 2.12132 
C -1.55874 2.683901 -0.795609 3 0 3 
z
" id="mf50a138664" style="stroke:#d5e5f4;stroke-opacity:0.7;"/>
     </defs>
     <g>
      <use style="fill:#d5e5f4;fill-opacity:0.7;stroke:#d5e5f4;stroke-opacity:0.7;" x="363.143438" xlink:href="#mf50a138664" y="278.326188"/>
     </g>
    </g>
    <g id="text_20">
     <!-- $\mathdefault{2.4}$ -->
     <g transform="translate(381.143438 281.826188)scale(0.1 -0.1)">
      <use transform="translate(0 0.78125)" xlink:href="#DejaVuSans-50"/>
      <use transform="translate(63.623047 0.78125)" xlink:href="#DejaVuSans-46"/>
      <use transform="translate(95.410156 0.78125)" xlink:href="#DejaVuSans-52"/>
     </g>
    </g>
    <g id="line2d_20"/>
    <g id="line2d_21">
     <defs>
      <path d="M 0 3 
C 0.795609 3 1.55874 2.683901 2.12132 2.12132 
C 2.683901 1.55874 3 0.795609 3 0 
C 3 -0.795609 2.683901 -1.55874 2.12132 -2.12132 
C 1.55874 -2.683901 0.795609 -3 0 -3 
C -0.795609 -3 -1.55874 -2.683901 -2.12132 -2.12132 
C -2.683901 -1.55874 -3 -0.795609 -3 0 
C -3 0.795609 -2.683901 1.55874 -2.12132 2.12132 
C -1.55874 2.683901 -0.795609 3 0 3 
z
" id="m0d4a1ee9ef" style="stroke:#4694c7;stroke-opacity:0.7;"/>
     </defs>
     <g>
      <use style="fill:#4694c7;fill-opacity:0.7;stroke:#4694c7;stroke-opacity:0.7;" x="363.143438" xlink:href="#m0d4a1ee9ef" y="293.004312"/>
     </g>
    </g>
    <g id="text_21">
     <!-- $\mathdefault{3.0}$ -->
     <g transform="translate(381.143438 296.504312)scale(0.1 -0.1)">
      <defs>
       <path d="M 40.578125 39.3125 
Q 47.65625 37.796875 51.625 33 
Q 55.609375 28.21875 55.609375 21.1875 
Q 55.609375 10.40625 48.1875 4.484375 
Q 40.765625 -1.421875 27.09375 -1.421875 
Q 22.515625 -1.421875 17.65625 -0.515625 
Q 12.796875 0.390625 7.625 2.203125 
L 7.625 11.71875 
Q 11.71875 9.328125 16.59375 8.109375 
Q 21.484375 6.890625 26.8125 6.890625 
Q 36.078125 6.890625 40.9375 10.546875 
Q 45.796875 14.203125 45.796875 21.1875 
Q 45.796875 27.640625 41.28125 31.265625 
Q 36.765625 34.90625 28.71875 34.90625 
L 20.21875 34.90625 
L 20.21875 43.015625 
L 29.109375 43.015625 
Q 36.375 43.015625 40.234375 45.921875 
Q 44.09375 48.828125 44.09375 54.296875 
Q 44.09375 59.90625 40.109375 62.90625 
Q 36.140625 65.921875 28.71875 65.921875 
Q 24.65625 65.921875 20.015625 65.03125 
Q 15.375 64.15625 9.8125 62.3125 
L 9.8125 71.09375 
Q 15.4375 72.65625 20.34375 73.4375 
Q 25.25 74.21875 29.59375 74.21875 
Q 40.828125 74.21875 47.359375 69.109375 
Q 53.90625 64.015625 53.90625 55.328125 
Q 53.90625 49.265625 50.4375 45.09375 
Q 46.96875 40.921875 40.578125 39.3125 
z
" id="DejaVuSans-51"/>
      </defs>
      <use transform="translate(0 0.78125)" xlink:href="#DejaVuSans-51"/>
      <use transform="translate(63.623047 0.78125)" xlink:href="#DejaVuSans-46"/>
      <use transform="translate(95.410156 0.78125)" xlink:href="#DejaVuSans-48"/>
     </g>
    </g>
   </g>
   <g id="legend_2">
    <g id="patch_9">
     <path d="M 342.566875 302.584 
L 407.72 302.584 
Q 409.72 302.584 409.72 300.584 
L 409.72 216.995562 
Q 409.72 214.995562 407.72 214.995562 
L 342.566875 214.995562 
Q 340.566875 214.995562 340.566875 216.995562 
L 340.566875 300.584 
Q 340.566875 302.584 342.566875 302.584 
z
" style="fill:#ffffff;opacity:0.8;stroke:#cccccc;stroke-linejoin:miter;"/>
    </g>
    <g id="text_22">
     <!-- LCC -->
     <g transform="translate(344.566875 226.594)scale(0.1 -0.1)">
      <use xlink:href="#DejaVuSans-76"/>
      <use x="55.712891" xlink:href="#DejaVuSans-67"/>
      <use x="125.537109" xlink:href="#DejaVuSans-67"/>
     </g>
     <!-- ($/house-yr) -->
     <g transform="translate(344.566875 237.791812)scale(0.1 -0.1)">
      <use xlink:href="#DejaVuSans-40"/>
      <use x="39.013672" xlink:href="#DejaVuSans-36"/>
      <use x="102.636719" xlink:href="#DejaVuSans-47"/>
      <use x="136.328125" xlink:href="#DejaVuSans-104"/>
      <use x="199.707031" xlink:href="#DejaVuSans-111"/>
      <use x="260.888672" xlink:href="#DejaVuSans-117"/>
      <use x="324.267578" xlink:href="#DejaVuSans-115"/>
      <use x="376.367188" xlink:href="#DejaVuSans-101"/>
      <use x="437.890625" xlink:href="#DejaVuSans-45"/>
      <use x="472.224609" xlink:href="#DejaVuSans-121"/>
      <use x="531.404297" xlink:href="#DejaVuSans-114"/>
      <use x="572.517578" xlink:href="#DejaVuSans-41"/>
     </g>
    </g>
    <g id="line2d_22"/>
    <g id="line2d_23">
     <g>
      <use style="fill:#e25508;fill-opacity:0.7;stroke:#e25508;stroke-opacity:0.7;" x="363.143438" xlink:href="#me576cb04d4" y="248.969937"/>
     </g>
    </g>
    <g id="text_23">
     <!-- $\mathdefault{1.2}$ -->
     <g transform="translate(381.143438 252.469937)scale(0.1 -0.1)">
      <use transform="translate(0 0.78125)" xlink:href="#DejaVuSans-49"/>
      <use transform="translate(63.623047 0.78125)" xlink:href="#DejaVuSans-46"/>
      <use transform="translate(89.910156 0.78125)" xlink:href="#DejaVuSans-50"/>
     </g>
    </g>
    <g id="line2d_24"/>
    <g id="line2d_25">
     <g>
      <use style="fill:#fdcd9e;fill-opacity:0.7;stroke:#fdcd9e;stroke-opacity:0.7;" x="363.143438" xlink:href="#m45e551bfd2" y="263.648062"/>
     </g>
    </g>
    <g id="text_24">
     <!-- $\mathdefault{1.8}$ -->
     <g transform="translate(381.143438 267.148062)scale(0.1 -0.1)">
      <use transform="translate(0 0.78125)" xlink:href="#DejaVuSans-49"/>
      <use transform="translate(63.623047 0.78125)" xlink:href="#DejaVuSans-46"/>
      <use transform="translate(92.785156 0.78125)" xlink:href="#DejaVuSans-56"/>
     </g>
    </g>
    <g id="line2d_26"/>
    <g id="line2d_27">
     <g>
      <use style="fill:#d5e5f4;fill-opacity:0.7;stroke:#d5e5f4;stroke-opacity:0.7;" x="363.143438" xlink:href="#mf50a138664" y="278.326188"/>
     </g>
    </g>
    <g id="text_25">
     <!-- $\mathdefault{2.4}$ -->
     <g transform="translate(381.143438 281.826188)scale(0.1 -0.1)">
      <use transform="translate(0 0.78125)" xlink:href="#DejaVuSans-50"/>
      <use transform="translate(63.623047 0.78125)" xlink:href="#DejaVuSans-46"/>
      <use transform="translate(95.410156 0.78125)" xlink:href="#DejaVuSans-52"/>
     </g>
    </g>
    <g id="line2d_28"/>
    <g id="line2d_29">
     <g>
      <use style="fill:#4694c7;fill-opacity:0.7;stroke:#4694c7;stroke-opacity:0.7;" x="363.143438" xlink:href="#m0d4a1ee9ef" y="293.004312"/>
     </g>
    </g>
    <g id="text_26">
     <!-- $\mathdefault{3.0}$ -->
     <g transform="translate(381.143438 296.504312)scale(0.1 -0.1)">
      <use transform="translate(0 0.78125)" xlink:href="#DejaVuSans-51"/>
      <use transform="translate(63.623047 0.78125)" xlink:href="#DejaVuSans-46"/>
      <use transform="translate(95.410156 0.78125)" xlink:href="#DejaVuSans-48"/>
     </g>
    </g>
   </g>
  </g>
 </g>
 <defs>
  <clipPath id="p8de2973c33">
   <rect height="266.112" width="357.12" x="57.6" y="41.472"/>
  </clipPath>
 </defs>
</svg>
