<?xml version="1.0" encoding="utf-8" standalone="no"?>
<!DOCTYPE svg PUBLIC "-//W3C//DTD SVG 1.1//EN"
  "http://www.w3.org/Graphics/SVG/1.1/DTD/svg11.dtd">
<!-- Created with matplotlib (https://matplotlib.org/) -->
<svg height="345.6pt" version="1.1" viewBox="0 0 460.8 345.6" width="460.8pt" xmlns="http://www.w3.org/2000/svg" xmlns:xlink="http://www.w3.org/1999/xlink">
 <defs>
  <style type="text/css">
*{stroke-linecap:butt;stroke-linejoin:round;}
  </style>
 </defs>
 <g id="figure_1">
  <g id="patch_1">
   <path d="M 0 345.6 
L 460.8 345.6 
L 460.8 0 
L 0 0 
z
" style="fill:#ffffff;"/>
  </g>
  <g id="axes_1">
   <g id="patch_2">
    <path d="M 57.6 307.584 
L 414.72 307.584 
L 414.72 41.472 
L 57.6 41.472 
z
" style="fill:#ffffff;"/>
   </g>
   <g id="PathCollection_1">
    <path clip-path="url(#p329e438242)" d="M 77.357239 66.198428 
C 79.587312 66.198428 81.726346 65.312411 83.303246 63.735511 
C 84.880145 62.158612 85.766163 60.019577 85.766163 57.789504 
C 85.766163 55.559431 84.880145 53.420396 83.303246 51.843497 
C 81.726346 50.266597 79.587312 49.38058 77.357239 49.38058 
C 75.127166 49.38058 72.988131 50.266597 71.411232 51.843497 
C 69.834332 53.420396 68.948315 55.559431 68.948315 57.789504 
C 68.948315 60.019577 69.834332 62.158612 71.411232 63.735511 
C 72.988131 65.312411 75.127166 66.198428 77.357239 66.198428 
z
" style="fill:#08306b;fill-opacity:0.7;stroke:#000000;stroke-opacity:0.7;"/>
    <path clip-path="url(#p329e438242)" d="M 70.922277 211.643454 
C 73.060042 211.643454 75.110538 210.794111 76.622167 209.282482 
C 78.133796 207.770854 78.983139 205.720358 78.983139 203.582592 
C 78.983139 201.444826 78.133796 199.39433 76.622167 197.882702 
C 75.110538 196.371073 73.060042 195.52173 70.922277 195.52173 
C 68.784511 195.52173 66.734015 196.371073 65.222386 197.882702 
C 63.710758 199.39433 62.861414 201.444826 62.861414 203.582592 
C 62.861414 205.720358 63.710758 207.770854 65.222386 209.282482 
C 66.734015 210.794111 68.784511 211.643454 70.922277 211.643454 
z
" style="fill:#105ba4;fill-opacity:0.7;stroke:#000000;stroke-opacity:0.7;"/>
    <path clip-path="url(#p329e438242)" d="M 176.43083 297.018639 
C 176.843176 297.018639 177.238689 296.854812 177.530261 296.56324 
C 177.821834 296.271667 177.985661 295.876154 177.985661 295.463808 
C 177.985661 295.051462 177.821834 294.655949 177.530261 294.364376 
C 177.238689 294.072804 176.843176 293.908977 176.43083 293.908977 
C 176.018484 293.908977 175.622971 294.072804 175.331398 294.364376 
C 175.039825 294.655949 174.875999 295.051462 174.875999 295.463808 
C 174.875999 295.876154 175.039825 296.271667 175.331398 296.56324 
C 175.622971 296.854812 176.018484 297.018639 176.43083 297.018639 
z
" style="fill:#7f2704;fill-opacity:0.7;stroke:#000000;stroke-opacity:0.7;"/>
    <path clip-path="url(#p329e438242)" d="M 74.605714 212.447254 
C 76.706434 212.447254 78.721397 211.612629 80.20683 210.127196 
C 81.692264 208.641763 82.526888 206.6268 82.526888 204.52608 
C 82.526888 202.42536 81.692264 200.410397 80.20683 198.924964 
C 78.721397 197.439531 76.706434 196.604906 74.605714 196.604906 
C 72.504994 196.604906 70.490032 197.439531 69.004598 198.924964 
C 67.519165 200.410397 66.68454 202.42536 66.68454 204.52608 
C 66.68454 206.6268 67.519165 208.641763 69.004598 210.127196 
C 70.490032 211.612629 72.504994 212.447254 74.605714 212.447254 
z
" style="fill:#1d6bb1;fill-opacity:0.7;stroke:#000000;stroke-opacity:0.7;"/>
    <path clip-path="url(#p329e438242)" d="M 91.045138 220.221152 
C 93.003695 220.221152 94.882298 219.443009 96.267207 218.058101 
C 97.652116 216.673192 98.430258 214.794589 98.430258 212.836032 
C 98.430258 210.877475 97.652116 208.998872 96.267207 207.613963 
C 94.882298 206.229055 93.003695 205.450912 91.045138 205.450912 
C 89.086582 205.450912 87.207978 206.229055 85.82307 207.613963 
C 84.438161 208.998872 83.660018 210.877475 83.660018 212.836032 
C 83.660018 214.794589 84.438161 216.673192 85.82307 218.058101 
C 87.207978 219.443009 89.086582 220.221152 91.045138 220.221152 
z
" style="fill:#62a8d2;fill-opacity:0.7;stroke:#000000;stroke-opacity:0.7;"/>
    <path clip-path="url(#p329e438242)" d="M 107.482862 246.506052 
C 109.245814 246.506052 110.936798 245.805624 112.183394 244.559028 
C 113.429989 243.312432 114.130418 241.621448 114.130418 239.858496 
C 114.130418 238.095544 113.429989 236.40456 112.183394 235.157964 
C 110.936798 233.911368 109.245814 233.21094 107.482862 233.21094 
C 105.719909 233.21094 104.028925 233.911368 102.78233 235.157964 
C 101.535734 236.40456 100.835306 238.095544 100.835306 239.858496 
C 100.835306 241.621448 101.535734 243.312432 102.78233 244.559028 
C 104.028925 245.805624 105.719909 246.506052 107.482862 246.506052 
z
" style="fill:#ccdff1;fill-opacity:0.7;stroke:#000000;stroke-opacity:0.7;"/>
    <path clip-path="url(#p329e438242)" d="M 123.922286 267.664696 
C 125.378007 267.664696 126.774301 267.086332 127.803651 266.056982 
C 128.833002 265.027632 129.411366 263.631337 129.411366 262.175616 
C 129.411366 260.719895 128.833002 259.3236 127.803651 258.29425 
C 126.774301 257.2649 125.378007 256.686536 123.922286 256.686536 
C 122.466565 256.686536 121.07027 257.2649 120.04092 258.29425 
C 119.01157 259.3236 118.433206 260.719895 118.433206 262.175616 
C 118.433206 263.631337 119.01157 265.027632 120.04092 266.056982 
C 121.07027 267.086332 122.466565 267.664696 123.922286 267.664696 
z
" style="fill:#fddbb7;fill-opacity:0.7;stroke:#000000;stroke-opacity:0.7;"/>
    <path clip-path="url(#p329e438242)" d="M 140.36171 284.739545 
C 141.527473 284.739545 142.645646 284.276382 143.469965 283.452063 
C 144.294284 282.627744 144.757446 281.509571 144.757446 280.343808 
C 144.757446 279.178045 144.294284 278.059872 143.469965 277.235553 
C 142.645646 276.411234 141.527473 275.948071 140.36171 275.948071 
C 139.195947 275.948071 138.077773 276.411234 137.253455 277.235553 
C 136.429136 278.059872 135.965973 279.178045 135.965973 280.343808 
C 135.965973 281.509571 136.429136 282.627744 137.253455 283.452063 
C 138.077773 284.276382 139.195947 284.739545 140.36171 284.739545 
z
" style="fill:#fd8c3b;fill-opacity:0.7;stroke:#000000;stroke-opacity:0.7;"/>
    <path clip-path="url(#p329e438242)" d="M 156.799433 286.933892 
C 157.738754 286.933892 158.639729 286.560696 159.303929 285.896496 
C 159.968129 285.232296 160.341325 284.331321 160.341325 283.392 
C 160.341325 282.452679 159.968129 281.551704 159.303929 280.887504 
C 158.639729 280.223304 157.738754 279.850108 156.799433 279.850108 
C 155.860112 279.850108 154.959137 280.223304 154.294937 280.887504 
C 153.630737 281.551704 153.257541 282.452679 153.257541 283.392 
C 153.257541 284.331321 153.630737 285.232296 154.294937 285.896496 
C 154.959137 286.560696 155.860112 286.933892 156.799433 286.933892 
z
" style="fill:#e15307;fill-opacity:0.7;stroke:#000000;stroke-opacity:0.7;"/>
    <path clip-path="url(#p329e438242)" d="M 74.605714 211.817978 
C 76.786556 211.817978 78.87837 210.95152 80.420458 209.409432 
C 81.962547 207.867344 82.829004 205.77553 82.829004 203.594688 
C 82.829004 201.413846 81.962547 199.322032 80.420458 197.779944 
C 78.87837 196.237856 76.786556 195.371398 74.605714 195.371398 
C 72.424872 195.371398 70.333058 196.237856 68.79097 197.779944 
C 67.248882 199.322032 66.382424 201.413846 66.382424 203.594688 
C 66.382424 205.77553 67.248882 207.867344 68.79097 209.409432 
C 70.333058 210.95152 72.424872 211.817978 74.605714 211.817978 
z
" style="fill:#08478d;fill-opacity:0.7;stroke:#000000;stroke-opacity:0.7;"/>
    <path clip-path="url(#p329e438242)" d="M 91.045138 233.02071 
C 92.952896 233.02071 94.782774 232.262749 96.131763 230.913761 
C 97.480752 229.564772 98.238712 227.734894 98.238712 225.827136 
C 98.238712 223.919378 97.480752 222.0895 96.131763 220.740511 
C 94.782774 219.391523 92.952896 218.633562 91.045138 218.633562 
C 89.13738 218.633562 87.307502 219.391523 85.958514 220.740511 
C 84.609525 222.0895 83.851565 223.919378 83.851565 225.827136 
C 83.851565 227.734894 84.609525 229.564772 85.958514 230.913761 
C 87.307502 232.262749 89.13738 233.02071 91.045138 233.02071 
z
" style="fill:#83bbdb;fill-opacity:0.7;stroke:#000000;stroke-opacity:0.7;"/>
    <path clip-path="url(#p329e438242)" d="M 107.482862 250.39357 
C 109.179695 250.39357 110.807259 249.719411 112.007102 248.519568 
C 113.206945 247.319726 113.881104 245.692162 113.881104 243.995328 
C 113.881104 242.298494 113.206945 240.67093 112.007102 239.471088 
C 110.807259 238.271245 109.179695 237.597086 107.482862 237.597086 
C 105.786028 237.597086 104.158464 238.271245 102.958621 239.471088 
C 101.758779 240.67093 101.08462 242.298494 101.08462 243.995328 
C 101.08462 245.692162 101.758779 247.319726 102.958621 248.519568 
C 104.158464 249.719411 105.786028 250.39357 107.482862 250.39357 
z
" style="fill:#deebf7;fill-opacity:0.7;stroke:#000000;stroke-opacity:0.7;"/>
    <path clip-path="url(#p329e438242)" d="M 123.922286 254.117024 
C 125.40363 254.117024 126.824501 253.52848 127.871969 252.481012 
C 128.919438 251.433543 129.507982 250.012672 129.507982 248.531328 
C 129.507982 247.049984 128.919438 245.629113 127.871969 244.581644 
C 126.824501 243.534176 125.40363 242.945632 123.922286 242.945632 
C 122.440942 242.945632 121.02007 243.534176 119.972602 244.581644 
C 118.925134 245.629113 118.33659 247.049984 118.33659 248.531328 
C 118.33659 250.012672 118.925134 251.433543 119.972602 252.481012 
C 121.02007 253.52848 122.440942 254.117024 123.922286 254.117024 
z
" style="fill:#fee0c3;fill-opacity:0.7;stroke:#000000;stroke-opacity:0.7;"/>
    <path clip-path="url(#p329e438242)" d="M 140.36171 221.667996 
C 141.590834 221.667996 142.769782 221.17966 143.638904 220.310538 
C 144.508026 219.441416 144.996362 218.262468 144.996362 217.033344 
C 144.996362 215.80422 144.508026 214.625272 143.638904 213.75615 
C 142.769782 212.887028 141.590834 212.398692 140.36171 212.398692 
C 139.132586 212.398692 137.953638 212.887028 137.084516 213.75615 
C 136.215394 214.625272 135.727058 215.80422 135.727058 217.033344 
C 135.727058 218.262468 136.215394 219.441416 137.084516 220.310538 
C 137.953638 221.17966 139.132586 221.667996 140.36171 221.667996 
z
" style="fill:#fd9d52;fill-opacity:0.7;stroke:#000000;stroke-opacity:0.7;"/>
    <path clip-path="url(#p329e438242)" d="M 156.799433 252.49375 
C 157.693093 252.49375 158.550271 252.138695 159.182184 251.506783 
C 159.814096 250.87487 160.169151 250.017692 160.169151 249.124032 
C 160.169151 248.230372 159.814096 247.373194 159.182184 246.741281 
C 158.550271 246.109369 157.693093 245.754314 156.799433 245.754314 
C 155.905773 245.754314 155.048595 246.109369 154.416683 246.741281 
C 153.78477 247.373194 153.429715 248.230372 153.429715 249.124032 
C 153.429715 250.017692 153.78477 250.87487 154.416683 251.506783 
C 155.048595 252.138695 155.905773 252.49375 156.799433 252.49375 
z
" style="fill:#db4b02;fill-opacity:0.7;stroke:#000000;stroke-opacity:0.7;"/>
    <path clip-path="url(#p329e438242)" d="M 74.605714 215.568116 
C 76.703251 215.568116 78.715161 214.734756 80.198343 213.251573 
C 81.681526 211.768391 82.514886 209.756481 82.514886 207.658944 
C 82.514886 205.561407 81.681526 203.549497 80.198343 202.066315 
C 78.715161 200.583132 76.703251 199.749772 74.605714 199.749772 
C 72.508177 199.749772 70.496268 200.583132 69.013085 202.066315 
C 67.529903 203.549497 66.696542 205.561407 66.696542 207.658944 
C 66.696542 209.756481 67.529903 211.768391 69.013085 213.251573 
C 70.496268 214.734756 72.508177 215.568116 74.605714 215.568116 
z
" style="fill:#1e6db2;fill-opacity:0.7;stroke:#000000;stroke-opacity:0.7;"/>
    <path clip-path="url(#p329e438242)" d="M 91.045138 221.836851 
C 92.960623 221.836851 94.797912 221.075821 96.152364 219.721369 
C 97.506816 218.366917 98.267846 216.529628 98.267846 214.614144 
C 98.267846 212.69866 97.506816 210.861371 96.152364 209.506919 
C 94.797912 208.152467 92.960623 207.391437 91.045138 207.391437 
C 89.129654 207.391437 87.292365 208.152467 85.937913 209.506919 
C 84.583461 210.861371 83.822431 212.69866 83.822431 214.614144 
C 83.822431 216.529628 84.583461 218.366917 85.937913 219.721369 
C 87.292365 221.075821 89.129654 221.836851 91.045138 221.836851 
z
" style="fill:#7db8da;fill-opacity:0.7;stroke:#000000;stroke-opacity:0.7;"/>
    <path clip-path="url(#p329e438242)" d="M 107.482862 221.290156 
C 109.202035 221.290156 110.851026 220.607122 112.066665 219.391483 
C 113.282303 218.175844 113.965338 216.526853 113.965338 214.80768 
C 113.965338 213.088507 113.282303 211.439516 112.066665 210.223877 
C 110.851026 209.008238 109.202035 208.325204 107.482862 208.325204 
C 105.763689 208.325204 104.114697 209.008238 102.899059 210.223877 
C 101.68342 211.439516 101.000385 213.088507 101.000385 214.80768 
C 101.000385 216.526853 101.68342 218.175844 102.899059 219.391483 
C 104.114697 220.607122 105.763689 221.290156 107.482862 221.290156 
z
" style="fill:#d8e7f5;fill-opacity:0.7;stroke:#000000;stroke-opacity:0.7;"/>
    <path clip-path="url(#p329e438242)" d="M 123.922286 214.868134 
C 125.417159 214.868134 126.851007 214.274215 127.908042 213.21718 
C 128.965076 212.160145 129.558996 210.726297 129.558996 209.231424 
C 129.558996 207.736551 128.965076 206.302703 127.908042 205.245668 
C 126.851007 204.188633 125.417159 203.594714 123.922286 203.594714 
C 122.427413 203.594714 120.993565 204.188633 119.93653 205.245668 
C 118.879495 206.302703 118.285576 207.736551 118.285576 209.231424 
C 118.285576 210.726297 118.879495 212.160145 119.93653 213.21718 
C 120.993565 214.274215 122.427413 214.868134 123.922286 214.868134 
z
" style="fill:#fee4cb;fill-opacity:0.7;stroke:#000000;stroke-opacity:0.7;"/>
    <path clip-path="url(#p329e438242)" d="M 140.36171 219.499878 
C 141.596472 219.499878 142.780827 219.009302 143.653935 218.136194 
C 144.527044 217.263085 145.01762 216.07873 145.01762 214.843968 
C 145.01762 213.609206 144.527044 212.424851 143.653935 211.551742 
C 142.780827 210.678634 141.596472 210.188058 140.36171 210.188058 
C 139.126948 210.188058 137.942592 210.678634 137.069484 211.551742 
C 136.196376 212.424851 135.705799 213.609206 135.705799 214.843968 
C 135.705799 216.07873 136.196376 217.263085 137.069484 218.136194 
C 137.942592 219.009302 139.126948 219.499878 140.36171 219.499878 
z
" style="fill:#fd9f55;fill-opacity:0.7;stroke:#000000;stroke-opacity:0.7;"/>
    <path clip-path="url(#p329e438242)" d="M 156.799433 218.666271 
C 157.81312 218.666271 158.785425 218.263529 159.502209 217.546744 
C 160.218994 216.82996 160.621736 215.857655 160.621736 214.843968 
C 160.621736 213.830281 160.218994 212.857976 159.502209 212.141192 
C 158.785425 211.424407 157.81312 211.021665 156.799433 211.021665 
C 155.785747 211.021665 154.813441 211.424407 154.096657 212.141192 
C 153.379872 212.857976 152.97713 213.830281 152.97713 214.843968 
C 152.97713 215.857655 153.379872 216.82996 154.096657 217.546744 
C 154.813441 218.263529 155.785747 218.666271 156.799433 218.666271 
z
" style="fill:#ed6410;fill-opacity:0.7;stroke:#000000;stroke-opacity:0.7;"/>
    <path clip-path="url(#p329e438242)" d="M 74.605714 188.734584 
C 76.769396 188.734584 78.844751 187.874945 80.374705 186.34499 
C 81.904659 184.815036 82.764299 182.739682 82.764299 180.576 
C 82.764299 178.412318 81.904659 176.336964 80.374705 174.80701 
C 78.844751 173.277055 76.769396 172.417416 74.605714 172.417416 
C 72.442032 172.417416 70.366678 173.277055 68.836724 174.80701 
C 67.30677 176.336964 66.44713 178.412318 66.44713 180.576 
C 66.44713 182.739682 67.30677 184.815036 68.836724 186.34499 
C 70.366678 187.874945 72.442032 188.734584 74.605714 188.734584 
z
" style="fill:#084f99;fill-opacity:0.7;stroke:#000000;stroke-opacity:0.7;"/>
    <path clip-path="url(#p329e438242)" d="M 91.045138 188.436025 
C 93.129641 188.436025 95.129049 187.607844 96.603016 186.133877 
C 98.076982 184.659911 98.905164 182.660503 98.905164 180.576 
C 98.905164 178.491497 98.076982 176.492089 96.603016 175.018123 
C 95.129049 173.544156 93.129641 172.715975 91.045138 172.715975 
C 88.960635 172.715975 86.961227 173.544156 85.487261 175.018123 
C 84.013295 176.492089 83.185113 178.491497 83.185113 180.576 
C 83.185113 182.660503 84.013295 184.659911 85.487261 186.133877 
C 86.961227 187.607844 88.960635 188.436025 91.045138 188.436025 
z
" style="fill:#2474b6;fill-opacity:0.7;stroke:#000000;stroke-opacity:0.7;"/>
    <path clip-path="url(#p329e438242)" d="M 107.482862 187.416504 
C 109.296985 187.416504 111.03705 186.695746 112.319829 185.412967 
C 113.602607 184.130188 114.323366 182.390123 114.323366 180.576 
C 114.323366 178.761877 113.602607 177.021812 112.319829 175.739033 
C 111.03705 174.456254 109.296985 173.735496 107.482862 173.735496 
C 105.668739 173.735496 103.928673 174.456254 102.645895 175.739033 
C 101.363116 177.021812 100.642357 178.761877 100.642357 180.576 
C 100.642357 182.390123 101.363116 184.130188 102.645895 185.412967 
C 103.928673 186.695746 105.668739 187.416504 107.482862 187.416504 
z
" style="fill:#b6d4e9;fill-opacity:0.7;stroke:#000000;stroke-opacity:0.7;"/>
    <path clip-path="url(#p329e438242)" d="M 123.922286 186.423008 
C 125.47293 186.423008 126.960273 185.80693 128.056745 184.710459 
C 129.153216 183.613988 129.769293 182.126645 129.769293 180.576 
C 129.769293 179.025355 129.153216 177.538012 128.056745 176.441541 
C 126.960273 175.34507 125.47293 174.728992 123.922286 174.728992 
C 122.371641 174.728992 120.884298 175.34507 119.787827 176.441541 
C 118.691356 177.538012 118.075278 179.025355 118.075278 180.576 
C 118.075278 182.126645 118.691356 183.613988 119.787827 184.710459 
C 120.884298 185.80693 122.371641 186.423008 123.922286 186.423008 
z
" style="fill:#feeddc;fill-opacity:0.7;stroke:#000000;stroke-opacity:0.7;"/>
    <path clip-path="url(#p329e438242)" d="M 140.36171 185.49662 
C 141.666673 185.49662 142.918365 184.978152 143.841113 184.055404 
C 144.763862 183.132655 145.28233 181.880964 145.28233 180.576 
C 145.28233 179.271036 144.763862 178.019345 143.841113 177.096596 
C 142.918365 176.173848 141.666673 175.65538 140.36171 175.65538 
C 139.056746 175.65538 137.805055 176.173848 136.882306 177.096596 
C 135.959557 178.019345 135.44109 179.271036 135.44109 180.576 
C 135.44109 181.880964 135.959557 183.132655 136.882306 184.055404 
C 137.805055 184.978152 139.056746 185.49662 140.36171 185.49662 
z
" style="fill:#fdb171;fill-opacity:0.7;stroke:#000000;stroke-opacity:0.7;"/>
    <path clip-path="url(#p329e438242)" d="M 156.799433 184.722685 
C 157.899147 184.722685 158.953967 184.285764 159.731583 183.508149 
C 160.509198 182.730534 160.946119 181.675714 160.946119 180.576 
C 160.946119 179.476286 160.509198 178.421466 159.731583 177.643851 
C 158.953967 176.866236 157.899147 176.429315 156.799433 176.429315 
C 155.699719 176.429315 154.644899 176.866236 153.867284 177.643851 
C 153.089669 178.421466 152.652748 179.476286 152.652748 180.576 
C 152.652748 181.675714 153.089669 182.730534 153.867284 183.508149 
C 154.644899 184.285764 155.699719 184.722685 156.799433 184.722685 
z
" style="fill:#f77a26;fill-opacity:0.7;stroke:#000000;stroke-opacity:0.7;"/>
    <path clip-path="url(#p329e438242)" d="M 91.045138 154.308032 
C 93.166763 154.308032 95.201777 153.465102 96.701993 151.964886 
C 98.202208 150.464671 99.045138 148.429657 99.045138 146.308032 
C 99.045138 144.186407 98.202208 142.151393 96.701993 140.651178 
C 95.201777 139.150962 93.166763 138.308032 91.045138 138.308032 
C 88.923513 138.308032 86.888499 139.150962 85.388284 140.651178 
C 83.888069 142.151393 83.045138 144.186407 83.045138 146.308032 
C 83.045138 148.429657 83.888069 150.464671 85.388284 151.964886 
C 86.888499 153.465102 88.923513 154.308032 91.045138 154.308032 
z
" style="fill:#1663aa;fill-opacity:0.7;stroke:#000000;stroke-opacity:0.7;"/>
    <path clip-path="url(#p329e438242)" d="M 107.482862 153.154564 
C 109.298583 153.154564 111.040182 152.43317 112.324091 151.149261 
C 113.608 149.865352 114.329394 148.123754 114.329394 146.308032 
C 114.329394 144.49231 113.608 142.750712 112.324091 141.466803 
C 111.040182 140.182894 109.298583 139.4615 107.482862 139.4615 
C 105.66714 139.4615 103.925542 140.182894 102.641633 141.466803 
C 101.357724 142.750712 100.63633 144.49231 100.63633 146.308032 
C 100.63633 148.123754 101.357724 149.865352 102.641633 151.149261 
C 103.925542 152.43317 105.66714 153.154564 107.482862 153.154564 
z
" style="fill:#b6d4e9;fill-opacity:0.7;stroke:#000000;stroke-opacity:0.7;"/>
    <path clip-path="url(#p329e438242)" d="M 123.922286 152.313446 
C 125.51494 152.313446 127.042578 151.680678 128.168755 150.554501 
C 129.294932 149.428324 129.9277 147.900686 129.9277 146.308032 
C 129.9277 144.715378 129.294932 143.18774 128.168755 142.061563 
C 127.042578 140.935386 125.51494 140.302618 123.922286 140.302618 
C 122.329631 140.302618 120.801993 140.935386 119.675817 142.061563 
C 118.54964 143.18774 117.916871 144.715378 117.916871 146.308032 
C 117.916871 147.900686 118.54964 149.428324 119.675817 150.554501 
C 120.801993 151.680678 122.329631 152.313446 123.922286 152.313446 
z
" style="fill:#fff4e9;fill-opacity:0.7;stroke:#000000;stroke-opacity:0.7;"/>
    <path clip-path="url(#p329e438242)" d="M 140.36171 151.501056 
C 141.738916 151.501056 143.059901 150.953886 144.033732 149.980055 
C 145.007564 149.006223 145.554734 147.685238 145.554734 146.308032 
C 145.554734 144.930826 145.007564 143.609841 144.033732 142.636009 
C 143.059901 141.662178 141.738916 141.115008 140.36171 141.115008 
C 138.984504 141.115008 137.663519 141.662178 136.689687 142.636009 
C 135.715855 143.609841 135.168686 144.930826 135.168686 146.308032 
C 135.168686 147.685238 135.715855 149.006223 136.689687 149.980055 
C 137.663519 150.953886 138.984504 151.501056 140.36171 151.501056 
z
" style="fill:#fdc997;fill-opacity:0.7;stroke:#000000;stroke-opacity:0.7;"/>
    <path clip-path="url(#p329e438242)" d="M 156.799433 150.838209 
C 158.00085 150.838209 159.153222 150.360881 160.002752 149.511351 
C 160.852282 148.661821 161.32961 147.509449 161.32961 146.308032 
C 161.32961 145.106615 160.852282 143.954243 160.002752 143.104713 
C 159.153222 142.255183 158.00085 141.777855 156.799433 141.777855 
C 155.598016 141.777855 154.445645 142.255183 153.596115 143.104713 
C 152.746585 143.954243 152.269257 145.106615 152.269257 146.308032 
C 152.269257 147.509449 152.746585 148.661821 153.596115 149.511351 
C 154.445645 150.360881 155.598016 150.838209 156.799433 150.838209 
z
" style="fill:#fd9446;fill-opacity:0.7;stroke:#000000;stroke-opacity:0.7;"/>
    <path clip-path="url(#p329e438242)" d="M 91.045138 119.809677 
C 93.108872 119.809677 95.088358 118.989747 96.547638 117.530467 
C 98.006918 116.071188 98.826848 114.091701 98.826848 112.027968 
C 98.826848 109.964235 98.006918 107.984748 96.547638 106.525469 
C 95.088358 105.066189 93.108872 104.246259 91.045138 104.246259 
C 88.981405 104.246259 87.001919 105.066189 85.542639 106.525469 
C 84.083359 107.984748 83.263429 109.964235 83.263429 112.027968 
C 83.263429 114.091701 84.083359 116.071188 85.542639 117.530467 
C 87.001919 118.989747 88.981405 119.809677 91.045138 119.809677 
z
" style="fill:#2e7ebc;fill-opacity:0.7;stroke:#000000;stroke-opacity:0.7;"/>
    <path clip-path="url(#p329e438242)" d="M 107.482862 118.953284 
C 109.319477 118.953284 111.081116 118.223589 112.3798 116.924906 
C 113.678483 115.626223 114.408178 113.864583 114.408178 112.027968 
C 114.408178 110.191353 113.678483 108.429713 112.3798 107.13103 
C 111.081116 105.832347 109.319477 105.102652 107.482862 105.102652 
C 105.646246 105.102652 103.884607 105.832347 102.585924 107.13103 
C 101.287241 108.429713 100.557546 110.191353 100.557546 112.027968 
C 100.557546 113.864583 101.287241 115.626223 102.585924 116.924906 
C 103.884607 118.223589 105.646246 118.953284 107.482862 118.953284 
z
" style="fill:#acd0e6;fill-opacity:0.7;stroke:#000000;stroke-opacity:0.7;"/>
    <path clip-path="url(#p329e438242)" d="M 123.922286 118.243071 
C 125.57055 118.243071 127.151528 117.588208 128.317027 116.422709 
C 129.482526 115.25721 130.137388 113.676232 130.137388 112.027968 
C 130.137388 110.379704 129.482526 108.798726 128.317027 107.633227 
C 127.151528 106.467728 125.57055 105.812865 123.922286 105.812865 
C 122.274021 105.812865 120.693044 106.467728 119.527545 107.633227 
C 118.362046 108.798726 117.707183 110.379704 117.707183 112.027968 
C 117.707183 113.676232 118.362046 115.25721 119.527545 116.422709 
C 120.693044 117.588208 122.274021 118.243071 123.922286 118.243071 
z
" style="fill:#ecf4fb;fill-opacity:0.7;stroke:#000000;stroke-opacity:0.7;"/>
    <path clip-path="url(#p329e438242)" d="M 140.36171 117.551554 
C 141.826582 117.551554 143.231654 116.969554 144.267475 115.933733 
C 145.303296 114.897912 145.885296 113.49284 145.885296 112.027968 
C 145.885296 110.563096 145.303296 109.158024 144.267475 108.122203 
C 143.231654 107.086382 141.826582 106.504382 140.36171 106.504382 
C 138.896838 106.504382 137.491766 107.086382 136.455945 108.122203 
C 135.420124 109.158024 134.838124 110.563096 134.838124 112.027968 
C 134.838124 113.49284 135.420124 114.897912 136.455945 115.933733 
C 137.491766 116.969554 138.896838 117.551554 140.36171 117.551554 
z
" style="fill:#fedebd;fill-opacity:0.7;stroke:#000000;stroke-opacity:0.7;"/>
    <path clip-path="url(#p329e438242)" d="M 146.96843 117.298642 
C 148.366229 117.298642 149.706966 116.74329 150.695359 115.754897 
C 151.683752 114.766504 152.239103 113.425767 152.239103 112.027968 
C 152.239103 110.630169 151.683752 109.289432 150.695359 108.301039 
C 149.706966 107.312646 148.366229 106.757294 146.96843 106.757294 
C 145.570631 106.757294 144.229894 107.312646 143.241501 108.301039 
C 142.253108 109.289432 141.697756 110.630169 141.697756 112.027968 
C 141.697756 113.425767 142.253108 114.766504 143.241501 115.754897 
C 144.229894 116.74329 145.570631 117.298642 146.96843 117.298642 
z
" style="fill:#fdcfa1;fill-opacity:0.7;stroke:#000000;stroke-opacity:0.7;"/>
   </g>
   <g id="matplotlib.axis_1">
    <g id="xtick_1">
     <g id="line2d_1">
      <defs>
       <path d="M 0 0 
L 0 3.5 
" id="m6cc11d0731" style="stroke:#000000;stroke-width:0.8;"/>
      </defs>
      <g>
       <use style="stroke:#000000;stroke-width:0.8;" x="57.6" xlink:href="#m6cc11d0731" y="307.584"/>
      </g>
     </g>
     <g id="text_1">
      <!-- −5.0 -->
      <defs>
       <path d="M 10.59375 35.5 
L 73.1875 35.5 
L 73.1875 27.203125 
L 10.59375 27.203125 
z
" id="DejaVuSans-8722"/>
       <path d="M 10.796875 72.90625 
L 49.515625 72.90625 
L 49.515625 64.59375 
L 19.828125 64.59375 
L 19.828125 46.734375 
Q 21.96875 47.46875 24.109375 47.828125 
Q 26.265625 48.1875 28.421875 48.1875 
Q 40.625 48.1875 47.75 41.5 
Q 54.890625 34.8125 54.890625 23.390625 
Q 54.890625 11.625 47.5625 5.09375 
Q 40.234375 -1.421875 26.90625 -1.421875 
Q 22.3125 -1.421875 17.546875 -0.640625 
Q 12.796875 0.140625 7.71875 1.703125 
L 7.71875 11.625 
Q 12.109375 9.234375 16.796875 8.0625 
Q 21.484375 6.890625 26.703125 6.890625 
Q 35.15625 6.890625 40.078125 11.328125 
Q 45.015625 15.765625 45.015625 23.390625 
Q 45.015625 31 40.078125 35.4375 
Q 35.15625 39.890625 26.703125 39.890625 
Q 22.75 39.890625 18.8125 39.015625 
Q 14.890625 38.140625 10.796875 36.28125 
z
" id="DejaVuSans-53"/>
       <path d="M 10.6875 12.40625 
L 21 12.40625 
L 21 0 
L 10.6875 0 
z
" id="DejaVuSans-46"/>
       <path d="M 31.78125 66.40625 
Q 24.171875 66.40625 20.328125 58.90625 
Q 16.5 51.421875 16.5 36.375 
Q 16.5 21.390625 20.328125 13.890625 
Q 24.171875 6.390625 31.78125 6.390625 
Q 39.453125 6.390625 43.28125 13.890625 
Q 47.125 21.390625 47.125 36.375 
Q 47.125 51.421875 43.28125 58.90625 
Q 39.453125 66.40625 31.78125 66.40625 
z
M 31.78125 74.21875 
Q 44.046875 74.21875 50.515625 64.515625 
Q 56.984375 54.828125 56.984375 36.375 
Q 56.984375 17.96875 50.515625 8.265625 
Q 44.046875 -1.421875 31.78125 -1.421875 
Q 19.53125 -1.421875 13.0625 8.265625 
Q 6.59375 17.96875 6.59375 36.375 
Q 6.59375 54.828125 13.0625 64.515625 
Q 19.53125 74.21875 31.78125 74.21875 
z
" id="DejaVuSans-48"/>
      </defs>
      <g transform="translate(45.458594 322.182437)scale(0.1 -0.1)">
       <use xlink:href="#DejaVuSans-8722"/>
       <use x="83.789062" xlink:href="#DejaVuSans-53"/>
       <use x="147.412109" xlink:href="#DejaVuSans-46"/>
       <use x="179.199219" xlink:href="#DejaVuSans-48"/>
      </g>
     </g>
    </g>
    <g id="xtick_2">
     <g id="line2d_2">
      <g>
       <use style="stroke:#000000;stroke-width:0.8;" x="100.114286" xlink:href="#m6cc11d0731" y="307.584"/>
      </g>
     </g>
     <g id="text_2">
      <!-- −2.5 -->
      <defs>
       <path d="M 19.1875 8.296875 
L 53.609375 8.296875 
L 53.609375 0 
L 7.328125 0 
L 7.328125 8.296875 
Q 12.9375 14.109375 22.625 23.890625 
Q 32.328125 33.6875 34.8125 36.53125 
Q 39.546875 41.84375 41.421875 45.53125 
Q 43.3125 49.21875 43.3125 52.78125 
Q 43.3125 58.59375 39.234375 62.25 
Q 35.15625 65.921875 28.609375 65.921875 
Q 23.96875 65.921875 18.8125 64.3125 
Q 13.671875 62.703125 7.8125 59.421875 
L 7.8125 69.390625 
Q 13.765625 71.78125 18.9375 73 
Q 24.125 74.21875 28.421875 74.21875 
Q 39.75 74.21875 46.484375 68.546875 
Q 53.21875 62.890625 53.21875 53.421875 
Q 53.21875 48.921875 51.53125 44.890625 
Q 49.859375 40.875 45.40625 35.40625 
Q 44.1875 33.984375 37.640625 27.21875 
Q 31.109375 20.453125 19.1875 8.296875 
z
" id="DejaVuSans-50"/>
      </defs>
      <g transform="translate(87.972879 322.182437)scale(0.1 -0.1)">
       <use xlink:href="#DejaVuSans-8722"/>
       <use x="83.789062" xlink:href="#DejaVuSans-50"/>
       <use x="147.412109" xlink:href="#DejaVuSans-46"/>
       <use x="179.199219" xlink:href="#DejaVuSans-53"/>
      </g>
     </g>
    </g>
    <g id="xtick_3">
     <g id="line2d_3">
      <g>
       <use style="stroke:#000000;stroke-width:0.8;" x="142.628571" xlink:href="#m6cc11d0731" y="307.584"/>
      </g>
     </g>
     <g id="text_3">
      <!-- 0.0 -->
      <g transform="translate(134.677009 322.182437)scale(0.1 -0.1)">
       <use xlink:href="#DejaVuSans-48"/>
       <use x="63.623047" xlink:href="#DejaVuSans-46"/>
       <use x="95.410156" xlink:href="#DejaVuSans-48"/>
      </g>
     </g>
    </g>
    <g id="xtick_4">
     <g id="line2d_4">
      <g>
       <use style="stroke:#000000;stroke-width:0.8;" x="185.142857" xlink:href="#m6cc11d0731" y="307.584"/>
      </g>
     </g>
     <g id="text_4">
      <!-- 2.5 -->
      <g transform="translate(177.191295 322.182437)scale(0.1 -0.1)">
       <use xlink:href="#DejaVuSans-50"/>
       <use x="63.623047" xlink:href="#DejaVuSans-46"/>
       <use x="95.410156" xlink:href="#DejaVuSans-53"/>
      </g>
     </g>
    </g>
    <g id="xtick_5">
     <g id="line2d_5">
      <g>
       <use style="stroke:#000000;stroke-width:0.8;" x="227.657143" xlink:href="#m6cc11d0731" y="307.584"/>
      </g>
     </g>
     <g id="text_5">
      <!-- 5.0 -->
      <g transform="translate(219.70558 322.182437)scale(0.1 -0.1)">
       <use xlink:href="#DejaVuSans-53"/>
       <use x="63.623047" xlink:href="#DejaVuSans-46"/>
       <use x="95.410156" xlink:href="#DejaVuSans-48"/>
      </g>
     </g>
    </g>
    <g id="xtick_6">
     <g id="line2d_6">
      <g>
       <use style="stroke:#000000;stroke-width:0.8;" x="270.171429" xlink:href="#m6cc11d0731" y="307.584"/>
      </g>
     </g>
     <g id="text_6">
      <!-- 7.5 -->
      <defs>
       <path d="M 8.203125 72.90625 
L 55.078125 72.90625 
L 55.078125 68.703125 
L 28.609375 0 
L 18.3125 0 
L 43.21875 64.59375 
L 8.203125 64.59375 
z
" id="DejaVuSans-55"/>
      </defs>
      <g transform="translate(262.219866 322.182437)scale(0.1 -0.1)">
       <use xlink:href="#DejaVuSans-55"/>
       <use x="63.623047" xlink:href="#DejaVuSans-46"/>
       <use x="95.410156" xlink:href="#DejaVuSans-53"/>
      </g>
     </g>
    </g>
    <g id="xtick_7">
     <g id="line2d_7">
      <g>
       <use style="stroke:#000000;stroke-width:0.8;" x="312.685714" xlink:href="#m6cc11d0731" y="307.584"/>
      </g>
     </g>
     <g id="text_7">
      <!-- 10.0 -->
      <defs>
       <path d="M 12.40625 8.296875 
L 28.515625 8.296875 
L 28.515625 63.921875 
L 10.984375 60.40625 
L 10.984375 69.390625 
L 28.421875 72.90625 
L 38.28125 72.90625 
L 38.28125 8.296875 
L 54.390625 8.296875 
L 54.390625 0 
L 12.40625 0 
z
" id="DejaVuSans-49"/>
      </defs>
      <g transform="translate(301.552902 322.182437)scale(0.1 -0.1)">
       <use xlink:href="#DejaVuSans-49"/>
       <use x="63.623047" xlink:href="#DejaVuSans-48"/>
       <use x="127.246094" xlink:href="#DejaVuSans-46"/>
       <use x="159.033203" xlink:href="#DejaVuSans-48"/>
      </g>
     </g>
    </g>
    <g id="xtick_8">
     <g id="line2d_8">
      <g>
       <use style="stroke:#000000;stroke-width:0.8;" x="355.2" xlink:href="#m6cc11d0731" y="307.584"/>
      </g>
     </g>
     <g id="text_8">
      <!-- 12.5 -->
      <g transform="translate(344.067187 322.182437)scale(0.1 -0.1)">
       <use xlink:href="#DejaVuSans-49"/>
       <use x="63.623047" xlink:href="#DejaVuSans-50"/>
       <use x="127.246094" xlink:href="#DejaVuSans-46"/>
       <use x="159.033203" xlink:href="#DejaVuSans-53"/>
      </g>
     </g>
    </g>
    <g id="xtick_9">
     <g id="line2d_9">
      <g>
       <use style="stroke:#000000;stroke-width:0.8;" x="397.714286" xlink:href="#m6cc11d0731" y="307.584"/>
      </g>
     </g>
     <g id="text_9">
      <!-- 15.0 -->
      <g transform="translate(386.581473 322.182437)scale(0.1 -0.1)">
       <use xlink:href="#DejaVuSans-49"/>
       <use x="63.623047" xlink:href="#DejaVuSans-53"/>
       <use x="127.246094" xlink:href="#DejaVuSans-46"/>
       <use x="159.033203" xlink:href="#DejaVuSans-48"/>
      </g>
     </g>
    </g>
    <g id="text_10">
     <!-- Global Warming Potential (kgCO2eq/house-yr) -->
     <defs>
      <path d="M 59.515625 10.40625 
L 59.515625 29.984375 
L 43.40625 29.984375 
L 43.40625 38.09375 
L 69.28125 38.09375 
L 69.28125 6.78125 
Q 63.578125 2.734375 56.6875 0.65625 
Q 49.8125 -1.421875 42 -1.421875 
Q 24.90625 -1.421875 15.25 8.5625 
Q 5.609375 18.5625 5.609375 36.375 
Q 5.609375 54.25 15.25 64.234375 
Q 24.90625 74.21875 42 74.21875 
Q 49.125 74.21875 55.546875 72.453125 
Q 61.96875 70.703125 67.390625 67.28125 
L 67.390625 56.78125 
Q 61.921875 61.421875 55.765625 63.765625 
Q 49.609375 66.109375 42.828125 66.109375 
Q 29.4375 66.109375 22.71875 58.640625 
Q 16.015625 51.171875 16.015625 36.375 
Q 16.015625 21.625 22.71875 14.15625 
Q 29.4375 6.6875 42.828125 6.6875 
Q 48.046875 6.6875 52.140625 7.59375 
Q 56.25 8.5 59.515625 10.40625 
z
" id="DejaVuSans-71"/>
      <path d="M 9.421875 75.984375 
L 18.40625 75.984375 
L 18.40625 0 
L 9.421875 0 
z
" id="DejaVuSans-108"/>
      <path d="M 30.609375 48.390625 
Q 23.390625 48.390625 19.1875 42.75 
Q 14.984375 37.109375 14.984375 27.296875 
Q 14.984375 17.484375 19.15625 11.84375 
Q 23.34375 6.203125 30.609375 6.203125 
Q 37.796875 6.203125 41.984375 11.859375 
Q 46.1875 17.53125 46.1875 27.296875 
Q 46.1875 37.015625 41.984375 42.703125 
Q 37.796875 48.390625 30.609375 48.390625 
z
M 30.609375 56 
Q 42.328125 56 49.015625 48.375 
Q 55.71875 40.765625 55.71875 27.296875 
Q 55.71875 13.875 49.015625 6.21875 
Q 42.328125 -1.421875 30.609375 -1.421875 
Q 18.84375 -1.421875 12.171875 6.21875 
Q 5.515625 13.875 5.515625 27.296875 
Q 5.515625 40.765625 12.171875 48.375 
Q 18.84375 56 30.609375 56 
z
" id="DejaVuSans-111"/>
      <path d="M 48.6875 27.296875 
Q 48.6875 37.203125 44.609375 42.84375 
Q 40.53125 48.484375 33.40625 48.484375 
Q 26.265625 48.484375 22.1875 42.84375 
Q 18.109375 37.203125 18.109375 27.296875 
Q 18.109375 17.390625 22.1875 11.75 
Q 26.265625 6.109375 33.40625 6.109375 
Q 40.53125 6.109375 44.609375 11.75 
Q 48.6875 17.390625 48.6875 27.296875 
z
M 18.109375 46.390625 
Q 20.953125 51.265625 25.265625 53.625 
Q 29.59375 56 35.59375 56 
Q 45.5625 56 51.78125 48.09375 
Q 58.015625 40.1875 58.015625 27.296875 
Q 58.015625 14.40625 51.78125 6.484375 
Q 45.5625 -1.421875 35.59375 -1.421875 
Q 29.59375 -1.421875 25.265625 0.953125 
Q 20.953125 3.328125 18.109375 8.203125 
L 18.109375 0 
L 9.078125 0 
L 9.078125 75.984375 
L 18.109375 75.984375 
z
" id="DejaVuSans-98"/>
      <path d="M 34.28125 27.484375 
Q 23.390625 27.484375 19.1875 25 
Q 14.984375 22.515625 14.984375 16.5 
Q 14.984375 11.71875 18.140625 8.90625 
Q 21.296875 6.109375 26.703125 6.109375 
Q 34.1875 6.109375 38.703125 11.40625 
Q 43.21875 16.703125 43.21875 25.484375 
L 43.21875 27.484375 
z
M 52.203125 31.203125 
L 52.203125 0 
L 43.21875 0 
L 43.21875 8.296875 
Q 40.140625 3.328125 35.546875 0.953125 
Q 30.953125 -1.421875 24.3125 -1.421875 
Q 15.921875 -1.421875 10.953125 3.296875 
Q 6 8.015625 6 15.921875 
Q 6 25.140625 12.171875 29.828125 
Q 18.359375 34.515625 30.609375 34.515625 
L 43.21875 34.515625 
L 43.21875 35.40625 
Q 43.21875 41.609375 39.140625 45 
Q 35.0625 48.390625 27.6875 48.390625 
Q 23 48.390625 18.546875 47.265625 
Q 14.109375 46.140625 10.015625 43.890625 
L 10.015625 52.203125 
Q 14.9375 54.109375 19.578125 55.046875 
Q 24.21875 56 28.609375 56 
Q 40.484375 56 46.34375 49.84375 
Q 52.203125 43.703125 52.203125 31.203125 
z
" id="DejaVuSans-97"/>
      <path id="DejaVuSans-32"/>
      <path d="M 3.328125 72.90625 
L 13.28125 72.90625 
L 28.609375 11.28125 
L 43.890625 72.90625 
L 54.984375 72.90625 
L 70.3125 11.28125 
L 85.59375 72.90625 
L 95.609375 72.90625 
L 77.296875 0 
L 64.890625 0 
L 49.515625 63.28125 
L 33.984375 0 
L 21.578125 0 
z
" id="DejaVuSans-87"/>
      <path d="M 41.109375 46.296875 
Q 39.59375 47.171875 37.8125 47.578125 
Q 36.03125 48 33.890625 48 
Q 26.265625 48 22.1875 43.046875 
Q 18.109375 38.09375 18.109375 28.8125 
L 18.109375 0 
L 9.078125 0 
L 9.078125 54.6875 
L 18.109375 54.6875 
L 18.109375 46.1875 
Q 20.953125 51.171875 25.484375 53.578125 
Q 30.03125 56 36.53125 56 
Q 37.453125 56 38.578125 55.875 
Q 39.703125 55.765625 41.0625 55.515625 
z
" id="DejaVuSans-114"/>
      <path d="M 52 44.1875 
Q 55.375 50.25 60.0625 53.125 
Q 64.75 56 71.09375 56 
Q 79.640625 56 84.28125 50.015625 
Q 88.921875 44.046875 88.921875 33.015625 
L 88.921875 0 
L 79.890625 0 
L 79.890625 32.71875 
Q 79.890625 40.578125 77.09375 44.375 
Q 74.3125 48.1875 68.609375 48.1875 
Q 61.625 48.1875 57.5625 43.546875 
Q 53.515625 38.921875 53.515625 30.90625 
L 53.515625 0 
L 44.484375 0 
L 44.484375 32.71875 
Q 44.484375 40.625 41.703125 44.40625 
Q 38.921875 48.1875 33.109375 48.1875 
Q 26.21875 48.1875 22.15625 43.53125 
Q 18.109375 38.875 18.109375 30.90625 
L 18.109375 0 
L 9.078125 0 
L 9.078125 54.6875 
L 18.109375 54.6875 
L 18.109375 46.1875 
Q 21.1875 51.21875 25.484375 53.609375 
Q 29.78125 56 35.6875 56 
Q 41.65625 56 45.828125 52.96875 
Q 50 49.953125 52 44.1875 
z
" id="DejaVuSans-109"/>
      <path d="M 9.421875 54.6875 
L 18.40625 54.6875 
L 18.40625 0 
L 9.421875 0 
z
M 9.421875 75.984375 
L 18.40625 75.984375 
L 18.40625 64.59375 
L 9.421875 64.59375 
z
" id="DejaVuSans-105"/>
      <path d="M 54.890625 33.015625 
L 54.890625 0 
L 45.90625 0 
L 45.90625 32.71875 
Q 45.90625 40.484375 42.875 44.328125 
Q 39.84375 48.1875 33.796875 48.1875 
Q 26.515625 48.1875 22.3125 43.546875 
Q 18.109375 38.921875 18.109375 30.90625 
L 18.109375 0 
L 9.078125 0 
L 9.078125 54.6875 
L 18.109375 54.6875 
L 18.109375 46.1875 
Q 21.34375 51.125 25.703125 53.5625 
Q 30.078125 56 35.796875 56 
Q 45.21875 56 50.046875 50.171875 
Q 54.890625 44.34375 54.890625 33.015625 
z
" id="DejaVuSans-110"/>
      <path d="M 45.40625 27.984375 
Q 45.40625 37.75 41.375 43.109375 
Q 37.359375 48.484375 30.078125 48.484375 
Q 22.859375 48.484375 18.828125 43.109375 
Q 14.796875 37.75 14.796875 27.984375 
Q 14.796875 18.265625 18.828125 12.890625 
Q 22.859375 7.515625 30.078125 7.515625 
Q 37.359375 7.515625 41.375 12.890625 
Q 45.40625 18.265625 45.40625 27.984375 
z
M 54.390625 6.78125 
Q 54.390625 -7.171875 48.1875 -13.984375 
Q 42 -20.796875 29.203125 -20.796875 
Q 24.46875 -20.796875 20.265625 -20.09375 
Q 16.0625 -19.390625 12.109375 -17.921875 
L 12.109375 -9.1875 
Q 16.0625 -11.328125 19.921875 -12.34375 
Q 23.78125 -13.375 27.78125 -13.375 
Q 36.625 -13.375 41.015625 -8.765625 
Q 45.40625 -4.15625 45.40625 5.171875 
L 45.40625 9.625 
Q 42.625 4.78125 38.28125 2.390625 
Q 33.9375 0 27.875 0 
Q 17.828125 0 11.671875 7.65625 
Q 5.515625 15.328125 5.515625 27.984375 
Q 5.515625 40.671875 11.671875 48.328125 
Q 17.828125 56 27.875 56 
Q 33.9375 56 38.28125 53.609375 
Q 42.625 51.21875 45.40625 46.390625 
L 45.40625 54.6875 
L 54.390625 54.6875 
z
" id="DejaVuSans-103"/>
      <path d="M 19.671875 64.796875 
L 19.671875 37.40625 
L 32.078125 37.40625 
Q 38.96875 37.40625 42.71875 40.96875 
Q 46.484375 44.53125 46.484375 51.125 
Q 46.484375 57.671875 42.71875 61.234375 
Q 38.96875 64.796875 32.078125 64.796875 
z
M 9.8125 72.90625 
L 32.078125 72.90625 
Q 44.34375 72.90625 50.609375 67.359375 
Q 56.890625 61.8125 56.890625 51.125 
Q 56.890625 40.328125 50.609375 34.8125 
Q 44.34375 29.296875 32.078125 29.296875 
L 19.671875 29.296875 
L 19.671875 0 
L 9.8125 0 
z
" id="DejaVuSans-80"/>
      <path d="M 18.3125 70.21875 
L 18.3125 54.6875 
L 36.8125 54.6875 
L 36.8125 47.703125 
L 18.3125 47.703125 
L 18.3125 18.015625 
Q 18.3125 11.328125 20.140625 9.421875 
Q 21.96875 7.515625 27.59375 7.515625 
L 36.8125 7.515625 
L 36.8125 0 
L 27.59375 0 
Q 17.1875 0 13.234375 3.875 
Q 9.28125 7.765625 9.28125 18.015625 
L 9.28125 47.703125 
L 2.6875 47.703125 
L 2.6875 54.6875 
L 9.28125 54.6875 
L 9.28125 70.21875 
z
" id="DejaVuSans-116"/>
      <path d="M 56.203125 29.59375 
L 56.203125 25.203125 
L 14.890625 25.203125 
Q 15.484375 15.921875 20.484375 11.0625 
Q 25.484375 6.203125 34.421875 6.203125 
Q 39.59375 6.203125 44.453125 7.46875 
Q 49.3125 8.734375 54.109375 11.28125 
L 54.109375 2.78125 
Q 49.265625 0.734375 44.1875 -0.34375 
Q 39.109375 -1.421875 33.890625 -1.421875 
Q 20.796875 -1.421875 13.15625 6.1875 
Q 5.515625 13.8125 5.515625 26.8125 
Q 5.515625 40.234375 12.765625 48.109375 
Q 20.015625 56 32.328125 56 
Q 43.359375 56 49.78125 48.890625 
Q 56.203125 41.796875 56.203125 29.59375 
z
M 47.21875 32.234375 
Q 47.125 39.59375 43.09375 43.984375 
Q 39.0625 48.390625 32.421875 48.390625 
Q 24.90625 48.390625 20.390625 44.140625 
Q 15.875 39.890625 15.1875 32.171875 
z
" id="DejaVuSans-101"/>
      <path d="M 31 75.875 
Q 24.46875 64.65625 21.28125 53.65625 
Q 18.109375 42.671875 18.109375 31.390625 
Q 18.109375 20.125 21.3125 9.0625 
Q 24.515625 -2 31 -13.1875 
L 23.1875 -13.1875 
Q 15.875 -1.703125 12.234375 9.375 
Q 8.59375 20.453125 8.59375 31.390625 
Q 8.59375 42.28125 12.203125 53.3125 
Q 15.828125 64.359375 23.1875 75.875 
z
" id="DejaVuSans-40"/>
      <path d="M 9.078125 75.984375 
L 18.109375 75.984375 
L 18.109375 31.109375 
L 44.921875 54.6875 
L 56.390625 54.6875 
L 27.390625 29.109375 
L 57.625 0 
L 45.90625 0 
L 18.109375 26.703125 
L 18.109375 0 
L 9.078125 0 
z
" id="DejaVuSans-107"/>
      <path d="M 64.40625 67.28125 
L 64.40625 56.890625 
Q 59.421875 61.53125 53.78125 63.8125 
Q 48.140625 66.109375 41.796875 66.109375 
Q 29.296875 66.109375 22.65625 58.46875 
Q 16.015625 50.828125 16.015625 36.375 
Q 16.015625 21.96875 22.65625 14.328125 
Q 29.296875 6.6875 41.796875 6.6875 
Q 48.140625 6.6875 53.78125 8.984375 
Q 59.421875 11.28125 64.40625 15.921875 
L 64.40625 5.609375 
Q 59.234375 2.09375 53.4375 0.328125 
Q 47.65625 -1.421875 41.21875 -1.421875 
Q 24.65625 -1.421875 15.125 8.703125 
Q 5.609375 18.84375 5.609375 36.375 
Q 5.609375 53.953125 15.125 64.078125 
Q 24.65625 74.21875 41.21875 74.21875 
Q 47.75 74.21875 53.53125 72.484375 
Q 59.328125 70.75 64.40625 67.28125 
z
" id="DejaVuSans-67"/>
      <path d="M 39.40625 66.21875 
Q 28.65625 66.21875 22.328125 58.203125 
Q 16.015625 50.203125 16.015625 36.375 
Q 16.015625 22.609375 22.328125 14.59375 
Q 28.65625 6.59375 39.40625 6.59375 
Q 50.140625 6.59375 56.421875 14.59375 
Q 62.703125 22.609375 62.703125 36.375 
Q 62.703125 50.203125 56.421875 58.203125 
Q 50.140625 66.21875 39.40625 66.21875 
z
M 39.40625 74.21875 
Q 54.734375 74.21875 63.90625 63.9375 
Q 73.09375 53.65625 73.09375 36.375 
Q 73.09375 19.140625 63.90625 8.859375 
Q 54.734375 -1.421875 39.40625 -1.421875 
Q 24.03125 -1.421875 14.8125 8.828125 
Q 5.609375 19.09375 5.609375 36.375 
Q 5.609375 53.65625 14.8125 63.9375 
Q 24.03125 74.21875 39.40625 74.21875 
z
" id="DejaVuSans-79"/>
      <path d="M 14.796875 27.296875 
Q 14.796875 17.390625 18.875 11.75 
Q 22.953125 6.109375 30.078125 6.109375 
Q 37.203125 6.109375 41.296875 11.75 
Q 45.40625 17.390625 45.40625 27.296875 
Q 45.40625 37.203125 41.296875 42.84375 
Q 37.203125 48.484375 30.078125 48.484375 
Q 22.953125 48.484375 18.875 42.84375 
Q 14.796875 37.203125 14.796875 27.296875 
z
M 45.40625 8.203125 
Q 42.578125 3.328125 38.25 0.953125 
Q 33.9375 -1.421875 27.875 -1.421875 
Q 17.96875 -1.421875 11.734375 6.484375 
Q 5.515625 14.40625 5.515625 27.296875 
Q 5.515625 40.1875 11.734375 48.09375 
Q 17.96875 56 27.875 56 
Q 33.9375 56 38.25 53.625 
Q 42.578125 51.265625 45.40625 46.390625 
L 45.40625 54.6875 
L 54.390625 54.6875 
L 54.390625 -20.796875 
L 45.40625 -20.796875 
z
" id="DejaVuSans-113"/>
      <path d="M 25.390625 72.90625 
L 33.6875 72.90625 
L 8.296875 -9.28125 
L 0 -9.28125 
z
" id="DejaVuSans-47"/>
      <path d="M 54.890625 33.015625 
L 54.890625 0 
L 45.90625 0 
L 45.90625 32.71875 
Q 45.90625 40.484375 42.875 44.328125 
Q 39.84375 48.1875 33.796875 48.1875 
Q 26.515625 48.1875 22.3125 43.546875 
Q 18.109375 38.921875 18.109375 30.90625 
L 18.109375 0 
L 9.078125 0 
L 9.078125 75.984375 
L 18.109375 75.984375 
L 18.109375 46.1875 
Q 21.34375 51.125 25.703125 53.5625 
Q 30.078125 56 35.796875 56 
Q 45.21875 56 50.046875 50.171875 
Q 54.890625 44.34375 54.890625 33.015625 
z
" id="DejaVuSans-104"/>
      <path d="M 8.5 21.578125 
L 8.5 54.6875 
L 17.484375 54.6875 
L 17.484375 21.921875 
Q 17.484375 14.15625 20.5 10.265625 
Q 23.53125 6.390625 29.59375 6.390625 
Q 36.859375 6.390625 41.078125 11.03125 
Q 45.3125 15.671875 45.3125 23.6875 
L 45.3125 54.6875 
L 54.296875 54.6875 
L 54.296875 0 
L 45.3125 0 
L 45.3125 8.40625 
Q 42.046875 3.421875 37.71875 1 
Q 33.40625 -1.421875 27.6875 -1.421875 
Q 18.265625 -1.421875 13.375 4.4375 
Q 8.5 10.296875 8.5 21.578125 
z
M 31.109375 56 
z
" id="DejaVuSans-117"/>
      <path d="M 44.28125 53.078125 
L 44.28125 44.578125 
Q 40.484375 46.53125 36.375 47.5 
Q 32.28125 48.484375 27.875 48.484375 
Q 21.1875 48.484375 17.84375 46.4375 
Q 14.5 44.390625 14.5 40.28125 
Q 14.5 37.15625 16.890625 35.375 
Q 19.28125 33.59375 26.515625 31.984375 
L 29.59375 31.296875 
Q 39.15625 29.25 43.1875 25.515625 
Q 47.21875 21.78125 47.21875 15.09375 
Q 47.21875 7.46875 41.1875 3.015625 
Q 35.15625 -1.421875 24.609375 -1.421875 
Q 20.21875 -1.421875 15.453125 -0.5625 
Q 10.6875 0.296875 5.421875 2 
L 5.421875 11.28125 
Q 10.40625 8.6875 15.234375 7.390625 
Q 20.0625 6.109375 24.8125 6.109375 
Q 31.15625 6.109375 34.5625 8.28125 
Q 37.984375 10.453125 37.984375 14.40625 
Q 37.984375 18.0625 35.515625 20.015625 
Q 33.0625 21.96875 24.703125 23.78125 
L 21.578125 24.515625 
Q 13.234375 26.265625 9.515625 29.90625 
Q 5.8125 33.546875 5.8125 39.890625 
Q 5.8125 47.609375 11.28125 51.796875 
Q 16.75 56 26.8125 56 
Q 31.78125 56 36.171875 55.265625 
Q 40.578125 54.546875 44.28125 53.078125 
z
" id="DejaVuSans-115"/>
      <path d="M 4.890625 31.390625 
L 31.203125 31.390625 
L 31.203125 23.390625 
L 4.890625 23.390625 
z
" id="DejaVuSans-45"/>
      <path d="M 32.171875 -5.078125 
Q 28.375 -14.84375 24.75 -17.8125 
Q 21.140625 -20.796875 15.09375 -20.796875 
L 7.90625 -20.796875 
L 7.90625 -13.28125 
L 13.1875 -13.28125 
Q 16.890625 -13.28125 18.9375 -11.515625 
Q 21 -9.765625 23.484375 -3.21875 
L 25.09375 0.875 
L 2.984375 54.6875 
L 12.5 54.6875 
L 29.59375 11.921875 
L 46.6875 54.6875 
L 56.203125 54.6875 
z
" id="DejaVuSans-121"/>
      <path d="M 8.015625 75.875 
L 15.828125 75.875 
Q 23.140625 64.359375 26.78125 53.3125 
Q 30.421875 42.28125 30.421875 31.390625 
Q 30.421875 20.453125 26.78125 9.375 
Q 23.140625 -1.703125 15.828125 -13.1875 
L 8.015625 -13.1875 
Q 14.5 -2 17.703125 9.0625 
Q 20.90625 20.125 20.90625 31.390625 
Q 20.90625 42.671875 17.703125 53.65625 
Q 14.5 64.65625 8.015625 75.875 
z
" id="DejaVuSans-41"/>
     </defs>
     <g transform="translate(120.958437 335.860562)scale(0.1 -0.1)">
      <use xlink:href="#DejaVuSans-71"/>
      <use x="77.490234" xlink:href="#DejaVuSans-108"/>
      <use x="105.273438" xlink:href="#DejaVuSans-111"/>
      <use x="166.455078" xlink:href="#DejaVuSans-98"/>
      <use x="229.931641" xlink:href="#DejaVuSans-97"/>
      <use x="291.210938" xlink:href="#DejaVuSans-108"/>
      <use x="318.994141" xlink:href="#DejaVuSans-32"/>
      <use x="350.78125" xlink:href="#DejaVuSans-87"/>
      <use x="443.283203" xlink:href="#DejaVuSans-97"/>
      <use x="504.5625" xlink:href="#DejaVuSans-114"/>
      <use x="543.925781" xlink:href="#DejaVuSans-109"/>
      <use x="641.337891" xlink:href="#DejaVuSans-105"/>
      <use x="669.121094" xlink:href="#DejaVuSans-110"/>
      <use x="732.5" xlink:href="#DejaVuSans-103"/>
      <use x="795.976562" xlink:href="#DejaVuSans-32"/>
      <use x="827.763672" xlink:href="#DejaVuSans-80"/>
      <use x="884.441406" xlink:href="#DejaVuSans-111"/>
      <use x="945.623047" xlink:href="#DejaVuSans-116"/>
      <use x="984.832031" xlink:href="#DejaVuSans-101"/>
      <use x="1046.355469" xlink:href="#DejaVuSans-110"/>
      <use x="1109.734375" xlink:href="#DejaVuSans-116"/>
      <use x="1148.943359" xlink:href="#DejaVuSans-105"/>
      <use x="1176.726562" xlink:href="#DejaVuSans-97"/>
      <use x="1238.005859" xlink:href="#DejaVuSans-108"/>
      <use x="1265.789062" xlink:href="#DejaVuSans-32"/>
      <use x="1297.576172" xlink:href="#DejaVuSans-40"/>
      <use x="1336.589844" xlink:href="#DejaVuSans-107"/>
      <use x="1394.5" xlink:href="#DejaVuSans-103"/>
      <use x="1457.976562" xlink:href="#DejaVuSans-67"/>
      <use x="1527.800781" xlink:href="#DejaVuSans-79"/>
      <use x="1606.511719" xlink:href="#DejaVuSans-50"/>
      <use x="1670.134766" xlink:href="#DejaVuSans-101"/>
      <use x="1731.658203" xlink:href="#DejaVuSans-113"/>
      <use x="1795.134766" xlink:href="#DejaVuSans-47"/>
      <use x="1828.826172" xlink:href="#DejaVuSans-104"/>
      <use x="1892.205078" xlink:href="#DejaVuSans-111"/>
      <use x="1953.386719" xlink:href="#DejaVuSans-117"/>
      <use x="2016.765625" xlink:href="#DejaVuSans-115"/>
      <use x="2068.865234" xlink:href="#DejaVuSans-101"/>
      <use x="2130.388672" xlink:href="#DejaVuSans-45"/>
      <use x="2164.722656" xlink:href="#DejaVuSans-121"/>
      <use x="2223.902344" xlink:href="#DejaVuSans-114"/>
      <use x="2265.015625" xlink:href="#DejaVuSans-41"/>
     </g>
    </g>
   </g>
   <g id="matplotlib.axis_2">
    <g id="ytick_1">
     <g id="line2d_10">
      <defs>
       <path d="M 0 0 
L -3.5 0 
" id="md638a517f1" style="stroke:#000000;stroke-width:0.8;"/>
      </defs>
      <g>
       <use style="stroke:#000000;stroke-width:0.8;" x="57.6" xlink:href="#md638a517f1" y="295.488"/>
      </g>
     </g>
     <g id="text_11">
      <!-- 0.00 -->
      <g transform="translate(28.334375 299.287219)scale(0.1 -0.1)">
       <use xlink:href="#DejaVuSans-48"/>
       <use x="63.623047" xlink:href="#DejaVuSans-46"/>
       <use x="95.410156" xlink:href="#DejaVuSans-48"/>
       <use x="159.033203" xlink:href="#DejaVuSans-48"/>
      </g>
     </g>
    </g>
    <g id="ytick_2">
     <g id="line2d_11">
      <g>
       <use style="stroke:#000000;stroke-width:0.8;" x="57.6" xlink:href="#md638a517f1" y="265.248"/>
      </g>
     </g>
     <g id="text_12">
      <!-- 0.25 -->
      <g transform="translate(28.334375 269.047219)scale(0.1 -0.1)">
       <use xlink:href="#DejaVuSans-48"/>
       <use x="63.623047" xlink:href="#DejaVuSans-46"/>
       <use x="95.410156" xlink:href="#DejaVuSans-50"/>
       <use x="159.033203" xlink:href="#DejaVuSans-53"/>
      </g>
     </g>
    </g>
    <g id="ytick_3">
     <g id="line2d_12">
      <g>
       <use style="stroke:#000000;stroke-width:0.8;" x="57.6" xlink:href="#md638a517f1" y="235.008"/>
      </g>
     </g>
     <g id="text_13">
      <!-- 0.50 -->
      <g transform="translate(28.334375 238.807219)scale(0.1 -0.1)">
       <use xlink:href="#DejaVuSans-48"/>
       <use x="63.623047" xlink:href="#DejaVuSans-46"/>
       <use x="95.410156" xlink:href="#DejaVuSans-53"/>
       <use x="159.033203" xlink:href="#DejaVuSans-48"/>
      </g>
     </g>
    </g>
    <g id="ytick_4">
     <g id="line2d_13">
      <g>
       <use style="stroke:#000000;stroke-width:0.8;" x="57.6" xlink:href="#md638a517f1" y="204.768"/>
      </g>
     </g>
     <g id="text_14">
      <!-- 0.75 -->
      <g transform="translate(28.334375 208.567219)scale(0.1 -0.1)">
       <use xlink:href="#DejaVuSans-48"/>
       <use x="63.623047" xlink:href="#DejaVuSans-46"/>
       <use x="95.410156" xlink:href="#DejaVuSans-55"/>
       <use x="159.033203" xlink:href="#DejaVuSans-53"/>
      </g>
     </g>
    </g>
    <g id="ytick_5">
     <g id="line2d_14">
      <g>
       <use style="stroke:#000000;stroke-width:0.8;" x="57.6" xlink:href="#md638a517f1" y="174.528"/>
      </g>
     </g>
     <g id="text_15">
      <!-- 1.00 -->
      <g transform="translate(28.334375 178.327219)scale(0.1 -0.1)">
       <use xlink:href="#DejaVuSans-49"/>
       <use x="63.623047" xlink:href="#DejaVuSans-46"/>
       <use x="95.410156" xlink:href="#DejaVuSans-48"/>
       <use x="159.033203" xlink:href="#DejaVuSans-48"/>
      </g>
     </g>
    </g>
    <g id="ytick_6">
     <g id="line2d_15">
      <g>
       <use style="stroke:#000000;stroke-width:0.8;" x="57.6" xlink:href="#md638a517f1" y="144.288"/>
      </g>
     </g>
     <g id="text_16">
      <!-- 1.25 -->
      <g transform="translate(28.334375 148.087219)scale(0.1 -0.1)">
       <use xlink:href="#DejaVuSans-49"/>
       <use x="63.623047" xlink:href="#DejaVuSans-46"/>
       <use x="95.410156" xlink:href="#DejaVuSans-50"/>
       <use x="159.033203" xlink:href="#DejaVuSans-53"/>
      </g>
     </g>
    </g>
    <g id="ytick_7">
     <g id="line2d_16">
      <g>
       <use style="stroke:#000000;stroke-width:0.8;" x="57.6" xlink:href="#md638a517f1" y="114.048"/>
      </g>
     </g>
     <g id="text_17">
      <!-- 1.50 -->
      <g transform="translate(28.334375 117.847219)scale(0.1 -0.1)">
       <use xlink:href="#DejaVuSans-49"/>
       <use x="63.623047" xlink:href="#DejaVuSans-46"/>
       <use x="95.410156" xlink:href="#DejaVuSans-53"/>
       <use x="159.033203" xlink:href="#DejaVuSans-48"/>
      </g>
     </g>
    </g>
    <g id="ytick_8">
     <g id="line2d_17">
      <g>
       <use style="stroke:#000000;stroke-width:0.8;" x="57.6" xlink:href="#md638a517f1" y="83.808"/>
      </g>
     </g>
     <g id="text_18">
      <!-- 1.75 -->
      <g transform="translate(28.334375 87.607219)scale(0.1 -0.1)">
       <use xlink:href="#DejaVuSans-49"/>
       <use x="63.623047" xlink:href="#DejaVuSans-46"/>
       <use x="95.410156" xlink:href="#DejaVuSans-55"/>
       <use x="159.033203" xlink:href="#DejaVuSans-53"/>
      </g>
     </g>
    </g>
    <g id="ytick_9">
     <g id="line2d_18">
      <g>
       <use style="stroke:#000000;stroke-width:0.8;" x="57.6" xlink:href="#md638a517f1" y="53.568"/>
      </g>
     </g>
     <g id="text_19">
      <!-- 2.00 -->
      <g transform="translate(28.334375 57.367219)scale(0.1 -0.1)">
       <use xlink:href="#DejaVuSans-50"/>
       <use x="63.623047" xlink:href="#DejaVuSans-46"/>
       <use x="95.410156" xlink:href="#DejaVuSans-48"/>
       <use x="159.033203" xlink:href="#DejaVuSans-48"/>
      </g>
     </g>
    </g>
    <g id="text_20">
     <!-- Circularity -->
     <defs>
      <path d="M 48.78125 52.59375 
L 48.78125 44.1875 
Q 44.96875 46.296875 41.140625 47.34375 
Q 37.3125 48.390625 33.40625 48.390625 
Q 24.65625 48.390625 19.8125 42.84375 
Q 14.984375 37.3125 14.984375 27.296875 
Q 14.984375 17.28125 19.8125 11.734375 
Q 24.65625 6.203125 33.40625 6.203125 
Q 37.3125 6.203125 41.140625 7.25 
Q 44.96875 8.296875 48.78125 10.40625 
L 48.78125 2.09375 
Q 45.015625 0.34375 40.984375 -0.53125 
Q 36.96875 -1.421875 32.421875 -1.421875 
Q 20.0625 -1.421875 12.78125 6.34375 
Q 5.515625 14.109375 5.515625 27.296875 
Q 5.515625 40.671875 12.859375 48.328125 
Q 20.21875 56 33.015625 56 
Q 37.15625 56 41.109375 55.140625 
Q 45.0625 54.296875 48.78125 52.59375 
z
" id="DejaVuSans-99"/>
     </defs>
     <g transform="translate(11.056875 200.086594)rotate(-90)scale(0.1 -0.1)">
      <use xlink:href="#DejaVuSans-67"/>
      <use x="69.824219" xlink:href="#DejaVuSans-105"/>
      <use x="97.607422" xlink:href="#DejaVuSans-114"/>
      <use x="136.470703" xlink:href="#DejaVuSans-99"/>
      <use x="191.451172" xlink:href="#DejaVuSans-117"/>
      <use x="254.830078" xlink:href="#DejaVuSans-108"/>
      <use x="282.613281" xlink:href="#DejaVuSans-97"/>
      <use x="343.892578" xlink:href="#DejaVuSans-114"/>
      <use x="385.005859" xlink:href="#DejaVuSans-105"/>
      <use x="412.789062" xlink:href="#DejaVuSans-116"/>
      <use x="451.998047" xlink:href="#DejaVuSans-121"/>
     </g>
     <!--  (Fraction of economic value regenerated) -->
     <defs>
      <path d="M 9.8125 72.90625 
L 51.703125 72.90625 
L 51.703125 64.59375 
L 19.671875 64.59375 
L 19.671875 43.109375 
L 48.578125 43.109375 
L 48.578125 34.8125 
L 19.671875 34.8125 
L 19.671875 0 
L 9.8125 0 
z
" id="DejaVuSans-70"/>
      <path d="M 37.109375 75.984375 
L 37.109375 68.5 
L 28.515625 68.5 
Q 23.6875 68.5 21.796875 66.546875 
Q 19.921875 64.59375 19.921875 59.515625 
L 19.921875 54.6875 
L 34.71875 54.6875 
L 34.71875 47.703125 
L 19.921875 47.703125 
L 19.921875 0 
L 10.890625 0 
L 10.890625 47.703125 
L 2.296875 47.703125 
L 2.296875 54.6875 
L 10.890625 54.6875 
L 10.890625 58.5 
Q 10.890625 67.625 15.140625 71.796875 
Q 19.390625 75.984375 28.609375 75.984375 
z
" id="DejaVuSans-102"/>
      <path d="M 2.984375 54.6875 
L 12.5 54.6875 
L 29.59375 8.796875 
L 46.6875 54.6875 
L 56.203125 54.6875 
L 35.6875 0 
L 23.484375 0 
z
" id="DejaVuSans-118"/>
      <path d="M 45.40625 46.390625 
L 45.40625 75.984375 
L 54.390625 75.984375 
L 54.390625 0 
L 45.40625 0 
L 45.40625 8.203125 
Q 42.578125 3.328125 38.25 0.953125 
Q 33.9375 -1.421875 27.875 -1.421875 
Q 17.96875 -1.421875 11.734375 6.484375 
Q 5.515625 14.40625 5.515625 27.296875 
Q 5.515625 40.1875 11.734375 48.09375 
Q 17.96875 56 27.875 56 
Q 33.9375 56 38.25 53.625 
Q 42.578125 51.265625 45.40625 46.390625 
z
M 14.796875 27.296875 
Q 14.796875 17.390625 18.875 11.75 
Q 22.953125 6.109375 30.078125 6.109375 
Q 37.203125 6.109375 41.296875 11.75 
Q 45.40625 17.390625 45.40625 27.296875 
Q 45.40625 37.203125 41.296875 42.84375 
Q 37.203125 48.484375 30.078125 48.484375 
Q 22.953125 48.484375 18.875 42.84375 
Q 14.796875 37.203125 14.796875 27.296875 
z
" id="DejaVuSans-100"/>
     </defs>
     <g transform="translate(22.254687 279.779562)rotate(-90)scale(0.1 -0.1)">
      <use xlink:href="#DejaVuSans-32"/>
      <use x="31.787109" xlink:href="#DejaVuSans-40"/>
      <use x="70.800781" xlink:href="#DejaVuSans-70"/>
      <use x="121.070312" xlink:href="#DejaVuSans-114"/>
      <use x="162.183594" xlink:href="#DejaVuSans-97"/>
      <use x="223.462891" xlink:href="#DejaVuSans-99"/>
      <use x="278.443359" xlink:href="#DejaVuSans-116"/>
      <use x="317.652344" xlink:href="#DejaVuSans-105"/>
      <use x="345.435547" xlink:href="#DejaVuSans-111"/>
      <use x="406.617188" xlink:href="#DejaVuSans-110"/>
      <use x="469.996094" xlink:href="#DejaVuSans-32"/>
      <use x="501.783203" xlink:href="#DejaVuSans-111"/>
      <use x="562.964844" xlink:href="#DejaVuSans-102"/>
      <use x="598.169922" xlink:href="#DejaVuSans-32"/>
      <use x="629.957031" xlink:href="#DejaVuSans-101"/>
      <use x="691.480469" xlink:href="#DejaVuSans-99"/>
      <use x="746.460938" xlink:href="#DejaVuSans-111"/>
      <use x="807.642578" xlink:href="#DejaVuSans-110"/>
      <use x="871.021484" xlink:href="#DejaVuSans-111"/>
      <use x="932.203125" xlink:href="#DejaVuSans-109"/>
      <use x="1029.615234" xlink:href="#DejaVuSans-105"/>
      <use x="1057.398438" xlink:href="#DejaVuSans-99"/>
      <use x="1112.378906" xlink:href="#DejaVuSans-32"/>
      <use x="1144.166016" xlink:href="#DejaVuSans-118"/>
      <use x="1203.345703" xlink:href="#DejaVuSans-97"/>
      <use x="1264.625" xlink:href="#DejaVuSans-108"/>
      <use x="1292.408203" xlink:href="#DejaVuSans-117"/>
      <use x="1355.787109" xlink:href="#DejaVuSans-101"/>
      <use x="1417.310547" xlink:href="#DejaVuSans-32"/>
      <use x="1449.097656" xlink:href="#DejaVuSans-114"/>
      <use x="1487.960938" xlink:href="#DejaVuSans-101"/>
      <use x="1549.484375" xlink:href="#DejaVuSans-103"/>
      <use x="1612.960938" xlink:href="#DejaVuSans-101"/>
      <use x="1674.484375" xlink:href="#DejaVuSans-110"/>
      <use x="1737.863281" xlink:href="#DejaVuSans-101"/>
      <use x="1799.386719" xlink:href="#DejaVuSans-114"/>
      <use x="1840.5" xlink:href="#DejaVuSans-97"/>
      <use x="1901.779297" xlink:href="#DejaVuSans-116"/>
      <use x="1940.988281" xlink:href="#DejaVuSans-101"/>
      <use x="2002.511719" xlink:href="#DejaVuSans-100"/>
      <use x="2065.988281" xlink:href="#DejaVuSans-41"/>
     </g>
    </g>
   </g>
   <g id="LineCollection_1">
    <path clip-path="url(#p329e438242)" d="M 142.628571 295.488 
L 142.628571 53.568 
" style="fill:none;stroke:#ff0000;stroke-dasharray:5.55,2.4;stroke-dashoffset:0;stroke-opacity:0.7;stroke-width:1.5;"/>
   </g>
   <g id="patch_3">
    <path d="M 57.6 307.584 
L 57.6 41.472 
" style="fill:none;stroke:#000000;stroke-linecap:square;stroke-linejoin:miter;stroke-width:0.8;"/>
   </g>
   <g id="patch_4">
    <path d="M 414.72 307.584 
L 414.72 41.472 
" style="fill:none;stroke:#000000;stroke-linecap:square;stroke-linejoin:miter;stroke-width:0.8;"/>
   </g>
   <g id="patch_5">
    <path d="M 57.6 307.584 
L 414.72 307.584 
" style="fill:none;stroke:#000000;stroke-linecap:square;stroke-linejoin:miter;stroke-width:0.8;"/>
   </g>
   <g id="patch_6">
    <path d="M 57.6 41.472 
L 414.72 41.472 
" style="fill:none;stroke:#000000;stroke-linecap:square;stroke-linejoin:miter;stroke-width:0.8;"/>
   </g>
   <g id="patch_7">
    <path d="M 206.666791 59.835162 
Q 153.911883 64.477799 145.728413 65.314187 
" style="fill:none;stroke:#000000;stroke-linecap:round;"/>
    <path d="M 149.911033 66.897123 
L 145.728413 65.314187 
L 149.504334 62.917852 
" style="fill:none;stroke:#000000;stroke-linecap:round;"/>
   </g>
   <g id="text_21">
    <!-- Net-zero -->
    <defs>
     <path d="M 9.8125 72.90625 
L 23.09375 72.90625 
L 55.421875 11.921875 
L 55.421875 72.90625 
L 64.984375 72.90625 
L 64.984375 0 
L 51.703125 0 
L 19.390625 60.984375 
L 19.390625 0 
L 9.8125 0 
z
" id="DejaVuSans-78"/>
     <path d="M 5.515625 54.6875 
L 48.1875 54.6875 
L 48.1875 46.484375 
L 14.40625 7.171875 
L 48.1875 7.171875 
L 48.1875 0 
L 4.296875 0 
L 4.296875 8.203125 
L 38.09375 47.515625 
L 5.515625 47.515625 
z
" id="DejaVuSans-122"/>
    </defs>
    <g transform="translate(210.651429 54.466188)scale(0.1 -0.1)">
     <use xlink:href="#DejaVuSans-78"/>
     <use x="74.804688" xlink:href="#DejaVuSans-101"/>
     <use x="136.328125" xlink:href="#DejaVuSans-116"/>
     <use x="175.537109" xlink:href="#DejaVuSans-45"/>
     <use x="211.621094" xlink:href="#DejaVuSans-122"/>
     <use x="264.111328" xlink:href="#DejaVuSans-101"/>
     <use x="325.634766" xlink:href="#DejaVuSans-114"/>
     <use x="364.498047" xlink:href="#DejaVuSans-111"/>
    </g>
    <!-- Emissions -->
    <defs>
     <path d="M 9.8125 72.90625 
L 55.90625 72.90625 
L 55.90625 64.59375 
L 19.671875 64.59375 
L 19.671875 43.015625 
L 54.390625 43.015625 
L 54.390625 34.71875 
L 19.671875 34.71875 
L 19.671875 8.296875 
L 56.78125 8.296875 
L 56.78125 0 
L 9.8125 0 
z
" id="DejaVuSans-69"/>
    </defs>
    <g transform="translate(210.651429 65.664)scale(0.1 -0.1)">
     <use xlink:href="#DejaVuSans-69"/>
     <use x="63.183594" xlink:href="#DejaVuSans-109"/>
     <use x="160.595703" xlink:href="#DejaVuSans-105"/>
     <use x="188.378906" xlink:href="#DejaVuSans-115"/>
     <use x="240.478516" xlink:href="#DejaVuSans-115"/>
     <use x="292.578125" xlink:href="#DejaVuSans-105"/>
     <use x="320.361328" xlink:href="#DejaVuSans-111"/>
     <use x="381.542969" xlink:href="#DejaVuSans-110"/>
     <use x="444.921875" xlink:href="#DejaVuSans-115"/>
    </g>
   </g>
   <g id="legend_1">
    <g id="patch_8">
     <path d="M 342.566875 134.060438 
L 407.72 134.060438 
Q 409.72 134.060438 409.72 132.060438 
L 409.72 48.472 
Q 409.72 46.472 407.72 46.472 
L 342.566875 46.472 
Q 340.566875 46.472 340.566875 48.472 
L 340.566875 132.060438 
Q 340.566875 134.060438 342.566875 134.060438 
z
" style="fill:#ffffff;opacity:0.8;stroke:#cccccc;stroke-linejoin:miter;"/>
    </g>
    <g id="text_22">
     <!-- LCC -->
     <defs>
      <path d="M 9.8125 72.90625 
L 19.671875 72.90625 
L 19.671875 8.296875 
L 55.171875 8.296875 
L 55.171875 0 
L 9.8125 0 
z
" id="DejaVuSans-76"/>
     </defs>
     <g transform="translate(344.566875 58.070438)scale(0.1 -0.1)">
      <use xlink:href="#DejaVuSans-76"/>
      <use x="55.712891" xlink:href="#DejaVuSans-67"/>
      <use x="125.537109" xlink:href="#DejaVuSans-67"/>
     </g>
     <!-- ($/house-yr) -->
     <defs>
      <path d="M 33.796875 -14.703125 
L 28.90625 -14.703125 
L 28.859375 0 
Q 23.734375 0.09375 18.609375 1.1875 
Q 13.484375 2.296875 8.296875 4.5 
L 8.296875 13.28125 
Q 13.28125 10.15625 18.375 8.5625 
Q 23.484375 6.984375 28.90625 6.9375 
L 28.90625 29.203125 
Q 18.109375 30.953125 13.203125 35.15625 
Q 8.296875 39.359375 8.296875 46.6875 
Q 8.296875 54.640625 13.625 59.21875 
Q 18.953125 63.8125 28.90625 64.5 
L 28.90625 75.984375 
L 33.796875 75.984375 
L 33.796875 64.65625 
Q 38.328125 64.453125 42.578125 63.6875 
Q 46.828125 62.9375 50.875 61.625 
L 50.875 53.078125 
Q 46.828125 55.125 42.546875 56.25 
Q 38.28125 57.375 33.796875 57.5625 
L 33.796875 36.71875 
Q 44.875 35.015625 50.09375 30.609375 
Q 55.328125 26.21875 55.328125 18.609375 
Q 55.328125 10.359375 49.78125 5.59375 
Q 44.234375 0.828125 33.796875 0.09375 
z
M 28.90625 37.59375 
L 28.90625 57.625 
Q 23.25 56.984375 20.265625 54.390625 
Q 17.28125 51.8125 17.28125 47.515625 
Q 17.28125 43.3125 20.03125 40.96875 
Q 22.796875 38.625 28.90625 37.59375 
z
M 33.796875 28.21875 
L 33.796875 7.078125 
Q 39.984375 7.90625 43.140625 10.59375 
Q 46.296875 13.28125 46.296875 17.671875 
Q 46.296875 21.96875 43.28125 24.5 
Q 40.28125 27.046875 33.796875 28.21875 
z
" id="DejaVuSans-36"/>
     </defs>
     <g transform="translate(344.566875 69.26825)scale(0.1 -0.1)">
      <use xlink:href="#DejaVuSans-40"/>
      <use x="39.013672" xlink:href="#DejaVuSans-36"/>
      <use x="102.636719" xlink:href="#DejaVuSans-47"/>
      <use x="136.328125" xlink:href="#DejaVuSans-104"/>
      <use x="199.707031" xlink:href="#DejaVuSans-111"/>
      <use x="260.888672" xlink:href="#DejaVuSans-117"/>
      <use x="324.267578" xlink:href="#DejaVuSans-115"/>
      <use x="376.367188" xlink:href="#DejaVuSans-101"/>
      <use x="437.890625" xlink:href="#DejaVuSans-45"/>
      <use x="472.224609" xlink:href="#DejaVuSans-121"/>
      <use x="531.404297" xlink:href="#DejaVuSans-114"/>
      <use x="572.517578" xlink:href="#DejaVuSans-41"/>
     </g>
    </g>
    <g id="line2d_19"/>
    <g id="line2d_20">
     <defs>
      <path d="M 0 3 
C 0.795609 3 1.55874 2.683901 2.12132 2.12132 
C 2.683901 1.55874 3 0.795609 3 0 
C 3 -0.795609 2.683901 -1.55874 2.12132 -2.12132 
C 1.55874 -2.683901 0.795609 -3 0 -3 
C -0.795609 -3 -1.55874 -2.683901 -2.12132 -2.12132 
C -2.683901 -1.55874 -3 -0.795609 -3 0 
C -3 0.795609 -2.683901 1.55874 -2.12132 2.12132 
C -1.55874 2.683901 -0.795609 3 0 3 
z
" id="mafac3315d8" style="stroke:#f06812;stroke-opacity:0.7;"/>
     </defs>
     <g>
      <use style="fill:#f06812;fill-opacity:0.7;stroke:#f06812;stroke-opacity:0.7;" x="363.143438" xlink:href="#mafac3315d8" y="80.446375"/>
     </g>
    </g>
    <g id="text_23">
     <!-- $\mathdefault{0.6}$ -->
     <defs>
      <path d="M 33.015625 40.375 
Q 26.375 40.375 22.484375 35.828125 
Q 18.609375 31.296875 18.609375 23.390625 
Q 18.609375 15.53125 22.484375 10.953125 
Q 26.375 6.390625 33.015625 6.390625 
Q 39.65625 6.390625 43.53125 10.953125 
Q 47.40625 15.53125 47.40625 23.390625 
Q 47.40625 31.296875 43.53125 35.828125 
Q 39.65625 40.375 33.015625 40.375 
z
M 52.59375 71.296875 
L 52.59375 62.3125 
Q 48.875 64.0625 45.09375 64.984375 
Q 41.3125 65.921875 37.59375 65.921875 
Q 27.828125 65.921875 22.671875 59.328125 
Q 17.53125 52.734375 16.796875 39.40625 
Q 19.671875 43.65625 24.015625 45.921875 
Q 28.375 48.1875 33.59375 48.1875 
Q 44.578125 48.1875 50.953125 41.515625 
Q 57.328125 34.859375 57.328125 23.390625 
Q 57.328125 12.15625 50.6875 5.359375 
Q 44.046875 -1.421875 33.015625 -1.421875 
Q 20.359375 -1.421875 13.671875 8.265625 
Q 6.984375 17.96875 6.984375 36.375 
Q 6.984375 53.65625 15.1875 63.9375 
Q 23.390625 74.21875 37.203125 74.21875 
Q 40.921875 74.21875 44.703125 73.484375 
Q 48.484375 72.75 52.59375 71.296875 
z
" id="DejaVuSans-54"/>
     </defs>
     <g transform="translate(381.143438 83.946375)scale(0.1 -0.1)">
      <use transform="translate(0 0.78125)" xlink:href="#DejaVuSans-48"/>
      <use transform="translate(63.623047 0.78125)" xlink:href="#DejaVuSans-46"/>
      <use transform="translate(95.410156 0.78125)" xlink:href="#DejaVuSans-54"/>
     </g>
    </g>
    <g id="line2d_21"/>
    <g id="line2d_22">
     <defs>
      <path d="M 0 3 
C 0.795609 3 1.55874 2.683901 2.12132 2.12132 
C 2.683901 1.55874 3 0.795609 3 0 
C 3 -0.795609 2.683901 -1.55874 2.12132 -2.12132 
C 1.55874 -2.683901 0.795609 -3 0 -3 
C -0.795609 -3 -1.55874 -2.683901 -2.12132 -2.12132 
C -2.683901 -1.55874 -3 -0.795609 -3 0 
C -3 0.795609 -2.683901 1.55874 -2.12132 2.12132 
C -1.55874 2.683901 -0.795609 3 0 3 
z
" id="m526b6006e3" style="stroke:#fddbb7;stroke-opacity:0.7;"/>
     </defs>
     <g>
      <use style="fill:#fddbb7;fill-opacity:0.7;stroke:#fddbb7;stroke-opacity:0.7;" x="363.143438" xlink:href="#m526b6006e3" y="95.1245"/>
     </g>
    </g>
    <g id="text_24">
     <!-- $\mathdefault{1.2}$ -->
     <g transform="translate(381.143438 98.6245)scale(0.1 -0.1)">
      <use transform="translate(0 0.78125)" xlink:href="#DejaVuSans-49"/>
      <use transform="translate(63.623047 0.78125)" xlink:href="#DejaVuSans-46"/>
      <use transform="translate(89.910156 0.78125)" xlink:href="#DejaVuSans-50"/>
     </g>
    </g>
    <g id="line2d_23"/>
    <g id="line2d_24">
     <defs>
      <path d="M 0 3 
C 0.795609 3 1.55874 2.683901 2.12132 2.12132 
C 2.683901 1.55874 3 0.795609 3 0 
C 3 -0.795609 2.683901 -1.55874 2.12132 -2.12132 
C 1.55874 -2.683901 0.795609 -3 0 -3 
C -0.795609 -3 -1.55874 -2.683901 -2.12132 -2.12132 
C -2.683901 -1.55874 -3 -0.795609 -3 0 
C -3 0.795609 -2.683901 1.55874 -2.12132 2.12132 
C -1.55874 2.683901 -0.795609 3 0 3 
z
" id="mf35c2af87c" style="stroke:#c7dcef;stroke-opacity:0.7;"/>
     </defs>
     <g>
      <use style="fill:#c7dcef;fill-opacity:0.7;stroke:#c7dcef;stroke-opacity:0.7;" x="363.143438" xlink:href="#mf35c2af87c" y="109.802625"/>
     </g>
    </g>
    <g id="text_25">
     <!-- $\mathdefault{1.8}$ -->
     <defs>
      <path d="M 31.78125 34.625 
Q 24.75 34.625 20.71875 30.859375 
Q 16.703125 27.09375 16.703125 20.515625 
Q 16.703125 13.921875 20.71875 10.15625 
Q 24.75 6.390625 31.78125 6.390625 
Q 38.8125 6.390625 42.859375 10.171875 
Q 46.921875 13.96875 46.921875 20.515625 
Q 46.921875 27.09375 42.890625 30.859375 
Q 38.875 34.625 31.78125 34.625 
z
M 21.921875 38.8125 
Q 15.578125 40.375 12.03125 44.71875 
Q 8.5 49.078125 8.5 55.328125 
Q 8.5 64.0625 14.71875 69.140625 
Q 20.953125 74.21875 31.78125 74.21875 
Q 42.671875 74.21875 48.875 69.140625 
Q 55.078125 64.0625 55.078125 55.328125 
Q 55.078125 49.078125 51.53125 44.71875 
Q 48 40.375 41.703125 38.8125 
Q 48.828125 37.15625 52.796875 32.3125 
Q 56.78125 27.484375 56.78125 20.515625 
Q 56.78125 9.90625 50.3125 4.234375 
Q 43.84375 -1.421875 31.78125 -1.421875 
Q 19.734375 -1.421875 13.25 4.234375 
Q 6.78125 9.90625 6.78125 20.515625 
Q 6.78125 27.484375 10.78125 32.3125 
Q 14.796875 37.15625 21.921875 38.8125 
z
M 18.3125 54.390625 
Q 18.3125 48.734375 21.84375 45.5625 
Q 25.390625 42.390625 31.78125 42.390625 
Q 38.140625 42.390625 41.71875 45.5625 
Q 45.3125 48.734375 45.3125 54.390625 
Q 45.3125 60.0625 41.71875 63.234375 
Q 38.140625 66.40625 31.78125 66.40625 
Q 25.390625 66.40625 21.84375 63.234375 
Q 18.3125 60.0625 18.3125 54.390625 
z
" id="DejaVuSans-56"/>
     </defs>
     <g transform="translate(381.143438 113.302625)scale(0.1 -0.1)">
      <use transform="translate(0 0.78125)" xlink:href="#DejaVuSans-49"/>
      <use transform="translate(63.623047 0.78125)" xlink:href="#DejaVuSans-46"/>
      <use transform="translate(92.785156 0.78125)" xlink:href="#DejaVuSans-56"/>
     </g>
    </g>
    <g id="line2d_25"/>
    <g id="line2d_26">
     <defs>
      <path d="M 0 3 
C 0.795609 3 1.55874 2.683901 2.12132 2.12132 
C 2.683901 1.55874 3 0.795609 3 0 
C 3 -0.795609 2.683901 -1.55874 2.12132 -2.12132 
C 1.55874 -2.683901 0.795609 -3 0 -3 
C -0.795609 -3 -1.55874 -2.683901 -2.12132 -2.12132 
C -2.683901 -1.55874 -3 -0.795609 -3 0 
C -3 0.795609 -2.683901 1.55874 -2.12132 2.12132 
C -1.55874 2.683901 -0.795609 3 0 3 
z
" id="m130e5ab34a" style="stroke:#3282be;stroke-opacity:0.7;"/>
     </defs>
     <g>
      <use style="fill:#3282be;fill-opacity:0.7;stroke:#3282be;stroke-opacity:0.7;" x="363.143438" xlink:href="#m130e5ab34a" y="124.48075"/>
     </g>
    </g>
    <g id="text_26">
     <!-- $\mathdefault{2.4}$ -->
     <defs>
      <path d="M 37.796875 64.3125 
L 12.890625 25.390625 
L 37.796875 25.390625 
z
M 35.203125 72.90625 
L 47.609375 72.90625 
L 47.609375 25.390625 
L 58.015625 25.390625 
L 58.015625 17.1875 
L 47.609375 17.1875 
L 47.609375 0 
L 37.796875 0 
L 37.796875 17.1875 
L 4.890625 17.1875 
L 4.890625 26.703125 
z
" id="DejaVuSans-52"/>
     </defs>
     <g transform="translate(381.143438 127.98075)scale(0.1 -0.1)">
      <use transform="translate(0 0.78125)" xlink:href="#DejaVuSans-50"/>
      <use transform="translate(63.623047 0.78125)" xlink:href="#DejaVuSans-46"/>
      <use transform="translate(95.410156 0.78125)" xlink:href="#DejaVuSans-52"/>
     </g>
    </g>
   </g>
   <g id="legend_2">
    <g id="patch_9">
     <path d="M 342.566875 134.060438 
L 407.72 134.060438 
Q 409.72 134.060438 409.72 132.060438 
L 409.72 48.472 
Q 409.72 46.472 407.72 46.472 
L 342.566875 46.472 
Q 340.566875 46.472 340.566875 48.472 
L 340.566875 132.060438 
Q 340.566875 134.060438 342.566875 134.060438 
z
" style="fill:#ffffff;opacity:0.8;stroke:#cccccc;stroke-linejoin:miter;"/>
    </g>
    <g id="text_27">
     <!-- LCC -->
     <g transform="translate(344.566875 58.070438)scale(0.1 -0.1)">
      <use xlink:href="#DejaVuSans-76"/>
      <use x="55.712891" xlink:href="#DejaVuSans-67"/>
      <use x="125.537109" xlink:href="#DejaVuSans-67"/>
     </g>
     <!-- ($/house-yr) -->
     <g transform="translate(344.566875 69.26825)scale(0.1 -0.1)">
      <use xlink:href="#DejaVuSans-40"/>
      <use x="39.013672" xlink:href="#DejaVuSans-36"/>
      <use x="102.636719" xlink:href="#DejaVuSans-47"/>
      <use x="136.328125" xlink:href="#DejaVuSans-104"/>
      <use x="199.707031" xlink:href="#DejaVuSans-111"/>
      <use x="260.888672" xlink:href="#DejaVuSans-117"/>
      <use x="324.267578" xlink:href="#DejaVuSans-115"/>
      <use x="376.367188" xlink:href="#DejaVuSans-101"/>
      <use x="437.890625" xlink:href="#DejaVuSans-45"/>
      <use x="472.224609" xlink:href="#DejaVuSans-121"/>
      <use x="531.404297" xlink:href="#DejaVuSans-114"/>
      <use x="572.517578" xlink:href="#DejaVuSans-41"/>
     </g>
    </g>
    <g id="line2d_27"/>
    <g id="line2d_28">
     <g>
      <use style="fill:#f06812;fill-opacity:0.7;stroke:#f06812;stroke-opacity:0.7;" x="363.143438" xlink:href="#mafac3315d8" y="80.446375"/>
     </g>
    </g>
    <g id="text_28">
     <!-- $\mathdefault{0.6}$ -->
     <g transform="translate(381.143438 83.946375)scale(0.1 -0.1)">
      <use transform="translate(0 0.78125)" xlink:href="#DejaVuSans-48"/>
      <use transform="translate(63.623047 0.78125)" xlink:href="#DejaVuSans-46"/>
      <use transform="translate(95.410156 0.78125)" xlink:href="#DejaVuSans-54"/>
     </g>
    </g>
    <g id="line2d_29"/>
    <g id="line2d_30">
     <g>
      <use style="fill:#fddbb7;fill-opacity:0.7;stroke:#fddbb7;stroke-opacity:0.7;" x="363.143438" xlink:href="#m526b6006e3" y="95.1245"/>
     </g>
    </g>
    <g id="text_29">
     <!-- $\mathdefault{1.2}$ -->
     <g transform="translate(381.143438 98.6245)scale(0.1 -0.1)">
      <use transform="translate(0 0.78125)" xlink:href="#DejaVuSans-49"/>
      <use transform="translate(63.623047 0.78125)" xlink:href="#DejaVuSans-46"/>
      <use transform="translate(89.910156 0.78125)" xlink:href="#DejaVuSans-50"/>
     </g>
    </g>
    <g id="line2d_31"/>
    <g id="line2d_32">
     <g>
      <use style="fill:#c7dcef;fill-opacity:0.7;stroke:#c7dcef;stroke-opacity:0.7;" x="363.143438" xlink:href="#mf35c2af87c" y="109.802625"/>
     </g>
    </g>
    <g id="text_30">
     <!-- $\mathdefault{1.8}$ -->
     <g transform="translate(381.143438 113.302625)scale(0.1 -0.1)">
      <use transform="translate(0 0.78125)" xlink:href="#DejaVuSans-49"/>
      <use transform="translate(63.623047 0.78125)" xlink:href="#DejaVuSans-46"/>
      <use transform="translate(92.785156 0.78125)" xlink:href="#DejaVuSans-56"/>
     </g>
    </g>
    <g id="line2d_33"/>
    <g id="line2d_34">
     <g>
      <use style="fill:#3282be;fill-opacity:0.7;stroke:#3282be;stroke-opacity:0.7;" x="363.143438" xlink:href="#m130e5ab34a" y="124.48075"/>
     </g>
    </g>
    <g id="text_31">
     <!-- $\mathdefault{2.4}$ -->
     <g transform="translate(381.143438 127.98075)scale(0.1 -0.1)">
      <use transform="translate(0 0.78125)" xlink:href="#DejaVuSans-50"/>
      <use transform="translate(63.623047 0.78125)" xlink:href="#DejaVuSans-46"/>
      <use transform="translate(95.410156 0.78125)" xlink:href="#DejaVuSans-52"/>
     </g>
    </g>
   </g>
  </g>
 </g>
 <defs>
  <clipPath id="p329e438242">
   <rect height="266.112" width="357.12" x="57.6" y="41.472"/>
  </clipPath>
 </defs>
</svg>
