<?xml version="1.0" encoding="utf-8" standalone="no"?>
<!DOCTYPE svg PUBLIC "-//W3C//DTD SVG 1.1//EN"
  "http://www.w3.org/Graphics/SVG/1.1/DTD/svg11.dtd">
<!-- Created with matplotlib (https://matplotlib.org/) -->
<svg height="345.6pt" version="1.1" viewBox="0 0 460.8 345.6" width="460.8pt" xmlns="http://www.w3.org/2000/svg" xmlns:xlink="http://www.w3.org/1999/xlink">
 <defs>
  <style type="text/css">
*{stroke-linecap:butt;stroke-linejoin:round;}
  </style>
 </defs>
 <g id="figure_1">
  <g id="patch_1">
   <path d="M 0 345.6 
L 460.8 345.6 
L 460.8 0 
L 0 0 
z
" style="fill:#ffffff;"/>
  </g>
  <g id="axes_1">
   <g id="patch_2">
    <path d="M 57.6 307.584 
L 414.72 307.584 
L 414.72 41.472 
L 57.6 41.472 
z
" style="fill:#ffffff;"/>
   </g>
   <g id="PathCollection_1">
    <path clip-path="url(#p767613c227)" d="M 156.841947 298.610235 
C 157.67639 298.610235 158.476767 298.278707 159.066807 297.688668 
C 159.656847 297.098628 159.988374 296.29825 159.988374 295.463808 
C 159.988374 294.629366 159.656847 293.828988 159.066807 293.238948 
C 158.476767 292.648909 157.67639 292.317381 156.841947 292.317381 
C 156.007505 292.317381 155.207128 292.648909 154.617088 293.238948 
C 154.027048 293.828988 153.695521 294.629366 153.695521 295.463808 
C 153.695521 296.29825 154.027048 297.098628 154.617088 297.688668 
C 155.207128 298.278707 156.007505 298.610235 156.841947 298.610235 
z
" style="fill:#7f2704;fill-opacity:0.7;stroke:#000000;stroke-opacity:0.7;"/>
    <path clip-path="url(#p767613c227)" d="M 304.684526 247.459947 
C 307.14956 247.459947 309.513964 246.480579 311.257006 244.737537 
C 313.000048 242.994494 313.979417 240.63009 313.979417 238.165056 
C 313.979417 235.700022 313.000048 233.335618 311.257006 231.592575 
C 309.513964 229.849533 307.14956 228.870165 304.684526 228.870165 
C 302.219492 228.870165 299.855087 229.849533 298.112045 231.592575 
C 296.369003 233.335618 295.389635 235.700022 295.389635 238.165056 
C 295.389635 240.63009 296.369003 242.994494 298.112045 244.737537 
C 299.855087 246.480579 302.219492 247.459947 304.684526 247.459947 
z
" style="fill:#08306b;fill-opacity:0.7;stroke:#000000;stroke-opacity:0.7;"/>
    <path clip-path="url(#p767613c227)" d="M 154.061513 298.699697 
C 154.913265 298.699697 155.730246 298.361293 156.332526 297.759013 
C 156.934806 297.156733 157.273211 296.339752 157.273211 295.488 
C 157.273211 294.636248 156.934806 293.819267 156.332526 293.216987 
C 155.730246 292.614707 154.913265 292.276303 154.061513 292.276303 
C 153.209761 292.276303 152.39278 292.614707 151.7905 293.216987 
C 151.18822 293.819267 150.849816 294.636248 150.849816 295.488 
C 150.849816 296.339752 151.18822 297.156733 151.7905 297.759013 
C 152.39278 298.361293 153.209761 298.699697 154.061513 298.699697 
z
" style="fill:#812804;fill-opacity:0.7;stroke:#000000;stroke-opacity:0.7;"/>
    <path clip-path="url(#p767613c227)" d="M 175.328859 287.453404 
C 176.405956 287.453404 177.439083 287.025469 178.200706 286.263846 
C 178.962328 285.502224 179.390263 284.469097 179.390263 283.392 
C 179.390263 282.314903 178.962328 281.281776 178.200706 280.520154 
C 177.439083 279.758531 176.405956 279.330596 175.328859 279.330596 
C 174.251763 279.330596 173.218636 279.758531 172.457013 280.520154 
C 171.695391 281.281776 171.267456 282.314903 171.267456 283.392 
C 171.267456 284.469097 171.695391 285.502224 172.457013 286.263846 
C 173.218636 287.025469 174.251763 287.453404 175.328859 287.453404 
z
" style="fill:#ba3d02;fill-opacity:0.7;stroke:#000000;stroke-opacity:0.7;"/>
    <path clip-path="url(#p767613c227)" d="M 192.647479 287.410084 
C 193.713087 287.410084 194.735194 286.986713 195.488693 286.233215 
C 196.242192 285.479716 196.665563 284.457608 196.665563 283.392 
C 196.665563 282.326392 196.242192 281.304284 195.488693 280.550785 
C 194.735194 279.797287 193.713087 279.373916 192.647479 279.373916 
C 191.58187 279.373916 190.559763 279.797287 189.806264 280.550785 
C 189.052765 281.304284 188.629395 282.326392 188.629395 283.392 
C 188.629395 284.457608 189.052765 285.479716 189.806264 286.233215 
C 190.559763 286.986713 191.58187 287.410084 192.647479 287.410084 
z
" style="fill:#b33b02;fill-opacity:0.7;stroke:#000000;stroke-opacity:0.7;"/>
    <path clip-path="url(#p767613c227)" d="M 192.647479 287.410084 
C 193.713087 287.410084 194.735194 286.986713 195.488693 286.233215 
C 196.242192 285.479716 196.665563 284.457608 196.665563 283.392 
C 196.665563 282.326392 196.242192 281.304284 195.488693 280.550785 
C 194.735194 279.797287 193.713087 279.373916 192.647479 279.373916 
C 191.58187 279.373916 190.559763 279.797287 189.806264 280.550785 
C 189.052765 281.304284 188.629395 282.326392 188.629395 283.392 
C 188.629395 284.457608 189.052765 285.479716 189.806264 286.233215 
C 190.559763 286.986713 191.58187 287.410084 192.647479 287.410084 
z
" style="fill:#b33b02;fill-opacity:0.7;stroke:#000000;stroke-opacity:0.7;"/>
    <path clip-path="url(#p767613c227)" d="M 192.647479 287.410084 
C 193.713087 287.410084 194.735194 286.986713 195.488693 286.233215 
C 196.242192 285.479716 196.665563 284.457608 196.665563 283.392 
C 196.665563 282.326392 196.242192 281.304284 195.488693 280.550785 
C 194.735194 279.797287 193.713087 279.373916 192.647479 279.373916 
C 191.58187 279.373916 190.559763 279.797287 189.806264 280.550785 
C 189.052765 281.304284 188.629395 282.326392 188.629395 283.392 
C 188.629395 284.457608 189.052765 285.479716 189.806264 286.233215 
C 190.559763 286.986713 191.58187 287.410084 192.647479 287.410084 
z
" style="fill:#b33b02;fill-opacity:0.7;stroke:#000000;stroke-opacity:0.7;"/>
    <path clip-path="url(#p767613c227)" d="M 192.647479 287.410084 
C 193.713087 287.410084 194.735194 286.986713 195.488693 286.233215 
C 196.242192 285.479716 196.665563 284.457608 196.665563 283.392 
C 196.665563 282.326392 196.242192 281.304284 195.488693 280.550785 
C 194.735194 279.797287 193.713087 279.373916 192.647479 279.373916 
C 191.58187 279.373916 190.559763 279.797287 189.806264 280.550785 
C 189.052765 281.304284 188.629395 282.326392 188.629395 283.392 
C 188.629395 284.457608 189.052765 285.479716 189.806264 286.233215 
C 190.559763 286.986713 191.58187 287.410084 192.647479 287.410084 
z
" style="fill:#b33b02;fill-opacity:0.7;stroke:#000000;stroke-opacity:0.7;"/>
    <path clip-path="url(#p767613c227)" d="M 192.416201 287.410395 
C 193.481892 287.410395 194.504078 286.986992 195.257636 286.233434 
C 196.011193 285.479877 196.434596 284.457691 196.434596 283.392 
C 196.434596 282.326309 196.011193 281.304123 195.257636 280.550566 
C 194.504078 279.797008 193.481892 279.373605 192.416201 279.373605 
C 191.35051 279.373605 190.328324 279.797008 189.574767 280.550566 
C 188.821209 281.304123 188.397806 282.326309 188.397806 283.392 
C 188.397806 284.457691 188.821209 285.479877 189.574767 286.233434 
C 190.328324 286.986992 191.35051 287.410395 192.416201 287.410395 
z
" style="fill:#b33b02;fill-opacity:0.7;stroke:#000000;stroke-opacity:0.7;"/>
    <path clip-path="url(#p767613c227)" d="M 175.328859 281.457393 
C 176.419744 281.457393 177.466096 281.02398 178.237467 280.252608 
C 179.008839 279.481236 179.442252 278.434885 179.442252 277.344 
C 179.442252 276.253115 179.008839 275.206764 178.237467 274.435392 
C 177.466096 273.66402 176.419744 273.230607 175.328859 273.230607 
C 174.237975 273.230607 173.191623 273.66402 172.420252 274.435392 
C 171.64888 275.206764 171.215467 276.253115 171.215467 277.344 
C 171.215467 278.434885 171.64888 279.481236 172.420252 280.252608 
C 173.191623 281.02398 174.237975 281.457393 175.328859 281.457393 
z
" style="fill:#bd3e02;fill-opacity:0.7;stroke:#000000;stroke-opacity:0.7;"/>
    <path clip-path="url(#p767613c227)" d="M 195.95339 281.423522 
C 197.035292 281.423522 198.073027 280.993678 198.838047 280.228658 
C 199.603068 279.463638 200.032912 278.425902 200.032912 277.344 
C 200.032912 276.262098 199.603068 275.224362 198.838047 274.459342 
C 198.073027 273.694322 197.035292 273.264478 195.95339 273.264478 
C 194.871488 273.264478 193.833752 273.694322 193.068732 274.459342 
C 192.303712 275.224362 191.873868 276.262098 191.873868 277.344 
C 191.873868 278.425902 192.303712 279.463638 193.068732 280.228658 
C 193.833752 280.993678 194.871488 281.423522 195.95339 281.423522 
z
" style="fill:#ba3d02;fill-opacity:0.7;stroke:#000000;stroke-opacity:0.7;"/>
    <path clip-path="url(#p767613c227)" d="M 199.373239 281.41923 
C 200.454003 281.41923 201.490646 280.989838 202.254862 280.225623 
C 203.019077 279.461408 203.448469 278.424764 203.448469 277.344 
C 203.448469 276.263236 203.019077 275.226592 202.254862 274.462377 
C 201.490646 273.698162 200.454003 273.26877 199.373239 273.26877 
C 198.292475 273.26877 197.255831 273.698162 196.491616 274.462377 
C 195.727401 275.226592 195.298009 276.263236 195.298009 277.344 
C 195.298009 278.424764 195.727401 279.461408 196.491616 280.225623 
C 197.255831 280.989838 198.292475 281.41923 199.373239 281.41923 
z
" style="fill:#ba3d02;fill-opacity:0.7;stroke:#000000;stroke-opacity:0.7;"/>
    <path clip-path="url(#p767613c227)" d="M 194.552119 281.42536 
C 195.634508 281.42536 196.672711 280.995322 197.438076 280.229957 
C 198.203441 279.464593 198.633479 278.426389 198.633479 277.344 
C 198.633479 276.261611 198.203441 275.223407 197.438076 274.458043 
C 196.672711 273.692678 195.634508 273.26264 194.552119 273.26264 
C 193.46973 273.26264 192.431526 273.692678 191.666161 274.458043 
C 190.900797 275.223407 190.470759 276.261611 190.470759 277.344 
C 190.470759 278.426389 190.900797 279.464593 191.666161 280.229957 
C 192.431526 280.995322 193.46973 281.42536 194.552119 281.42536 
z
" style="fill:#ba3d02;fill-opacity:0.7;stroke:#000000;stroke-opacity:0.7;"/>
    <path clip-path="url(#p767613c227)" d="M 199.371538 281.41923 
C 200.452302 281.41923 201.488946 280.989838 202.253161 280.225623 
C 203.017376 279.461408 203.446768 278.424764 203.446768 277.344 
C 203.446768 276.263236 203.017376 275.226592 202.253161 274.462377 
C 201.488946 273.698162 200.452302 273.26877 199.371538 273.26877 
C 198.290775 273.26877 197.254131 273.698162 196.489915 274.462377 
C 195.7257 275.226592 195.296308 276.263236 195.296308 277.344 
C 195.296308 278.424764 195.7257 279.461408 196.489915 280.225623 
C 197.254131 280.989838 198.290775 281.41923 199.371538 281.41923 
z
" style="fill:#ba3d02;fill-opacity:0.7;stroke:#000000;stroke-opacity:0.7;"/>
    <path clip-path="url(#p767613c227)" d="M 199.371538 281.41923 
C 200.452302 281.41923 201.488946 280.989838 202.253161 280.225623 
C 203.017376 279.461408 203.446768 278.424764 203.446768 277.344 
C 203.446768 276.263236 203.017376 275.226592 202.253161 274.462377 
C 201.488946 273.698162 200.452302 273.26877 199.371538 273.26877 
C 198.290775 273.26877 197.254131 273.698162 196.489915 274.462377 
C 195.7257 275.226592 195.296308 276.263236 195.296308 277.344 
C 195.296308 278.424764 195.7257 279.461408 196.489915 280.225623 
C 197.254131 280.989838 198.290775 281.41923 199.371538 281.41923 
z
" style="fill:#ba3d02;fill-opacity:0.7;stroke:#000000;stroke-opacity:0.7;"/>
    <path clip-path="url(#p767613c227)" d="M 175.328859 275.476012 
C 176.437412 275.476012 177.50071 275.03558 178.284574 274.251715 
C 179.068439 273.46785 179.508871 272.404552 179.508871 271.296 
C 179.508871 270.187448 179.068439 269.12415 178.284574 268.340285 
C 177.50071 267.55642 176.437412 267.115988 175.328859 267.115988 
C 174.220307 267.115988 173.157009 267.55642 172.373145 268.340285 
C 171.58928 269.12415 171.148847 270.187448 171.148847 271.296 
C 171.148847 272.404552 171.58928 273.46785 172.373145 274.251715 
C 173.157009 275.03558 174.220307 275.476012 175.328859 275.476012 
z
" style="fill:#c34002;fill-opacity:0.7;stroke:#000000;stroke-opacity:0.7;"/>
    <path clip-path="url(#p767613c227)" d="M 195.95339 275.441479 
C 197.052784 275.441479 198.107297 275.004686 198.884686 274.227297 
C 199.662075 273.449908 200.098869 272.395394 200.098869 271.296 
C 200.098869 270.196606 199.662075 269.142092 198.884686 268.364703 
C 198.107297 267.587314 197.052784 267.150521 195.95339 267.150521 
C 194.853996 267.150521 193.799482 267.587314 193.022093 268.364703 
C 192.244704 269.142092 191.80791 270.196606 191.80791 271.296 
C 191.80791 272.395394 192.244704 273.449908 193.022093 274.227297 
C 193.799482 275.004686 194.853996 275.441479 195.95339 275.441479 
z
" style="fill:#c03f02;fill-opacity:0.7;stroke:#000000;stroke-opacity:0.7;"/>
    <path clip-path="url(#p767613c227)" d="M 206.095598 275.427283 
C 207.191227 275.427283 208.242129 274.991985 209.016856 274.217258 
C 209.791583 273.442532 210.226881 272.391629 210.226881 271.296 
C 210.226881 270.200371 209.791583 269.149468 209.016856 268.374742 
C 208.242129 267.600015 207.191227 267.164717 206.095598 267.164717 
C 204.999969 267.164717 203.949066 267.600015 203.174339 268.374742 
C 202.399613 269.149468 201.964315 270.200371 201.964315 271.296 
C 201.964315 272.391629 202.399613 273.442532 203.174339 274.217258 
C 203.949066 274.991985 204.999969 275.427283 206.095598 275.427283 
z
" style="fill:#bd3e02;fill-opacity:0.7;stroke:#000000;stroke-opacity:0.7;"/>
    <path clip-path="url(#p767613c227)" d="M 206.095598 275.427283 
C 207.191227 275.427283 208.242129 274.991985 209.016856 274.217258 
C 209.791583 273.442532 210.226881 272.391629 210.226881 271.296 
C 210.226881 270.200371 209.791583 269.149468 209.016856 268.374742 
C 208.242129 267.600015 207.191227 267.164717 206.095598 267.164717 
C 204.999969 267.164717 203.949066 267.600015 203.174339 268.374742 
C 202.399613 269.149468 201.964315 270.200371 201.964315 271.296 
C 201.964315 272.391629 202.399613 273.442532 203.174339 274.217258 
C 203.949066 274.991985 204.999969 275.427283 206.095598 275.427283 
z
" style="fill:#bd3e02;fill-opacity:0.7;stroke:#000000;stroke-opacity:0.7;"/>
    <path clip-path="url(#p767613c227)" d="M 206.095598 275.427283 
C 207.191227 275.427283 208.242129 274.991985 209.016856 274.217258 
C 209.791583 273.442532 210.226881 272.391629 210.226881 271.296 
C 210.226881 270.200371 209.791583 269.149468 209.016856 268.374742 
C 208.242129 267.600015 207.191227 267.164717 206.095598 267.164717 
C 204.999969 267.164717 203.949066 267.600015 203.174339 268.374742 
C 202.399613 269.149468 201.964315 270.200371 201.964315 271.296 
C 201.964315 272.391629 202.399613 273.442532 203.174339 274.217258 
C 203.949066 274.991985 204.999969 275.427283 206.095598 275.427283 
z
" style="fill:#bd3e02;fill-opacity:0.7;stroke:#000000;stroke-opacity:0.7;"/>
    <path clip-path="url(#p767613c227)" d="M 206.095598 275.427283 
C 207.191227 275.427283 208.242129 274.991985 209.016856 274.217258 
C 209.791583 273.442532 210.226881 272.391629 210.226881 271.296 
C 210.226881 270.200371 209.791583 269.149468 209.016856 268.374742 
C 208.242129 267.600015 207.191227 267.164717 206.095598 267.164717 
C 204.999969 267.164717 203.949066 267.600015 203.174339 268.374742 
C 202.399613 269.149468 201.964315 270.200371 201.964315 271.296 
C 201.964315 272.391629 202.399613 273.442532 203.174339 274.217258 
C 203.949066 274.991985 204.999969 275.427283 206.095598 275.427283 
z
" style="fill:#bd3e02;fill-opacity:0.7;stroke:#000000;stroke-opacity:0.7;"/>
    <path clip-path="url(#p767613c227)" d="M 175.328859 269.723489 
C 176.515773 269.723489 177.654233 269.251923 178.493508 268.412648 
C 179.332782 267.573374 179.804348 266.434914 179.804348 265.248 
C 179.804348 264.061086 179.332782 262.922626 178.493508 262.083352 
C 177.654233 261.244077 176.515773 260.772511 175.328859 260.772511 
C 174.141946 260.772511 173.003486 261.244077 172.164211 262.083352 
C 171.324936 262.922626 170.853371 264.061086 170.853371 265.248 
C 170.853371 266.434914 171.324936 267.573374 172.164211 268.412648 
C 173.003486 269.251923 174.141946 269.723489 175.328859 269.723489 
z
" style="fill:#db4b02;fill-opacity:0.7;stroke:#000000;stroke-opacity:0.7;"/>
    <path clip-path="url(#p767613c227)" d="M 195.95339 269.513267 
C 197.084552 269.513267 198.169536 269.063851 198.969389 268.263999 
C 199.769241 267.464147 200.218656 266.379162 200.218656 265.248 
C 200.218656 264.116838 199.769241 263.031853 198.969389 262.232001 
C 198.169536 261.432149 197.084552 260.982733 195.95339 260.982733 
C 194.822228 260.982733 193.737243 261.432149 192.937391 262.232001 
C 192.137538 263.031853 191.688123 264.116838 191.688123 265.248 
C 191.688123 266.379162 192.137538 267.464147 192.937391 268.263999 
C 193.737243 269.063851 194.822228 269.513267 195.95339 269.513267 
z
" style="fill:#ca4302;fill-opacity:0.7;stroke:#000000;stroke-opacity:0.7;"/>
    <path clip-path="url(#p767613c227)" d="M 201.415625 269.45157 
C 202.530425 269.45157 203.599715 269.008655 204.387998 268.220373 
C 205.17628 267.43209 205.619195 266.3628 205.619195 265.248 
C 205.619195 264.1332 205.17628 263.06391 204.387998 262.275627 
C 203.599715 261.487345 202.530425 261.04443 201.415625 261.04443 
C 200.300825 261.04443 199.231535 261.487345 198.443252 262.275627 
C 197.65497 263.06391 197.212055 264.1332 197.212055 265.248 
C 197.212055 266.3628 197.65497 267.43209 198.443252 268.220373 
C 199.231535 269.008655 200.300825 269.45157 201.415625 269.45157 
z
" style="fill:#c74102;fill-opacity:0.7;stroke:#000000;stroke-opacity:0.7;"/>
    <path clip-path="url(#p767613c227)" d="M 201.415625 269.45157 
C 202.530425 269.45157 203.599715 269.008655 204.387998 268.220373 
C 205.17628 267.43209 205.619195 266.3628 205.619195 265.248 
C 205.619195 264.1332 205.17628 263.06391 204.387998 262.275627 
C 203.599715 261.487345 202.530425 261.04443 201.415625 261.04443 
C 200.300825 261.04443 199.231535 261.487345 198.443252 262.275627 
C 197.65497 263.06391 197.212055 264.1332 197.212055 265.248 
C 197.212055 266.3628 197.65497 267.43209 198.443252 268.220373 
C 199.231535 269.008655 200.300825 269.45157 201.415625 269.45157 
z
" style="fill:#c74102;fill-opacity:0.7;stroke:#000000;stroke-opacity:0.7;"/>
    <path clip-path="url(#p767613c227)" d="M 201.415625 269.45157 
C 202.530425 269.45157 203.599715 269.008655 204.387998 268.220373 
C 205.17628 267.43209 205.619195 266.3628 205.619195 265.248 
C 205.619195 264.1332 205.17628 263.06391 204.387998 262.275627 
C 203.599715 261.487345 202.530425 261.04443 201.415625 261.04443 
C 200.300825 261.04443 199.231535 261.487345 198.443252 262.275627 
C 197.65497 263.06391 197.212055 264.1332 197.212055 265.248 
C 197.212055 266.3628 197.65497 267.43209 198.443252 268.220373 
C 199.231535 269.008655 200.300825 269.45157 201.415625 269.45157 
z
" style="fill:#c74102;fill-opacity:0.7;stroke:#000000;stroke-opacity:0.7;"/>
    <path clip-path="url(#p767613c227)" d="M 202.104357 269.453948 
C 203.219787 269.453948 204.289683 269.010783 205.078411 268.222054 
C 205.86714 267.433326 206.310305 266.36343 206.310305 265.248 
C 206.310305 264.13257 205.86714 263.062674 205.078411 262.273946 
C 204.289683 261.485217 203.219787 261.042052 202.104357 261.042052 
C 200.988926 261.042052 199.919031 261.485217 199.130302 262.273946 
C 198.341574 263.062674 197.898408 264.13257 197.898408 265.248 
C 197.898408 266.36343 198.341574 267.433326 199.130302 268.222054 
C 199.919031 269.010783 200.988926 269.453948 202.104357 269.453948 
z
" style="fill:#c74102;fill-opacity:0.7;stroke:#000000;stroke-opacity:0.7;"/>
    <path clip-path="url(#p767613c227)" d="M 175.328859 263.513931 
C 176.472927 263.513931 177.570291 263.059388 178.379269 262.25041 
C 179.188247 261.441432 179.64279 260.344068 179.64279 259.2 
C 179.64279 258.055932 179.188247 256.958568 178.379269 256.14959 
C 177.570291 255.340612 176.472927 254.886069 175.328859 254.886069 
C 174.184792 254.886069 173.087428 255.340612 172.27845 256.14959 
C 171.469471 256.958568 171.014929 258.055932 171.014929 259.2 
C 171.014929 260.344068 171.469471 261.441432 172.27845 262.25041 
C 173.087428 263.059388 174.184792 263.513931 175.328859 263.513931 
z
" style="fill:#d04501;fill-opacity:0.7;stroke:#000000;stroke-opacity:0.7;"/>
    <path clip-path="url(#p767613c227)" d="M 194.900736 263.479019 
C 196.035545 263.479019 197.124028 263.028154 197.926459 262.225723 
C 198.72889 261.423292 199.179755 260.334809 199.179755 259.2 
C 199.179755 258.065191 198.72889 256.976708 197.926459 256.174277 
C 197.124028 255.371846 196.035545 254.920981 194.900736 254.920981 
C 193.765927 254.920981 192.677444 255.371846 191.875013 256.174277 
C 191.072582 256.976708 190.621717 258.065191 190.621717 259.2 
C 190.621717 260.334809 191.072582 261.423292 191.875013 262.225723 
C 192.677444 263.028154 193.765927 263.479019 194.900736 263.479019 
z
" style="fill:#cd4401;fill-opacity:0.7;stroke:#000000;stroke-opacity:0.7;"/>
    <path clip-path="url(#p767613c227)" d="M 201.767643 263.664863 
C 202.951739 263.664863 204.087496 263.194417 204.924778 262.357135 
C 205.76206 261.519853 206.232506 260.384095 206.232506 259.2 
C 206.232506 258.015905 205.76206 256.880147 204.924778 256.042865 
C 204.087496 255.205583 202.951739 254.735137 201.767643 254.735137 
C 200.583548 254.735137 199.447791 255.205583 198.610509 256.042865 
C 197.773227 256.880147 197.302781 258.015905 197.302781 259.2 
C 197.302781 260.384095 197.773227 261.519853 198.610509 262.357135 
C 199.447791 263.194417 200.583548 263.664863 201.767643 263.664863 
z
" style="fill:#db4b02;fill-opacity:0.7;stroke:#000000;stroke-opacity:0.7;"/>
    <path clip-path="url(#p767613c227)" d="M 194.899035 263.479019 
C 196.033844 263.479019 197.122327 263.028154 197.924758 262.225723 
C 198.72719 261.423292 199.178054 260.334809 199.178054 259.2 
C 199.178054 258.065191 198.72719 256.976708 197.924758 256.174277 
C 197.122327 255.371846 196.033844 254.920981 194.899035 254.920981 
C 193.764226 254.920981 192.675744 255.371846 191.873312 256.174277 
C 191.070881 256.976708 190.620017 258.065191 190.620017 259.2 
C 190.620017 260.334809 191.070881 261.423292 191.873312 262.225723 
C 192.675744 263.028154 193.764226 263.479019 194.899035 263.479019 
z
" style="fill:#cd4401;fill-opacity:0.7;stroke:#000000;stroke-opacity:0.7;"/>
    <path clip-path="url(#p767613c227)" d="M 198.98891 263.481063 
C 200.124261 263.481063 201.213264 263.029983 202.016078 262.227169 
C 202.818893 261.424354 203.269973 260.335351 203.269973 259.2 
C 203.269973 258.064649 202.818893 256.975646 202.016078 256.172831 
C 201.213264 255.370017 200.124261 254.918937 198.98891 254.918937 
C 197.853559 254.918937 196.764556 255.370017 195.961741 256.172831 
C 195.158927 256.975646 194.707847 258.064649 194.707847 259.2 
C 194.707847 260.335351 195.158927 261.424354 195.961741 262.227169 
C 196.764556 263.029983 197.853559 263.481063 198.98891 263.481063 
z
" style="fill:#cd4401;fill-opacity:0.7;stroke:#000000;stroke-opacity:0.7;"/>
    <path clip-path="url(#p767613c227)" d="M 194.899035 263.479019 
C 196.033844 263.479019 197.122327 263.028154 197.924758 262.225723 
C 198.72719 261.423292 199.178054 260.334809 199.178054 259.2 
C 199.178054 258.065191 198.72719 256.976708 197.924758 256.174277 
C 197.122327 255.371846 196.033844 254.920981 194.899035 254.920981 
C 193.764226 254.920981 192.675744 255.371846 191.873312 256.174277 
C 191.070881 256.976708 190.620017 258.065191 190.620017 259.2 
C 190.620017 260.334809 191.070881 261.423292 191.873312 262.225723 
C 192.675744 263.028154 193.764226 263.479019 194.899035 263.479019 
z
" style="fill:#cd4401;fill-opacity:0.7;stroke:#000000;stroke-opacity:0.7;"/>
    <path clip-path="url(#p767613c227)" d="M 175.328859 257.562499 
C 176.498537 257.562499 177.620466 257.097781 178.447553 256.270694 
C 179.27464 255.443606 179.739358 254.321678 179.739358 253.152 
C 179.739358 251.982322 179.27464 250.860394 178.447553 250.033306 
C 177.620466 249.206219 176.498537 248.741501 175.328859 248.741501 
C 174.159181 248.741501 173.037253 249.206219 172.210166 250.033306 
C 171.383079 250.860394 170.918361 251.982322 170.918361 253.152 
C 170.918361 254.321678 171.383079 255.443606 172.210166 256.270694 
C 173.037253 257.097781 174.159181 257.562499 175.328859 257.562499 
z
" style="fill:#d74701;fill-opacity:0.7;stroke:#000000;stroke-opacity:0.7;"/>
    <path clip-path="url(#p767613c227)" d="M 190.933303 257.508891 
C 192.088764 257.508891 193.197056 257.049822 194.01409 256.232787 
C 194.831124 255.415753 195.290194 254.307461 195.290194 253.152 
C 195.290194 251.996539 194.831124 250.888247 194.01409 250.071213 
C 193.197056 249.254178 192.088764 248.795109 190.933303 248.795109 
C 189.777842 248.795109 188.66955 249.254178 187.852516 250.071213 
C 187.035481 250.888247 186.576412 251.996539 186.576412 253.152 
C 186.576412 254.307461 187.035481 255.415753 187.852516 256.232787 
C 188.66955 257.049822 189.777842 257.508891 190.933303 257.508891 
z
" style="fill:#d34601;fill-opacity:0.7;stroke:#000000;stroke-opacity:0.7;"/>
    <path clip-path="url(#p767613c227)" d="M 187.469239 257.508891 
C 188.6247 257.508891 189.732992 257.049822 190.550026 256.232787 
C 191.36706 255.415753 191.82613 254.307461 191.82613 253.152 
C 191.82613 251.996539 191.36706 250.888247 190.550026 250.071213 
C 189.732992 249.254178 188.6247 248.795109 187.469239 248.795109 
C 186.313778 248.795109 185.205486 249.254178 184.388452 250.071213 
C 183.571417 250.888247 183.112348 251.996539 183.112348 253.152 
C 183.112348 254.307461 183.571417 255.415753 184.388452 256.232787 
C 185.205486 257.049822 186.313778 257.508891 187.469239 257.508891 
z
" style="fill:#d34601;fill-opacity:0.7;stroke:#000000;stroke-opacity:0.7;"/>
    <path clip-path="url(#p767613c227)" d="M 190.333001 257.553704 
C 191.500347 257.553704 192.620038 257.089913 193.445476 256.264475 
C 194.270914 255.439037 194.734705 254.319346 194.734705 253.152 
C 194.734705 251.984654 194.270914 250.864963 193.445476 250.039525 
C 192.620038 249.214087 191.500347 248.750296 190.333001 248.750296 
C 189.165656 248.750296 188.045964 249.214087 187.220526 250.039525 
C 186.395088 250.864963 185.931297 251.984654 185.931297 253.152 
C 185.931297 254.319346 186.395088 255.439037 187.220526 256.264475 
C 188.045964 257.089913 189.165656 257.553704 190.333001 257.553704 
z
" style="fill:#d74701;fill-opacity:0.7;stroke:#000000;stroke-opacity:0.7;"/>
    <path clip-path="url(#p767613c227)" d="M 188.147767 257.507743 
C 189.302923 257.507743 190.410923 257.048795 191.227743 256.231976 
C 192.044562 255.415157 192.50351 254.307157 192.50351 253.152 
C 192.50351 251.996843 192.044562 250.888843 191.227743 250.072024 
C 190.410923 249.255205 189.302923 248.796257 188.147767 248.796257 
C 186.99261 248.796257 185.88461 249.255205 185.067791 250.072024 
C 184.250972 250.888843 183.792024 251.996843 183.792024 253.152 
C 183.792024 254.307157 184.250972 255.415157 185.067791 256.231976 
C 185.88461 257.048795 186.99261 257.507743 188.147767 257.507743 
z
" style="fill:#d34601;fill-opacity:0.7;stroke:#000000;stroke-opacity:0.7;"/>
    <path clip-path="url(#p767613c227)" d="M 188.147767 257.507743 
C 189.302923 257.507743 190.410923 257.048795 191.227743 256.231976 
C 192.044562 255.415157 192.50351 254.307157 192.50351 253.152 
C 192.50351 251.996843 192.044562 250.888843 191.227743 250.072024 
C 190.410923 249.255205 189.302923 248.796257 188.147767 248.796257 
C 186.99261 248.796257 185.88461 249.255205 185.067791 250.072024 
C 184.250972 250.888843 183.792024 251.996843 183.792024 253.152 
C 183.792024 254.307157 184.250972 255.415157 185.067791 256.231976 
C 185.88461 257.048795 186.99261 257.507743 188.147767 257.507743 
z
" style="fill:#d34601;fill-opacity:0.7;stroke:#000000;stroke-opacity:0.7;"/>
    <path clip-path="url(#p767613c227)" d="M 175.328859 251.582839 
C 176.516661 251.582839 177.655974 251.11092 178.495877 250.271018 
C 179.33578 249.431115 179.807699 248.291802 179.807699 247.104 
C 179.807699 245.916198 179.33578 244.776885 178.495877 243.936982 
C 177.655974 243.09708 176.516661 242.625161 175.328859 242.625161 
C 174.141057 242.625161 173.001745 243.09708 172.161842 243.936982 
C 171.321939 244.776885 170.85002 245.916198 170.85002 247.104 
C 170.85002 248.291802 171.321939 249.431115 172.161842 250.271018 
C 173.001745 251.11092 174.141057 251.582839 175.328859 251.582839 
z
" style="fill:#dc4d04;fill-opacity:0.7;stroke:#000000;stroke-opacity:0.7;"/>
    <path clip-path="url(#p767613c227)" d="M 182.547785 251.539087 
C 183.723984 251.539087 184.852167 251.071779 185.683865 250.24008 
C 186.515564 249.408382 186.982873 248.280199 186.982873 247.104 
C 186.982873 245.927801 186.515564 244.799618 185.683865 243.96792 
C 184.852167 243.136221 183.723984 242.668913 182.547785 242.668913 
C 181.371586 242.668913 180.243403 243.136221 179.411705 243.96792 
C 178.580007 244.799618 178.112698 245.927801 178.112698 247.104 
C 178.112698 248.280199 178.580007 249.408382 179.411705 250.24008 
C 180.243403 251.071779 181.371586 251.539087 182.547785 251.539087 
z
" style="fill:#d94901;fill-opacity:0.7;stroke:#000000;stroke-opacity:0.7;"/>
    <path clip-path="url(#p767613c227)" d="M 182.251886 251.538524 
C 183.427935 251.538524 184.555975 251.071274 185.387567 250.239682 
C 186.21916 249.408089 186.686409 248.280049 186.686409 247.104 
C 186.686409 245.927951 186.21916 244.799911 185.387567 243.968318 
C 184.555975 243.136726 183.427935 242.669476 182.251886 242.669476 
C 181.075836 242.669476 179.947796 243.136726 179.116204 243.968318 
C 178.284611 244.799911 177.817362 245.927951 177.817362 247.104 
C 177.817362 248.280049 178.284611 249.408089 179.116204 250.239682 
C 179.947796 251.071274 181.075836 251.538524 182.251886 251.538524 
z
" style="fill:#d94901;fill-opacity:0.7;stroke:#000000;stroke-opacity:0.7;"/>
    <path clip-path="url(#p767613c227)" d="M 182.251886 251.538524 
C 183.427935 251.538524 184.555975 251.071274 185.387567 250.239682 
C 186.21916 249.408089 186.686409 248.280049 186.686409 247.104 
C 186.686409 245.927951 186.21916 244.799911 185.387567 243.968318 
C 184.555975 243.136726 183.427935 242.669476 182.251886 242.669476 
C 181.075836 242.669476 179.947796 243.136726 179.116204 243.968318 
C 178.284611 244.799911 177.817362 245.927951 177.817362 247.104 
C 177.817362 248.280049 178.284611 249.408089 179.116204 250.239682 
C 179.947796 251.071274 181.075836 251.538524 182.251886 251.538524 
z
" style="fill:#d94901;fill-opacity:0.7;stroke:#000000;stroke-opacity:0.7;"/>
    <path clip-path="url(#p767613c227)" d="M 188.448768 251.55765 
C 189.62989 251.55765 190.762795 251.088386 191.597974 250.253206 
C 192.433154 249.418027 192.902418 248.285122 192.902418 247.104 
C 192.902418 245.922878 192.433154 244.789973 191.597974 243.954794 
C 190.762795 243.119614 189.62989 242.65035 188.448768 242.65035 
C 187.267646 242.65035 186.134741 243.119614 185.299562 243.954794 
C 184.464382 244.789973 183.995118 245.922878 183.995118 247.104 
C 183.995118 248.285122 184.464382 249.418027 185.299562 250.253206 
C 186.134741 251.088386 187.267646 251.55765 188.448768 251.55765 
z
" style="fill:#db4b02;fill-opacity:0.7;stroke:#000000;stroke-opacity:0.7;"/>
    <path clip-path="url(#p767613c227)" d="M 182.251886 251.538524 
C 183.427935 251.538524 184.555975 251.071274 185.387567 250.239682 
C 186.21916 249.408089 186.686409 248.280049 186.686409 247.104 
C 186.686409 245.927951 186.21916 244.799911 185.387567 243.968318 
C 184.555975 243.136726 183.427935 242.669476 182.251886 242.669476 
C 181.075836 242.669476 179.947796 243.136726 179.116204 243.968318 
C 178.284611 244.799911 177.817362 245.927951 177.817362 247.104 
C 177.817362 248.280049 178.284611 249.408089 179.116204 250.239682 
C 179.947796 251.071274 181.075836 251.538524 182.251886 251.538524 
z
" style="fill:#d94901;fill-opacity:0.7;stroke:#000000;stroke-opacity:0.7;"/>
   </g>
   <g id="matplotlib.axis_1">
    <g id="xtick_1">
     <g id="line2d_1">
      <defs>
       <path d="M 0 0 
L 0 3.5 
" id="m283b653f65" style="stroke:#000000;stroke-width:0.8;"/>
      </defs>
      <g>
       <use style="stroke:#000000;stroke-width:0.8;" x="57.6" xlink:href="#m283b653f65" y="307.584"/>
      </g>
     </g>
     <g id="text_1">
      <!-- −5.0 -->
      <defs>
       <path d="M 10.59375 35.5 
L 73.1875 35.5 
L 73.1875 27.203125 
L 10.59375 27.203125 
z
" id="DejaVuSans-8722"/>
       <path d="M 10.796875 72.90625 
L 49.515625 72.90625 
L 49.515625 64.59375 
L 19.828125 64.59375 
L 19.828125 46.734375 
Q 21.96875 47.46875 24.109375 47.828125 
Q 26.265625 48.1875 28.421875 48.1875 
Q 40.625 48.1875 47.75 41.5 
Q 54.890625 34.8125 54.890625 23.390625 
Q 54.890625 11.625 47.5625 5.09375 
Q 40.234375 -1.421875 26.90625 -1.421875 
Q 22.3125 -1.421875 17.546875 -0.640625 
Q 12.796875 0.140625 7.71875 1.703125 
L 7.71875 11.625 
Q 12.109375 9.234375 16.796875 8.0625 
Q 21.484375 6.890625 26.703125 6.890625 
Q 35.15625 6.890625 40.078125 11.328125 
Q 45.015625 15.765625 45.015625 23.390625 
Q 45.015625 31 40.078125 35.4375 
Q 35.15625 39.890625 26.703125 39.890625 
Q 22.75 39.890625 18.8125 39.015625 
Q 14.890625 38.140625 10.796875 36.28125 
z
" id="DejaVuSans-53"/>
       <path d="M 10.6875 12.40625 
L 21 12.40625 
L 21 0 
L 10.6875 0 
z
" id="DejaVuSans-46"/>
       <path d="M 31.78125 66.40625 
Q 24.171875 66.40625 20.328125 58.90625 
Q 16.5 51.421875 16.5 36.375 
Q 16.5 21.390625 20.328125 13.890625 
Q 24.171875 6.390625 31.78125 6.390625 
Q 39.453125 6.390625 43.28125 13.890625 
Q 47.125 21.390625 47.125 36.375 
Q 47.125 51.421875 43.28125 58.90625 
Q 39.453125 66.40625 31.78125 66.40625 
z
M 31.78125 74.21875 
Q 44.046875 74.21875 50.515625 64.515625 
Q 56.984375 54.828125 56.984375 36.375 
Q 56.984375 17.96875 50.515625 8.265625 
Q 44.046875 -1.421875 31.78125 -1.421875 
Q 19.53125 -1.421875 13.0625 8.265625 
Q 6.59375 17.96875 6.59375 36.375 
Q 6.59375 54.828125 13.0625 64.515625 
Q 19.53125 74.21875 31.78125 74.21875 
z
" id="DejaVuSans-48"/>
      </defs>
      <g transform="translate(45.458594 322.182437)scale(0.1 -0.1)">
       <use xlink:href="#DejaVuSans-8722"/>
       <use x="83.789062" xlink:href="#DejaVuSans-53"/>
       <use x="147.412109" xlink:href="#DejaVuSans-46"/>
       <use x="179.199219" xlink:href="#DejaVuSans-48"/>
      </g>
     </g>
    </g>
    <g id="xtick_2">
     <g id="line2d_2">
      <g>
       <use style="stroke:#000000;stroke-width:0.8;" x="100.114286" xlink:href="#m283b653f65" y="307.584"/>
      </g>
     </g>
     <g id="text_2">
      <!-- −2.5 -->
      <defs>
       <path d="M 19.1875 8.296875 
L 53.609375 8.296875 
L 53.609375 0 
L 7.328125 0 
L 7.328125 8.296875 
Q 12.9375 14.109375 22.625 23.890625 
Q 32.328125 33.6875 34.8125 36.53125 
Q 39.546875 41.84375 41.421875 45.53125 
Q 43.3125 49.21875 43.3125 52.78125 
Q 43.3125 58.59375 39.234375 62.25 
Q 35.15625 65.921875 28.609375 65.921875 
Q 23.96875 65.921875 18.8125 64.3125 
Q 13.671875 62.703125 7.8125 59.421875 
L 7.8125 69.390625 
Q 13.765625 71.78125 18.9375 73 
Q 24.125 74.21875 28.421875 74.21875 
Q 39.75 74.21875 46.484375 68.546875 
Q 53.21875 62.890625 53.21875 53.421875 
Q 53.21875 48.921875 51.53125 44.890625 
Q 49.859375 40.875 45.40625 35.40625 
Q 44.1875 33.984375 37.640625 27.21875 
Q 31.109375 20.453125 19.1875 8.296875 
z
" id="DejaVuSans-50"/>
      </defs>
      <g transform="translate(87.972879 322.182437)scale(0.1 -0.1)">
       <use xlink:href="#DejaVuSans-8722"/>
       <use x="83.789062" xlink:href="#DejaVuSans-50"/>
       <use x="147.412109" xlink:href="#DejaVuSans-46"/>
       <use x="179.199219" xlink:href="#DejaVuSans-53"/>
      </g>
     </g>
    </g>
    <g id="xtick_3">
     <g id="line2d_3">
      <g>
       <use style="stroke:#000000;stroke-width:0.8;" x="142.628571" xlink:href="#m283b653f65" y="307.584"/>
      </g>
     </g>
     <g id="text_3">
      <!-- 0.0 -->
      <g transform="translate(134.677009 322.182437)scale(0.1 -0.1)">
       <use xlink:href="#DejaVuSans-48"/>
       <use x="63.623047" xlink:href="#DejaVuSans-46"/>
       <use x="95.410156" xlink:href="#DejaVuSans-48"/>
      </g>
     </g>
    </g>
    <g id="xtick_4">
     <g id="line2d_4">
      <g>
       <use style="stroke:#000000;stroke-width:0.8;" x="185.142857" xlink:href="#m283b653f65" y="307.584"/>
      </g>
     </g>
     <g id="text_4">
      <!-- 2.5 -->
      <g transform="translate(177.191295 322.182437)scale(0.1 -0.1)">
       <use xlink:href="#DejaVuSans-50"/>
       <use x="63.623047" xlink:href="#DejaVuSans-46"/>
       <use x="95.410156" xlink:href="#DejaVuSans-53"/>
      </g>
     </g>
    </g>
    <g id="xtick_5">
     <g id="line2d_5">
      <g>
       <use style="stroke:#000000;stroke-width:0.8;" x="227.657143" xlink:href="#m283b653f65" y="307.584"/>
      </g>
     </g>
     <g id="text_5">
      <!-- 5.0 -->
      <g transform="translate(219.70558 322.182437)scale(0.1 -0.1)">
       <use xlink:href="#DejaVuSans-53"/>
       <use x="63.623047" xlink:href="#DejaVuSans-46"/>
       <use x="95.410156" xlink:href="#DejaVuSans-48"/>
      </g>
     </g>
    </g>
    <g id="xtick_6">
     <g id="line2d_6">
      <g>
       <use style="stroke:#000000;stroke-width:0.8;" x="270.171429" xlink:href="#m283b653f65" y="307.584"/>
      </g>
     </g>
     <g id="text_6">
      <!-- 7.5 -->
      <defs>
       <path d="M 8.203125 72.90625 
L 55.078125 72.90625 
L 55.078125 68.703125 
L 28.609375 0 
L 18.3125 0 
L 43.21875 64.59375 
L 8.203125 64.59375 
z
" id="DejaVuSans-55"/>
      </defs>
      <g transform="translate(262.219866 322.182437)scale(0.1 -0.1)">
       <use xlink:href="#DejaVuSans-55"/>
       <use x="63.623047" xlink:href="#DejaVuSans-46"/>
       <use x="95.410156" xlink:href="#DejaVuSans-53"/>
      </g>
     </g>
    </g>
    <g id="xtick_7">
     <g id="line2d_7">
      <g>
       <use style="stroke:#000000;stroke-width:0.8;" x="312.685714" xlink:href="#m283b653f65" y="307.584"/>
      </g>
     </g>
     <g id="text_7">
      <!-- 10.0 -->
      <defs>
       <path d="M 12.40625 8.296875 
L 28.515625 8.296875 
L 28.515625 63.921875 
L 10.984375 60.40625 
L 10.984375 69.390625 
L 28.421875 72.90625 
L 38.28125 72.90625 
L 38.28125 8.296875 
L 54.390625 8.296875 
L 54.390625 0 
L 12.40625 0 
z
" id="DejaVuSans-49"/>
      </defs>
      <g transform="translate(301.552902 322.182437)scale(0.1 -0.1)">
       <use xlink:href="#DejaVuSans-49"/>
       <use x="63.623047" xlink:href="#DejaVuSans-48"/>
       <use x="127.246094" xlink:href="#DejaVuSans-46"/>
       <use x="159.033203" xlink:href="#DejaVuSans-48"/>
      </g>
     </g>
    </g>
    <g id="xtick_8">
     <g id="line2d_8">
      <g>
       <use style="stroke:#000000;stroke-width:0.8;" x="355.2" xlink:href="#m283b653f65" y="307.584"/>
      </g>
     </g>
     <g id="text_8">
      <!-- 12.5 -->
      <g transform="translate(344.067187 322.182437)scale(0.1 -0.1)">
       <use xlink:href="#DejaVuSans-49"/>
       <use x="63.623047" xlink:href="#DejaVuSans-50"/>
       <use x="127.246094" xlink:href="#DejaVuSans-46"/>
       <use x="159.033203" xlink:href="#DejaVuSans-53"/>
      </g>
     </g>
    </g>
    <g id="xtick_9">
     <g id="line2d_9">
      <g>
       <use style="stroke:#000000;stroke-width:0.8;" x="397.714286" xlink:href="#m283b653f65" y="307.584"/>
      </g>
     </g>
     <g id="text_9">
      <!-- 15.0 -->
      <g transform="translate(386.581473 322.182437)scale(0.1 -0.1)">
       <use xlink:href="#DejaVuSans-49"/>
       <use x="63.623047" xlink:href="#DejaVuSans-53"/>
       <use x="127.246094" xlink:href="#DejaVuSans-46"/>
       <use x="159.033203" xlink:href="#DejaVuSans-48"/>
      </g>
     </g>
    </g>
    <g id="text_10">
     <!-- Global Warming Potential (kgCO2eq/house-yr) -->
     <defs>
      <path d="M 59.515625 10.40625 
L 59.515625 29.984375 
L 43.40625 29.984375 
L 43.40625 38.09375 
L 69.28125 38.09375 
L 69.28125 6.78125 
Q 63.578125 2.734375 56.6875 0.65625 
Q 49.8125 -1.421875 42 -1.421875 
Q 24.90625 -1.421875 15.25 8.5625 
Q 5.609375 18.5625 5.609375 36.375 
Q 5.609375 54.25 15.25 64.234375 
Q 24.90625 74.21875 42 74.21875 
Q 49.125 74.21875 55.546875 72.453125 
Q 61.96875 70.703125 67.390625 67.28125 
L 67.390625 56.78125 
Q 61.921875 61.421875 55.765625 63.765625 
Q 49.609375 66.109375 42.828125 66.109375 
Q 29.4375 66.109375 22.71875 58.640625 
Q 16.015625 51.171875 16.015625 36.375 
Q 16.015625 21.625 22.71875 14.15625 
Q 29.4375 6.6875 42.828125 6.6875 
Q 48.046875 6.6875 52.140625 7.59375 
Q 56.25 8.5 59.515625 10.40625 
z
" id="DejaVuSans-71"/>
      <path d="M 9.421875 75.984375 
L 18.40625 75.984375 
L 18.40625 0 
L 9.421875 0 
z
" id="DejaVuSans-108"/>
      <path d="M 30.609375 48.390625 
Q 23.390625 48.390625 19.1875 42.75 
Q 14.984375 37.109375 14.984375 27.296875 
Q 14.984375 17.484375 19.15625 11.84375 
Q 23.34375 6.203125 30.609375 6.203125 
Q 37.796875 6.203125 41.984375 11.859375 
Q 46.1875 17.53125 46.1875 27.296875 
Q 46.1875 37.015625 41.984375 42.703125 
Q 37.796875 48.390625 30.609375 48.390625 
z
M 30.609375 56 
Q 42.328125 56 49.015625 48.375 
Q 55.71875 40.765625 55.71875 27.296875 
Q 55.71875 13.875 49.015625 6.21875 
Q 42.328125 -1.421875 30.609375 -1.421875 
Q 18.84375 -1.421875 12.171875 6.21875 
Q 5.515625 13.875 5.515625 27.296875 
Q 5.515625 40.765625 12.171875 48.375 
Q 18.84375 56 30.609375 56 
z
" id="DejaVuSans-111"/>
      <path d="M 48.6875 27.296875 
Q 48.6875 37.203125 44.609375 42.84375 
Q 40.53125 48.484375 33.40625 48.484375 
Q 26.265625 48.484375 22.1875 42.84375 
Q 18.109375 37.203125 18.109375 27.296875 
Q 18.109375 17.390625 22.1875 11.75 
Q 26.265625 6.109375 33.40625 6.109375 
Q 40.53125 6.109375 44.609375 11.75 
Q 48.6875 17.390625 48.6875 27.296875 
z
M 18.109375 46.390625 
Q 20.953125 51.265625 25.265625 53.625 
Q 29.59375 56 35.59375 56 
Q 45.5625 56 51.78125 48.09375 
Q 58.015625 40.1875 58.015625 27.296875 
Q 58.015625 14.40625 51.78125 6.484375 
Q 45.5625 -1.421875 35.59375 -1.421875 
Q 29.59375 -1.421875 25.265625 0.953125 
Q 20.953125 3.328125 18.109375 8.203125 
L 18.109375 0 
L 9.078125 0 
L 9.078125 75.984375 
L 18.109375 75.984375 
z
" id="DejaVuSans-98"/>
      <path d="M 34.28125 27.484375 
Q 23.390625 27.484375 19.1875 25 
Q 14.984375 22.515625 14.984375 16.5 
Q 14.984375 11.71875 18.140625 8.90625 
Q 21.296875 6.109375 26.703125 6.109375 
Q 34.1875 6.109375 38.703125 11.40625 
Q 43.21875 16.703125 43.21875 25.484375 
L 43.21875 27.484375 
z
M 52.203125 31.203125 
L 52.203125 0 
L 43.21875 0 
L 43.21875 8.296875 
Q 40.140625 3.328125 35.546875 0.953125 
Q 30.953125 -1.421875 24.3125 -1.421875 
Q 15.921875 -1.421875 10.953125 3.296875 
Q 6 8.015625 6 15.921875 
Q 6 25.140625 12.171875 29.828125 
Q 18.359375 34.515625 30.609375 34.515625 
L 43.21875 34.515625 
L 43.21875 35.40625 
Q 43.21875 41.609375 39.140625 45 
Q 35.0625 48.390625 27.6875 48.390625 
Q 23 48.390625 18.546875 47.265625 
Q 14.109375 46.140625 10.015625 43.890625 
L 10.015625 52.203125 
Q 14.9375 54.109375 19.578125 55.046875 
Q 24.21875 56 28.609375 56 
Q 40.484375 56 46.34375 49.84375 
Q 52.203125 43.703125 52.203125 31.203125 
z
" id="DejaVuSans-97"/>
      <path id="DejaVuSans-32"/>
      <path d="M 3.328125 72.90625 
L 13.28125 72.90625 
L 28.609375 11.28125 
L 43.890625 72.90625 
L 54.984375 72.90625 
L 70.3125 11.28125 
L 85.59375 72.90625 
L 95.609375 72.90625 
L 77.296875 0 
L 64.890625 0 
L 49.515625 63.28125 
L 33.984375 0 
L 21.578125 0 
z
" id="DejaVuSans-87"/>
      <path d="M 41.109375 46.296875 
Q 39.59375 47.171875 37.8125 47.578125 
Q 36.03125 48 33.890625 48 
Q 26.265625 48 22.1875 43.046875 
Q 18.109375 38.09375 18.109375 28.8125 
L 18.109375 0 
L 9.078125 0 
L 9.078125 54.6875 
L 18.109375 54.6875 
L 18.109375 46.1875 
Q 20.953125 51.171875 25.484375 53.578125 
Q 30.03125 56 36.53125 56 
Q 37.453125 56 38.578125 55.875 
Q 39.703125 55.765625 41.0625 55.515625 
z
" id="DejaVuSans-114"/>
      <path d="M 52 44.1875 
Q 55.375 50.25 60.0625 53.125 
Q 64.75 56 71.09375 56 
Q 79.640625 56 84.28125 50.015625 
Q 88.921875 44.046875 88.921875 33.015625 
L 88.921875 0 
L 79.890625 0 
L 79.890625 32.71875 
Q 79.890625 40.578125 77.09375 44.375 
Q 74.3125 48.1875 68.609375 48.1875 
Q 61.625 48.1875 57.5625 43.546875 
Q 53.515625 38.921875 53.515625 30.90625 
L 53.515625 0 
L 44.484375 0 
L 44.484375 32.71875 
Q 44.484375 40.625 41.703125 44.40625 
Q 38.921875 48.1875 33.109375 48.1875 
Q 26.21875 48.1875 22.15625 43.53125 
Q 18.109375 38.875 18.109375 30.90625 
L 18.109375 0 
L 9.078125 0 
L 9.078125 54.6875 
L 18.109375 54.6875 
L 18.109375 46.1875 
Q 21.1875 51.21875 25.484375 53.609375 
Q 29.78125 56 35.6875 56 
Q 41.65625 56 45.828125 52.96875 
Q 50 49.953125 52 44.1875 
z
" id="DejaVuSans-109"/>
      <path d="M 9.421875 54.6875 
L 18.40625 54.6875 
L 18.40625 0 
L 9.421875 0 
z
M 9.421875 75.984375 
L 18.40625 75.984375 
L 18.40625 64.59375 
L 9.421875 64.59375 
z
" id="DejaVuSans-105"/>
      <path d="M 54.890625 33.015625 
L 54.890625 0 
L 45.90625 0 
L 45.90625 32.71875 
Q 45.90625 40.484375 42.875 44.328125 
Q 39.84375 48.1875 33.796875 48.1875 
Q 26.515625 48.1875 22.3125 43.546875 
Q 18.109375 38.921875 18.109375 30.90625 
L 18.109375 0 
L 9.078125 0 
L 9.078125 54.6875 
L 18.109375 54.6875 
L 18.109375 46.1875 
Q 21.34375 51.125 25.703125 53.5625 
Q 30.078125 56 35.796875 56 
Q 45.21875 56 50.046875 50.171875 
Q 54.890625 44.34375 54.890625 33.015625 
z
" id="DejaVuSans-110"/>
      <path d="M 45.40625 27.984375 
Q 45.40625 37.75 41.375 43.109375 
Q 37.359375 48.484375 30.078125 48.484375 
Q 22.859375 48.484375 18.828125 43.109375 
Q 14.796875 37.75 14.796875 27.984375 
Q 14.796875 18.265625 18.828125 12.890625 
Q 22.859375 7.515625 30.078125 7.515625 
Q 37.359375 7.515625 41.375 12.890625 
Q 45.40625 18.265625 45.40625 27.984375 
z
M 54.390625 6.78125 
Q 54.390625 -7.171875 48.1875 -13.984375 
Q 42 -20.796875 29.203125 -20.796875 
Q 24.46875 -20.796875 20.265625 -20.09375 
Q 16.0625 -19.390625 12.109375 -17.921875 
L 12.109375 -9.1875 
Q 16.0625 -11.328125 19.921875 -12.34375 
Q 23.78125 -13.375 27.78125 -13.375 
Q 36.625 -13.375 41.015625 -8.765625 
Q 45.40625 -4.15625 45.40625 5.171875 
L 45.40625 9.625 
Q 42.625 4.78125 38.28125 2.390625 
Q 33.9375 0 27.875 0 
Q 17.828125 0 11.671875 7.65625 
Q 5.515625 15.328125 5.515625 27.984375 
Q 5.515625 40.671875 11.671875 48.328125 
Q 17.828125 56 27.875 56 
Q 33.9375 56 38.28125 53.609375 
Q 42.625 51.21875 45.40625 46.390625 
L 45.40625 54.6875 
L 54.390625 54.6875 
z
" id="DejaVuSans-103"/>
      <path d="M 19.671875 64.796875 
L 19.671875 37.40625 
L 32.078125 37.40625 
Q 38.96875 37.40625 42.71875 40.96875 
Q 46.484375 44.53125 46.484375 51.125 
Q 46.484375 57.671875 42.71875 61.234375 
Q 38.96875 64.796875 32.078125 64.796875 
z
M 9.8125 72.90625 
L 32.078125 72.90625 
Q 44.34375 72.90625 50.609375 67.359375 
Q 56.890625 61.8125 56.890625 51.125 
Q 56.890625 40.328125 50.609375 34.8125 
Q 44.34375 29.296875 32.078125 29.296875 
L 19.671875 29.296875 
L 19.671875 0 
L 9.8125 0 
z
" id="DejaVuSans-80"/>
      <path d="M 18.3125 70.21875 
L 18.3125 54.6875 
L 36.8125 54.6875 
L 36.8125 47.703125 
L 18.3125 47.703125 
L 18.3125 18.015625 
Q 18.3125 11.328125 20.140625 9.421875 
Q 21.96875 7.515625 27.59375 7.515625 
L 36.8125 7.515625 
L 36.8125 0 
L 27.59375 0 
Q 17.1875 0 13.234375 3.875 
Q 9.28125 7.765625 9.28125 18.015625 
L 9.28125 47.703125 
L 2.6875 47.703125 
L 2.6875 54.6875 
L 9.28125 54.6875 
L 9.28125 70.21875 
z
" id="DejaVuSans-116"/>
      <path d="M 56.203125 29.59375 
L 56.203125 25.203125 
L 14.890625 25.203125 
Q 15.484375 15.921875 20.484375 11.0625 
Q 25.484375 6.203125 34.421875 6.203125 
Q 39.59375 6.203125 44.453125 7.46875 
Q 49.3125 8.734375 54.109375 11.28125 
L 54.109375 2.78125 
Q 49.265625 0.734375 44.1875 -0.34375 
Q 39.109375 -1.421875 33.890625 -1.421875 
Q 20.796875 -1.421875 13.15625 6.1875 
Q 5.515625 13.8125 5.515625 26.8125 
Q 5.515625 40.234375 12.765625 48.109375 
Q 20.015625 56 32.328125 56 
Q 43.359375 56 49.78125 48.890625 
Q 56.203125 41.796875 56.203125 29.59375 
z
M 47.21875 32.234375 
Q 47.125 39.59375 43.09375 43.984375 
Q 39.0625 48.390625 32.421875 48.390625 
Q 24.90625 48.390625 20.390625 44.140625 
Q 15.875 39.890625 15.1875 32.171875 
z
" id="DejaVuSans-101"/>
      <path d="M 31 75.875 
Q 24.46875 64.65625 21.28125 53.65625 
Q 18.109375 42.671875 18.109375 31.390625 
Q 18.109375 20.125 21.3125 9.0625 
Q 24.515625 -2 31 -13.1875 
L 23.1875 -13.1875 
Q 15.875 -1.703125 12.234375 9.375 
Q 8.59375 20.453125 8.59375 31.390625 
Q 8.59375 42.28125 12.203125 53.3125 
Q 15.828125 64.359375 23.1875 75.875 
z
" id="DejaVuSans-40"/>
      <path d="M 9.078125 75.984375 
L 18.109375 75.984375 
L 18.109375 31.109375 
L 44.921875 54.6875 
L 56.390625 54.6875 
L 27.390625 29.109375 
L 57.625 0 
L 45.90625 0 
L 18.109375 26.703125 
L 18.109375 0 
L 9.078125 0 
z
" id="DejaVuSans-107"/>
      <path d="M 64.40625 67.28125 
L 64.40625 56.890625 
Q 59.421875 61.53125 53.78125 63.8125 
Q 48.140625 66.109375 41.796875 66.109375 
Q 29.296875 66.109375 22.65625 58.46875 
Q 16.015625 50.828125 16.015625 36.375 
Q 16.015625 21.96875 22.65625 14.328125 
Q 29.296875 6.6875 41.796875 6.6875 
Q 48.140625 6.6875 53.78125 8.984375 
Q 59.421875 11.28125 64.40625 15.921875 
L 64.40625 5.609375 
Q 59.234375 2.09375 53.4375 0.328125 
Q 47.65625 -1.421875 41.21875 -1.421875 
Q 24.65625 -1.421875 15.125 8.703125 
Q 5.609375 18.84375 5.609375 36.375 
Q 5.609375 53.953125 15.125 64.078125 
Q 24.65625 74.21875 41.21875 74.21875 
Q 47.75 74.21875 53.53125 72.484375 
Q 59.328125 70.75 64.40625 67.28125 
z
" id="DejaVuSans-67"/>
      <path d="M 39.40625 66.21875 
Q 28.65625 66.21875 22.328125 58.203125 
Q 16.015625 50.203125 16.015625 36.375 
Q 16.015625 22.609375 22.328125 14.59375 
Q 28.65625 6.59375 39.40625 6.59375 
Q 50.140625 6.59375 56.421875 14.59375 
Q 62.703125 22.609375 62.703125 36.375 
Q 62.703125 50.203125 56.421875 58.203125 
Q 50.140625 66.21875 39.40625 66.21875 
z
M 39.40625 74.21875 
Q 54.734375 74.21875 63.90625 63.9375 
Q 73.09375 53.65625 73.09375 36.375 
Q 73.09375 19.140625 63.90625 8.859375 
Q 54.734375 -1.421875 39.40625 -1.421875 
Q 24.03125 -1.421875 14.8125 8.828125 
Q 5.609375 19.09375 5.609375 36.375 
Q 5.609375 53.65625 14.8125 63.9375 
Q 24.03125 74.21875 39.40625 74.21875 
z
" id="DejaVuSans-79"/>
      <path d="M 14.796875 27.296875 
Q 14.796875 17.390625 18.875 11.75 
Q 22.953125 6.109375 30.078125 6.109375 
Q 37.203125 6.109375 41.296875 11.75 
Q 45.40625 17.390625 45.40625 27.296875 
Q 45.40625 37.203125 41.296875 42.84375 
Q 37.203125 48.484375 30.078125 48.484375 
Q 22.953125 48.484375 18.875 42.84375 
Q 14.796875 37.203125 14.796875 27.296875 
z
M 45.40625 8.203125 
Q 42.578125 3.328125 38.25 0.953125 
Q 33.9375 -1.421875 27.875 -1.421875 
Q 17.96875 -1.421875 11.734375 6.484375 
Q 5.515625 14.40625 5.515625 27.296875 
Q 5.515625 40.1875 11.734375 48.09375 
Q 17.96875 56 27.875 56 
Q 33.9375 56 38.25 53.625 
Q 42.578125 51.265625 45.40625 46.390625 
L 45.40625 54.6875 
L 54.390625 54.6875 
L 54.390625 -20.796875 
L 45.40625 -20.796875 
z
" id="DejaVuSans-113"/>
      <path d="M 25.390625 72.90625 
L 33.6875 72.90625 
L 8.296875 -9.28125 
L 0 -9.28125 
z
" id="DejaVuSans-47"/>
      <path d="M 54.890625 33.015625 
L 54.890625 0 
L 45.90625 0 
L 45.90625 32.71875 
Q 45.90625 40.484375 42.875 44.328125 
Q 39.84375 48.1875 33.796875 48.1875 
Q 26.515625 48.1875 22.3125 43.546875 
Q 18.109375 38.921875 18.109375 30.90625 
L 18.109375 0 
L 9.078125 0 
L 9.078125 75.984375 
L 18.109375 75.984375 
L 18.109375 46.1875 
Q 21.34375 51.125 25.703125 53.5625 
Q 30.078125 56 35.796875 56 
Q 45.21875 56 50.046875 50.171875 
Q 54.890625 44.34375 54.890625 33.015625 
z
" id="DejaVuSans-104"/>
      <path d="M 8.5 21.578125 
L 8.5 54.6875 
L 17.484375 54.6875 
L 17.484375 21.921875 
Q 17.484375 14.15625 20.5 10.265625 
Q 23.53125 6.390625 29.59375 6.390625 
Q 36.859375 6.390625 41.078125 11.03125 
Q 45.3125 15.671875 45.3125 23.6875 
L 45.3125 54.6875 
L 54.296875 54.6875 
L 54.296875 0 
L 45.3125 0 
L 45.3125 8.40625 
Q 42.046875 3.421875 37.71875 1 
Q 33.40625 -1.421875 27.6875 -1.421875 
Q 18.265625 -1.421875 13.375 4.4375 
Q 8.5 10.296875 8.5 21.578125 
z
M 31.109375 56 
z
" id="DejaVuSans-117"/>
      <path d="M 44.28125 53.078125 
L 44.28125 44.578125 
Q 40.484375 46.53125 36.375 47.5 
Q 32.28125 48.484375 27.875 48.484375 
Q 21.1875 48.484375 17.84375 46.4375 
Q 14.5 44.390625 14.5 40.28125 
Q 14.5 37.15625 16.890625 35.375 
Q 19.28125 33.59375 26.515625 31.984375 
L 29.59375 31.296875 
Q 39.15625 29.25 43.1875 25.515625 
Q 47.21875 21.78125 47.21875 15.09375 
Q 47.21875 7.46875 41.1875 3.015625 
Q 35.15625 -1.421875 24.609375 -1.421875 
Q 20.21875 -1.421875 15.453125 -0.5625 
Q 10.6875 0.296875 5.421875 2 
L 5.421875 11.28125 
Q 10.40625 8.6875 15.234375 7.390625 
Q 20.0625 6.109375 24.8125 6.109375 
Q 31.15625 6.109375 34.5625 8.28125 
Q 37.984375 10.453125 37.984375 14.40625 
Q 37.984375 18.0625 35.515625 20.015625 
Q 33.0625 21.96875 24.703125 23.78125 
L 21.578125 24.515625 
Q 13.234375 26.265625 9.515625 29.90625 
Q 5.8125 33.546875 5.8125 39.890625 
Q 5.8125 47.609375 11.28125 51.796875 
Q 16.75 56 26.8125 56 
Q 31.78125 56 36.171875 55.265625 
Q 40.578125 54.546875 44.28125 53.078125 
z
" id="DejaVuSans-115"/>
      <path d="M 4.890625 31.390625 
L 31.203125 31.390625 
L 31.203125 23.390625 
L 4.890625 23.390625 
z
" id="DejaVuSans-45"/>
      <path d="M 32.171875 -5.078125 
Q 28.375 -14.84375 24.75 -17.8125 
Q 21.140625 -20.796875 15.09375 -20.796875 
L 7.90625 -20.796875 
L 7.90625 -13.28125 
L 13.1875 -13.28125 
Q 16.890625 -13.28125 18.9375 -11.515625 
Q 21 -9.765625 23.484375 -3.21875 
L 25.09375 0.875 
L 2.984375 54.6875 
L 12.5 54.6875 
L 29.59375 11.921875 
L 46.6875 54.6875 
L 56.203125 54.6875 
z
" id="DejaVuSans-121"/>
      <path d="M 8.015625 75.875 
L 15.828125 75.875 
Q 23.140625 64.359375 26.78125 53.3125 
Q 30.421875 42.28125 30.421875 31.390625 
Q 30.421875 20.453125 26.78125 9.375 
Q 23.140625 -1.703125 15.828125 -13.1875 
L 8.015625 -13.1875 
Q 14.5 -2 17.703125 9.0625 
Q 20.90625 20.125 20.90625 31.390625 
Q 20.90625 42.671875 17.703125 53.65625 
Q 14.5 64.65625 8.015625 75.875 
z
" id="DejaVuSans-41"/>
     </defs>
     <g transform="translate(120.958437 335.860562)scale(0.1 -0.1)">
      <use xlink:href="#DejaVuSans-71"/>
      <use x="77.490234" xlink:href="#DejaVuSans-108"/>
      <use x="105.273438" xlink:href="#DejaVuSans-111"/>
      <use x="166.455078" xlink:href="#DejaVuSans-98"/>
      <use x="229.931641" xlink:href="#DejaVuSans-97"/>
      <use x="291.210938" xlink:href="#DejaVuSans-108"/>
      <use x="318.994141" xlink:href="#DejaVuSans-32"/>
      <use x="350.78125" xlink:href="#DejaVuSans-87"/>
      <use x="443.283203" xlink:href="#DejaVuSans-97"/>
      <use x="504.5625" xlink:href="#DejaVuSans-114"/>
      <use x="543.925781" xlink:href="#DejaVuSans-109"/>
      <use x="641.337891" xlink:href="#DejaVuSans-105"/>
      <use x="669.121094" xlink:href="#DejaVuSans-110"/>
      <use x="732.5" xlink:href="#DejaVuSans-103"/>
      <use x="795.976562" xlink:href="#DejaVuSans-32"/>
      <use x="827.763672" xlink:href="#DejaVuSans-80"/>
      <use x="884.441406" xlink:href="#DejaVuSans-111"/>
      <use x="945.623047" xlink:href="#DejaVuSans-116"/>
      <use x="984.832031" xlink:href="#DejaVuSans-101"/>
      <use x="1046.355469" xlink:href="#DejaVuSans-110"/>
      <use x="1109.734375" xlink:href="#DejaVuSans-116"/>
      <use x="1148.943359" xlink:href="#DejaVuSans-105"/>
      <use x="1176.726562" xlink:href="#DejaVuSans-97"/>
      <use x="1238.005859" xlink:href="#DejaVuSans-108"/>
      <use x="1265.789062" xlink:href="#DejaVuSans-32"/>
      <use x="1297.576172" xlink:href="#DejaVuSans-40"/>
      <use x="1336.589844" xlink:href="#DejaVuSans-107"/>
      <use x="1394.5" xlink:href="#DejaVuSans-103"/>
      <use x="1457.976562" xlink:href="#DejaVuSans-67"/>
      <use x="1527.800781" xlink:href="#DejaVuSans-79"/>
      <use x="1606.511719" xlink:href="#DejaVuSans-50"/>
      <use x="1670.134766" xlink:href="#DejaVuSans-101"/>
      <use x="1731.658203" xlink:href="#DejaVuSans-113"/>
      <use x="1795.134766" xlink:href="#DejaVuSans-47"/>
      <use x="1828.826172" xlink:href="#DejaVuSans-104"/>
      <use x="1892.205078" xlink:href="#DejaVuSans-111"/>
      <use x="1953.386719" xlink:href="#DejaVuSans-117"/>
      <use x="2016.765625" xlink:href="#DejaVuSans-115"/>
      <use x="2068.865234" xlink:href="#DejaVuSans-101"/>
      <use x="2130.388672" xlink:href="#DejaVuSans-45"/>
      <use x="2164.722656" xlink:href="#DejaVuSans-121"/>
      <use x="2223.902344" xlink:href="#DejaVuSans-114"/>
      <use x="2265.015625" xlink:href="#DejaVuSans-41"/>
     </g>
    </g>
   </g>
   <g id="matplotlib.axis_2">
    <g id="ytick_1">
     <g id="line2d_10">
      <defs>
       <path d="M 0 0 
L -3.5 0 
" id="m09749b7e73" style="stroke:#000000;stroke-width:0.8;"/>
      </defs>
      <g>
       <use style="stroke:#000000;stroke-width:0.8;" x="57.6" xlink:href="#m09749b7e73" y="295.488"/>
      </g>
     </g>
     <g id="text_11">
      <!-- 0.00 -->
      <g transform="translate(28.334375 299.287219)scale(0.1 -0.1)">
       <use xlink:href="#DejaVuSans-48"/>
       <use x="63.623047" xlink:href="#DejaVuSans-46"/>
       <use x="95.410156" xlink:href="#DejaVuSans-48"/>
       <use x="159.033203" xlink:href="#DejaVuSans-48"/>
      </g>
     </g>
    </g>
    <g id="ytick_2">
     <g id="line2d_11">
      <g>
       <use style="stroke:#000000;stroke-width:0.8;" x="57.6" xlink:href="#m09749b7e73" y="265.248"/>
      </g>
     </g>
     <g id="text_12">
      <!-- 0.25 -->
      <g transform="translate(28.334375 269.047219)scale(0.1 -0.1)">
       <use xlink:href="#DejaVuSans-48"/>
       <use x="63.623047" xlink:href="#DejaVuSans-46"/>
       <use x="95.410156" xlink:href="#DejaVuSans-50"/>
       <use x="159.033203" xlink:href="#DejaVuSans-53"/>
      </g>
     </g>
    </g>
    <g id="ytick_3">
     <g id="line2d_12">
      <g>
       <use style="stroke:#000000;stroke-width:0.8;" x="57.6" xlink:href="#m09749b7e73" y="235.008"/>
      </g>
     </g>
     <g id="text_13">
      <!-- 0.50 -->
      <g transform="translate(28.334375 238.807219)scale(0.1 -0.1)">
       <use xlink:href="#DejaVuSans-48"/>
       <use x="63.623047" xlink:href="#DejaVuSans-46"/>
       <use x="95.410156" xlink:href="#DejaVuSans-53"/>
       <use x="159.033203" xlink:href="#DejaVuSans-48"/>
      </g>
     </g>
    </g>
    <g id="ytick_4">
     <g id="line2d_13">
      <g>
       <use style="stroke:#000000;stroke-width:0.8;" x="57.6" xlink:href="#m09749b7e73" y="204.768"/>
      </g>
     </g>
     <g id="text_14">
      <!-- 0.75 -->
      <g transform="translate(28.334375 208.567219)scale(0.1 -0.1)">
       <use xlink:href="#DejaVuSans-48"/>
       <use x="63.623047" xlink:href="#DejaVuSans-46"/>
       <use x="95.410156" xlink:href="#DejaVuSans-55"/>
       <use x="159.033203" xlink:href="#DejaVuSans-53"/>
      </g>
     </g>
    </g>
    <g id="ytick_5">
     <g id="line2d_14">
      <g>
       <use style="stroke:#000000;stroke-width:0.8;" x="57.6" xlink:href="#m09749b7e73" y="174.528"/>
      </g>
     </g>
     <g id="text_15">
      <!-- 1.00 -->
      <g transform="translate(28.334375 178.327219)scale(0.1 -0.1)">
       <use xlink:href="#DejaVuSans-49"/>
       <use x="63.623047" xlink:href="#DejaVuSans-46"/>
       <use x="95.410156" xlink:href="#DejaVuSans-48"/>
       <use x="159.033203" xlink:href="#DejaVuSans-48"/>
      </g>
     </g>
    </g>
    <g id="ytick_6">
     <g id="line2d_15">
      <g>
       <use style="stroke:#000000;stroke-width:0.8;" x="57.6" xlink:href="#m09749b7e73" y="144.288"/>
      </g>
     </g>
     <g id="text_16">
      <!-- 1.25 -->
      <g transform="translate(28.334375 148.087219)scale(0.1 -0.1)">
       <use xlink:href="#DejaVuSans-49"/>
       <use x="63.623047" xlink:href="#DejaVuSans-46"/>
       <use x="95.410156" xlink:href="#DejaVuSans-50"/>
       <use x="159.033203" xlink:href="#DejaVuSans-53"/>
      </g>
     </g>
    </g>
    <g id="ytick_7">
     <g id="line2d_16">
      <g>
       <use style="stroke:#000000;stroke-width:0.8;" x="57.6" xlink:href="#m09749b7e73" y="114.048"/>
      </g>
     </g>
     <g id="text_17">
      <!-- 1.50 -->
      <g transform="translate(28.334375 117.847219)scale(0.1 -0.1)">
       <use xlink:href="#DejaVuSans-49"/>
       <use x="63.623047" xlink:href="#DejaVuSans-46"/>
       <use x="95.410156" xlink:href="#DejaVuSans-53"/>
       <use x="159.033203" xlink:href="#DejaVuSans-48"/>
      </g>
     </g>
    </g>
    <g id="ytick_8">
     <g id="line2d_17">
      <g>
       <use style="stroke:#000000;stroke-width:0.8;" x="57.6" xlink:href="#m09749b7e73" y="83.808"/>
      </g>
     </g>
     <g id="text_18">
      <!-- 1.75 -->
      <g transform="translate(28.334375 87.607219)scale(0.1 -0.1)">
       <use xlink:href="#DejaVuSans-49"/>
       <use x="63.623047" xlink:href="#DejaVuSans-46"/>
       <use x="95.410156" xlink:href="#DejaVuSans-55"/>
       <use x="159.033203" xlink:href="#DejaVuSans-53"/>
      </g>
     </g>
    </g>
    <g id="ytick_9">
     <g id="line2d_18">
      <g>
       <use style="stroke:#000000;stroke-width:0.8;" x="57.6" xlink:href="#m09749b7e73" y="53.568"/>
      </g>
     </g>
     <g id="text_19">
      <!-- 2.00 -->
      <g transform="translate(28.334375 57.367219)scale(0.1 -0.1)">
       <use xlink:href="#DejaVuSans-50"/>
       <use x="63.623047" xlink:href="#DejaVuSans-46"/>
       <use x="95.410156" xlink:href="#DejaVuSans-48"/>
       <use x="159.033203" xlink:href="#DejaVuSans-48"/>
      </g>
     </g>
    </g>
    <g id="text_20">
     <!-- Circularity -->
     <defs>
      <path d="M 48.78125 52.59375 
L 48.78125 44.1875 
Q 44.96875 46.296875 41.140625 47.34375 
Q 37.3125 48.390625 33.40625 48.390625 
Q 24.65625 48.390625 19.8125 42.84375 
Q 14.984375 37.3125 14.984375 27.296875 
Q 14.984375 17.28125 19.8125 11.734375 
Q 24.65625 6.203125 33.40625 6.203125 
Q 37.3125 6.203125 41.140625 7.25 
Q 44.96875 8.296875 48.78125 10.40625 
L 48.78125 2.09375 
Q 45.015625 0.34375 40.984375 -0.53125 
Q 36.96875 -1.421875 32.421875 -1.421875 
Q 20.0625 -1.421875 12.78125 6.34375 
Q 5.515625 14.109375 5.515625 27.296875 
Q 5.515625 40.671875 12.859375 48.328125 
Q 20.21875 56 33.015625 56 
Q 37.15625 56 41.109375 55.140625 
Q 45.0625 54.296875 48.78125 52.59375 
z
" id="DejaVuSans-99"/>
     </defs>
     <g transform="translate(11.056875 200.086594)rotate(-90)scale(0.1 -0.1)">
      <use xlink:href="#DejaVuSans-67"/>
      <use x="69.824219" xlink:href="#DejaVuSans-105"/>
      <use x="97.607422" xlink:href="#DejaVuSans-114"/>
      <use x="136.470703" xlink:href="#DejaVuSans-99"/>
      <use x="191.451172" xlink:href="#DejaVuSans-117"/>
      <use x="254.830078" xlink:href="#DejaVuSans-108"/>
      <use x="282.613281" xlink:href="#DejaVuSans-97"/>
      <use x="343.892578" xlink:href="#DejaVuSans-114"/>
      <use x="385.005859" xlink:href="#DejaVuSans-105"/>
      <use x="412.789062" xlink:href="#DejaVuSans-116"/>
      <use x="451.998047" xlink:href="#DejaVuSans-121"/>
     </g>
     <!--  (Fraction of economic value regenerated) -->
     <defs>
      <path d="M 9.8125 72.90625 
L 51.703125 72.90625 
L 51.703125 64.59375 
L 19.671875 64.59375 
L 19.671875 43.109375 
L 48.578125 43.109375 
L 48.578125 34.8125 
L 19.671875 34.8125 
L 19.671875 0 
L 9.8125 0 
z
" id="DejaVuSans-70"/>
      <path d="M 37.109375 75.984375 
L 37.109375 68.5 
L 28.515625 68.5 
Q 23.6875 68.5 21.796875 66.546875 
Q 19.921875 64.59375 19.921875 59.515625 
L 19.921875 54.6875 
L 34.71875 54.6875 
L 34.71875 47.703125 
L 19.921875 47.703125 
L 19.921875 0 
L 10.890625 0 
L 10.890625 47.703125 
L 2.296875 47.703125 
L 2.296875 54.6875 
L 10.890625 54.6875 
L 10.890625 58.5 
Q 10.890625 67.625 15.140625 71.796875 
Q 19.390625 75.984375 28.609375 75.984375 
z
" id="DejaVuSans-102"/>
      <path d="M 2.984375 54.6875 
L 12.5 54.6875 
L 29.59375 8.796875 
L 46.6875 54.6875 
L 56.203125 54.6875 
L 35.6875 0 
L 23.484375 0 
z
" id="DejaVuSans-118"/>
      <path d="M 45.40625 46.390625 
L 45.40625 75.984375 
L 54.390625 75.984375 
L 54.390625 0 
L 45.40625 0 
L 45.40625 8.203125 
Q 42.578125 3.328125 38.25 0.953125 
Q 33.9375 -1.421875 27.875 -1.421875 
Q 17.96875 -1.421875 11.734375 6.484375 
Q 5.515625 14.40625 5.515625 27.296875 
Q 5.515625 40.1875 11.734375 48.09375 
Q 17.96875 56 27.875 56 
Q 33.9375 56 38.25 53.625 
Q 42.578125 51.265625 45.40625 46.390625 
z
M 14.796875 27.296875 
Q 14.796875 17.390625 18.875 11.75 
Q 22.953125 6.109375 30.078125 6.109375 
Q 37.203125 6.109375 41.296875 11.75 
Q 45.40625 17.390625 45.40625 27.296875 
Q 45.40625 37.203125 41.296875 42.84375 
Q 37.203125 48.484375 30.078125 48.484375 
Q 22.953125 48.484375 18.875 42.84375 
Q 14.796875 37.203125 14.796875 27.296875 
z
" id="DejaVuSans-100"/>
     </defs>
     <g transform="translate(22.254687 279.779562)rotate(-90)scale(0.1 -0.1)">
      <use xlink:href="#DejaVuSans-32"/>
      <use x="31.787109" xlink:href="#DejaVuSans-40"/>
      <use x="70.800781" xlink:href="#DejaVuSans-70"/>
      <use x="121.070312" xlink:href="#DejaVuSans-114"/>
      <use x="162.183594" xlink:href="#DejaVuSans-97"/>
      <use x="223.462891" xlink:href="#DejaVuSans-99"/>
      <use x="278.443359" xlink:href="#DejaVuSans-116"/>
      <use x="317.652344" xlink:href="#DejaVuSans-105"/>
      <use x="345.435547" xlink:href="#DejaVuSans-111"/>
      <use x="406.617188" xlink:href="#DejaVuSans-110"/>
      <use x="469.996094" xlink:href="#DejaVuSans-32"/>
      <use x="501.783203" xlink:href="#DejaVuSans-111"/>
      <use x="562.964844" xlink:href="#DejaVuSans-102"/>
      <use x="598.169922" xlink:href="#DejaVuSans-32"/>
      <use x="629.957031" xlink:href="#DejaVuSans-101"/>
      <use x="691.480469" xlink:href="#DejaVuSans-99"/>
      <use x="746.460938" xlink:href="#DejaVuSans-111"/>
      <use x="807.642578" xlink:href="#DejaVuSans-110"/>
      <use x="871.021484" xlink:href="#DejaVuSans-111"/>
      <use x="932.203125" xlink:href="#DejaVuSans-109"/>
      <use x="1029.615234" xlink:href="#DejaVuSans-105"/>
      <use x="1057.398438" xlink:href="#DejaVuSans-99"/>
      <use x="1112.378906" xlink:href="#DejaVuSans-32"/>
      <use x="1144.166016" xlink:href="#DejaVuSans-118"/>
      <use x="1203.345703" xlink:href="#DejaVuSans-97"/>
      <use x="1264.625" xlink:href="#DejaVuSans-108"/>
      <use x="1292.408203" xlink:href="#DejaVuSans-117"/>
      <use x="1355.787109" xlink:href="#DejaVuSans-101"/>
      <use x="1417.310547" xlink:href="#DejaVuSans-32"/>
      <use x="1449.097656" xlink:href="#DejaVuSans-114"/>
      <use x="1487.960938" xlink:href="#DejaVuSans-101"/>
      <use x="1549.484375" xlink:href="#DejaVuSans-103"/>
      <use x="1612.960938" xlink:href="#DejaVuSans-101"/>
      <use x="1674.484375" xlink:href="#DejaVuSans-110"/>
      <use x="1737.863281" xlink:href="#DejaVuSans-101"/>
      <use x="1799.386719" xlink:href="#DejaVuSans-114"/>
      <use x="1840.5" xlink:href="#DejaVuSans-97"/>
      <use x="1901.779297" xlink:href="#DejaVuSans-116"/>
      <use x="1940.988281" xlink:href="#DejaVuSans-101"/>
      <use x="2002.511719" xlink:href="#DejaVuSans-100"/>
      <use x="2065.988281" xlink:href="#DejaVuSans-41"/>
     </g>
    </g>
   </g>
   <g id="LineCollection_1">
    <path clip-path="url(#p767613c227)" d="M 142.628571 295.488 
L 142.628571 53.568 
" style="fill:none;stroke:#ff0000;stroke-dasharray:5.55,2.4;stroke-dashoffset:0;stroke-opacity:0.7;stroke-width:1.5;"/>
   </g>
   <g id="patch_3">
    <path d="M 57.6 307.584 
L 57.6 41.472 
" style="fill:none;stroke:#000000;stroke-linecap:square;stroke-linejoin:miter;stroke-width:0.8;"/>
   </g>
   <g id="patch_4">
    <path d="M 414.72 307.584 
L 414.72 41.472 
" style="fill:none;stroke:#000000;stroke-linecap:square;stroke-linejoin:miter;stroke-width:0.8;"/>
   </g>
   <g id="patch_5">
    <path d="M 57.6 307.584 
L 414.72 307.584 
" style="fill:none;stroke:#000000;stroke-linecap:square;stroke-linejoin:miter;stroke-width:0.8;"/>
   </g>
   <g id="patch_6">
    <path d="M 57.6 41.472 
L 414.72 41.472 
" style="fill:none;stroke:#000000;stroke-linecap:square;stroke-linejoin:miter;stroke-width:0.8;"/>
   </g>
   <g id="patch_7">
    <path d="M 206.666791 59.835162 
Q 153.911883 64.477799 145.728413 65.314187 
" style="fill:none;stroke:#000000;stroke-linecap:round;"/>
    <path d="M 149.911033 66.897123 
L 145.728413 65.314187 
L 149.504334 62.917852 
" style="fill:none;stroke:#000000;stroke-linecap:round;"/>
   </g>
   <g id="text_21">
    <!-- Net-zero -->
    <defs>
     <path d="M 9.8125 72.90625 
L 23.09375 72.90625 
L 55.421875 11.921875 
L 55.421875 72.90625 
L 64.984375 72.90625 
L 64.984375 0 
L 51.703125 0 
L 19.390625 60.984375 
L 19.390625 0 
L 9.8125 0 
z
" id="DejaVuSans-78"/>
     <path d="M 5.515625 54.6875 
L 48.1875 54.6875 
L 48.1875 46.484375 
L 14.40625 7.171875 
L 48.1875 7.171875 
L 48.1875 0 
L 4.296875 0 
L 4.296875 8.203125 
L 38.09375 47.515625 
L 5.515625 47.515625 
z
" id="DejaVuSans-122"/>
    </defs>
    <g transform="translate(210.651429 54.466188)scale(0.1 -0.1)">
     <use xlink:href="#DejaVuSans-78"/>
     <use x="74.804688" xlink:href="#DejaVuSans-101"/>
     <use x="136.328125" xlink:href="#DejaVuSans-116"/>
     <use x="175.537109" xlink:href="#DejaVuSans-45"/>
     <use x="211.621094" xlink:href="#DejaVuSans-122"/>
     <use x="264.111328" xlink:href="#DejaVuSans-101"/>
     <use x="325.634766" xlink:href="#DejaVuSans-114"/>
     <use x="364.498047" xlink:href="#DejaVuSans-111"/>
    </g>
    <!-- Emissions -->
    <defs>
     <path d="M 9.8125 72.90625 
L 55.90625 72.90625 
L 55.90625 64.59375 
L 19.671875 64.59375 
L 19.671875 43.015625 
L 54.390625 43.015625 
L 54.390625 34.71875 
L 19.671875 34.71875 
L 19.671875 8.296875 
L 56.78125 8.296875 
L 56.78125 0 
L 9.8125 0 
z
" id="DejaVuSans-69"/>
    </defs>
    <g transform="translate(210.651429 65.664)scale(0.1 -0.1)">
     <use xlink:href="#DejaVuSans-69"/>
     <use x="63.183594" xlink:href="#DejaVuSans-109"/>
     <use x="160.595703" xlink:href="#DejaVuSans-105"/>
     <use x="188.378906" xlink:href="#DejaVuSans-115"/>
     <use x="240.478516" xlink:href="#DejaVuSans-115"/>
     <use x="292.578125" xlink:href="#DejaVuSans-105"/>
     <use x="320.361328" xlink:href="#DejaVuSans-111"/>
     <use x="381.542969" xlink:href="#DejaVuSans-110"/>
     <use x="444.921875" xlink:href="#DejaVuSans-115"/>
    </g>
   </g>
   <g id="legend_1">
    <g id="patch_8">
     <path d="M 342.566875 134.060438 
L 407.72 134.060438 
Q 409.72 134.060438 409.72 132.060438 
L 409.72 48.472 
Q 409.72 46.472 407.72 46.472 
L 342.566875 46.472 
Q 340.566875 46.472 340.566875 48.472 
L 340.566875 132.060438 
Q 340.566875 134.060438 342.566875 134.060438 
z
" style="fill:#ffffff;opacity:0.8;stroke:#cccccc;stroke-linejoin:miter;"/>
    </g>
    <g id="text_22">
     <!-- LCC -->
     <defs>
      <path d="M 9.8125 72.90625 
L 19.671875 72.90625 
L 19.671875 8.296875 
L 55.171875 8.296875 
L 55.171875 0 
L 9.8125 0 
z
" id="DejaVuSans-76"/>
     </defs>
     <g transform="translate(344.566875 58.070438)scale(0.1 -0.1)">
      <use xlink:href="#DejaVuSans-76"/>
      <use x="55.712891" xlink:href="#DejaVuSans-67"/>
      <use x="125.537109" xlink:href="#DejaVuSans-67"/>
     </g>
     <!-- ($/house-yr) -->
     <defs>
      <path d="M 33.796875 -14.703125 
L 28.90625 -14.703125 
L 28.859375 0 
Q 23.734375 0.09375 18.609375 1.1875 
Q 13.484375 2.296875 8.296875 4.5 
L 8.296875 13.28125 
Q 13.28125 10.15625 18.375 8.5625 
Q 23.484375 6.984375 28.90625 6.9375 
L 28.90625 29.203125 
Q 18.109375 30.953125 13.203125 35.15625 
Q 8.296875 39.359375 8.296875 46.6875 
Q 8.296875 54.640625 13.625 59.21875 
Q 18.953125 63.8125 28.90625 64.5 
L 28.90625 75.984375 
L 33.796875 75.984375 
L 33.796875 64.65625 
Q 38.328125 64.453125 42.578125 63.6875 
Q 46.828125 62.9375 50.875 61.625 
L 50.875 53.078125 
Q 46.828125 55.125 42.546875 56.25 
Q 38.28125 57.375 33.796875 57.5625 
L 33.796875 36.71875 
Q 44.875 35.015625 50.09375 30.609375 
Q 55.328125 26.21875 55.328125 18.609375 
Q 55.328125 10.359375 49.78125 5.59375 
Q 44.234375 0.828125 33.796875 0.09375 
z
M 28.90625 37.59375 
L 28.90625 57.625 
Q 23.25 56.984375 20.265625 54.390625 
Q 17.28125 51.8125 17.28125 47.515625 
Q 17.28125 43.3125 20.03125 40.96875 
Q 22.796875 38.625 28.90625 37.59375 
z
M 33.796875 28.21875 
L 33.796875 7.078125 
Q 39.984375 7.90625 43.140625 10.59375 
Q 46.296875 13.28125 46.296875 17.671875 
Q 46.296875 21.96875 43.28125 24.5 
Q 40.28125 27.046875 33.796875 28.21875 
z
" id="DejaVuSans-36"/>
     </defs>
     <g transform="translate(344.566875 69.26825)scale(0.1 -0.1)">
      <use xlink:href="#DejaVuSans-40"/>
      <use x="39.013672" xlink:href="#DejaVuSans-36"/>
      <use x="102.636719" xlink:href="#DejaVuSans-47"/>
      <use x="136.328125" xlink:href="#DejaVuSans-104"/>
      <use x="199.707031" xlink:href="#DejaVuSans-111"/>
      <use x="260.888672" xlink:href="#DejaVuSans-117"/>
      <use x="324.267578" xlink:href="#DejaVuSans-115"/>
      <use x="376.367188" xlink:href="#DejaVuSans-101"/>
      <use x="437.890625" xlink:href="#DejaVuSans-45"/>
      <use x="472.224609" xlink:href="#DejaVuSans-121"/>
      <use x="531.404297" xlink:href="#DejaVuSans-114"/>
      <use x="572.517578" xlink:href="#DejaVuSans-41"/>
     </g>
    </g>
    <g id="line2d_19"/>
    <g id="line2d_20">
     <defs>
      <path d="M 0 3 
C 0.795609 3 1.55874 2.683901 2.12132 2.12132 
C 2.683901 1.55874 3 0.795609 3 0 
C 3 -0.795609 2.683901 -1.55874 2.12132 -2.12132 
C 1.55874 -2.683901 0.795609 -3 0 -3 
C -0.795609 -3 -1.55874 -2.683901 -2.12132 -2.12132 
C -2.683901 -1.55874 -3 -0.795609 -3 0 
C -3 0.795609 -2.683901 1.55874 -2.12132 2.12132 
C -1.55874 2.683901 -0.795609 3 0 3 
z
" id="m3a13ec81bc" style="stroke:#db4b02;stroke-opacity:0.7;"/>
     </defs>
     <g>
      <use style="fill:#db4b02;fill-opacity:0.7;stroke:#db4b02;stroke-opacity:0.7;" x="363.143438" xlink:href="#m3a13ec81bc" y="80.446375"/>
     </g>
    </g>
    <g id="text_23">
     <!-- $\mathdefault{0.8}$ -->
     <defs>
      <path d="M 31.78125 34.625 
Q 24.75 34.625 20.71875 30.859375 
Q 16.703125 27.09375 16.703125 20.515625 
Q 16.703125 13.921875 20.71875 10.15625 
Q 24.75 6.390625 31.78125 6.390625 
Q 38.8125 6.390625 42.859375 10.171875 
Q 46.921875 13.96875 46.921875 20.515625 
Q 46.921875 27.09375 42.890625 30.859375 
Q 38.875 34.625 31.78125 34.625 
z
M 21.921875 38.8125 
Q 15.578125 40.375 12.03125 44.71875 
Q 8.5 49.078125 8.5 55.328125 
Q 8.5 64.0625 14.71875 69.140625 
Q 20.953125 74.21875 31.78125 74.21875 
Q 42.671875 74.21875 48.875 69.140625 
Q 55.078125 64.0625 55.078125 55.328125 
Q 55.078125 49.078125 51.53125 44.71875 
Q 48 40.375 41.703125 38.8125 
Q 48.828125 37.15625 52.796875 32.3125 
Q 56.78125 27.484375 56.78125 20.515625 
Q 56.78125 9.90625 50.3125 4.234375 
Q 43.84375 -1.421875 31.78125 -1.421875 
Q 19.734375 -1.421875 13.25 4.234375 
Q 6.78125 9.90625 6.78125 20.515625 
Q 6.78125 27.484375 10.78125 32.3125 
Q 14.796875 37.15625 21.921875 38.8125 
z
M 18.3125 54.390625 
Q 18.3125 48.734375 21.84375 45.5625 
Q 25.390625 42.390625 31.78125 42.390625 
Q 38.140625 42.390625 41.71875 45.5625 
Q 45.3125 48.734375 45.3125 54.390625 
Q 45.3125 60.0625 41.71875 63.234375 
Q 38.140625 66.40625 31.78125 66.40625 
Q 25.390625 66.40625 21.84375 63.234375 
Q 18.3125 60.0625 18.3125 54.390625 
z
" id="DejaVuSans-56"/>
     </defs>
     <g transform="translate(381.143438 83.946375)scale(0.1 -0.1)">
      <use transform="translate(0 0.78125)" xlink:href="#DejaVuSans-48"/>
      <use transform="translate(63.623047 0.78125)" xlink:href="#DejaVuSans-46"/>
      <use transform="translate(92.785156 0.78125)" xlink:href="#DejaVuSans-56"/>
     </g>
    </g>
    <g id="line2d_21"/>
    <g id="line2d_22">
     <defs>
      <path d="M 0 3 
C 0.795609 3 1.55874 2.683901 2.12132 2.12132 
C 2.683901 1.55874 3 0.795609 3 0 
C 3 -0.795609 2.683901 -1.55874 2.12132 -2.12132 
C 1.55874 -2.683901 0.795609 -3 0 -3 
C -0.795609 -3 -1.55874 -2.683901 -2.12132 -2.12132 
C -2.683901 -1.55874 -3 -0.795609 -3 0 
C -3 0.795609 -2.683901 1.55874 -2.12132 2.12132 
C -1.55874 2.683901 -0.795609 3 0 3 
z
" id="m2d438a1d64" style="stroke:#fdd7af;stroke-opacity:0.7;"/>
     </defs>
     <g>
      <use style="fill:#fdd7af;fill-opacity:0.7;stroke:#fdd7af;stroke-opacity:0.7;" x="363.143438" xlink:href="#m2d438a1d64" y="95.1245"/>
     </g>
    </g>
    <g id="text_24">
     <!-- $\mathdefault{1.6}$ -->
     <defs>
      <path d="M 33.015625 40.375 
Q 26.375 40.375 22.484375 35.828125 
Q 18.609375 31.296875 18.609375 23.390625 
Q 18.609375 15.53125 22.484375 10.953125 
Q 26.375 6.390625 33.015625 6.390625 
Q 39.65625 6.390625 43.53125 10.953125 
Q 47.40625 15.53125 47.40625 23.390625 
Q 47.40625 31.296875 43.53125 35.828125 
Q 39.65625 40.375 33.015625 40.375 
z
M 52.59375 71.296875 
L 52.59375 62.3125 
Q 48.875 64.0625 45.09375 64.984375 
Q 41.3125 65.921875 37.59375 65.921875 
Q 27.828125 65.921875 22.671875 59.328125 
Q 17.53125 52.734375 16.796875 39.40625 
Q 19.671875 43.65625 24.015625 45.921875 
Q 28.375 48.1875 33.59375 48.1875 
Q 44.578125 48.1875 50.953125 41.515625 
Q 57.328125 34.859375 57.328125 23.390625 
Q 57.328125 12.15625 50.6875 5.359375 
Q 44.046875 -1.421875 33.015625 -1.421875 
Q 20.359375 -1.421875 13.671875 8.265625 
Q 6.984375 17.96875 6.984375 36.375 
Q 6.984375 53.65625 15.1875 63.9375 
Q 23.390625 74.21875 37.203125 74.21875 
Q 40.921875 74.21875 44.703125 73.484375 
Q 48.484375 72.75 52.59375 71.296875 
z
" id="DejaVuSans-54"/>
     </defs>
     <g transform="translate(381.143438 98.6245)scale(0.1 -0.1)">
      <use transform="translate(0 0.78125)" xlink:href="#DejaVuSans-49"/>
      <use transform="translate(63.623047 0.78125)" xlink:href="#DejaVuSans-46"/>
      <use transform="translate(95.410156 0.78125)" xlink:href="#DejaVuSans-54"/>
     </g>
    </g>
    <g id="line2d_23"/>
    <g id="line2d_24">
     <defs>
      <path d="M 0 3 
C 0.795609 3 1.55874 2.683901 2.12132 2.12132 
C 2.683901 1.55874 3 0.795609 3 0 
C 3 -0.795609 2.683901 -1.55874 2.12132 -2.12132 
C 1.55874 -2.683901 0.795609 -3 0 -3 
C -0.795609 -3 -1.55874 -2.683901 -2.12132 -2.12132 
C -2.683901 -1.55874 -3 -0.795609 -3 0 
C -3 0.795609 -2.683901 1.55874 -2.12132 2.12132 
C -1.55874 2.683901 -0.795609 3 0 3 
z
" id="m7b69931476" style="stroke:#b4d3e9;stroke-opacity:0.7;"/>
     </defs>
     <g>
      <use style="fill:#b4d3e9;fill-opacity:0.7;stroke:#b4d3e9;stroke-opacity:0.7;" x="363.143438" xlink:href="#m7b69931476" y="109.802625"/>
     </g>
    </g>
    <g id="text_25">
     <!-- $\mathdefault{2.4}$ -->
     <defs>
      <path d="M 37.796875 64.3125 
L 12.890625 25.390625 
L 37.796875 25.390625 
z
M 35.203125 72.90625 
L 47.609375 72.90625 
L 47.609375 25.390625 
L 58.015625 25.390625 
L 58.015625 17.1875 
L 47.609375 17.1875 
L 47.609375 0 
L 37.796875 0 
L 37.796875 17.1875 
L 4.890625 17.1875 
L 4.890625 26.703125 
z
" id="DejaVuSans-52"/>
     </defs>
     <g transform="translate(381.143438 113.302625)scale(0.1 -0.1)">
      <use transform="translate(0 0.78125)" xlink:href="#DejaVuSans-50"/>
      <use transform="translate(63.623047 0.78125)" xlink:href="#DejaVuSans-46"/>
      <use transform="translate(95.410156 0.78125)" xlink:href="#DejaVuSans-52"/>
     </g>
    </g>
    <g id="line2d_25"/>
    <g id="line2d_26">
     <defs>
      <path d="M 0 3 
C 0.795609 3 1.55874 2.683901 2.12132 2.12132 
C 2.683901 1.55874 3 0.795609 3 0 
C 3 -0.795609 2.683901 -1.55874 2.12132 -2.12132 
C 1.55874 -2.683901 0.795609 -3 0 -3 
C -0.795609 -3 -1.55874 -2.683901 -2.12132 -2.12132 
C -2.683901 -1.55874 -3 -0.795609 -3 0 
C -3 0.795609 -2.683901 1.55874 -2.12132 2.12132 
C -1.55874 2.683901 -0.795609 3 0 3 
z
" id="md4de6b8b6d" style="stroke:#105ba4;stroke-opacity:0.7;"/>
     </defs>
     <g>
      <use style="fill:#105ba4;fill-opacity:0.7;stroke:#105ba4;stroke-opacity:0.7;" x="363.143438" xlink:href="#md4de6b8b6d" y="124.48075"/>
     </g>
    </g>
    <g id="text_26">
     <!-- $\mathdefault{3.2}$ -->
     <defs>
      <path d="M 40.578125 39.3125 
Q 47.65625 37.796875 51.625 33 
Q 55.609375 28.21875 55.609375 21.1875 
Q 55.609375 10.40625 48.1875 4.484375 
Q 40.765625 -1.421875 27.09375 -1.421875 
Q 22.515625 -1.421875 17.65625 -0.515625 
Q 12.796875 0.390625 7.625 2.203125 
L 7.625 11.71875 
Q 11.71875 9.328125 16.59375 8.109375 
Q 21.484375 6.890625 26.8125 6.890625 
Q 36.078125 6.890625 40.9375 10.546875 
Q 45.796875 14.203125 45.796875 21.1875 
Q 45.796875 27.640625 41.28125 31.265625 
Q 36.765625 34.90625 28.71875 34.90625 
L 20.21875 34.90625 
L 20.21875 43.015625 
L 29.109375 43.015625 
Q 36.375 43.015625 40.234375 45.921875 
Q 44.09375 48.828125 44.09375 54.296875 
Q 44.09375 59.90625 40.109375 62.90625 
Q 36.140625 65.921875 28.71875 65.921875 
Q 24.65625 65.921875 20.015625 65.03125 
Q 15.375 64.15625 9.8125 62.3125 
L 9.8125 71.09375 
Q 15.4375 72.65625 20.34375 73.4375 
Q 25.25 74.21875 29.59375 74.21875 
Q 40.828125 74.21875 47.359375 69.109375 
Q 53.90625 64.015625 53.90625 55.328125 
Q 53.90625 49.265625 50.4375 45.09375 
Q 46.96875 40.921875 40.578125 39.3125 
z
" id="DejaVuSans-51"/>
     </defs>
     <g transform="translate(381.143438 127.98075)scale(0.1 -0.1)">
      <use transform="translate(0 0.78125)" xlink:href="#DejaVuSans-51"/>
      <use transform="translate(63.623047 0.78125)" xlink:href="#DejaVuSans-46"/>
      <use transform="translate(89.910156 0.78125)" xlink:href="#DejaVuSans-50"/>
     </g>
    </g>
   </g>
   <g id="legend_2">
    <g id="patch_9">
     <path d="M 342.566875 134.060438 
L 407.72 134.060438 
Q 409.72 134.060438 409.72 132.060438 
L 409.72 48.472 
Q 409.72 46.472 407.72 46.472 
L 342.566875 46.472 
Q 340.566875 46.472 340.566875 48.472 
L 340.566875 132.060438 
Q 340.566875 134.060438 342.566875 134.060438 
z
" style="fill:#ffffff;opacity:0.8;stroke:#cccccc;stroke-linejoin:miter;"/>
    </g>
    <g id="text_27">
     <!-- LCC -->
     <g transform="translate(344.566875 58.070438)scale(0.1 -0.1)">
      <use xlink:href="#DejaVuSans-76"/>
      <use x="55.712891" xlink:href="#DejaVuSans-67"/>
      <use x="125.537109" xlink:href="#DejaVuSans-67"/>
     </g>
     <!-- ($/house-yr) -->
     <g transform="translate(344.566875 69.26825)scale(0.1 -0.1)">
      <use xlink:href="#DejaVuSans-40"/>
      <use x="39.013672" xlink:href="#DejaVuSans-36"/>
      <use x="102.636719" xlink:href="#DejaVuSans-47"/>
      <use x="136.328125" xlink:href="#DejaVuSans-104"/>
      <use x="199.707031" xlink:href="#DejaVuSans-111"/>
      <use x="260.888672" xlink:href="#DejaVuSans-117"/>
      <use x="324.267578" xlink:href="#DejaVuSans-115"/>
      <use x="376.367188" xlink:href="#DejaVuSans-101"/>
      <use x="437.890625" xlink:href="#DejaVuSans-45"/>
      <use x="472.224609" xlink:href="#DejaVuSans-121"/>
      <use x="531.404297" xlink:href="#DejaVuSans-114"/>
      <use x="572.517578" xlink:href="#DejaVuSans-41"/>
     </g>
    </g>
    <g id="line2d_27"/>
    <g id="line2d_28">
     <g>
      <use style="fill:#db4b02;fill-opacity:0.7;stroke:#db4b02;stroke-opacity:0.7;" x="363.143438" xlink:href="#m3a13ec81bc" y="80.446375"/>
     </g>
    </g>
    <g id="text_28">
     <!-- $\mathdefault{0.8}$ -->
     <g transform="translate(381.143438 83.946375)scale(0.1 -0.1)">
      <use transform="translate(0 0.78125)" xlink:href="#DejaVuSans-48"/>
      <use transform="translate(63.623047 0.78125)" xlink:href="#DejaVuSans-46"/>
      <use transform="translate(92.785156 0.78125)" xlink:href="#DejaVuSans-56"/>
     </g>
    </g>
    <g id="line2d_29"/>
    <g id="line2d_30">
     <g>
      <use style="fill:#fdd7af;fill-opacity:0.7;stroke:#fdd7af;stroke-opacity:0.7;" x="363.143438" xlink:href="#m2d438a1d64" y="95.1245"/>
     </g>
    </g>
    <g id="text_29">
     <!-- $\mathdefault{1.6}$ -->
     <g transform="translate(381.143438 98.6245)scale(0.1 -0.1)">
      <use transform="translate(0 0.78125)" xlink:href="#DejaVuSans-49"/>
      <use transform="translate(63.623047 0.78125)" xlink:href="#DejaVuSans-46"/>
      <use transform="translate(95.410156 0.78125)" xlink:href="#DejaVuSans-54"/>
     </g>
    </g>
    <g id="line2d_31"/>
    <g id="line2d_32">
     <g>
      <use style="fill:#b4d3e9;fill-opacity:0.7;stroke:#b4d3e9;stroke-opacity:0.7;" x="363.143438" xlink:href="#m7b69931476" y="109.802625"/>
     </g>
    </g>
    <g id="text_30">
     <!-- $\mathdefault{2.4}$ -->
     <g transform="translate(381.143438 113.302625)scale(0.1 -0.1)">
      <use transform="translate(0 0.78125)" xlink:href="#DejaVuSans-50"/>
      <use transform="translate(63.623047 0.78125)" xlink:href="#DejaVuSans-46"/>
      <use transform="translate(95.410156 0.78125)" xlink:href="#DejaVuSans-52"/>
     </g>
    </g>
    <g id="line2d_33"/>
    <g id="line2d_34">
     <g>
      <use style="fill:#105ba4;fill-opacity:0.7;stroke:#105ba4;stroke-opacity:0.7;" x="363.143438" xlink:href="#md4de6b8b6d" y="124.48075"/>
     </g>
    </g>
    <g id="text_31">
     <!-- $\mathdefault{3.2}$ -->
     <g transform="translate(381.143438 127.98075)scale(0.1 -0.1)">
      <use transform="translate(0 0.78125)" xlink:href="#DejaVuSans-51"/>
      <use transform="translate(63.623047 0.78125)" xlink:href="#DejaVuSans-46"/>
      <use transform="translate(89.910156 0.78125)" xlink:href="#DejaVuSans-50"/>
     </g>
    </g>
   </g>
  </g>
 </g>
 <defs>
  <clipPath id="p767613c227">
   <rect height="266.112" width="357.12" x="57.6" y="41.472"/>
  </clipPath>
 </defs>
</svg>
