<?xml version="1.0" encoding="utf-8" standalone="no"?>
<!DOCTYPE svg PUBLIC "-//W3C//DTD SVG 1.1//EN"
  "http://www.w3.org/Graphics/SVG/1.1/DTD/svg11.dtd">
<!-- Created with matplotlib (https://matplotlib.org/) -->
<svg height="345.6pt" version="1.1" viewBox="0 0 460.8 345.6" width="460.8pt" xmlns="http://www.w3.org/2000/svg" xmlns:xlink="http://www.w3.org/1999/xlink">
 <defs>
  <style type="text/css">
*{stroke-linecap:butt;stroke-linejoin:round;}
  </style>
 </defs>
 <g id="figure_1">
  <g id="patch_1">
   <path d="M 0 345.6 
L 460.8 345.6 
L 460.8 0 
L 0 0 
z
" style="fill:#ffffff;"/>
  </g>
  <g id="patch_2">
   <path d="M 57.6 307.584 
L 414.72 307.584 
L 414.72 41.472 
L 57.6 41.472 
z
" style="fill:#ffffff;"/>
  </g>
  <g id="pane3d_1">
   <g id="patch_3">
    <path d="M 379.562965 234.166836 
L 240.985946 181.856537 
L 240.985946 57.361486 
L 386.973501 104.3154 
" style="fill:#f2f2f2;opacity:0.5;stroke:#f2f2f2;stroke-linejoin:miter;"/>
   </g>
  </g>
  <g id="pane3d_2">
   <g id="patch_4">
    <path d="M 102.408926 234.166836 
L 240.985946 181.856537 
L 240.985946 57.361486 
L 94.998391 104.3154 
" style="fill:#e6e6e6;opacity:0.5;stroke:#e6e6e6;stroke-linejoin:miter;"/>
   </g>
  </g>
  <g id="pane3d_3">
   <g id="patch_5">
    <path d="M 240.985946 293.412548 
L 379.562965 234.166836 
L 240.985946 181.856537 
L 102.408926 234.166836 
" style="fill:#ececec;opacity:0.5;stroke:#ececec;stroke-linejoin:miter;"/>
   </g>
  </g>
  <g id="axis3d_1">
   <g id="line2d_1">
    <path d="M 379.562965 234.166836 
L 240.985946 293.412548 
" style="fill:none;stroke:#000000;stroke-linecap:square;stroke-width:0.8;"/>
   </g>
   <g id="text_1">
    <!-- Life Cycle Cost -->
    <defs>
     <path d="M 9.8125 72.90625 
L 19.671875 72.90625 
L 19.671875 8.296875 
L 55.171875 8.296875 
L 55.171875 0 
L 9.8125 0 
z
" id="DejaVuSans-76"/>
     <path d="M 9.421875 54.6875 
L 18.40625 54.6875 
L 18.40625 0 
L 9.421875 0 
z
M 9.421875 75.984375 
L 18.40625 75.984375 
L 18.40625 64.59375 
L 9.421875 64.59375 
z
" id="DejaVuSans-105"/>
     <path d="M 37.109375 75.984375 
L 37.109375 68.5 
L 28.515625 68.5 
Q 23.6875 68.5 21.796875 66.546875 
Q 19.921875 64.59375 19.921875 59.515625 
L 19.921875 54.6875 
L 34.71875 54.6875 
L 34.71875 47.703125 
L 19.921875 47.703125 
L 19.921875 0 
L 10.890625 0 
L 10.890625 47.703125 
L 2.296875 47.703125 
L 2.296875 54.6875 
L 10.890625 54.6875 
L 10.890625 58.5 
Q 10.890625 67.625 15.140625 71.796875 
Q 19.390625 75.984375 28.609375 75.984375 
z
" id="DejaVuSans-102"/>
     <path d="M 56.203125 29.59375 
L 56.203125 25.203125 
L 14.890625 25.203125 
Q 15.484375 15.921875 20.484375 11.0625 
Q 25.484375 6.203125 34.421875 6.203125 
Q 39.59375 6.203125 44.453125 7.46875 
Q 49.3125 8.734375 54.109375 11.28125 
L 54.109375 2.78125 
Q 49.265625 0.734375 44.1875 -0.34375 
Q 39.109375 -1.421875 33.890625 -1.421875 
Q 20.796875 -1.421875 13.15625 6.1875 
Q 5.515625 13.8125 5.515625 26.8125 
Q 5.515625 40.234375 12.765625 48.109375 
Q 20.015625 56 32.328125 56 
Q 43.359375 56 49.78125 48.890625 
Q 56.203125 41.796875 56.203125 29.59375 
z
M 47.21875 32.234375 
Q 47.125 39.59375 43.09375 43.984375 
Q 39.0625 48.390625 32.421875 48.390625 
Q 24.90625 48.390625 20.390625 44.140625 
Q 15.875 39.890625 15.1875 32.171875 
z
" id="DejaVuSans-101"/>
     <path id="DejaVuSans-32"/>
     <path d="M 64.40625 67.28125 
L 64.40625 56.890625 
Q 59.421875 61.53125 53.78125 63.8125 
Q 48.140625 66.109375 41.796875 66.109375 
Q 29.296875 66.109375 22.65625 58.46875 
Q 16.015625 50.828125 16.015625 36.375 
Q 16.015625 21.96875 22.65625 14.328125 
Q 29.296875 6.6875 41.796875 6.6875 
Q 48.140625 6.6875 53.78125 8.984375 
Q 59.421875 11.28125 64.40625 15.921875 
L 64.40625 5.609375 
Q 59.234375 2.09375 53.4375 0.328125 
Q 47.65625 -1.421875 41.21875 -1.421875 
Q 24.65625 -1.421875 15.125 8.703125 
Q 5.609375 18.84375 5.609375 36.375 
Q 5.609375 53.953125 15.125 64.078125 
Q 24.65625 74.21875 41.21875 74.21875 
Q 47.75 74.21875 53.53125 72.484375 
Q 59.328125 70.75 64.40625 67.28125 
z
" id="DejaVuSans-67"/>
     <path d="M 32.171875 -5.078125 
Q 28.375 -14.84375 24.75 -17.8125 
Q 21.140625 -20.796875 15.09375 -20.796875 
L 7.90625 -20.796875 
L 7.90625 -13.28125 
L 13.1875 -13.28125 
Q 16.890625 -13.28125 18.9375 -11.515625 
Q 21 -9.765625 23.484375 -3.21875 
L 25.09375 0.875 
L 2.984375 54.6875 
L 12.5 54.6875 
L 29.59375 11.921875 
L 46.6875 54.6875 
L 56.203125 54.6875 
z
" id="DejaVuSans-121"/>
     <path d="M 48.78125 52.59375 
L 48.78125 44.1875 
Q 44.96875 46.296875 41.140625 47.34375 
Q 37.3125 48.390625 33.40625 48.390625 
Q 24.65625 48.390625 19.8125 42.84375 
Q 14.984375 37.3125 14.984375 27.296875 
Q 14.984375 17.28125 19.8125 11.734375 
Q 24.65625 6.203125 33.40625 6.203125 
Q 37.3125 6.203125 41.140625 7.25 
Q 44.96875 8.296875 48.78125 10.40625 
L 48.78125 2.09375 
Q 45.015625 0.34375 40.984375 -0.53125 
Q 36.96875 -1.421875 32.421875 -1.421875 
Q 20.0625 -1.421875 12.78125 6.34375 
Q 5.515625 14.109375 5.515625 27.296875 
Q 5.515625 40.671875 12.859375 48.328125 
Q 20.21875 56 33.015625 56 
Q 37.15625 56 41.109375 55.140625 
Q 45.0625 54.296875 48.78125 52.59375 
z
" id="DejaVuSans-99"/>
     <path d="M 9.421875 75.984375 
L 18.40625 75.984375 
L 18.40625 0 
L 9.421875 0 
z
" id="DejaVuSans-108"/>
     <path d="M 30.609375 48.390625 
Q 23.390625 48.390625 19.1875 42.75 
Q 14.984375 37.109375 14.984375 27.296875 
Q 14.984375 17.484375 19.15625 11.84375 
Q 23.34375 6.203125 30.609375 6.203125 
Q 37.796875 6.203125 41.984375 11.859375 
Q 46.1875 17.53125 46.1875 27.296875 
Q 46.1875 37.015625 41.984375 42.703125 
Q 37.796875 48.390625 30.609375 48.390625 
z
M 30.609375 56 
Q 42.328125 56 49.015625 48.375 
Q 55.71875 40.765625 55.71875 27.296875 
Q 55.71875 13.875 49.015625 6.21875 
Q 42.328125 -1.421875 30.609375 -1.421875 
Q 18.84375 -1.421875 12.171875 6.21875 
Q 5.515625 13.875 5.515625 27.296875 
Q 5.515625 40.765625 12.171875 48.375 
Q 18.84375 56 30.609375 56 
z
" id="DejaVuSans-111"/>
     <path d="M 44.28125 53.078125 
L 44.28125 44.578125 
Q 40.484375 46.53125 36.375 47.5 
Q 32.28125 48.484375 27.875 48.484375 
Q 21.1875 48.484375 17.84375 46.4375 
Q 14.5 44.390625 14.5 40.28125 
Q 14.5 37.15625 16.890625 35.375 
Q 19.28125 33.59375 26.515625 31.984375 
L 29.59375 31.296875 
Q 39.15625 29.25 43.1875 25.515625 
Q 47.21875 21.78125 47.21875 15.09375 
Q 47.21875 7.46875 41.1875 3.015625 
Q 35.15625 -1.421875 24.609375 -1.421875 
Q 20.21875 -1.421875 15.453125 -0.5625 
Q 10.6875 0.296875 5.421875 2 
L 5.421875 11.28125 
Q 10.40625 8.6875 15.234375 7.390625 
Q 20.0625 6.109375 24.8125 6.109375 
Q 31.15625 6.109375 34.5625 8.28125 
Q 37.984375 10.453125 37.984375 14.40625 
Q 37.984375 18.0625 35.515625 20.015625 
Q 33.0625 21.96875 24.703125 23.78125 
L 21.578125 24.515625 
Q 13.234375 26.265625 9.515625 29.90625 
Q 5.8125 33.546875 5.8125 39.890625 
Q 5.8125 47.609375 11.28125 51.796875 
Q 16.75 56 26.8125 56 
Q 31.78125 56 36.171875 55.265625 
Q 40.578125 54.546875 44.28125 53.078125 
z
" id="DejaVuSans-115"/>
     <path d="M 18.3125 70.21875 
L 18.3125 54.6875 
L 36.8125 54.6875 
L 36.8125 47.703125 
L 18.3125 47.703125 
L 18.3125 18.015625 
Q 18.3125 11.328125 20.140625 9.421875 
Q 21.96875 7.515625 27.59375 7.515625 
L 36.8125 7.515625 
L 36.8125 0 
L 27.59375 0 
Q 17.1875 0 13.234375 3.875 
Q 9.28125 7.765625 9.28125 18.015625 
L 9.28125 47.703125 
L 2.6875 47.703125 
L 2.6875 54.6875 
L 9.28125 54.6875 
L 9.28125 70.21875 
z
" id="DejaVuSans-116"/>
    </defs>
    <g transform="translate(306.815715 323.994414)rotate(-23.148119)scale(0.12 -0.12)">
     <use xlink:href="#DejaVuSans-76"/>
     <use x="55.712891" xlink:href="#DejaVuSans-105"/>
     <use x="83.496094" xlink:href="#DejaVuSans-102"/>
     <use x="118.701172" xlink:href="#DejaVuSans-101"/>
     <use x="180.224609" xlink:href="#DejaVuSans-32"/>
     <use x="212.011719" xlink:href="#DejaVuSans-67"/>
     <use x="281.835938" xlink:href="#DejaVuSans-121"/>
     <use x="341.015625" xlink:href="#DejaVuSans-99"/>
     <use x="395.996094" xlink:href="#DejaVuSans-108"/>
     <use x="423.779297" xlink:href="#DejaVuSans-101"/>
     <use x="485.302734" xlink:href="#DejaVuSans-32"/>
     <use x="517.089844" xlink:href="#DejaVuSans-67"/>
     <use x="586.914062" xlink:href="#DejaVuSans-111"/>
     <use x="648.095703" xlink:href="#DejaVuSans-115"/>
     <use x="700.195312" xlink:href="#DejaVuSans-116"/>
    </g>
    <!--  ($/house-yr) -->
    <defs>
     <path d="M 31 75.875 
Q 24.46875 64.65625 21.28125 53.65625 
Q 18.109375 42.671875 18.109375 31.390625 
Q 18.109375 20.125 21.3125 9.0625 
Q 24.515625 -2 31 -13.1875 
L 23.1875 -13.1875 
Q 15.875 -1.703125 12.234375 9.375 
Q 8.59375 20.453125 8.59375 31.390625 
Q 8.59375 42.28125 12.203125 53.3125 
Q 15.828125 64.359375 23.1875 75.875 
z
" id="DejaVuSans-40"/>
     <path d="M 33.796875 -14.703125 
L 28.90625 -14.703125 
L 28.859375 0 
Q 23.734375 0.09375 18.609375 1.1875 
Q 13.484375 2.296875 8.296875 4.5 
L 8.296875 13.28125 
Q 13.28125 10.15625 18.375 8.5625 
Q 23.484375 6.984375 28.90625 6.9375 
L 28.90625 29.203125 
Q 18.109375 30.953125 13.203125 35.15625 
Q 8.296875 39.359375 8.296875 46.6875 
Q 8.296875 54.640625 13.625 59.21875 
Q 18.953125 63.8125 28.90625 64.5 
L 28.90625 75.984375 
L 33.796875 75.984375 
L 33.796875 64.65625 
Q 38.328125 64.453125 42.578125 63.6875 
Q 46.828125 62.9375 50.875 61.625 
L 50.875 53.078125 
Q 46.828125 55.125 42.546875 56.25 
Q 38.28125 57.375 33.796875 57.5625 
L 33.796875 36.71875 
Q 44.875 35.015625 50.09375 30.609375 
Q 55.328125 26.21875 55.328125 18.609375 
Q 55.328125 10.359375 49.78125 5.59375 
Q 44.234375 0.828125 33.796875 0.09375 
z
M 28.90625 37.59375 
L 28.90625 57.625 
Q 23.25 56.984375 20.265625 54.390625 
Q 17.28125 51.8125 17.28125 47.515625 
Q 17.28125 43.3125 20.03125 40.96875 
Q 22.796875 38.625 28.90625 37.59375 
z
M 33.796875 28.21875 
L 33.796875 7.078125 
Q 39.984375 7.90625 43.140625 10.59375 
Q 46.296875 13.28125 46.296875 17.671875 
Q 46.296875 21.96875 43.28125 24.5 
Q 40.28125 27.046875 33.796875 28.21875 
z
" id="DejaVuSans-36"/>
     <path d="M 25.390625 72.90625 
L 33.6875 72.90625 
L 8.296875 -9.28125 
L 0 -9.28125 
z
" id="DejaVuSans-47"/>
     <path d="M 54.890625 33.015625 
L 54.890625 0 
L 45.90625 0 
L 45.90625 32.71875 
Q 45.90625 40.484375 42.875 44.328125 
Q 39.84375 48.1875 33.796875 48.1875 
Q 26.515625 48.1875 22.3125 43.546875 
Q 18.109375 38.921875 18.109375 30.90625 
L 18.109375 0 
L 9.078125 0 
L 9.078125 75.984375 
L 18.109375 75.984375 
L 18.109375 46.1875 
Q 21.34375 51.125 25.703125 53.5625 
Q 30.078125 56 35.796875 56 
Q 45.21875 56 50.046875 50.171875 
Q 54.890625 44.34375 54.890625 33.015625 
z
" id="DejaVuSans-104"/>
     <path d="M 8.5 21.578125 
L 8.5 54.6875 
L 17.484375 54.6875 
L 17.484375 21.921875 
Q 17.484375 14.15625 20.5 10.265625 
Q 23.53125 6.390625 29.59375 6.390625 
Q 36.859375 6.390625 41.078125 11.03125 
Q 45.3125 15.671875 45.3125 23.6875 
L 45.3125 54.6875 
L 54.296875 54.6875 
L 54.296875 0 
L 45.3125 0 
L 45.3125 8.40625 
Q 42.046875 3.421875 37.71875 1 
Q 33.40625 -1.421875 27.6875 -1.421875 
Q 18.265625 -1.421875 13.375 4.4375 
Q 8.5 10.296875 8.5 21.578125 
z
M 31.109375 56 
z
" id="DejaVuSans-117"/>
     <path d="M 4.890625 31.390625 
L 31.203125 31.390625 
L 31.203125 23.390625 
L 4.890625 23.390625 
z
" id="DejaVuSans-45"/>
     <path d="M 41.109375 46.296875 
Q 39.59375 47.171875 37.8125 47.578125 
Q 36.03125 48 33.890625 48 
Q 26.265625 48 22.1875 43.046875 
Q 18.109375 38.09375 18.109375 28.8125 
L 18.109375 0 
L 9.078125 0 
L 9.078125 54.6875 
L 18.109375 54.6875 
L 18.109375 46.1875 
Q 20.953125 51.171875 25.484375 53.578125 
Q 30.03125 56 36.53125 56 
Q 37.453125 56 38.578125 55.875 
Q 39.703125 55.765625 41.0625 55.515625 
z
" id="DejaVuSans-114"/>
     <path d="M 8.015625 75.875 
L 15.828125 75.875 
Q 23.140625 64.359375 26.78125 53.3125 
Q 30.421875 42.28125 30.421875 31.390625 
Q 30.421875 20.453125 26.78125 9.375 
Q 23.140625 -1.703125 15.828125 -13.1875 
L 8.015625 -13.1875 
Q 14.5 -2 17.703125 9.0625 
Q 20.90625 20.125 20.90625 31.390625 
Q 20.90625 42.671875 17.703125 53.65625 
Q 14.5 64.65625 8.015625 75.875 
z
" id="DejaVuSans-41"/>
    </defs>
    <g transform="translate(317.400381 334.083078)rotate(-23.148119)scale(0.12 -0.12)">
     <use xlink:href="#DejaVuSans-32"/>
     <use x="31.787109" xlink:href="#DejaVuSans-40"/>
     <use x="70.800781" xlink:href="#DejaVuSans-36"/>
     <use x="134.423828" xlink:href="#DejaVuSans-47"/>
     <use x="168.115234" xlink:href="#DejaVuSans-104"/>
     <use x="231.494141" xlink:href="#DejaVuSans-111"/>
     <use x="292.675781" xlink:href="#DejaVuSans-117"/>
     <use x="356.054688" xlink:href="#DejaVuSans-115"/>
     <use x="408.154297" xlink:href="#DejaVuSans-101"/>
     <use x="469.677734" xlink:href="#DejaVuSans-45"/>
     <use x="504.011719" xlink:href="#DejaVuSans-121"/>
     <use x="563.191406" xlink:href="#DejaVuSans-114"/>
     <use x="604.304688" xlink:href="#DejaVuSans-41"/>
    </g>
   </g>
   <g id="Line3DCollection_1">
    <path d="M 263.360251 283.846881 
L 124.71067 225.748334 
L 118.554413 96.739087 
" style="fill:none;stroke:#b0b0b0;stroke-width:0.8;"/>
    <path d="M 284.434254 274.83713 
L 145.741816 217.80946 
L 140.746656 89.601406 
" style="fill:none;stroke:#b0b0b0;stroke-width:0.8;"/>
    <path d="M 305.10954 265.997843 
L 166.399123 210.011703 
L 162.523926 82.597192 
" style="fill:none;stroke:#b0b0b0;stroke-width:0.8;"/>
    <path d="M 325.397317 257.324228 
L 186.692473 202.351334 
L 183.897757 75.722736 
" style="fill:none;stroke:#b0b0b0;stroke-width:0.8;"/>
    <path d="M 345.30838 248.811669 
L 206.631399 194.824752 
L 204.879255 68.974466 
" style="fill:none;stroke:#b0b0b0;stroke-width:0.8;"/>
    <path d="M 364.853123 240.455722 
L 226.225107 187.428485 
L 225.479124 62.348938 
" style="fill:none;stroke:#b0b0b0;stroke-width:0.8;"/>
   </g>
   <g id="xtick_1">
    <g id="line2d_2">
     <path d="M 262.178883 283.35185 
L 265.726713 284.838503 
" style="fill:none;stroke:#000000;stroke-linecap:square;stroke-width:0.8;"/>
    </g>
    <g id="text_2">
     <!-- 2 -->
     <defs>
      <path d="M 28.8125 13.8125 
L 60.890625 13.8125 
L 60.890625 0 
L 7.90625 0 
L 7.90625 13.8125 
L 34.515625 37.3125 
Q 38.09375 40.53125 39.796875 43.609375 
Q 41.5 46.6875 41.5 50 
Q 41.5 55.125 38.0625 58.25 
Q 34.625 61.375 28.90625 61.375 
Q 24.515625 61.375 19.28125 59.5 
Q 14.0625 57.625 8.109375 53.90625 
L 8.109375 69.921875 
Q 14.453125 72.015625 20.65625 73.109375 
Q 26.859375 74.21875 32.8125 74.21875 
Q 45.90625 74.21875 53.15625 68.453125 
Q 60.40625 62.703125 60.40625 52.390625 
Q 60.40625 46.4375 57.328125 41.28125 
Q 54.25 36.140625 44.390625 27.484375 
z
" id="DejaVuSans-Bold-50"/>
     </defs>
     <g transform="translate(269.578419 306.393914)scale(0.12 -0.12)">
      <use xlink:href="#DejaVuSans-Bold-50"/>
     </g>
    </g>
   </g>
   <g id="xtick_2">
    <g id="line2d_3">
     <path d="M 283.25321 274.351507 
L 286.800032 275.809892 
" style="fill:none;stroke:#000000;stroke-linecap:square;stroke-width:0.8;"/>
    </g>
    <g id="text_3">
     <!-- 4 -->
     <defs>
      <path d="M 36.8125 57.421875 
L 16.21875 26.90625 
L 36.8125 26.90625 
z
M 33.6875 72.90625 
L 54.59375 72.90625 
L 54.59375 26.90625 
L 64.984375 26.90625 
L 64.984375 13.28125 
L 54.59375 13.28125 
L 54.59375 0 
L 36.8125 0 
L 36.8125 13.28125 
L 4.5 13.28125 
L 4.5 29.390625 
z
" id="DejaVuSans-Bold-52"/>
     </defs>
     <g transform="translate(290.57091 297.248184)scale(0.12 -0.12)">
      <use xlink:href="#DejaVuSans-Bold-52"/>
     </g>
    </g>
   </g>
   <g id="xtick_3">
    <g id="line2d_4">
     <path d="M 303.929019 265.521363 
L 307.474235 266.952279 
" style="fill:none;stroke:#000000;stroke-linecap:square;stroke-width:0.8;"/>
    </g>
    <g id="text_4">
     <!-- 6 -->
     <defs>
      <path d="M 36.1875 35.984375 
Q 31.25 35.984375 28.78125 32.78125 
Q 26.3125 29.59375 26.3125 23.1875 
Q 26.3125 16.796875 28.78125 13.59375 
Q 31.25 10.40625 36.1875 10.40625 
Q 41.15625 10.40625 43.625 13.59375 
Q 46.09375 16.796875 46.09375 23.1875 
Q 46.09375 29.59375 43.625 32.78125 
Q 41.15625 35.984375 36.1875 35.984375 
z
M 59.421875 71 
L 59.421875 57.515625 
Q 54.78125 59.71875 50.671875 60.765625 
Q 46.578125 61.8125 42.671875 61.8125 
Q 34.28125 61.8125 29.59375 57.140625 
Q 24.90625 52.484375 24.125 43.3125 
Q 27.34375 45.703125 31.09375 46.890625 
Q 34.859375 48.09375 39.3125 48.09375 
Q 50.484375 48.09375 57.34375 41.546875 
Q 64.203125 35.015625 64.203125 24.421875 
Q 64.203125 12.703125 56.53125 5.640625 
Q 48.875 -1.421875 35.984375 -1.421875 
Q 21.78125 -1.421875 13.984375 8.171875 
Q 6.203125 17.78125 6.203125 35.40625 
Q 6.203125 53.46875 15.3125 63.796875 
Q 24.421875 74.125 40.28125 74.125 
Q 45.3125 74.125 50.046875 73.34375 
Q 54.78125 72.5625 59.421875 71 
z
" id="DejaVuSans-Bold-54"/>
     </defs>
     <g transform="translate(311.165891 288.275635)scale(0.12 -0.12)">
      <use xlink:href="#DejaVuSans-Bold-54"/>
     </g>
    </g>
   </g>
   <g id="xtick_4">
    <g id="line2d_5">
     <path d="M 324.217507 256.856633 
L 327.760554 258.260849 
" style="fill:none;stroke:#000000;stroke-linecap:square;stroke-width:0.8;"/>
    </g>
    <g id="text_5">
     <!-- 8 -->
     <defs>
      <path d="M 34.8125 32.625 
Q 29.546875 32.625 26.703125 29.734375 
Q 23.875 26.859375 23.875 21.484375 
Q 23.875 16.109375 26.703125 13.25 
Q 29.546875 10.40625 34.8125 10.40625 
Q 40.046875 10.40625 42.828125 13.25 
Q 45.609375 16.109375 45.609375 21.484375 
Q 45.609375 26.90625 42.828125 29.765625 
Q 40.046875 32.625 34.8125 32.625 
z
M 21.09375 38.8125 
Q 14.453125 40.828125 11.078125 44.96875 
Q 7.71875 49.125 7.71875 55.328125 
Q 7.71875 64.546875 14.59375 69.375 
Q 21.484375 74.21875 34.8125 74.21875 
Q 48.046875 74.21875 54.921875 69.40625 
Q 61.8125 64.59375 61.8125 55.328125 
Q 61.8125 49.125 58.421875 44.96875 
Q 55.03125 40.828125 48.390625 38.8125 
Q 55.8125 36.765625 59.59375 32.15625 
Q 63.375 27.546875 63.375 20.515625 
Q 63.375 9.671875 56.171875 4.125 
Q 48.96875 -1.421875 34.8125 -1.421875 
Q 20.609375 -1.421875 13.359375 4.125 
Q 6.109375 9.671875 6.109375 20.515625 
Q 6.109375 27.546875 9.890625 32.15625 
Q 13.671875 36.765625 21.09375 38.8125 
z
M 25.484375 53.421875 
Q 25.484375 49.078125 27.90625 46.734375 
Q 30.328125 44.390625 34.8125 44.390625 
Q 39.203125 44.390625 41.59375 46.734375 
Q 44 49.078125 44 53.421875 
Q 44 57.765625 41.59375 60.078125 
Q 39.203125 62.40625 34.8125 62.40625 
Q 30.328125 62.40625 27.90625 60.0625 
Q 25.484375 57.71875 25.484375 53.421875 
z
" id="DejaVuSans-Bold-56"/>
     </defs>
     <g transform="translate(331.37455 279.471395)scale(0.12 -0.12)">
      <use xlink:href="#DejaVuSans-Bold-56"/>
     </g>
    </g>
   </g>
   <g id="xtick_5">
    <g id="line2d_6">
     <path d="M 344.129457 248.352715 
L 347.669803 249.73097 
" style="fill:none;stroke:#000000;stroke-linecap:square;stroke-width:0.8;"/>
    </g>
    <g id="text_6">
     <!-- 10 -->
     <defs>
      <path d="M 11.71875 12.984375 
L 28.328125 12.984375 
L 28.328125 60.109375 
L 11.28125 56.59375 
L 11.28125 69.390625 
L 28.21875 72.90625 
L 46.09375 72.90625 
L 46.09375 12.984375 
L 62.703125 12.984375 
L 62.703125 0 
L 11.71875 0 
z
" id="DejaVuSans-Bold-49"/>
      <path d="M 46 36.53125 
Q 46 50.203125 43.4375 55.78125 
Q 40.875 61.375 34.8125 61.375 
Q 28.765625 61.375 26.171875 55.78125 
Q 23.578125 50.203125 23.578125 36.53125 
Q 23.578125 22.703125 26.171875 17.03125 
Q 28.765625 11.375 34.8125 11.375 
Q 40.828125 11.375 43.40625 17.03125 
Q 46 22.703125 46 36.53125 
z
M 64.796875 36.375 
Q 64.796875 18.265625 56.984375 8.421875 
Q 49.171875 -1.421875 34.8125 -1.421875 
Q 20.40625 -1.421875 12.59375 8.421875 
Q 4.78125 18.265625 4.78125 36.375 
Q 4.78125 54.546875 12.59375 64.375 
Q 20.40625 74.21875 34.8125 74.21875 
Q 49.171875 74.21875 56.984375 64.375 
Q 64.796875 54.546875 64.796875 36.375 
z
" id="DejaVuSans-Bold-48"/>
     </defs>
     <g transform="translate(347.032966 270.830772)scale(0.12 -0.12)">
      <use xlink:href="#DejaVuSans-Bold-49"/>
      <use x="69.580078" xlink:href="#DejaVuSans-Bold-48"/>
     </g>
    </g>
   </g>
   <g id="xtick_6">
    <g id="line2d_7">
     <path d="M 363.675256 240.00517 
L 367.2124 241.35818 
" style="fill:none;stroke:#000000;stroke-linecap:square;stroke-width:0.8;"/>
    </g>
    <g id="text_7">
     <!-- 12 -->
     <g transform="translate(366.500888 262.349246)scale(0.12 -0.12)">
      <use xlink:href="#DejaVuSans-Bold-49"/>
      <use x="69.580078" xlink:href="#DejaVuSans-Bold-50"/>
     </g>
    </g>
   </g>
  </g>
  <g id="axis3d_2">
   <g id="line2d_8">
    <path d="M 102.408926 234.166836 
L 240.985946 293.412548 
" style="fill:none;stroke:#000000;stroke-linecap:square;stroke-width:0.8;"/>
   </g>
   <g id="text_8">
    <!-- Global Warming Potential -->
    <defs>
     <path d="M 59.515625 10.40625 
L 59.515625 29.984375 
L 43.40625 29.984375 
L 43.40625 38.09375 
L 69.28125 38.09375 
L 69.28125 6.78125 
Q 63.578125 2.734375 56.6875 0.65625 
Q 49.8125 -1.421875 42 -1.421875 
Q 24.90625 -1.421875 15.25 8.5625 
Q 5.609375 18.5625 5.609375 36.375 
Q 5.609375 54.25 15.25 64.234375 
Q 24.90625 74.21875 42 74.21875 
Q 49.125 74.21875 55.546875 72.453125 
Q 61.96875 70.703125 67.390625 67.28125 
L 67.390625 56.78125 
Q 61.921875 61.421875 55.765625 63.765625 
Q 49.609375 66.109375 42.828125 66.109375 
Q 29.4375 66.109375 22.71875 58.640625 
Q 16.015625 51.171875 16.015625 36.375 
Q 16.015625 21.625 22.71875 14.15625 
Q 29.4375 6.6875 42.828125 6.6875 
Q 48.046875 6.6875 52.140625 7.59375 
Q 56.25 8.5 59.515625 10.40625 
z
" id="DejaVuSans-71"/>
     <path d="M 48.6875 27.296875 
Q 48.6875 37.203125 44.609375 42.84375 
Q 40.53125 48.484375 33.40625 48.484375 
Q 26.265625 48.484375 22.1875 42.84375 
Q 18.109375 37.203125 18.109375 27.296875 
Q 18.109375 17.390625 22.1875 11.75 
Q 26.265625 6.109375 33.40625 6.109375 
Q 40.53125 6.109375 44.609375 11.75 
Q 48.6875 17.390625 48.6875 27.296875 
z
M 18.109375 46.390625 
Q 20.953125 51.265625 25.265625 53.625 
Q 29.59375 56 35.59375 56 
Q 45.5625 56 51.78125 48.09375 
Q 58.015625 40.1875 58.015625 27.296875 
Q 58.015625 14.40625 51.78125 6.484375 
Q 45.5625 -1.421875 35.59375 -1.421875 
Q 29.59375 -1.421875 25.265625 0.953125 
Q 20.953125 3.328125 18.109375 8.203125 
L 18.109375 0 
L 9.078125 0 
L 9.078125 75.984375 
L 18.109375 75.984375 
z
" id="DejaVuSans-98"/>
     <path d="M 34.28125 27.484375 
Q 23.390625 27.484375 19.1875 25 
Q 14.984375 22.515625 14.984375 16.5 
Q 14.984375 11.71875 18.140625 8.90625 
Q 21.296875 6.109375 26.703125 6.109375 
Q 34.1875 6.109375 38.703125 11.40625 
Q 43.21875 16.703125 43.21875 25.484375 
L 43.21875 27.484375 
z
M 52.203125 31.203125 
L 52.203125 0 
L 43.21875 0 
L 43.21875 8.296875 
Q 40.140625 3.328125 35.546875 0.953125 
Q 30.953125 -1.421875 24.3125 -1.421875 
Q 15.921875 -1.421875 10.953125 3.296875 
Q 6 8.015625 6 15.921875 
Q 6 25.140625 12.171875 29.828125 
Q 18.359375 34.515625 30.609375 34.515625 
L 43.21875 34.515625 
L 43.21875 35.40625 
Q 43.21875 41.609375 39.140625 45 
Q 35.0625 48.390625 27.6875 48.390625 
Q 23 48.390625 18.546875 47.265625 
Q 14.109375 46.140625 10.015625 43.890625 
L 10.015625 52.203125 
Q 14.9375 54.109375 19.578125 55.046875 
Q 24.21875 56 28.609375 56 
Q 40.484375 56 46.34375 49.84375 
Q 52.203125 43.703125 52.203125 31.203125 
z
" id="DejaVuSans-97"/>
     <path d="M 3.328125 72.90625 
L 13.28125 72.90625 
L 28.609375 11.28125 
L 43.890625 72.90625 
L 54.984375 72.90625 
L 70.3125 11.28125 
L 85.59375 72.90625 
L 95.609375 72.90625 
L 77.296875 0 
L 64.890625 0 
L 49.515625 63.28125 
L 33.984375 0 
L 21.578125 0 
z
" id="DejaVuSans-87"/>
     <path d="M 52 44.1875 
Q 55.375 50.25 60.0625 53.125 
Q 64.75 56 71.09375 56 
Q 79.640625 56 84.28125 50.015625 
Q 88.921875 44.046875 88.921875 33.015625 
L 88.921875 0 
L 79.890625 0 
L 79.890625 32.71875 
Q 79.890625 40.578125 77.09375 44.375 
Q 74.3125 48.1875 68.609375 48.1875 
Q 61.625 48.1875 57.5625 43.546875 
Q 53.515625 38.921875 53.515625 30.90625 
L 53.515625 0 
L 44.484375 0 
L 44.484375 32.71875 
Q 44.484375 40.625 41.703125 44.40625 
Q 38.921875 48.1875 33.109375 48.1875 
Q 26.21875 48.1875 22.15625 43.53125 
Q 18.109375 38.875 18.109375 30.90625 
L 18.109375 0 
L 9.078125 0 
L 9.078125 54.6875 
L 18.109375 54.6875 
L 18.109375 46.1875 
Q 21.1875 51.21875 25.484375 53.609375 
Q 29.78125 56 35.6875 56 
Q 41.65625 56 45.828125 52.96875 
Q 50 49.953125 52 44.1875 
z
" id="DejaVuSans-109"/>
     <path d="M 54.890625 33.015625 
L 54.890625 0 
L 45.90625 0 
L 45.90625 32.71875 
Q 45.90625 40.484375 42.875 44.328125 
Q 39.84375 48.1875 33.796875 48.1875 
Q 26.515625 48.1875 22.3125 43.546875 
Q 18.109375 38.921875 18.109375 30.90625 
L 18.109375 0 
L 9.078125 0 
L 9.078125 54.6875 
L 18.109375 54.6875 
L 18.109375 46.1875 
Q 21.34375 51.125 25.703125 53.5625 
Q 30.078125 56 35.796875 56 
Q 45.21875 56 50.046875 50.171875 
Q 54.890625 44.34375 54.890625 33.015625 
z
" id="DejaVuSans-110"/>
     <path d="M 45.40625 27.984375 
Q 45.40625 37.75 41.375 43.109375 
Q 37.359375 48.484375 30.078125 48.484375 
Q 22.859375 48.484375 18.828125 43.109375 
Q 14.796875 37.75 14.796875 27.984375 
Q 14.796875 18.265625 18.828125 12.890625 
Q 22.859375 7.515625 30.078125 7.515625 
Q 37.359375 7.515625 41.375 12.890625 
Q 45.40625 18.265625 45.40625 27.984375 
z
M 54.390625 6.78125 
Q 54.390625 -7.171875 48.1875 -13.984375 
Q 42 -20.796875 29.203125 -20.796875 
Q 24.46875 -20.796875 20.265625 -20.09375 
Q 16.0625 -19.390625 12.109375 -17.921875 
L 12.109375 -9.1875 
Q 16.0625 -11.328125 19.921875 -12.34375 
Q 23.78125 -13.375 27.78125 -13.375 
Q 36.625 -13.375 41.015625 -8.765625 
Q 45.40625 -4.15625 45.40625 5.171875 
L 45.40625 9.625 
Q 42.625 4.78125 38.28125 2.390625 
Q 33.9375 0 27.875 0 
Q 17.828125 0 11.671875 7.65625 
Q 5.515625 15.328125 5.515625 27.984375 
Q 5.515625 40.671875 11.671875 48.328125 
Q 17.828125 56 27.875 56 
Q 33.9375 56 38.28125 53.609375 
Q 42.625 51.21875 45.40625 46.390625 
L 45.40625 54.6875 
L 54.390625 54.6875 
z
" id="DejaVuSans-103"/>
     <path d="M 19.671875 64.796875 
L 19.671875 37.40625 
L 32.078125 37.40625 
Q 38.96875 37.40625 42.71875 40.96875 
Q 46.484375 44.53125 46.484375 51.125 
Q 46.484375 57.671875 42.71875 61.234375 
Q 38.96875 64.796875 32.078125 64.796875 
z
M 9.8125 72.90625 
L 32.078125 72.90625 
Q 44.34375 72.90625 50.609375 67.359375 
Q 56.890625 61.8125 56.890625 51.125 
Q 56.890625 40.328125 50.609375 34.8125 
Q 44.34375 29.296875 32.078125 29.296875 
L 19.671875 29.296875 
L 19.671875 0 
L 9.8125 0 
z
" id="DejaVuSans-80"/>
    </defs>
    <g transform="translate(64.530984 276.698922)rotate(-336.851881)scale(0.12 -0.12)">
     <use xlink:href="#DejaVuSans-71"/>
     <use x="77.490234" xlink:href="#DejaVuSans-108"/>
     <use x="105.273438" xlink:href="#DejaVuSans-111"/>
     <use x="166.455078" xlink:href="#DejaVuSans-98"/>
     <use x="229.931641" xlink:href="#DejaVuSans-97"/>
     <use x="291.210938" xlink:href="#DejaVuSans-108"/>
     <use x="318.994141" xlink:href="#DejaVuSans-32"/>
     <use x="350.78125" xlink:href="#DejaVuSans-87"/>
     <use x="443.283203" xlink:href="#DejaVuSans-97"/>
     <use x="504.5625" xlink:href="#DejaVuSans-114"/>
     <use x="543.925781" xlink:href="#DejaVuSans-109"/>
     <use x="641.337891" xlink:href="#DejaVuSans-105"/>
     <use x="669.121094" xlink:href="#DejaVuSans-110"/>
     <use x="732.5" xlink:href="#DejaVuSans-103"/>
     <use x="795.976562" xlink:href="#DejaVuSans-32"/>
     <use x="827.763672" xlink:href="#DejaVuSans-80"/>
     <use x="884.441406" xlink:href="#DejaVuSans-111"/>
     <use x="945.623047" xlink:href="#DejaVuSans-116"/>
     <use x="984.832031" xlink:href="#DejaVuSans-101"/>
     <use x="1046.355469" xlink:href="#DejaVuSans-110"/>
     <use x="1109.734375" xlink:href="#DejaVuSans-116"/>
     <use x="1148.943359" xlink:href="#DejaVuSans-105"/>
     <use x="1176.726562" xlink:href="#DejaVuSans-97"/>
     <use x="1238.005859" xlink:href="#DejaVuSans-108"/>
    </g>
    <!--  (kgCO2eq/house-yr) -->
    <defs>
     <path d="M 9.078125 75.984375 
L 18.109375 75.984375 
L 18.109375 31.109375 
L 44.921875 54.6875 
L 56.390625 54.6875 
L 27.390625 29.109375 
L 57.625 0 
L 45.90625 0 
L 18.109375 26.703125 
L 18.109375 0 
L 9.078125 0 
z
" id="DejaVuSans-107"/>
     <path d="M 39.40625 66.21875 
Q 28.65625 66.21875 22.328125 58.203125 
Q 16.015625 50.203125 16.015625 36.375 
Q 16.015625 22.609375 22.328125 14.59375 
Q 28.65625 6.59375 39.40625 6.59375 
Q 50.140625 6.59375 56.421875 14.59375 
Q 62.703125 22.609375 62.703125 36.375 
Q 62.703125 50.203125 56.421875 58.203125 
Q 50.140625 66.21875 39.40625 66.21875 
z
M 39.40625 74.21875 
Q 54.734375 74.21875 63.90625 63.9375 
Q 73.09375 53.65625 73.09375 36.375 
Q 73.09375 19.140625 63.90625 8.859375 
Q 54.734375 -1.421875 39.40625 -1.421875 
Q 24.03125 -1.421875 14.8125 8.828125 
Q 5.609375 19.09375 5.609375 36.375 
Q 5.609375 53.65625 14.8125 63.9375 
Q 24.03125 74.21875 39.40625 74.21875 
z
" id="DejaVuSans-79"/>
     <path d="M 19.1875 8.296875 
L 53.609375 8.296875 
L 53.609375 0 
L 7.328125 0 
L 7.328125 8.296875 
Q 12.9375 14.109375 22.625 23.890625 
Q 32.328125 33.6875 34.8125 36.53125 
Q 39.546875 41.84375 41.421875 45.53125 
Q 43.3125 49.21875 43.3125 52.78125 
Q 43.3125 58.59375 39.234375 62.25 
Q 35.15625 65.921875 28.609375 65.921875 
Q 23.96875 65.921875 18.8125 64.3125 
Q 13.671875 62.703125 7.8125 59.421875 
L 7.8125 69.390625 
Q 13.765625 71.78125 18.9375 73 
Q 24.125 74.21875 28.421875 74.21875 
Q 39.75 74.21875 46.484375 68.546875 
Q 53.21875 62.890625 53.21875 53.421875 
Q 53.21875 48.921875 51.53125 44.890625 
Q 49.859375 40.875 45.40625 35.40625 
Q 44.1875 33.984375 37.640625 27.21875 
Q 31.109375 20.453125 19.1875 8.296875 
z
" id="DejaVuSans-50"/>
     <path d="M 14.796875 27.296875 
Q 14.796875 17.390625 18.875 11.75 
Q 22.953125 6.109375 30.078125 6.109375 
Q 37.203125 6.109375 41.296875 11.75 
Q 45.40625 17.390625 45.40625 27.296875 
Q 45.40625 37.203125 41.296875 42.84375 
Q 37.203125 48.484375 30.078125 48.484375 
Q 22.953125 48.484375 18.875 42.84375 
Q 14.796875 37.203125 14.796875 27.296875 
z
M 45.40625 8.203125 
Q 42.578125 3.328125 38.25 0.953125 
Q 33.9375 -1.421875 27.875 -1.421875 
Q 17.96875 -1.421875 11.734375 6.484375 
Q 5.515625 14.40625 5.515625 27.296875 
Q 5.515625 40.1875 11.734375 48.09375 
Q 17.96875 56 27.875 56 
Q 33.9375 56 38.25 53.625 
Q 42.578125 51.265625 45.40625 46.390625 
L 45.40625 54.6875 
L 54.390625 54.6875 
L 54.390625 -20.796875 
L 45.40625 -20.796875 
z
" id="DejaVuSans-113"/>
    </defs>
    <g transform="translate(71.799686 294.42042)rotate(-336.851881)scale(0.12 -0.12)">
     <use xlink:href="#DejaVuSans-32"/>
     <use x="31.787109" xlink:href="#DejaVuSans-40"/>
     <use x="70.800781" xlink:href="#DejaVuSans-107"/>
     <use x="128.710938" xlink:href="#DejaVuSans-103"/>
     <use x="192.1875" xlink:href="#DejaVuSans-67"/>
     <use x="262.011719" xlink:href="#DejaVuSans-79"/>
     <use x="340.722656" xlink:href="#DejaVuSans-50"/>
     <use x="404.345703" xlink:href="#DejaVuSans-101"/>
     <use x="465.869141" xlink:href="#DejaVuSans-113"/>
     <use x="529.345703" xlink:href="#DejaVuSans-47"/>
     <use x="563.037109" xlink:href="#DejaVuSans-104"/>
     <use x="626.416016" xlink:href="#DejaVuSans-111"/>
     <use x="687.597656" xlink:href="#DejaVuSans-117"/>
     <use x="750.976562" xlink:href="#DejaVuSans-115"/>
     <use x="803.076172" xlink:href="#DejaVuSans-101"/>
     <use x="864.599609" xlink:href="#DejaVuSans-45"/>
     <use x="898.933594" xlink:href="#DejaVuSans-121"/>
     <use x="958.113281" xlink:href="#DejaVuSans-114"/>
     <use x="999.226562" xlink:href="#DejaVuSans-41"/>
    </g>
   </g>
   <g id="Line3DCollection_2">
    <path d="M 380.551782 102.249986 
L 373.485408 231.872668 
L 234.885845 290.804577 
" style="fill:none;stroke:#b0b0b0;stroke-width:0.8;"/>
    <path d="M 352.504664 93.229203 
L 346.92186 221.845413 
L 208.24811 279.416169 
" style="fill:none;stroke:#b0b0b0;stroke-width:0.8;"/>
    <path d="M 325.114004 84.419557 
L 320.949267 212.041233 
L 182.241231 268.297471 
" style="fill:none;stroke:#b0b0b0;stroke-width:0.8;"/>
    <path d="M 298.357022 75.81372 
L 295.548126 202.452766 
L 156.843058 257.439012 
" style="fill:none;stroke:#b0b0b0;stroke-width:0.8;"/>
    <path d="M 272.211978 67.404701 
L 270.699784 193.072969 
L 132.032468 246.831763 
" style="fill:none;stroke:#b0b0b0;stroke-width:0.8;"/>
    <path d="M 246.658118 59.185824 
L 246.386387 183.895105 
L 107.789305 236.467104 
" style="fill:none;stroke:#b0b0b0;stroke-width:0.8;"/>
   </g>
   <g id="xtick_7">
    <g id="line2d_9">
     <path d="M 236.067319 290.302219 
L 232.519144 291.810887 
" style="fill:none;stroke:#000000;stroke-linecap:square;stroke-width:0.8;"/>
    </g>
    <g id="text_9">
     <!-- 0 -->
     <g transform="translate(220.255588 313.456721)scale(0.12 -0.12)">
      <use xlink:href="#DejaVuSans-Bold-48"/>
     </g>
    </g>
   </g>
   <g id="xtick_8">
    <g id="line2d_10">
     <path d="M 209.429346 278.925776 
L 205.881932 280.398494 
" style="fill:none;stroke:#000000;stroke-linecap:square;stroke-width:0.8;"/>
    </g>
    <g id="text_10">
     <!-- 20 -->
     <g transform="translate(189.545922 301.896313)scale(0.12 -0.12)">
      <use xlink:href="#DejaVuSans-Bold-50"/>
      <use x="69.580078" xlink:href="#DejaVuSans-Bold-48"/>
     </g>
    </g>
   </g>
   <g id="xtick_9">
    <g id="line2d_11">
     <path d="M 183.421908 267.81862 
L 179.876215 269.256657 
" style="fill:none;stroke:#000000;stroke-linecap:square;stroke-width:0.8;"/>
    </g>
    <g id="text_11">
     <!-- 40 -->
     <g transform="translate(163.639893 290.609918)scale(0.12 -0.12)">
      <use xlink:href="#DejaVuSans-Bold-52"/>
      <use x="69.580078" xlink:href="#DejaVuSans-Bold-48"/>
     </g>
    </g>
   </g>
   <g id="xtick_10">
    <g id="line2d_12">
     <path d="M 158.022879 256.971301 
L 154.4798 258.375868 
" style="fill:none;stroke:#000000;stroke-linecap:square;stroke-width:0.8;"/>
    </g>
    <g id="text_12">
     <!-- 60 -->
     <g transform="translate(138.340714 279.587907)scale(0.12 -0.12)">
      <use xlink:href="#DejaVuSans-Bold-54"/>
      <use x="69.580078" xlink:href="#DejaVuSans-Bold-48"/>
     </g>
    </g>
   </g>
   <g id="xtick_11">
    <g id="line2d_13">
     <path d="M 133.211157 246.374806 
L 129.67152 247.747059 
" style="fill:none;stroke:#000000;stroke-linecap:square;stroke-width:0.8;"/>
    </g>
    <g id="text_13">
     <!-- 80 -->
     <g transform="translate(113.627308 268.821098)scale(0.12 -0.12)">
      <use xlink:href="#DejaVuSans-Bold-56"/>
      <use x="69.580078" xlink:href="#DejaVuSans-Bold-48"/>
     </g>
    </g>
   </g>
   <g id="xtick_12">
    <g id="line2d_14">
     <path d="M 108.966604 236.020536 
L 105.43118 237.361577 
" style="fill:none;stroke:#000000;stroke-linecap:square;stroke-width:0.8;"/>
    </g>
    <g id="text_14">
     <!-- 100 -->
     <g transform="translate(85.304876 258.300729)scale(0.12 -0.12)">
      <use xlink:href="#DejaVuSans-Bold-49"/>
      <use x="69.580078" xlink:href="#DejaVuSans-Bold-48"/>
      <use x="139.160156" xlink:href="#DejaVuSans-Bold-48"/>
     </g>
    </g>
   </g>
  </g>
  <g id="axis3d_3">
   <g id="line2d_15">
    <path d="M 102.408926 234.166836 
L 94.998391 104.3154 
" style="fill:none;stroke:#000000;stroke-linecap:square;stroke-width:0.8;"/>
   </g>
   <g id="text_15">
    <!-- Degree of Circularity -->
    <defs>
     <path d="M 19.671875 64.796875 
L 19.671875 8.109375 
L 31.59375 8.109375 
Q 46.6875 8.109375 53.6875 14.9375 
Q 60.6875 21.78125 60.6875 36.53125 
Q 60.6875 51.171875 53.6875 57.984375 
Q 46.6875 64.796875 31.59375 64.796875 
z
M 9.8125 72.90625 
L 30.078125 72.90625 
Q 51.265625 72.90625 61.171875 64.09375 
Q 71.09375 55.28125 71.09375 36.53125 
Q 71.09375 17.671875 61.125 8.828125 
Q 51.171875 0 30.078125 0 
L 9.8125 0 
z
" id="DejaVuSans-68"/>
    </defs>
    <g transform="translate(26.826034 108.734884)rotate(-273.266289)scale(0.12 -0.12)">
     <use xlink:href="#DejaVuSans-68"/>
     <use x="77.001953" xlink:href="#DejaVuSans-101"/>
     <use x="138.525391" xlink:href="#DejaVuSans-103"/>
     <use x="202.001953" xlink:href="#DejaVuSans-114"/>
     <use x="240.865234" xlink:href="#DejaVuSans-101"/>
     <use x="302.388672" xlink:href="#DejaVuSans-101"/>
     <use x="363.912109" xlink:href="#DejaVuSans-32"/>
     <use x="395.699219" xlink:href="#DejaVuSans-111"/>
     <use x="456.880859" xlink:href="#DejaVuSans-102"/>
     <use x="492.085938" xlink:href="#DejaVuSans-32"/>
     <use x="523.873047" xlink:href="#DejaVuSans-67"/>
     <use x="593.697266" xlink:href="#DejaVuSans-105"/>
     <use x="621.480469" xlink:href="#DejaVuSans-114"/>
     <use x="660.34375" xlink:href="#DejaVuSans-99"/>
     <use x="715.324219" xlink:href="#DejaVuSans-117"/>
     <use x="778.703125" xlink:href="#DejaVuSans-108"/>
     <use x="806.486328" xlink:href="#DejaVuSans-97"/>
     <use x="867.765625" xlink:href="#DejaVuSans-114"/>
     <use x="908.878906" xlink:href="#DejaVuSans-105"/>
     <use x="936.662109" xlink:href="#DejaVuSans-116"/>
     <use x="975.871094" xlink:href="#DejaVuSans-121"/>
    </g>
    <!--  (Industrial Perspective) -->
    <defs>
     <path d="M 9.8125 72.90625 
L 19.671875 72.90625 
L 19.671875 0 
L 9.8125 0 
z
" id="DejaVuSans-73"/>
     <path d="M 45.40625 46.390625 
L 45.40625 75.984375 
L 54.390625 75.984375 
L 54.390625 0 
L 45.40625 0 
L 45.40625 8.203125 
Q 42.578125 3.328125 38.25 0.953125 
Q 33.9375 -1.421875 27.875 -1.421875 
Q 17.96875 -1.421875 11.734375 6.484375 
Q 5.515625 14.40625 5.515625 27.296875 
Q 5.515625 40.1875 11.734375 48.09375 
Q 17.96875 56 27.875 56 
Q 33.9375 56 38.25 53.625 
Q 42.578125 51.265625 45.40625 46.390625 
z
M 14.796875 27.296875 
Q 14.796875 17.390625 18.875 11.75 
Q 22.953125 6.109375 30.078125 6.109375 
Q 37.203125 6.109375 41.296875 11.75 
Q 45.40625 17.390625 45.40625 27.296875 
Q 45.40625 37.203125 41.296875 42.84375 
Q 37.203125 48.484375 30.078125 48.484375 
Q 22.953125 48.484375 18.875 42.84375 
Q 14.796875 37.203125 14.796875 27.296875 
z
" id="DejaVuSans-100"/>
     <path d="M 18.109375 8.203125 
L 18.109375 -20.796875 
L 9.078125 -20.796875 
L 9.078125 54.6875 
L 18.109375 54.6875 
L 18.109375 46.390625 
Q 20.953125 51.265625 25.265625 53.625 
Q 29.59375 56 35.59375 56 
Q 45.5625 56 51.78125 48.09375 
Q 58.015625 40.1875 58.015625 27.296875 
Q 58.015625 14.40625 51.78125 6.484375 
Q 45.5625 -1.421875 35.59375 -1.421875 
Q 29.59375 -1.421875 25.265625 0.953125 
Q 20.953125 3.328125 18.109375 8.203125 
z
M 48.6875 27.296875 
Q 48.6875 37.203125 44.609375 42.84375 
Q 40.53125 48.484375 33.40625 48.484375 
Q 26.265625 48.484375 22.1875 42.84375 
Q 18.109375 37.203125 18.109375 27.296875 
Q 18.109375 17.390625 22.1875 11.75 
Q 26.265625 6.109375 33.40625 6.109375 
Q 40.53125 6.109375 44.609375 11.75 
Q 48.6875 17.390625 48.6875 27.296875 
z
" id="DejaVuSans-112"/>
     <path d="M 2.984375 54.6875 
L 12.5 54.6875 
L 29.59375 8.796875 
L 46.6875 54.6875 
L 56.203125 54.6875 
L 35.6875 0 
L 23.484375 0 
z
" id="DejaVuSans-118"/>
    </defs>
    <g transform="translate(12.881887 100.238072)rotate(-273.266289)scale(0.12 -0.12)">
     <use xlink:href="#DejaVuSans-32"/>
     <use x="31.787109" xlink:href="#DejaVuSans-40"/>
     <use x="70.800781" xlink:href="#DejaVuSans-73"/>
     <use x="100.292969" xlink:href="#DejaVuSans-110"/>
     <use x="163.671875" xlink:href="#DejaVuSans-100"/>
     <use x="227.148438" xlink:href="#DejaVuSans-117"/>
     <use x="290.527344" xlink:href="#DejaVuSans-115"/>
     <use x="342.626953" xlink:href="#DejaVuSans-116"/>
     <use x="381.835938" xlink:href="#DejaVuSans-114"/>
     <use x="422.949219" xlink:href="#DejaVuSans-105"/>
     <use x="450.732422" xlink:href="#DejaVuSans-97"/>
     <use x="512.011719" xlink:href="#DejaVuSans-108"/>
     <use x="539.794922" xlink:href="#DejaVuSans-32"/>
     <use x="571.582031" xlink:href="#DejaVuSans-80"/>
     <use x="628.259766" xlink:href="#DejaVuSans-101"/>
     <use x="689.783203" xlink:href="#DejaVuSans-114"/>
     <use x="730.896484" xlink:href="#DejaVuSans-115"/>
     <use x="782.996094" xlink:href="#DejaVuSans-112"/>
     <use x="846.472656" xlink:href="#DejaVuSans-101"/>
     <use x="907.996094" xlink:href="#DejaVuSans-99"/>
     <use x="962.976562" xlink:href="#DejaVuSans-116"/>
     <use x="1002.185547" xlink:href="#DejaVuSans-105"/>
     <use x="1029.96875" xlink:href="#DejaVuSans-118"/>
     <use x="1089.148438" xlink:href="#DejaVuSans-101"/>
     <use x="1150.671875" xlink:href="#DejaVuSans-41"/>
    </g>
   </g>
   <g id="Line3DCollection_3">
    <path d="M 101.959834 226.297598 
L 240.985946 174.289727 
L 380.012058 226.297598 
" style="fill:none;stroke:#b0b0b0;stroke-width:0.8;"/>
    <path d="M 100.670825 203.710875 
L 240.985946 152.58698 
L 381.301067 203.710875 
" style="fill:none;stroke:#b0b0b0;stroke-width:0.8;"/>
    <path d="M 99.357689 180.701396 
L 240.985946 130.502292 
L 382.614203 180.701396 
" style="fill:none;stroke:#b0b0b0;stroke-width:0.8;"/>
    <path d="M 98.019743 157.257182 
L 240.985946 108.02549 
L 383.952149 157.257182 
" style="fill:none;stroke:#b0b0b0;stroke-width:0.8;"/>
    <path d="M 96.656278 133.365794 
L 240.985946 85.146039 
L 385.315614 133.365794 
" style="fill:none;stroke:#b0b0b0;stroke-width:0.8;"/>
    <path d="M 95.266555 109.014315 
L 240.985946 61.85302 
L 386.705337 109.014315 
" style="fill:none;stroke:#b0b0b0;stroke-width:0.8;"/>
   </g>
   <g id="xtick_13">
    <g id="line2d_16">
     <path d="M 103.140824 225.855805 
L 99.594316 227.182508 
" style="fill:none;stroke:#000000;stroke-linecap:square;stroke-width:0.8;"/>
    </g>
    <g id="text_16">
     <!-- 0.0 -->
     <defs>
      <path d="M 10.203125 18.890625 
L 27.78125 18.890625 
L 27.78125 0 
L 10.203125 0 
z
" id="DejaVuSans-Bold-46"/>
     </defs>
     <g transform="translate(71.629606 235.415723)scale(0.12 -0.12)">
      <use xlink:href="#DejaVuSans-Bold-48"/>
      <use x="69.580078" xlink:href="#DejaVuSans-Bold-46"/>
      <use x="107.568359" xlink:href="#DejaVuSans-Bold-48"/>
     </g>
    </g>
   </g>
   <g id="xtick_14">
    <g id="line2d_17">
     <path d="M 101.863407 203.276356 
L 98.282053 204.581225 
" style="fill:none;stroke:#000000;stroke-linecap:square;stroke-width:0.8;"/>
    </g>
    <g id="text_17">
     <!-- 0.2 -->
     <g transform="translate(70.157928 212.829)scale(0.12 -0.12)">
      <use xlink:href="#DejaVuSans-Bold-48"/>
      <use x="69.580078" xlink:href="#DejaVuSans-Bold-46"/>
      <use x="107.568359" xlink:href="#DejaVuSans-Bold-50"/>
     </g>
    </g>
   </g>
   <g id="xtick_15">
    <g id="line2d_18">
     <path d="M 100.562094 180.274504 
L 96.945203 181.556485 
" style="fill:none;stroke:#000000;stroke-linecap:square;stroke-width:0.8;"/>
    </g>
    <g id="text_18">
     <!-- 0.4 -->
     <g transform="translate(68.658704 189.819521)scale(0.12 -0.12)">
      <use xlink:href="#DejaVuSans-Bold-48"/>
      <use x="69.580078" xlink:href="#DejaVuSans-Bold-46"/>
      <use x="107.568359" xlink:href="#DejaVuSans-Bold-52"/>
     </g>
    </g>
   </g>
   <g id="xtick_16">
    <g id="line2d_19">
     <path d="M 99.236206 156.838282 
L 95.583068 158.096273 
" style="fill:none;stroke:#000000;stroke-linecap:square;stroke-width:0.8;"/>
    </g>
    <g id="text_19">
     <!-- 0.6 -->
     <g transform="translate(67.131154 166.375307)scale(0.12 -0.12)">
      <use xlink:href="#DejaVuSans-Bold-48"/>
      <use x="69.580078" xlink:href="#DejaVuSans-Bold-46"/>
      <use x="107.568359" xlink:href="#DejaVuSans-Bold-54"/>
     </g>
    </g>
   </g>
   <g id="xtick_17">
    <g id="line2d_20">
     <path d="M 97.885042 132.955271 
L 94.194926 134.188118 
" style="fill:none;stroke:#000000;stroke-linecap:square;stroke-width:0.8;"/>
    </g>
    <g id="text_20">
     <!-- 0.8 -->
     <g transform="translate(65.574467 142.483919)scale(0.12 -0.12)">
      <use xlink:href="#DejaVuSans-Bold-48"/>
      <use x="69.580078" xlink:href="#DejaVuSans-Bold-46"/>
      <use x="107.568359" xlink:href="#DejaVuSans-Bold-56"/>
     </g>
    </g>
   </g>
   <g id="xtick_18">
    <g id="line2d_21">
     <path d="M 96.507871 108.61257 
L 92.780023 109.819067 
" style="fill:none;stroke:#000000;stroke-linecap:square;stroke-width:0.8;"/>
    </g>
    <g id="text_21">
     <!-- 1.0 -->
     <g transform="translate(63.987803 118.13244)scale(0.12 -0.12)">
      <use xlink:href="#DejaVuSans-Bold-49"/>
      <use x="69.580078" xlink:href="#DejaVuSans-Bold-46"/>
      <use x="107.568359" xlink:href="#DejaVuSans-Bold-48"/>
     </g>
    </g>
   </g>
  </g>
  <g id="axes_1">
   <g id="Poly3DCollection_1">
    <path clip-path="url(#p9ad3da5dee)" d="M 226.443863 98.324008 
L 273.514185 95.119696 
L 240.985946 71.354916 
z
" style="fill:#0000c3;fill-opacity:0.5;"/>
    <path clip-path="url(#p9ad3da5dee)" d="M 240.985946 71.354916 
L 204.946872 112.61153 
L 226.443863 98.324008 
z
" style="fill:#0000c3;fill-opacity:0.5;"/>
    <path clip-path="url(#p9ad3da5dee)" d="M 273.514185 95.119696 
L 226.443863 98.324008 
L 225.868466 99.393303 
z
" style="fill:#0000c3;fill-opacity:0.5;"/>
    <path clip-path="url(#p9ad3da5dee)" d="M 273.514185 95.119696 
L 225.868466 99.393303 
L 231.588198 104.994745 
z
" style="fill:#0000c3;fill-opacity:0.5;"/>
    <path clip-path="url(#p9ad3da5dee)" d="M 231.588198 104.994745 
L 244.049406 113.298785 
L 273.514185 95.119696 
z
" style="fill:#0000c3;fill-opacity:0.5;"/>
    <path clip-path="url(#p9ad3da5dee)" d="M 225.868466 99.393303 
L 226.443863 98.324008 
L 204.946872 112.61153 
z
" style="fill:#0000c4;fill-opacity:0.5;"/>
    <path clip-path="url(#p9ad3da5dee)" d="M 254.276718 121.34162 
L 256.561241 127.343103 
L 273.514185 95.119696 
z
" style="fill:#0000bd;fill-opacity:0.5;"/>
    <path clip-path="url(#p9ad3da5dee)" d="M 273.514185 95.119696 
L 244.049406 113.298785 
L 254.276718 121.34162 
z
" style="fill:#0000c2;fill-opacity:0.5;"/>
    <path clip-path="url(#p9ad3da5dee)" d="M 231.588198 104.994745 
L 225.868466 99.393303 
L 204.946872 112.61153 
z
" style="fill:#0000c4;fill-opacity:0.5;"/>
    <path clip-path="url(#p9ad3da5dee)" d="M 204.946872 112.61153 
L 244.049406 113.298785 
L 231.588198 104.994745 
z
" style="fill:#0000c3;fill-opacity:0.5;"/>
    <path clip-path="url(#p9ad3da5dee)" d="M 256.561241 127.343103 
L 247.416029 145.811105 
L 273.514185 95.119696 
z
" style="fill:#0000c9;fill-opacity:0.5;"/>
    <path clip-path="url(#p9ad3da5dee)" d="M 201.586967 150.25661 
L 256.561241 127.343103 
L 254.276718 121.34162 
z
" style="fill:#0000c4;fill-opacity:0.5;"/>
    <path clip-path="url(#p9ad3da5dee)" d="M 244.049406 113.298785 
L 204.946872 112.61153 
L 201.586967 150.25661 
z
" style="fill:#0000c5;fill-opacity:0.5;"/>
    <path clip-path="url(#p9ad3da5dee)" d="M 254.276718 121.34162 
L 244.049406 113.298785 
L 201.586967 150.25661 
z
" style="fill:#0000c4;fill-opacity:0.5;"/>
    <path clip-path="url(#p9ad3da5dee)" d="M 273.514185 95.119696 
L 247.416029 145.811105 
L 244.247472 203.997665 
z
" style="fill:#0000b1;fill-opacity:0.5;"/>
    <path clip-path="url(#p9ad3da5dee)" d="M 217.576965 137.123998 
L 256.561241 127.343103 
L 201.586967 150.25661 
z
" style="fill:#0000c3;fill-opacity:0.5;"/>
    <path clip-path="url(#p9ad3da5dee)" d="M 247.361121 144.389509 
L 256.561241 127.343103 
L 217.576965 137.123998 
z
" style="fill:#0000c2;fill-opacity:0.5;"/>
    <path clip-path="url(#p9ad3da5dee)" d="M 247.361121 144.389509 
L 247.416029 145.811105 
L 256.561241 127.343103 
z
" style="fill:#00009a;fill-opacity:0.5;"/>
    <path clip-path="url(#p9ad3da5dee)" d="M 240.314634 252.082812 
L 244.247472 203.997665 
L 240.26579 276.411142 
z
" style="fill:#00005a;fill-opacity:0.5;"/>
    <path clip-path="url(#p9ad3da5dee)" d="M 234.290838 198.690516 
L 201.586967 150.25661 
L 240.26579 276.411142 
z
" style="fill:#0000df;fill-opacity:0.5;"/>
    <path clip-path="url(#p9ad3da5dee)" d="M 240.26579 276.411142 
L 240.511293 206.245912 
L 240.314634 252.082812 
z
" style="fill:#0000df;fill-opacity:0.5;"/>
    <path clip-path="url(#p9ad3da5dee)" d="M 201.586967 150.25661 
L 240.33568 147.929036 
L 217.576965 137.123998 
z
" style="fill:#0000c7;fill-opacity:0.5;"/>
    <path clip-path="url(#p9ad3da5dee)" d="M 217.576965 137.123998 
L 240.33568 147.929036 
L 247.361121 144.389509 
z
" style="fill:#0000c4;fill-opacity:0.5;"/>
    <path clip-path="url(#p9ad3da5dee)" d="M 240.26579 276.411142 
L 244.247472 203.997665 
L 234.290838 198.690516 
z
" style="fill:#0000ea;fill-opacity:0.5;"/>
    <path clip-path="url(#p9ad3da5dee)" d="M 240.33568 147.929036 
L 247.416029 145.811105 
L 247.361121 144.389509 
z
" style="fill:#0000c8;fill-opacity:0.5;"/>
    <path clip-path="url(#p9ad3da5dee)" d="M 201.586967 150.25661 
L 231.288373 192.197089 
L 240.33568 147.929036 
z
" style="fill:#0000ca;fill-opacity:0.5;"/>
    <path clip-path="url(#p9ad3da5dee)" d="M 234.290838 198.690516 
L 231.288373 192.197089 
L 201.586967 150.25661 
z
" style="fill:#0000c6;fill-opacity:0.5;"/>
    <path clip-path="url(#p9ad3da5dee)" d="M 231.288373 192.197089 
L 247.416029 145.811105 
L 240.33568 147.929036 
z
" style="fill:#0000c5;fill-opacity:0.5;"/>
    <path clip-path="url(#p9ad3da5dee)" d="M 240.314634 252.082812 
L 240.511293 206.245912 
L 244.247472 203.997665 
z
" style="fill:#00007a;fill-opacity:0.5;"/>
    <path clip-path="url(#p9ad3da5dee)" d="M 234.290838 198.690516 
L 247.416029 145.811105 
L 231.288373 192.197089 
z
" style="fill:#0000c9;fill-opacity:0.5;"/>
    <path clip-path="url(#p9ad3da5dee)" d="M 234.290838 198.690516 
L 244.247472 203.997665 
L 247.416029 145.811105 
z
" style="fill:#0000c8;fill-opacity:0.5;"/>
    <path clip-path="url(#p9ad3da5dee)" d="M 244.247472 203.997665 
L 240.511293 206.245912 
L 244.219814 204.31782 
z
" style="fill:#0000ce;fill-opacity:0.5;"/>
   </g>
   <g id="Path3DCollection_1">
    <defs>
     <path d="M 0 1.369306 
C 0.363144 1.369306 0.711464 1.225028 0.968246 0.968246 
C 1.225028 0.711464 1.369306 0.363144 1.369306 0 
C 1.369306 -0.363144 1.225028 -0.711464 0.968246 -0.968246 
C 0.711464 -1.225028 0.363144 -1.369306 0 -1.369306 
C -0.363144 -1.369306 -0.711464 -1.225028 -0.968246 -0.968246 
C -1.225028 -0.711464 -1.369306 -0.363144 -1.369306 0 
C -1.369306 0.363144 -1.225028 0.711464 -0.968246 0.968246 
C -0.711464 1.225028 -0.363144 1.369306 0 1.369306 
z
" id="C0_0_5381f2911d"/>
    </defs>
    <g clip-path="url(#p9ad3da5dee)">
     <use style="fill-opacity:0.7;stroke:#000000;stroke-opacity:0.7;" x="240.985946" xlink:href="#C0_0_5381f2911d" y="71.354916"/>
    </g>
    <g clip-path="url(#p9ad3da5dee)">
     <use style="fill-opacity:0.7;stroke:#000000;stroke-opacity:0.7;" x="244.219814" xlink:href="#C0_0_5381f2911d" y="204.31782"/>
    </g>
    <g clip-path="url(#p9ad3da5dee)">
     <use style="fill-opacity:0.7;stroke:#000000;stroke-opacity:0.7;" x="240.26579" xlink:href="#C0_0_5381f2911d" y="276.411142"/>
    </g>
    <g clip-path="url(#p9ad3da5dee)">
     <use style="fill-opacity:0.7;stroke:#000000;stroke-opacity:0.7;" x="240.511293" xlink:href="#C0_0_5381f2911d" y="206.245912"/>
    </g>
    <g clip-path="url(#p9ad3da5dee)">
     <use style="fill-opacity:0.7;stroke:#000000;stroke-opacity:0.7;" x="244.247472" xlink:href="#C0_0_5381f2911d" y="203.997665"/>
    </g>
    <g clip-path="url(#p9ad3da5dee)">
     <use style="fill-opacity:0.7;stroke:#000000;stroke-opacity:0.7;" x="244.247472" xlink:href="#C0_0_5381f2911d" y="203.997665"/>
    </g>
    <g clip-path="url(#p9ad3da5dee)">
     <use style="fill-opacity:0.7;stroke:#000000;stroke-opacity:0.7;" x="244.247472" xlink:href="#C0_0_5381f2911d" y="203.997665"/>
    </g>
    <g clip-path="url(#p9ad3da5dee)">
     <use style="fill-opacity:0.7;stroke:#000000;stroke-opacity:0.7;" x="244.247472" xlink:href="#C0_0_5381f2911d" y="203.997665"/>
    </g>
    <g clip-path="url(#p9ad3da5dee)">
     <use style="fill-opacity:0.7;stroke:#000000;stroke-opacity:0.7;" x="240.314634" xlink:href="#C0_0_5381f2911d" y="252.082812"/>
    </g>
    <g clip-path="url(#p9ad3da5dee)">
     <use style="fill-opacity:0.7;stroke:#000000;stroke-opacity:0.7;" x="240.33568" xlink:href="#C0_0_5381f2911d" y="147.929036"/>
    </g>
    <g clip-path="url(#p9ad3da5dee)">
     <use style="fill-opacity:0.7;stroke:#000000;stroke-opacity:0.7;" x="247.361121" xlink:href="#C0_0_5381f2911d" y="144.389509"/>
    </g>
    <g clip-path="url(#p9ad3da5dee)">
     <use style="fill-opacity:0.7;stroke:#000000;stroke-opacity:0.7;" x="247.361121" xlink:href="#C0_0_5381f2911d" y="144.389509"/>
    </g>
    <g clip-path="url(#p9ad3da5dee)">
     <use style="fill-opacity:0.7;stroke:#000000;stroke-opacity:0.7;" x="247.361121" xlink:href="#C0_0_5381f2911d" y="144.389509"/>
    </g>
    <g clip-path="url(#p9ad3da5dee)">
     <use style="fill-opacity:0.7;stroke:#000000;stroke-opacity:0.7;" x="247.361121" xlink:href="#C0_0_5381f2911d" y="144.389509"/>
    </g>
    <g clip-path="url(#p9ad3da5dee)">
     <use style="fill-opacity:0.7;stroke:#000000;stroke-opacity:0.7;" x="240.314634" xlink:href="#C0_0_5381f2911d" y="252.082812"/>
    </g>
    <g clip-path="url(#p9ad3da5dee)">
     <use style="fill-opacity:0.7;stroke:#000000;stroke-opacity:0.7;" x="240.314634" xlink:href="#C0_0_5381f2911d" y="252.082812"/>
    </g>
    <g clip-path="url(#p9ad3da5dee)">
     <use style="fill-opacity:0.7;stroke:#000000;stroke-opacity:0.7;" x="240.314634" xlink:href="#C0_0_5381f2911d" y="252.082812"/>
    </g>
    <g clip-path="url(#p9ad3da5dee)">
     <use style="fill-opacity:0.7;stroke:#000000;stroke-opacity:0.7;" x="217.576965" xlink:href="#C0_0_5381f2911d" y="137.123998"/>
    </g>
    <g clip-path="url(#p9ad3da5dee)">
     <use style="fill-opacity:0.7;stroke:#000000;stroke-opacity:0.7;" x="247.416029" xlink:href="#C0_0_5381f2911d" y="145.811105"/>
    </g>
    <g clip-path="url(#p9ad3da5dee)">
     <use style="fill-opacity:0.7;stroke:#000000;stroke-opacity:0.7;" x="256.561241" xlink:href="#C0_0_5381f2911d" y="127.343103"/>
    </g>
    <g clip-path="url(#p9ad3da5dee)">
     <use style="fill-opacity:0.7;stroke:#000000;stroke-opacity:0.7;" x="234.290838" xlink:href="#C0_0_5381f2911d" y="198.690516"/>
    </g>
    <g clip-path="url(#p9ad3da5dee)">
     <use style="fill-opacity:0.7;stroke:#000000;stroke-opacity:0.7;" x="244.049406" xlink:href="#C0_0_5381f2911d" y="113.298785"/>
    </g>
    <g clip-path="url(#p9ad3da5dee)">
     <use style="fill-opacity:0.7;stroke:#000000;stroke-opacity:0.7;" x="240.314634" xlink:href="#C0_0_5381f2911d" y="252.082812"/>
    </g>
    <g clip-path="url(#p9ad3da5dee)">
     <use style="fill-opacity:0.7;stroke:#000000;stroke-opacity:0.7;" x="201.586967" xlink:href="#C0_0_5381f2911d" y="150.25661"/>
    </g>
    <g clip-path="url(#p9ad3da5dee)">
     <use style="fill-opacity:0.7;stroke:#000000;stroke-opacity:0.7;" x="231.288373" xlink:href="#C0_0_5381f2911d" y="192.197089"/>
    </g>
    <g clip-path="url(#p9ad3da5dee)">
     <use style="fill-opacity:0.7;stroke:#000000;stroke-opacity:0.7;" x="201.586967" xlink:href="#C0_0_5381f2911d" y="150.25661"/>
    </g>
    <g clip-path="url(#p9ad3da5dee)">
     <use style="fill-opacity:0.7;stroke:#000000;stroke-opacity:0.7;" x="225.868466" xlink:href="#C0_0_5381f2911d" y="99.393303"/>
    </g>
    <g clip-path="url(#p9ad3da5dee)">
     <use style="fill-opacity:0.7;stroke:#000000;stroke-opacity:0.7;" x="226.443863" xlink:href="#C0_0_5381f2911d" y="98.324008"/>
    </g>
    <g clip-path="url(#p9ad3da5dee)">
     <use style="fill-opacity:0.7;stroke:#000000;stroke-opacity:0.7;" x="240.314634" xlink:href="#C0_0_5381f2911d" y="252.082812"/>
    </g>
    <g clip-path="url(#p9ad3da5dee)">
     <use style="fill-opacity:0.7;stroke:#000000;stroke-opacity:0.7;" x="204.946872" xlink:href="#C0_0_5381f2911d" y="112.61153"/>
    </g>
    <g clip-path="url(#p9ad3da5dee)">
     <use style="fill-opacity:0.7;stroke:#000000;stroke-opacity:0.7;" x="231.588198" xlink:href="#C0_0_5381f2911d" y="104.994745"/>
    </g>
    <g clip-path="url(#p9ad3da5dee)">
     <use style="fill-opacity:0.7;stroke:#000000;stroke-opacity:0.7;" x="254.276718" xlink:href="#C0_0_5381f2911d" y="121.34162"/>
    </g>
    <g clip-path="url(#p9ad3da5dee)">
     <use style="fill-opacity:0.7;stroke:#000000;stroke-opacity:0.7;" x="273.514185" xlink:href="#C0_0_5381f2911d" y="95.119696"/>
    </g>
   </g>
   <g id="Poly3DCollection_2">
    <path clip-path="url(#p9ad3da5dee)" d="M 287.932993 86.749202 
L 238.839801 105.310125 
L 287.42409 87.216889 
z
" style="fill:#c40000;fill-opacity:0.5;"/>
    <path clip-path="url(#p9ad3da5dee)" d="M 273.432728 99.315249 
L 287.42409 87.216889 
L 238.839801 105.310125 
z
" style="fill:#c40000;fill-opacity:0.5;"/>
    <path clip-path="url(#p9ad3da5dee)" d="M 267.517989 105.570912 
L 287.42409 87.216889 
L 273.432728 99.315249 
z
" style="fill:#c30000;fill-opacity:0.5;"/>
    <path clip-path="url(#p9ad3da5dee)" d="M 287.42409 87.216889 
L 261.472991 151.156316 
L 287.932993 86.749202 
z
" style="fill:#c30000;fill-opacity:0.5;"/>
    <path clip-path="url(#p9ad3da5dee)" d="M 267.517989 105.570912 
L 273.432728 99.315249 
L 254.325078 110.653314 
z
" style="fill:#c40000;fill-opacity:0.5;"/>
    <path clip-path="url(#p9ad3da5dee)" d="M 273.432728 99.315249 
L 238.839801 105.310125 
L 214.647527 115.198876 
z
" style="fill:#c40000;fill-opacity:0.5;"/>
    <path clip-path="url(#p9ad3da5dee)" d="M 254.325078 110.653314 
L 273.432728 99.315249 
L 229.085552 120.522495 
z
" style="fill:#c40000;fill-opacity:0.5;"/>
    <path clip-path="url(#p9ad3da5dee)" d="M 214.647527 115.198876 
L 229.085552 120.522495 
L 273.432728 99.315249 
z
" style="fill:#c40000;fill-opacity:0.5;"/>
    <path clip-path="url(#p9ad3da5dee)" d="M 287.42409 87.216889 
L 267.517989 105.570912 
L 261.472991 151.156316 
z
" style="fill:#c30000;fill-opacity:0.5;"/>
    <path clip-path="url(#p9ad3da5dee)" d="M 254.325078 110.653314 
L 251.845266 123.58864 
L 267.517989 105.570912 
z
" style="fill:#c40000;fill-opacity:0.5;"/>
    <path clip-path="url(#p9ad3da5dee)" d="M 229.085552 120.522495 
L 251.845266 123.58864 
L 254.325078 110.653314 
z
" style="fill:#c40000;fill-opacity:0.5;"/>
    <path clip-path="url(#p9ad3da5dee)" d="M 244.781617 126.489578 
L 251.845266 123.58864 
L 229.085552 120.522495 
z
" style="fill:#c40000;fill-opacity:0.5;"/>
    <path clip-path="url(#p9ad3da5dee)" d="M 261.472991 151.156316 
L 267.517989 105.570912 
L 251.845266 123.58864 
z
" style="fill:#c30000;fill-opacity:0.5;"/>
    <path clip-path="url(#p9ad3da5dee)" d="M 214.647527 115.198876 
L 228.172599 140.951213 
L 229.085552 120.522495 
z
" style="fill:#c40000;fill-opacity:0.5;"/>
    <path clip-path="url(#p9ad3da5dee)" d="M 228.172599 140.951213 
L 214.647527 115.198876 
L 240.266369 276.990641 
z
" style="fill:#e00000;fill-opacity:0.5;"/>
    <path clip-path="url(#p9ad3da5dee)" d="M 244.781617 126.489578 
L 229.085552 120.522495 
L 228.172599 140.951213 
z
" style="fill:#c40000;fill-opacity:0.5;"/>
    <path clip-path="url(#p9ad3da5dee)" d="M 228.172599 140.951213 
L 251.845266 123.58864 
L 244.781617 126.489578 
z
" style="fill:#c40000;fill-opacity:0.5;"/>
    <path clip-path="url(#p9ad3da5dee)" d="M 251.845266 123.58864 
L 228.172599 140.951213 
L 249.022491 138.28954 
z
" style="fill:#c40000;fill-opacity:0.5;"/>
    <path clip-path="url(#p9ad3da5dee)" d="M 249.022491 138.28954 
L 261.472991 151.156316 
L 251.845266 123.58864 
z
" style="fill:#c30000;fill-opacity:0.5;"/>
    <path clip-path="url(#p9ad3da5dee)" d="M 234.893921 144.263882 
L 228.172599 140.951213 
L 240.266369 276.990641 
z
" style="fill:#d70000;fill-opacity:0.5;"/>
    <path clip-path="url(#p9ad3da5dee)" d="M 242.570069 205.345151 
L 240.315179 252.083035 
L 240.266369 276.990641 
z
" style="fill:#ee0000;fill-opacity:0.5;"/>
    <path clip-path="url(#p9ad3da5dee)" d="M 240.266369 276.990641 
L 261.472991 151.156316 
L 234.893921 144.263882 
z
" style="fill:#d00000;fill-opacity:0.5;"/>
    <path clip-path="url(#p9ad3da5dee)" d="M 240.266369 276.990641 
L 240.315179 252.083035 
L 248.341031 180.542319 
z
" style="fill:#bc0000;fill-opacity:0.5;"/>
    <path clip-path="url(#p9ad3da5dee)" d="M 249.022491 138.28954 
L 228.172599 140.951213 
L 234.893921 144.263882 
z
" style="fill:#c40000;fill-opacity:0.5;"/>
    <path clip-path="url(#p9ad3da5dee)" d="M 248.341031 180.542319 
L 261.472991 151.156316 
L 240.266369 276.990641 
z
" style="fill:#db0000;fill-opacity:0.5;"/>
    <path clip-path="url(#p9ad3da5dee)" d="M 234.893921 144.263882 
L 261.472991 151.156316 
L 249.022491 138.28954 
z
" style="fill:#c40000;fill-opacity:0.5;"/>
    <path clip-path="url(#p9ad3da5dee)" d="M 242.570069 205.345151 
L 248.341031 180.542319 
L 240.315179 252.083035 
z
" style="fill:#d70000;fill-opacity:0.5;"/>
   </g>
   <g id="Path3DCollection_2">
    <defs>
     <path d="M 0 1.369306 
C 0.363144 1.369306 0.711464 1.225028 0.968246 0.968246 
C 1.225028 0.711464 1.369306 0.363144 1.369306 0 
C 1.369306 -0.363144 1.225028 -0.711464 0.968246 -0.968246 
C 0.711464 -1.225028 0.363144 -1.369306 0 -1.369306 
C -0.363144 -1.369306 -0.711464 -1.225028 -0.968246 -0.968246 
C -1.225028 -0.711464 -1.369306 -0.363144 -1.369306 0 
C -1.369306 0.363144 -1.225028 0.711464 -0.968246 0.968246 
C -0.711464 1.225028 -0.363144 1.369306 0 1.369306 
z
" id="C1_0_2e9b312aaf"/>
    </defs>
    <g clip-path="url(#p9ad3da5dee)">
     <use style="fill-opacity:0.7;stroke:#000000;stroke-opacity:0.7;" x="240.315179" xlink:href="#C1_0_2e9b312aaf" y="252.083035"/>
    </g>
    <g clip-path="url(#p9ad3da5dee)">
     <use style="fill-opacity:0.7;stroke:#000000;stroke-opacity:0.7;" x="248.341031" xlink:href="#C1_0_2e9b312aaf" y="180.542319"/>
    </g>
    <g clip-path="url(#p9ad3da5dee)">
     <use style="fill-opacity:0.7;stroke:#000000;stroke-opacity:0.7;" x="248.341031" xlink:href="#C1_0_2e9b312aaf" y="180.542319"/>
    </g>
    <g clip-path="url(#p9ad3da5dee)">
     <use style="fill-opacity:0.7;stroke:#000000;stroke-opacity:0.7;" x="248.341031" xlink:href="#C1_0_2e9b312aaf" y="180.542319"/>
    </g>
    <g clip-path="url(#p9ad3da5dee)">
     <use style="fill-opacity:0.7;stroke:#000000;stroke-opacity:0.7;" x="248.341031" xlink:href="#C1_0_2e9b312aaf" y="180.542319"/>
    </g>
    <g clip-path="url(#p9ad3da5dee)">
     <use style="fill-opacity:0.7;stroke:#000000;stroke-opacity:0.7;" x="248.341031" xlink:href="#C1_0_2e9b312aaf" y="180.542319"/>
    </g>
    <g clip-path="url(#p9ad3da5dee)">
     <use style="fill-opacity:0.7;stroke:#000000;stroke-opacity:0.7;" x="240.315179" xlink:href="#C1_0_2e9b312aaf" y="252.083035"/>
    </g>
    <g clip-path="url(#p9ad3da5dee)">
     <use style="fill-opacity:0.7;stroke:#000000;stroke-opacity:0.7;" x="261.472991" xlink:href="#C1_0_2e9b312aaf" y="151.156316"/>
    </g>
    <g clip-path="url(#p9ad3da5dee)">
     <use style="fill-opacity:0.7;stroke:#000000;stroke-opacity:0.7;" x="261.472991" xlink:href="#C1_0_2e9b312aaf" y="151.156316"/>
    </g>
    <g clip-path="url(#p9ad3da5dee)">
     <use style="fill-opacity:0.7;stroke:#000000;stroke-opacity:0.7;" x="261.472991" xlink:href="#C1_0_2e9b312aaf" y="151.156316"/>
    </g>
    <g clip-path="url(#p9ad3da5dee)">
     <use style="fill-opacity:0.7;stroke:#000000;stroke-opacity:0.7;" x="261.472991" xlink:href="#C1_0_2e9b312aaf" y="151.156316"/>
    </g>
    <g clip-path="url(#p9ad3da5dee)">
     <use style="fill-opacity:0.7;stroke:#000000;stroke-opacity:0.7;" x="240.315179" xlink:href="#C1_0_2e9b312aaf" y="252.083035"/>
    </g>
    <g clip-path="url(#p9ad3da5dee)">
     <use style="fill-opacity:0.7;stroke:#000000;stroke-opacity:0.7;" x="234.893921" xlink:href="#C1_0_2e9b312aaf" y="144.263882"/>
    </g>
    <g clip-path="url(#p9ad3da5dee)">
     <use style="fill-opacity:0.7;stroke:#000000;stroke-opacity:0.7;" x="249.022491" xlink:href="#C1_0_2e9b312aaf" y="138.28954"/>
    </g>
    <g clip-path="url(#p9ad3da5dee)">
     <use style="fill-opacity:0.7;stroke:#000000;stroke-opacity:0.7;" x="249.022491" xlink:href="#C1_0_2e9b312aaf" y="138.28954"/>
    </g>
    <g clip-path="url(#p9ad3da5dee)">
     <use style="fill-opacity:0.7;stroke:#000000;stroke-opacity:0.7;" x="249.022491" xlink:href="#C1_0_2e9b312aaf" y="138.28954"/>
    </g>
    <g clip-path="url(#p9ad3da5dee)">
     <use style="fill-opacity:0.7;stroke:#000000;stroke-opacity:0.7;" x="249.022491" xlink:href="#C1_0_2e9b312aaf" y="138.28954"/>
    </g>
    <g clip-path="url(#p9ad3da5dee)">
     <use style="fill-opacity:0.7;stroke:#000000;stroke-opacity:0.7;" x="240.315176" xlink:href="#C1_0_2e9b312aaf" y="252.071208"/>
    </g>
    <g clip-path="url(#p9ad3da5dee)">
     <use style="fill-opacity:0.7;stroke:#000000;stroke-opacity:0.7;" x="228.172599" xlink:href="#C1_0_2e9b312aaf" y="140.951213"/>
    </g>
    <g clip-path="url(#p9ad3da5dee)">
     <use style="fill-opacity:0.7;stroke:#000000;stroke-opacity:0.7;" x="244.781617" xlink:href="#C1_0_2e9b312aaf" y="126.489578"/>
    </g>
    <g clip-path="url(#p9ad3da5dee)">
     <use style="fill-opacity:0.7;stroke:#000000;stroke-opacity:0.7;" x="251.845266" xlink:href="#C1_0_2e9b312aaf" y="123.58864"/>
    </g>
    <g clip-path="url(#p9ad3da5dee)">
     <use style="fill-opacity:0.7;stroke:#000000;stroke-opacity:0.7;" x="251.845266" xlink:href="#C1_0_2e9b312aaf" y="123.58864"/>
    </g>
    <g clip-path="url(#p9ad3da5dee)">
     <use style="fill-opacity:0.7;stroke:#000000;stroke-opacity:0.7;" x="251.845266" xlink:href="#C1_0_2e9b312aaf" y="123.58864"/>
    </g>
    <g clip-path="url(#p9ad3da5dee)">
     <use style="fill-opacity:0.7;stroke:#000000;stroke-opacity:0.7;" x="240.315179" xlink:href="#C1_0_2e9b312aaf" y="252.083035"/>
    </g>
    <g clip-path="url(#p9ad3da5dee)">
     <use style="fill-opacity:0.7;stroke:#000000;stroke-opacity:0.7;" x="228.172599" xlink:href="#C1_0_2e9b312aaf" y="140.951213"/>
    </g>
    <g clip-path="url(#p9ad3da5dee)">
     <use style="fill-opacity:0.7;stroke:#000000;stroke-opacity:0.7;" x="229.085552" xlink:href="#C1_0_2e9b312aaf" y="120.522495"/>
    </g>
    <g clip-path="url(#p9ad3da5dee)">
     <use style="fill-opacity:0.7;stroke:#000000;stroke-opacity:0.7;" x="254.325078" xlink:href="#C1_0_2e9b312aaf" y="110.653314"/>
    </g>
    <g clip-path="url(#p9ad3da5dee)">
     <use style="fill-opacity:0.7;stroke:#000000;stroke-opacity:0.7;" x="267.517989" xlink:href="#C1_0_2e9b312aaf" y="105.570912"/>
    </g>
    <g clip-path="url(#p9ad3da5dee)">
     <use style="fill-opacity:0.7;stroke:#000000;stroke-opacity:0.7;" x="267.517989" xlink:href="#C1_0_2e9b312aaf" y="105.570912"/>
    </g>
    <g clip-path="url(#p9ad3da5dee)">
     <use style="fill-opacity:0.7;stroke:#000000;stroke-opacity:0.7;" x="240.315179" xlink:href="#C1_0_2e9b312aaf" y="252.083035"/>
    </g>
    <g clip-path="url(#p9ad3da5dee)">
     <use style="fill-opacity:0.7;stroke:#000000;stroke-opacity:0.7;" x="228.172599" xlink:href="#C1_0_2e9b312aaf" y="140.951213"/>
    </g>
    <g clip-path="url(#p9ad3da5dee)">
     <use style="fill-opacity:0.7;stroke:#000000;stroke-opacity:0.7;" x="214.647527" xlink:href="#C1_0_2e9b312aaf" y="115.198876"/>
    </g>
    <g clip-path="url(#p9ad3da5dee)">
     <use style="fill-opacity:0.7;stroke:#000000;stroke-opacity:0.7;" x="238.839801" xlink:href="#C1_0_2e9b312aaf" y="105.310125"/>
    </g>
    <g clip-path="url(#p9ad3da5dee)">
     <use style="fill-opacity:0.7;stroke:#000000;stroke-opacity:0.7;" x="273.432728" xlink:href="#C1_0_2e9b312aaf" y="99.315249"/>
    </g>
    <g clip-path="url(#p9ad3da5dee)">
     <use style="fill-opacity:0.7;stroke:#000000;stroke-opacity:0.7;" x="287.42409" xlink:href="#C1_0_2e9b312aaf" y="87.216889"/>
    </g>
    <g clip-path="url(#p9ad3da5dee)">
     <use style="fill-opacity:0.7;stroke:#000000;stroke-opacity:0.7;" x="287.932993" xlink:href="#C1_0_2e9b312aaf" y="86.749202"/>
    </g>
    <g clip-path="url(#p9ad3da5dee)">
     <use style="fill-opacity:0.7;stroke:#000000;stroke-opacity:0.7;" x="242.570069" xlink:href="#C1_0_2e9b312aaf" y="205.345151"/>
    </g>
    <g clip-path="url(#p9ad3da5dee)">
     <use style="fill-opacity:0.7;stroke:#000000;stroke-opacity:0.7;" x="240.266369" xlink:href="#C1_0_2e9b312aaf" y="276.990641"/>
    </g>
   </g>
  </g>
 </g>
 <defs>
  <clipPath id="p9ad3da5dee">
   <rect height="266.112" width="357.12" x="57.6" y="41.472"/>
  </clipPath>
 </defs>
</svg>
