<?xml version="1.0" encoding="utf-8" standalone="no"?>
<!DOCTYPE svg PUBLIC "-//W3C//DTD SVG 1.1//EN"
  "http://www.w3.org/Graphics/SVG/1.1/DTD/svg11.dtd">
<!-- Created with matplotlib (https://matplotlib.org/) -->
<svg height="345.6pt" version="1.1" viewBox="0 0 460.8 345.6" width="460.8pt" xmlns="http://www.w3.org/2000/svg" xmlns:xlink="http://www.w3.org/1999/xlink">
 <metadata>
  <rdf:RDF xmlns:cc="http://creativecommons.org/ns#" xmlns:dc="http://purl.org/dc/elements/1.1/" xmlns:rdf="http://www.w3.org/1999/02/22-rdf-syntax-ns#">
   <cc:Work>
    <dc:type rdf:resource="http://purl.org/dc/dcmitype/StillImage"/>
    <dc:date>2022-10-23T17:22:33.164535</dc:date>
    <dc:format>image/svg+xml</dc:format>
    <dc:creator>
     <cc:Agent>
      <dc:title>Matplotlib v3.3.4, https://matplotlib.org/</dc:title>
     </cc:Agent>
    </dc:creator>
   </cc:Work>
  </rdf:RDF>
 </metadata>
 <defs>
  <style type="text/css">*{stroke-linecap:butt;stroke-linejoin:round;}</style>
 </defs>
 <g id="figure_1">
  <g id="patch_1">
   <path d="M 0 345.6 
L 460.8 345.6 
L 460.8 0 
L 0 0 
z
" style="fill:#ffffff;"/>
  </g>
  <g id="axes_1">
   <g id="patch_2">
    <path d="M 57.6 307.584 
L 414.72 307.584 
L 414.72 41.472 
L 57.6 41.472 
z
" style="fill:#ffffff;"/>
   </g>
   <g id="PathCollection_1">
    <path clip-path="url(#pa730d7bfc2)" d="M 398.487273 59.51905 
C 400.06551 59.51905 401.579319 58.89201 402.695301 57.776028 
C 403.811283 56.660046 404.438323 55.146237 404.438323 53.568 
C 404.438323 51.989763 403.811283 50.475954 402.695301 49.359972 
C 401.579319 48.24399 400.06551 47.61695 398.487273 47.61695 
C 396.909036 47.61695 395.395227 48.24399 394.279245 49.359972 
C 393.163263 50.475954 392.536222 51.989763 392.536222 53.568 
C 392.536222 55.146237 393.163263 56.660046 394.279245 57.776028 
C 395.395227 58.89201 396.909036 59.51905 398.487273 59.51905 
z
" style="fill:#08306b;fill-opacity:0.7;stroke:#000000;stroke-opacity:0.7;"/>
    <path clip-path="url(#pa730d7bfc2)" d="M 255.405238 191.444867 
C 256.808749 191.444867 258.154965 190.887246 259.147397 189.894814 
C 260.139829 188.902382 260.697449 187.556166 260.697449 186.152655 
C 260.697449 184.749145 260.139829 183.402929 259.147397 182.410497 
C 258.154965 181.418065 256.808749 180.860444 255.405238 180.860444 
C 254.001727 180.860444 252.655512 181.418065 251.66308 182.410497 
C 250.670648 183.402929 250.113027 184.749145 250.113027 186.152655 
C 250.113027 187.556166 250.670648 188.902382 251.66308 189.894814 
C 252.655512 190.887246 254.001727 191.444867 255.405238 191.444867 
z
" style="fill:#eaf3fb;fill-opacity:0.7;stroke:#000000;stroke-opacity:0.7;"/>
    <path clip-path="url(#pa730d7bfc2)" d="M 266.806925 299.915753 
C 267.981179 299.915753 269.107496 299.449217 269.937819 298.618894 
C 270.768142 297.788572 271.234678 296.662254 271.234678 295.488 
C 271.234678 294.313746 270.768142 293.187428 269.937819 292.357106 
C 269.107496 291.526783 267.981179 291.060247 266.806925 291.060247 
C 265.632671 291.060247 264.506353 291.526783 263.67603 292.357106 
C 262.845707 293.187428 262.379171 294.313746 262.379171 295.488 
C 262.379171 296.662254 262.845707 297.788572 263.67603 298.618894 
C 264.506353 299.449217 265.632671 299.915753 266.806925 299.915753 
z
" style="fill:#7f2704;fill-opacity:0.7;stroke:#000000;stroke-opacity:0.7;"/>
    <path clip-path="url(#pa730d7bfc2)" d="M 256.311894 196.906597 
C 257.704905 196.906597 259.041049 196.353148 260.026056 195.368141 
C 261.011063 194.383134 261.564512 193.046989 261.564512 191.653979 
C 261.564512 190.260968 261.011063 188.924824 260.026056 187.939817 
C 259.041049 186.954809 257.704905 186.40136 256.311894 186.40136 
C 254.918883 186.40136 253.582739 186.954809 252.597732 187.939817 
C 251.612725 188.924824 251.059276 190.260968 251.059276 191.653979 
C 251.059276 193.046989 251.612725 194.383134 252.597732 195.368141 
C 253.582739 196.353148 254.918883 196.906597 256.311894 196.906597 
z
" style="fill:#f5fafe;fill-opacity:0.7;stroke:#000000;stroke-opacity:0.7;"/>
    <path clip-path="url(#pa730d7bfc2)" d="M 256.311894 192.081643 
C 257.715655 192.081643 259.062111 191.523922 260.05472 190.531313 
C 261.04733 189.538704 261.60505 188.192248 261.60505 186.788487 
C 261.60505 185.384725 261.04733 184.03827 260.05472 183.04566 
C 259.062111 182.053051 257.715655 181.495331 256.311894 181.495331 
C 254.908133 181.495331 253.561677 182.053051 252.569067 183.04566 
C 251.576458 184.03827 251.018738 185.384725 251.018738 186.788487 
C 251.018738 188.192248 251.576458 189.538704 252.569067 190.531313 
C 253.561677 191.523922 254.908133 192.081643 256.311894 192.081643 
z
" style="fill:#eaf3fb;fill-opacity:0.7;stroke:#000000;stroke-opacity:0.7;"/>
    <path clip-path="url(#pa730d7bfc2)" d="M 270.061754 298.185125 
C 271.238924 298.185125 272.368039 297.71743 273.200424 296.885045 
C 274.032809 296.05266 274.500504 294.923545 274.500504 293.746375 
C 274.500504 292.569205 274.032809 291.44009 273.200424 290.607705 
C 272.368039 289.77532 271.238924 289.307625 270.061754 289.307625 
C 268.884584 289.307625 267.755469 289.77532 266.923084 290.607705 
C 266.090699 291.44009 265.623004 292.569205 265.623004 293.746375 
C 265.623004 294.923545 266.090699 296.05266 266.923084 296.885045 
C 267.755469 297.71743 268.884584 298.185125 270.061754 298.185125 
z
" style="fill:#812804;fill-opacity:0.7;stroke:#000000;stroke-opacity:0.7;"/>
    <path clip-path="url(#pa730d7bfc2)" d="M 303.164477 215.026034 
C 304.487372 215.026034 305.756264 214.500442 306.691692 213.565013 
C 307.627121 212.629585 308.152713 211.360693 308.152713 210.037798 
C 308.152713 208.714902 307.627121 207.446011 306.691692 206.510582 
C 305.756264 205.575154 304.487372 205.049562 303.164477 205.049562 
C 301.841581 205.049562 300.57269 205.575154 299.637261 206.510582 
C 298.701833 207.446011 298.176241 208.714902 298.176241 210.037798 
C 298.176241 211.360693 298.701833 212.629585 299.637261 213.565013 
C 300.57269 214.500442 301.841581 215.026034 303.164477 215.026034 
z
" style="fill:#fdba7e;fill-opacity:0.7;stroke:#000000;stroke-opacity:0.7;"/>
    <path clip-path="url(#pa730d7bfc2)" d="M 303.164477 154.066017 
C 304.618506 154.066017 306.013177 153.488325 307.041331 152.460172 
C 308.069485 151.432018 308.647177 150.037346 308.647177 148.583317 
C 308.647177 147.129288 308.069485 145.734617 307.041331 144.706463 
C 306.013177 143.678309 304.618506 143.100617 303.164477 143.100617 
C 301.710448 143.100617 300.315776 143.678309 299.287622 144.706463 
C 298.259468 145.734617 297.681777 147.129288 297.681777 148.583317 
C 297.681777 150.037346 298.259468 151.432018 299.287622 152.460172 
C 300.315776 153.488325 301.710448 154.066017 303.164477 154.066017 
z
" style="fill:#afd1e7;fill-opacity:0.7;stroke:#000000;stroke-opacity:0.7;"/>
    <path clip-path="url(#pa730d7bfc2)" d="M 303.164477 150.066455 
C 304.628208 150.066455 306.032186 149.484908 307.0672 148.449894 
C 308.102214 147.414879 308.683761 146.010902 308.683761 144.54717 
C 308.683761 143.083439 308.102214 141.679461 307.0672 140.644447 
C 306.032186 139.609433 304.628208 139.027886 303.164477 139.027886 
C 301.700745 139.027886 300.296768 139.609433 299.261753 140.644447 
C 298.226739 141.679461 297.645192 143.083439 297.645192 144.54717 
C 297.645192 146.010902 298.226739 147.414879 299.261753 148.449894 
C 300.296768 149.484908 301.700745 150.066455 303.164477 150.066455 
z
" style="fill:#a0cbe2;fill-opacity:0.7;stroke:#000000;stroke-opacity:0.7;"/>
    <path clip-path="url(#pa730d7bfc2)" d="M 269.963913 298.129835 
C 271.141084 298.129835 272.270198 297.662141 273.102584 296.829755 
C 273.934969 295.99737 274.402663 294.868256 274.402663 293.691085 
C 274.402663 292.513915 273.934969 291.3848 273.102584 290.552415 
C 272.270198 289.72003 271.141084 289.252336 269.963913 289.252336 
C 268.786743 289.252336 267.657628 289.72003 266.825243 290.552415 
C 265.992858 291.3848 265.525164 292.513915 265.525164 293.691085 
C 265.525164 294.868256 265.992858 295.99737 266.825243 296.829755 
C 267.657628 297.662141 268.786743 298.129835 269.963913 298.129835 
z
" style="fill:#812804;fill-opacity:0.7;stroke:#000000;stroke-opacity:0.7;"/>
    <path clip-path="url(#pa730d7bfc2)" d="M 317.377449 210.934597 
C 318.700344 210.934597 319.969236 210.409005 320.904664 209.473577 
C 321.840093 208.538148 322.365685 207.269257 322.365685 205.946361 
C 322.365685 204.623466 321.840093 203.354574 320.904664 202.419146 
C 319.969236 201.483717 318.700344 200.958125 317.377449 200.958125 
C 316.054553 200.958125 314.785662 201.483717 313.850233 202.419146 
C 312.914805 203.354574 312.389213 204.623466 312.389213 205.946361 
C 312.389213 207.269257 312.914805 208.538148 313.850233 209.473577 
C 314.785662 210.409005 316.054553 210.934597 317.377449 210.934597 
z
" style="fill:#fdba7e;fill-opacity:0.7;stroke:#000000;stroke-opacity:0.7;"/>
    <path clip-path="url(#pa730d7bfc2)" d="M 350.010537 142.060171 
C 351.462448 142.060171 352.855088 141.48332 353.881745 140.456664 
C 354.908401 139.430008 355.485251 138.037368 355.485251 136.585456 
C 355.485251 135.133545 354.908401 133.740905 353.881745 132.714248 
C 352.855088 131.687592 351.462448 131.110742 350.010537 131.110742 
C 348.558625 131.110742 347.165985 131.687592 346.139329 132.714248 
C 345.112673 133.740905 344.535822 135.133545 344.535822 136.585456 
C 344.535822 138.037368 345.112673 139.430008 346.139329 140.456664 
C 347.165985 141.48332 348.558625 142.060171 350.010537 142.060171 
z
" style="fill:#b4d3e9;fill-opacity:0.7;stroke:#000000;stroke-opacity:0.7;"/>
    <path clip-path="url(#pa730d7bfc2)" d="M 350.010537 106.245227 
C 351.531818 106.245227 352.990996 105.640816 354.066705 104.565107 
C 355.142413 103.489399 355.746825 102.030221 355.746825 100.508939 
C 355.746825 98.987658 355.142413 97.52848 354.066705 96.452771 
C 352.990996 95.377063 351.531818 94.772651 350.010537 94.772651 
C 348.489255 94.772651 347.030077 95.377063 345.954369 96.452771 
C 344.87866 97.52848 344.274249 98.987658 344.274249 100.508939 
C 344.274249 102.030221 344.87866 103.489399 345.954369 104.565107 
C 347.030077 105.640816 348.489255 106.245227 350.010537 106.245227 
z
" style="fill:#3282be;fill-opacity:0.7;stroke:#000000;stroke-opacity:0.7;"/>
    <path clip-path="url(#pa730d7bfc2)" d="M 269.963913 298.129835 
C 271.141084 298.129835 272.270198 297.662141 273.102584 296.829755 
C 273.934969 295.99737 274.402663 294.868256 274.402663 293.691085 
C 274.402663 292.513915 273.934969 291.3848 273.102584 290.552415 
C 272.270198 289.72003 271.141084 289.252336 269.963913 289.252336 
C 268.786743 289.252336 267.657628 289.72003 266.825243 290.552415 
C 265.992858 291.3848 265.525164 292.513915 265.525164 293.691085 
C 265.525164 294.868256 265.992858 295.99737 266.825243 296.829755 
C 267.657628 297.662141 268.786743 298.129835 269.963913 298.129835 
z
" style="fill:#812804;fill-opacity:0.7;stroke:#000000;stroke-opacity:0.7;"/>
    <path clip-path="url(#pa730d7bfc2)" d="M 307.443371 219.17276 
C 308.766266 219.17276 310.035158 218.647168 310.970586 217.711739 
C 311.906015 216.776311 312.431607 215.50742 312.431607 214.184524 
C 312.431607 212.861628 311.906015 211.592737 310.970586 210.657308 
C 310.035158 209.72188 308.766266 209.196288 307.443371 209.196288 
C 306.120475 209.196288 304.851583 209.72188 303.916155 210.657308 
C 302.980726 211.592737 302.455134 212.861628 302.455134 214.184524 
C 302.455134 215.50742 302.980726 216.776311 303.916155 217.711739 
C 304.851583 218.647168 306.120475 219.17276 307.443371 219.17276 
z
" style="fill:#fdba7e;fill-opacity:0.7;stroke:#000000;stroke-opacity:0.7;"/>
    <path clip-path="url(#pa730d7bfc2)" d="M 360.309886 136.732702 
C 361.763915 136.732702 363.158587 136.15501 364.186741 135.126856 
C 365.214895 134.098703 365.792586 132.704031 365.792586 131.250002 
C 365.792586 129.795973 365.214895 128.401301 364.186741 127.373148 
C 363.158587 126.344994 361.763915 125.767302 360.309886 125.767302 
C 358.855857 125.767302 357.461186 126.344994 356.433032 127.373148 
C 355.404878 128.401301 354.827186 129.795973 354.827186 131.250002 
C 354.827186 132.704031 355.404878 134.098703 356.433032 135.126856 
C 357.461186 136.15501 358.855857 136.732702 360.309886 136.732702 
z
" style="fill:#afd1e7;fill-opacity:0.7;stroke:#000000;stroke-opacity:0.7;"/>
    <path clip-path="url(#pa730d7bfc2)" d="M 396.863119 62.268602 
C 398.437396 62.268602 399.947407 61.643135 401.060589 60.529954 
C 402.173771 59.416772 402.799238 57.906761 402.799238 56.332484 
C 402.799238 54.758207 402.173771 53.248197 401.060589 52.135015 
C 399.947407 51.021833 398.437396 50.396366 396.863119 50.396366 
C 395.288842 50.396366 393.778832 51.021833 392.66565 52.135015 
C 391.552468 53.248197 390.927001 54.758207 390.927001 56.332484 
C 390.927001 57.906761 391.552468 59.416772 392.66565 60.529954 
C 393.778832 61.643135 395.288842 62.268602 396.863119 62.268602 
z
" style="fill:#083471;fill-opacity:0.7;stroke:#000000;stroke-opacity:0.7;"/>
   </g>
   <g id="matplotlib.axis_1">
    <g id="xtick_1">
     <g id="line2d_1">
      <defs>
       <path d="M 0 0 
L 0 3.5 
" id="mf1a6f7aa3c" style="stroke:#000000;stroke-width:0.8;"/>
      </defs>
      <g>
       <use style="stroke:#000000;stroke-width:0.8;" x="73.832727" xlink:href="#mf1a6f7aa3c" y="307.584"/>
      </g>
     </g>
     <g id="text_1">
      <!-- 0 -->
      <g transform="translate(70.651477 322.182437)scale(0.1 -0.1)">
       <defs>
        <path d="M 31.78125 66.40625 
Q 24.171875 66.40625 20.328125 58.90625 
Q 16.5 51.421875 16.5 36.375 
Q 16.5 21.390625 20.328125 13.890625 
Q 24.171875 6.390625 31.78125 6.390625 
Q 39.453125 6.390625 43.28125 13.890625 
Q 47.125 21.390625 47.125 36.375 
Q 47.125 51.421875 43.28125 58.90625 
Q 39.453125 66.40625 31.78125 66.40625 
z
M 31.78125 74.21875 
Q 44.046875 74.21875 50.515625 64.515625 
Q 56.984375 54.828125 56.984375 36.375 
Q 56.984375 17.96875 50.515625 8.265625 
Q 44.046875 -1.421875 31.78125 -1.421875 
Q 19.53125 -1.421875 13.0625 8.265625 
Q 6.59375 17.96875 6.59375 36.375 
Q 6.59375 54.828125 13.0625 64.515625 
Q 19.53125 74.21875 31.78125 74.21875 
z
" id="DejaVuSans-48"/>
       </defs>
       <use xlink:href="#DejaVuSans-48"/>
      </g>
     </g>
    </g>
    <g id="xtick_2">
     <g id="line2d_2">
      <g>
       <use style="stroke:#000000;stroke-width:0.8;" x="139.059767" xlink:href="#mf1a6f7aa3c" y="307.584"/>
      </g>
     </g>
     <g id="text_2">
      <!-- 1 -->
      <g transform="translate(135.878517 322.182437)scale(0.1 -0.1)">
       <defs>
        <path d="M 12.40625 8.296875 
L 28.515625 8.296875 
L 28.515625 63.921875 
L 10.984375 60.40625 
L 10.984375 69.390625 
L 28.421875 72.90625 
L 38.28125 72.90625 
L 38.28125 8.296875 
L 54.390625 8.296875 
L 54.390625 0 
L 12.40625 0 
z
" id="DejaVuSans-49"/>
       </defs>
       <use xlink:href="#DejaVuSans-49"/>
      </g>
     </g>
    </g>
    <g id="xtick_3">
     <g id="line2d_3">
      <g>
       <use style="stroke:#000000;stroke-width:0.8;" x="204.286807" xlink:href="#mf1a6f7aa3c" y="307.584"/>
      </g>
     </g>
     <g id="text_3">
      <!-- 2 -->
      <g transform="translate(201.105557 322.182437)scale(0.1 -0.1)">
       <defs>
        <path d="M 19.1875 8.296875 
L 53.609375 8.296875 
L 53.609375 0 
L 7.328125 0 
L 7.328125 8.296875 
Q 12.9375 14.109375 22.625 23.890625 
Q 32.328125 33.6875 34.8125 36.53125 
Q 39.546875 41.84375 41.421875 45.53125 
Q 43.3125 49.21875 43.3125 52.78125 
Q 43.3125 58.59375 39.234375 62.25 
Q 35.15625 65.921875 28.609375 65.921875 
Q 23.96875 65.921875 18.8125 64.3125 
Q 13.671875 62.703125 7.8125 59.421875 
L 7.8125 69.390625 
Q 13.765625 71.78125 18.9375 73 
Q 24.125 74.21875 28.421875 74.21875 
Q 39.75 74.21875 46.484375 68.546875 
Q 53.21875 62.890625 53.21875 53.421875 
Q 53.21875 48.921875 51.53125 44.890625 
Q 49.859375 40.875 45.40625 35.40625 
Q 44.1875 33.984375 37.640625 27.21875 
Q 31.109375 20.453125 19.1875 8.296875 
z
" id="DejaVuSans-50"/>
       </defs>
       <use xlink:href="#DejaVuSans-50"/>
      </g>
     </g>
    </g>
    <g id="xtick_4">
     <g id="line2d_4">
      <g>
       <use style="stroke:#000000;stroke-width:0.8;" x="269.513847" xlink:href="#mf1a6f7aa3c" y="307.584"/>
      </g>
     </g>
     <g id="text_4">
      <!-- 3 -->
      <g transform="translate(266.332597 322.182437)scale(0.1 -0.1)">
       <defs>
        <path d="M 40.578125 39.3125 
Q 47.65625 37.796875 51.625 33 
Q 55.609375 28.21875 55.609375 21.1875 
Q 55.609375 10.40625 48.1875 4.484375 
Q 40.765625 -1.421875 27.09375 -1.421875 
Q 22.515625 -1.421875 17.65625 -0.515625 
Q 12.796875 0.390625 7.625 2.203125 
L 7.625 11.71875 
Q 11.71875 9.328125 16.59375 8.109375 
Q 21.484375 6.890625 26.8125 6.890625 
Q 36.078125 6.890625 40.9375 10.546875 
Q 45.796875 14.203125 45.796875 21.1875 
Q 45.796875 27.640625 41.28125 31.265625 
Q 36.765625 34.90625 28.71875 34.90625 
L 20.21875 34.90625 
L 20.21875 43.015625 
L 29.109375 43.015625 
Q 36.375 43.015625 40.234375 45.921875 
Q 44.09375 48.828125 44.09375 54.296875 
Q 44.09375 59.90625 40.109375 62.90625 
Q 36.140625 65.921875 28.71875 65.921875 
Q 24.65625 65.921875 20.015625 65.03125 
Q 15.375 64.15625 9.8125 62.3125 
L 9.8125 71.09375 
Q 15.4375 72.65625 20.34375 73.4375 
Q 25.25 74.21875 29.59375 74.21875 
Q 40.828125 74.21875 47.359375 69.109375 
Q 53.90625 64.015625 53.90625 55.328125 
Q 53.90625 49.265625 50.4375 45.09375 
Q 46.96875 40.921875 40.578125 39.3125 
z
" id="DejaVuSans-51"/>
       </defs>
       <use xlink:href="#DejaVuSans-51"/>
      </g>
     </g>
    </g>
    <g id="xtick_5">
     <g id="line2d_5">
      <g>
       <use style="stroke:#000000;stroke-width:0.8;" x="334.740887" xlink:href="#mf1a6f7aa3c" y="307.584"/>
      </g>
     </g>
     <g id="text_5">
      <!-- 4 -->
      <g transform="translate(331.559637 322.182437)scale(0.1 -0.1)">
       <defs>
        <path d="M 37.796875 64.3125 
L 12.890625 25.390625 
L 37.796875 25.390625 
z
M 35.203125 72.90625 
L 47.609375 72.90625 
L 47.609375 25.390625 
L 58.015625 25.390625 
L 58.015625 17.1875 
L 47.609375 17.1875 
L 47.609375 0 
L 37.796875 0 
L 37.796875 17.1875 
L 4.890625 17.1875 
L 4.890625 26.703125 
z
" id="DejaVuSans-52"/>
       </defs>
       <use xlink:href="#DejaVuSans-52"/>
      </g>
     </g>
    </g>
    <g id="xtick_6">
     <g id="line2d_6">
      <g>
       <use style="stroke:#000000;stroke-width:0.8;" x="399.967927" xlink:href="#mf1a6f7aa3c" y="307.584"/>
      </g>
     </g>
     <g id="text_6">
      <!-- 5 -->
      <g transform="translate(396.786677 322.182437)scale(0.1 -0.1)">
       <defs>
        <path d="M 10.796875 72.90625 
L 49.515625 72.90625 
L 49.515625 64.59375 
L 19.828125 64.59375 
L 19.828125 46.734375 
Q 21.96875 47.46875 24.109375 47.828125 
Q 26.265625 48.1875 28.421875 48.1875 
Q 40.625 48.1875 47.75 41.5 
Q 54.890625 34.8125 54.890625 23.390625 
Q 54.890625 11.625 47.5625 5.09375 
Q 40.234375 -1.421875 26.90625 -1.421875 
Q 22.3125 -1.421875 17.546875 -0.640625 
Q 12.796875 0.140625 7.71875 1.703125 
L 7.71875 11.625 
Q 12.109375 9.234375 16.796875 8.0625 
Q 21.484375 6.890625 26.703125 6.890625 
Q 35.15625 6.890625 40.078125 11.328125 
Q 45.015625 15.765625 45.015625 23.390625 
Q 45.015625 31 40.078125 35.4375 
Q 35.15625 39.890625 26.703125 39.890625 
Q 22.75 39.890625 18.8125 39.015625 
Q 14.890625 38.140625 10.796875 36.28125 
z
" id="DejaVuSans-53"/>
       </defs>
       <use xlink:href="#DejaVuSans-53"/>
      </g>
     </g>
    </g>
    <g id="text_7">
     <!-- Global Warming Potential (kgCO2eq/house-yr) -->
     <g transform="translate(120.958437 335.860562)scale(0.1 -0.1)">
      <defs>
       <path d="M 59.515625 10.40625 
L 59.515625 29.984375 
L 43.40625 29.984375 
L 43.40625 38.09375 
L 69.28125 38.09375 
L 69.28125 6.78125 
Q 63.578125 2.734375 56.6875 0.65625 
Q 49.8125 -1.421875 42 -1.421875 
Q 24.90625 -1.421875 15.25 8.5625 
Q 5.609375 18.5625 5.609375 36.375 
Q 5.609375 54.25 15.25 64.234375 
Q 24.90625 74.21875 42 74.21875 
Q 49.125 74.21875 55.546875 72.453125 
Q 61.96875 70.703125 67.390625 67.28125 
L 67.390625 56.78125 
Q 61.921875 61.421875 55.765625 63.765625 
Q 49.609375 66.109375 42.828125 66.109375 
Q 29.4375 66.109375 22.71875 58.640625 
Q 16.015625 51.171875 16.015625 36.375 
Q 16.015625 21.625 22.71875 14.15625 
Q 29.4375 6.6875 42.828125 6.6875 
Q 48.046875 6.6875 52.140625 7.59375 
Q 56.25 8.5 59.515625 10.40625 
z
" id="DejaVuSans-71"/>
       <path d="M 9.421875 75.984375 
L 18.40625 75.984375 
L 18.40625 0 
L 9.421875 0 
z
" id="DejaVuSans-108"/>
       <path d="M 30.609375 48.390625 
Q 23.390625 48.390625 19.1875 42.75 
Q 14.984375 37.109375 14.984375 27.296875 
Q 14.984375 17.484375 19.15625 11.84375 
Q 23.34375 6.203125 30.609375 6.203125 
Q 37.796875 6.203125 41.984375 11.859375 
Q 46.1875 17.53125 46.1875 27.296875 
Q 46.1875 37.015625 41.984375 42.703125 
Q 37.796875 48.390625 30.609375 48.390625 
z
M 30.609375 56 
Q 42.328125 56 49.015625 48.375 
Q 55.71875 40.765625 55.71875 27.296875 
Q 55.71875 13.875 49.015625 6.21875 
Q 42.328125 -1.421875 30.609375 -1.421875 
Q 18.84375 -1.421875 12.171875 6.21875 
Q 5.515625 13.875 5.515625 27.296875 
Q 5.515625 40.765625 12.171875 48.375 
Q 18.84375 56 30.609375 56 
z
" id="DejaVuSans-111"/>
       <path d="M 48.6875 27.296875 
Q 48.6875 37.203125 44.609375 42.84375 
Q 40.53125 48.484375 33.40625 48.484375 
Q 26.265625 48.484375 22.1875 42.84375 
Q 18.109375 37.203125 18.109375 27.296875 
Q 18.109375 17.390625 22.1875 11.75 
Q 26.265625 6.109375 33.40625 6.109375 
Q 40.53125 6.109375 44.609375 11.75 
Q 48.6875 17.390625 48.6875 27.296875 
z
M 18.109375 46.390625 
Q 20.953125 51.265625 25.265625 53.625 
Q 29.59375 56 35.59375 56 
Q 45.5625 56 51.78125 48.09375 
Q 58.015625 40.1875 58.015625 27.296875 
Q 58.015625 14.40625 51.78125 6.484375 
Q 45.5625 -1.421875 35.59375 -1.421875 
Q 29.59375 -1.421875 25.265625 0.953125 
Q 20.953125 3.328125 18.109375 8.203125 
L 18.109375 0 
L 9.078125 0 
L 9.078125 75.984375 
L 18.109375 75.984375 
z
" id="DejaVuSans-98"/>
       <path d="M 34.28125 27.484375 
Q 23.390625 27.484375 19.1875 25 
Q 14.984375 22.515625 14.984375 16.5 
Q 14.984375 11.71875 18.140625 8.90625 
Q 21.296875 6.109375 26.703125 6.109375 
Q 34.1875 6.109375 38.703125 11.40625 
Q 43.21875 16.703125 43.21875 25.484375 
L 43.21875 27.484375 
z
M 52.203125 31.203125 
L 52.203125 0 
L 43.21875 0 
L 43.21875 8.296875 
Q 40.140625 3.328125 35.546875 0.953125 
Q 30.953125 -1.421875 24.3125 -1.421875 
Q 15.921875 -1.421875 10.953125 3.296875 
Q 6 8.015625 6 15.921875 
Q 6 25.140625 12.171875 29.828125 
Q 18.359375 34.515625 30.609375 34.515625 
L 43.21875 34.515625 
L 43.21875 35.40625 
Q 43.21875 41.609375 39.140625 45 
Q 35.0625 48.390625 27.6875 48.390625 
Q 23 48.390625 18.546875 47.265625 
Q 14.109375 46.140625 10.015625 43.890625 
L 10.015625 52.203125 
Q 14.9375 54.109375 19.578125 55.046875 
Q 24.21875 56 28.609375 56 
Q 40.484375 56 46.34375 49.84375 
Q 52.203125 43.703125 52.203125 31.203125 
z
" id="DejaVuSans-97"/>
       <path id="DejaVuSans-32"/>
       <path d="M 3.328125 72.90625 
L 13.28125 72.90625 
L 28.609375 11.28125 
L 43.890625 72.90625 
L 54.984375 72.90625 
L 70.3125 11.28125 
L 85.59375 72.90625 
L 95.609375 72.90625 
L 77.296875 0 
L 64.890625 0 
L 49.515625 63.28125 
L 33.984375 0 
L 21.578125 0 
z
" id="DejaVuSans-87"/>
       <path d="M 41.109375 46.296875 
Q 39.59375 47.171875 37.8125 47.578125 
Q 36.03125 48 33.890625 48 
Q 26.265625 48 22.1875 43.046875 
Q 18.109375 38.09375 18.109375 28.8125 
L 18.109375 0 
L 9.078125 0 
L 9.078125 54.6875 
L 18.109375 54.6875 
L 18.109375 46.1875 
Q 20.953125 51.171875 25.484375 53.578125 
Q 30.03125 56 36.53125 56 
Q 37.453125 56 38.578125 55.875 
Q 39.703125 55.765625 41.0625 55.515625 
z
" id="DejaVuSans-114"/>
       <path d="M 52 44.1875 
Q 55.375 50.25 60.0625 53.125 
Q 64.75 56 71.09375 56 
Q 79.640625 56 84.28125 50.015625 
Q 88.921875 44.046875 88.921875 33.015625 
L 88.921875 0 
L 79.890625 0 
L 79.890625 32.71875 
Q 79.890625 40.578125 77.09375 44.375 
Q 74.3125 48.1875 68.609375 48.1875 
Q 61.625 48.1875 57.5625 43.546875 
Q 53.515625 38.921875 53.515625 30.90625 
L 53.515625 0 
L 44.484375 0 
L 44.484375 32.71875 
Q 44.484375 40.625 41.703125 44.40625 
Q 38.921875 48.1875 33.109375 48.1875 
Q 26.21875 48.1875 22.15625 43.53125 
Q 18.109375 38.875 18.109375 30.90625 
L 18.109375 0 
L 9.078125 0 
L 9.078125 54.6875 
L 18.109375 54.6875 
L 18.109375 46.1875 
Q 21.1875 51.21875 25.484375 53.609375 
Q 29.78125 56 35.6875 56 
Q 41.65625 56 45.828125 52.96875 
Q 50 49.953125 52 44.1875 
z
" id="DejaVuSans-109"/>
       <path d="M 9.421875 54.6875 
L 18.40625 54.6875 
L 18.40625 0 
L 9.421875 0 
z
M 9.421875 75.984375 
L 18.40625 75.984375 
L 18.40625 64.59375 
L 9.421875 64.59375 
z
" id="DejaVuSans-105"/>
       <path d="M 54.890625 33.015625 
L 54.890625 0 
L 45.90625 0 
L 45.90625 32.71875 
Q 45.90625 40.484375 42.875 44.328125 
Q 39.84375 48.1875 33.796875 48.1875 
Q 26.515625 48.1875 22.3125 43.546875 
Q 18.109375 38.921875 18.109375 30.90625 
L 18.109375 0 
L 9.078125 0 
L 9.078125 54.6875 
L 18.109375 54.6875 
L 18.109375 46.1875 
Q 21.34375 51.125 25.703125 53.5625 
Q 30.078125 56 35.796875 56 
Q 45.21875 56 50.046875 50.171875 
Q 54.890625 44.34375 54.890625 33.015625 
z
" id="DejaVuSans-110"/>
       <path d="M 45.40625 27.984375 
Q 45.40625 37.75 41.375 43.109375 
Q 37.359375 48.484375 30.078125 48.484375 
Q 22.859375 48.484375 18.828125 43.109375 
Q 14.796875 37.75 14.796875 27.984375 
Q 14.796875 18.265625 18.828125 12.890625 
Q 22.859375 7.515625 30.078125 7.515625 
Q 37.359375 7.515625 41.375 12.890625 
Q 45.40625 18.265625 45.40625 27.984375 
z
M 54.390625 6.78125 
Q 54.390625 -7.171875 48.1875 -13.984375 
Q 42 -20.796875 29.203125 -20.796875 
Q 24.46875 -20.796875 20.265625 -20.09375 
Q 16.0625 -19.390625 12.109375 -17.921875 
L 12.109375 -9.1875 
Q 16.0625 -11.328125 19.921875 -12.34375 
Q 23.78125 -13.375 27.78125 -13.375 
Q 36.625 -13.375 41.015625 -8.765625 
Q 45.40625 -4.15625 45.40625 5.171875 
L 45.40625 9.625 
Q 42.625 4.78125 38.28125 2.390625 
Q 33.9375 0 27.875 0 
Q 17.828125 0 11.671875 7.65625 
Q 5.515625 15.328125 5.515625 27.984375 
Q 5.515625 40.671875 11.671875 48.328125 
Q 17.828125 56 27.875 56 
Q 33.9375 56 38.28125 53.609375 
Q 42.625 51.21875 45.40625 46.390625 
L 45.40625 54.6875 
L 54.390625 54.6875 
z
" id="DejaVuSans-103"/>
       <path d="M 19.671875 64.796875 
L 19.671875 37.40625 
L 32.078125 37.40625 
Q 38.96875 37.40625 42.71875 40.96875 
Q 46.484375 44.53125 46.484375 51.125 
Q 46.484375 57.671875 42.71875 61.234375 
Q 38.96875 64.796875 32.078125 64.796875 
z
M 9.8125 72.90625 
L 32.078125 72.90625 
Q 44.34375 72.90625 50.609375 67.359375 
Q 56.890625 61.8125 56.890625 51.125 
Q 56.890625 40.328125 50.609375 34.8125 
Q 44.34375 29.296875 32.078125 29.296875 
L 19.671875 29.296875 
L 19.671875 0 
L 9.8125 0 
z
" id="DejaVuSans-80"/>
       <path d="M 18.3125 70.21875 
L 18.3125 54.6875 
L 36.8125 54.6875 
L 36.8125 47.703125 
L 18.3125 47.703125 
L 18.3125 18.015625 
Q 18.3125 11.328125 20.140625 9.421875 
Q 21.96875 7.515625 27.59375 7.515625 
L 36.8125 7.515625 
L 36.8125 0 
L 27.59375 0 
Q 17.1875 0 13.234375 3.875 
Q 9.28125 7.765625 9.28125 18.015625 
L 9.28125 47.703125 
L 2.6875 47.703125 
L 2.6875 54.6875 
L 9.28125 54.6875 
L 9.28125 70.21875 
z
" id="DejaVuSans-116"/>
       <path d="M 56.203125 29.59375 
L 56.203125 25.203125 
L 14.890625 25.203125 
Q 15.484375 15.921875 20.484375 11.0625 
Q 25.484375 6.203125 34.421875 6.203125 
Q 39.59375 6.203125 44.453125 7.46875 
Q 49.3125 8.734375 54.109375 11.28125 
L 54.109375 2.78125 
Q 49.265625 0.734375 44.1875 -0.34375 
Q 39.109375 -1.421875 33.890625 -1.421875 
Q 20.796875 -1.421875 13.15625 6.1875 
Q 5.515625 13.8125 5.515625 26.8125 
Q 5.515625 40.234375 12.765625 48.109375 
Q 20.015625 56 32.328125 56 
Q 43.359375 56 49.78125 48.890625 
Q 56.203125 41.796875 56.203125 29.59375 
z
M 47.21875 32.234375 
Q 47.125 39.59375 43.09375 43.984375 
Q 39.0625 48.390625 32.421875 48.390625 
Q 24.90625 48.390625 20.390625 44.140625 
Q 15.875 39.890625 15.1875 32.171875 
z
" id="DejaVuSans-101"/>
       <path d="M 31 75.875 
Q 24.46875 64.65625 21.28125 53.65625 
Q 18.109375 42.671875 18.109375 31.390625 
Q 18.109375 20.125 21.3125 9.0625 
Q 24.515625 -2 31 -13.1875 
L 23.1875 -13.1875 
Q 15.875 -1.703125 12.234375 9.375 
Q 8.59375 20.453125 8.59375 31.390625 
Q 8.59375 42.28125 12.203125 53.3125 
Q 15.828125 64.359375 23.1875 75.875 
z
" id="DejaVuSans-40"/>
       <path d="M 9.078125 75.984375 
L 18.109375 75.984375 
L 18.109375 31.109375 
L 44.921875 54.6875 
L 56.390625 54.6875 
L 27.390625 29.109375 
L 57.625 0 
L 45.90625 0 
L 18.109375 26.703125 
L 18.109375 0 
L 9.078125 0 
z
" id="DejaVuSans-107"/>
       <path d="M 64.40625 67.28125 
L 64.40625 56.890625 
Q 59.421875 61.53125 53.78125 63.8125 
Q 48.140625 66.109375 41.796875 66.109375 
Q 29.296875 66.109375 22.65625 58.46875 
Q 16.015625 50.828125 16.015625 36.375 
Q 16.015625 21.96875 22.65625 14.328125 
Q 29.296875 6.6875 41.796875 6.6875 
Q 48.140625 6.6875 53.78125 8.984375 
Q 59.421875 11.28125 64.40625 15.921875 
L 64.40625 5.609375 
Q 59.234375 2.09375 53.4375 0.328125 
Q 47.65625 -1.421875 41.21875 -1.421875 
Q 24.65625 -1.421875 15.125 8.703125 
Q 5.609375 18.84375 5.609375 36.375 
Q 5.609375 53.953125 15.125 64.078125 
Q 24.65625 74.21875 41.21875 74.21875 
Q 47.75 74.21875 53.53125 72.484375 
Q 59.328125 70.75 64.40625 67.28125 
z
" id="DejaVuSans-67"/>
       <path d="M 39.40625 66.21875 
Q 28.65625 66.21875 22.328125 58.203125 
Q 16.015625 50.203125 16.015625 36.375 
Q 16.015625 22.609375 22.328125 14.59375 
Q 28.65625 6.59375 39.40625 6.59375 
Q 50.140625 6.59375 56.421875 14.59375 
Q 62.703125 22.609375 62.703125 36.375 
Q 62.703125 50.203125 56.421875 58.203125 
Q 50.140625 66.21875 39.40625 66.21875 
z
M 39.40625 74.21875 
Q 54.734375 74.21875 63.90625 63.9375 
Q 73.09375 53.65625 73.09375 36.375 
Q 73.09375 19.140625 63.90625 8.859375 
Q 54.734375 -1.421875 39.40625 -1.421875 
Q 24.03125 -1.421875 14.8125 8.828125 
Q 5.609375 19.09375 5.609375 36.375 
Q 5.609375 53.65625 14.8125 63.9375 
Q 24.03125 74.21875 39.40625 74.21875 
z
" id="DejaVuSans-79"/>
       <path d="M 14.796875 27.296875 
Q 14.796875 17.390625 18.875 11.75 
Q 22.953125 6.109375 30.078125 6.109375 
Q 37.203125 6.109375 41.296875 11.75 
Q 45.40625 17.390625 45.40625 27.296875 
Q 45.40625 37.203125 41.296875 42.84375 
Q 37.203125 48.484375 30.078125 48.484375 
Q 22.953125 48.484375 18.875 42.84375 
Q 14.796875 37.203125 14.796875 27.296875 
z
M 45.40625 8.203125 
Q 42.578125 3.328125 38.25 0.953125 
Q 33.9375 -1.421875 27.875 -1.421875 
Q 17.96875 -1.421875 11.734375 6.484375 
Q 5.515625 14.40625 5.515625 27.296875 
Q 5.515625 40.1875 11.734375 48.09375 
Q 17.96875 56 27.875 56 
Q 33.9375 56 38.25 53.625 
Q 42.578125 51.265625 45.40625 46.390625 
L 45.40625 54.6875 
L 54.390625 54.6875 
L 54.390625 -20.796875 
L 45.40625 -20.796875 
z
" id="DejaVuSans-113"/>
       <path d="M 25.390625 72.90625 
L 33.6875 72.90625 
L 8.296875 -9.28125 
L 0 -9.28125 
z
" id="DejaVuSans-47"/>
       <path d="M 54.890625 33.015625 
L 54.890625 0 
L 45.90625 0 
L 45.90625 32.71875 
Q 45.90625 40.484375 42.875 44.328125 
Q 39.84375 48.1875 33.796875 48.1875 
Q 26.515625 48.1875 22.3125 43.546875 
Q 18.109375 38.921875 18.109375 30.90625 
L 18.109375 0 
L 9.078125 0 
L 9.078125 75.984375 
L 18.109375 75.984375 
L 18.109375 46.1875 
Q 21.34375 51.125 25.703125 53.5625 
Q 30.078125 56 35.796875 56 
Q 45.21875 56 50.046875 50.171875 
Q 54.890625 44.34375 54.890625 33.015625 
z
" id="DejaVuSans-104"/>
       <path d="M 8.5 21.578125 
L 8.5 54.6875 
L 17.484375 54.6875 
L 17.484375 21.921875 
Q 17.484375 14.15625 20.5 10.265625 
Q 23.53125 6.390625 29.59375 6.390625 
Q 36.859375 6.390625 41.078125 11.03125 
Q 45.3125 15.671875 45.3125 23.6875 
L 45.3125 54.6875 
L 54.296875 54.6875 
L 54.296875 0 
L 45.3125 0 
L 45.3125 8.40625 
Q 42.046875 3.421875 37.71875 1 
Q 33.40625 -1.421875 27.6875 -1.421875 
Q 18.265625 -1.421875 13.375 4.4375 
Q 8.5 10.296875 8.5 21.578125 
z
M 31.109375 56 
z
" id="DejaVuSans-117"/>
       <path d="M 44.28125 53.078125 
L 44.28125 44.578125 
Q 40.484375 46.53125 36.375 47.5 
Q 32.28125 48.484375 27.875 48.484375 
Q 21.1875 48.484375 17.84375 46.4375 
Q 14.5 44.390625 14.5 40.28125 
Q 14.5 37.15625 16.890625 35.375 
Q 19.28125 33.59375 26.515625 31.984375 
L 29.59375 31.296875 
Q 39.15625 29.25 43.1875 25.515625 
Q 47.21875 21.78125 47.21875 15.09375 
Q 47.21875 7.46875 41.1875 3.015625 
Q 35.15625 -1.421875 24.609375 -1.421875 
Q 20.21875 -1.421875 15.453125 -0.5625 
Q 10.6875 0.296875 5.421875 2 
L 5.421875 11.28125 
Q 10.40625 8.6875 15.234375 7.390625 
Q 20.0625 6.109375 24.8125 6.109375 
Q 31.15625 6.109375 34.5625 8.28125 
Q 37.984375 10.453125 37.984375 14.40625 
Q 37.984375 18.0625 35.515625 20.015625 
Q 33.0625 21.96875 24.703125 23.78125 
L 21.578125 24.515625 
Q 13.234375 26.265625 9.515625 29.90625 
Q 5.8125 33.546875 5.8125 39.890625 
Q 5.8125 47.609375 11.28125 51.796875 
Q 16.75 56 26.8125 56 
Q 31.78125 56 36.171875 55.265625 
Q 40.578125 54.546875 44.28125 53.078125 
z
" id="DejaVuSans-115"/>
       <path d="M 4.890625 31.390625 
L 31.203125 31.390625 
L 31.203125 23.390625 
L 4.890625 23.390625 
z
" id="DejaVuSans-45"/>
       <path d="M 32.171875 -5.078125 
Q 28.375 -14.84375 24.75 -17.8125 
Q 21.140625 -20.796875 15.09375 -20.796875 
L 7.90625 -20.796875 
L 7.90625 -13.28125 
L 13.1875 -13.28125 
Q 16.890625 -13.28125 18.9375 -11.515625 
Q 21 -9.765625 23.484375 -3.21875 
L 25.09375 0.875 
L 2.984375 54.6875 
L 12.5 54.6875 
L 29.59375 11.921875 
L 46.6875 54.6875 
L 56.203125 54.6875 
z
" id="DejaVuSans-121"/>
       <path d="M 8.015625 75.875 
L 15.828125 75.875 
Q 23.140625 64.359375 26.78125 53.3125 
Q 30.421875 42.28125 30.421875 31.390625 
Q 30.421875 20.453125 26.78125 9.375 
Q 23.140625 -1.703125 15.828125 -13.1875 
L 8.015625 -13.1875 
Q 14.5 -2 17.703125 9.0625 
Q 20.90625 20.125 20.90625 31.390625 
Q 20.90625 42.671875 17.703125 53.65625 
Q 14.5 64.65625 8.015625 75.875 
z
" id="DejaVuSans-41"/>
      </defs>
      <use xlink:href="#DejaVuSans-71"/>
      <use x="77.490234" xlink:href="#DejaVuSans-108"/>
      <use x="105.273438" xlink:href="#DejaVuSans-111"/>
      <use x="166.455078" xlink:href="#DejaVuSans-98"/>
      <use x="229.931641" xlink:href="#DejaVuSans-97"/>
      <use x="291.210938" xlink:href="#DejaVuSans-108"/>
      <use x="318.994141" xlink:href="#DejaVuSans-32"/>
      <use x="350.78125" xlink:href="#DejaVuSans-87"/>
      <use x="443.283203" xlink:href="#DejaVuSans-97"/>
      <use x="504.5625" xlink:href="#DejaVuSans-114"/>
      <use x="543.925781" xlink:href="#DejaVuSans-109"/>
      <use x="641.337891" xlink:href="#DejaVuSans-105"/>
      <use x="669.121094" xlink:href="#DejaVuSans-110"/>
      <use x="732.5" xlink:href="#DejaVuSans-103"/>
      <use x="795.976562" xlink:href="#DejaVuSans-32"/>
      <use x="827.763672" xlink:href="#DejaVuSans-80"/>
      <use x="884.441406" xlink:href="#DejaVuSans-111"/>
      <use x="945.623047" xlink:href="#DejaVuSans-116"/>
      <use x="984.832031" xlink:href="#DejaVuSans-101"/>
      <use x="1046.355469" xlink:href="#DejaVuSans-110"/>
      <use x="1109.734375" xlink:href="#DejaVuSans-116"/>
      <use x="1148.943359" xlink:href="#DejaVuSans-105"/>
      <use x="1176.726562" xlink:href="#DejaVuSans-97"/>
      <use x="1238.005859" xlink:href="#DejaVuSans-108"/>
      <use x="1265.789062" xlink:href="#DejaVuSans-32"/>
      <use x="1297.576172" xlink:href="#DejaVuSans-40"/>
      <use x="1336.589844" xlink:href="#DejaVuSans-107"/>
      <use x="1394.5" xlink:href="#DejaVuSans-103"/>
      <use x="1457.976562" xlink:href="#DejaVuSans-67"/>
      <use x="1527.800781" xlink:href="#DejaVuSans-79"/>
      <use x="1606.511719" xlink:href="#DejaVuSans-50"/>
      <use x="1670.134766" xlink:href="#DejaVuSans-101"/>
      <use x="1731.658203" xlink:href="#DejaVuSans-113"/>
      <use x="1795.134766" xlink:href="#DejaVuSans-47"/>
      <use x="1828.826172" xlink:href="#DejaVuSans-104"/>
      <use x="1892.205078" xlink:href="#DejaVuSans-111"/>
      <use x="1953.386719" xlink:href="#DejaVuSans-117"/>
      <use x="2016.765625" xlink:href="#DejaVuSans-115"/>
      <use x="2068.865234" xlink:href="#DejaVuSans-101"/>
      <use x="2130.388672" xlink:href="#DejaVuSans-45"/>
      <use x="2164.722656" xlink:href="#DejaVuSans-121"/>
      <use x="2223.902344" xlink:href="#DejaVuSans-114"/>
      <use x="2265.015625" xlink:href="#DejaVuSans-41"/>
     </g>
    </g>
   </g>
   <g id="matplotlib.axis_2">
    <g id="ytick_1">
     <g id="line2d_7">
      <defs>
       <path d="M 0 0 
L -3.5 0 
" id="m78da3fe6f9" style="stroke:#000000;stroke-width:0.8;"/>
      </defs>
      <g>
       <use style="stroke:#000000;stroke-width:0.8;" x="57.6" xlink:href="#m78da3fe6f9" y="295.488"/>
      </g>
     </g>
     <g id="text_8">
      <!-- 0.0 -->
      <g transform="translate(34.696875 299.287219)scale(0.1 -0.1)">
       <defs>
        <path d="M 10.6875 12.40625 
L 21 12.40625 
L 21 0 
L 10.6875 0 
z
" id="DejaVuSans-46"/>
       </defs>
       <use xlink:href="#DejaVuSans-48"/>
       <use x="63.623047" xlink:href="#DejaVuSans-46"/>
       <use x="95.410156" xlink:href="#DejaVuSans-48"/>
      </g>
     </g>
    </g>
    <g id="ytick_2">
     <g id="line2d_8">
      <g>
       <use style="stroke:#000000;stroke-width:0.8;" x="57.6" xlink:href="#m78da3fe6f9" y="240.198319"/>
      </g>
     </g>
     <g id="text_9">
      <!-- 0.2 -->
      <g transform="translate(34.696875 243.997538)scale(0.1 -0.1)">
       <use xlink:href="#DejaVuSans-48"/>
       <use x="63.623047" xlink:href="#DejaVuSans-46"/>
       <use x="95.410156" xlink:href="#DejaVuSans-50"/>
      </g>
     </g>
    </g>
    <g id="ytick_3">
     <g id="line2d_9">
      <g>
       <use style="stroke:#000000;stroke-width:0.8;" x="57.6" xlink:href="#m78da3fe6f9" y="184.908638"/>
      </g>
     </g>
     <g id="text_10">
      <!-- 0.4 -->
      <g transform="translate(34.696875 188.707856)scale(0.1 -0.1)">
       <use xlink:href="#DejaVuSans-48"/>
       <use x="63.623047" xlink:href="#DejaVuSans-46"/>
       <use x="95.410156" xlink:href="#DejaVuSans-52"/>
      </g>
     </g>
    </g>
    <g id="ytick_4">
     <g id="line2d_10">
      <g>
       <use style="stroke:#000000;stroke-width:0.8;" x="57.6" xlink:href="#m78da3fe6f9" y="129.618956"/>
      </g>
     </g>
     <g id="text_11">
      <!-- 0.6 -->
      <g transform="translate(34.696875 133.418175)scale(0.1 -0.1)">
       <defs>
        <path d="M 33.015625 40.375 
Q 26.375 40.375 22.484375 35.828125 
Q 18.609375 31.296875 18.609375 23.390625 
Q 18.609375 15.53125 22.484375 10.953125 
Q 26.375 6.390625 33.015625 6.390625 
Q 39.65625 6.390625 43.53125 10.953125 
Q 47.40625 15.53125 47.40625 23.390625 
Q 47.40625 31.296875 43.53125 35.828125 
Q 39.65625 40.375 33.015625 40.375 
z
M 52.59375 71.296875 
L 52.59375 62.3125 
Q 48.875 64.0625 45.09375 64.984375 
Q 41.3125 65.921875 37.59375 65.921875 
Q 27.828125 65.921875 22.671875 59.328125 
Q 17.53125 52.734375 16.796875 39.40625 
Q 19.671875 43.65625 24.015625 45.921875 
Q 28.375 48.1875 33.59375 48.1875 
Q 44.578125 48.1875 50.953125 41.515625 
Q 57.328125 34.859375 57.328125 23.390625 
Q 57.328125 12.15625 50.6875 5.359375 
Q 44.046875 -1.421875 33.015625 -1.421875 
Q 20.359375 -1.421875 13.671875 8.265625 
Q 6.984375 17.96875 6.984375 36.375 
Q 6.984375 53.65625 15.1875 63.9375 
Q 23.390625 74.21875 37.203125 74.21875 
Q 40.921875 74.21875 44.703125 73.484375 
Q 48.484375 72.75 52.59375 71.296875 
z
" id="DejaVuSans-54"/>
       </defs>
       <use xlink:href="#DejaVuSans-48"/>
       <use x="63.623047" xlink:href="#DejaVuSans-46"/>
       <use x="95.410156" xlink:href="#DejaVuSans-54"/>
      </g>
     </g>
    </g>
    <g id="ytick_5">
     <g id="line2d_11">
      <g>
       <use style="stroke:#000000;stroke-width:0.8;" x="57.6" xlink:href="#m78da3fe6f9" y="74.329275"/>
      </g>
     </g>
     <g id="text_12">
      <!-- 0.8 -->
      <g transform="translate(34.696875 78.128494)scale(0.1 -0.1)">
       <defs>
        <path d="M 31.78125 34.625 
Q 24.75 34.625 20.71875 30.859375 
Q 16.703125 27.09375 16.703125 20.515625 
Q 16.703125 13.921875 20.71875 10.15625 
Q 24.75 6.390625 31.78125 6.390625 
Q 38.8125 6.390625 42.859375 10.171875 
Q 46.921875 13.96875 46.921875 20.515625 
Q 46.921875 27.09375 42.890625 30.859375 
Q 38.875 34.625 31.78125 34.625 
z
M 21.921875 38.8125 
Q 15.578125 40.375 12.03125 44.71875 
Q 8.5 49.078125 8.5 55.328125 
Q 8.5 64.0625 14.71875 69.140625 
Q 20.953125 74.21875 31.78125 74.21875 
Q 42.671875 74.21875 48.875 69.140625 
Q 55.078125 64.0625 55.078125 55.328125 
Q 55.078125 49.078125 51.53125 44.71875 
Q 48 40.375 41.703125 38.8125 
Q 48.828125 37.15625 52.796875 32.3125 
Q 56.78125 27.484375 56.78125 20.515625 
Q 56.78125 9.90625 50.3125 4.234375 
Q 43.84375 -1.421875 31.78125 -1.421875 
Q 19.734375 -1.421875 13.25 4.234375 
Q 6.78125 9.90625 6.78125 20.515625 
Q 6.78125 27.484375 10.78125 32.3125 
Q 14.796875 37.15625 21.921875 38.8125 
z
M 18.3125 54.390625 
Q 18.3125 48.734375 21.84375 45.5625 
Q 25.390625 42.390625 31.78125 42.390625 
Q 38.140625 42.390625 41.71875 45.5625 
Q 45.3125 48.734375 45.3125 54.390625 
Q 45.3125 60.0625 41.71875 63.234375 
Q 38.140625 66.40625 31.78125 66.40625 
Q 25.390625 66.40625 21.84375 63.234375 
Q 18.3125 60.0625 18.3125 54.390625 
z
" id="DejaVuSans-56"/>
       </defs>
       <use xlink:href="#DejaVuSans-48"/>
       <use x="63.623047" xlink:href="#DejaVuSans-46"/>
       <use x="95.410156" xlink:href="#DejaVuSans-56"/>
      </g>
     </g>
    </g>
    <g id="text_13">
     <!-- Circularity -->
     <g transform="translate(17.419375 200.086594)rotate(-90)scale(0.1 -0.1)">
      <defs>
       <path d="M 48.78125 52.59375 
L 48.78125 44.1875 
Q 44.96875 46.296875 41.140625 47.34375 
Q 37.3125 48.390625 33.40625 48.390625 
Q 24.65625 48.390625 19.8125 42.84375 
Q 14.984375 37.3125 14.984375 27.296875 
Q 14.984375 17.28125 19.8125 11.734375 
Q 24.65625 6.203125 33.40625 6.203125 
Q 37.3125 6.203125 41.140625 7.25 
Q 44.96875 8.296875 48.78125 10.40625 
L 48.78125 2.09375 
Q 45.015625 0.34375 40.984375 -0.53125 
Q 36.96875 -1.421875 32.421875 -1.421875 
Q 20.0625 -1.421875 12.78125 6.34375 
Q 5.515625 14.109375 5.515625 27.296875 
Q 5.515625 40.671875 12.859375 48.328125 
Q 20.21875 56 33.015625 56 
Q 37.15625 56 41.109375 55.140625 
Q 45.0625 54.296875 48.78125 52.59375 
z
" id="DejaVuSans-99"/>
      </defs>
      <use xlink:href="#DejaVuSans-67"/>
      <use x="69.824219" xlink:href="#DejaVuSans-105"/>
      <use x="97.607422" xlink:href="#DejaVuSans-114"/>
      <use x="136.470703" xlink:href="#DejaVuSans-99"/>
      <use x="191.451172" xlink:href="#DejaVuSans-117"/>
      <use x="254.830078" xlink:href="#DejaVuSans-108"/>
      <use x="282.613281" xlink:href="#DejaVuSans-97"/>
      <use x="343.892578" xlink:href="#DejaVuSans-114"/>
      <use x="385.005859" xlink:href="#DejaVuSans-105"/>
      <use x="412.789062" xlink:href="#DejaVuSans-116"/>
      <use x="451.998047" xlink:href="#DejaVuSans-121"/>
     </g>
     <!--  (Fraction of economic value regenerated) -->
     <g transform="translate(28.617187 279.779562)rotate(-90)scale(0.1 -0.1)">
      <defs>
       <path d="M 9.8125 72.90625 
L 51.703125 72.90625 
L 51.703125 64.59375 
L 19.671875 64.59375 
L 19.671875 43.109375 
L 48.578125 43.109375 
L 48.578125 34.8125 
L 19.671875 34.8125 
L 19.671875 0 
L 9.8125 0 
z
" id="DejaVuSans-70"/>
       <path d="M 37.109375 75.984375 
L 37.109375 68.5 
L 28.515625 68.5 
Q 23.6875 68.5 21.796875 66.546875 
Q 19.921875 64.59375 19.921875 59.515625 
L 19.921875 54.6875 
L 34.71875 54.6875 
L 34.71875 47.703125 
L 19.921875 47.703125 
L 19.921875 0 
L 10.890625 0 
L 10.890625 47.703125 
L 2.296875 47.703125 
L 2.296875 54.6875 
L 10.890625 54.6875 
L 10.890625 58.5 
Q 10.890625 67.625 15.140625 71.796875 
Q 19.390625 75.984375 28.609375 75.984375 
z
" id="DejaVuSans-102"/>
       <path d="M 2.984375 54.6875 
L 12.5 54.6875 
L 29.59375 8.796875 
L 46.6875 54.6875 
L 56.203125 54.6875 
L 35.6875 0 
L 23.484375 0 
z
" id="DejaVuSans-118"/>
       <path d="M 45.40625 46.390625 
L 45.40625 75.984375 
L 54.390625 75.984375 
L 54.390625 0 
L 45.40625 0 
L 45.40625 8.203125 
Q 42.578125 3.328125 38.25 0.953125 
Q 33.9375 -1.421875 27.875 -1.421875 
Q 17.96875 -1.421875 11.734375 6.484375 
Q 5.515625 14.40625 5.515625 27.296875 
Q 5.515625 40.1875 11.734375 48.09375 
Q 17.96875 56 27.875 56 
Q 33.9375 56 38.25 53.625 
Q 42.578125 51.265625 45.40625 46.390625 
z
M 14.796875 27.296875 
Q 14.796875 17.390625 18.875 11.75 
Q 22.953125 6.109375 30.078125 6.109375 
Q 37.203125 6.109375 41.296875 11.75 
Q 45.40625 17.390625 45.40625 27.296875 
Q 45.40625 37.203125 41.296875 42.84375 
Q 37.203125 48.484375 30.078125 48.484375 
Q 22.953125 48.484375 18.875 42.84375 
Q 14.796875 37.203125 14.796875 27.296875 
z
" id="DejaVuSans-100"/>
      </defs>
      <use xlink:href="#DejaVuSans-32"/>
      <use x="31.787109" xlink:href="#DejaVuSans-40"/>
      <use x="70.800781" xlink:href="#DejaVuSans-70"/>
      <use x="121.070312" xlink:href="#DejaVuSans-114"/>
      <use x="162.183594" xlink:href="#DejaVuSans-97"/>
      <use x="223.462891" xlink:href="#DejaVuSans-99"/>
      <use x="278.443359" xlink:href="#DejaVuSans-116"/>
      <use x="317.652344" xlink:href="#DejaVuSans-105"/>
      <use x="345.435547" xlink:href="#DejaVuSans-111"/>
      <use x="406.617188" xlink:href="#DejaVuSans-110"/>
      <use x="469.996094" xlink:href="#DejaVuSans-32"/>
      <use x="501.783203" xlink:href="#DejaVuSans-111"/>
      <use x="562.964844" xlink:href="#DejaVuSans-102"/>
      <use x="598.169922" xlink:href="#DejaVuSans-32"/>
      <use x="629.957031" xlink:href="#DejaVuSans-101"/>
      <use x="691.480469" xlink:href="#DejaVuSans-99"/>
      <use x="746.460938" xlink:href="#DejaVuSans-111"/>
      <use x="807.642578" xlink:href="#DejaVuSans-110"/>
      <use x="871.021484" xlink:href="#DejaVuSans-111"/>
      <use x="932.203125" xlink:href="#DejaVuSans-109"/>
      <use x="1029.615234" xlink:href="#DejaVuSans-105"/>
      <use x="1057.398438" xlink:href="#DejaVuSans-99"/>
      <use x="1112.378906" xlink:href="#DejaVuSans-32"/>
      <use x="1144.166016" xlink:href="#DejaVuSans-118"/>
      <use x="1203.345703" xlink:href="#DejaVuSans-97"/>
      <use x="1264.625" xlink:href="#DejaVuSans-108"/>
      <use x="1292.408203" xlink:href="#DejaVuSans-117"/>
      <use x="1355.787109" xlink:href="#DejaVuSans-101"/>
      <use x="1417.310547" xlink:href="#DejaVuSans-32"/>
      <use x="1449.097656" xlink:href="#DejaVuSans-114"/>
      <use x="1487.960938" xlink:href="#DejaVuSans-101"/>
      <use x="1549.484375" xlink:href="#DejaVuSans-103"/>
      <use x="1612.960938" xlink:href="#DejaVuSans-101"/>
      <use x="1674.484375" xlink:href="#DejaVuSans-110"/>
      <use x="1737.863281" xlink:href="#DejaVuSans-101"/>
      <use x="1799.386719" xlink:href="#DejaVuSans-114"/>
      <use x="1840.5" xlink:href="#DejaVuSans-97"/>
      <use x="1901.779297" xlink:href="#DejaVuSans-116"/>
      <use x="1940.988281" xlink:href="#DejaVuSans-101"/>
      <use x="2002.511719" xlink:href="#DejaVuSans-100"/>
      <use x="2065.988281" xlink:href="#DejaVuSans-41"/>
     </g>
    </g>
   </g>
   <g id="LineCollection_1">
    <path clip-path="url(#pa730d7bfc2)" d="M 73.832727 295.488 
L 73.832727 53.568 
" style="fill:none;stroke:#ff0000;stroke-dasharray:5.55,2.4;stroke-dashoffset:0;stroke-opacity:0.7;stroke-width:1.5;"/>
   </g>
   <g id="patch_3">
    <path d="M 57.6 307.584 
L 57.6 41.472 
" style="fill:none;stroke:#000000;stroke-linecap:square;stroke-linejoin:miter;stroke-width:0.8;"/>
   </g>
   <g id="patch_4">
    <path d="M 414.72 307.584 
L 414.72 41.472 
" style="fill:none;stroke:#000000;stroke-linecap:square;stroke-linejoin:miter;stroke-width:0.8;"/>
   </g>
   <g id="patch_5">
    <path d="M 57.6 307.584 
L 414.72 307.584 
" style="fill:none;stroke:#000000;stroke-linecap:square;stroke-linejoin:miter;stroke-width:0.8;"/>
   </g>
   <g id="patch_6">
    <path d="M 57.6 41.472 
L 414.72 41.472 
" style="fill:none;stroke:#000000;stroke-linecap:square;stroke-linejoin:miter;stroke-width:0.8;"/>
   </g>
   <g id="patch_7">
    <path d="M 167.236155 83.985616 
Q 87.455054 90.754842 76.899158 90.357804 
" style="fill:none;stroke:#000000;stroke-linecap:round;"/>
    <path d="M 80.821159 92.506736 
L 76.899158 90.357804 
L 80.971505 88.509562 
" style="fill:none;stroke:#000000;stroke-linecap:round;"/>
   </g>
   <g id="text_14">
    <!-- Net-zero -->
    <g transform="translate(171.229091 78.658187)scale(0.1 -0.1)">
     <defs>
      <path d="M 9.8125 72.90625 
L 23.09375 72.90625 
L 55.421875 11.921875 
L 55.421875 72.90625 
L 64.984375 72.90625 
L 64.984375 0 
L 51.703125 0 
L 19.390625 60.984375 
L 19.390625 0 
L 9.8125 0 
z
" id="DejaVuSans-78"/>
      <path d="M 5.515625 54.6875 
L 48.1875 54.6875 
L 48.1875 46.484375 
L 14.40625 7.171875 
L 48.1875 7.171875 
L 48.1875 0 
L 4.296875 0 
L 4.296875 8.203125 
L 38.09375 47.515625 
L 5.515625 47.515625 
z
" id="DejaVuSans-122"/>
     </defs>
     <use xlink:href="#DejaVuSans-78"/>
     <use x="74.804688" xlink:href="#DejaVuSans-101"/>
     <use x="136.328125" xlink:href="#DejaVuSans-116"/>
     <use x="175.537109" xlink:href="#DejaVuSans-45"/>
     <use x="211.621094" xlink:href="#DejaVuSans-122"/>
     <use x="264.111328" xlink:href="#DejaVuSans-101"/>
     <use x="325.634766" xlink:href="#DejaVuSans-114"/>
     <use x="364.498047" xlink:href="#DejaVuSans-111"/>
    </g>
    <!-- Emissions -->
    <g transform="translate(171.229091 89.856)scale(0.1 -0.1)">
     <defs>
      <path d="M 9.8125 72.90625 
L 55.90625 72.90625 
L 55.90625 64.59375 
L 19.671875 64.59375 
L 19.671875 43.015625 
L 54.390625 43.015625 
L 54.390625 34.71875 
L 19.671875 34.71875 
L 19.671875 8.296875 
L 56.78125 8.296875 
L 56.78125 0 
L 9.8125 0 
z
" id="DejaVuSans-69"/>
     </defs>
     <use xlink:href="#DejaVuSans-69"/>
     <use x="63.183594" xlink:href="#DejaVuSans-109"/>
     <use x="160.595703" xlink:href="#DejaVuSans-105"/>
     <use x="188.378906" xlink:href="#DejaVuSans-115"/>
     <use x="240.478516" xlink:href="#DejaVuSans-115"/>
     <use x="292.578125" xlink:href="#DejaVuSans-105"/>
     <use x="320.361328" xlink:href="#DejaVuSans-111"/>
     <use x="381.542969" xlink:href="#DejaVuSans-110"/>
     <use x="444.921875" xlink:href="#DejaVuSans-115"/>
    </g>
   </g>
   <g id="legend_1">
    <g id="patch_8">
     <path d="M 342.566875 302.584 
L 407.72 302.584 
Q 409.72 302.584 409.72 300.584 
L 409.72 216.995562 
Q 409.72 214.995562 407.72 214.995562 
L 342.566875 214.995562 
Q 340.566875 214.995562 340.566875 216.995562 
L 340.566875 300.584 
Q 340.566875 302.584 342.566875 302.584 
z
" style="fill:#ffffff;opacity:0.8;stroke:#cccccc;stroke-linejoin:miter;"/>
    </g>
    <g id="text_15">
     <!-- LCC -->
     <g transform="translate(344.566875 226.594)scale(0.1 -0.1)">
      <defs>
       <path d="M 9.8125 72.90625 
L 19.671875 72.90625 
L 19.671875 8.296875 
L 55.171875 8.296875 
L 55.171875 0 
L 9.8125 0 
z
" id="DejaVuSans-76"/>
      </defs>
      <use xlink:href="#DejaVuSans-76"/>
      <use x="55.712891" xlink:href="#DejaVuSans-67"/>
      <use x="125.537109" xlink:href="#DejaVuSans-67"/>
     </g>
     <!-- ($/house-yr) -->
     <g transform="translate(344.566875 237.791812)scale(0.1 -0.1)">
      <defs>
       <path d="M 33.796875 -14.703125 
L 28.90625 -14.703125 
L 28.859375 0 
Q 23.734375 0.09375 18.609375 1.1875 
Q 13.484375 2.296875 8.296875 4.5 
L 8.296875 13.28125 
Q 13.28125 10.15625 18.375 8.5625 
Q 23.484375 6.984375 28.90625 6.9375 
L 28.90625 29.203125 
Q 18.109375 30.953125 13.203125 35.15625 
Q 8.296875 39.359375 8.296875 46.6875 
Q 8.296875 54.640625 13.625 59.21875 
Q 18.953125 63.8125 28.90625 64.5 
L 28.90625 75.984375 
L 33.796875 75.984375 
L 33.796875 64.65625 
Q 38.328125 64.453125 42.578125 63.6875 
Q 46.828125 62.9375 50.875 61.625 
L 50.875 53.078125 
Q 46.828125 55.125 42.546875 56.25 
Q 38.28125 57.375 33.796875 57.5625 
L 33.796875 36.71875 
Q 44.875 35.015625 50.09375 30.609375 
Q 55.328125 26.21875 55.328125 18.609375 
Q 55.328125 10.359375 49.78125 5.59375 
Q 44.234375 0.828125 33.796875 0.09375 
z
M 28.90625 37.59375 
L 28.90625 57.625 
Q 23.25 56.984375 20.265625 54.390625 
Q 17.28125 51.8125 17.28125 47.515625 
Q 17.28125 43.3125 20.03125 40.96875 
Q 22.796875 38.625 28.90625 37.59375 
z
M 33.796875 28.21875 
L 33.796875 7.078125 
Q 39.984375 7.90625 43.140625 10.59375 
Q 46.296875 13.28125 46.296875 17.671875 
Q 46.296875 21.96875 43.28125 24.5 
Q 40.28125 27.046875 33.796875 28.21875 
z
" id="DejaVuSans-36"/>
      </defs>
      <use xlink:href="#DejaVuSans-40"/>
      <use x="39.013672" xlink:href="#DejaVuSans-36"/>
      <use x="102.636719" xlink:href="#DejaVuSans-47"/>
      <use x="136.328125" xlink:href="#DejaVuSans-104"/>
      <use x="199.707031" xlink:href="#DejaVuSans-111"/>
      <use x="260.888672" xlink:href="#DejaVuSans-117"/>
      <use x="324.267578" xlink:href="#DejaVuSans-115"/>
      <use x="376.367188" xlink:href="#DejaVuSans-101"/>
      <use x="437.890625" xlink:href="#DejaVuSans-45"/>
      <use x="472.224609" xlink:href="#DejaVuSans-121"/>
      <use x="531.404297" xlink:href="#DejaVuSans-114"/>
      <use x="572.517578" xlink:href="#DejaVuSans-41"/>
     </g>
    </g>
    <g id="line2d_12"/>
    <g id="line2d_13">
     <defs>
      <path d="M 0 3 
C 0.795609 3 1.55874 2.683901 2.12132 2.12132 
C 2.683901 1.55874 3 0.795609 3 0 
C 3 -0.795609 2.683901 -1.55874 2.12132 -2.12132 
C 1.55874 -2.683901 0.795609 -3 0 -3 
C -0.795609 -3 -1.55874 -2.683901 -2.12132 -2.12132 
C -2.683901 -1.55874 -3 -0.795609 -3 0 
C -3 0.795609 -2.683901 1.55874 -2.12132 2.12132 
C -1.55874 2.683901 -0.795609 3 0 3 
z
" id="m0adaf0fb5d" style="stroke:#8e2d04;stroke-opacity:0.7;"/>
     </defs>
     <g>
      <use style="fill:#8e2d04;fill-opacity:0.7;stroke:#8e2d04;stroke-opacity:0.7;" x="363.143438" xlink:href="#m0adaf0fb5d" y="248.969937"/>
     </g>
    </g>
    <g id="text_16">
     <!-- $\mathdefault{0.8}$ -->
     <g transform="translate(381.143438 252.469937)scale(0.1 -0.1)">
      <use transform="translate(0 0.78125)" xlink:href="#DejaVuSans-48"/>
      <use transform="translate(63.623047 0.78125)" xlink:href="#DejaVuSans-46"/>
      <use transform="translate(92.785156 0.78125)" xlink:href="#DejaVuSans-56"/>
     </g>
    </g>
    <g id="line2d_14"/>
    <g id="line2d_15">
     <defs>
      <path d="M 0 3 
C 0.795609 3 1.55874 2.683901 2.12132 2.12132 
C 2.683901 1.55874 3 0.795609 3 0 
C 3 -0.795609 2.683901 -1.55874 2.12132 -2.12132 
C 1.55874 -2.683901 0.795609 -3 0 -3 
C -0.795609 -3 -1.55874 -2.683901 -2.12132 -2.12132 
C -2.683901 -1.55874 -3 -0.795609 -3 0 
C -3 0.795609 -2.683901 1.55874 -2.12132 2.12132 
C -1.55874 2.683901 -0.795609 3 0 3 
z
" id="m543cfe056c" style="stroke:#fdbe85;stroke-opacity:0.7;"/>
     </defs>
     <g>
      <use style="fill:#fdbe85;fill-opacity:0.7;stroke:#fdbe85;stroke-opacity:0.7;" x="363.143438" xlink:href="#m543cfe056c" y="263.648062"/>
     </g>
    </g>
    <g id="text_17">
     <!-- $\mathdefault{1.0}$ -->
     <g transform="translate(381.143438 267.148062)scale(0.1 -0.1)">
      <use transform="translate(0 0.78125)" xlink:href="#DejaVuSans-49"/>
      <use transform="translate(63.623047 0.78125)" xlink:href="#DejaVuSans-46"/>
      <use transform="translate(95.410156 0.78125)" xlink:href="#DejaVuSans-48"/>
     </g>
    </g>
    <g id="line2d_16"/>
    <g id="line2d_17">
     <defs>
      <path d="M 0 3 
C 0.795609 3 1.55874 2.683901 2.12132 2.12132 
C 2.683901 1.55874 3 0.795609 3 0 
C 3 -0.795609 2.683901 -1.55874 2.12132 -2.12132 
C 1.55874 -2.683901 0.795609 -3 0 -3 
C -0.795609 -3 -1.55874 -2.683901 -2.12132 -2.12132 
C -2.683901 -1.55874 -3 -0.795609 -3 0 
C -3 0.795609 -2.683901 1.55874 -2.12132 2.12132 
C -1.55874 2.683901 -0.795609 3 0 3 
z
" id="m1d37884a3d" style="stroke:#b1d2e8;stroke-opacity:0.7;"/>
     </defs>
     <g>
      <use style="fill:#b1d2e8;fill-opacity:0.7;stroke:#b1d2e8;stroke-opacity:0.7;" x="363.143438" xlink:href="#m1d37884a3d" y="278.326188"/>
     </g>
    </g>
    <g id="text_18">
     <!-- $\mathdefault{1.2}$ -->
     <g transform="translate(381.143438 281.826188)scale(0.1 -0.1)">
      <use transform="translate(0 0.78125)" xlink:href="#DejaVuSans-49"/>
      <use transform="translate(63.623047 0.78125)" xlink:href="#DejaVuSans-46"/>
      <use transform="translate(89.910156 0.78125)" xlink:href="#DejaVuSans-50"/>
     </g>
    </g>
    <g id="line2d_18"/>
    <g id="line2d_19">
     <defs>
      <path d="M 0 3 
C 0.795609 3 1.55874 2.683901 2.12132 2.12132 
C 2.683901 1.55874 3 0.795609 3 0 
C 3 -0.795609 2.683901 -1.55874 2.12132 -2.12132 
C 1.55874 -2.683901 0.795609 -3 0 -3 
C -0.795609 -3 -1.55874 -2.683901 -2.12132 -2.12132 
C -2.683901 -1.55874 -3 -0.795609 -3 0 
C -3 0.795609 -2.683901 1.55874 -2.12132 2.12132 
C -1.55874 2.683901 -0.795609 3 0 3 
z
" id="m0aa239c5c9" style="stroke:#083c7e;stroke-opacity:0.7;"/>
     </defs>
     <g>
      <use style="fill:#083c7e;fill-opacity:0.7;stroke:#083c7e;stroke-opacity:0.7;" x="363.143438" xlink:href="#m0aa239c5c9" y="293.004312"/>
     </g>
    </g>
    <g id="text_19">
     <!-- $\mathdefault{1.4}$ -->
     <g transform="translate(381.143438 296.504312)scale(0.1 -0.1)">
      <use transform="translate(0 0.09375)" xlink:href="#DejaVuSans-49"/>
      <use transform="translate(63.623047 0.09375)" xlink:href="#DejaVuSans-46"/>
      <use transform="translate(95.410156 0.09375)" xlink:href="#DejaVuSans-52"/>
     </g>
    </g>
   </g>
   <g id="legend_2">
    <g id="patch_9">
     <path d="M 342.566875 302.584 
L 407.72 302.584 
Q 409.72 302.584 409.72 300.584 
L 409.72 216.995562 
Q 409.72 214.995562 407.72 214.995562 
L 342.566875 214.995562 
Q 340.566875 214.995562 340.566875 216.995562 
L 340.566875 300.584 
Q 340.566875 302.584 342.566875 302.584 
z
" style="fill:#ffffff;opacity:0.8;stroke:#cccccc;stroke-linejoin:miter;"/>
    </g>
    <g id="text_20">
     <!-- LCC -->
     <g transform="translate(344.566875 226.594)scale(0.1 -0.1)">
      <use xlink:href="#DejaVuSans-76"/>
      <use x="55.712891" xlink:href="#DejaVuSans-67"/>
      <use x="125.537109" xlink:href="#DejaVuSans-67"/>
     </g>
     <!-- ($/house-yr) -->
     <g transform="translate(344.566875 237.791812)scale(0.1 -0.1)">
      <use xlink:href="#DejaVuSans-40"/>
      <use x="39.013672" xlink:href="#DejaVuSans-36"/>
      <use x="102.636719" xlink:href="#DejaVuSans-47"/>
      <use x="136.328125" xlink:href="#DejaVuSans-104"/>
      <use x="199.707031" xlink:href="#DejaVuSans-111"/>
      <use x="260.888672" xlink:href="#DejaVuSans-117"/>
      <use x="324.267578" xlink:href="#DejaVuSans-115"/>
      <use x="376.367188" xlink:href="#DejaVuSans-101"/>
      <use x="437.890625" xlink:href="#DejaVuSans-45"/>
      <use x="472.224609" xlink:href="#DejaVuSans-121"/>
      <use x="531.404297" xlink:href="#DejaVuSans-114"/>
      <use x="572.517578" xlink:href="#DejaVuSans-41"/>
     </g>
    </g>
    <g id="line2d_20"/>
    <g id="line2d_21">
     <g>
      <use style="fill:#8e2d04;fill-opacity:0.7;stroke:#8e2d04;stroke-opacity:0.7;" x="363.143438" xlink:href="#m0adaf0fb5d" y="248.969937"/>
     </g>
    </g>
    <g id="text_21">
     <!-- $\mathdefault{0.8}$ -->
     <g transform="translate(381.143438 252.469937)scale(0.1 -0.1)">
      <use transform="translate(0 0.78125)" xlink:href="#DejaVuSans-48"/>
      <use transform="translate(63.623047 0.78125)" xlink:href="#DejaVuSans-46"/>
      <use transform="translate(92.785156 0.78125)" xlink:href="#DejaVuSans-56"/>
     </g>
    </g>
    <g id="line2d_22"/>
    <g id="line2d_23">
     <g>
      <use style="fill:#fdbe85;fill-opacity:0.7;stroke:#fdbe85;stroke-opacity:0.7;" x="363.143438" xlink:href="#m543cfe056c" y="263.648062"/>
     </g>
    </g>
    <g id="text_22">
     <!-- $\mathdefault{1.0}$ -->
     <g transform="translate(381.143438 267.148062)scale(0.1 -0.1)">
      <use transform="translate(0 0.78125)" xlink:href="#DejaVuSans-49"/>
      <use transform="translate(63.623047 0.78125)" xlink:href="#DejaVuSans-46"/>
      <use transform="translate(95.410156 0.78125)" xlink:href="#DejaVuSans-48"/>
     </g>
    </g>
    <g id="line2d_24"/>
    <g id="line2d_25">
     <g>
      <use style="fill:#b1d2e8;fill-opacity:0.7;stroke:#b1d2e8;stroke-opacity:0.7;" x="363.143438" xlink:href="#m1d37884a3d" y="278.326188"/>
     </g>
    </g>
    <g id="text_23">
     <!-- $\mathdefault{1.2}$ -->
     <g transform="translate(381.143438 281.826188)scale(0.1 -0.1)">
      <use transform="translate(0 0.78125)" xlink:href="#DejaVuSans-49"/>
      <use transform="translate(63.623047 0.78125)" xlink:href="#DejaVuSans-46"/>
      <use transform="translate(89.910156 0.78125)" xlink:href="#DejaVuSans-50"/>
     </g>
    </g>
    <g id="line2d_26"/>
    <g id="line2d_27">
     <g>
      <use style="fill:#083c7e;fill-opacity:0.7;stroke:#083c7e;stroke-opacity:0.7;" x="363.143438" xlink:href="#m0aa239c5c9" y="293.004312"/>
     </g>
    </g>
    <g id="text_24">
     <!-- $\mathdefault{1.4}$ -->
     <g transform="translate(381.143438 296.504312)scale(0.1 -0.1)">
      <use transform="translate(0 0.09375)" xlink:href="#DejaVuSans-49"/>
      <use transform="translate(63.623047 0.09375)" xlink:href="#DejaVuSans-46"/>
      <use transform="translate(95.410156 0.09375)" xlink:href="#DejaVuSans-52"/>
     </g>
    </g>
   </g>
  </g>
 </g>
 <defs>
  <clipPath id="pa730d7bfc2">
   <rect height="266.112" width="357.12" x="57.6" y="41.472"/>
  </clipPath>
 </defs>
</svg>
