<?xml version="1.0" encoding="utf-8" standalone="no"?>
<!DOCTYPE svg PUBLIC "-//W3C//DTD SVG 1.1//EN"
  "http://www.w3.org/Graphics/SVG/1.1/DTD/svg11.dtd">
<!-- Created with matplotlib (https://matplotlib.org/) -->
<svg height="681.12pt" version="1.1" viewBox="0 0 1334.16 681.12" width="1334.16pt" xmlns="http://www.w3.org/2000/svg" xmlns:xlink="http://www.w3.org/1999/xlink">
 <defs>
  <style type="text/css">
*{stroke-linecap:butt;stroke-linejoin:round;white-space:pre;}
  </style>
 </defs>
 <g id="figure_1">
  <g id="patch_1">
   <path d="M 0 681.12 
L 1334.16 681.12 
L 1334.16 0 
L 0 0 
z
" style="fill:#ffffff;"/>
  </g>
  <g id="patch_2">
   <path d="M 166.77 606.1968 
L 1200.744 606.1968 
L 1200.744 81.7344 
L 166.77 81.7344 
z
" style="fill:#ffffff;"/>
  </g>
  <g id="pane3d_1">
   <g id="patch_3">
    <path d="M 1024.890251 532.788855 
L 932.182546 359.456595 
L 946.139115 124.52492 
L 1046.121306 287.925721 
" style="fill:#f2f2f2;opacity:0.5;stroke:#f2f2f2;stroke-linejoin:miter;"/>
   </g>
  </g>
  <g id="pane3d_2">
   <g id="patch_4">
    <path d="M 393.125295 379.678254 
L 932.182546 359.456595 
L 946.139115 124.52492 
L 374.802874 143.503022 
" style="fill:#e6e6e6;opacity:0.5;stroke:#e6e6e6;stroke-linejoin:miter;"/>
   </g>
  </g>
  <g id="pane3d_3">
   <g id="patch_5">
    <path d="M 440.701518 556.599256 
L 1024.890251 532.788855 
L 932.182546 359.456595 
L 393.125295 379.678254 
" style="fill:#ececec;opacity:0.5;stroke:#ececec;stroke-linejoin:miter;"/>
   </g>
  </g>
  <g id="axis3d_1">
   <g id="line2d_1">
    <path d="M 1024.890251 532.788855 
L 440.701518 556.599256 
" style="fill:none;stroke:#000000;stroke-linecap:square;stroke-width:0.8;"/>
   </g>
   <g id="text_1">
    <!-- Life Cycle Cost -->
    <defs>
     <path d="M 9.8125 72.90625 
L 19.671875 72.90625 
L 19.671875 8.296875 
L 55.171875 8.296875 
L 55.171875 0 
L 9.8125 0 
z
" id="DejaVuSans-76"/>
     <path d="M 9.421875 54.6875 
L 18.40625 54.6875 
L 18.40625 0 
L 9.421875 0 
z
M 9.421875 75.984375 
L 18.40625 75.984375 
L 18.40625 64.59375 
L 9.421875 64.59375 
z
" id="DejaVuSans-105"/>
     <path d="M 37.109375 75.984375 
L 37.109375 68.5 
L 28.515625 68.5 
Q 23.6875 68.5 21.796875 66.546875 
Q 19.921875 64.59375 19.921875 59.515625 
L 19.921875 54.6875 
L 34.71875 54.6875 
L 34.71875 47.703125 
L 19.921875 47.703125 
L 19.921875 0 
L 10.890625 0 
L 10.890625 47.703125 
L 2.296875 47.703125 
L 2.296875 54.6875 
L 10.890625 54.6875 
L 10.890625 58.5 
Q 10.890625 67.625 15.140625 71.796875 
Q 19.390625 75.984375 28.609375 75.984375 
z
" id="DejaVuSans-102"/>
     <path d="M 56.203125 29.59375 
L 56.203125 25.203125 
L 14.890625 25.203125 
Q 15.484375 15.921875 20.484375 11.0625 
Q 25.484375 6.203125 34.421875 6.203125 
Q 39.59375 6.203125 44.453125 7.46875 
Q 49.3125 8.734375 54.109375 11.28125 
L 54.109375 2.78125 
Q 49.265625 0.734375 44.1875 -0.34375 
Q 39.109375 -1.421875 33.890625 -1.421875 
Q 20.796875 -1.421875 13.15625 6.1875 
Q 5.515625 13.8125 5.515625 26.8125 
Q 5.515625 40.234375 12.765625 48.109375 
Q 20.015625 56 32.328125 56 
Q 43.359375 56 49.78125 48.890625 
Q 56.203125 41.796875 56.203125 29.59375 
z
M 47.21875 32.234375 
Q 47.125 39.59375 43.09375 43.984375 
Q 39.0625 48.390625 32.421875 48.390625 
Q 24.90625 48.390625 20.390625 44.140625 
Q 15.875 39.890625 15.1875 32.171875 
z
" id="DejaVuSans-101"/>
     <path id="DejaVuSans-32"/>
     <path d="M 64.40625 67.28125 
L 64.40625 56.890625 
Q 59.421875 61.53125 53.78125 63.8125 
Q 48.140625 66.109375 41.796875 66.109375 
Q 29.296875 66.109375 22.65625 58.46875 
Q 16.015625 50.828125 16.015625 36.375 
Q 16.015625 21.96875 22.65625 14.328125 
Q 29.296875 6.6875 41.796875 6.6875 
Q 48.140625 6.6875 53.78125 8.984375 
Q 59.421875 11.28125 64.40625 15.921875 
L 64.40625 5.609375 
Q 59.234375 2.09375 53.4375 0.328125 
Q 47.65625 -1.421875 41.21875 -1.421875 
Q 24.65625 -1.421875 15.125 8.703125 
Q 5.609375 18.84375 5.609375 36.375 
Q 5.609375 53.953125 15.125 64.078125 
Q 24.65625 74.21875 41.21875 74.21875 
Q 47.75 74.21875 53.53125 72.484375 
Q 59.328125 70.75 64.40625 67.28125 
z
" id="DejaVuSans-67"/>
     <path d="M 32.171875 -5.078125 
Q 28.375 -14.84375 24.75 -17.8125 
Q 21.140625 -20.796875 15.09375 -20.796875 
L 7.90625 -20.796875 
L 7.90625 -13.28125 
L 13.1875 -13.28125 
Q 16.890625 -13.28125 18.9375 -11.515625 
Q 21 -9.765625 23.484375 -3.21875 
L 25.09375 0.875 
L 2.984375 54.6875 
L 12.5 54.6875 
L 29.59375 11.921875 
L 46.6875 54.6875 
L 56.203125 54.6875 
z
" id="DejaVuSans-121"/>
     <path d="M 48.78125 52.59375 
L 48.78125 44.1875 
Q 44.96875 46.296875 41.140625 47.34375 
Q 37.3125 48.390625 33.40625 48.390625 
Q 24.65625 48.390625 19.8125 42.84375 
Q 14.984375 37.3125 14.984375 27.296875 
Q 14.984375 17.28125 19.8125 11.734375 
Q 24.65625 6.203125 33.40625 6.203125 
Q 37.3125 6.203125 41.140625 7.25 
Q 44.96875 8.296875 48.78125 10.40625 
L 48.78125 2.09375 
Q 45.015625 0.34375 40.984375 -0.53125 
Q 36.96875 -1.421875 32.421875 -1.421875 
Q 20.0625 -1.421875 12.78125 6.34375 
Q 5.515625 14.109375 5.515625 27.296875 
Q 5.515625 40.671875 12.859375 48.328125 
Q 20.21875 56 33.015625 56 
Q 37.15625 56 41.109375 55.140625 
Q 45.0625 54.296875 48.78125 52.59375 
z
" id="DejaVuSans-99"/>
     <path d="M 9.421875 75.984375 
L 18.40625 75.984375 
L 18.40625 0 
L 9.421875 0 
z
" id="DejaVuSans-108"/>
     <path d="M 30.609375 48.390625 
Q 23.390625 48.390625 19.1875 42.75 
Q 14.984375 37.109375 14.984375 27.296875 
Q 14.984375 17.484375 19.15625 11.84375 
Q 23.34375 6.203125 30.609375 6.203125 
Q 37.796875 6.203125 41.984375 11.859375 
Q 46.1875 17.53125 46.1875 27.296875 
Q 46.1875 37.015625 41.984375 42.703125 
Q 37.796875 48.390625 30.609375 48.390625 
z
M 30.609375 56 
Q 42.328125 56 49.015625 48.375 
Q 55.71875 40.765625 55.71875 27.296875 
Q 55.71875 13.875 49.015625 6.21875 
Q 42.328125 -1.421875 30.609375 -1.421875 
Q 18.84375 -1.421875 12.171875 6.21875 
Q 5.515625 13.875 5.515625 27.296875 
Q 5.515625 40.765625 12.171875 48.375 
Q 18.84375 56 30.609375 56 
z
" id="DejaVuSans-111"/>
     <path d="M 44.28125 53.078125 
L 44.28125 44.578125 
Q 40.484375 46.53125 36.375 47.5 
Q 32.28125 48.484375 27.875 48.484375 
Q 21.1875 48.484375 17.84375 46.4375 
Q 14.5 44.390625 14.5 40.28125 
Q 14.5 37.15625 16.890625 35.375 
Q 19.28125 33.59375 26.515625 31.984375 
L 29.59375 31.296875 
Q 39.15625 29.25 43.1875 25.515625 
Q 47.21875 21.78125 47.21875 15.09375 
Q 47.21875 7.46875 41.1875 3.015625 
Q 35.15625 -1.421875 24.609375 -1.421875 
Q 20.21875 -1.421875 15.453125 -0.5625 
Q 10.6875 0.296875 5.421875 2 
L 5.421875 11.28125 
Q 10.40625 8.6875 15.234375 7.390625 
Q 20.0625 6.109375 24.8125 6.109375 
Q 31.15625 6.109375 34.5625 8.28125 
Q 37.984375 10.453125 37.984375 14.40625 
Q 37.984375 18.0625 35.515625 20.015625 
Q 33.0625 21.96875 24.703125 23.78125 
L 21.578125 24.515625 
Q 13.234375 26.265625 9.515625 29.90625 
Q 5.8125 33.546875 5.8125 39.890625 
Q 5.8125 47.609375 11.28125 51.796875 
Q 16.75 56 26.8125 56 
Q 31.78125 56 36.171875 55.265625 
Q 40.578125 54.546875 44.28125 53.078125 
z
" id="DejaVuSans-115"/>
     <path d="M 18.3125 70.21875 
L 18.3125 54.6875 
L 36.8125 54.6875 
L 36.8125 47.703125 
L 18.3125 47.703125 
L 18.3125 18.015625 
Q 18.3125 11.328125 20.140625 9.421875 
Q 21.96875 7.515625 27.59375 7.515625 
L 36.8125 7.515625 
L 36.8125 0 
L 27.59375 0 
Q 17.1875 0 13.234375 3.875 
Q 9.28125 7.765625 9.28125 18.015625 
L 9.28125 47.703125 
L 2.6875 47.703125 
L 2.6875 54.6875 
L 9.28125 54.6875 
L 9.28125 70.21875 
z
" id="DejaVuSans-116"/>
    </defs>
    <g transform="translate(697.392251 585.611826)rotate(-2.333973)scale(0.12 -0.12)">
     <use xlink:href="#DejaVuSans-76"/>
     <use x="55.712891" xlink:href="#DejaVuSans-105"/>
     <use x="83.496094" xlink:href="#DejaVuSans-102"/>
     <use x="118.701172" xlink:href="#DejaVuSans-101"/>
     <use x="180.224609" xlink:href="#DejaVuSans-32"/>
     <use x="212.011719" xlink:href="#DejaVuSans-67"/>
     <use x="281.835938" xlink:href="#DejaVuSans-121"/>
     <use x="341.015625" xlink:href="#DejaVuSans-99"/>
     <use x="395.996094" xlink:href="#DejaVuSans-108"/>
     <use x="423.779297" xlink:href="#DejaVuSans-101"/>
     <use x="485.302734" xlink:href="#DejaVuSans-32"/>
     <use x="517.089844" xlink:href="#DejaVuSans-67"/>
     <use x="586.914062" xlink:href="#DejaVuSans-111"/>
     <use x="648.095703" xlink:href="#DejaVuSans-115"/>
     <use x="700.195312" xlink:href="#DejaVuSans-116"/>
    </g>
    <!--  ($/house-yr) -->
    <defs>
     <path d="M 31 75.875 
Q 24.46875 64.65625 21.28125 53.65625 
Q 18.109375 42.671875 18.109375 31.390625 
Q 18.109375 20.125 21.3125 9.0625 
Q 24.515625 -2 31 -13.1875 
L 23.1875 -13.1875 
Q 15.875 -1.703125 12.234375 9.375 
Q 8.59375 20.453125 8.59375 31.390625 
Q 8.59375 42.28125 12.203125 53.3125 
Q 15.828125 64.359375 23.1875 75.875 
z
" id="DejaVuSans-40"/>
     <path d="M 33.796875 -14.703125 
L 28.90625 -14.703125 
L 28.859375 0 
Q 23.734375 0.09375 18.609375 1.1875 
Q 13.484375 2.296875 8.296875 4.5 
L 8.296875 13.28125 
Q 13.28125 10.15625 18.375 8.5625 
Q 23.484375 6.984375 28.90625 6.9375 
L 28.90625 29.203125 
Q 18.109375 30.953125 13.203125 35.15625 
Q 8.296875 39.359375 8.296875 46.6875 
Q 8.296875 54.640625 13.625 59.21875 
Q 18.953125 63.8125 28.90625 64.5 
L 28.90625 75.984375 
L 33.796875 75.984375 
L 33.796875 64.65625 
Q 38.328125 64.453125 42.578125 63.6875 
Q 46.828125 62.9375 50.875 61.625 
L 50.875 53.078125 
Q 46.828125 55.125 42.546875 56.25 
Q 38.28125 57.375 33.796875 57.5625 
L 33.796875 36.71875 
Q 44.875 35.015625 50.09375 30.609375 
Q 55.328125 26.21875 55.328125 18.609375 
Q 55.328125 10.359375 49.78125 5.59375 
Q 44.234375 0.828125 33.796875 0.09375 
z
M 28.90625 37.59375 
L 28.90625 57.625 
Q 23.25 56.984375 20.265625 54.390625 
Q 17.28125 51.8125 17.28125 47.515625 
Q 17.28125 43.3125 20.03125 40.96875 
Q 22.796875 38.625 28.90625 37.59375 
z
M 33.796875 28.21875 
L 33.796875 7.078125 
Q 39.984375 7.90625 43.140625 10.59375 
Q 46.296875 13.28125 46.296875 17.671875 
Q 46.296875 21.96875 43.28125 24.5 
Q 40.28125 27.046875 33.796875 28.21875 
z
" id="DejaVuSans-36"/>
     <path d="M 25.390625 72.90625 
L 33.6875 72.90625 
L 8.296875 -9.28125 
L 0 -9.28125 
z
" id="DejaVuSans-47"/>
     <path d="M 54.890625 33.015625 
L 54.890625 0 
L 45.90625 0 
L 45.90625 32.71875 
Q 45.90625 40.484375 42.875 44.328125 
Q 39.84375 48.1875 33.796875 48.1875 
Q 26.515625 48.1875 22.3125 43.546875 
Q 18.109375 38.921875 18.109375 30.90625 
L 18.109375 0 
L 9.078125 0 
L 9.078125 75.984375 
L 18.109375 75.984375 
L 18.109375 46.1875 
Q 21.34375 51.125 25.703125 53.5625 
Q 30.078125 56 35.796875 56 
Q 45.21875 56 50.046875 50.171875 
Q 54.890625 44.34375 54.890625 33.015625 
z
" id="DejaVuSans-104"/>
     <path d="M 8.5 21.578125 
L 8.5 54.6875 
L 17.484375 54.6875 
L 17.484375 21.921875 
Q 17.484375 14.15625 20.5 10.265625 
Q 23.53125 6.390625 29.59375 6.390625 
Q 36.859375 6.390625 41.078125 11.03125 
Q 45.3125 15.671875 45.3125 23.6875 
L 45.3125 54.6875 
L 54.296875 54.6875 
L 54.296875 0 
L 45.3125 0 
L 45.3125 8.40625 
Q 42.046875 3.421875 37.71875 1 
Q 33.40625 -1.421875 27.6875 -1.421875 
Q 18.265625 -1.421875 13.375 4.4375 
Q 8.5 10.296875 8.5 21.578125 
z
M 31.109375 56 
z
" id="DejaVuSans-117"/>
     <path d="M 4.890625 31.390625 
L 31.203125 31.390625 
L 31.203125 23.390625 
L 4.890625 23.390625 
z
" id="DejaVuSans-45"/>
     <path d="M 41.109375 46.296875 
Q 39.59375 47.171875 37.8125 47.578125 
Q 36.03125 48 33.890625 48 
Q 26.265625 48 22.1875 43.046875 
Q 18.109375 38.09375 18.109375 28.8125 
L 18.109375 0 
L 9.078125 0 
L 9.078125 54.6875 
L 18.109375 54.6875 
L 18.109375 46.1875 
Q 20.953125 51.171875 25.484375 53.578125 
Q 30.03125 56 36.53125 56 
Q 37.453125 56 38.578125 55.875 
Q 39.703125 55.765625 41.0625 55.515625 
z
" id="DejaVuSans-114"/>
     <path d="M 8.015625 75.875 
L 15.828125 75.875 
Q 23.140625 64.359375 26.78125 53.3125 
Q 30.421875 42.28125 30.421875 31.390625 
Q 30.421875 20.453125 26.78125 9.375 
Q 23.140625 -1.703125 15.828125 -13.1875 
L 8.015625 -13.1875 
Q 14.5 -2 17.703125 9.0625 
Q 20.90625 20.125 20.90625 31.390625 
Q 20.90625 42.671875 17.703125 53.65625 
Q 14.5 64.65625 8.015625 75.875 
z
" id="DejaVuSans-41"/>
    </defs>
    <g transform="translate(703.59728 598.807452)rotate(-2.333973)scale(0.12 -0.12)">
     <use xlink:href="#DejaVuSans-32"/>
     <use x="31.787109" xlink:href="#DejaVuSans-40"/>
     <use x="70.800781" xlink:href="#DejaVuSans-36"/>
     <use x="134.423828" xlink:href="#DejaVuSans-47"/>
     <use x="168.115234" xlink:href="#DejaVuSans-104"/>
     <use x="231.494141" xlink:href="#DejaVuSans-111"/>
     <use x="292.675781" xlink:href="#DejaVuSans-117"/>
     <use x="356.054688" xlink:href="#DejaVuSans-115"/>
     <use x="408.154297" xlink:href="#DejaVuSans-101"/>
     <use x="469.677734" xlink:href="#DejaVuSans-45"/>
     <use x="505.746094" xlink:href="#DejaVuSans-121"/>
     <use x="564.925781" xlink:href="#DejaVuSans-114"/>
     <use x="606.039062" xlink:href="#DejaVuSans-41"/>
    </g>
   </g>
   <g id="Line3DCollection_1">
    <path d="M 501.015263 554.140985 
L 448.737769 377.592062 
L 433.776544 141.544091 
" style="fill:none;stroke:#b0b0b0;stroke-width:0.8;"/>
    <path d="M 606.261662 549.851345 
L 545.803536 373.950834 
L 536.69178 138.125551 
" style="fill:none;stroke:#b0b0b0;stroke-width:0.8;"/>
    <path d="M 711.10611 545.578089 
L 642.527683 370.32242 
L 639.223125 134.719762 
" style="fill:none;stroke:#b0b0b0;stroke-width:0.8;"/>
    <path d="M 815.550904 541.321122 
L 738.912009 366.706754 
L 741.372724 131.326655 
" style="fill:none;stroke:#b0b0b0;stroke-width:0.8;"/>
    <path d="M 919.598325 537.08035 
L 834.958303 363.103769 
L 843.142704 127.946157 
" style="fill:none;stroke:#b0b0b0;stroke-width:0.8;"/>
   </g>
   <g id="xtick_1">
    <g id="line2d_2">
     <path d="M 500.561607 552.608919 
L 501.924439 557.21141 
" style="fill:none;stroke:#000000;stroke-linecap:square;stroke-width:0.8;"/>
    </g>
    <g id="text_2">
     <!-- 1 -->
     <defs>
      <path d="M 11.71875 12.984375 
L 28.328125 12.984375 
L 28.328125 60.109375 
L 11.28125 56.59375 
L 11.28125 69.390625 
L 28.21875 72.90625 
L 46.09375 72.90625 
L 46.09375 12.984375 
L 62.703125 12.984375 
L 62.703125 0 
L 11.71875 0 
z
" id="DejaVuSans-Bold-49"/>
     </defs>
     <g transform="translate(498.792809 575.238598)scale(0.12 -0.12)">
      <use xlink:href="#DejaVuSans-Bold-49"/>
     </g>
    </g>
   </g>
   <g id="xtick_2">
    <g id="line2d_3">
     <path d="M 605.737094 548.325135 
L 607.31295 552.910025 
" style="fill:none;stroke:#000000;stroke-linecap:square;stroke-width:0.8;"/>
    </g>
    <g id="text_3">
     <!-- 2 -->
     <defs>
      <path d="M 28.8125 13.8125 
L 60.890625 13.8125 
L 60.890625 0 
L 7.90625 0 
L 7.90625 13.8125 
L 34.515625 37.3125 
Q 38.09375 40.53125 39.796875 43.609375 
Q 41.5 46.6875 41.5 50 
Q 41.5 55.125 38.0625 58.25 
Q 34.625 61.375 28.90625 61.375 
Q 24.515625 61.375 19.28125 59.5 
Q 14.0625 57.625 8.109375 53.90625 
L 8.109375 69.921875 
Q 14.453125 72.015625 20.65625 73.109375 
Q 26.859375 74.21875 32.8125 74.21875 
Q 45.90625 74.21875 53.15625 68.453125 
Q 60.40625 62.703125 60.40625 52.390625 
Q 60.40625 46.4375 57.328125 41.28125 
Q 54.25 36.140625 44.390625 27.484375 
z
" id="DejaVuSans-Bold-50"/>
     </defs>
     <g transform="translate(604.106799 570.923116)scale(0.12 -0.12)">
      <use xlink:href="#DejaVuSans-Bold-50"/>
     </g>
    </g>
   </g>
   <g id="xtick_3">
    <g id="line2d_4">
     <path d="M 710.511174 544.0577 
L 712.298416 548.62509 
" style="fill:none;stroke:#000000;stroke-linecap:square;stroke-width:0.8;"/>
    </g>
    <g id="text_4">
     <!-- 3 -->
     <defs>
      <path d="M 46.578125 39.3125 
Q 53.953125 37.40625 57.78125 32.6875 
Q 61.625 27.984375 61.625 20.703125 
Q 61.625 9.859375 53.3125 4.21875 
Q 45.015625 -1.421875 29.109375 -1.421875 
Q 23.484375 -1.421875 17.84375 -0.515625 
Q 12.203125 0.390625 6.6875 2.203125 
L 6.6875 16.703125 
Q 11.96875 14.0625 17.15625 12.71875 
Q 22.359375 11.375 27.390625 11.375 
Q 34.859375 11.375 38.84375 13.953125 
Q 42.828125 16.546875 42.828125 21.390625 
Q 42.828125 26.375 38.75 28.9375 
Q 34.671875 31.5 26.703125 31.5 
L 19.1875 31.5 
L 19.1875 43.609375 
L 27.09375 43.609375 
Q 34.1875 43.609375 37.640625 45.828125 
Q 41.109375 48.046875 41.109375 52.59375 
Q 41.109375 56.78125 37.734375 59.078125 
Q 34.375 61.375 28.21875 61.375 
Q 23.6875 61.375 19.046875 60.34375 
Q 14.40625 59.328125 9.8125 57.328125 
L 9.8125 71.09375 
Q 15.375 72.65625 20.84375 73.4375 
Q 26.3125 74.21875 31.59375 74.21875 
Q 45.796875 74.21875 52.84375 69.546875 
Q 59.90625 64.890625 59.90625 55.515625 
Q 59.90625 49.125 56.53125 45.046875 
Q 53.171875 40.96875 46.578125 39.3125 
z
" id="DejaVuSans-Bold-51"/>
     </defs>
     <g transform="translate(709.018307 566.624127)scale(0.12 -0.12)">
      <use xlink:href="#DejaVuSans-Bold-51"/>
     </g>
    </g>
   </g>
   <g id="xtick_4">
    <g id="line2d_5">
     <path d="M 814.88614 539.80652 
L 816.883148 544.356511 
" style="fill:none;stroke:#000000;stroke-linecap:square;stroke-width:0.8;"/>
    </g>
    <g id="text_5">
     <!-- 4 -->
     <defs>
      <path d="M 36.8125 57.421875 
L 16.21875 26.90625 
L 36.8125 26.90625 
z
M 33.6875 72.90625 
L 54.59375 72.90625 
L 54.59375 26.90625 
L 64.984375 26.90625 
L 64.984375 13.28125 
L 54.59375 13.28125 
L 54.59375 0 
L 36.8125 0 
L 36.8125 13.28125 
L 4.5 13.28125 
L 4.5 29.390625 
z
" id="DejaVuSans-Bold-52"/>
     </defs>
     <g transform="translate(813.529636 562.341537)scale(0.12 -0.12)">
      <use xlink:href="#DejaVuSans-Bold-52"/>
     </g>
    </g>
   </g>
   <g id="xtick_5">
    <g id="line2d_6">
     <path d="M 918.864268 535.571504 
L 921.069433 540.104194 
" style="fill:none;stroke:#000000;stroke-linecap:square;stroke-width:0.8;"/>
    </g>
    <g id="text_6">
     <!-- 5 -->
     <defs>
      <path d="M 10.59375 72.90625 
L 57.328125 72.90625 
L 57.328125 59.078125 
L 25.59375 59.078125 
L 25.59375 47.796875 
Q 27.734375 48.390625 29.90625 48.703125 
Q 32.078125 49.03125 34.421875 49.03125 
Q 47.75 49.03125 55.171875 42.359375 
Q 62.59375 35.6875 62.59375 23.78125 
Q 62.59375 11.96875 54.515625 5.265625 
Q 46.4375 -1.421875 32.078125 -1.421875 
Q 25.875 -1.421875 19.796875 -0.21875 
Q 13.71875 0.984375 7.71875 3.421875 
L 7.71875 18.21875 
Q 13.671875 14.796875 19.015625 13.078125 
Q 24.359375 11.375 29.109375 11.375 
Q 35.9375 11.375 39.859375 14.71875 
Q 43.796875 18.0625 43.796875 23.78125 
Q 43.796875 29.546875 39.859375 32.859375 
Q 35.9375 36.1875 29.109375 36.1875 
Q 25.046875 36.1875 20.453125 35.125 
Q 15.875 34.078125 10.59375 31.890625 
z
" id="DejaVuSans-Bold-53"/>
     </defs>
     <g transform="translate(917.643072 558.075251)scale(0.12 -0.12)">
      <use xlink:href="#DejaVuSans-Bold-53"/>
     </g>
    </g>
   </g>
  </g>
  <g id="axis3d_2">
   <g id="line2d_7">
    <path d="M 393.125295 379.678254 
L 440.701518 556.599256 
" style="fill:none;stroke:#000000;stroke-linecap:square;stroke-width:0.8;"/>
   </g>
   <g id="text_7">
    <!-- Global Warming Potential -->
    <defs>
     <path d="M 59.515625 10.40625 
L 59.515625 29.984375 
L 43.40625 29.984375 
L 43.40625 38.09375 
L 69.28125 38.09375 
L 69.28125 6.78125 
Q 63.578125 2.734375 56.6875 0.65625 
Q 49.8125 -1.421875 42 -1.421875 
Q 24.90625 -1.421875 15.25 8.5625 
Q 5.609375 18.5625 5.609375 36.375 
Q 5.609375 54.25 15.25 64.234375 
Q 24.90625 74.21875 42 74.21875 
Q 49.125 74.21875 55.546875 72.453125 
Q 61.96875 70.703125 67.390625 67.28125 
L 67.390625 56.78125 
Q 61.921875 61.421875 55.765625 63.765625 
Q 49.609375 66.109375 42.828125 66.109375 
Q 29.4375 66.109375 22.71875 58.640625 
Q 16.015625 51.171875 16.015625 36.375 
Q 16.015625 21.625 22.71875 14.15625 
Q 29.4375 6.6875 42.828125 6.6875 
Q 48.046875 6.6875 52.140625 7.59375 
Q 56.25 8.5 59.515625 10.40625 
z
" id="DejaVuSans-71"/>
     <path d="M 48.6875 27.296875 
Q 48.6875 37.203125 44.609375 42.84375 
Q 40.53125 48.484375 33.40625 48.484375 
Q 26.265625 48.484375 22.1875 42.84375 
Q 18.109375 37.203125 18.109375 27.296875 
Q 18.109375 17.390625 22.1875 11.75 
Q 26.265625 6.109375 33.40625 6.109375 
Q 40.53125 6.109375 44.609375 11.75 
Q 48.6875 17.390625 48.6875 27.296875 
z
M 18.109375 46.390625 
Q 20.953125 51.265625 25.265625 53.625 
Q 29.59375 56 35.59375 56 
Q 45.5625 56 51.78125 48.09375 
Q 58.015625 40.1875 58.015625 27.296875 
Q 58.015625 14.40625 51.78125 6.484375 
Q 45.5625 -1.421875 35.59375 -1.421875 
Q 29.59375 -1.421875 25.265625 0.953125 
Q 20.953125 3.328125 18.109375 8.203125 
L 18.109375 0 
L 9.078125 0 
L 9.078125 75.984375 
L 18.109375 75.984375 
z
" id="DejaVuSans-98"/>
     <path d="M 34.28125 27.484375 
Q 23.390625 27.484375 19.1875 25 
Q 14.984375 22.515625 14.984375 16.5 
Q 14.984375 11.71875 18.140625 8.90625 
Q 21.296875 6.109375 26.703125 6.109375 
Q 34.1875 6.109375 38.703125 11.40625 
Q 43.21875 16.703125 43.21875 25.484375 
L 43.21875 27.484375 
z
M 52.203125 31.203125 
L 52.203125 0 
L 43.21875 0 
L 43.21875 8.296875 
Q 40.140625 3.328125 35.546875 0.953125 
Q 30.953125 -1.421875 24.3125 -1.421875 
Q 15.921875 -1.421875 10.953125 3.296875 
Q 6 8.015625 6 15.921875 
Q 6 25.140625 12.171875 29.828125 
Q 18.359375 34.515625 30.609375 34.515625 
L 43.21875 34.515625 
L 43.21875 35.40625 
Q 43.21875 41.609375 39.140625 45 
Q 35.0625 48.390625 27.6875 48.390625 
Q 23 48.390625 18.546875 47.265625 
Q 14.109375 46.140625 10.015625 43.890625 
L 10.015625 52.203125 
Q 14.9375 54.109375 19.578125 55.046875 
Q 24.21875 56 28.609375 56 
Q 40.484375 56 46.34375 49.84375 
Q 52.203125 43.703125 52.203125 31.203125 
z
" id="DejaVuSans-97"/>
     <path d="M 3.328125 72.90625 
L 13.28125 72.90625 
L 28.609375 11.28125 
L 43.890625 72.90625 
L 54.984375 72.90625 
L 70.3125 11.28125 
L 85.59375 72.90625 
L 95.609375 72.90625 
L 77.296875 0 
L 64.890625 0 
L 49.515625 63.28125 
L 33.984375 0 
L 21.578125 0 
z
" id="DejaVuSans-87"/>
     <path d="M 52 44.1875 
Q 55.375 50.25 60.0625 53.125 
Q 64.75 56 71.09375 56 
Q 79.640625 56 84.28125 50.015625 
Q 88.921875 44.046875 88.921875 33.015625 
L 88.921875 0 
L 79.890625 0 
L 79.890625 32.71875 
Q 79.890625 40.578125 77.09375 44.375 
Q 74.3125 48.1875 68.609375 48.1875 
Q 61.625 48.1875 57.5625 43.546875 
Q 53.515625 38.921875 53.515625 30.90625 
L 53.515625 0 
L 44.484375 0 
L 44.484375 32.71875 
Q 44.484375 40.625 41.703125 44.40625 
Q 38.921875 48.1875 33.109375 48.1875 
Q 26.21875 48.1875 22.15625 43.53125 
Q 18.109375 38.875 18.109375 30.90625 
L 18.109375 0 
L 9.078125 0 
L 9.078125 54.6875 
L 18.109375 54.6875 
L 18.109375 46.1875 
Q 21.1875 51.21875 25.484375 53.609375 
Q 29.78125 56 35.6875 56 
Q 41.65625 56 45.828125 52.96875 
Q 50 49.953125 52 44.1875 
z
" id="DejaVuSans-109"/>
     <path d="M 54.890625 33.015625 
L 54.890625 0 
L 45.90625 0 
L 45.90625 32.71875 
Q 45.90625 40.484375 42.875 44.328125 
Q 39.84375 48.1875 33.796875 48.1875 
Q 26.515625 48.1875 22.3125 43.546875 
Q 18.109375 38.921875 18.109375 30.90625 
L 18.109375 0 
L 9.078125 0 
L 9.078125 54.6875 
L 18.109375 54.6875 
L 18.109375 46.1875 
Q 21.34375 51.125 25.703125 53.5625 
Q 30.078125 56 35.796875 56 
Q 45.21875 56 50.046875 50.171875 
Q 54.890625 44.34375 54.890625 33.015625 
z
" id="DejaVuSans-110"/>
     <path d="M 45.40625 27.984375 
Q 45.40625 37.75 41.375 43.109375 
Q 37.359375 48.484375 30.078125 48.484375 
Q 22.859375 48.484375 18.828125 43.109375 
Q 14.796875 37.75 14.796875 27.984375 
Q 14.796875 18.265625 18.828125 12.890625 
Q 22.859375 7.515625 30.078125 7.515625 
Q 37.359375 7.515625 41.375 12.890625 
Q 45.40625 18.265625 45.40625 27.984375 
z
M 54.390625 6.78125 
Q 54.390625 -7.171875 48.1875 -13.984375 
Q 42 -20.796875 29.203125 -20.796875 
Q 24.46875 -20.796875 20.265625 -20.09375 
Q 16.0625 -19.390625 12.109375 -17.921875 
L 12.109375 -9.1875 
Q 16.0625 -11.328125 19.921875 -12.34375 
Q 23.78125 -13.375 27.78125 -13.375 
Q 36.625 -13.375 41.015625 -8.765625 
Q 45.40625 -4.15625 45.40625 5.171875 
L 45.40625 9.625 
Q 42.625 4.78125 38.28125 2.390625 
Q 33.9375 0 27.875 0 
Q 17.828125 0 11.671875 7.65625 
Q 5.515625 15.328125 5.515625 27.984375 
Q 5.515625 40.671875 11.671875 48.328125 
Q 17.828125 56 27.875 56 
Q 33.9375 56 38.28125 53.609375 
Q 42.625 51.21875 45.40625 46.390625 
L 45.40625 54.6875 
L 54.390625 54.6875 
z
" id="DejaVuSans-103"/>
     <path d="M 19.671875 64.796875 
L 19.671875 37.40625 
L 32.078125 37.40625 
Q 38.96875 37.40625 42.71875 40.96875 
Q 46.484375 44.53125 46.484375 51.125 
Q 46.484375 57.671875 42.71875 61.234375 
Q 38.96875 64.796875 32.078125 64.796875 
z
M 9.8125 72.90625 
L 32.078125 72.90625 
Q 44.34375 72.90625 50.609375 67.359375 
Q 56.890625 61.8125 56.890625 51.125 
Q 56.890625 40.328125 50.609375 34.8125 
Q 44.34375 29.296875 32.078125 29.296875 
L 19.671875 29.296875 
L 19.671875 0 
L 9.8125 0 
z
" id="DejaVuSans-80"/>
    </defs>
    <g transform="translate(344.050644 414.647595)rotate(-285.05147)scale(0.12 -0.12)">
     <use xlink:href="#DejaVuSans-71"/>
     <use x="77.490234" xlink:href="#DejaVuSans-108"/>
     <use x="105.273438" xlink:href="#DejaVuSans-111"/>
     <use x="166.455078" xlink:href="#DejaVuSans-98"/>
     <use x="229.931641" xlink:href="#DejaVuSans-97"/>
     <use x="291.210938" xlink:href="#DejaVuSans-108"/>
     <use x="318.994141" xlink:href="#DejaVuSans-32"/>
     <use x="350.78125" xlink:href="#DejaVuSans-87"/>
     <use x="449.564453" xlink:href="#DejaVuSans-97"/>
     <use x="510.84375" xlink:href="#DejaVuSans-114"/>
     <use x="551.941406" xlink:href="#DejaVuSans-109"/>
     <use x="649.353516" xlink:href="#DejaVuSans-105"/>
     <use x="677.136719" xlink:href="#DejaVuSans-110"/>
     <use x="740.515625" xlink:href="#DejaVuSans-103"/>
     <use x="803.992188" xlink:href="#DejaVuSans-32"/>
     <use x="835.779297" xlink:href="#DejaVuSans-80"/>
     <use x="896.035156" xlink:href="#DejaVuSans-111"/>
     <use x="957.216797" xlink:href="#DejaVuSans-116"/>
     <use x="996.425781" xlink:href="#DejaVuSans-101"/>
     <use x="1057.949219" xlink:href="#DejaVuSans-110"/>
     <use x="1121.328125" xlink:href="#DejaVuSans-116"/>
     <use x="1160.537109" xlink:href="#DejaVuSans-105"/>
     <use x="1188.320312" xlink:href="#DejaVuSans-97"/>
     <use x="1249.599609" xlink:href="#DejaVuSans-108"/>
    </g>
    <!--  (kgCO2eq/house-yr) -->
    <defs>
     <path d="M 9.078125 75.984375 
L 18.109375 75.984375 
L 18.109375 31.109375 
L 44.921875 54.6875 
L 56.390625 54.6875 
L 27.390625 29.109375 
L 57.625 0 
L 45.90625 0 
L 18.109375 26.703125 
L 18.109375 0 
L 9.078125 0 
z
" id="DejaVuSans-107"/>
     <path d="M 39.40625 66.21875 
Q 28.65625 66.21875 22.328125 58.203125 
Q 16.015625 50.203125 16.015625 36.375 
Q 16.015625 22.609375 22.328125 14.59375 
Q 28.65625 6.59375 39.40625 6.59375 
Q 50.140625 6.59375 56.421875 14.59375 
Q 62.703125 22.609375 62.703125 36.375 
Q 62.703125 50.203125 56.421875 58.203125 
Q 50.140625 66.21875 39.40625 66.21875 
z
M 39.40625 74.21875 
Q 54.734375 74.21875 63.90625 63.9375 
Q 73.09375 53.65625 73.09375 36.375 
Q 73.09375 19.140625 63.90625 8.859375 
Q 54.734375 -1.421875 39.40625 -1.421875 
Q 24.03125 -1.421875 14.8125 8.828125 
Q 5.609375 19.09375 5.609375 36.375 
Q 5.609375 53.65625 14.8125 63.9375 
Q 24.03125 74.21875 39.40625 74.21875 
z
" id="DejaVuSans-79"/>
     <path d="M 19.1875 8.296875 
L 53.609375 8.296875 
L 53.609375 0 
L 7.328125 0 
L 7.328125 8.296875 
Q 12.9375 14.109375 22.625 23.890625 
Q 32.328125 33.6875 34.8125 36.53125 
Q 39.546875 41.84375 41.421875 45.53125 
Q 43.3125 49.21875 43.3125 52.78125 
Q 43.3125 58.59375 39.234375 62.25 
Q 35.15625 65.921875 28.609375 65.921875 
Q 23.96875 65.921875 18.8125 64.3125 
Q 13.671875 62.703125 7.8125 59.421875 
L 7.8125 69.390625 
Q 13.765625 71.78125 18.9375 73 
Q 24.125 74.21875 28.421875 74.21875 
Q 39.75 74.21875 46.484375 68.546875 
Q 53.21875 62.890625 53.21875 53.421875 
Q 53.21875 48.921875 51.53125 44.890625 
Q 49.859375 40.875 45.40625 35.40625 
Q 44.1875 33.984375 37.640625 27.21875 
Q 31.109375 20.453125 19.1875 8.296875 
z
" id="DejaVuSans-50"/>
     <path d="M 14.796875 27.296875 
Q 14.796875 17.390625 18.875 11.75 
Q 22.953125 6.109375 30.078125 6.109375 
Q 37.203125 6.109375 41.296875 11.75 
Q 45.40625 17.390625 45.40625 27.296875 
Q 45.40625 37.203125 41.296875 42.84375 
Q 37.203125 48.484375 30.078125 48.484375 
Q 22.953125 48.484375 18.875 42.84375 
Q 14.796875 37.203125 14.796875 27.296875 
z
M 45.40625 8.203125 
Q 42.578125 3.328125 38.25 0.953125 
Q 33.9375 -1.421875 27.875 -1.421875 
Q 17.96875 -1.421875 11.734375 6.484375 
Q 5.515625 14.40625 5.515625 27.296875 
Q 5.515625 40.1875 11.734375 48.09375 
Q 17.96875 56 27.875 56 
Q 33.9375 56 38.25 53.625 
Q 42.578125 51.265625 45.40625 46.390625 
L 45.40625 54.6875 
L 54.390625 54.6875 
L 54.390625 -20.796875 
L 45.40625 -20.796875 
z
" id="DejaVuSans-113"/>
    </defs>
    <g transform="translate(334.77261 431.890078)rotate(-285.05147)scale(0.12 -0.12)">
     <use xlink:href="#DejaVuSans-32"/>
     <use x="31.787109" xlink:href="#DejaVuSans-40"/>
     <use x="70.800781" xlink:href="#DejaVuSans-107"/>
     <use x="128.710938" xlink:href="#DejaVuSans-103"/>
     <use x="192.1875" xlink:href="#DejaVuSans-67"/>
     <use x="262.011719" xlink:href="#DejaVuSans-79"/>
     <use x="340.722656" xlink:href="#DejaVuSans-50"/>
     <use x="404.345703" xlink:href="#DejaVuSans-101"/>
     <use x="465.869141" xlink:href="#DejaVuSans-113"/>
     <use x="529.345703" xlink:href="#DejaVuSans-47"/>
     <use x="563.037109" xlink:href="#DejaVuSans-104"/>
     <use x="626.416016" xlink:href="#DejaVuSans-111"/>
     <use x="687.597656" xlink:href="#DejaVuSans-117"/>
     <use x="750.976562" xlink:href="#DejaVuSans-115"/>
     <use x="803.076172" xlink:href="#DejaVuSans-101"/>
     <use x="864.599609" xlink:href="#DejaVuSans-45"/>
     <use x="900.667969" xlink:href="#DejaVuSans-121"/>
     <use x="959.847656" xlink:href="#DejaVuSans-114"/>
     <use x="1000.960938" xlink:href="#DejaVuSans-41"/>
    </g>
   </g>
   <g id="Line3DCollection_2">
    <path d="M 1040.653485 278.989666 
L 1019.844416 523.35484 
L 438.110022 546.962296 
" style="fill:none;stroke:#b0b0b0;stroke-width:0.8;"/>
    <path d="M 1027.543471 257.563983 
L 1007.734847 500.714014 
L 431.891615 523.838 
" style="fill:none;stroke:#b0b0b0;stroke-width:0.8;"/>
    <path d="M 1014.715991 236.600045 
L 995.870736 478.532112 
L 425.800573 501.18733 
" style="fill:none;stroke:#b0b0b0;stroke-width:0.8;"/>
    <path d="M 1002.16201 216.083084 
L 984.244695 456.795322 
L 419.833021 478.995882 
" style="fill:none;stroke:#b0b0b0;stroke-width:0.8;"/>
    <path d="M 989.872871 195.998957 
L 972.849629 435.490377 
L 413.985242 457.24983 
" style="fill:none;stroke:#b0b0b0;stroke-width:0.8;"/>
    <path d="M 977.840283 176.334108 
L 961.678723 414.604536 
L 408.253665 435.9359 
" style="fill:none;stroke:#b0b0b0;stroke-width:0.8;"/>
    <path d="M 966.056293 157.075546 
L 950.725427 394.125552 
L 402.634861 415.041337 
" style="fill:none;stroke:#b0b0b0;stroke-width:0.8;"/>
    <path d="M 954.513278 138.210806 
L 939.983444 374.041652 
L 397.125534 394.553885 
" style="fill:none;stroke:#b0b0b0;stroke-width:0.8;"/>
   </g>
   <g id="xtick_6">
    <g id="line2d_8">
     <path d="M 442.813179 546.771436 
L 428.701297 547.344113 
" style="fill:none;stroke:#000000;stroke-linecap:square;stroke-width:0.8;"/>
    </g>
    <g id="text_8">
     <!-- 2.5 -->
     <defs>
      <path d="M 10.203125 18.890625 
L 27.78125 18.890625 
L 27.78125 0 
L 10.203125 0 
z
" id="DejaVuSans-Bold-46"/>
     </defs>
     <g transform="translate(411.295929 563.27876)scale(0.12 -0.12)">
      <use xlink:href="#DejaVuSans-Bold-50"/>
      <use x="69.580078" xlink:href="#DejaVuSans-Bold-46"/>
      <use x="107.568359" xlink:href="#DejaVuSans-Bold-53"/>
     </g>
    </g>
   </g>
   <g id="xtick_7">
    <g id="line2d_9">
     <path d="M 436.54664 523.651069 
L 422.579206 524.211956 
" style="fill:none;stroke:#000000;stroke-linecap:square;stroke-width:0.8;"/>
    </g>
    <g id="text_9">
     <!-- 5.0 -->
     <defs>
      <path d="M 46 36.53125 
Q 46 50.203125 43.4375 55.78125 
Q 40.875 61.375 34.8125 61.375 
Q 28.765625 61.375 26.171875 55.78125 
Q 23.578125 50.203125 23.578125 36.53125 
Q 23.578125 22.703125 26.171875 17.03125 
Q 28.765625 11.375 34.8125 11.375 
Q 40.828125 11.375 43.40625 17.03125 
Q 46 22.703125 46 36.53125 
z
M 64.796875 36.375 
Q 64.796875 18.265625 56.984375 8.421875 
Q 49.171875 -1.421875 34.8125 -1.421875 
Q 20.40625 -1.421875 12.59375 8.421875 
Q 4.78125 18.265625 4.78125 36.375 
Q 4.78125 54.546875 12.59375 64.375 
Q 20.40625 74.21875 34.8125 74.21875 
Q 49.171875 74.21875 56.984375 64.375 
Q 64.796875 54.546875 64.796875 36.375 
z
" id="DejaVuSans-Bold-48"/>
     </defs>
     <g transform="translate(405.253576 540.112891)scale(0.12 -0.12)">
      <use xlink:href="#DejaVuSans-Bold-53"/>
      <use x="69.580078" xlink:href="#DejaVuSans-Bold-46"/>
      <use x="107.568359" xlink:href="#DejaVuSans-Bold-48"/>
     </g>
    </g>
   </g>
   <g id="xtick_8">
    <g id="line2d_10">
     <path d="M 430.408439 501.004208 
L 416.582527 501.553665 
" style="fill:none;stroke:#000000;stroke-linecap:square;stroke-width:0.8;"/>
    </g>
    <g id="text_10">
     <!-- 7.5 -->
     <defs>
      <path d="M 6.6875 72.90625 
L 61.625 72.90625 
L 61.625 62.3125 
L 33.203125 0 
L 14.890625 0 
L 41.796875 59.078125 
L 6.6875 59.078125 
z
" id="DejaVuSans-Bold-55"/>
     </defs>
     <g transform="translate(399.334807 517.420833)scale(0.12 -0.12)">
      <use xlink:href="#DejaVuSans-Bold-55"/>
      <use x="69.580078" xlink:href="#DejaVuSans-Bold-46"/>
      <use x="107.568359" xlink:href="#DejaVuSans-Bold-53"/>
     </g>
    </g>
   </g>
   <g id="xtick_9">
    <g id="line2d_11">
     <path d="M 424.394675 478.816454 
L 410.707446 479.354827 
" style="fill:none;stroke:#000000;stroke-linecap:square;stroke-width:0.8;"/>
    </g>
    <g id="text_11">
     <!-- 10.0 -->
     <g transform="translate(389.361182 495.188196)scale(0.12 -0.12)">
      <use xlink:href="#DejaVuSans-Bold-49"/>
      <use x="69.580078" xlink:href="#DejaVuSans-Bold-48"/>
      <use x="139.160156" xlink:href="#DejaVuSans-Bold-46"/>
      <use x="177.148438" xlink:href="#DejaVuSans-Bold-48"/>
     </g>
    </g>
   </g>
   <g id="xtick_10">
    <g id="line2d_12">
     <path d="M 418.501601 457.073985 
L 404.950301 457.601607 
" style="fill:none;stroke:#000000;stroke-linecap:square;stroke-width:0.8;"/>
    </g>
    <g id="text_12">
     <!-- 12.5 -->
     <g transform="translate(383.678472 473.401169)scale(0.12 -0.12)">
      <use xlink:href="#DejaVuSans-Bold-49"/>
      <use x="69.580078" xlink:href="#DejaVuSans-Bold-50"/>
      <use x="139.160156" xlink:href="#DejaVuSans-Bold-46"/>
      <use x="177.148438" xlink:href="#DejaVuSans-Bold-53"/>
     </g>
    </g>
   </g>
   <g id="xtick_11">
    <g id="line2d_13">
     <path d="M 412.72562 435.763532 
L 399.307576 436.28072 
" style="fill:none;stroke:#000000;stroke-linecap:square;stroke-width:0.8;"/>
    </g>
    <g id="text_13">
     <!-- 15.0 -->
     <g transform="translate(378.108531 452.046487)scale(0.12 -0.12)">
      <use xlink:href="#DejaVuSans-Bold-49"/>
      <use x="69.580078" xlink:href="#DejaVuSans-Bold-53"/>
      <use x="139.160156" xlink:href="#DejaVuSans-Bold-46"/>
      <use x="177.148438" xlink:href="#DejaVuSans-Bold-48"/>
     </g>
    </g>
   </g>
   <g id="xtick_12">
    <g id="line2d_14">
     <path d="M 407.063277 414.872343 
L 393.775893 415.379405 
" style="fill:none;stroke:#000000;stroke-linecap:square;stroke-width:0.8;"/>
    </g>
    <g id="text_14">
     <!-- 17.5 -->
     <g transform="translate(372.648035 431.111408)scale(0.12 -0.12)">
      <use xlink:href="#DejaVuSans-Bold-49"/>
      <use x="69.580078" xlink:href="#DejaVuSans-Bold-55"/>
      <use x="139.160156" xlink:href="#DejaVuSans-Bold-46"/>
      <use x="177.148438" xlink:href="#DejaVuSans-Bold-53"/>
     </g>
    </g>
   </g>
   <g id="xtick_13">
    <g id="line2d_15">
     <path d="M 401.51125 394.388168 
L 388.352008 394.885398 
" style="fill:none;stroke:#000000;stroke-linecap:square;stroke-width:0.8;"/>
    </g>
    <g id="text_15">
     <!-- 20.0 -->
     <g transform="translate(367.293789 410.583684)scale(0.12 -0.12)">
      <use xlink:href="#DejaVuSans-Bold-50"/>
      <use x="69.580078" xlink:href="#DejaVuSans-Bold-48"/>
      <use x="139.160156" xlink:href="#DejaVuSans-Bold-46"/>
      <use x="177.148438" xlink:href="#DejaVuSans-Bold-48"/>
     </g>
    </g>
   </g>
  </g>
  <g id="axis3d_3">
   <g id="line2d_16">
    <path d="M 393.125295 379.678254 
L 374.802874 143.503022 
" style="fill:none;stroke:#000000;stroke-linecap:square;stroke-width:0.8;"/>
   </g>
   <g id="text_16">
    <!-- Degree of Circularity -->
    <defs>
     <path d="M 19.671875 64.796875 
L 19.671875 8.109375 
L 31.59375 8.109375 
Q 46.6875 8.109375 53.6875 14.9375 
Q 60.6875 21.78125 60.6875 36.53125 
Q 60.6875 51.171875 53.6875 57.984375 
Q 46.6875 64.796875 31.59375 64.796875 
z
M 9.8125 72.90625 
L 30.078125 72.90625 
Q 51.265625 72.90625 61.171875 64.09375 
Q 71.09375 55.28125 71.09375 36.53125 
Q 71.09375 17.671875 61.125 8.828125 
Q 51.171875 0 30.078125 0 
L 9.8125 0 
z
" id="DejaVuSans-68"/>
    </defs>
    <g transform="translate(322.144952 188.691315)rotate(-274.436108)scale(0.12 -0.12)">
     <use xlink:href="#DejaVuSans-68"/>
     <use x="77.001953" xlink:href="#DejaVuSans-101"/>
     <use x="138.525391" xlink:href="#DejaVuSans-103"/>
     <use x="202.001953" xlink:href="#DejaVuSans-114"/>
     <use x="243.083984" xlink:href="#DejaVuSans-101"/>
     <use x="304.607422" xlink:href="#DejaVuSans-101"/>
     <use x="366.130859" xlink:href="#DejaVuSans-32"/>
     <use x="397.917969" xlink:href="#DejaVuSans-111"/>
     <use x="459.099609" xlink:href="#DejaVuSans-102"/>
     <use x="494.304688" xlink:href="#DejaVuSans-32"/>
     <use x="526.091797" xlink:href="#DejaVuSans-67"/>
     <use x="595.916016" xlink:href="#DejaVuSans-105"/>
     <use x="623.699219" xlink:href="#DejaVuSans-114"/>
     <use x="664.78125" xlink:href="#DejaVuSans-99"/>
     <use x="719.761719" xlink:href="#DejaVuSans-117"/>
     <use x="783.140625" xlink:href="#DejaVuSans-108"/>
     <use x="810.923828" xlink:href="#DejaVuSans-97"/>
     <use x="872.203125" xlink:href="#DejaVuSans-114"/>
     <use x="913.316406" xlink:href="#DejaVuSans-105"/>
     <use x="941.099609" xlink:href="#DejaVuSans-116"/>
     <use x="980.308594" xlink:href="#DejaVuSans-121"/>
    </g>
    <!--  (Industrial Perspective) -->
    <defs>
     <path d="M 9.8125 72.90625 
L 19.671875 72.90625 
L 19.671875 0 
L 9.8125 0 
z
" id="DejaVuSans-73"/>
     <path d="M 45.40625 46.390625 
L 45.40625 75.984375 
L 54.390625 75.984375 
L 54.390625 0 
L 45.40625 0 
L 45.40625 8.203125 
Q 42.578125 3.328125 38.25 0.953125 
Q 33.9375 -1.421875 27.875 -1.421875 
Q 17.96875 -1.421875 11.734375 6.484375 
Q 5.515625 14.40625 5.515625 27.296875 
Q 5.515625 40.1875 11.734375 48.09375 
Q 17.96875 56 27.875 56 
Q 33.9375 56 38.25 53.625 
Q 42.578125 51.265625 45.40625 46.390625 
z
M 14.796875 27.296875 
Q 14.796875 17.390625 18.875 11.75 
Q 22.953125 6.109375 30.078125 6.109375 
Q 37.203125 6.109375 41.296875 11.75 
Q 45.40625 17.390625 45.40625 27.296875 
Q 45.40625 37.203125 41.296875 42.84375 
Q 37.203125 48.484375 30.078125 48.484375 
Q 22.953125 48.484375 18.875 42.84375 
Q 14.796875 37.203125 14.796875 27.296875 
z
" id="DejaVuSans-100"/>
     <path d="M 18.109375 8.203125 
L 18.109375 -20.796875 
L 9.078125 -20.796875 
L 9.078125 54.6875 
L 18.109375 54.6875 
L 18.109375 46.390625 
Q 20.953125 51.265625 25.265625 53.625 
Q 29.59375 56 35.59375 56 
Q 45.5625 56 51.78125 48.09375 
Q 58.015625 40.1875 58.015625 27.296875 
Q 58.015625 14.40625 51.78125 6.484375 
Q 45.5625 -1.421875 35.59375 -1.421875 
Q 29.59375 -1.421875 25.265625 0.953125 
Q 20.953125 3.328125 18.109375 8.203125 
z
M 48.6875 27.296875 
Q 48.6875 37.203125 44.609375 42.84375 
Q 40.53125 48.484375 33.40625 48.484375 
Q 26.265625 48.484375 22.1875 42.84375 
Q 18.109375 37.203125 18.109375 27.296875 
Q 18.109375 17.390625 22.1875 11.75 
Q 26.265625 6.109375 33.40625 6.109375 
Q 40.53125 6.109375 44.609375 11.75 
Q 48.6875 17.390625 48.6875 27.296875 
z
" id="DejaVuSans-112"/>
     <path d="M 2.984375 54.6875 
L 12.5 54.6875 
L 29.59375 8.796875 
L 46.6875 54.6875 
L 56.203125 54.6875 
L 35.6875 0 
L 23.484375 0 
z
" id="DejaVuSans-118"/>
    </defs>
    <g transform="translate(308.03423 180.532362)rotate(-274.436108)scale(0.12 -0.12)">
     <use xlink:href="#DejaVuSans-32"/>
     <use x="31.787109" xlink:href="#DejaVuSans-40"/>
     <use x="70.800781" xlink:href="#DejaVuSans-73"/>
     <use x="100.292969" xlink:href="#DejaVuSans-110"/>
     <use x="163.671875" xlink:href="#DejaVuSans-100"/>
     <use x="227.148438" xlink:href="#DejaVuSans-117"/>
     <use x="290.527344" xlink:href="#DejaVuSans-115"/>
     <use x="342.626953" xlink:href="#DejaVuSans-116"/>
     <use x="381.835938" xlink:href="#DejaVuSans-114"/>
     <use x="422.949219" xlink:href="#DejaVuSans-105"/>
     <use x="450.732422" xlink:href="#DejaVuSans-97"/>
     <use x="512.011719" xlink:href="#DejaVuSans-108"/>
     <use x="539.794922" xlink:href="#DejaVuSans-32"/>
     <use x="571.582031" xlink:href="#DejaVuSans-80"/>
     <use x="631.837891" xlink:href="#DejaVuSans-101"/>
     <use x="693.361328" xlink:href="#DejaVuSans-114"/>
     <use x="734.474609" xlink:href="#DejaVuSans-115"/>
     <use x="786.574219" xlink:href="#DejaVuSans-112"/>
     <use x="850.050781" xlink:href="#DejaVuSans-101"/>
     <use x="911.574219" xlink:href="#DejaVuSans-99"/>
     <use x="966.554688" xlink:href="#DejaVuSans-116"/>
     <use x="1005.763672" xlink:href="#DejaVuSans-105"/>
     <use x="1033.546875" xlink:href="#DejaVuSans-118"/>
     <use x="1092.726562" xlink:href="#DejaVuSans-101"/>
     <use x="1154.25" xlink:href="#DejaVuSans-41"/>
    </g>
   </g>
   <g id="Line3DCollection_3">
    <path d="M 392.021493 365.450292 
L 933.0238 345.295725 
L 1026.163923 518.099272 
" style="fill:none;stroke:#b0b0b0;stroke-width:0.8;"/>
    <path d="M 388.781628 323.688563 
L 935.492693 303.736719 
L 1029.906341 474.937017 
" style="fill:none;stroke:#b0b0b0;stroke-width:0.8;"/>
    <path d="M 385.472355 281.032179 
L 938.013946 261.296325 
L 1033.73503 430.77978 
" style="fill:none;stroke:#b0b0b0;stroke-width:0.8;"/>
    <path d="M 382.091421 237.45208 
L 940.589244 217.946203 
L 1037.653007 385.592756 
" style="fill:none;stroke:#b0b0b0;stroke-width:0.8;"/>
    <path d="M 378.636472 192.917932 
L 943.220342 173.656786 
L 1041.663433 339.339496 
" style="fill:none;stroke:#b0b0b0;stroke-width:0.8;"/>
   </g>
   <g id="xtick_14">
    <g id="line2d_17">
     <path d="M 396.392066 365.287471 
L 383.278267 365.776014 
" style="fill:none;stroke:#000000;stroke-linecap:square;stroke-width:0.8;"/>
    </g>
    <g id="text_17">
     <!-- 0.0 -->
     <g transform="translate(364.700049 370.550124)scale(0.12 -0.12)">
      <use xlink:href="#DejaVuSans-Bold-48"/>
      <use x="69.580078" xlink:href="#DejaVuSans-Bold-46"/>
      <use x="107.568359" xlink:href="#DejaVuSans-Bold-48"/>
     </g>
    </g>
   </g>
   <g id="xtick_15">
    <g id="line2d_18">
     <path d="M 393.198776 323.527363 
L 379.945207 324.011043 
" style="fill:none;stroke:#000000;stroke-linecap:square;stroke-width:0.8;"/>
    </g>
    <g id="text_18">
     <!-- 0.1 -->
     <g transform="translate(361.290029 328.828481)scale(0.12 -0.12)">
      <use xlink:href="#DejaVuSans-Bold-48"/>
      <use x="69.580078" xlink:href="#DejaVuSans-Bold-46"/>
      <use x="107.568359" xlink:href="#DejaVuSans-Bold-49"/>
     </g>
    </g>
   </g>
   <g id="xtick_16">
    <g id="line2d_19">
     <path d="M 389.937081 280.872707 
L 376.540732 281.351202 
" style="fill:none;stroke:#000000;stroke-linecap:square;stroke-width:0.8;"/>
    </g>
    <g id="text_19">
     <!-- 0.2 -->
     <g transform="translate(357.807104 286.214829)scale(0.12 -0.12)">
      <use xlink:href="#DejaVuSans-Bold-48"/>
      <use x="69.580078" xlink:href="#DejaVuSans-Bold-46"/>
      <use x="107.568359" xlink:href="#DejaVuSans-Bold-50"/>
     </g>
    </g>
   </g>
   <g id="xtick_17">
    <g id="line2d_20">
     <path d="M 386.604761 237.294449 
L 373.062522 237.76742 
" style="fill:none;stroke:#000000;stroke-linecap:square;stroke-width:0.8;"/>
    </g>
    <g id="text_20">
     <!-- 0.3 -->
     <g transform="translate(354.248908 242.680251)scale(0.12 -0.12)">
      <use xlink:href="#DejaVuSans-Bold-48"/>
      <use x="69.580078" xlink:href="#DejaVuSans-Bold-46"/>
      <use x="107.568359" xlink:href="#DejaVuSans-Bold-51"/>
     </g>
    </g>
   </g>
   <g id="xtick_18">
    <g id="line2d_21">
     <path d="M 383.199497 192.762262 
L 369.508155 193.229351 
" style="fill:none;stroke:#000000;stroke-linecap:square;stroke-width:0.8;"/>
    </g>
    <g id="text_21">
     <!-- 0.4 -->
     <g transform="translate(350.612977 198.194567)scale(0.12 -0.12)">
      <use xlink:href="#DejaVuSans-Bold-48"/>
      <use x="69.580078" xlink:href="#DejaVuSans-Bold-46"/>
      <use x="107.568359" xlink:href="#DejaVuSans-Bold-52"/>
     </g>
    </g>
   </g>
  </g>
  <g id="axes_1">
   <g id="Poly3DCollection_1">
    <path clip-path="url(#p44a6d64952)" d="M 822.889016 328.827081 
L 904.848392 298.569799 
L 819.214765 330.17191 
z
" style="fill:#8c0000;fill-opacity:0.5;"/>
    <path clip-path="url(#p44a6d64952)" d="M 730.845197 362.95477 
L 819.214765 330.17191 
L 904.848392 298.569799 
z
" style="fill:#d00000;fill-opacity:0.5;"/>
    <path clip-path="url(#p44a6d64952)" d="M 473.405975 526.463946 
L 907.328285 297.620876 
L 904.848392 298.569799 
z
" style="fill:#aa0000;fill-opacity:0.5;"/>
    <path clip-path="url(#p44a6d64952)" d="M 738.301311 360.181777 
L 819.214765 330.17191 
L 730.845197 362.95477 
z
" style="fill:#d70000;fill-opacity:0.5;"/>
    <path clip-path="url(#p44a6d64952)" d="M 904.848392 298.569799 
L 639.620441 397.059042 
L 730.845197 362.95477 
z
" style="fill:#cf0000;fill-opacity:0.5;"/>
    <path clip-path="url(#p44a6d64952)" d="M 904.848392 298.569799 
L 822.889016 328.827081 
L 473.405975 526.463946 
z
" style="fill:#a70000;fill-opacity:0.5;"/>
    <path clip-path="url(#p44a6d64952)" d="M 473.405975 526.463946 
L 822.889016 328.827081 
L 819.214765 330.17191 
z
" style="fill:#a70000;fill-opacity:0.5;"/>
    <path clip-path="url(#p44a6d64952)" d="M 819.214765 330.17191 
L 738.301311 360.181777 
L 473.405975 526.463946 
z
" style="fill:#a70000;fill-opacity:0.5;"/>
    <path clip-path="url(#p44a6d64952)" d="M 639.620441 397.059042 
L 904.848392 298.569799 
L 545.436025 432.980311 
z
" style="fill:#cf0000;fill-opacity:0.5;"/>
    <path clip-path="url(#p44a6d64952)" d="M 730.845197 362.95477 
L 639.620441 397.059042 
L 651.104806 392.722061 
z
" style="fill:#d30000;fill-opacity:0.5;"/>
    <path clip-path="url(#p44a6d64952)" d="M 473.405975 526.463946 
L 738.301311 360.181777 
L 730.845197 362.95477 
z
" style="fill:#a80000;fill-opacity:0.5;"/>
    <path clip-path="url(#p44a6d64952)" d="M 730.845197 362.95477 
L 651.104806 392.722061 
L 473.405975 526.463946 
z
" style="fill:#a80000;fill-opacity:0.5;"/>
    <path clip-path="url(#p44a6d64952)" d="M 473.405975 526.463946 
L 651.104806 392.722061 
L 639.620441 397.059042 
z
" style="fill:#a80000;fill-opacity:0.5;"/>
    <path clip-path="url(#p44a6d64952)" d="M 639.620441 397.059042 
L 545.436025 432.980311 
L 561.186654 426.897569 
z
" style="fill:#d10000;fill-opacity:0.5;"/>
    <path clip-path="url(#p44a6d64952)" d="M 473.704275 525.970347 
L 639.620441 397.059042 
L 561.186654 426.897569 
z
" style="fill:#a80000;fill-opacity:0.5;"/>
    <path clip-path="url(#p44a6d64952)" d="M 473.405975 526.463946 
L 639.620441 397.059042 
L 473.704275 525.970347 
z
" style="fill:#990000;fill-opacity:0.5;"/>
    <path clip-path="url(#p44a6d64952)" d="M 561.186654 426.897569 
L 545.436025 432.980311 
L 473.704275 525.970347 
z
" style="fill:#a90000;fill-opacity:0.5;"/>
    <path clip-path="url(#p44a6d64952)" d="M 545.436025 432.980311 
L 473.744796 525.892105 
L 473.704275 525.970347 
z
" style="fill:#cb0000;fill-opacity:0.5;"/>
    <path clip-path="url(#p44a6d64952)" d="M 473.704275 525.970347 
L 473.744796 525.892105 
L 473.405975 526.463946 
z
" style="fill:#d20000;fill-opacity:0.5;"/>
   </g>
   <g id="Path3DCollection_1">
    <defs>
     <path d="M 0 1.369306 
C 0.363144 1.369306 0.711464 1.225028 0.968246 0.968246 
C 1.225028 0.711464 1.369306 0.363144 1.369306 0 
C 1.369306 -0.363144 1.225028 -0.711464 0.968246 -0.968246 
C 0.711464 -1.225028 0.363144 -1.369306 0 -1.369306 
C -0.363144 -1.369306 -0.711464 -1.225028 -0.968246 -0.968246 
C -1.225028 -0.711464 -1.369306 -0.363144 -1.369306 0 
C -1.369306 0.363144 -1.225028 0.711464 -0.968246 0.968246 
C -0.711464 1.225028 -0.363144 1.369306 0 1.369306 
z
" id="C0_0_62abbb37fd"/>
    </defs>
    <g clip-path="url(#p44a6d64952)">
     <use style="fill-opacity:0.7;stroke:#000000;stroke-opacity:0.7;" x="907.328285" xlink:href="#C0_0_62abbb37fd" y="297.620876"/>
    </g>
    <g clip-path="url(#p44a6d64952)">
     <use style="fill-opacity:0.7;stroke:#000000;stroke-opacity:0.7;" x="473.405975" xlink:href="#C0_0_62abbb37fd" y="526.463946"/>
    </g>
    <g clip-path="url(#p44a6d64952)">
     <use style="fill-opacity:0.7;stroke:#000000;stroke-opacity:0.7;" x="473.405975" xlink:href="#C0_0_62abbb37fd" y="526.463946"/>
    </g>
    <g clip-path="url(#p44a6d64952)">
     <use style="fill-opacity:0.7;stroke:#000000;stroke-opacity:0.7;" x="473.704275" xlink:href="#C0_0_62abbb37fd" y="525.970347"/>
    </g>
    <g clip-path="url(#p44a6d64952)">
     <use style="fill-opacity:0.7;stroke:#000000;stroke-opacity:0.7;" x="473.704275" xlink:href="#C0_0_62abbb37fd" y="525.970347"/>
    </g>
    <g clip-path="url(#p44a6d64952)">
     <use style="fill-opacity:0.7;stroke:#000000;stroke-opacity:0.7;" x="473.704275" xlink:href="#C0_0_62abbb37fd" y="525.970347"/>
    </g>
    <g clip-path="url(#p44a6d64952)">
     <use style="fill-opacity:0.7;stroke:#000000;stroke-opacity:0.7;" x="473.704275" xlink:href="#C0_0_62abbb37fd" y="525.970347"/>
    </g>
    <g clip-path="url(#p44a6d64952)">
     <use style="fill-opacity:0.7;stroke:#000000;stroke-opacity:0.7;" x="473.704275" xlink:href="#C0_0_62abbb37fd" y="525.970347"/>
    </g>
    <g clip-path="url(#p44a6d64952)">
     <use style="fill-opacity:0.7;stroke:#000000;stroke-opacity:0.7;" x="473.704275" xlink:href="#C0_0_62abbb37fd" y="525.970347"/>
    </g>
    <g clip-path="url(#p44a6d64952)">
     <use style="fill-opacity:0.7;stroke:#000000;stroke-opacity:0.7;" x="473.744796" xlink:href="#C0_0_62abbb37fd" y="525.892105"/>
    </g>
    <g clip-path="url(#p44a6d64952)">
     <use style="fill-opacity:0.7;stroke:#000000;stroke-opacity:0.7;" x="545.436025" xlink:href="#C0_0_62abbb37fd" y="432.980311"/>
    </g>
    <g clip-path="url(#p44a6d64952)">
     <use style="fill-opacity:0.7;stroke:#000000;stroke-opacity:0.7;" x="545.436025" xlink:href="#C0_0_62abbb37fd" y="432.980311"/>
    </g>
    <g clip-path="url(#p44a6d64952)">
     <use style="fill-opacity:0.7;stroke:#000000;stroke-opacity:0.7;" x="545.436025" xlink:href="#C0_0_62abbb37fd" y="432.980311"/>
    </g>
    <g clip-path="url(#p44a6d64952)">
     <use style="fill-opacity:0.7;stroke:#000000;stroke-opacity:0.7;" x="545.436025" xlink:href="#C0_0_62abbb37fd" y="432.980311"/>
    </g>
    <g clip-path="url(#p44a6d64952)">
     <use style="fill-opacity:0.7;stroke:#000000;stroke-opacity:0.7;" x="545.436025" xlink:href="#C0_0_62abbb37fd" y="432.980311"/>
    </g>
    <g clip-path="url(#p44a6d64952)">
     <use style="fill-opacity:0.7;stroke:#000000;stroke-opacity:0.7;" x="473.744796" xlink:href="#C0_0_62abbb37fd" y="525.892105"/>
    </g>
    <g clip-path="url(#p44a6d64952)">
     <use style="fill-opacity:0.7;stroke:#000000;stroke-opacity:0.7;" x="561.186654" xlink:href="#C0_0_62abbb37fd" y="426.897569"/>
    </g>
    <g clip-path="url(#p44a6d64952)">
     <use style="fill-opacity:0.7;stroke:#000000;stroke-opacity:0.7;" x="639.620441" xlink:href="#C0_0_62abbb37fd" y="397.059042"/>
    </g>
    <g clip-path="url(#p44a6d64952)">
     <use style="fill-opacity:0.7;stroke:#000000;stroke-opacity:0.7;" x="639.620441" xlink:href="#C0_0_62abbb37fd" y="397.059042"/>
    </g>
    <g clip-path="url(#p44a6d64952)">
     <use style="fill-opacity:0.7;stroke:#000000;stroke-opacity:0.7;" x="639.620441" xlink:href="#C0_0_62abbb37fd" y="397.059042"/>
    </g>
    <g clip-path="url(#p44a6d64952)">
     <use style="fill-opacity:0.7;stroke:#000000;stroke-opacity:0.7;" x="639.620441" xlink:href="#C0_0_62abbb37fd" y="397.059042"/>
    </g>
    <g clip-path="url(#p44a6d64952)">
     <use style="fill-opacity:0.7;stroke:#000000;stroke-opacity:0.7;" x="473.744796" xlink:href="#C0_0_62abbb37fd" y="525.892105"/>
    </g>
    <g clip-path="url(#p44a6d64952)">
     <use style="fill-opacity:0.7;stroke:#000000;stroke-opacity:0.7;" x="561.186654" xlink:href="#C0_0_62abbb37fd" y="426.897569"/>
    </g>
    <g clip-path="url(#p44a6d64952)">
     <use style="fill-opacity:0.7;stroke:#000000;stroke-opacity:0.7;" x="651.104806" xlink:href="#C0_0_62abbb37fd" y="392.722061"/>
    </g>
    <g clip-path="url(#p44a6d64952)">
     <use style="fill-opacity:0.7;stroke:#000000;stroke-opacity:0.7;" x="730.845197" xlink:href="#C0_0_62abbb37fd" y="362.95477"/>
    </g>
    <g clip-path="url(#p44a6d64952)">
     <use style="fill-opacity:0.7;stroke:#000000;stroke-opacity:0.7;" x="730.845197" xlink:href="#C0_0_62abbb37fd" y="362.95477"/>
    </g>
    <g clip-path="url(#p44a6d64952)">
     <use style="fill-opacity:0.7;stroke:#000000;stroke-opacity:0.7;" x="730.845197" xlink:href="#C0_0_62abbb37fd" y="362.95477"/>
    </g>
    <g clip-path="url(#p44a6d64952)">
     <use style="fill-opacity:0.7;stroke:#000000;stroke-opacity:0.7;" x="473.744796" xlink:href="#C0_0_62abbb37fd" y="525.892105"/>
    </g>
    <g clip-path="url(#p44a6d64952)">
     <use style="fill-opacity:0.7;stroke:#000000;stroke-opacity:0.7;" x="561.186654" xlink:href="#C0_0_62abbb37fd" y="426.897569"/>
    </g>
    <g clip-path="url(#p44a6d64952)">
     <use style="fill-opacity:0.7;stroke:#000000;stroke-opacity:0.7;" x="651.104806" xlink:href="#C0_0_62abbb37fd" y="392.722061"/>
    </g>
    <g clip-path="url(#p44a6d64952)">
     <use style="fill-opacity:0.7;stroke:#000000;stroke-opacity:0.7;" x="738.301311" xlink:href="#C0_0_62abbb37fd" y="360.181777"/>
    </g>
    <g clip-path="url(#p44a6d64952)">
     <use style="fill-opacity:0.7;stroke:#000000;stroke-opacity:0.7;" x="819.214765" xlink:href="#C0_0_62abbb37fd" y="330.17191"/>
    </g>
    <g clip-path="url(#p44a6d64952)">
     <use style="fill-opacity:0.7;stroke:#000000;stroke-opacity:0.7;" x="819.214765" xlink:href="#C0_0_62abbb37fd" y="330.17191"/>
    </g>
    <g clip-path="url(#p44a6d64952)">
     <use style="fill-opacity:0.7;stroke:#000000;stroke-opacity:0.7;" x="473.744796" xlink:href="#C0_0_62abbb37fd" y="525.892105"/>
    </g>
    <g clip-path="url(#p44a6d64952)">
     <use style="fill-opacity:0.7;stroke:#000000;stroke-opacity:0.7;" x="561.186654" xlink:href="#C0_0_62abbb37fd" y="426.897569"/>
    </g>
    <g clip-path="url(#p44a6d64952)">
     <use style="fill-opacity:0.7;stroke:#000000;stroke-opacity:0.7;" x="651.104806" xlink:href="#C0_0_62abbb37fd" y="392.722061"/>
    </g>
    <g clip-path="url(#p44a6d64952)">
     <use style="fill-opacity:0.7;stroke:#000000;stroke-opacity:0.7;" x="738.301311" xlink:href="#C0_0_62abbb37fd" y="360.181777"/>
    </g>
    <g clip-path="url(#p44a6d64952)">
     <use style="fill-opacity:0.7;stroke:#000000;stroke-opacity:0.7;" x="822.889016" xlink:href="#C0_0_62abbb37fd" y="328.827081"/>
    </g>
    <g clip-path="url(#p44a6d64952)">
     <use style="fill-opacity:0.7;stroke:#000000;stroke-opacity:0.7;" x="904.848392" xlink:href="#C0_0_62abbb37fd" y="298.569799"/>
    </g>
   </g>
   <g id="Poly3DCollection_2">
    <path clip-path="url(#p44a6d64952)" d="M 741.93864 225.295133 
L 743.766115 224.679275 
L 812.679627 201.806355 
z
" style="fill:#0000d6;fill-opacity:0.5;"/>
    <path clip-path="url(#p44a6d64952)" d="M 481.800201 459.97801 
L 473.495923 523.125044 
L 473.405176 526.461165 
z
" style="fill:#0000e8;fill-opacity:0.5;"/>
    <path clip-path="url(#p44a6d64952)" d="M 473.405176 526.461165 
L 470.583953 465.031089 
L 481.800201 459.97801 
z
" style="fill:#0000cd;fill-opacity:0.5;"/>
    <path clip-path="url(#p44a6d64952)" d="M 743.766115 224.679275 
L 500.440725 349.686471 
L 812.679627 201.806355 
z
" style="fill:#0000bd;fill-opacity:0.5;"/>
    <path clip-path="url(#p44a6d64952)" d="M 481.800201 459.97801 
L 505.566508 336.687663 
L 473.495923 523.125044 
z
" style="fill:#0000e2;fill-opacity:0.5;"/>
    <path clip-path="url(#p44a6d64952)" d="M 500.440725 349.686471 
L 743.766115 224.679275 
L 741.93864 225.295133 
z
" style="fill:#0000be;fill-opacity:0.5;"/>
    <path clip-path="url(#p44a6d64952)" d="M 675.42606 247.872094 
L 605.645342 272.645204 
L 671.798116 249.146921 
z
" style="fill:#0000d5;fill-opacity:0.5;"/>
    <path clip-path="url(#p44a6d64952)" d="M 526.990366 303.271572 
L 675.42606 247.872094 
L 741.93864 225.295133 
z
" style="fill:#0000cd;fill-opacity:0.5;"/>
    <path clip-path="url(#p44a6d64952)" d="M 741.93864 225.295133 
L 675.42606 247.872094 
L 500.440725 349.686471 
z
" style="fill:#0000be;fill-opacity:0.5;"/>
    <path clip-path="url(#p44a6d64952)" d="M 470.583953 465.031089 
L 499.08165 349.862488 
L 481.800201 459.97801 
z
" style="fill:#0000d0;fill-opacity:0.5;"/>
    <path clip-path="url(#p44a6d64952)" d="M 600.122424 274.703176 
L 605.645342 272.645204 
L 675.42606 247.872094 
z
" style="fill:#0000d0;fill-opacity:0.5;"/>
    <path clip-path="url(#p44a6d64952)" d="M 526.990366 303.271572 
L 473.495923 523.125044 
L 505.566508 336.687663 
z
" style="fill:#0000de;fill-opacity:0.5;"/>
    <path clip-path="url(#p44a6d64952)" d="M 671.798116 249.146921 
L 500.440725 349.686471 
L 675.42606 247.872094 
z
" style="fill:#0000be;fill-opacity:0.5;"/>
    <path clip-path="url(#p44a6d64952)" d="M 526.990366 303.271572 
L 600.122424 274.703176 
L 675.42606 247.872094 
z
" style="fill:#0000cd;fill-opacity:0.5;"/>
    <path clip-path="url(#p44a6d64952)" d="M 605.645342 272.645204 
L 500.440725 349.686471 
L 671.798116 249.146921 
z
" style="fill:#0000be;fill-opacity:0.5;"/>
    <path clip-path="url(#p44a6d64952)" d="M 500.440725 349.686471 
L 505.566508 336.687663 
L 481.800201 459.97801 
z
" style="fill:#0000e3;fill-opacity:0.5;"/>
    <path clip-path="url(#p44a6d64952)" d="M 605.645342 272.645204 
L 600.122424 274.703176 
L 500.440725 349.686471 
z
" style="fill:#0000bf;fill-opacity:0.5;"/>
    <path clip-path="url(#p44a6d64952)" d="M 481.800201 459.97801 
L 499.08165 349.862488 
L 500.440725 349.686471 
z
" style="fill:#0000bf;fill-opacity:0.5;"/>
    <path clip-path="url(#p44a6d64952)" d="M 534.470433 300.162316 
L 600.122424 274.703176 
L 526.990366 303.271572 
z
" style="fill:#0000cf;fill-opacity:0.5;"/>
    <path clip-path="url(#p44a6d64952)" d="M 500.440725 349.686471 
L 600.122424 274.703176 
L 534.470433 300.162316 
z
" style="fill:#0000c0;fill-opacity:0.5;"/>
    <path clip-path="url(#p44a6d64952)" d="M 505.566508 336.687663 
L 534.470433 300.162316 
L 526.990366 303.271572 
z
" style="fill:#0000b5;fill-opacity:0.5;"/>
    <path clip-path="url(#p44a6d64952)" d="M 500.440725 349.686471 
L 534.470433 300.162316 
L 505.566508 336.687663 
z
" style="fill:#0000ce;fill-opacity:0.5;"/>
    <path clip-path="url(#p44a6d64952)" d="M 499.20287 349.857997 
L 499.257969 349.855956 
L 500.440725 349.686471 
z
" style="fill:#0000c3;fill-opacity:0.5;"/>
    <path clip-path="url(#p44a6d64952)" d="M 500.440725 349.686471 
L 499.08165 349.862488 
L 499.20287 349.857997 
z
" style="fill:#0000c3;fill-opacity:0.5;"/>
   </g>
   <g id="Path3DCollection_2">
    <defs>
     <path d="M 0 1.369306 
C 0.363144 1.369306 0.711464 1.225028 0.968246 0.968246 
C 1.225028 0.711464 1.369306 0.363144 1.369306 0 
C 1.369306 -0.363144 1.225028 -0.711464 0.968246 -0.968246 
C 0.711464 -1.225028 0.363144 -1.369306 0 -1.369306 
C -0.363144 -1.369306 -0.711464 -1.225028 -0.968246 -0.968246 
C -1.225028 -0.711464 -1.369306 -0.363144 -1.369306 0 
C -1.369306 0.363144 -1.225028 0.711464 -0.968246 0.968246 
C -0.711464 1.225028 -0.363144 1.369306 0 1.369306 
z
" id="C1_0_fdb4ef6a77"/>
    </defs>
    <g clip-path="url(#p44a6d64952)">
     <use style="fill-opacity:0.7;stroke:#000000;stroke-opacity:0.7;" x="812.679627" xlink:href="#C1_0_fdb4ef6a77" y="201.806355"/>
    </g>
    <g clip-path="url(#p44a6d64952)">
     <use style="fill-opacity:0.7;stroke:#000000;stroke-opacity:0.7;" x="500.440725" xlink:href="#C1_0_fdb4ef6a77" y="349.686471"/>
    </g>
    <g clip-path="url(#p44a6d64952)">
     <use style="fill-opacity:0.7;stroke:#000000;stroke-opacity:0.7;" x="473.405176" xlink:href="#C1_0_fdb4ef6a77" y="526.461165"/>
    </g>
    <g clip-path="url(#p44a6d64952)">
     <use style="fill-opacity:0.7;stroke:#000000;stroke-opacity:0.7;" x="470.583953" xlink:href="#C1_0_fdb4ef6a77" y="465.031089"/>
    </g>
    <g clip-path="url(#p44a6d64952)">
     <use style="fill-opacity:0.7;stroke:#000000;stroke-opacity:0.7;" x="499.20287" xlink:href="#C1_0_fdb4ef6a77" y="349.857997"/>
    </g>
    <g clip-path="url(#p44a6d64952)">
     <use style="fill-opacity:0.7;stroke:#000000;stroke-opacity:0.7;" x="499.257969" xlink:href="#C1_0_fdb4ef6a77" y="349.855956"/>
    </g>
    <g clip-path="url(#p44a6d64952)">
     <use style="fill-opacity:0.7;stroke:#000000;stroke-opacity:0.7;" x="499.08165" xlink:href="#C1_0_fdb4ef6a77" y="349.862488"/>
    </g>
    <g clip-path="url(#p44a6d64952)">
     <use style="fill-opacity:0.7;stroke:#000000;stroke-opacity:0.7;" x="499.20287" xlink:href="#C1_0_fdb4ef6a77" y="349.857997"/>
    </g>
    <g clip-path="url(#p44a6d64952)">
     <use style="fill-opacity:0.7;stroke:#000000;stroke-opacity:0.7;" x="473.495923" xlink:href="#C1_0_fdb4ef6a77" y="523.125044"/>
    </g>
    <g clip-path="url(#p44a6d64952)">
     <use style="fill-opacity:0.7;stroke:#000000;stroke-opacity:0.7;" x="526.990366" xlink:href="#C1_0_fdb4ef6a77" y="303.271572"/>
    </g>
    <g clip-path="url(#p44a6d64952)">
     <use style="fill-opacity:0.7;stroke:#000000;stroke-opacity:0.7;" x="526.990366" xlink:href="#C1_0_fdb4ef6a77" y="303.271572"/>
    </g>
    <g clip-path="url(#p44a6d64952)">
     <use style="fill-opacity:0.7;stroke:#000000;stroke-opacity:0.7;" x="526.990366" xlink:href="#C1_0_fdb4ef6a77" y="303.271572"/>
    </g>
    <g clip-path="url(#p44a6d64952)">
     <use style="fill-opacity:0.7;stroke:#000000;stroke-opacity:0.7;" x="526.990366" xlink:href="#C1_0_fdb4ef6a77" y="303.271572"/>
    </g>
    <g clip-path="url(#p44a6d64952)">
     <use style="fill-opacity:0.7;stroke:#000000;stroke-opacity:0.7;" x="526.990366" xlink:href="#C1_0_fdb4ef6a77" y="303.271572"/>
    </g>
    <g clip-path="url(#p44a6d64952)">
     <use style="fill-opacity:0.7;stroke:#000000;stroke-opacity:0.7;" x="534.470433" xlink:href="#C1_0_fdb4ef6a77" y="300.162316"/>
    </g>
    <g clip-path="url(#p44a6d64952)">
     <use style="fill-opacity:0.7;stroke:#000000;stroke-opacity:0.7;" x="600.122424" xlink:href="#C1_0_fdb4ef6a77" y="274.703176"/>
    </g>
    <g clip-path="url(#p44a6d64952)">
     <use style="fill-opacity:0.7;stroke:#000000;stroke-opacity:0.7;" x="600.122424" xlink:href="#C1_0_fdb4ef6a77" y="274.703176"/>
    </g>
    <g clip-path="url(#p44a6d64952)">
     <use style="fill-opacity:0.7;stroke:#000000;stroke-opacity:0.7;" x="534.470433" xlink:href="#C1_0_fdb4ef6a77" y="300.162316"/>
    </g>
    <g clip-path="url(#p44a6d64952)">
     <use style="fill-opacity:0.7;stroke:#000000;stroke-opacity:0.7;" x="605.645342" xlink:href="#C1_0_fdb4ef6a77" y="272.645204"/>
    </g>
    <g clip-path="url(#p44a6d64952)">
     <use style="fill-opacity:0.7;stroke:#000000;stroke-opacity:0.7;" x="671.798116" xlink:href="#C1_0_fdb4ef6a77" y="249.146921"/>
    </g>
    <g clip-path="url(#p44a6d64952)">
     <use style="fill-opacity:0.7;stroke:#000000;stroke-opacity:0.7;" x="671.798116" xlink:href="#C1_0_fdb4ef6a77" y="249.146921"/>
    </g>
    <g clip-path="url(#p44a6d64952)">
     <use style="fill-opacity:0.7;stroke:#000000;stroke-opacity:0.7;" x="534.470433" xlink:href="#C1_0_fdb4ef6a77" y="300.162316"/>
    </g>
    <g clip-path="url(#p44a6d64952)">
     <use style="fill-opacity:0.7;stroke:#000000;stroke-opacity:0.7;" x="605.645342" xlink:href="#C1_0_fdb4ef6a77" y="272.645204"/>
    </g>
    <g clip-path="url(#p44a6d64952)">
     <use style="fill-opacity:0.7;stroke:#000000;stroke-opacity:0.7;" x="741.93864" xlink:href="#C1_0_fdb4ef6a77" y="225.295133"/>
    </g>
    <g clip-path="url(#p44a6d64952)">
     <use style="fill-opacity:0.7;stroke:#000000;stroke-opacity:0.7;" x="741.93864" xlink:href="#C1_0_fdb4ef6a77" y="225.295133"/>
    </g>
    <g clip-path="url(#p44a6d64952)">
     <use style="fill-opacity:0.7;stroke:#000000;stroke-opacity:0.7;" x="473.495923" xlink:href="#C1_0_fdb4ef6a77" y="523.125044"/>
    </g>
    <g clip-path="url(#p44a6d64952)">
     <use style="fill-opacity:0.7;stroke:#000000;stroke-opacity:0.7;" x="534.470433" xlink:href="#C1_0_fdb4ef6a77" y="300.162316"/>
    </g>
    <g clip-path="url(#p44a6d64952)">
     <use style="fill-opacity:0.7;stroke:#000000;stroke-opacity:0.7;" x="605.645342" xlink:href="#C1_0_fdb4ef6a77" y="272.645204"/>
    </g>
    <g clip-path="url(#p44a6d64952)">
     <use style="fill-opacity:0.7;stroke:#000000;stroke-opacity:0.7;" x="675.42606" xlink:href="#C1_0_fdb4ef6a77" y="247.872094"/>
    </g>
    <g clip-path="url(#p44a6d64952)">
     <use style="fill-opacity:0.7;stroke:#000000;stroke-opacity:0.7;" x="743.766115" xlink:href="#C1_0_fdb4ef6a77" y="224.679275"/>
    </g>
    <g clip-path="url(#p44a6d64952)">
     <use style="fill-opacity:0.7;stroke:#000000;stroke-opacity:0.7;" x="505.566508" xlink:href="#C1_0_fdb4ef6a77" y="336.687663"/>
    </g>
    <g clip-path="url(#p44a6d64952)">
     <use style="fill-opacity:0.7;stroke:#000000;stroke-opacity:0.7;" x="481.800201" xlink:href="#C1_0_fdb4ef6a77" y="459.97801"/>
    </g>
   </g>
  </g>
 </g>
 <defs>
  <clipPath id="p44a6d64952">
   <rect height="524.4624" width="1033.974" x="166.77" y="81.7344"/>
  </clipPath>
 </defs>
</svg>
