<?xml version="1.0" encoding="utf-8" standalone="no"?>
<!DOCTYPE svg PUBLIC "-//W3C//DTD SVG 1.1//EN"
  "http://www.w3.org/Graphics/SVG/1.1/DTD/svg11.dtd">
<!-- Created with matplotlib (https://matplotlib.org/) -->
<svg height="345.6pt" version="1.1" viewBox="0 0 460.8 345.6" width="460.8pt" xmlns="http://www.w3.org/2000/svg" xmlns:xlink="http://www.w3.org/1999/xlink">
 <defs>
  <style type="text/css">
*{stroke-linecap:butt;stroke-linejoin:round;}
  </style>
 </defs>
 <g id="figure_1">
  <g id="patch_1">
   <path d="M 0 345.6 
L 460.8 345.6 
L 460.8 0 
L 0 0 
z
" style="fill:#ffffff;"/>
  </g>
  <g id="patch_2">
   <path d="M 57.6 307.584 
L 414.72 307.584 
L 414.72 41.472 
L 57.6 41.472 
z
" style="fill:#ffffff;"/>
  </g>
  <g id="pane3d_1">
   <g id="patch_3">
    <path d="M 375.112876 254.290992 
L 285.860956 200.614983 
L 287.53718 68.736292 
L 380.581129 112.539907 
" style="fill:#f2f2f2;opacity:0.5;stroke:#f2f2f2;stroke-linejoin:miter;"/>
   </g>
  </g>
  <g id="pane3d_2">
   <g id="patch_4">
    <path d="M 112.867262 224.523314 
L 285.860956 200.614983 
L 287.53718 68.736292 
L 107.887035 88.2117 
" style="fill:#e6e6e6;opacity:0.5;stroke:#e6e6e6;stroke-linejoin:miter;"/>
   </g>
  </g>
  <g id="pane3d_3">
   <g id="patch_5">
    <path d="M 190.081955 282.683257 
L 375.112876 254.290992 
L 285.860956 200.614983 
L 112.867262 224.523314 
" style="fill:#ececec;opacity:0.5;stroke:#ececec;stroke-linejoin:miter;"/>
   </g>
  </g>
  <g id="axis3d_1">
   <g id="line2d_1">
    <path d="M 375.112876 254.290992 
L 190.081955 282.683257 
" style="fill:none;stroke:#000000;stroke-linecap:square;stroke-width:0.8;"/>
   </g>
   <g id="text_1">
    <!-- Life Cycle Cost -->
    <defs>
     <path d="M 9.8125 72.90625 
L 19.671875 72.90625 
L 19.671875 8.296875 
L 55.171875 8.296875 
L 55.171875 0 
L 9.8125 0 
z
" id="DejaVuSans-76"/>
     <path d="M 9.421875 54.6875 
L 18.40625 54.6875 
L 18.40625 0 
L 9.421875 0 
z
M 9.421875 75.984375 
L 18.40625 75.984375 
L 18.40625 64.59375 
L 9.421875 64.59375 
z
" id="DejaVuSans-105"/>
     <path d="M 37.109375 75.984375 
L 37.109375 68.5 
L 28.515625 68.5 
Q 23.6875 68.5 21.796875 66.546875 
Q 19.921875 64.59375 19.921875 59.515625 
L 19.921875 54.6875 
L 34.71875 54.6875 
L 34.71875 47.703125 
L 19.921875 47.703125 
L 19.921875 0 
L 10.890625 0 
L 10.890625 47.703125 
L 2.296875 47.703125 
L 2.296875 54.6875 
L 10.890625 54.6875 
L 10.890625 58.5 
Q 10.890625 67.625 15.140625 71.796875 
Q 19.390625 75.984375 28.609375 75.984375 
z
" id="DejaVuSans-102"/>
     <path d="M 56.203125 29.59375 
L 56.203125 25.203125 
L 14.890625 25.203125 
Q 15.484375 15.921875 20.484375 11.0625 
Q 25.484375 6.203125 34.421875 6.203125 
Q 39.59375 6.203125 44.453125 7.46875 
Q 49.3125 8.734375 54.109375 11.28125 
L 54.109375 2.78125 
Q 49.265625 0.734375 44.1875 -0.34375 
Q 39.109375 -1.421875 33.890625 -1.421875 
Q 20.796875 -1.421875 13.15625 6.1875 
Q 5.515625 13.8125 5.515625 26.8125 
Q 5.515625 40.234375 12.765625 48.109375 
Q 20.015625 56 32.328125 56 
Q 43.359375 56 49.78125 48.890625 
Q 56.203125 41.796875 56.203125 29.59375 
z
M 47.21875 32.234375 
Q 47.125 39.59375 43.09375 43.984375 
Q 39.0625 48.390625 32.421875 48.390625 
Q 24.90625 48.390625 20.390625 44.140625 
Q 15.875 39.890625 15.1875 32.171875 
z
" id="DejaVuSans-101"/>
     <path id="DejaVuSans-32"/>
     <path d="M 64.40625 67.28125 
L 64.40625 56.890625 
Q 59.421875 61.53125 53.78125 63.8125 
Q 48.140625 66.109375 41.796875 66.109375 
Q 29.296875 66.109375 22.65625 58.46875 
Q 16.015625 50.828125 16.015625 36.375 
Q 16.015625 21.96875 22.65625 14.328125 
Q 29.296875 6.6875 41.796875 6.6875 
Q 48.140625 6.6875 53.78125 8.984375 
Q 59.421875 11.28125 64.40625 15.921875 
L 64.40625 5.609375 
Q 59.234375 2.09375 53.4375 0.328125 
Q 47.65625 -1.421875 41.21875 -1.421875 
Q 24.65625 -1.421875 15.125 8.703125 
Q 5.609375 18.84375 5.609375 36.375 
Q 5.609375 53.953125 15.125 64.078125 
Q 24.65625 74.21875 41.21875 74.21875 
Q 47.75 74.21875 53.53125 72.484375 
Q 59.328125 70.75 64.40625 67.28125 
z
" id="DejaVuSans-67"/>
     <path d="M 32.171875 -5.078125 
Q 28.375 -14.84375 24.75 -17.8125 
Q 21.140625 -20.796875 15.09375 -20.796875 
L 7.90625 -20.796875 
L 7.90625 -13.28125 
L 13.1875 -13.28125 
Q 16.890625 -13.28125 18.9375 -11.515625 
Q 21 -9.765625 23.484375 -3.21875 
L 25.09375 0.875 
L 2.984375 54.6875 
L 12.5 54.6875 
L 29.59375 11.921875 
L 46.6875 54.6875 
L 56.203125 54.6875 
z
" id="DejaVuSans-121"/>
     <path d="M 48.78125 52.59375 
L 48.78125 44.1875 
Q 44.96875 46.296875 41.140625 47.34375 
Q 37.3125 48.390625 33.40625 48.390625 
Q 24.65625 48.390625 19.8125 42.84375 
Q 14.984375 37.3125 14.984375 27.296875 
Q 14.984375 17.28125 19.8125 11.734375 
Q 24.65625 6.203125 33.40625 6.203125 
Q 37.3125 6.203125 41.140625 7.25 
Q 44.96875 8.296875 48.78125 10.40625 
L 48.78125 2.09375 
Q 45.015625 0.34375 40.984375 -0.53125 
Q 36.96875 -1.421875 32.421875 -1.421875 
Q 20.0625 -1.421875 12.78125 6.34375 
Q 5.515625 14.109375 5.515625 27.296875 
Q 5.515625 40.671875 12.859375 48.328125 
Q 20.21875 56 33.015625 56 
Q 37.15625 56 41.109375 55.140625 
Q 45.0625 54.296875 48.78125 52.59375 
z
" id="DejaVuSans-99"/>
     <path d="M 9.421875 75.984375 
L 18.40625 75.984375 
L 18.40625 0 
L 9.421875 0 
z
" id="DejaVuSans-108"/>
     <path d="M 30.609375 48.390625 
Q 23.390625 48.390625 19.1875 42.75 
Q 14.984375 37.109375 14.984375 27.296875 
Q 14.984375 17.484375 19.15625 11.84375 
Q 23.34375 6.203125 30.609375 6.203125 
Q 37.796875 6.203125 41.984375 11.859375 
Q 46.1875 17.53125 46.1875 27.296875 
Q 46.1875 37.015625 41.984375 42.703125 
Q 37.796875 48.390625 30.609375 48.390625 
z
M 30.609375 56 
Q 42.328125 56 49.015625 48.375 
Q 55.71875 40.765625 55.71875 27.296875 
Q 55.71875 13.875 49.015625 6.21875 
Q 42.328125 -1.421875 30.609375 -1.421875 
Q 18.84375 -1.421875 12.171875 6.21875 
Q 5.515625 13.875 5.515625 27.296875 
Q 5.515625 40.765625 12.171875 48.375 
Q 18.84375 56 30.609375 56 
z
" id="DejaVuSans-111"/>
     <path d="M 44.28125 53.078125 
L 44.28125 44.578125 
Q 40.484375 46.53125 36.375 47.5 
Q 32.28125 48.484375 27.875 48.484375 
Q 21.1875 48.484375 17.84375 46.4375 
Q 14.5 44.390625 14.5 40.28125 
Q 14.5 37.15625 16.890625 35.375 
Q 19.28125 33.59375 26.515625 31.984375 
L 29.59375 31.296875 
Q 39.15625 29.25 43.1875 25.515625 
Q 47.21875 21.78125 47.21875 15.09375 
Q 47.21875 7.46875 41.1875 3.015625 
Q 35.15625 -1.421875 24.609375 -1.421875 
Q 20.21875 -1.421875 15.453125 -0.5625 
Q 10.6875 0.296875 5.421875 2 
L 5.421875 11.28125 
Q 10.40625 8.6875 15.234375 7.390625 
Q 20.0625 6.109375 24.8125 6.109375 
Q 31.15625 6.109375 34.5625 8.28125 
Q 37.984375 10.453125 37.984375 14.40625 
Q 37.984375 18.0625 35.515625 20.015625 
Q 33.0625 21.96875 24.703125 23.78125 
L 21.578125 24.515625 
Q 13.234375 26.265625 9.515625 29.90625 
Q 5.8125 33.546875 5.8125 39.890625 
Q 5.8125 47.609375 11.28125 51.796875 
Q 16.75 56 26.8125 56 
Q 31.78125 56 36.171875 55.265625 
Q 40.578125 54.546875 44.28125 53.078125 
z
" id="DejaVuSans-115"/>
     <path d="M 18.3125 70.21875 
L 18.3125 54.6875 
L 36.8125 54.6875 
L 36.8125 47.703125 
L 18.3125 47.703125 
L 18.3125 18.015625 
Q 18.3125 11.328125 20.140625 9.421875 
Q 21.96875 7.515625 27.59375 7.515625 
L 36.8125 7.515625 
L 36.8125 0 
L 27.59375 0 
Q 17.1875 0 13.234375 3.875 
Q 9.28125 7.765625 9.28125 18.015625 
L 9.28125 47.703125 
L 2.6875 47.703125 
L 2.6875 54.6875 
L 9.28125 54.6875 
L 9.28125 70.21875 
z
" id="DejaVuSans-116"/>
    </defs>
    <g transform="translate(264.770529 309.433104)rotate(-8.723767)scale(0.1 -0.1)">
     <use xlink:href="#DejaVuSans-76"/>
     <use x="55.712891" xlink:href="#DejaVuSans-105"/>
     <use x="83.496094" xlink:href="#DejaVuSans-102"/>
     <use x="118.701172" xlink:href="#DejaVuSans-101"/>
     <use x="180.224609" xlink:href="#DejaVuSans-32"/>
     <use x="212.011719" xlink:href="#DejaVuSans-67"/>
     <use x="281.835938" xlink:href="#DejaVuSans-121"/>
     <use x="341.015625" xlink:href="#DejaVuSans-99"/>
     <use x="395.996094" xlink:href="#DejaVuSans-108"/>
     <use x="423.779297" xlink:href="#DejaVuSans-101"/>
     <use x="485.302734" xlink:href="#DejaVuSans-32"/>
     <use x="517.089844" xlink:href="#DejaVuSans-67"/>
     <use x="586.914062" xlink:href="#DejaVuSans-111"/>
     <use x="648.095703" xlink:href="#DejaVuSans-115"/>
     <use x="700.195312" xlink:href="#DejaVuSans-116"/>
    </g>
    <!--  ($/house-yr) -->
    <defs>
     <path d="M 31 75.875 
Q 24.46875 64.65625 21.28125 53.65625 
Q 18.109375 42.671875 18.109375 31.390625 
Q 18.109375 20.125 21.3125 9.0625 
Q 24.515625 -2 31 -13.1875 
L 23.1875 -13.1875 
Q 15.875 -1.703125 12.234375 9.375 
Q 8.59375 20.453125 8.59375 31.390625 
Q 8.59375 42.28125 12.203125 53.3125 
Q 15.828125 64.359375 23.1875 75.875 
z
" id="DejaVuSans-40"/>
     <path d="M 33.796875 -14.703125 
L 28.90625 -14.703125 
L 28.859375 0 
Q 23.734375 0.09375 18.609375 1.1875 
Q 13.484375 2.296875 8.296875 4.5 
L 8.296875 13.28125 
Q 13.28125 10.15625 18.375 8.5625 
Q 23.484375 6.984375 28.90625 6.9375 
L 28.90625 29.203125 
Q 18.109375 30.953125 13.203125 35.15625 
Q 8.296875 39.359375 8.296875 46.6875 
Q 8.296875 54.640625 13.625 59.21875 
Q 18.953125 63.8125 28.90625 64.5 
L 28.90625 75.984375 
L 33.796875 75.984375 
L 33.796875 64.65625 
Q 38.328125 64.453125 42.578125 63.6875 
Q 46.828125 62.9375 50.875 61.625 
L 50.875 53.078125 
Q 46.828125 55.125 42.546875 56.25 
Q 38.28125 57.375 33.796875 57.5625 
L 33.796875 36.71875 
Q 44.875 35.015625 50.09375 30.609375 
Q 55.328125 26.21875 55.328125 18.609375 
Q 55.328125 10.359375 49.78125 5.59375 
Q 44.234375 0.828125 33.796875 0.09375 
z
M 28.90625 37.59375 
L 28.90625 57.625 
Q 23.25 56.984375 20.265625 54.390625 
Q 17.28125 51.8125 17.28125 47.515625 
Q 17.28125 43.3125 20.03125 40.96875 
Q 22.796875 38.625 28.90625 37.59375 
z
M 33.796875 28.21875 
L 33.796875 7.078125 
Q 39.984375 7.90625 43.140625 10.59375 
Q 46.296875 13.28125 46.296875 17.671875 
Q 46.296875 21.96875 43.28125 24.5 
Q 40.28125 27.046875 33.796875 28.21875 
z
" id="DejaVuSans-36"/>
     <path d="M 25.390625 72.90625 
L 33.6875 72.90625 
L 8.296875 -9.28125 
L 0 -9.28125 
z
" id="DejaVuSans-47"/>
     <path d="M 54.890625 33.015625 
L 54.890625 0 
L 45.90625 0 
L 45.90625 32.71875 
Q 45.90625 40.484375 42.875 44.328125 
Q 39.84375 48.1875 33.796875 48.1875 
Q 26.515625 48.1875 22.3125 43.546875 
Q 18.109375 38.921875 18.109375 30.90625 
L 18.109375 0 
L 9.078125 0 
L 9.078125 75.984375 
L 18.109375 75.984375 
L 18.109375 46.1875 
Q 21.34375 51.125 25.703125 53.5625 
Q 30.078125 56 35.796875 56 
Q 45.21875 56 50.046875 50.171875 
Q 54.890625 44.34375 54.890625 33.015625 
z
" id="DejaVuSans-104"/>
     <path d="M 8.5 21.578125 
L 8.5 54.6875 
L 17.484375 54.6875 
L 17.484375 21.921875 
Q 17.484375 14.15625 20.5 10.265625 
Q 23.53125 6.390625 29.59375 6.390625 
Q 36.859375 6.390625 41.078125 11.03125 
Q 45.3125 15.671875 45.3125 23.6875 
L 45.3125 54.6875 
L 54.296875 54.6875 
L 54.296875 0 
L 45.3125 0 
L 45.3125 8.40625 
Q 42.046875 3.421875 37.71875 1 
Q 33.40625 -1.421875 27.6875 -1.421875 
Q 18.265625 -1.421875 13.375 4.4375 
Q 8.5 10.296875 8.5 21.578125 
z
M 31.109375 56 
z
" id="DejaVuSans-117"/>
     <path d="M 4.890625 31.390625 
L 31.203125 31.390625 
L 31.203125 23.390625 
L 4.890625 23.390625 
z
" id="DejaVuSans-45"/>
     <path d="M 41.109375 46.296875 
Q 39.59375 47.171875 37.8125 47.578125 
Q 36.03125 48 33.890625 48 
Q 26.265625 48 22.1875 43.046875 
Q 18.109375 38.09375 18.109375 28.8125 
L 18.109375 0 
L 9.078125 0 
L 9.078125 54.6875 
L 18.109375 54.6875 
L 18.109375 46.1875 
Q 20.953125 51.171875 25.484375 53.578125 
Q 30.03125 56 36.53125 56 
Q 37.453125 56 38.578125 55.875 
Q 39.703125 55.765625 41.0625 55.515625 
z
" id="DejaVuSans-114"/>
     <path d="M 8.015625 75.875 
L 15.828125 75.875 
Q 23.140625 64.359375 26.78125 53.3125 
Q 30.421875 42.28125 30.421875 31.390625 
Q 30.421875 20.453125 26.78125 9.375 
Q 23.140625 -1.703125 15.828125 -13.1875 
L 8.015625 -13.1875 
Q 14.5 -2 17.703125 9.0625 
Q 20.90625 20.125 20.90625 31.390625 
Q 20.90625 42.671875 17.703125 53.65625 
Q 14.5 64.65625 8.015625 75.875 
z
" id="DejaVuSans-41"/>
    </defs>
    <g transform="translate(271.218785 319.77252)rotate(-8.723767)scale(0.1 -0.1)">
     <use xlink:href="#DejaVuSans-32"/>
     <use x="31.787109" xlink:href="#DejaVuSans-40"/>
     <use x="70.800781" xlink:href="#DejaVuSans-36"/>
     <use x="134.423828" xlink:href="#DejaVuSans-47"/>
     <use x="168.115234" xlink:href="#DejaVuSans-104"/>
     <use x="231.494141" xlink:href="#DejaVuSans-111"/>
     <use x="292.675781" xlink:href="#DejaVuSans-117"/>
     <use x="356.054688" xlink:href="#DejaVuSans-115"/>
     <use x="408.154297" xlink:href="#DejaVuSans-101"/>
     <use x="469.677734" xlink:href="#DejaVuSans-45"/>
     <use x="504.011719" xlink:href="#DejaVuSans-121"/>
     <use x="563.191406" xlink:href="#DejaVuSans-114"/>
     <use x="604.304688" xlink:href="#DejaVuSans-41"/>
    </g>
   </g>
   <g id="Line3DCollection_1">
    <path d="M 196.464273 281.703915 
L 118.814561 223.701376 
L 114.071905 87.541214 
" style="fill:none;stroke:#b0b0b0;stroke-width:0.8;"/>
    <path d="M 226.611906 277.07788 
L 146.926414 219.81622 
L 143.298293 84.372857 
" style="fill:none;stroke:#b0b0b0;stroke-width:0.8;"/>
    <path d="M 256.359105 272.51329 
L 174.695793 215.978396 
L 172.154981 81.244578 
" style="fill:none;stroke:#b0b0b0;stroke-width:0.8;"/>
    <path d="M 285.713798 268.008928 
L 202.128919 212.187042 
L 200.648942 78.155621 
" style="fill:none;stroke:#b0b0b0;stroke-width:0.8;"/>
    <path d="M 314.683701 263.56361 
L 229.231862 208.441321 
L 228.786971 75.10525 
" style="fill:none;stroke:#b0b0b0;stroke-width:0.8;"/>
    <path d="M 343.276332 259.176184 
L 256.010547 204.740414 
L 256.575697 72.092746 
" style="fill:none;stroke:#b0b0b0;stroke-width:0.8;"/>
    <path d="M 371.499012 254.845525 
L 282.47076 201.08352 
L 284.021582 69.117409 
" style="fill:none;stroke:#b0b0b0;stroke-width:0.8;"/>
   </g>
   <g id="xtick_1">
    <g id="line2d_2">
     <path d="M 195.786735 281.19781 
L 197.82233 282.718353 
" style="fill:none;stroke:#000000;stroke-linecap:square;stroke-width:0.8;"/>
    </g>
    <g id="text_2">
     <!-- 0.0 -->
     <defs>
      <path d="M 31.78125 66.40625 
Q 24.171875 66.40625 20.328125 58.90625 
Q 16.5 51.421875 16.5 36.375 
Q 16.5 21.390625 20.328125 13.890625 
Q 24.171875 6.390625 31.78125 6.390625 
Q 39.453125 6.390625 43.28125 13.890625 
Q 47.125 21.390625 47.125 36.375 
Q 47.125 51.421875 43.28125 58.90625 
Q 39.453125 66.40625 31.78125 66.40625 
z
M 31.78125 74.21875 
Q 44.046875 74.21875 50.515625 64.515625 
Q 56.984375 54.828125 56.984375 36.375 
Q 56.984375 17.96875 50.515625 8.265625 
Q 44.046875 -1.421875 31.78125 -1.421875 
Q 19.53125 -1.421875 13.0625 8.265625 
Q 6.59375 17.96875 6.59375 36.375 
Q 6.59375 54.828125 13.0625 64.515625 
Q 19.53125 74.21875 31.78125 74.21875 
z
" id="DejaVuSans-48"/>
      <path d="M 10.6875 12.40625 
L 21 12.40625 
L 21 0 
L 10.6875 0 
z
" id="DejaVuSans-46"/>
     </defs>
     <g transform="translate(194.668891 303.809771)scale(0.1 -0.1)">
      <use xlink:href="#DejaVuSans-48"/>
      <use x="63.623047" xlink:href="#DejaVuSans-46"/>
      <use x="95.410156" xlink:href="#DejaVuSans-48"/>
     </g>
    </g>
   </g>
   <g id="xtick_2">
    <g id="line2d_3">
     <path d="M 225.91699 276.578517 
L 228.004773 278.078789 
" style="fill:none;stroke:#000000;stroke-linecap:square;stroke-width:0.8;"/>
    </g>
    <g id="text_3">
     <!-- 0.5 -->
     <defs>
      <path d="M 10.796875 72.90625 
L 49.515625 72.90625 
L 49.515625 64.59375 
L 19.828125 64.59375 
L 19.828125 46.734375 
Q 21.96875 47.46875 24.109375 47.828125 
Q 26.265625 48.1875 28.421875 48.1875 
Q 40.625 48.1875 47.75 41.5 
Q 54.890625 34.8125 54.890625 23.390625 
Q 54.890625 11.625 47.5625 5.09375 
Q 40.234375 -1.421875 26.90625 -1.421875 
Q 22.3125 -1.421875 17.546875 -0.640625 
Q 12.796875 0.140625 7.71875 1.703125 
L 7.71875 11.625 
Q 12.109375 9.234375 16.796875 8.0625 
Q 21.484375 6.890625 26.703125 6.890625 
Q 35.15625 6.890625 40.078125 11.328125 
Q 45.015625 15.765625 45.015625 23.390625 
Q 45.015625 31 40.078125 35.4375 
Q 35.15625 39.890625 26.703125 39.890625 
Q 22.75 39.890625 18.8125 39.015625 
Q 14.890625 38.140625 10.796875 36.28125 
z
" id="DejaVuSans-53"/>
     </defs>
     <g transform="translate(224.883198 299.069829)scale(0.1 -0.1)">
      <use xlink:href="#DejaVuSans-48"/>
      <use x="63.623047" xlink:href="#DejaVuSans-46"/>
      <use x="95.410156" xlink:href="#DejaVuSans-53"/>
     </g>
    </g>
   </g>
   <g id="xtick_3">
    <g id="line2d_4">
     <path d="M 255.647332 272.020534 
L 257.785741 273.500938 
" style="fill:none;stroke:#000000;stroke-linecap:square;stroke-width:0.8;"/>
    </g>
    <g id="text_4">
     <!-- 1.0 -->
     <defs>
      <path d="M 12.40625 8.296875 
L 28.515625 8.296875 
L 28.515625 63.921875 
L 10.984375 60.40625 
L 10.984375 69.390625 
L 28.421875 72.90625 
L 38.28125 72.90625 
L 38.28125 8.296875 
L 54.390625 8.296875 
L 54.390625 0 
L 12.40625 0 
z
" id="DejaVuSans-49"/>
     </defs>
     <g transform="translate(254.694759 294.393068)scale(0.1 -0.1)">
      <use xlink:href="#DejaVuSans-49"/>
      <use x="63.623047" xlink:href="#DejaVuSans-46"/>
      <use x="95.410156" xlink:href="#DejaVuSans-48"/>
     </g>
    </g>
   </g>
   <g id="xtick_4">
    <g id="line2d_5">
     <path d="M 284.985671 267.522651 
L 287.173191 268.983578 
" style="fill:none;stroke:#000000;stroke-linecap:square;stroke-width:0.8;"/>
    </g>
    <g id="text_5">
     <!-- 1.5 -->
     <g transform="translate(284.111574 289.778234)scale(0.1 -0.1)">
      <use xlink:href="#DejaVuSans-49"/>
      <use x="63.623047" xlink:href="#DejaVuSans-46"/>
      <use x="95.410156" xlink:href="#DejaVuSans-53"/>
     </g>
    </g>
   </g>
   <g id="xtick_5">
    <g id="line2d_6">
     <path d="M 313.939709 263.083684 
L 316.174872 264.525518 
" style="fill:none;stroke:#000000;stroke-linecap:square;stroke-width:0.8;"/>
    </g>
    <g id="text_6">
     <!-- 2.0 -->
     <defs>
      <path d="M 19.1875 8.296875 
L 53.609375 8.296875 
L 53.609375 0 
L 7.328125 0 
L 7.328125 8.296875 
Q 12.9375 14.109375 22.625 23.890625 
Q 32.328125 33.6875 34.8125 36.53125 
Q 39.546875 41.84375 41.421875 45.53125 
Q 43.3125 49.21875 43.3125 52.78125 
Q 43.3125 58.59375 39.234375 62.25 
Q 35.15625 65.921875 28.609375 65.921875 
Q 23.96875 65.921875 18.8125 64.3125 
Q 13.671875 62.703125 7.8125 59.421875 
L 7.8125 69.390625 
Q 13.765625 71.78125 18.9375 73 
Q 24.125 74.21875 28.421875 74.21875 
Q 39.75 74.21875 46.484375 68.546875 
Q 53.21875 62.890625 53.21875 53.421875 
Q 53.21875 48.921875 51.53125 44.890625 
Q 49.859375 40.875 45.40625 35.40625 
Q 44.1875 33.984375 37.640625 27.21875 
Q 31.109375 20.453125 19.1875 8.296875 
z
" id="DejaVuSans-50"/>
     </defs>
     <g transform="translate(313.141431 285.224105)scale(0.1 -0.1)">
      <use xlink:href="#DejaVuSans-50"/>
      <use x="63.623047" xlink:href="#DejaVuSans-46"/>
      <use x="95.410156" xlink:href="#DejaVuSans-48"/>
     </g>
    </g>
   </g>
   <g id="xtick_6">
    <g id="line2d_7">
     <path d="M 342.516948 258.702486 
L 344.798332 260.125597 
" style="fill:none;stroke:#000000;stroke-linecap:square;stroke-width:0.8;"/>
    </g>
    <g id="text_7">
     <!-- 2.5 -->
     <g transform="translate(341.791916 280.729491)scale(0.1 -0.1)">
      <use xlink:href="#DejaVuSans-50"/>
      <use x="63.623047" xlink:href="#DejaVuSans-46"/>
      <use x="95.410156" xlink:href="#DejaVuSans-53"/>
     </g>
    </g>
   </g>
   <g id="xtick_7">
    <g id="line2d_8">
     <path d="M 370.724694 254.377934 
L 373.050919 255.782685 
" style="fill:none;stroke:#000000;stroke-linecap:square;stroke-width:0.8;"/>
    </g>
    <g id="text_8">
     <!-- 3.0 -->
     <defs>
      <path d="M 40.578125 39.3125 
Q 47.65625 37.796875 51.625 33 
Q 55.609375 28.21875 55.609375 21.1875 
Q 55.609375 10.40625 48.1875 4.484375 
Q 40.765625 -1.421875 27.09375 -1.421875 
Q 22.515625 -1.421875 17.65625 -0.515625 
Q 12.796875 0.390625 7.625 2.203125 
L 7.625 11.71875 
Q 11.71875 9.328125 16.59375 8.109375 
Q 21.484375 6.890625 26.8125 6.890625 
Q 36.078125 6.890625 40.9375 10.546875 
Q 45.796875 14.203125 45.796875 21.1875 
Q 45.796875 27.640625 41.28125 31.265625 
Q 36.765625 34.90625 28.71875 34.90625 
L 20.21875 34.90625 
L 20.21875 43.015625 
L 29.109375 43.015625 
Q 36.375 43.015625 40.234375 45.921875 
Q 44.09375 48.828125 44.09375 54.296875 
Q 44.09375 59.90625 40.109375 62.90625 
Q 36.140625 65.921875 28.71875 65.921875 
Q 24.65625 65.921875 20.015625 65.03125 
Q 15.375 64.15625 9.8125 62.3125 
L 9.8125 71.09375 
Q 15.4375 72.65625 20.34375 73.4375 
Q 25.25 74.21875 29.59375 74.21875 
Q 40.828125 74.21875 47.359375 69.109375 
Q 53.90625 64.015625 53.90625 55.328125 
Q 53.90625 49.265625 50.4375 45.09375 
Q 46.96875 40.921875 40.578125 39.3125 
z
" id="DejaVuSans-51"/>
     </defs>
     <g transform="translate(370.070417 276.293233)scale(0.1 -0.1)">
      <use xlink:href="#DejaVuSans-51"/>
      <use x="63.623047" xlink:href="#DejaVuSans-46"/>
      <use x="95.410156" xlink:href="#DejaVuSans-48"/>
     </g>
    </g>
   </g>
  </g>
  <g id="axis3d_2">
   <g id="line2d_9">
    <path d="M 112.867262 224.523314 
L 190.081955 282.683257 
" style="fill:none;stroke:#000000;stroke-linecap:square;stroke-width:0.8;"/>
   </g>
   <g id="text_9">
    <!-- Global Warming Potential -->
    <defs>
     <path d="M 59.515625 10.40625 
L 59.515625 29.984375 
L 43.40625 29.984375 
L 43.40625 38.09375 
L 69.28125 38.09375 
L 69.28125 6.78125 
Q 63.578125 2.734375 56.6875 0.65625 
Q 49.8125 -1.421875 42 -1.421875 
Q 24.90625 -1.421875 15.25 8.5625 
Q 5.609375 18.5625 5.609375 36.375 
Q 5.609375 54.25 15.25 64.234375 
Q 24.90625 74.21875 42 74.21875 
Q 49.125 74.21875 55.546875 72.453125 
Q 61.96875 70.703125 67.390625 67.28125 
L 67.390625 56.78125 
Q 61.921875 61.421875 55.765625 63.765625 
Q 49.609375 66.109375 42.828125 66.109375 
Q 29.4375 66.109375 22.71875 58.640625 
Q 16.015625 51.171875 16.015625 36.375 
Q 16.015625 21.625 22.71875 14.15625 
Q 29.4375 6.6875 42.828125 6.6875 
Q 48.046875 6.6875 52.140625 7.59375 
Q 56.25 8.5 59.515625 10.40625 
z
" id="DejaVuSans-71"/>
     <path d="M 48.6875 27.296875 
Q 48.6875 37.203125 44.609375 42.84375 
Q 40.53125 48.484375 33.40625 48.484375 
Q 26.265625 48.484375 22.1875 42.84375 
Q 18.109375 37.203125 18.109375 27.296875 
Q 18.109375 17.390625 22.1875 11.75 
Q 26.265625 6.109375 33.40625 6.109375 
Q 40.53125 6.109375 44.609375 11.75 
Q 48.6875 17.390625 48.6875 27.296875 
z
M 18.109375 46.390625 
Q 20.953125 51.265625 25.265625 53.625 
Q 29.59375 56 35.59375 56 
Q 45.5625 56 51.78125 48.09375 
Q 58.015625 40.1875 58.015625 27.296875 
Q 58.015625 14.40625 51.78125 6.484375 
Q 45.5625 -1.421875 35.59375 -1.421875 
Q 29.59375 -1.421875 25.265625 0.953125 
Q 20.953125 3.328125 18.109375 8.203125 
L 18.109375 0 
L 9.078125 0 
L 9.078125 75.984375 
L 18.109375 75.984375 
z
" id="DejaVuSans-98"/>
     <path d="M 34.28125 27.484375 
Q 23.390625 27.484375 19.1875 25 
Q 14.984375 22.515625 14.984375 16.5 
Q 14.984375 11.71875 18.140625 8.90625 
Q 21.296875 6.109375 26.703125 6.109375 
Q 34.1875 6.109375 38.703125 11.40625 
Q 43.21875 16.703125 43.21875 25.484375 
L 43.21875 27.484375 
z
M 52.203125 31.203125 
L 52.203125 0 
L 43.21875 0 
L 43.21875 8.296875 
Q 40.140625 3.328125 35.546875 0.953125 
Q 30.953125 -1.421875 24.3125 -1.421875 
Q 15.921875 -1.421875 10.953125 3.296875 
Q 6 8.015625 6 15.921875 
Q 6 25.140625 12.171875 29.828125 
Q 18.359375 34.515625 30.609375 34.515625 
L 43.21875 34.515625 
L 43.21875 35.40625 
Q 43.21875 41.609375 39.140625 45 
Q 35.0625 48.390625 27.6875 48.390625 
Q 23 48.390625 18.546875 47.265625 
Q 14.109375 46.140625 10.015625 43.890625 
L 10.015625 52.203125 
Q 14.9375 54.109375 19.578125 55.046875 
Q 24.21875 56 28.609375 56 
Q 40.484375 56 46.34375 49.84375 
Q 52.203125 43.703125 52.203125 31.203125 
z
" id="DejaVuSans-97"/>
     <path d="M 3.328125 72.90625 
L 13.28125 72.90625 
L 28.609375 11.28125 
L 43.890625 72.90625 
L 54.984375 72.90625 
L 70.3125 11.28125 
L 85.59375 72.90625 
L 95.609375 72.90625 
L 77.296875 0 
L 64.890625 0 
L 49.515625 63.28125 
L 33.984375 0 
L 21.578125 0 
z
" id="DejaVuSans-87"/>
     <path d="M 52 44.1875 
Q 55.375 50.25 60.0625 53.125 
Q 64.75 56 71.09375 56 
Q 79.640625 56 84.28125 50.015625 
Q 88.921875 44.046875 88.921875 33.015625 
L 88.921875 0 
L 79.890625 0 
L 79.890625 32.71875 
Q 79.890625 40.578125 77.09375 44.375 
Q 74.3125 48.1875 68.609375 48.1875 
Q 61.625 48.1875 57.5625 43.546875 
Q 53.515625 38.921875 53.515625 30.90625 
L 53.515625 0 
L 44.484375 0 
L 44.484375 32.71875 
Q 44.484375 40.625 41.703125 44.40625 
Q 38.921875 48.1875 33.109375 48.1875 
Q 26.21875 48.1875 22.15625 43.53125 
Q 18.109375 38.875 18.109375 30.90625 
L 18.109375 0 
L 9.078125 0 
L 9.078125 54.6875 
L 18.109375 54.6875 
L 18.109375 46.1875 
Q 21.1875 51.21875 25.484375 53.609375 
Q 29.78125 56 35.6875 56 
Q 41.65625 56 45.828125 52.96875 
Q 50 49.953125 52 44.1875 
z
" id="DejaVuSans-109"/>
     <path d="M 54.890625 33.015625 
L 54.890625 0 
L 45.90625 0 
L 45.90625 32.71875 
Q 45.90625 40.484375 42.875 44.328125 
Q 39.84375 48.1875 33.796875 48.1875 
Q 26.515625 48.1875 22.3125 43.546875 
Q 18.109375 38.921875 18.109375 30.90625 
L 18.109375 0 
L 9.078125 0 
L 9.078125 54.6875 
L 18.109375 54.6875 
L 18.109375 46.1875 
Q 21.34375 51.125 25.703125 53.5625 
Q 30.078125 56 35.796875 56 
Q 45.21875 56 50.046875 50.171875 
Q 54.890625 44.34375 54.890625 33.015625 
z
" id="DejaVuSans-110"/>
     <path d="M 45.40625 27.984375 
Q 45.40625 37.75 41.375 43.109375 
Q 37.359375 48.484375 30.078125 48.484375 
Q 22.859375 48.484375 18.828125 43.109375 
Q 14.796875 37.75 14.796875 27.984375 
Q 14.796875 18.265625 18.828125 12.890625 
Q 22.859375 7.515625 30.078125 7.515625 
Q 37.359375 7.515625 41.375 12.890625 
Q 45.40625 18.265625 45.40625 27.984375 
z
M 54.390625 6.78125 
Q 54.390625 -7.171875 48.1875 -13.984375 
Q 42 -20.796875 29.203125 -20.796875 
Q 24.46875 -20.796875 20.265625 -20.09375 
Q 16.0625 -19.390625 12.109375 -17.921875 
L 12.109375 -9.1875 
Q 16.0625 -11.328125 19.921875 -12.34375 
Q 23.78125 -13.375 27.78125 -13.375 
Q 36.625 -13.375 41.015625 -8.765625 
Q 45.40625 -4.15625 45.40625 5.171875 
L 45.40625 9.625 
Q 42.625 4.78125 38.28125 2.390625 
Q 33.9375 0 27.875 0 
Q 17.828125 0 11.671875 7.65625 
Q 5.515625 15.328125 5.515625 27.984375 
Q 5.515625 40.671875 11.671875 48.328125 
Q 17.828125 56 27.875 56 
Q 33.9375 56 38.28125 53.609375 
Q 42.625 51.21875 45.40625 46.390625 
L 45.40625 54.6875 
L 54.390625 54.6875 
z
" id="DejaVuSans-103"/>
     <path d="M 19.671875 64.796875 
L 19.671875 37.40625 
L 32.078125 37.40625 
Q 38.96875 37.40625 42.71875 40.96875 
Q 46.484375 44.53125 46.484375 51.125 
Q 46.484375 57.671875 42.71875 61.234375 
Q 38.96875 64.796875 32.078125 64.796875 
z
M 9.8125 72.90625 
L 32.078125 72.90625 
Q 44.34375 72.90625 50.609375 67.359375 
Q 56.890625 61.8125 56.890625 51.125 
Q 56.890625 40.328125 50.609375 34.8125 
Q 44.34375 29.296875 32.078125 29.296875 
L 19.671875 29.296875 
L 19.671875 0 
L 9.8125 0 
z
" id="DejaVuSans-80"/>
    </defs>
    <g transform="translate(66.056042 243.117305)rotate(-323.012071)scale(0.1 -0.1)">
     <use xlink:href="#DejaVuSans-71"/>
     <use x="77.490234" xlink:href="#DejaVuSans-108"/>
     <use x="105.273438" xlink:href="#DejaVuSans-111"/>
     <use x="166.455078" xlink:href="#DejaVuSans-98"/>
     <use x="229.931641" xlink:href="#DejaVuSans-97"/>
     <use x="291.210938" xlink:href="#DejaVuSans-108"/>
     <use x="318.994141" xlink:href="#DejaVuSans-32"/>
     <use x="350.78125" xlink:href="#DejaVuSans-87"/>
     <use x="443.283203" xlink:href="#DejaVuSans-97"/>
     <use x="504.5625" xlink:href="#DejaVuSans-114"/>
     <use x="543.925781" xlink:href="#DejaVuSans-109"/>
     <use x="641.337891" xlink:href="#DejaVuSans-105"/>
     <use x="669.121094" xlink:href="#DejaVuSans-110"/>
     <use x="732.5" xlink:href="#DejaVuSans-103"/>
     <use x="795.976562" xlink:href="#DejaVuSans-32"/>
     <use x="827.763672" xlink:href="#DejaVuSans-80"/>
     <use x="884.441406" xlink:href="#DejaVuSans-111"/>
     <use x="945.623047" xlink:href="#DejaVuSans-116"/>
     <use x="984.832031" xlink:href="#DejaVuSans-101"/>
     <use x="1046.355469" xlink:href="#DejaVuSans-110"/>
     <use x="1109.734375" xlink:href="#DejaVuSans-116"/>
     <use x="1148.943359" xlink:href="#DejaVuSans-105"/>
     <use x="1176.726562" xlink:href="#DejaVuSans-97"/>
     <use x="1238.005859" xlink:href="#DejaVuSans-108"/>
    </g>
    <!--  (kgCO2eq/house-yr) -->
    <defs>
     <path d="M 9.078125 75.984375 
L 18.109375 75.984375 
L 18.109375 31.109375 
L 44.921875 54.6875 
L 56.390625 54.6875 
L 27.390625 29.109375 
L 57.625 0 
L 45.90625 0 
L 18.109375 26.703125 
L 18.109375 0 
L 9.078125 0 
z
" id="DejaVuSans-107"/>
     <path d="M 39.40625 66.21875 
Q 28.65625 66.21875 22.328125 58.203125 
Q 16.015625 50.203125 16.015625 36.375 
Q 16.015625 22.609375 22.328125 14.59375 
Q 28.65625 6.59375 39.40625 6.59375 
Q 50.140625 6.59375 56.421875 14.59375 
Q 62.703125 22.609375 62.703125 36.375 
Q 62.703125 50.203125 56.421875 58.203125 
Q 50.140625 66.21875 39.40625 66.21875 
z
M 39.40625 74.21875 
Q 54.734375 74.21875 63.90625 63.9375 
Q 73.09375 53.65625 73.09375 36.375 
Q 73.09375 19.140625 63.90625 8.859375 
Q 54.734375 -1.421875 39.40625 -1.421875 
Q 24.03125 -1.421875 14.8125 8.828125 
Q 5.609375 19.09375 5.609375 36.375 
Q 5.609375 53.65625 14.8125 63.9375 
Q 24.03125 74.21875 39.40625 74.21875 
z
" id="DejaVuSans-79"/>
     <path d="M 14.796875 27.296875 
Q 14.796875 17.390625 18.875 11.75 
Q 22.953125 6.109375 30.078125 6.109375 
Q 37.203125 6.109375 41.296875 11.75 
Q 45.40625 17.390625 45.40625 27.296875 
Q 45.40625 37.203125 41.296875 42.84375 
Q 37.203125 48.484375 30.078125 48.484375 
Q 22.953125 48.484375 18.875 42.84375 
Q 14.796875 37.203125 14.796875 27.296875 
z
M 45.40625 8.203125 
Q 42.578125 3.328125 38.25 0.953125 
Q 33.9375 -1.421875 27.875 -1.421875 
Q 17.96875 -1.421875 11.734375 6.484375 
Q 5.515625 14.40625 5.515625 27.296875 
Q 5.515625 40.1875 11.734375 48.09375 
Q 17.96875 56 27.875 56 
Q 33.9375 56 38.25 53.625 
Q 42.578125 51.265625 45.40625 46.390625 
L 45.40625 54.6875 
L 54.390625 54.6875 
L 54.390625 -20.796875 
L 45.40625 -20.796875 
z
" id="DejaVuSans-113"/>
    </defs>
    <g transform="translate(68.404836 258.905427)rotate(-323.012071)scale(0.1 -0.1)">
     <use xlink:href="#DejaVuSans-32"/>
     <use x="31.787109" xlink:href="#DejaVuSans-40"/>
     <use x="70.800781" xlink:href="#DejaVuSans-107"/>
     <use x="128.710938" xlink:href="#DejaVuSans-103"/>
     <use x="192.1875" xlink:href="#DejaVuSans-67"/>
     <use x="262.011719" xlink:href="#DejaVuSans-79"/>
     <use x="340.722656" xlink:href="#DejaVuSans-50"/>
     <use x="404.345703" xlink:href="#DejaVuSans-101"/>
     <use x="465.869141" xlink:href="#DejaVuSans-113"/>
     <use x="529.345703" xlink:href="#DejaVuSans-47"/>
     <use x="563.037109" xlink:href="#DejaVuSans-104"/>
     <use x="626.416016" xlink:href="#DejaVuSans-111"/>
     <use x="687.597656" xlink:href="#DejaVuSans-117"/>
     <use x="750.976562" xlink:href="#DejaVuSans-115"/>
     <use x="803.076172" xlink:href="#DejaVuSans-101"/>
     <use x="864.599609" xlink:href="#DejaVuSans-45"/>
     <use x="898.933594" xlink:href="#DejaVuSans-121"/>
     <use x="958.113281" xlink:href="#DejaVuSans-114"/>
     <use x="999.226562" xlink:href="#DejaVuSans-41"/>
    </g>
   </g>
   <g id="Line3DCollection_2">
    <path d="M 377.755747 111.209761 
L 372.41127 252.666249 
L 187.736887 280.916896 
" style="fill:none;stroke:#b0b0b0;stroke-width:0.8;"/>
    <path d="M 366.48272 105.902599 
L 361.626733 246.18044 
L 178.380497 273.869441 
" style="fill:none;stroke:#b0b0b0;stroke-width:0.8;"/>
    <path d="M 355.436849 100.702379 
L 351.051181 239.820315 
L 169.212989 266.964256 
" style="fill:none;stroke:#b0b0b0;stroke-width:0.8;"/>
    <path d="M 344.611338 95.6059 
L 340.6786 233.582255 
L 160.2287 260.197076 
" style="fill:none;stroke:#b0b0b0;stroke-width:0.8;"/>
    <path d="M 333.999656 90.610088 
L 330.5032 227.462781 
L 151.422193 253.563804 
" style="fill:none;stroke:#b0b0b0;stroke-width:0.8;"/>
    <path d="M 323.595532 85.711992 
L 320.519413 221.458542 
L 142.788241 247.060507 
" style="fill:none;stroke:#b0b0b0;stroke-width:0.8;"/>
    <path d="M 313.392933 80.90877 
L 310.721876 215.566314 
L 134.321822 240.683399 
" style="fill:none;stroke:#b0b0b0;stroke-width:0.8;"/>
    <path d="M 303.386061 76.197694 
L 301.105425 209.782991 
L 126.018108 234.428843 
" style="fill:none;stroke:#b0b0b0;stroke-width:0.8;"/>
    <path d="M 293.569338 71.576136 
L 291.665087 204.105582 
L 117.872452 228.293342 
" style="fill:none;stroke:#b0b0b0;stroke-width:0.8;"/>
   </g>
   <g id="xtick_8">
    <g id="line2d_10">
     <path d="M 189.276719 280.68134 
L 184.654072 281.388491 
" style="fill:none;stroke:#000000;stroke-linecap:square;stroke-width:0.8;"/>
    </g>
    <g id="text_10">
     <!-- −3 -->
     <defs>
      <path d="M 10.59375 35.5 
L 73.1875 35.5 
L 73.1875 27.203125 
L 10.59375 27.203125 
z
" id="DejaVuSans-8722"/>
     </defs>
     <g transform="translate(166.874699 300.564322)scale(0.1 -0.1)">
      <use xlink:href="#DejaVuSans-8722"/>
      <use x="83.789062" xlink:href="#DejaVuSans-51"/>
     </g>
    </g>
   </g>
   <g id="xtick_9">
    <g id="line2d_11">
     <path d="M 179.907789 273.638663 
L 175.322819 274.331464 
" style="fill:none;stroke:#000000;stroke-linecap:square;stroke-width:0.8;"/>
    </g>
    <g id="text_11">
     <!-- −2 -->
     <g transform="translate(157.654661 293.393064)scale(0.1 -0.1)">
      <use xlink:href="#DejaVuSans-8722"/>
      <use x="83.789062" xlink:href="#DejaVuSans-50"/>
     </g>
    </g>
   </g>
   <g id="xtick_10">
    <g id="line2d_12">
     <path d="M 170.727932 266.738112 
L 166.180066 267.416996 
" style="fill:none;stroke:#000000;stroke-linecap:square;stroke-width:0.8;"/>
    </g>
    <g id="text_12">
     <!-- −1 -->
     <g transform="translate(148.620776 286.366595)scale(0.1 -0.1)">
      <use xlink:href="#DejaVuSans-8722"/>
      <use x="83.789062" xlink:href="#DejaVuSans-49"/>
     </g>
    </g>
   </g>
   <g id="xtick_11">
    <g id="line2d_13">
     <path d="M 161.731479 259.975429 
L 157.220158 260.64081 
" style="fill:none;stroke:#000000;stroke-linecap:square;stroke-width:0.8;"/>
    </g>
    <g id="text_13">
     <!-- 0 -->
     <g transform="translate(143.957307 279.480573)scale(0.1 -0.1)">
      <use xlink:href="#DejaVuSans-48"/>
     </g>
    </g>
   </g>
   <g id="xtick_12">
    <g id="line2d_14">
     <path d="M 152.912991 253.346521 
L 148.437666 253.998799 
" style="fill:none;stroke:#000000;stroke-linecap:square;stroke-width:0.8;"/>
    </g>
    <g id="text_14">
     <!-- 1 -->
     <g transform="translate(135.279206 272.730828)scale(0.1 -0.1)">
      <use xlink:href="#DejaVuSans-49"/>
     </g>
    </g>
   </g>
   <g id="xtick_13">
    <g id="line2d_15">
     <path d="M 144.267237 246.847459 
L 139.82737 247.487016 
" style="fill:none;stroke:#000000;stroke-linecap:square;stroke-width:0.8;"/>
    </g>
    <g id="text_15">
     <!-- 2 -->
     <g transform="translate(126.771166 266.113356)scale(0.1 -0.1)">
      <use xlink:href="#DejaVuSans-50"/>
     </g>
    </g>
   </g>
   <g id="xtick_14">
    <g id="line2d_16">
     <path d="M 135.789191 240.474464 
L 131.384256 241.10167 
" style="fill:none;stroke:#000000;stroke-linecap:square;stroke-width:0.8;"/>
    </g>
    <g id="text_16">
     <!-- 3 -->
     <g transform="translate(118.428237 259.624306)scale(0.1 -0.1)">
      <use xlink:href="#DejaVuSans-51"/>
     </g>
    </g>
   </g>
   <g id="xtick_15">
    <g id="line2d_17">
     <path d="M 127.474021 234.223904 
L 123.103501 234.839113 
" style="fill:none;stroke:#000000;stroke-linecap:square;stroke-width:0.8;"/>
    </g>
    <g id="text_17">
     <!-- 4 -->
     <defs>
      <path d="M 37.796875 64.3125 
L 12.890625 25.390625 
L 37.796875 25.390625 
z
M 35.203125 72.90625 
L 47.609375 72.90625 
L 47.609375 25.390625 
L 58.015625 25.390625 
L 58.015625 17.1875 
L 47.609375 17.1875 
L 47.609375 0 
L 37.796875 0 
L 37.796875 17.1875 
L 4.890625 17.1875 
L 4.890625 26.703125 
z
" id="DejaVuSans-52"/>
     </defs>
     <g transform="translate(110.245659 253.259974)scale(0.1 -0.1)">
      <use xlink:href="#DejaVuSans-52"/>
     </g>
    </g>
   </g>
   <g id="xtick_16">
    <g id="line2d_18">
     <path d="M 119.317078 228.092284 
L 114.980467 228.695836 
" style="fill:none;stroke:#000000;stroke-linecap:square;stroke-width:0.8;"/>
    </g>
    <g id="text_18">
     <!-- 5 -->
     <g transform="translate(102.218853 247.016801)scale(0.1 -0.1)">
      <use xlink:href="#DejaVuSans-53"/>
     </g>
    </g>
   </g>
  </g>
  <g id="axis3d_3">
   <g id="line2d_19">
    <path d="M 112.867262 224.523314 
L 107.887035 88.2117 
" style="fill:none;stroke:#000000;stroke-linecap:square;stroke-width:0.8;"/>
   </g>
   <g id="text_19">
    <!-- Circularity -->
    <g transform="translate(58.418028 127.317253)rotate(-272.092405)scale(0.1 -0.1)">
     <use xlink:href="#DejaVuSans-67"/>
     <use x="69.824219" xlink:href="#DejaVuSans-105"/>
     <use x="97.607422" xlink:href="#DejaVuSans-114"/>
     <use x="136.470703" xlink:href="#DejaVuSans-99"/>
     <use x="191.451172" xlink:href="#DejaVuSans-117"/>
     <use x="254.830078" xlink:href="#DejaVuSans-108"/>
     <use x="282.613281" xlink:href="#DejaVuSans-97"/>
     <use x="343.892578" xlink:href="#DejaVuSans-114"/>
     <use x="385.005859" xlink:href="#DejaVuSans-105"/>
     <use x="412.789062" xlink:href="#DejaVuSans-116"/>
     <use x="451.998047" xlink:href="#DejaVuSans-121"/>
    </g>
   </g>
   <g id="Line3DCollection_3">
    <path d="M 112.562089 216.170549 
L 285.963811 192.522749 
L 375.447381 245.619778 
" style="fill:none;stroke:#b0b0b0;stroke-width:0.8;"/>
    <path d="M 111.939204 199.121843 
L 286.17369 176.010313 
L 376.130365 227.915076 
" style="fill:none;stroke:#b0b0b0;stroke-width:0.8;"/>
    <path d="M 111.310247 181.90695 
L 286.385536 159.343051 
L 376.820324 210.029598 
" style="fill:none;stroke:#b0b0b0;stroke-width:0.8;"/>
    <path d="M 110.67513 164.52343 
L 286.599379 142.518776 
L 377.517363 191.960559 
" style="fill:none;stroke:#b0b0b0;stroke-width:0.8;"/>
    <path d="M 110.033761 146.968792 
L 286.815245 125.535259 
L 378.221593 173.70512 
" style="fill:none;stroke:#b0b0b0;stroke-width:0.8;"/>
    <path d="M 109.386047 129.240496 
L 287.033164 108.390228 
L 378.933125 155.260381 
" style="fill:none;stroke:#b0b0b0;stroke-width:0.8;"/>
    <path d="M 108.731894 111.335955 
L 287.253166 91.081368 
L 379.652074 136.623382 
" style="fill:none;stroke:#b0b0b0;stroke-width:0.8;"/>
    <path d="M 108.071205 93.252525 
L 287.47528 73.60632 
L 380.378557 117.791102 
" style="fill:none;stroke:#b0b0b0;stroke-width:0.8;"/>
   </g>
   <g id="xtick_17">
    <g id="line2d_20">
     <path d="M 114.003274 215.974006 
L 109.677002 216.564005 
" style="fill:none;stroke:#000000;stroke-linecap:square;stroke-width:0.8;"/>
    </g>
    <g id="text_20">
     <!-- 0.0 -->
     <g transform="translate(86.876227 221.782335)scale(0.1 -0.1)">
      <use xlink:href="#DejaVuSans-48"/>
      <use x="63.623047" xlink:href="#DejaVuSans-46"/>
      <use x="95.410156" xlink:href="#DejaVuSans-48"/>
     </g>
    </g>
   </g>
   <g id="xtick_18">
    <g id="line2d_21">
     <path d="M 113.387573 198.929722 
L 109.039722 199.506448 
" style="fill:none;stroke:#000000;stroke-linecap:square;stroke-width:0.8;"/>
    </g>
    <g id="text_21">
     <!-- 0.2 -->
     <g transform="translate(86.169586 204.778355)scale(0.1 -0.1)">
      <use xlink:href="#DejaVuSans-48"/>
      <use x="63.623047" xlink:href="#DejaVuSans-46"/>
      <use x="95.410156" xlink:href="#DejaVuSans-50"/>
     </g>
    </g>
   </g>
   <g id="xtick_19">
    <g id="line2d_22">
     <path d="M 112.765873 181.719348 
L 108.396226 182.282513 
" style="fill:none;stroke:#000000;stroke-linecap:square;stroke-width:0.8;"/>
    </g>
    <g id="text_22">
     <!-- 0.4 -->
     <g transform="translate(85.456079 187.609156)scale(0.1 -0.1)">
      <use xlink:href="#DejaVuSans-48"/>
      <use x="63.623047" xlink:href="#DejaVuSans-46"/>
      <use x="95.410156" xlink:href="#DejaVuSans-52"/>
     </g>
    </g>
   </g>
   <g id="xtick_20">
    <g id="line2d_23">
     <path d="M 112.138085 164.340443 
L 107.746423 164.889753 
" style="fill:none;stroke:#000000;stroke-linecap:square;stroke-width:0.8;"/>
    </g>
    <g id="text_23">
     <!-- 0.6 -->
     <defs>
      <path d="M 33.015625 40.375 
Q 26.375 40.375 22.484375 35.828125 
Q 18.609375 31.296875 18.609375 23.390625 
Q 18.609375 15.53125 22.484375 10.953125 
Q 26.375 6.390625 33.015625 6.390625 
Q 39.65625 6.390625 43.53125 10.953125 
Q 47.40625 15.53125 47.40625 23.390625 
Q 47.40625 31.296875 43.53125 35.828125 
Q 39.65625 40.375 33.015625 40.375 
z
M 52.59375 71.296875 
L 52.59375 62.3125 
Q 48.875 64.0625 45.09375 64.984375 
Q 41.3125 65.921875 37.59375 65.921875 
Q 27.828125 65.921875 22.671875 59.328125 
Q 17.53125 52.734375 16.796875 39.40625 
Q 19.671875 43.65625 24.015625 45.921875 
Q 28.375 48.1875 33.59375 48.1875 
Q 44.578125 48.1875 50.953125 41.515625 
Q 57.328125 34.859375 57.328125 23.390625 
Q 57.328125 12.15625 50.6875 5.359375 
Q 44.046875 -1.421875 33.015625 -1.421875 
Q 20.359375 -1.421875 13.671875 8.265625 
Q 6.984375 17.96875 6.984375 36.375 
Q 6.984375 53.65625 15.1875 63.9375 
Q 23.390625 74.21875 37.203125 74.21875 
Q 40.921875 74.21875 44.703125 73.484375 
Q 48.484375 72.75 52.59375 71.296875 
z
" id="DejaVuSans-54"/>
     </defs>
     <g transform="translate(84.735606 170.272318)scale(0.1 -0.1)">
      <use xlink:href="#DejaVuSans-48"/>
      <use x="63.623047" xlink:href="#DejaVuSans-46"/>
      <use x="95.410156" xlink:href="#DejaVuSans-54"/>
     </g>
    </g>
   </g>
   <g id="xtick_21">
    <g id="line2d_24">
     <path d="M 111.504119 146.790521 
L 107.090219 147.325676 
" style="fill:none;stroke:#000000;stroke-linecap:square;stroke-width:0.8;"/>
    </g>
    <g id="text_24">
     <!-- 0.8 -->
     <defs>
      <path d="M 31.78125 34.625 
Q 24.75 34.625 20.71875 30.859375 
Q 16.703125 27.09375 16.703125 20.515625 
Q 16.703125 13.921875 20.71875 10.15625 
Q 24.75 6.390625 31.78125 6.390625 
Q 38.8125 6.390625 42.859375 10.171875 
Q 46.921875 13.96875 46.921875 20.515625 
Q 46.921875 27.09375 42.890625 30.859375 
Q 38.875 34.625 31.78125 34.625 
z
M 21.921875 38.8125 
Q 15.578125 40.375 12.03125 44.71875 
Q 8.5 49.078125 8.5 55.328125 
Q 8.5 64.0625 14.71875 69.140625 
Q 20.953125 74.21875 31.78125 74.21875 
Q 42.671875 74.21875 48.875 69.140625 
Q 55.078125 64.0625 55.078125 55.328125 
Q 55.078125 49.078125 51.53125 44.71875 
Q 48 40.375 41.703125 38.8125 
Q 48.828125 37.15625 52.796875 32.3125 
Q 56.78125 27.484375 56.78125 20.515625 
Q 56.78125 9.90625 50.3125 4.234375 
Q 43.84375 -1.421875 31.78125 -1.421875 
Q 19.734375 -1.421875 13.25 4.234375 
Q 6.78125 9.90625 6.78125 20.515625 
Q 6.78125 27.484375 10.78125 32.3125 
Q 14.796875 37.15625 21.921875 38.8125 
z
M 18.3125 54.390625 
Q 18.3125 48.734375 21.84375 45.5625 
Q 25.390625 42.390625 31.78125 42.390625 
Q 38.140625 42.390625 41.71875 45.5625 
Q 45.3125 48.734375 45.3125 54.390625 
Q 45.3125 60.0625 41.71875 63.234375 
Q 38.140625 66.40625 31.78125 66.40625 
Q 25.390625 66.40625 21.84375 63.234375 
Q 18.3125 60.0625 18.3125 54.390625 
z
" id="DejaVuSans-56"/>
     </defs>
     <g transform="translate(84.008063 152.765373)scale(0.1 -0.1)">
      <use xlink:href="#DejaVuSans-48"/>
      <use x="63.623047" xlink:href="#DejaVuSans-46"/>
      <use x="95.410156" xlink:href="#DejaVuSans-56"/>
     </g>
    </g>
   </g>
   <g id="xtick_22">
    <g id="line2d_25">
     <path d="M 110.863884 129.067044 
L 106.427519 129.587736 
" style="fill:none;stroke:#000000;stroke-linecap:square;stroke-width:0.8;"/>
    </g>
    <g id="text_25">
     <!-- 1.0 -->
     <g transform="translate(83.273346 135.085805)scale(0.1 -0.1)">
      <use xlink:href="#DejaVuSans-49"/>
      <use x="63.623047" xlink:href="#DejaVuSans-46"/>
      <use x="95.410156" xlink:href="#DejaVuSans-48"/>
     </g>
    </g>
   </g>
   <g id="xtick_23">
    <g id="line2d_26">
     <path d="M 110.217286 111.167426 
L 105.758227 111.673339 
" style="fill:none;stroke:#000000;stroke-linecap:square;stroke-width:0.8;"/>
    </g>
    <g id="text_26">
     <!-- 1.2 -->
     <g transform="translate(82.531349 117.23105)scale(0.1 -0.1)">
      <use xlink:href="#DejaVuSans-49"/>
      <use x="63.623047" xlink:href="#DejaVuSans-46"/>
      <use x="95.410156" xlink:href="#DejaVuSans-50"/>
     </g>
    </g>
   </g>
   <g id="xtick_24">
    <g id="line2d_27">
     <path d="M 109.564229 93.089026 
L 105.082244 93.57984 
" style="fill:none;stroke:#000000;stroke-linecap:square;stroke-width:0.8;"/>
    </g>
    <g id="text_27">
     <!-- 1.4 -->
     <g transform="translate(81.781963 99.198489)scale(0.1 -0.1)">
      <use xlink:href="#DejaVuSans-49"/>
      <use x="63.623047" xlink:href="#DejaVuSans-46"/>
      <use x="95.410156" xlink:href="#DejaVuSans-52"/>
     </g>
    </g>
   </g>
  </g>
  <g id="axes_1">
   <g id="Poly3DCollection_1">
    <path clip-path="url(#pbab447b221)" d="M 163.01853 194.825442 
L 170.782208 162.705348 
L 281.834756 81.255029 
z
" style="fill:#96c6df;fill-opacity:0.95;"/>
    <path clip-path="url(#pbab447b221)" d="M 281.834756 81.255029 
L 170.782208 162.705348 
L 175.257929 152.022178 
z
" style="fill:#3686c0;fill-opacity:0.95;"/>
    <path clip-path="url(#pbab447b221)" d="M 281.834756 81.255029 
L 175.257929 152.022178 
L 182.499339 146.443647 
z
" style="fill:#1e6db2;fill-opacity:0.95;"/>
    <path clip-path="url(#pbab447b221)" d="M 156.494557 227.539371 
L 156.456205 227.526802 
L 154.419913 236.853702 
z
" style="fill:#7f2704;fill-opacity:0.95;"/>
    <path clip-path="url(#pbab447b221)" d="M 182.499339 146.443647 
L 191.599198 130.226585 
L 281.834756 81.255029 
z
" style="fill:#084990;fill-opacity:0.95;"/>
    <path clip-path="url(#pbab447b221)" d="M 160.038031 211.462348 
L 156.456205 227.526802 
L 156.494557 227.539371 
z
" style="fill:#b33b02;fill-opacity:0.95;"/>
    <path clip-path="url(#pbab447b221)" d="M 156.456205 227.526802 
L 163.01853 194.825442 
L 154.419913 236.853702 
z
" style="fill:#c34002;fill-opacity:0.95;"/>
    <path clip-path="url(#pbab447b221)" d="M 154.419913 236.853702 
L 181.175291 230.778518 
L 156.494557 227.539371 
z
" style="fill:#7f2704;fill-opacity:0.95;"/>
    <path clip-path="url(#pbab447b221)" d="M 159.97295 211.441263 
L 156.456205 227.526802 
L 160.038031 211.462348 
z
" style="fill:#db4b02;fill-opacity:0.95;"/>
    <path clip-path="url(#pbab447b221)" d="M 163.01853 194.825442 
L 156.456205 227.526802 
L 159.97295 211.441263 
z
" style="fill:#ef6611;fill-opacity:0.95;"/>
    <path clip-path="url(#pbab447b221)" d="M 160.631202 208.771356 
L 159.97295 211.441263 
L 160.038031 211.462348 
z
" style="fill:#f16a14;fill-opacity:0.95;"/>
    <path clip-path="url(#pbab447b221)" d="M 281.834756 81.255029 
L 191.599198 130.226585 
L 226.301153 137.124231 
z
" style="fill:#083471;fill-opacity:0.95;"/>
    <path clip-path="url(#pbab447b221)" d="M 163.01853 194.825442 
L 159.97295 211.441263 
L 160.631202 208.771356 
z
" style="fill:#fb8736;fill-opacity:0.95;"/>
    <path clip-path="url(#pbab447b221)" d="M 154.419913 236.853702 
L 195.101035 232.759467 
L 181.175291 230.778518 
z
" style="fill:#7f2704;fill-opacity:0.95;"/>
    <path clip-path="url(#pbab447b221)" d="M 163.01853 194.825442 
L 160.631202 208.771356 
L 163.462884 195.226148 
z
" style="fill:#fda158;fill-opacity:0.95;"/>
    <path clip-path="url(#pbab447b221)" d="M 163.462884 195.226148 
L 160.631202 208.771356 
L 163.600198 195.290754 
z
" style="fill:#fda158;fill-opacity:0.95;"/>
    <path clip-path="url(#pbab447b221)" d="M 163.600198 195.290754 
L 160.631202 208.771356 
L 166.176728 189.776051 
z
" style="fill:#fdab67;fill-opacity:0.95;"/>
    <path clip-path="url(#pbab447b221)" d="M 181.175291 230.778518 
L 183.281585 211.560613 
L 156.494557 227.539371 
z
" style="fill:#bd3e02;fill-opacity:0.95;"/>
    <path clip-path="url(#pbab447b221)" d="M 163.462884 195.226148 
L 164.691138 189.855368 
L 163.01853 194.825442 
z
" style="fill:#fdc089;fill-opacity:0.95;"/>
    <path clip-path="url(#pbab447b221)" d="M 164.793598 189.886508 
L 163.462884 195.226148 
L 163.600198 195.290754 
z
" style="fill:#fdc089;fill-opacity:0.95;"/>
    <path clip-path="url(#pbab447b221)" d="M 156.494557 227.539371 
L 180.191214 147.009467 
L 160.038031 211.462348 
z
" style="fill:#fdb87b;fill-opacity:0.95;"/>
    <path clip-path="url(#pbab447b221)" d="M 166.176728 189.776051 
L 160.631202 208.771356 
L 168.155972 179.27123 
z
" style="fill:#fdc793;fill-opacity:0.95;"/>
    <path clip-path="url(#pbab447b221)" d="M 163.600198 195.290754 
L 166.176728 189.776051 
L 164.793598 189.886508 
z
" style="fill:#fdcb9a;fill-opacity:0.95;"/>
    <path clip-path="url(#pbab447b221)" d="M 164.691138 189.855368 
L 163.462884 195.226148 
L 164.793598 189.886508 
z
" style="fill:#fdcb9a;fill-opacity:0.95;"/>
    <path clip-path="url(#pbab447b221)" d="M 226.301153 137.124231 
L 234.174833 134.847643 
L 281.834756 81.255029 
z
" style="fill:#083471;fill-opacity:0.95;"/>
    <path clip-path="url(#pbab447b221)" d="M 164.793598 189.886508 
L 166.176728 189.776051 
L 164.691138 189.855368 
z
" style="fill:#fdd2a7;fill-opacity:0.95;"/>
    <path clip-path="url(#pbab447b221)" d="M 164.691138 189.855368 
L 167.181607 179.041589 
L 163.01853 194.825442 
z
" style="fill:#fdd8b2;fill-opacity:0.95;"/>
    <path clip-path="url(#pbab447b221)" d="M 163.01853 194.825442 
L 167.181607 179.041589 
L 168.054562 178.804044 
z
" style="fill:#fee4cb;fill-opacity:0.95;"/>
    <path clip-path="url(#pbab447b221)" d="M 167.181607 179.041589 
L 164.691138 189.855368 
L 166.176728 189.776051 
z
" style="fill:#fedfc0;fill-opacity:0.95;"/>
    <path clip-path="url(#pbab447b221)" d="M 160.038031 211.462348 
L 180.191214 147.009467 
L 160.631202 208.771356 
z
" style="fill:#fdd5ac;fill-opacity:0.95;"/>
    <path clip-path="url(#pbab447b221)" d="M 168.054562 178.804044 
L 168.849457 170.843477 
L 163.01853 194.825442 
z
" style="fill:#feebd7;fill-opacity:0.95;"/>
    <path clip-path="url(#pbab447b221)" d="M 168.155972 179.27123 
L 167.181607 179.041589 
L 166.176728 189.776051 
z
" style="fill:#fee9d3;fill-opacity:0.95;"/>
    <path clip-path="url(#pbab447b221)" d="M 183.281585 211.560613 
L 181.175291 230.778518 
L 195.101035 232.759467 
z
" style="fill:#bd3e02;fill-opacity:0.95;"/>
    <path clip-path="url(#pbab447b221)" d="M 168.054562 178.804044 
L 167.181607 179.041589 
L 168.155972 179.27123 
z
" style="fill:#fff1e4;fill-opacity:0.95;"/>
    <path clip-path="url(#pbab447b221)" d="M 281.834756 81.255029 
L 234.174833 134.847643 
L 297.107789 137.61394 
z
" style="fill:#08306b;fill-opacity:0.95;"/>
    <path clip-path="url(#pbab447b221)" d="M 170.782208 162.705348 
L 163.01853 194.825442 
L 168.849457 170.843477 
z
" style="fill:#f5fafe;fill-opacity:0.95;"/>
    <path clip-path="url(#pbab447b221)" d="M 183.281585 211.560613 
L 180.191214 147.009467 
L 156.494557 227.539371 
z
" style="fill:#fdbe85;fill-opacity:0.95;"/>
    <path clip-path="url(#pbab447b221)" d="M 168.155972 179.27123 
L 168.981986 170.883734 
L 168.054562 178.804044 
z
" style="fill:#f5fafe;fill-opacity:0.95;"/>
    <path clip-path="url(#pbab447b221)" d="M 160.631202 208.771356 
L 180.191214 147.009467 
L 168.155972 179.27123 
z
" style="fill:#fff3e7;fill-opacity:0.95;"/>
    <path clip-path="url(#pbab447b221)" d="M 168.981986 170.883734 
L 168.849457 170.843477 
L 168.054562 178.804044 
z
" style="fill:#eaf3fb;fill-opacity:0.95;"/>
    <path clip-path="url(#pbab447b221)" d="M 168.155972 179.27123 
L 174.581673 163.02194 
L 168.981986 170.883734 
z
" style="fill:#e1edf8;fill-opacity:0.95;"/>
    <path clip-path="url(#pbab447b221)" d="M 168.849457 170.843477 
L 168.981986 170.883734 
L 170.782208 162.705348 
z
" style="fill:#d8e7f5;fill-opacity:0.95;"/>
    <path clip-path="url(#pbab447b221)" d="M 195.101035 232.759467 
L 188.633194 194.202525 
L 183.281585 211.560613 
z
" style="fill:#f57521;fill-opacity:0.95;"/>
    <path clip-path="url(#pbab447b221)" d="M 281.834756 81.255029 
L 297.107789 137.61394 
L 354.835208 155.890431 
z
" style="fill:#08478d;fill-opacity:0.95;"/>
    <path clip-path="url(#pbab447b221)" d="M 168.981986 170.883734 
L 175.257929 152.022178 
L 170.782208 162.705348 
z
" style="fill:#bed8ec;fill-opacity:0.95;"/>
    <path clip-path="url(#pbab447b221)" d="M 168.981986 170.883734 
L 174.581673 163.02194 
L 175.257929 152.022178 
z
" style="fill:#bed8ec;fill-opacity:0.95;"/>
    <path clip-path="url(#pbab447b221)" d="M 180.191214 147.009467 
L 174.581673 163.02194 
L 168.155972 179.27123 
z
" style="fill:#c3daee;fill-opacity:0.95;"/>
    <path clip-path="url(#pbab447b221)" d="M 202.558168 216.532764 
L 195.101035 232.759467 
L 250.337813 216.700827 
z
" style="fill:#de4f05;fill-opacity:0.95;"/>
    <path clip-path="url(#pbab447b221)" d="M 195.803723 175.244074 
L 195.101035 232.759467 
L 202.558168 216.532764 
z
" style="fill:#fd9040;fill-opacity:0.95;"/>
    <path clip-path="url(#pbab447b221)" d="M 175.257929 152.022178 
L 174.581673 163.02194 
L 176.282893 152.12434 
z
" style="fill:#96c6df;fill-opacity:0.95;"/>
    <path clip-path="url(#pbab447b221)" d="M 188.633194 194.202525 
L 195.101035 232.759467 
L 195.803723 175.244074 
z
" style="fill:#fdb474;fill-opacity:0.95;"/>
    <path clip-path="url(#pbab447b221)" d="M 174.581673 163.02194 
L 179.160772 146.901806 
L 176.282893 152.12434 
z
" style="fill:#86bddc;fill-opacity:0.95;"/>
    <path clip-path="url(#pbab447b221)" d="M 175.257929 152.022178 
L 176.282893 152.12434 
L 176.242668 152.038102 
z
" style="fill:#79b6d9;fill-opacity:0.95;"/>
    <path clip-path="url(#pbab447b221)" d="M 176.242668 152.038102 
L 182.499339 146.443647 
L 175.257929 152.022178 
z
" style="fill:#6dafd6;fill-opacity:0.95;"/>
    <path clip-path="url(#pbab447b221)" d="M 183.281585 211.560613 
L 188.633194 194.202525 
L 189.342663 133.204069 
z
" style="fill:#f7fbff;fill-opacity:0.95;"/>
    <path clip-path="url(#pbab447b221)" d="M 180.191214 147.009467 
L 179.160772 146.901806 
L 174.581673 163.02194 
z
" style="fill:#79b6d9;fill-opacity:0.95;"/>
    <path clip-path="url(#pbab447b221)" d="M 176.242668 152.038102 
L 176.282893 152.12434 
L 179.160772 146.901806 
z
" style="fill:#6dafd6;fill-opacity:0.95;"/>
    <path clip-path="url(#pbab447b221)" d="M 176.242668 152.038102 
L 179.160772 146.901806 
L 182.499339 146.443647 
z
" style="fill:#5fa6d1;fill-opacity:0.95;"/>
    <path clip-path="url(#pbab447b221)" d="M 180.191214 147.009467 
L 183.281585 211.560613 
L 189.342663 133.204069 
z
" style="fill:#c0d9ed;fill-opacity:0.95;"/>
    <path clip-path="url(#pbab447b221)" d="M 182.499339 146.443647 
L 179.160772 146.901806 
L 180.191214 147.009467 
z
" style="fill:#559fcd;fill-opacity:0.95;"/>
    <path clip-path="url(#pbab447b221)" d="M 250.337813 216.700827 
L 206.676329 194.355861 
L 202.558168 216.532764 
z
" style="fill:#fd9243;fill-opacity:0.95;"/>
    <path clip-path="url(#pbab447b221)" d="M 189.342663 133.204069 
L 182.499339 146.443647 
L 180.191214 147.009467 
z
" style="fill:#3a8ac2;fill-opacity:0.95;"/>
    <path clip-path="url(#pbab447b221)" d="M 195.803723 175.244074 
L 189.342663 133.204069 
L 188.633194 194.202525 
z
" style="fill:#cadef0;fill-opacity:0.95;"/>
    <path clip-path="url(#pbab447b221)" d="M 202.558168 216.532764 
L 206.676329 194.355861 
L 202.48219 156.223135 
z
" style="fill:#fee6ce;fill-opacity:0.95;"/>
    <path clip-path="url(#pbab447b221)" d="M 182.499339 146.443647 
L 189.342663 133.204069 
L 191.599198 130.226585 
z
" style="fill:#2272b5;fill-opacity:0.95;"/>
    <path clip-path="url(#pbab447b221)" d="M 202.558168 216.532764 
L 202.48219 156.223135 
L 195.803723 175.244074 
z
" style="fill:#fff3e7;fill-opacity:0.95;"/>
    <path clip-path="url(#pbab447b221)" d="M 209.286688 184.912125 
L 206.676329 194.355861 
L 250.337813 216.700827 
z
" style="fill:#fdc997;fill-opacity:0.95;"/>
    <path clip-path="url(#pbab447b221)" d="M 202.48219 156.223135 
L 189.342663 133.204069 
L 195.803723 175.244074 
z
" style="fill:#79b6d9;fill-opacity:0.95;"/>
    <path clip-path="url(#pbab447b221)" d="M 191.599198 130.226585 
L 189.342663 133.204069 
L 202.48219 156.223135 
z
" style="fill:#2a7aba;fill-opacity:0.95;"/>
    <path clip-path="url(#pbab447b221)" d="M 202.48219 156.223135 
L 206.676329 194.355861 
L 209.286688 184.912125 
z
" style="fill:#e9f2fa;fill-opacity:0.95;"/>
    <path clip-path="url(#pbab447b221)" d="M 250.337813 216.700827 
L 263.089473 211.68161 
L 258.29421 198.105597 
z
" style="fill:#fd9f55;fill-opacity:0.95;"/>
    <path clip-path="url(#pbab447b221)" d="M 250.337813 216.700827 
L 214.159486 168.746428 
L 209.286688 184.912125 
z
" style="fill:#fee7d0;fill-opacity:0.95;"/>
    <path clip-path="url(#pbab447b221)" d="M 209.286688 184.912125 
L 214.159486 168.746428 
L 202.48219 156.223135 
z
" style="fill:#cadef0;fill-opacity:0.95;"/>
    <path clip-path="url(#pbab447b221)" d="M 202.48219 156.223135 
L 226.301153 137.124231 
L 191.599198 130.226585 
z
" style="fill:#2a7aba;fill-opacity:0.95;"/>
    <path clip-path="url(#pbab447b221)" d="M 222.076903 152.097234 
L 214.159486 168.746428 
L 250.337813 216.700827 
z
" style="fill:#e7f1fa;fill-opacity:0.95;"/>
    <path clip-path="url(#pbab447b221)" d="M 234.174833 134.847643 
L 250.337813 216.700827 
L 258.29421 198.105597 
z
" style="fill:#f5fafe;fill-opacity:0.95;"/>
    <path clip-path="url(#pbab447b221)" d="M 266.871434 203.970656 
L 262.647487 179.449791 
L 263.089473 211.68161 
z
" style="fill:#fdd2a7;fill-opacity:0.95;"/>
    <path clip-path="url(#pbab447b221)" d="M 263.089473 211.68161 
L 262.647487 179.449791 
L 258.29421 198.105597 
z
" style="fill:#fdd9b5;fill-opacity:0.95;"/>
    <path clip-path="url(#pbab447b221)" d="M 226.301153 137.124231 
L 202.48219 156.223135 
L 214.159486 168.746428 
z
" style="fill:#67abd4;fill-opacity:0.95;"/>
    <path clip-path="url(#pbab447b221)" d="M 222.076903 152.097234 
L 250.337813 216.700827 
L 234.174833 134.847643 
z
" style="fill:#bbd6eb;fill-opacity:0.95;"/>
    <path clip-path="url(#pbab447b221)" d="M 340.563244 181.163766 
L 266.871434 203.970656 
L 263.089473 211.68161 
z
" style="fill:#fdd4aa;fill-opacity:0.95;"/>
    <path clip-path="url(#pbab447b221)" d="M 226.301153 137.124231 
L 214.159486 168.746428 
L 222.076903 152.097234 
z
" style="fill:#5aa3cf;fill-opacity:0.95;"/>
    <path clip-path="url(#pbab447b221)" d="M 258.29421 198.105597 
L 262.647487 179.449791 
L 234.174833 134.847643 
z
" style="fill:#c7dcef;fill-opacity:0.95;"/>
    <path clip-path="url(#pbab447b221)" d="M 270.151342 160.237734 
L 266.871434 203.970656 
L 275.015401 185.833735 
z
" style="fill:#eff6fc;fill-opacity:0.95;"/>
    <path clip-path="url(#pbab447b221)" d="M 266.871434 203.970656 
L 270.151342 160.237734 
L 262.647487 179.449791 
z
" style="fill:#e7f1fa;fill-opacity:0.95;"/>
    <path clip-path="url(#pbab447b221)" d="M 340.563244 181.163766 
L 275.015401 185.833735 
L 266.871434 203.970656 
z
" style="fill:#feeddc;fill-opacity:0.95;"/>
    <path clip-path="url(#pbab447b221)" d="M 234.174833 134.847643 
L 226.301153 137.124231 
L 222.076903 152.097234 
z
" style="fill:#2272b5;fill-opacity:0.95;"/>
    <path clip-path="url(#pbab447b221)" d="M 234.174833 134.847643 
L 262.647487 179.449791 
L 270.151342 160.237734 
z
" style="fill:#73b2d8;fill-opacity:0.95;"/>
    <path clip-path="url(#pbab447b221)" d="M 279.026791 171.369394 
L 275.015401 185.833735 
L 340.563244 181.163766 
z
" style="fill:#deebf7;fill-opacity:0.95;"/>
    <path clip-path="url(#pbab447b221)" d="M 340.563244 181.163766 
L 263.089473 211.68161 
L 349.772957 177.536753 
z
" style="fill:#fff0e2;fill-opacity:0.95;"/>
    <path clip-path="url(#pbab447b221)" d="M 275.015401 185.833735 
L 279.026791 171.369394 
L 276.870863 140.996039 
z
" style="fill:#a5cde3;fill-opacity:0.95;"/>
    <path clip-path="url(#pbab447b221)" d="M 276.870863 140.996039 
L 270.151342 160.237734 
L 275.015401 185.833735 
z
" style="fill:#8abfdd;fill-opacity:0.95;"/>
    <path clip-path="url(#pbab447b221)" d="M 270.151342 160.237734 
L 276.870863 140.996039 
L 234.174833 134.847643 
z
" style="fill:#2a7aba;fill-opacity:0.95;"/>
    <path clip-path="url(#pbab447b221)" d="M 340.563244 181.163766 
L 283.367902 155.134819 
L 279.026791 171.369394 
z
" style="fill:#afd1e7;fill-opacity:0.95;"/>
    <path clip-path="url(#pbab447b221)" d="M 276.870863 140.996039 
L 279.026791 171.369394 
L 283.367902 155.134819 
z
" style="fill:#5aa3cf;fill-opacity:0.95;"/>
    <path clip-path="url(#pbab447b221)" d="M 276.870863 140.996039 
L 297.107789 137.61394 
L 234.174833 134.847643 
z
" style="fill:#0d57a1;fill-opacity:0.95;"/>
    <path clip-path="url(#pbab447b221)" d="M 297.107789 137.61394 
L 283.367902 155.134819 
L 340.563244 181.163766 
z
" style="fill:#65aad3;fill-opacity:0.95;"/>
    <path clip-path="url(#pbab447b221)" d="M 350.788315 174.231872 
L 340.563244 181.163766 
L 349.772957 177.536753 
z
" style="fill:#d0e2f2;fill-opacity:0.95;"/>
    <path clip-path="url(#pbab447b221)" d="M 297.107789 137.61394 
L 276.870863 140.996039 
L 283.367902 155.134819 
z
" style="fill:#2272b5;fill-opacity:0.95;"/>
    <path clip-path="url(#pbab447b221)" d="M 340.563244 181.163766 
L 353.604434 162.360849 
L 297.107789 137.61394 
z
" style="fill:#70b1d7;fill-opacity:0.95;"/>
    <path clip-path="url(#pbab447b221)" d="M 353.604434 162.360849 
L 340.563244 181.163766 
L 350.788315 174.231872 
z
" style="fill:#bbd6eb;fill-opacity:0.95;"/>
    <path clip-path="url(#pbab447b221)" d="M 349.772957 177.536753 
L 354.835208 155.890431 
L 350.788315 174.231872 
z
" style="fill:#a5cde3;fill-opacity:0.95;"/>
    <path clip-path="url(#pbab447b221)" d="M 297.107789 137.61394 
L 353.604434 162.360849 
L 354.328829 157.030875 
z
" style="fill:#4191c5;fill-opacity:0.95;"/>
    <path clip-path="url(#pbab447b221)" d="M 350.788315 174.231872 
L 354.328829 157.030875 
L 353.604434 162.360849 
z
" style="fill:#86bddc;fill-opacity:0.95;"/>
    <path clip-path="url(#pbab447b221)" d="M 354.328829 157.030875 
L 354.835208 155.890431 
L 297.107789 137.61394 
z
" style="fill:#3484bf;fill-opacity:0.95;"/>
    <path clip-path="url(#pbab447b221)" d="M 354.835208 155.890431 
L 354.328829 157.030875 
L 350.788315 174.231872 
z
" style="fill:#76b4d8;fill-opacity:0.95;"/>
   </g>
   <g id="Path3DCollection_1">
    <defs>
     <path d="M 0 1.369306 
C 0.363144 1.369306 0.711464 1.225028 0.968246 0.968246 
C 1.225028 0.711464 1.369306 0.363144 1.369306 0 
C 1.369306 -0.363144 1.225028 -0.711464 0.968246 -0.968246 
C 0.711464 -1.225028 0.363144 -1.369306 0 -1.369306 
C -0.363144 -1.369306 -0.711464 -1.225028 -0.968246 -0.968246 
C -1.225028 -0.711464 -1.369306 -0.363144 -1.369306 0 
C -1.369306 0.363144 -1.225028 0.711464 -0.968246 0.968246 
C -0.711464 1.225028 -0.363144 1.369306 0 1.369306 
z
" id="C0_0_144231fa16"/>
    </defs>
    <g clip-path="url(#pbab447b221)">
     <use style="fill-opacity:0.7;stroke:#000000;stroke-opacity:0.7;" x="281.834756" xlink:href="#C0_0_144231fa16" y="81.255029"/>
    </g>
    <g clip-path="url(#pbab447b221)">
     <use style="fill-opacity:0.7;stroke:#000000;stroke-opacity:0.7;" x="349.772957" xlink:href="#C0_0_144231fa16" y="177.536753"/>
    </g>
    <g clip-path="url(#pbab447b221)">
     <use style="fill-opacity:0.7;stroke:#000000;stroke-opacity:0.7;" x="154.419913" xlink:href="#C0_0_144231fa16" y="236.853702"/>
    </g>
    <g clip-path="url(#pbab447b221)">
     <use style="fill-opacity:0.7;stroke:#000000;stroke-opacity:0.7;" x="340.563244" xlink:href="#C0_0_144231fa16" y="181.163766"/>
    </g>
    <g clip-path="url(#pbab447b221)">
     <use style="fill-opacity:0.7;stroke:#000000;stroke-opacity:0.7;" x="250.337813" xlink:href="#C0_0_144231fa16" y="216.700827"/>
    </g>
    <g clip-path="url(#pbab447b221)">
     <use style="fill-opacity:0.7;stroke:#000000;stroke-opacity:0.7;" x="181.175291" xlink:href="#C0_0_144231fa16" y="230.778518"/>
    </g>
    <g clip-path="url(#pbab447b221)">
     <use style="fill-opacity:0.7;stroke:#000000;stroke-opacity:0.7;" x="156.494557" xlink:href="#C0_0_144231fa16" y="227.539371"/>
    </g>
    <g clip-path="url(#pbab447b221)">
     <use style="fill-opacity:0.7;stroke:#000000;stroke-opacity:0.7;" x="156.456205" xlink:href="#C0_0_144231fa16" y="227.526802"/>
    </g>
    <g clip-path="url(#pbab447b221)">
     <use style="fill-opacity:0.7;stroke:#000000;stroke-opacity:0.7;" x="156.494557" xlink:href="#C0_0_144231fa16" y="227.539371"/>
    </g>
    <g clip-path="url(#pbab447b221)">
     <use style="fill-opacity:0.7;stroke:#000000;stroke-opacity:0.7;" x="340.563244" xlink:href="#C0_0_144231fa16" y="181.163766"/>
    </g>
    <g clip-path="url(#pbab447b221)">
     <use style="fill-opacity:0.7;stroke:#000000;stroke-opacity:0.7;" x="250.337813" xlink:href="#C0_0_144231fa16" y="216.700827"/>
    </g>
    <g clip-path="url(#pbab447b221)">
     <use style="fill-opacity:0.7;stroke:#000000;stroke-opacity:0.7;" x="183.281585" xlink:href="#C0_0_144231fa16" y="211.560613"/>
    </g>
    <g clip-path="url(#pbab447b221)">
     <use style="fill-opacity:0.7;stroke:#000000;stroke-opacity:0.7;" x="160.631202" xlink:href="#C0_0_144231fa16" y="208.771356"/>
    </g>
    <g clip-path="url(#pbab447b221)">
     <use style="fill-opacity:0.7;stroke:#000000;stroke-opacity:0.7;" x="160.631202" xlink:href="#C0_0_144231fa16" y="208.771356"/>
    </g>
    <g clip-path="url(#pbab447b221)">
     <use style="fill-opacity:0.7;stroke:#000000;stroke-opacity:0.7;" x="160.631202" xlink:href="#C0_0_144231fa16" y="208.771356"/>
    </g>
    <g clip-path="url(#pbab447b221)">
     <use style="fill-opacity:0.7;stroke:#000000;stroke-opacity:0.7;" x="340.563244" xlink:href="#C0_0_144231fa16" y="181.163766"/>
    </g>
    <g clip-path="url(#pbab447b221)">
     <use style="fill-opacity:0.7;stroke:#000000;stroke-opacity:0.7;" x="258.29421" xlink:href="#C0_0_144231fa16" y="198.105597"/>
    </g>
    <g clip-path="url(#pbab447b221)">
     <use style="fill-opacity:0.7;stroke:#000000;stroke-opacity:0.7;" x="188.633194" xlink:href="#C0_0_144231fa16" y="194.202525"/>
    </g>
    <g clip-path="url(#pbab447b221)">
     <use style="fill-opacity:0.7;stroke:#000000;stroke-opacity:0.7;" x="164.691138" xlink:href="#C0_0_144231fa16" y="189.855368"/>
    </g>
    <g clip-path="url(#pbab447b221)">
     <use style="fill-opacity:0.7;stroke:#000000;stroke-opacity:0.7;" x="164.793598" xlink:href="#C0_0_144231fa16" y="189.886508"/>
    </g>
    <g clip-path="url(#pbab447b221)">
     <use style="fill-opacity:0.7;stroke:#000000;stroke-opacity:0.7;" x="166.176728" xlink:href="#C0_0_144231fa16" y="189.776051"/>
    </g>
    <g clip-path="url(#pbab447b221)">
     <use style="fill-opacity:0.7;stroke:#000000;stroke-opacity:0.7;" x="354.835208" xlink:href="#C0_0_144231fa16" y="155.890431"/>
    </g>
    <g clip-path="url(#pbab447b221)">
     <use style="fill-opacity:0.7;stroke:#000000;stroke-opacity:0.7;" x="262.647487" xlink:href="#C0_0_144231fa16" y="179.449791"/>
    </g>
    <g clip-path="url(#pbab447b221)">
     <use style="fill-opacity:0.7;stroke:#000000;stroke-opacity:0.7;" x="195.803723" xlink:href="#C0_0_144231fa16" y="175.244074"/>
    </g>
    <g clip-path="url(#pbab447b221)">
     <use style="fill-opacity:0.7;stroke:#000000;stroke-opacity:0.7;" x="168.981986" xlink:href="#C0_0_144231fa16" y="170.883734"/>
    </g>
    <g clip-path="url(#pbab447b221)">
     <use style="fill-opacity:0.7;stroke:#000000;stroke-opacity:0.7;" x="168.981986" xlink:href="#C0_0_144231fa16" y="170.883734"/>
    </g>
    <g clip-path="url(#pbab447b221)">
     <use style="fill-opacity:0.7;stroke:#000000;stroke-opacity:0.7;" x="168.849457" xlink:href="#C0_0_144231fa16" y="170.843477"/>
    </g>
    <g clip-path="url(#pbab447b221)">
     <use style="fill-opacity:0.7;stroke:#000000;stroke-opacity:0.7;" x="353.604434" xlink:href="#C0_0_144231fa16" y="162.360849"/>
    </g>
    <g clip-path="url(#pbab447b221)">
     <use style="fill-opacity:0.7;stroke:#000000;stroke-opacity:0.7;" x="270.151342" xlink:href="#C0_0_144231fa16" y="160.237734"/>
    </g>
    <g clip-path="url(#pbab447b221)">
     <use style="fill-opacity:0.7;stroke:#000000;stroke-opacity:0.7;" x="202.48219" xlink:href="#C0_0_144231fa16" y="156.223135"/>
    </g>
    <g clip-path="url(#pbab447b221)">
     <use style="fill-opacity:0.7;stroke:#000000;stroke-opacity:0.7;" x="176.282893" xlink:href="#C0_0_144231fa16" y="152.12434"/>
    </g>
    <g clip-path="url(#pbab447b221)">
     <use style="fill-opacity:0.7;stroke:#000000;stroke-opacity:0.7;" x="176.242668" xlink:href="#C0_0_144231fa16" y="152.038102"/>
    </g>
    <g clip-path="url(#pbab447b221)">
     <use style="fill-opacity:0.7;stroke:#000000;stroke-opacity:0.7;" x="175.257929" xlink:href="#C0_0_144231fa16" y="152.022178"/>
    </g>
    <g clip-path="url(#pbab447b221)">
     <use style="fill-opacity:0.7;stroke:#000000;stroke-opacity:0.7;" x="276.870863" xlink:href="#C0_0_144231fa16" y="140.996039"/>
    </g>
    <g clip-path="url(#pbab447b221)">
     <use style="fill-opacity:0.7;stroke:#000000;stroke-opacity:0.7;" x="226.301153" xlink:href="#C0_0_144231fa16" y="137.124231"/>
    </g>
    <g clip-path="url(#pbab447b221)">
     <use style="fill-opacity:0.7;stroke:#000000;stroke-opacity:0.7;" x="189.342663" xlink:href="#C0_0_144231fa16" y="133.204069"/>
    </g>
    <g clip-path="url(#pbab447b221)">
     <use style="fill-opacity:0.7;stroke:#000000;stroke-opacity:0.7;" x="189.342663" xlink:href="#C0_0_144231fa16" y="133.204069"/>
    </g>
    <g clip-path="url(#pbab447b221)">
     <use style="fill-opacity:0.7;stroke:#000000;stroke-opacity:0.7;" x="189.342663" xlink:href="#C0_0_144231fa16" y="133.204069"/>
    </g>
    <g clip-path="url(#pbab447b221)">
     <use style="fill-opacity:0.7;stroke:#000000;stroke-opacity:0.7;" x="340.563244" xlink:href="#C0_0_144231fa16" y="181.163766"/>
    </g>
    <g clip-path="url(#pbab447b221)">
     <use style="fill-opacity:0.7;stroke:#000000;stroke-opacity:0.7;" x="263.089473" xlink:href="#C0_0_144231fa16" y="211.68161"/>
    </g>
    <g clip-path="url(#pbab447b221)">
     <use style="fill-opacity:0.7;stroke:#000000;stroke-opacity:0.7;" x="195.101035" xlink:href="#C0_0_144231fa16" y="232.759467"/>
    </g>
    <g clip-path="url(#pbab447b221)">
     <use style="fill-opacity:0.7;stroke:#000000;stroke-opacity:0.7;" x="156.494557" xlink:href="#C0_0_144231fa16" y="227.539371"/>
    </g>
    <g clip-path="url(#pbab447b221)">
     <use style="fill-opacity:0.7;stroke:#000000;stroke-opacity:0.7;" x="156.456205" xlink:href="#C0_0_144231fa16" y="227.526802"/>
    </g>
    <g clip-path="url(#pbab447b221)">
     <use style="fill-opacity:0.7;stroke:#000000;stroke-opacity:0.7;" x="156.494557" xlink:href="#C0_0_144231fa16" y="227.539371"/>
    </g>
    <g clip-path="url(#pbab447b221)">
     <use style="fill-opacity:0.7;stroke:#000000;stroke-opacity:0.7;" x="156.456205" xlink:href="#C0_0_144231fa16" y="227.526802"/>
    </g>
    <g clip-path="url(#pbab447b221)">
     <use style="fill-opacity:0.7;stroke:#000000;stroke-opacity:0.7;" x="340.563244" xlink:href="#C0_0_144231fa16" y="181.163766"/>
    </g>
    <g clip-path="url(#pbab447b221)">
     <use style="fill-opacity:0.7;stroke:#000000;stroke-opacity:0.7;" x="263.089473" xlink:href="#C0_0_144231fa16" y="211.68161"/>
    </g>
    <g clip-path="url(#pbab447b221)">
     <use style="fill-opacity:0.7;stroke:#000000;stroke-opacity:0.7;" x="202.558168" xlink:href="#C0_0_144231fa16" y="216.532764"/>
    </g>
    <g clip-path="url(#pbab447b221)">
     <use style="fill-opacity:0.7;stroke:#000000;stroke-opacity:0.7;" x="160.038031" xlink:href="#C0_0_144231fa16" y="211.462348"/>
    </g>
    <g clip-path="url(#pbab447b221)">
     <use style="fill-opacity:0.7;stroke:#000000;stroke-opacity:0.7;" x="160.038031" xlink:href="#C0_0_144231fa16" y="211.462348"/>
    </g>
    <g clip-path="url(#pbab447b221)">
     <use style="fill-opacity:0.7;stroke:#000000;stroke-opacity:0.7;" x="159.97295" xlink:href="#C0_0_144231fa16" y="211.441263"/>
    </g>
    <g clip-path="url(#pbab447b221)">
     <use style="fill-opacity:0.7;stroke:#000000;stroke-opacity:0.7;" x="160.038031" xlink:href="#C0_0_144231fa16" y="211.462348"/>
    </g>
    <g clip-path="url(#pbab447b221)">
     <use style="fill-opacity:0.7;stroke:#000000;stroke-opacity:0.7;" x="340.563244" xlink:href="#C0_0_144231fa16" y="181.163766"/>
    </g>
    <g clip-path="url(#pbab447b221)">
     <use style="fill-opacity:0.7;stroke:#000000;stroke-opacity:0.7;" x="266.871434" xlink:href="#C0_0_144231fa16" y="203.970656"/>
    </g>
    <g clip-path="url(#pbab447b221)">
     <use style="fill-opacity:0.7;stroke:#000000;stroke-opacity:0.7;" x="206.676329" xlink:href="#C0_0_144231fa16" y="194.355861"/>
    </g>
    <g clip-path="url(#pbab447b221)">
     <use style="fill-opacity:0.7;stroke:#000000;stroke-opacity:0.7;" x="163.600198" xlink:href="#C0_0_144231fa16" y="195.290754"/>
    </g>
    <g clip-path="url(#pbab447b221)">
     <use style="fill-opacity:0.7;stroke:#000000;stroke-opacity:0.7;" x="163.600198" xlink:href="#C0_0_144231fa16" y="195.290754"/>
    </g>
    <g clip-path="url(#pbab447b221)">
     <use style="fill-opacity:0.7;stroke:#000000;stroke-opacity:0.7;" x="163.01853" xlink:href="#C0_0_144231fa16" y="194.825442"/>
    </g>
    <g clip-path="url(#pbab447b221)">
     <use style="fill-opacity:0.7;stroke:#000000;stroke-opacity:0.7;" x="163.462884" xlink:href="#C0_0_144231fa16" y="195.226148"/>
    </g>
    <g clip-path="url(#pbab447b221)">
     <use style="fill-opacity:0.7;stroke:#000000;stroke-opacity:0.7;" x="340.563244" xlink:href="#C0_0_144231fa16" y="181.163766"/>
    </g>
    <g clip-path="url(#pbab447b221)">
     <use style="fill-opacity:0.7;stroke:#000000;stroke-opacity:0.7;" x="275.015401" xlink:href="#C0_0_144231fa16" y="185.833735"/>
    </g>
    <g clip-path="url(#pbab447b221)">
     <use style="fill-opacity:0.7;stroke:#000000;stroke-opacity:0.7;" x="209.286688" xlink:href="#C0_0_144231fa16" y="184.912125"/>
    </g>
    <g clip-path="url(#pbab447b221)">
     <use style="fill-opacity:0.7;stroke:#000000;stroke-opacity:0.7;" x="168.155972" xlink:href="#C0_0_144231fa16" y="179.27123"/>
    </g>
    <g clip-path="url(#pbab447b221)">
     <use style="fill-opacity:0.7;stroke:#000000;stroke-opacity:0.7;" x="167.181607" xlink:href="#C0_0_144231fa16" y="179.041589"/>
    </g>
    <g clip-path="url(#pbab447b221)">
     <use style="fill-opacity:0.7;stroke:#000000;stroke-opacity:0.7;" x="167.181607" xlink:href="#C0_0_144231fa16" y="179.041589"/>
    </g>
    <g clip-path="url(#pbab447b221)">
     <use style="fill-opacity:0.7;stroke:#000000;stroke-opacity:0.7;" x="168.054562" xlink:href="#C0_0_144231fa16" y="178.804044"/>
    </g>
    <g clip-path="url(#pbab447b221)">
     <use style="fill-opacity:0.7;stroke:#000000;stroke-opacity:0.7;" x="350.788315" xlink:href="#C0_0_144231fa16" y="174.231872"/>
    </g>
    <g clip-path="url(#pbab447b221)">
     <use style="fill-opacity:0.7;stroke:#000000;stroke-opacity:0.7;" x="279.026791" xlink:href="#C0_0_144231fa16" y="171.369394"/>
    </g>
    <g clip-path="url(#pbab447b221)">
     <use style="fill-opacity:0.7;stroke:#000000;stroke-opacity:0.7;" x="214.159486" xlink:href="#C0_0_144231fa16" y="168.746428"/>
    </g>
    <g clip-path="url(#pbab447b221)">
     <use style="fill-opacity:0.7;stroke:#000000;stroke-opacity:0.7;" x="174.581673" xlink:href="#C0_0_144231fa16" y="163.02194"/>
    </g>
    <g clip-path="url(#pbab447b221)">
     <use style="fill-opacity:0.7;stroke:#000000;stroke-opacity:0.7;" x="170.782208" xlink:href="#C0_0_144231fa16" y="162.705348"/>
    </g>
    <g clip-path="url(#pbab447b221)">
     <use style="fill-opacity:0.7;stroke:#000000;stroke-opacity:0.7;" x="170.782208" xlink:href="#C0_0_144231fa16" y="162.705348"/>
    </g>
    <g clip-path="url(#pbab447b221)">
     <use style="fill-opacity:0.7;stroke:#000000;stroke-opacity:0.7;" x="170.782208" xlink:href="#C0_0_144231fa16" y="162.705348"/>
    </g>
    <g clip-path="url(#pbab447b221)">
     <use style="fill-opacity:0.7;stroke:#000000;stroke-opacity:0.7;" x="354.328829" xlink:href="#C0_0_144231fa16" y="157.030875"/>
    </g>
    <g clip-path="url(#pbab447b221)">
     <use style="fill-opacity:0.7;stroke:#000000;stroke-opacity:0.7;" x="283.367902" xlink:href="#C0_0_144231fa16" y="155.134819"/>
    </g>
    <g clip-path="url(#pbab447b221)">
     <use style="fill-opacity:0.7;stroke:#000000;stroke-opacity:0.7;" x="222.076903" xlink:href="#C0_0_144231fa16" y="152.097234"/>
    </g>
    <g clip-path="url(#pbab447b221)">
     <use style="fill-opacity:0.7;stroke:#000000;stroke-opacity:0.7;" x="180.191214" xlink:href="#C0_0_144231fa16" y="147.009467"/>
    </g>
    <g clip-path="url(#pbab447b221)">
     <use style="fill-opacity:0.7;stroke:#000000;stroke-opacity:0.7;" x="182.499339" xlink:href="#C0_0_144231fa16" y="146.443647"/>
    </g>
    <g clip-path="url(#pbab447b221)">
     <use style="fill-opacity:0.7;stroke:#000000;stroke-opacity:0.7;" x="179.160772" xlink:href="#C0_0_144231fa16" y="146.901806"/>
    </g>
    <g clip-path="url(#pbab447b221)">
     <use style="fill-opacity:0.7;stroke:#000000;stroke-opacity:0.7;" x="179.160772" xlink:href="#C0_0_144231fa16" y="146.901806"/>
    </g>
    <g clip-path="url(#pbab447b221)">
     <use style="fill-opacity:0.7;stroke:#000000;stroke-opacity:0.7;" x="297.107789" xlink:href="#C0_0_144231fa16" y="137.61394"/>
    </g>
    <g clip-path="url(#pbab447b221)">
     <use style="fill-opacity:0.7;stroke:#000000;stroke-opacity:0.7;" x="234.174833" xlink:href="#C0_0_144231fa16" y="134.847643"/>
    </g>
    <g clip-path="url(#pbab447b221)">
     <use style="fill-opacity:0.7;stroke:#000000;stroke-opacity:0.7;" x="191.599198" xlink:href="#C0_0_144231fa16" y="130.226585"/>
    </g>
    <g clip-path="url(#pbab447b221)">
     <use style="fill-opacity:0.7;stroke:#000000;stroke-opacity:0.7;" x="191.599198" xlink:href="#C0_0_144231fa16" y="130.226585"/>
    </g>
    <g clip-path="url(#pbab447b221)">
     <use style="fill-opacity:0.7;stroke:#000000;stroke-opacity:0.7;" x="191.599198" xlink:href="#C0_0_144231fa16" y="130.226585"/>
    </g>
    <g clip-path="url(#pbab447b221)">
     <use style="fill-opacity:0.7;stroke:#000000;stroke-opacity:0.7;" x="191.599198" xlink:href="#C0_0_144231fa16" y="130.226585"/>
    </g>
    <g clip-path="url(#pbab447b221)">
     <use style="fill-opacity:0.7;stroke:#000000;stroke-opacity:0.7;" x="281.834756" xlink:href="#C0_0_144231fa16" y="81.255029"/>
    </g>
   </g>
   <g id="Poly3DCollection_2">
    <path clip-path="url(#pbab447b221)" d="M 312.843828 229.20147 
L 329.838485 226.727732 
L 330.168319 213.718597 
L 313.111615 216.150841 
z
" style="fill:#e10000;fill-opacity:0.5;"/>
    <path clip-path="url(#pbab447b221)" d="M 313.111615 216.150841 
L 330.168319 213.718597 
L 330.500611 200.612517 
L 313.381405 203.00258 
z
" style="fill:#e10000;fill-opacity:0.5;"/>
    <path clip-path="url(#pbab447b221)" d="M 295.716654 231.694496 
L 312.843828 229.20147 
L 313.111615 216.150841 
L 295.921412 218.602123 
z
" style="fill:#e10000;fill-opacity:0.5;"/>
    <path clip-path="url(#pbab447b221)" d="M 313.381405 203.00258 
L 330.500611 200.612517 
L 330.835388 187.408406 
L 313.653221 189.755585 
z
" style="fill:#e10000;fill-opacity:0.5;"/>
    <path clip-path="url(#pbab447b221)" d="M 295.921412 218.602123 
L 313.111615 216.150841 
L 313.381405 203.00258 
L 296.127709 205.411419 
z
" style="fill:#e10000;fill-opacity:0.5;"/>
    <path clip-path="url(#pbab447b221)" d="M 278.455407 234.207038 
L 295.716654 231.694496 
L 295.921412 218.602123 
L 278.596139 221.072665 
z
" style="fill:#e10000;fill-opacity:0.5;"/>
    <path clip-path="url(#pbab447b221)" d="M 313.653221 189.755585 
L 330.835388 187.408406 
L 331.172679 174.10516 
L 313.927086 176.408741 
z
" style="fill:#e10000;fill-opacity:0.5;"/>
    <path clip-path="url(#pbab447b221)" d="M 296.127709 205.411419 
L 313.381405 203.00258 
L 313.653221 189.755585 
L 296.335561 192.121274 
z
" style="fill:#e10000;fill-opacity:0.5;"/>
    <path clip-path="url(#pbab447b221)" d="M 278.596139 221.072665 
L 295.921412 218.602123 
L 296.127709 205.411419 
L 278.737931 207.839258 
z
" style="fill:#e10000;fill-opacity:0.5;"/>
    <path clip-path="url(#pbab447b221)" d="M 261.058507 236.739325 
L 278.455407 234.207038 
L 278.596139 221.072665 
L 261.134195 223.562696 
z
" style="fill:#e10000;fill-opacity:0.5;"/>
    <path clip-path="url(#pbab447b221)" d="M 313.927086 176.408741 
L 331.172679 174.10516 
L 331.512511 160.701658 
L 314.203023 162.960915 
z
" style="fill:#e10000;fill-opacity:0.5;"/>
    <path clip-path="url(#pbab447b221)" d="M 296.335561 192.121274 
L 313.653221 189.755585 
L 313.927086 176.408741 
L 296.544985 178.730557 
z
" style="fill:#e10000;fill-opacity:0.5;"/>
    <path clip-path="url(#pbab447b221)" d="M 278.737931 207.839258 
L 296.127709 205.411419 
L 296.335561 192.121274 
L 278.880797 194.505691 
z
" style="fill:#e10000;fill-opacity:0.5;"/>
    <path clip-path="url(#pbab447b221)" d="M 261.134195 223.562696 
L 278.596139 221.072665 
L 278.737931 207.839258 
L 261.210456 210.28632 
z
" style="fill:#e10000;fill-opacity:0.5;"/>
    <path clip-path="url(#pbab447b221)" d="M 243.524349 239.291592 
L 261.058507 236.739325 
L 261.134195 223.562696 
L 243.533958 226.072448 
z
" style="fill:#e10000;fill-opacity:0.5;"/>
    <path clip-path="url(#pbab447b221)" d="M 314.203023 162.960915 
L 331.512511 160.701658 
L 331.854914 147.196763 
L 314.481056 149.410956 
z
" style="fill:#e10000;fill-opacity:0.5;"/>
    <path clip-path="url(#pbab447b221)" d="M 296.544985 178.730557 
L 313.927086 176.408741 
L 314.203023 162.960915 
L 296.756001 165.238123 
z
" style="fill:#e10000;fill-opacity:0.5;"/>
    <path clip-path="url(#pbab447b221)" d="M 278.880797 194.505691 
L 296.335561 192.121274 
L 296.544985 178.730557 
L 279.024749 181.070824 
z
" style="fill:#e10000;fill-opacity:0.5;"/>
    <path clip-path="url(#pbab447b221)" d="M 261.210456 210.28632 
L 278.737931 207.839258 
L 278.880797 194.505691 
L 261.287296 196.90906 
z
" style="fill:#e10000;fill-opacity:0.5;"/>
    <path clip-path="url(#pbab447b221)" d="M 243.533958 226.072448 
L 261.134195 223.562696 
L 261.210456 210.28632 
L 243.543641 212.752836 
z
" style="fill:#e10000;fill-opacity:0.5;"/>
    <path clip-path="url(#pbab447b221)" d="M 225.851301 241.864076 
L 243.524349 239.291592 
L 243.533958 226.072448 
L 225.793779 228.602154 
z
" style="fill:#e10000;fill-opacity:0.5;"/>
    <path clip-path="url(#pbab447b221)" d="M 314.481056 149.410956 
L 331.854914 147.196763 
L 332.199918 133.589319 
L 314.761208 135.757696 
z
" style="fill:#e10000;fill-opacity:0.5;"/>
    <path clip-path="url(#pbab447b221)" d="M 296.756001 165.238123 
L 314.203023 162.960915 
L 314.481056 149.410956 
L 296.968625 151.642809 
z
" style="fill:#e10000;fill-opacity:0.5;"/>
    <path clip-path="url(#pbab447b221)" d="M 279.024749 181.070824 
L 296.544985 178.730557 
L 296.756001 165.238123 
L 279.169798 167.533497 
z
" style="fill:#e10000;fill-opacity:0.5;"/>
    <path clip-path="url(#pbab447b221)" d="M 261.287296 196.90906 
L 278.880797 194.505691 
L 279.024749 181.070824 
L 261.364723 183.429763 
z
" style="fill:#e10000;fill-opacity:0.5;"/>
    <path clip-path="url(#pbab447b221)" d="M 243.543641 212.752836 
L 261.210456 210.28632 
L 261.287296 196.90906 
L 243.553397 199.331609 
z
" style="fill:#e10000;fill-opacity:0.5;"/>
    <path clip-path="url(#pbab447b221)" d="M 225.793779 228.602154 
L 243.533958 226.072448 
L 243.543641 212.752836 
L 225.735817 215.239039 
z
" style="fill:#e10000;fill-opacity:0.5;"/>
    <path clip-path="url(#pbab447b221)" d="M 208.037706 244.457017 
L 225.851301 241.864076 
L 225.793779 228.602154 
L 207.91198 231.152056 
z
" style="fill:#e10000;fill-opacity:0.5;"/>
    <path clip-path="url(#pbab447b221)" d="M 314.761208 135.757696 
L 332.199918 133.589319 
L 332.547551 119.878154 
L 315.043505 121.999949 
z
" style="fill:#e10000;fill-opacity:0.5;"/>
    <path clip-path="url(#pbab447b221)" d="M 296.968625 151.642809 
L 314.481056 149.410956 
L 314.761208 135.757696 
L 297.182877 137.943433 
z
" style="fill:#e10000;fill-opacity:0.5;"/>
    <path clip-path="url(#pbab447b221)" d="M 279.169798 167.533497 
L 296.756001 165.238123 
L 296.968625 151.642809 
L 279.315957 153.892535 
z
" style="fill:#e10000;fill-opacity:0.5;"/>
    <path clip-path="url(#pbab447b221)" d="M 261.364723 183.429763 
L 279.024749 181.070824 
L 279.169798 167.533497 
L 261.442742 169.847255 
z
" style="fill:#e10000;fill-opacity:0.5;"/>
    <path clip-path="url(#pbab447b221)" d="M 243.553397 199.331609 
L 261.287296 196.90906 
L 261.364723 183.429763 
L 243.563228 185.807599 
z
" style="fill:#e10000;fill-opacity:0.5;"/>
    <path clip-path="url(#pbab447b221)" d="M 225.735817 215.239039 
L 243.543641 212.752836 
L 243.553397 199.331609 
L 225.677412 201.773568 
z
" style="fill:#e10000;fill-opacity:0.5;"/>
    <path clip-path="url(#pbab447b221)" d="M 207.91198 231.152056 
L 225.793779 228.602154 
L 225.735817 215.239039 
L 207.785291 217.745165 
z
" style="fill:#e10000;fill-opacity:0.5;"/>
    <path clip-path="url(#pbab447b221)" d="M 190.081883 247.070662 
L 208.037706 244.457017 
L 207.91198 231.152056 
L 189.886861 233.722394 
z
" style="fill:#e10000;fill-opacity:0.5;"/>
    <path clip-path="url(#pbab447b221)" d="M 315.043505 121.999949 
L 332.547551 119.878154 
L 332.897844 106.062078 
L 315.32797 108.136511 
z
" style="fill:#e10000;fill-opacity:0.5;"/>
    <path clip-path="url(#pbab447b221)" d="M 297.182877 137.943433 
L 314.761208 135.757696 
L 315.043505 121.999949 
L 297.398775 124.138797 
z
" style="fill:#e10000;fill-opacity:0.5;"/>
    <path clip-path="url(#pbab447b221)" d="M 279.315957 153.892535 
L 296.968625 151.642809 
L 297.182877 137.943433 
L 279.46324 140.146741 
z
" style="fill:#e10000;fill-opacity:0.5;"/>
    <path clip-path="url(#pbab447b221)" d="M 261.442742 169.847255 
L 279.169798 167.533497 
L 279.315957 153.892535 
L 261.521361 156.160348 
z
" style="fill:#e10000;fill-opacity:0.5;"/>
    <path clip-path="url(#pbab447b221)" d="M 243.563228 185.807599 
L 261.364723 183.429763 
L 261.442742 169.847255 
L 243.573135 172.17962 
z
" style="fill:#e10000;fill-opacity:0.5;"/>
    <path clip-path="url(#pbab447b221)" d="M 225.677412 201.773568 
L 243.553397 199.331609 
L 243.563228 185.807599 
L 225.618558 188.204559 
z
" style="fill:#e10000;fill-opacity:0.5;"/>
    <path clip-path="url(#pbab447b221)" d="M 207.785291 217.745165 
L 225.735817 215.239039 
L 225.677412 201.773568 
L 207.657628 204.23517 
z
" style="fill:#e10000;fill-opacity:0.5;"/>
    <path clip-path="url(#pbab447b221)" d="M 189.886861 233.722394 
L 207.91198 231.152056 
L 207.785291 217.745165 
L 189.69034 220.271455 
z
" style="fill:#e10000;fill-opacity:0.5;"/>
    <path clip-path="url(#pbab447b221)" d="M 171.982119 249.705258 
L 190.081883 247.070662 
L 189.886861 233.722394 
L 171.716691 236.313417 
z
" style="fill:#e10000;fill-opacity:0.5;"/>
    <path clip-path="url(#pbab447b221)" d="M 297.398775 124.138797 
L 315.043505 121.999949 
L 315.32797 108.136511 
L 297.616339 110.227682 
z
" style="fill:#e10000;fill-opacity:0.5;"/>
    <path clip-path="url(#pbab447b221)" d="M 279.46324 140.146741 
L 297.182877 137.943433 
L 297.398775 124.138797 
L 279.611659 126.294905 
z
" style="fill:#e10000;fill-opacity:0.5;"/>
    <path clip-path="url(#pbab447b221)" d="M 261.521361 156.160348 
L 279.315957 153.892535 
L 279.46324 140.146741 
L 261.600587 142.367832 
z
" style="fill:#e10000;fill-opacity:0.5;"/>
    <path clip-path="url(#pbab447b221)" d="M 243.573135 172.17962 
L 261.442742 169.847255 
L 261.521361 156.160348 
L 243.583118 158.446468 
z
" style="fill:#e10000;fill-opacity:0.5;"/>
    <path clip-path="url(#pbab447b221)" d="M 225.618558 188.204559 
L 243.563228 185.807599 
L 243.573135 172.17962 
L 225.55925 174.530815 
z
" style="fill:#e10000;fill-opacity:0.5;"/>
    <path clip-path="url(#pbab447b221)" d="M 207.657628 204.23517 
L 225.677412 201.773568 
L 225.618558 188.204559 
L 207.528978 190.620876 
z
" style="fill:#e10000;fill-opacity:0.5;"/>
    <path clip-path="url(#pbab447b221)" d="M 189.69034 220.271455 
L 207.785291 217.745165 
L 207.657628 204.23517 
L 189.492301 206.716654 
z
" style="fill:#e10000;fill-opacity:0.5;"/>
    <path clip-path="url(#pbab447b221)" d="M 171.716691 236.313417 
L 189.886861 233.722394 
L 189.69034 220.271455 
L 171.449213 222.818152 
z
" style="fill:#e10000;fill-opacity:0.5;"/>
    <path clip-path="url(#pbab447b221)" d="M 279.611659 126.294905 
L 297.398775 124.138797 
L 297.616339 110.227682 
L 279.761228 112.335792 
z
" style="fill:#e10000;fill-opacity:0.5;"/>
    <path clip-path="url(#pbab447b221)" d="M 261.600587 142.367832 
L 279.46324 140.146741 
L 279.611659 126.294905 
L 261.680426 128.468482 
z
" style="fill:#e10000;fill-opacity:0.5;"/>
    <path clip-path="url(#pbab447b221)" d="M 243.583118 158.446468 
L 261.521361 156.160348 
L 261.600587 142.367832 
L 243.593179 144.606923 
z
" style="fill:#e10000;fill-opacity:0.5;"/>
    <path clip-path="url(#pbab447b221)" d="M 225.55925 174.530815 
L 243.573135 172.17962 
L 243.583118 158.446468 
L 225.499482 160.751118 
z
" style="fill:#e10000;fill-opacity:0.5;"/>
    <path clip-path="url(#pbab447b221)" d="M 207.528978 190.620876 
L 225.618558 188.204559 
L 225.55925 174.530815 
L 207.399332 176.901071 
z
" style="fill:#e10000;fill-opacity:0.5;"/>
    <path clip-path="url(#pbab447b221)" d="M 189.492301 206.716654 
L 207.657628 204.23517 
L 207.528978 190.620876 
L 189.292726 193.056785 
z
" style="fill:#e10000;fill-opacity:0.5;"/>
    <path clip-path="url(#pbab447b221)" d="M 171.449213 222.818152 
L 189.69034 220.271455 
L 189.492301 206.716654 
L 171.179661 209.218262 
z
" style="fill:#e10000;fill-opacity:0.5;"/>
    <path clip-path="url(#pbab447b221)" d="M 261.680426 128.468482 
L 279.611659 126.294905 
L 279.761228 112.335792 
L 261.760886 114.46105 
z
" style="fill:#e10000;fill-opacity:0.5;"/>
    <path clip-path="url(#pbab447b221)" d="M 243.593179 144.606923 
L 261.600587 142.367832 
L 261.680426 128.468482 
L 243.603317 130.659742 
z
" style="fill:#e10000;fill-opacity:0.5;"/>
    <path clip-path="url(#pbab447b221)" d="M 225.499482 160.751118 
L 243.583118 158.446468 
L 243.593179 144.606923 
L 225.439249 146.864232 
z
" style="fill:#e10000;fill-opacity:0.5;"/>
    <path clip-path="url(#pbab447b221)" d="M 207.399332 176.901071 
L 225.55925 174.530815 
L 225.499482 160.751118 
L 207.268677 163.074524 
z
" style="fill:#e10000;fill-opacity:0.5;"/>
    <path clip-path="url(#pbab447b221)" d="M 189.292726 193.056785 
L 207.528978 190.620876 
L 207.399332 176.901071 
L 189.091599 179.29062 
z
" style="fill:#e10000;fill-opacity:0.5;"/>
    <path clip-path="url(#pbab447b221)" d="M 171.179661 209.218262 
L 189.492301 206.716654 
L 189.292726 193.056785 
L 170.908011 195.512525 
z
" style="fill:#e10000;fill-opacity:0.5;"/>
    <path clip-path="url(#pbab447b221)" d="M 243.603317 130.659742 
L 261.680426 128.468482 
L 261.760886 114.46105 
L 243.613535 116.603664 
z
" style="fill:#e10000;fill-opacity:0.5;"/>
    <path clip-path="url(#pbab447b221)" d="M 225.439249 146.864232 
L 243.593179 144.606923 
L 243.603317 130.659742 
L 225.378546 132.868901 
z
" style="fill:#e10000;fill-opacity:0.5;"/>
    <path clip-path="url(#pbab447b221)" d="M 207.268677 163.074524 
L 225.499482 160.751118 
L 225.439249 146.864232 
L 207.137002 149.139983 
z
" style="fill:#e10000;fill-opacity:0.5;"/>
    <path clip-path="url(#pbab447b221)" d="M 189.091599 179.29062 
L 207.399332 176.901071 
L 207.268677 163.074524 
L 188.888901 165.416915 
z
" style="fill:#e10000;fill-opacity:0.5;"/>
    <path clip-path="url(#pbab447b221)" d="M 170.908011 195.512525 
L 189.292726 193.056785 
L 189.091599 179.29062 
L 170.634239 181.699699 
z
" style="fill:#e10000;fill-opacity:0.5;"/>
    <path clip-path="url(#pbab447b221)" d="M 225.378546 132.868901 
L 243.603317 130.659742 
L 243.613535 116.603664 
L 225.317366 118.76385 
z
" style="fill:#e10000;fill-opacity:0.5;"/>
    <path clip-path="url(#pbab447b221)" d="M 207.137002 149.139983 
L 225.439249 146.864232 
L 225.378546 132.868901 
L 207.004294 135.09618 
z
" style="fill:#e10000;fill-opacity:0.5;"/>
    <path clip-path="url(#pbab447b221)" d="M 188.888901 165.416915 
L 207.268677 163.074524 
L 207.137002 149.139983 
L 188.684613 151.434404 
z
" style="fill:#e10000;fill-opacity:0.5;"/>
    <path clip-path="url(#pbab447b221)" d="M 170.634239 181.699699 
L 189.091599 179.29062 
L 188.888901 165.416915 
L 170.358319 167.778525 
z
" style="fill:#e10000;fill-opacity:0.5;"/>
    <path clip-path="url(#pbab447b221)" d="M 207.004294 135.09618 
L 225.378546 132.868901 
L 225.317366 118.76385 
L 206.870542 120.941822 
z
" style="fill:#e10000;fill-opacity:0.5;"/>
    <path clip-path="url(#pbab447b221)" d="M 188.684613 151.434404 
L 207.137002 149.139983 
L 207.004294 135.09618 
L 188.478716 137.341802 
z
" style="fill:#e10000;fill-opacity:0.5;"/>
    <path clip-path="url(#pbab447b221)" d="M 170.358319 167.778525 
L 188.888901 165.416915 
L 188.684613 151.434404 
L 170.080226 153.747724 
z
" style="fill:#e10000;fill-opacity:0.5;"/>
    <path clip-path="url(#pbab447b221)" d="M 188.478716 137.341802 
L 207.004294 135.09618 
L 206.870542 120.941822 
L 188.271192 123.137803 
z
" style="fill:#e10000;fill-opacity:0.5;"/>
    <path clip-path="url(#pbab447b221)" d="M 170.080226 153.747724 
L 188.684613 151.434404 
L 188.478716 137.341802 
L 169.799935 139.605995 
z
" style="fill:#e10000;fill-opacity:0.5;"/>
    <path clip-path="url(#pbab447b221)" d="M 169.799935 139.605995 
L 188.478716 137.341802 
L 188.271192 123.137803 
L 169.517419 125.352017 
z
" style="fill:#e10000;fill-opacity:0.5;"/>
   </g>
  </g>
 </g>
 <defs>
  <clipPath id="pbab447b221">
   <rect height="266.112" width="357.12" x="57.6" y="41.472"/>
  </clipPath>
 </defs>
</svg>
