<?xml version="1.0" encoding="utf-8" standalone="no"?>
<!DOCTYPE svg PUBLIC "-//W3C//DTD SVG 1.1//EN"
  "http://www.w3.org/Graphics/SVG/1.1/DTD/svg11.dtd">
<!-- Created with matplotlib (https://matplotlib.org/) -->
<svg height="345.6pt" version="1.1" viewBox="0 0 460.8 345.6" width="460.8pt" xmlns="http://www.w3.org/2000/svg" xmlns:xlink="http://www.w3.org/1999/xlink">
 <defs>
  <style type="text/css">
*{stroke-linecap:butt;stroke-linejoin:round;}
  </style>
 </defs>
 <g id="figure_1">
  <g id="patch_1">
   <path d="M 0 345.6 
L 460.8 345.6 
L 460.8 0 
L 0 0 
z
" style="fill:#ffffff;"/>
  </g>
  <g id="patch_2">
   <path d="M 57.6 307.584 
L 414.72 307.584 
L 414.72 41.472 
L 57.6 41.472 
z
" style="fill:#ffffff;"/>
  </g>
  <g id="pane3d_1">
   <g id="patch_3">
    <path d="M 364.472421 229.172596 
L 185.241543 215.00874 
L 183.811585 78.430466 
L 367.747331 88.346559 
" style="fill:#f2f2f2;opacity:0.5;stroke:#f2f2f2;stroke-linejoin:miter;"/>
   </g>
  </g>
  <g id="pane3d_2">
   <g id="patch_4">
    <path d="M 109.948207 256.303279 
L 185.241543 215.00874 
L 183.811585 78.430466 
L 106.254535 107.387668 
" style="fill:#e6e6e6;opacity:0.5;stroke:#e6e6e6;stroke-linejoin:miter;"/>
   </g>
  </g>
  <g id="pane3d_3">
   <g id="patch_5">
    <path d="M 304.305631 273.375734 
L 364.472421 229.172596 
L 185.241543 215.00874 
L 109.948207 256.303279 
" style="fill:#ececec;opacity:0.5;stroke:#ececec;stroke-linejoin:miter;"/>
   </g>
  </g>
  <g id="axis3d_1">
   <g id="line2d_1">
    <path d="M 364.472421 229.172596 
L 304.305631 273.375734 
" style="fill:none;stroke:#000000;stroke-linecap:square;stroke-width:0.8;"/>
   </g>
   <g id="text_1">
    <!-- LCC -->
    <defs>
     <path d="M 9.8125 72.90625 
L 19.671875 72.90625 
L 19.671875 8.296875 
L 55.171875 8.296875 
L 55.171875 0 
L 9.8125 0 
z
" id="DejaVuSans-76"/>
     <path d="M 64.40625 67.28125 
L 64.40625 56.890625 
Q 59.421875 61.53125 53.78125 63.8125 
Q 48.140625 66.109375 41.796875 66.109375 
Q 29.296875 66.109375 22.65625 58.46875 
Q 16.015625 50.828125 16.015625 36.375 
Q 16.015625 21.96875 22.65625 14.328125 
Q 29.296875 6.6875 41.796875 6.6875 
Q 48.140625 6.6875 53.78125 8.984375 
Q 59.421875 11.28125 64.40625 15.921875 
L 64.40625 5.609375 
Q 59.234375 2.09375 53.4375 0.328125 
Q 47.65625 -1.421875 41.21875 -1.421875 
Q 24.65625 -1.421875 15.125 8.703125 
Q 5.609375 18.84375 5.609375 36.375 
Q 5.609375 53.953125 15.125 64.078125 
Q 24.65625 74.21875 41.21875 74.21875 
Q 47.75 74.21875 53.53125 72.484375 
Q 59.328125 70.75 64.40625 67.28125 
z
" id="DejaVuSans-67"/>
    </defs>
    <g transform="translate(362.461405 283.4324)scale(0.1 -0.1)">
     <use xlink:href="#DejaVuSans-76"/>
     <use x="55.712891" xlink:href="#DejaVuSans-67"/>
     <use x="125.537109" xlink:href="#DejaVuSans-67"/>
    </g>
   </g>
   <g id="Line3DCollection_1">
    <path d="M 305.626225 272.405525 
L 111.595686 255.399721 
L 107.95565 106.752529 
" style="fill:none;stroke:#b0b0b0;stroke-width:0.8;"/>
    <path d="M 318.041686 263.284175 
L 127.095558 246.898835 
L 123.951131 100.780352 
" style="fill:none;stroke:#b0b0b0;stroke-width:0.8;"/>
    <path d="M 330.000534 254.498288 
L 142.044581 238.700062 
L 139.362742 95.026174 
" style="fill:none;stroke:#b0b0b0;stroke-width:0.8;"/>
    <path d="M 341.527503 246.029692 
L 156.471607 230.787577 
L 154.221878 89.478271 
" style="fill:none;stroke:#b0b0b0;stroke-width:0.8;"/>
    <path d="M 352.645574 237.861505 
L 170.403508 223.146642 
L 168.557723 84.125747 
" style="fill:none;stroke:#b0b0b0;stroke-width:0.8;"/>
    <path d="M 363.376125 229.978019 
L 183.865343 215.763515 
L 182.397442 78.958459 
" style="fill:none;stroke:#b0b0b0;stroke-width:0.8;"/>
   </g>
   <g id="xtick_1">
    <g id="line2d_2">
     <path d="M 304.018269 272.264595 
L 308.84493 272.687628 
" style="fill:none;stroke:#000000;stroke-linecap:square;stroke-width:0.8;"/>
    </g>
    <g id="text_2">
     <!-- 0 -->
     <defs>
      <path d="M 31.78125 66.40625 
Q 24.171875 66.40625 20.328125 58.90625 
Q 16.5 51.421875 16.5 36.375 
Q 16.5 21.390625 20.328125 13.890625 
Q 24.171875 6.390625 31.78125 6.390625 
Q 39.453125 6.390625 43.28125 13.890625 
Q 47.125 21.390625 47.125 36.375 
Q 47.125 51.421875 43.28125 58.90625 
Q 39.453125 66.40625 31.78125 66.40625 
z
M 31.78125 74.21875 
Q 44.046875 74.21875 50.515625 64.515625 
Q 56.984375 54.828125 56.984375 36.375 
Q 56.984375 17.96875 50.515625 8.265625 
Q 44.046875 -1.421875 31.78125 -1.421875 
Q 19.53125 -1.421875 13.0625 8.265625 
Q 6.59375 17.96875 6.59375 36.375 
Q 6.59375 54.828125 13.0625 64.515625 
Q 19.53125 74.21875 31.78125 74.21875 
z
" id="DejaVuSans-48"/>
     </defs>
     <g transform="translate(316.568828 291.840113)scale(0.1 -0.1)">
      <use xlink:href="#DejaVuSans-48"/>
     </g>
    </g>
   </g>
   <g id="xtick_2">
    <g id="line2d_3">
     <path d="M 316.460318 263.148475 
L 321.207118 263.555805 
" style="fill:none;stroke:#000000;stroke-linecap:square;stroke-width:0.8;"/>
    </g>
    <g id="text_3">
     <!-- 2 -->
     <defs>
      <path d="M 19.1875 8.296875 
L 53.609375 8.296875 
L 53.609375 0 
L 7.328125 0 
L 7.328125 8.296875 
Q 12.9375 14.109375 22.625 23.890625 
Q 32.328125 33.6875 34.8125 36.53125 
Q 39.546875 41.84375 41.421875 45.53125 
Q 43.3125 49.21875 43.3125 52.78125 
Q 43.3125 58.59375 39.234375 62.25 
Q 35.15625 65.921875 28.609375 65.921875 
Q 23.96875 65.921875 18.8125 64.3125 
Q 13.671875 62.703125 7.8125 59.421875 
L 7.8125 69.390625 
Q 13.765625 71.78125 18.9375 73 
Q 24.125 74.21875 28.421875 74.21875 
Q 39.75 74.21875 46.484375 68.546875 
Q 53.21875 62.890625 53.21875 53.421875 
Q 53.21875 48.921875 51.53125 44.890625 
Q 49.859375 40.875 45.40625 35.40625 
Q 44.1875 33.984375 37.640625 27.21875 
Q 31.109375 20.453125 19.1875 8.296875 
z
" id="DejaVuSans-50"/>
     </defs>
     <g transform="translate(328.726327 282.491937)scale(0.1 -0.1)">
      <use xlink:href="#DejaVuSans-50"/>
     </g>
    </g>
   </g>
   <g id="xtick_3">
    <g id="line2d_4">
     <path d="M 328.444903 254.367533 
L 333.114398 254.760017 
" style="fill:none;stroke:#000000;stroke-linecap:square;stroke-width:0.8;"/>
    </g>
    <g id="text_4">
     <!-- 4 -->
     <defs>
      <path d="M 37.796875 64.3125 
L 12.890625 25.390625 
L 37.796875 25.390625 
z
M 35.203125 72.90625 
L 47.609375 72.90625 
L 47.609375 25.390625 
L 58.015625 25.390625 
L 58.015625 17.1875 
L 47.609375 17.1875 
L 47.609375 0 
L 37.796875 0 
L 37.796875 17.1875 
L 4.890625 17.1875 
L 4.890625 26.703125 
z
" id="DejaVuSans-52"/>
     </defs>
     <g transform="translate(340.43646 273.487751)scale(0.1 -0.1)">
      <use xlink:href="#DejaVuSans-52"/>
     </g>
    </g>
   </g>
   <g id="xtick_4">
    <g id="line2d_5">
     <path d="M 339.996799 245.903616 
L 344.591427 246.282052 
" style="fill:none;stroke:#000000;stroke-linecap:square;stroke-width:0.8;"/>
    </g>
    <g id="text_5">
     <!-- 6 -->
     <defs>
      <path d="M 33.015625 40.375 
Q 26.375 40.375 22.484375 35.828125 
Q 18.609375 31.296875 18.609375 23.390625 
Q 18.609375 15.53125 22.484375 10.953125 
Q 26.375 6.390625 33.015625 6.390625 
Q 39.65625 6.390625 43.53125 10.953125 
Q 47.40625 15.53125 47.40625 23.390625 
Q 47.40625 31.296875 43.53125 35.828125 
Q 39.65625 40.375 33.015625 40.375 
z
M 52.59375 71.296875 
L 52.59375 62.3125 
Q 48.875 64.0625 45.09375 64.984375 
Q 41.3125 65.921875 37.59375 65.921875 
Q 27.828125 65.921875 22.671875 59.328125 
Q 17.53125 52.734375 16.796875 39.40625 
Q 19.671875 43.65625 24.015625 45.921875 
Q 28.375 48.1875 33.59375 48.1875 
Q 44.578125 48.1875 50.953125 41.515625 
Q 57.328125 34.859375 57.328125 23.390625 
Q 57.328125 12.15625 50.6875 5.359375 
Q 44.046875 -1.421875 33.015625 -1.421875 
Q 20.359375 -1.421875 13.671875 8.265625 
Q 6.984375 17.96875 6.984375 36.375 
Q 6.984375 53.65625 15.1875 63.9375 
Q 23.390625 74.21875 37.203125 74.21875 
Q 40.921875 74.21875 44.703125 73.484375 
Q 48.484375 72.75 52.59375 71.296875 
z
" id="DejaVuSans-54"/>
     </defs>
     <g transform="translate(351.723475 264.808911)scale(0.1 -0.1)">
      <use xlink:href="#DejaVuSans-54"/>
     </g>
    </g>
   </g>
   <g id="xtick_5">
    <g id="line2d_6">
     <path d="M 351.139023 237.73986 
L 355.661109 238.104989 
" style="fill:none;stroke:#000000;stroke-linecap:square;stroke-width:0.8;"/>
    </g>
    <g id="text_6">
     <!-- 8 -->
     <defs>
      <path d="M 31.78125 34.625 
Q 24.75 34.625 20.71875 30.859375 
Q 16.703125 27.09375 16.703125 20.515625 
Q 16.703125 13.921875 20.71875 10.15625 
Q 24.75 6.390625 31.78125 6.390625 
Q 38.8125 6.390625 42.859375 10.171875 
Q 46.921875 13.96875 46.921875 20.515625 
Q 46.921875 27.09375 42.890625 30.859375 
Q 38.875 34.625 31.78125 34.625 
z
M 21.921875 38.8125 
Q 15.578125 40.375 12.03125 44.71875 
Q 8.5 49.078125 8.5 55.328125 
Q 8.5 64.0625 14.71875 69.140625 
Q 20.953125 74.21875 31.78125 74.21875 
Q 42.671875 74.21875 48.875 69.140625 
Q 55.078125 64.0625 55.078125 55.328125 
Q 55.078125 49.078125 51.53125 44.71875 
Q 48 40.375 41.703125 38.8125 
Q 48.828125 37.15625 52.796875 32.3125 
Q 56.78125 27.484375 56.78125 20.515625 
Q 56.78125 9.90625 50.3125 4.234375 
Q 43.84375 -1.421875 31.78125 -1.421875 
Q 19.734375 -1.421875 13.25 4.234375 
Q 6.78125 9.90625 6.78125 20.515625 
Q 6.78125 27.484375 10.78125 32.3125 
Q 14.796875 37.15625 21.921875 38.8125 
z
M 18.3125 54.390625 
Q 18.3125 48.734375 21.84375 45.5625 
Q 25.390625 42.390625 31.78125 42.390625 
Q 38.140625 42.390625 41.71875 45.5625 
Q 45.3125 48.734375 45.3125 54.390625 
Q 45.3125 60.0625 41.71875 63.234375 
Q 38.140625 66.40625 31.78125 66.40625 
Q 25.390625 66.40625 21.84375 63.234375 
Q 18.3125 60.0625 18.3125 54.390625 
z
" id="DejaVuSans-56"/>
     </defs>
     <g transform="translate(362.609897 256.438095)scale(0.1 -0.1)">
      <use xlink:href="#DejaVuSans-56"/>
     </g>
    </g>
   </g>
   <g id="xtick_6">
    <g id="line2d_7">
     <path d="M 361.892987 229.860577 
L 366.344754 230.213089 
" style="fill:none;stroke:#000000;stroke-linecap:square;stroke-width:0.8;"/>
    </g>
    <g id="text_7">
     <!-- 10 -->
     <defs>
      <path d="M 12.40625 8.296875 
L 28.515625 8.296875 
L 28.515625 63.921875 
L 10.984375 60.40625 
L 10.984375 69.390625 
L 28.421875 72.90625 
L 38.28125 72.90625 
L 38.28125 8.296875 
L 54.390625 8.296875 
L 54.390625 0 
L 12.40625 0 
z
" id="DejaVuSans-49"/>
     </defs>
     <g transform="translate(369.93543 248.359192)scale(0.1 -0.1)">
      <use xlink:href="#DejaVuSans-49"/>
      <use x="63.623047" xlink:href="#DejaVuSans-48"/>
     </g>
    </g>
   </g>
  </g>
  <g id="axis3d_2">
   <g id="line2d_8">
    <path d="M 109.948207 256.303279 
L 304.305631 273.375734 
" style="fill:none;stroke:#000000;stroke-linecap:square;stroke-width:0.8;"/>
   </g>
   <g id="text_8">
    <!-- GWP -->
    <defs>
     <path d="M 59.515625 10.40625 
L 59.515625 29.984375 
L 43.40625 29.984375 
L 43.40625 38.09375 
L 69.28125 38.09375 
L 69.28125 6.78125 
Q 63.578125 2.734375 56.6875 0.65625 
Q 49.8125 -1.421875 42 -1.421875 
Q 24.90625 -1.421875 15.25 8.5625 
Q 5.609375 18.5625 5.609375 36.375 
Q 5.609375 54.25 15.25 64.234375 
Q 24.90625 74.21875 42 74.21875 
Q 49.125 74.21875 55.546875 72.453125 
Q 61.96875 70.703125 67.390625 67.28125 
L 67.390625 56.78125 
Q 61.921875 61.421875 55.765625 63.765625 
Q 49.609375 66.109375 42.828125 66.109375 
Q 29.4375 66.109375 22.71875 58.640625 
Q 16.015625 51.171875 16.015625 36.375 
Q 16.015625 21.625 22.71875 14.15625 
Q 29.4375 6.6875 42.828125 6.6875 
Q 48.046875 6.6875 52.140625 7.59375 
Q 56.25 8.5 59.515625 10.40625 
z
" id="DejaVuSans-71"/>
     <path d="M 3.328125 72.90625 
L 13.28125 72.90625 
L 28.609375 11.28125 
L 43.890625 72.90625 
L 54.984375 72.90625 
L 70.3125 11.28125 
L 85.59375 72.90625 
L 95.609375 72.90625 
L 77.296875 0 
L 64.890625 0 
L 49.515625 63.28125 
L 33.984375 0 
L 21.578125 0 
z
" id="DejaVuSans-87"/>
     <path d="M 19.671875 64.796875 
L 19.671875 37.40625 
L 32.078125 37.40625 
Q 38.96875 37.40625 42.71875 40.96875 
Q 46.484375 44.53125 46.484375 51.125 
Q 46.484375 57.671875 42.71875 61.234375 
Q 38.96875 64.796875 32.078125 64.796875 
z
M 9.8125 72.90625 
L 32.078125 72.90625 
Q 44.34375 72.90625 50.609375 67.359375 
Q 56.890625 61.8125 56.890625 51.125 
Q 56.890625 40.328125 50.609375 34.8125 
Q 44.34375 29.296875 32.078125 29.296875 
L 19.671875 29.296875 
L 19.671875 0 
L 9.8125 0 
z
" id="DejaVuSans-80"/>
    </defs>
    <g transform="translate(179.301888 305.016998)scale(0.1 -0.1)">
     <use xlink:href="#DejaVuSans-71"/>
     <use x="77.490234" xlink:href="#DejaVuSans-87"/>
     <use x="176.367188" xlink:href="#DejaVuSans-80"/>
    </g>
   </g>
   <g id="Line3DCollection_2">
    <path d="M 363.946659 88.141662 
L 360.772034 228.88017 
L 300.280444 273.022159 
" style="fill:none;stroke:#b0b0b0;stroke-width:0.8;"/>
    <path d="M 341.25019 86.918081 
L 338.671743 227.133678 
L 276.251311 270.911428 
" style="fill:none;stroke:#b0b0b0;stroke-width:0.8;"/>
    <path d="M 318.736507 85.704354 
L 316.744879 225.400891 
L 252.429351 268.818895 
" style="fill:none;stroke:#b0b0b0;stroke-width:0.8;"/>
    <path d="M 296.40341 84.500363 
L 294.989406 223.681648 
L 228.811895 266.744326 
" style="fill:none;stroke:#b0b0b0;stroke-width:0.8;"/>
    <path d="M 274.248737 83.30599 
L 273.403324 221.975792 
L 205.396322 264.68749 
" style="fill:none;stroke:#b0b0b0;stroke-width:0.8;"/>
    <path d="M 252.270356 82.121122 
L 251.984662 220.283166 
L 182.180055 262.648161 
" style="fill:none;stroke:#b0b0b0;stroke-width:0.8;"/>
    <path d="M 230.466173 80.945644 
L 230.731479 218.603617 
L 159.160559 260.626117 
" style="fill:none;stroke:#b0b0b0;stroke-width:0.8;"/>
    <path d="M 208.834124 79.779447 
L 209.641866 216.936994 
L 136.335342 258.621139 
" style="fill:none;stroke:#b0b0b0;stroke-width:0.8;"/>
    <path d="M 187.372179 78.62242 
L 188.713941 215.283149 
L 113.701957 256.633011 
" style="fill:none;stroke:#b0b0b0;stroke-width:0.8;"/>
   </g>
   <g id="xtick_7">
    <g id="line2d_9">
     <path d="M 300.812133 272.634175 
L 299.214522 273.799985 
" style="fill:none;stroke:#000000;stroke-linecap:square;stroke-width:0.8;"/>
    </g>
    <g id="text_9">
     <!-- 0 -->
     <g transform="translate(292.242483 294.724013)scale(0.1 -0.1)">
      <use xlink:href="#DejaVuSans-48"/>
     </g>
    </g>
   </g>
   <g id="xtick_8">
    <g id="line2d_10">
     <path d="M 276.79974 270.526795 
L 275.151839 271.682528 
" style="fill:none;stroke:#000000;stroke-linecap:square;stroke-width:0.8;"/>
    </g>
    <g id="text_10">
     <!-- 2 -->
     <g transform="translate(268.113224 292.541261)scale(0.1 -0.1)">
      <use xlink:href="#DejaVuSans-50"/>
     </g>
    </g>
   </g>
   <g id="xtick_9">
    <g id="line2d_11">
     <path d="M 252.994212 268.437569 
L 251.296947 269.583356 
" style="fill:none;stroke:#000000;stroke-linecap:square;stroke-width:0.8;"/>
    </g>
    <g id="text_11">
     <!-- 4 -->
     <g transform="translate(244.193047 290.377423)scale(0.1 -0.1)">
      <use xlink:href="#DejaVuSans-52"/>
     </g>
    </g>
   </g>
   <g id="xtick_10">
    <g id="line2d_12">
     <path d="M 229.392888 266.366265 
L 227.647165 267.502233 
" style="fill:none;stroke:#000000;stroke-linecap:square;stroke-width:0.8;"/>
    </g>
    <g id="text_12">
     <!-- 6 -->
     <g transform="translate(220.479244 288.232254)scale(0.1 -0.1)">
      <use xlink:href="#DejaVuSans-54"/>
     </g>
    </g>
   </g>
   <g id="xtick_11">
    <g id="line2d_13">
     <path d="M 205.993151 264.312653 
L 204.199859 265.438927 
" style="fill:none;stroke:#000000;stroke-linecap:square;stroke-width:0.8;"/>
    </g>
    <g id="text_13">
     <!-- 8 -->
     <g transform="translate(196.969158 286.105513)scale(0.1 -0.1)">
      <use xlink:href="#DejaVuSans-56"/>
     </g>
    </g>
   </g>
   <g id="xtick_12">
    <g id="line2d_14">
     <path d="M 182.792428 262.276507 
L 180.952439 263.393211 
" style="fill:none;stroke:#000000;stroke-linecap:square;stroke-width:0.8;"/>
    </g>
    <g id="text_14">
     <!-- 10 -->
     <g transform="translate(170.478924 283.996963)scale(0.1 -0.1)">
      <use xlink:href="#DejaVuSans-49"/>
      <use x="63.623047" xlink:href="#DejaVuSans-48"/>
     </g>
    </g>
   </g>
   <g id="xtick_13">
    <g id="line2d_15">
     <path d="M 159.788193 260.257605 
L 157.902362 261.364861 
" style="fill:none;stroke:#000000;stroke-linecap:square;stroke-width:0.8;"/>
    </g>
    <g id="text_15">
     <!-- 12 -->
     <g transform="translate(147.368473 281.906374)scale(0.1 -0.1)">
      <use xlink:href="#DejaVuSans-49"/>
      <use x="63.623047" xlink:href="#DejaVuSans-50"/>
     </g>
    </g>
   </g>
   <g id="xtick_14">
    <g id="line2d_16">
     <path d="M 136.977959 258.255728 
L 135.047124 259.353656 
" style="fill:none;stroke:#000000;stroke-linecap:square;stroke-width:0.8;"/>
    </g>
    <g id="text_16">
     <!-- 14 -->
     <g transform="translate(124.454029 279.833515)scale(0.1 -0.1)">
      <use xlink:href="#DejaVuSans-49"/>
      <use x="63.623047" xlink:href="#DejaVuSans-52"/>
     </g>
    </g>
   </g>
   <g id="xtick_15">
    <g id="line2d_17">
     <path d="M 114.359283 256.270664 
L 112.384265 257.35938 
" style="fill:none;stroke:#000000;stroke-linecap:square;stroke-width:0.8;"/>
    </g>
    <g id="text_17">
     <!-- 16 -->
     <g transform="translate(101.733109 277.778162)scale(0.1 -0.1)">
      <use xlink:href="#DejaVuSans-49"/>
      <use x="63.623047" xlink:href="#DejaVuSans-54"/>
     </g>
    </g>
   </g>
  </g>
  <g id="axis3d_3">
   <g id="line2d_18">
    <path d="M 109.948207 256.303279 
L 106.254535 107.387668 
" style="fill:none;stroke:#000000;stroke-linecap:square;stroke-width:0.8;"/>
   </g>
   <g id="text_18">
    <!-- Circularity -->
    <defs>
     <path d="M 9.421875 54.6875 
L 18.40625 54.6875 
L 18.40625 0 
L 9.421875 0 
z
M 9.421875 75.984375 
L 18.40625 75.984375 
L 18.40625 64.59375 
L 9.421875 64.59375 
z
" id="DejaVuSans-105"/>
     <path d="M 41.109375 46.296875 
Q 39.59375 47.171875 37.8125 47.578125 
Q 36.03125 48 33.890625 48 
Q 26.265625 48 22.1875 43.046875 
Q 18.109375 38.09375 18.109375 28.8125 
L 18.109375 0 
L 9.078125 0 
L 9.078125 54.6875 
L 18.109375 54.6875 
L 18.109375 46.1875 
Q 20.953125 51.171875 25.484375 53.578125 
Q 30.03125 56 36.53125 56 
Q 37.453125 56 38.578125 55.875 
Q 39.703125 55.765625 41.0625 55.515625 
z
" id="DejaVuSans-114"/>
     <path d="M 48.78125 52.59375 
L 48.78125 44.1875 
Q 44.96875 46.296875 41.140625 47.34375 
Q 37.3125 48.390625 33.40625 48.390625 
Q 24.65625 48.390625 19.8125 42.84375 
Q 14.984375 37.3125 14.984375 27.296875 
Q 14.984375 17.28125 19.8125 11.734375 
Q 24.65625 6.203125 33.40625 6.203125 
Q 37.3125 6.203125 41.140625 7.25 
Q 44.96875 8.296875 48.78125 10.40625 
L 48.78125 2.09375 
Q 45.015625 0.34375 40.984375 -0.53125 
Q 36.96875 -1.421875 32.421875 -1.421875 
Q 20.0625 -1.421875 12.78125 6.34375 
Q 5.515625 14.109375 5.515625 27.296875 
Q 5.515625 40.671875 12.859375 48.328125 
Q 20.21875 56 33.015625 56 
Q 37.15625 56 41.109375 55.140625 
Q 45.0625 54.296875 48.78125 52.59375 
z
" id="DejaVuSans-99"/>
     <path d="M 8.5 21.578125 
L 8.5 54.6875 
L 17.484375 54.6875 
L 17.484375 21.921875 
Q 17.484375 14.15625 20.5 10.265625 
Q 23.53125 6.390625 29.59375 6.390625 
Q 36.859375 6.390625 41.078125 11.03125 
Q 45.3125 15.671875 45.3125 23.6875 
L 45.3125 54.6875 
L 54.296875 54.6875 
L 54.296875 0 
L 45.3125 0 
L 45.3125 8.40625 
Q 42.046875 3.421875 37.71875 1 
Q 33.40625 -1.421875 27.6875 -1.421875 
Q 18.265625 -1.421875 13.375 4.4375 
Q 8.5 10.296875 8.5 21.578125 
z
M 31.109375 56 
z
" id="DejaVuSans-117"/>
     <path d="M 9.421875 75.984375 
L 18.40625 75.984375 
L 18.40625 0 
L 9.421875 0 
z
" id="DejaVuSans-108"/>
     <path d="M 34.28125 27.484375 
Q 23.390625 27.484375 19.1875 25 
Q 14.984375 22.515625 14.984375 16.5 
Q 14.984375 11.71875 18.140625 8.90625 
Q 21.296875 6.109375 26.703125 6.109375 
Q 34.1875 6.109375 38.703125 11.40625 
Q 43.21875 16.703125 43.21875 25.484375 
L 43.21875 27.484375 
z
M 52.203125 31.203125 
L 52.203125 0 
L 43.21875 0 
L 43.21875 8.296875 
Q 40.140625 3.328125 35.546875 0.953125 
Q 30.953125 -1.421875 24.3125 -1.421875 
Q 15.921875 -1.421875 10.953125 3.296875 
Q 6 8.015625 6 15.921875 
Q 6 25.140625 12.171875 29.828125 
Q 18.359375 34.515625 30.609375 34.515625 
L 43.21875 34.515625 
L 43.21875 35.40625 
Q 43.21875 41.609375 39.140625 45 
Q 35.0625 48.390625 27.6875 48.390625 
Q 23 48.390625 18.546875 47.265625 
Q 14.109375 46.140625 10.015625 43.890625 
L 10.015625 52.203125 
Q 14.9375 54.109375 19.578125 55.046875 
Q 24.21875 56 28.609375 56 
Q 40.484375 56 46.34375 49.84375 
Q 52.203125 43.703125 52.203125 31.203125 
z
" id="DejaVuSans-97"/>
     <path d="M 18.3125 70.21875 
L 18.3125 54.6875 
L 36.8125 54.6875 
L 36.8125 47.703125 
L 18.3125 47.703125 
L 18.3125 18.015625 
Q 18.3125 11.328125 20.140625 9.421875 
Q 21.96875 7.515625 27.59375 7.515625 
L 36.8125 7.515625 
L 36.8125 0 
L 27.59375 0 
Q 17.1875 0 13.234375 3.875 
Q 9.28125 7.765625 9.28125 18.015625 
L 9.28125 47.703125 
L 2.6875 47.703125 
L 2.6875 54.6875 
L 9.28125 54.6875 
L 9.28125 70.21875 
z
" id="DejaVuSans-116"/>
     <path d="M 32.171875 -5.078125 
Q 28.375 -14.84375 24.75 -17.8125 
Q 21.140625 -20.796875 15.09375 -20.796875 
L 7.90625 -20.796875 
L 7.90625 -13.28125 
L 13.1875 -13.28125 
Q 16.890625 -13.28125 18.9375 -11.515625 
Q 21 -9.765625 23.484375 -3.21875 
L 25.09375 0.875 
L 2.984375 54.6875 
L 12.5 54.6875 
L 29.59375 11.921875 
L 46.6875 54.6875 
L 56.203125 54.6875 
z
" id="DejaVuSans-121"/>
    </defs>
    <g transform="translate(51.781051 162.160264)rotate(-271.420861)scale(0.1 -0.1)">
     <use xlink:href="#DejaVuSans-67"/>
     <use x="69.824219" xlink:href="#DejaVuSans-105"/>
     <use x="97.607422" xlink:href="#DejaVuSans-114"/>
     <use x="136.470703" xlink:href="#DejaVuSans-99"/>
     <use x="191.451172" xlink:href="#DejaVuSans-117"/>
     <use x="254.830078" xlink:href="#DejaVuSans-108"/>
     <use x="282.613281" xlink:href="#DejaVuSans-97"/>
     <use x="343.892578" xlink:href="#DejaVuSans-114"/>
     <use x="385.005859" xlink:href="#DejaVuSans-105"/>
     <use x="412.789062" xlink:href="#DejaVuSans-116"/>
     <use x="451.998047" xlink:href="#DejaVuSans-121"/>
    </g>
   </g>
   <g id="Line3DCollection_3">
    <path d="M 109.87632 253.405029 
L 185.213645 212.34416 
L 364.53626 226.427422 
" style="fill:none;stroke:#b0b0b0;stroke-width:0.8;"/>
    <path d="M 109.491583 237.893828 
L 185.064384 198.087899 
L 364.877852 211.738427 
" style="fill:none;stroke:#b0b0b0;stroke-width:0.8;"/>
    <path d="M 109.104582 222.291325 
L 184.914321 183.755127 
L 365.221339 196.967981 
" style="fill:none;stroke:#b0b0b0;stroke-width:0.8;"/>
    <path d="M 108.715296 206.596711 
L 184.763451 169.345226 
L 365.566736 182.115407 
" style="fill:none;stroke:#b0b0b0;stroke-width:0.8;"/>
    <path d="M 108.323705 190.809169 
L 184.611767 154.857571 
L 365.914059 167.180017 
" style="fill:none;stroke:#b0b0b0;stroke-width:0.8;"/>
    <path d="M 107.929788 174.927871 
L 184.459263 140.291531 
L 366.263323 152.161116 
" style="fill:none;stroke:#b0b0b0;stroke-width:0.8;"/>
    <path d="M 107.533526 158.951978 
L 184.305931 125.646469 
L 366.614546 137.058003 
" style="fill:none;stroke:#b0b0b0;stroke-width:0.8;"/>
    <path d="M 107.134896 142.880643 
L 184.151765 110.92174 
L 366.967744 121.869966 
" style="fill:none;stroke:#b0b0b0;stroke-width:0.8;"/>
    <path d="M 106.733877 126.713009 
L 183.996758 96.116692 
L 367.322934 106.596288 
" style="fill:none;stroke:#b0b0b0;stroke-width:0.8;"/>
    <path d="M 106.330448 110.448207 
L 183.840903 81.230665 
L 367.680132 91.236242 
" style="fill:none;stroke:#b0b0b0;stroke-width:0.8;"/>
   </g>
   <g id="xtick_16">
    <g id="line2d_19">
     <path d="M 110.536488 253.045219 
L 108.55293 254.126311 
" style="fill:none;stroke:#000000;stroke-linecap:square;stroke-width:0.8;"/>
    </g>
    <g id="text_19">
     <!-- 0.0 -->
     <defs>
      <path d="M 10.6875 12.40625 
L 21 12.40625 
L 21 0 
L 10.6875 0 
z
" id="DejaVuSans-46"/>
     </defs>
     <g transform="translate(82.693062 263.040791)scale(0.1 -0.1)">
      <use xlink:href="#DejaVuSans-48"/>
      <use x="63.623047" xlink:href="#DejaVuSans-46"/>
      <use x="95.410156" xlink:href="#DejaVuSans-48"/>
     </g>
    </g>
   </g>
   <g id="xtick_17">
    <g id="line2d_20">
     <path d="M 110.153984 237.544926 
L 108.163709 238.593249 
" style="fill:none;stroke:#000000;stroke-linecap:square;stroke-width:0.8;"/>
    </g>
    <g id="text_20">
     <!-- 0.1 -->
     <g transform="translate(82.249964 247.467858)scale(0.1 -0.1)">
      <use xlink:href="#DejaVuSans-48"/>
      <use x="63.623047" xlink:href="#DejaVuSans-46"/>
      <use x="95.410156" xlink:href="#DejaVuSans-49"/>
     </g>
    </g>
   </g>
   <g id="xtick_18">
    <g id="line2d_21">
     <path d="M 109.76923 221.953466 
L 107.772194 222.968615 
" style="fill:none;stroke:#000000;stroke-linecap:square;stroke-width:0.8;"/>
    </g>
    <g id="text_21">
     <!-- 0.2 -->
     <g transform="translate(81.804246 231.802857)scale(0.1 -0.1)">
      <use xlink:href="#DejaVuSans-48"/>
      <use x="63.623047" xlink:href="#DejaVuSans-46"/>
      <use x="95.410156" xlink:href="#DejaVuSans-50"/>
     </g>
    </g>
   </g>
   <g id="xtick_19">
    <g id="line2d_22">
     <path d="M 109.382206 206.270031 
L 107.378363 207.251595 
" style="fill:none;stroke:#000000;stroke-linecap:square;stroke-width:0.8;"/>
    </g>
    <g id="text_22">
     <!-- 0.3 -->
     <defs>
      <path d="M 40.578125 39.3125 
Q 47.65625 37.796875 51.625 33 
Q 55.609375 28.21875 55.609375 21.1875 
Q 55.609375 10.40625 48.1875 4.484375 
Q 40.765625 -1.421875 27.09375 -1.421875 
Q 22.515625 -1.421875 17.65625 -0.515625 
Q 12.796875 0.390625 7.625 2.203125 
L 7.625 11.71875 
Q 11.71875 9.328125 16.59375 8.109375 
Q 21.484375 6.890625 26.8125 6.890625 
Q 36.078125 6.890625 40.9375 10.546875 
Q 45.796875 14.203125 45.796875 21.1875 
Q 45.796875 27.640625 41.28125 31.265625 
Q 36.765625 34.90625 28.71875 34.90625 
L 20.21875 34.90625 
L 20.21875 43.015625 
L 29.109375 43.015625 
Q 36.375 43.015625 40.234375 45.921875 
Q 44.09375 48.828125 44.09375 54.296875 
Q 44.09375 59.90625 40.109375 62.90625 
Q 36.140625 65.921875 28.71875 65.921875 
Q 24.65625 65.921875 20.015625 65.03125 
Q 15.375 64.15625 9.8125 62.3125 
L 9.8125 71.09375 
Q 15.4375 72.65625 20.34375 73.4375 
Q 25.25 74.21875 29.59375 74.21875 
Q 40.828125 74.21875 47.359375 69.109375 
Q 53.90625 64.015625 53.90625 55.328125 
Q 53.90625 49.265625 50.4375 45.09375 
Q 46.96875 40.921875 40.578125 39.3125 
z
" id="DejaVuSans-51"/>
     </defs>
     <g transform="translate(81.355886 216.044971)scale(0.1 -0.1)">
      <use xlink:href="#DejaVuSans-48"/>
      <use x="63.623047" xlink:href="#DejaVuSans-46"/>
      <use x="95.410156" xlink:href="#DejaVuSans-51"/>
     </g>
    </g>
   </g>
   <g id="xtick_20">
    <g id="line2d_23">
     <path d="M 108.992893 190.493807 
L 106.982197 191.44137 
" style="fill:none;stroke:#000000;stroke-linecap:square;stroke-width:0.8;"/>
    </g>
    <g id="text_23">
     <!-- 0.4 -->
     <g transform="translate(80.904859 200.19337)scale(0.1 -0.1)">
      <use xlink:href="#DejaVuSans-48"/>
      <use x="63.623047" xlink:href="#DejaVuSans-46"/>
      <use x="95.410156" xlink:href="#DejaVuSans-52"/>
     </g>
    </g>
   </g>
   <g id="xtick_21">
    <g id="line2d_24">
     <path d="M 108.601269 174.623966 
L 106.583675 175.537106 
" style="fill:none;stroke:#000000;stroke-linecap:square;stroke-width:0.8;"/>
    </g>
    <g id="text_24">
     <!-- 0.5 -->
     <defs>
      <path d="M 10.796875 72.90625 
L 49.515625 72.90625 
L 49.515625 64.59375 
L 19.828125 64.59375 
L 19.828125 46.734375 
Q 21.96875 47.46875 24.109375 47.828125 
Q 26.265625 48.1875 28.421875 48.1875 
Q 40.625 48.1875 47.75 41.5 
Q 54.890625 34.8125 54.890625 23.390625 
Q 54.890625 11.625 47.5625 5.09375 
Q 40.234375 -1.421875 26.90625 -1.421875 
Q 22.3125 -1.421875 17.546875 -0.640625 
Q 12.796875 0.140625 7.71875 1.703125 
L 7.71875 11.625 
Q 12.109375 9.234375 16.796875 8.0625 
Q 21.484375 6.890625 26.703125 6.890625 
Q 35.15625 6.890625 40.078125 11.328125 
Q 45.015625 15.765625 45.015625 23.390625 
Q 45.015625 31 40.078125 35.4375 
Q 35.15625 39.890625 26.703125 39.890625 
Q 22.75 39.890625 18.8125 39.015625 
Q 14.890625 38.140625 10.796875 36.28125 
z
" id="DejaVuSans-53"/>
     </defs>
     <g transform="translate(80.451142 184.247216)scale(0.1 -0.1)">
      <use xlink:href="#DejaVuSans-48"/>
      <use x="63.623047" xlink:href="#DejaVuSans-46"/>
      <use x="95.410156" xlink:href="#DejaVuSans-53"/>
     </g>
    </g>
   </g>
   <g id="xtick_22">
    <g id="line2d_25">
     <path d="M 108.207315 158.659674 
L 106.182775 159.537962 
" style="fill:none;stroke:#000000;stroke-linecap:square;stroke-width:0.8;"/>
    </g>
    <g id="text_25">
     <!-- 0.6 -->
     <g transform="translate(79.99471 168.205661)scale(0.1 -0.1)">
      <use xlink:href="#DejaVuSans-48"/>
      <use x="63.623047" xlink:href="#DejaVuSans-46"/>
      <use x="95.410156" xlink:href="#DejaVuSans-54"/>
     </g>
    </g>
   </g>
   <g id="xtick_23">
    <g id="line2d_26">
     <path d="M 107.811009 142.600083 
L 105.779477 143.443088 
" style="fill:none;stroke:#000000;stroke-linecap:square;stroke-width:0.8;"/>
    </g>
    <g id="text_26">
     <!-- 0.7 -->
     <defs>
      <path d="M 8.203125 72.90625 
L 55.078125 72.90625 
L 55.078125 68.703125 
L 28.609375 0 
L 18.3125 0 
L 43.21875 64.59375 
L 8.203125 64.59375 
z
" id="DejaVuSans-55"/>
     </defs>
     <g transform="translate(79.53554 152.067846)scale(0.1 -0.1)">
      <use xlink:href="#DejaVuSans-48"/>
      <use x="63.623047" xlink:href="#DejaVuSans-46"/>
      <use x="95.410156" xlink:href="#DejaVuSans-55"/>
     </g>
    </g>
   </g>
   <g id="xtick_24">
    <g id="line2d_27">
     <path d="M 107.41233 126.44434 
L 105.373758 127.25162 
" style="fill:none;stroke:#000000;stroke-linecap:square;stroke-width:0.8;"/>
    </g>
    <g id="text_27">
     <!-- 0.8 -->
     <g transform="translate(79.073606 135.832902)scale(0.1 -0.1)">
      <use xlink:href="#DejaVuSans-48"/>
      <use x="63.623047" xlink:href="#DejaVuSans-46"/>
      <use x="95.410156" xlink:href="#DejaVuSans-56"/>
     </g>
    </g>
   </g>
   <g id="xtick_25">
    <g id="line2d_28">
     <path d="M 107.011257 110.191576 
L 104.965597 110.962687 
" style="fill:none;stroke:#000000;stroke-linecap:square;stroke-width:0.8;"/>
    </g>
    <g id="text_28">
     <!-- 0.9 -->
     <defs>
      <path d="M 10.984375 1.515625 
L 10.984375 10.5 
Q 14.703125 8.734375 18.5 7.8125 
Q 22.3125 6.890625 25.984375 6.890625 
Q 35.75 6.890625 40.890625 13.453125 
Q 46.046875 20.015625 46.78125 33.40625 
Q 43.953125 29.203125 39.59375 26.953125 
Q 35.25 24.703125 29.984375 24.703125 
Q 19.046875 24.703125 12.671875 31.3125 
Q 6.296875 37.9375 6.296875 49.421875 
Q 6.296875 60.640625 12.9375 67.421875 
Q 19.578125 74.21875 30.609375 74.21875 
Q 43.265625 74.21875 49.921875 64.515625 
Q 56.59375 54.828125 56.59375 36.375 
Q 56.59375 19.140625 48.40625 8.859375 
Q 40.234375 -1.421875 26.421875 -1.421875 
Q 22.703125 -1.421875 18.890625 -0.6875 
Q 15.09375 0.046875 10.984375 1.515625 
z
M 30.609375 32.421875 
Q 37.25 32.421875 41.125 36.953125 
Q 45.015625 41.5 45.015625 49.421875 
Q 45.015625 57.28125 41.125 61.84375 
Q 37.25 66.40625 30.609375 66.40625 
Q 23.96875 66.40625 20.09375 61.84375 
Q 16.21875 57.28125 16.21875 49.421875 
Q 16.21875 41.5 20.09375 36.953125 
Q 23.96875 32.421875 30.609375 32.421875 
z
" id="DejaVuSans-57"/>
     </defs>
     <g transform="translate(78.608883 119.499949)scale(0.1 -0.1)">
      <use xlink:href="#DejaVuSans-48"/>
      <use x="63.623047" xlink:href="#DejaVuSans-46"/>
      <use x="95.410156" xlink:href="#DejaVuSans-57"/>
     </g>
    </g>
   </g>
  </g>
  <g id="axes_1">
   <g id="line2d_29">
    <path clip-path="url(#p22333f0db7)" d="M 274.095476 186.950221 
L 273.180842 163.491763 
" style="fill:none;stroke:#1f77b4;stroke-dasharray:5.55,2.4;stroke-dashoffset:0;stroke-opacity:0.7;stroke-width:1.5;"/>
   </g>
   <g id="line2d_30">
    <path clip-path="url(#p22333f0db7)" d="M 274.095476 186.950221 
L 273.180842 163.491763 
" style="fill:none;stroke:#ff7f0e;stroke-dasharray:5.55,2.4;stroke-dashoffset:0;stroke-opacity:0.7;stroke-width:1.5;"/>
   </g>
   <g id="Poly3DCollection_1">
    <path clip-path="url(#p22333f0db7)" d="M 185.179753 169.138898 
L 184.625846 169.006306 
L 163.719402 164.130992 
z
" style="fill:#d60000;"/>
    <path clip-path="url(#p22333f0db7)" d="M 184.625846 169.006306 
L 276.067922 198.284829 
L 163.719402 164.130992 
z
" style="fill:#bd0000;"/>
    <path clip-path="url(#p22333f0db7)" d="M 276.067922 198.284829 
L 184.625846 169.006306 
L 185.179753 169.138898 
z
" style="fill:#be0000;"/>
    <path clip-path="url(#p22333f0db7)" d="M 205.381933 174.016943 
L 226.612369 179.505791 
L 206.486528 174.297396 
z
" style="fill:#d50000;"/>
    <path clip-path="url(#p22333f0db7)" d="M 250.615929 186.616055 
L 205.381933 174.016943 
L 185.179753 169.138898 
z
" style="fill:#cd0000;"/>
    <path clip-path="url(#p22333f0db7)" d="M 185.179753 169.138898 
L 205.381933 174.016943 
L 276.067922 198.284829 
z
" style="fill:#be0000;"/>
    <path clip-path="url(#p22333f0db7)" d="M 228.293926 179.973459 
L 226.612369 179.505791 
L 205.381933 174.016943 
z
" style="fill:#d00000;"/>
    <path clip-path="url(#p22333f0db7)" d="M 206.486528 174.297396 
L 276.067922 198.284829 
L 205.381933 174.016943 
z
" style="fill:#be0000;"/>
    <path clip-path="url(#p22333f0db7)" d="M 250.615929 186.616055 
L 228.293926 179.973459 
L 205.381933 174.016943 
z
" style="fill:#cd0000;"/>
    <path clip-path="url(#p22333f0db7)" d="M 226.612369 179.505791 
L 276.067922 198.284829 
L 206.486528 174.297396 
z
" style="fill:#be0000;"/>
    <path clip-path="url(#p22333f0db7)" d="M 226.612369 179.505791 
L 228.293926 179.973459 
L 276.067922 198.284829 
z
" style="fill:#bf0000;"/>
    <path clip-path="url(#p22333f0db7)" d="M 248.329033 185.872429 
L 228.293926 179.973459 
L 250.615929 186.616055 
z
" style="fill:#cf0000;"/>
    <path clip-path="url(#p22333f0db7)" d="M 276.067922 198.284829 
L 228.293926 179.973459 
L 248.329033 185.872429 
z
" style="fill:#c00000;"/>
    <path clip-path="url(#p22333f0db7)" d="M 271.802829 238.043153 
L 270.738917 261.334145 
L 271.395528 262.434053 
z
" style="fill:#e80000;"/>
    <path clip-path="url(#p22333f0db7)" d="M 271.395528 262.434053 
L 273.79508 239.635748 
L 271.802829 238.043153 
z
" style="fill:#cd0000;"/>
    <path clip-path="url(#p22333f0db7)" d="M 250.615929 186.616055 
L 270.738917 261.334145 
L 262.119096 196.251189 
z
" style="fill:#de0000;"/>
    <path clip-path="url(#p22333f0db7)" d="M 271.802829 238.043153 
L 262.119096 196.251189 
L 270.738917 261.334145 
z
" style="fill:#e20000;"/>
    <path clip-path="url(#p22333f0db7)" d="M 262.119096 196.251189 
L 248.329033 185.872429 
L 250.615929 186.616055 
z
" style="fill:#b50000;"/>
    <path clip-path="url(#p22333f0db7)" d="M 276.067922 198.284829 
L 248.329033 185.872429 
L 262.119096 196.251189 
z
" style="fill:#ce0000;"/>
    <path clip-path="url(#p22333f0db7)" d="M 273.79508 239.635748 
L 276.150387 198.347032 
L 271.802829 238.043153 
z
" style="fill:#d00000;"/>
    <path clip-path="url(#p22333f0db7)" d="M 276.067922 198.284829 
L 262.119096 196.251189 
L 271.802829 238.043153 
z
" style="fill:#e30000;"/>
    <path clip-path="url(#p22333f0db7)" d="M 271.802829 238.043153 
L 276.150387 198.347032 
L 276.067922 198.284829 
z
" style="fill:#bf0000;"/>
    <path clip-path="url(#p22333f0db7)" d="M 276.157621 198.342717 
L 276.160909 198.340756 
L 276.067922 198.284829 
z
" style="fill:#c30000;"/>
    <path clip-path="url(#p22333f0db7)" d="M 276.067922 198.284829 
L 276.150387 198.347032 
L 276.157621 198.342717 
z
" style="fill:#c30000;"/>
   </g>
   <g id="text_29">
    <!-- UU*=0.2 -->
    <defs>
     <path d="M 8.6875 72.90625 
L 18.609375 72.90625 
L 18.609375 28.609375 
Q 18.609375 16.890625 22.84375 11.734375 
Q 27.09375 6.59375 36.625 6.59375 
Q 46.09375 6.59375 50.34375 11.734375 
Q 54.59375 16.890625 54.59375 28.609375 
L 54.59375 72.90625 
L 64.5 72.90625 
L 64.5 27.390625 
Q 64.5 13.140625 57.4375 5.859375 
Q 50.390625 -1.421875 36.625 -1.421875 
Q 22.796875 -1.421875 15.734375 5.859375 
Q 8.6875 13.140625 8.6875 27.390625 
z
" id="DejaVuSans-85"/>
     <path d="M 47.015625 60.890625 
L 29.5 51.421875 
L 47.015625 41.890625 
L 44.1875 37.109375 
L 27.78125 47.015625 
L 27.78125 28.609375 
L 22.21875 28.609375 
L 22.21875 47.015625 
L 5.8125 37.109375 
L 2.984375 41.890625 
L 20.515625 51.421875 
L 2.984375 60.890625 
L 5.8125 65.71875 
L 22.21875 55.8125 
L 22.21875 74.21875 
L 27.78125 74.21875 
L 27.78125 55.8125 
L 44.1875 65.71875 
z
" id="DejaVuSans-42"/>
     <path d="M 10.59375 45.40625 
L 73.1875 45.40625 
L 73.1875 37.203125 
L 10.59375 37.203125 
z
M 10.59375 25.484375 
L 73.1875 25.484375 
L 73.1875 17.1875 
L 10.59375 17.1875 
z
" id="DejaVuSans-61"/>
    </defs>
    <g transform="translate(209.807813 35.472)scale(0.12 -0.12)">
     <use xlink:href="#DejaVuSans-85"/>
     <use x="73.193359" xlink:href="#DejaVuSans-85"/>
     <use x="146.386719" xlink:href="#DejaVuSans-42"/>
     <use x="196.386719" xlink:href="#DejaVuSans-61"/>
     <use x="280.175781" xlink:href="#DejaVuSans-48"/>
     <use x="343.798828" xlink:href="#DejaVuSans-46"/>
     <use x="375.585938" xlink:href="#DejaVuSans-50"/>
    </g>
   </g>
   <g id="Path3DCollection_1">
    <defs>
     <path d="M 0 1.369306 
C 0.363144 1.369306 0.711464 1.225028 0.968246 0.968246 
C 1.225028 0.711464 1.369306 0.363144 1.369306 0 
C 1.369306 -0.363144 1.225028 -0.711464 0.968246 -0.968246 
C 0.711464 -1.225028 0.363144 -1.369306 0 -1.369306 
C -0.363144 -1.369306 -0.711464 -1.225028 -0.968246 -0.968246 
C -1.225028 -0.711464 -1.369306 -0.363144 -1.369306 0 
C -1.369306 0.363144 -1.225028 0.711464 -0.968246 0.968246 
C -0.711464 1.225028 -0.363144 1.369306 0 1.369306 
z
" id="C0_0_69209e9378"/>
    </defs>
    <g clip-path="url(#p22333f0db7)">
     <use style="fill-opacity:0.7;stroke:#000000;stroke-opacity:0.7;" x="163.719402" xlink:href="#C0_0_69209e9378" y="164.130992"/>
    </g>
    <g clip-path="url(#p22333f0db7)">
     <use style="fill-opacity:0.7;stroke:#000000;stroke-opacity:0.7;" x="276.067922" xlink:href="#C0_0_69209e9378" y="198.284829"/>
    </g>
    <g clip-path="url(#p22333f0db7)">
     <use style="fill-opacity:0.7;stroke:#000000;stroke-opacity:0.7;" x="271.395528" xlink:href="#C0_0_69209e9378" y="262.434053"/>
    </g>
    <g clip-path="url(#p22333f0db7)">
     <use style="fill-opacity:0.7;stroke:#000000;stroke-opacity:0.7;" x="273.79508" xlink:href="#C0_0_69209e9378" y="239.635748"/>
    </g>
    <g clip-path="url(#p22333f0db7)">
     <use style="fill-opacity:0.7;stroke:#000000;stroke-opacity:0.7;" x="276.157621" xlink:href="#C0_0_69209e9378" y="198.342717"/>
    </g>
    <g clip-path="url(#p22333f0db7)">
     <use style="fill-opacity:0.7;stroke:#000000;stroke-opacity:0.7;" x="276.160909" xlink:href="#C0_0_69209e9378" y="198.340756"/>
    </g>
    <g clip-path="url(#p22333f0db7)">
     <use style="fill-opacity:0.7;stroke:#000000;stroke-opacity:0.7;" x="276.150387" xlink:href="#C0_0_69209e9378" y="198.347032"/>
    </g>
    <g clip-path="url(#p22333f0db7)">
     <use style="fill-opacity:0.7;stroke:#000000;stroke-opacity:0.7;" x="276.157621" xlink:href="#C0_0_69209e9378" y="198.342717"/>
    </g>
    <g clip-path="url(#p22333f0db7)">
     <use style="fill-opacity:0.7;stroke:#000000;stroke-opacity:0.7;" x="270.738917" xlink:href="#C0_0_69209e9378" y="261.334145"/>
    </g>
    <g clip-path="url(#p22333f0db7)">
     <use style="fill-opacity:0.7;stroke:#000000;stroke-opacity:0.7;" x="250.615929" xlink:href="#C0_0_69209e9378" y="186.616055"/>
    </g>
    <g clip-path="url(#p22333f0db7)">
     <use style="fill-opacity:0.7;stroke:#000000;stroke-opacity:0.7;" x="250.615929" xlink:href="#C0_0_69209e9378" y="186.616055"/>
    </g>
    <g clip-path="url(#p22333f0db7)">
     <use style="fill-opacity:0.7;stroke:#000000;stroke-opacity:0.7;" x="250.615929" xlink:href="#C0_0_69209e9378" y="186.616055"/>
    </g>
    <g clip-path="url(#p22333f0db7)">
     <use style="fill-opacity:0.7;stroke:#000000;stroke-opacity:0.7;" x="250.615929" xlink:href="#C0_0_69209e9378" y="186.616055"/>
    </g>
    <g clip-path="url(#p22333f0db7)">
     <use style="fill-opacity:0.7;stroke:#000000;stroke-opacity:0.7;" x="250.615929" xlink:href="#C0_0_69209e9378" y="186.616055"/>
    </g>
    <g clip-path="url(#p22333f0db7)">
     <use style="fill-opacity:0.7;stroke:#000000;stroke-opacity:0.7;" x="248.329033" xlink:href="#C0_0_69209e9378" y="185.872429"/>
    </g>
    <g clip-path="url(#p22333f0db7)">
     <use style="fill-opacity:0.7;stroke:#000000;stroke-opacity:0.7;" x="228.293926" xlink:href="#C0_0_69209e9378" y="179.973459"/>
    </g>
    <g clip-path="url(#p22333f0db7)">
     <use style="fill-opacity:0.7;stroke:#000000;stroke-opacity:0.7;" x="228.293926" xlink:href="#C0_0_69209e9378" y="179.973459"/>
    </g>
    <g clip-path="url(#p22333f0db7)">
     <use style="fill-opacity:0.7;stroke:#000000;stroke-opacity:0.7;" x="248.329033" xlink:href="#C0_0_69209e9378" y="185.872429"/>
    </g>
    <g clip-path="url(#p22333f0db7)">
     <use style="fill-opacity:0.7;stroke:#000000;stroke-opacity:0.7;" x="226.612369" xlink:href="#C0_0_69209e9378" y="179.505791"/>
    </g>
    <g clip-path="url(#p22333f0db7)">
     <use style="fill-opacity:0.7;stroke:#000000;stroke-opacity:0.7;" x="206.486528" xlink:href="#C0_0_69209e9378" y="174.297396"/>
    </g>
    <g clip-path="url(#p22333f0db7)">
     <use style="fill-opacity:0.7;stroke:#000000;stroke-opacity:0.7;" x="206.486528" xlink:href="#C0_0_69209e9378" y="174.297396"/>
    </g>
    <g clip-path="url(#p22333f0db7)">
     <use style="fill-opacity:0.7;stroke:#000000;stroke-opacity:0.7;" x="248.329033" xlink:href="#C0_0_69209e9378" y="185.872429"/>
    </g>
    <g clip-path="url(#p22333f0db7)">
     <use style="fill-opacity:0.7;stroke:#000000;stroke-opacity:0.7;" x="226.612369" xlink:href="#C0_0_69209e9378" y="179.505791"/>
    </g>
    <g clip-path="url(#p22333f0db7)">
     <use style="fill-opacity:0.7;stroke:#000000;stroke-opacity:0.7;" x="185.179753" xlink:href="#C0_0_69209e9378" y="169.138898"/>
    </g>
    <g clip-path="url(#p22333f0db7)">
     <use style="fill-opacity:0.7;stroke:#000000;stroke-opacity:0.7;" x="185.179753" xlink:href="#C0_0_69209e9378" y="169.138898"/>
    </g>
    <g clip-path="url(#p22333f0db7)">
     <use style="fill-opacity:0.7;stroke:#000000;stroke-opacity:0.7;" x="270.738917" xlink:href="#C0_0_69209e9378" y="261.334145"/>
    </g>
    <g clip-path="url(#p22333f0db7)">
     <use style="fill-opacity:0.7;stroke:#000000;stroke-opacity:0.7;" x="248.329033" xlink:href="#C0_0_69209e9378" y="185.872429"/>
    </g>
    <g clip-path="url(#p22333f0db7)">
     <use style="fill-opacity:0.7;stroke:#000000;stroke-opacity:0.7;" x="226.612369" xlink:href="#C0_0_69209e9378" y="179.505791"/>
    </g>
    <g clip-path="url(#p22333f0db7)">
     <use style="fill-opacity:0.7;stroke:#000000;stroke-opacity:0.7;" x="205.381933" xlink:href="#C0_0_69209e9378" y="174.016943"/>
    </g>
    <g clip-path="url(#p22333f0db7)">
     <use style="fill-opacity:0.7;stroke:#000000;stroke-opacity:0.7;" x="184.625846" xlink:href="#C0_0_69209e9378" y="169.006306"/>
    </g>
    <g clip-path="url(#p22333f0db7)">
     <use style="fill-opacity:0.7;stroke:#000000;stroke-opacity:0.7;" x="262.119096" xlink:href="#C0_0_69209e9378" y="196.251189"/>
    </g>
    <g clip-path="url(#p22333f0db7)">
     <use style="fill-opacity:0.7;stroke:#000000;stroke-opacity:0.7;" x="271.802829" xlink:href="#C0_0_69209e9378" y="238.043153"/>
    </g>
   </g>
   <g id="Poly3DCollection_2">
    <path clip-path="url(#p22333f0db7)" d="M 185.179753 169.138898 
L 184.625846 169.006306 
L 163.719402 164.130992 
z
" style="fill:#d60000;"/>
    <path clip-path="url(#p22333f0db7)" d="M 184.625846 169.006306 
L 276.067922 198.284829 
L 163.719402 164.130992 
z
" style="fill:#bd0000;"/>
    <path clip-path="url(#p22333f0db7)" d="M 276.067922 198.284829 
L 184.625846 169.006306 
L 185.179753 169.138898 
z
" style="fill:#be0000;"/>
    <path clip-path="url(#p22333f0db7)" d="M 205.381933 174.016943 
L 226.612369 179.505791 
L 206.486528 174.297396 
z
" style="fill:#d50000;"/>
    <path clip-path="url(#p22333f0db7)" d="M 250.615929 186.616055 
L 205.381933 174.016943 
L 185.179753 169.138898 
z
" style="fill:#cd0000;"/>
    <path clip-path="url(#p22333f0db7)" d="M 185.179753 169.138898 
L 205.381933 174.016943 
L 276.067922 198.284829 
z
" style="fill:#be0000;"/>
    <path clip-path="url(#p22333f0db7)" d="M 228.293926 179.973459 
L 226.612369 179.505791 
L 205.381933 174.016943 
z
" style="fill:#d00000;"/>
    <path clip-path="url(#p22333f0db7)" d="M 206.486528 174.297396 
L 276.067922 198.284829 
L 205.381933 174.016943 
z
" style="fill:#be0000;"/>
    <path clip-path="url(#p22333f0db7)" d="M 250.615929 186.616055 
L 228.293926 179.973459 
L 205.381933 174.016943 
z
" style="fill:#cd0000;"/>
    <path clip-path="url(#p22333f0db7)" d="M 226.612369 179.505791 
L 276.067922 198.284829 
L 206.486528 174.297396 
z
" style="fill:#be0000;"/>
    <path clip-path="url(#p22333f0db7)" d="M 226.612369 179.505791 
L 228.293926 179.973459 
L 276.067922 198.284829 
z
" style="fill:#bf0000;"/>
    <path clip-path="url(#p22333f0db7)" d="M 248.329033 185.872429 
L 228.293926 179.973459 
L 250.615929 186.616055 
z
" style="fill:#cf0000;"/>
    <path clip-path="url(#p22333f0db7)" d="M 276.067922 198.284829 
L 228.293926 179.973459 
L 248.329033 185.872429 
z
" style="fill:#c00000;"/>
    <path clip-path="url(#p22333f0db7)" d="M 271.802829 238.043153 
L 270.738917 261.334145 
L 271.395528 262.434053 
z
" style="fill:#e80000;"/>
    <path clip-path="url(#p22333f0db7)" d="M 271.395528 262.434053 
L 273.79508 239.635748 
L 271.802829 238.043153 
z
" style="fill:#cd0000;"/>
    <path clip-path="url(#p22333f0db7)" d="M 250.615929 186.616055 
L 270.738917 261.334145 
L 262.119096 196.251189 
z
" style="fill:#de0000;"/>
    <path clip-path="url(#p22333f0db7)" d="M 271.802829 238.043153 
L 262.119096 196.251189 
L 270.738917 261.334145 
z
" style="fill:#e20000;"/>
    <path clip-path="url(#p22333f0db7)" d="M 262.119096 196.251189 
L 248.329033 185.872429 
L 250.615929 186.616055 
z
" style="fill:#b50000;"/>
    <path clip-path="url(#p22333f0db7)" d="M 276.067922 198.284829 
L 248.329033 185.872429 
L 262.119096 196.251189 
z
" style="fill:#ce0000;"/>
    <path clip-path="url(#p22333f0db7)" d="M 273.79508 239.635748 
L 276.150387 198.347032 
L 271.802829 238.043153 
z
" style="fill:#d00000;"/>
    <path clip-path="url(#p22333f0db7)" d="M 276.067922 198.284829 
L 262.119096 196.251189 
L 271.802829 238.043153 
z
" style="fill:#e30000;"/>
    <path clip-path="url(#p22333f0db7)" d="M 271.802829 238.043153 
L 276.150387 198.347032 
L 276.067922 198.284829 
z
" style="fill:#bf0000;"/>
    <path clip-path="url(#p22333f0db7)" d="M 276.157621 198.342717 
L 276.160909 198.340756 
L 276.067922 198.284829 
z
" style="fill:#c30000;"/>
    <path clip-path="url(#p22333f0db7)" d="M 276.067922 198.284829 
L 276.150387 198.347032 
L 276.157621 198.342717 
z
" style="fill:#c30000;"/>
   </g>
   <g id="Path3DCollection_2">
    <defs>
     <path d="M 0 1.369306 
C 0.363144 1.369306 0.711464 1.225028 0.968246 0.968246 
C 1.225028 0.711464 1.369306 0.363144 1.369306 0 
C 1.369306 -0.363144 1.225028 -0.711464 0.968246 -0.968246 
C 0.711464 -1.225028 0.363144 -1.369306 0 -1.369306 
C -0.363144 -1.369306 -0.711464 -1.225028 -0.968246 -0.968246 
C -1.225028 -0.711464 -1.369306 -0.363144 -1.369306 0 
C -1.369306 0.363144 -1.225028 0.711464 -0.968246 0.968246 
C -0.711464 1.225028 -0.363144 1.369306 0 1.369306 
z
" id="C1_0_933933acde"/>
    </defs>
    <g clip-path="url(#p22333f0db7)">
     <use style="fill-opacity:0.7;stroke:#000000;stroke-opacity:0.7;" x="163.719402" xlink:href="#C1_0_933933acde" y="164.130992"/>
    </g>
    <g clip-path="url(#p22333f0db7)">
     <use style="fill-opacity:0.7;stroke:#000000;stroke-opacity:0.7;" x="276.067922" xlink:href="#C1_0_933933acde" y="198.284829"/>
    </g>
    <g clip-path="url(#p22333f0db7)">
     <use style="fill-opacity:0.7;stroke:#000000;stroke-opacity:0.7;" x="271.395528" xlink:href="#C1_0_933933acde" y="262.434053"/>
    </g>
    <g clip-path="url(#p22333f0db7)">
     <use style="fill-opacity:0.7;stroke:#000000;stroke-opacity:0.7;" x="273.79508" xlink:href="#C1_0_933933acde" y="239.635748"/>
    </g>
    <g clip-path="url(#p22333f0db7)">
     <use style="fill-opacity:0.7;stroke:#000000;stroke-opacity:0.7;" x="276.157621" xlink:href="#C1_0_933933acde" y="198.342717"/>
    </g>
    <g clip-path="url(#p22333f0db7)">
     <use style="fill-opacity:0.7;stroke:#000000;stroke-opacity:0.7;" x="276.160909" xlink:href="#C1_0_933933acde" y="198.340756"/>
    </g>
    <g clip-path="url(#p22333f0db7)">
     <use style="fill-opacity:0.7;stroke:#000000;stroke-opacity:0.7;" x="276.150387" xlink:href="#C1_0_933933acde" y="198.347032"/>
    </g>
    <g clip-path="url(#p22333f0db7)">
     <use style="fill-opacity:0.7;stroke:#000000;stroke-opacity:0.7;" x="276.157621" xlink:href="#C1_0_933933acde" y="198.342717"/>
    </g>
    <g clip-path="url(#p22333f0db7)">
     <use style="fill-opacity:0.7;stroke:#000000;stroke-opacity:0.7;" x="270.738917" xlink:href="#C1_0_933933acde" y="261.334145"/>
    </g>
    <g clip-path="url(#p22333f0db7)">
     <use style="fill-opacity:0.7;stroke:#000000;stroke-opacity:0.7;" x="250.615929" xlink:href="#C1_0_933933acde" y="186.616055"/>
    </g>
    <g clip-path="url(#p22333f0db7)">
     <use style="fill-opacity:0.7;stroke:#000000;stroke-opacity:0.7;" x="250.615929" xlink:href="#C1_0_933933acde" y="186.616055"/>
    </g>
    <g clip-path="url(#p22333f0db7)">
     <use style="fill-opacity:0.7;stroke:#000000;stroke-opacity:0.7;" x="250.615929" xlink:href="#C1_0_933933acde" y="186.616055"/>
    </g>
    <g clip-path="url(#p22333f0db7)">
     <use style="fill-opacity:0.7;stroke:#000000;stroke-opacity:0.7;" x="250.615929" xlink:href="#C1_0_933933acde" y="186.616055"/>
    </g>
    <g clip-path="url(#p22333f0db7)">
     <use style="fill-opacity:0.7;stroke:#000000;stroke-opacity:0.7;" x="250.615929" xlink:href="#C1_0_933933acde" y="186.616055"/>
    </g>
    <g clip-path="url(#p22333f0db7)">
     <use style="fill-opacity:0.7;stroke:#000000;stroke-opacity:0.7;" x="248.329033" xlink:href="#C1_0_933933acde" y="185.872429"/>
    </g>
    <g clip-path="url(#p22333f0db7)">
     <use style="fill-opacity:0.7;stroke:#000000;stroke-opacity:0.7;" x="228.293926" xlink:href="#C1_0_933933acde" y="179.973459"/>
    </g>
    <g clip-path="url(#p22333f0db7)">
     <use style="fill-opacity:0.7;stroke:#000000;stroke-opacity:0.7;" x="228.293926" xlink:href="#C1_0_933933acde" y="179.973459"/>
    </g>
    <g clip-path="url(#p22333f0db7)">
     <use style="fill-opacity:0.7;stroke:#000000;stroke-opacity:0.7;" x="248.329033" xlink:href="#C1_0_933933acde" y="185.872429"/>
    </g>
    <g clip-path="url(#p22333f0db7)">
     <use style="fill-opacity:0.7;stroke:#000000;stroke-opacity:0.7;" x="226.612369" xlink:href="#C1_0_933933acde" y="179.505791"/>
    </g>
    <g clip-path="url(#p22333f0db7)">
     <use style="fill-opacity:0.7;stroke:#000000;stroke-opacity:0.7;" x="206.486528" xlink:href="#C1_0_933933acde" y="174.297396"/>
    </g>
    <g clip-path="url(#p22333f0db7)">
     <use style="fill-opacity:0.7;stroke:#000000;stroke-opacity:0.7;" x="206.486528" xlink:href="#C1_0_933933acde" y="174.297396"/>
    </g>
    <g clip-path="url(#p22333f0db7)">
     <use style="fill-opacity:0.7;stroke:#000000;stroke-opacity:0.7;" x="248.329033" xlink:href="#C1_0_933933acde" y="185.872429"/>
    </g>
    <g clip-path="url(#p22333f0db7)">
     <use style="fill-opacity:0.7;stroke:#000000;stroke-opacity:0.7;" x="226.612369" xlink:href="#C1_0_933933acde" y="179.505791"/>
    </g>
    <g clip-path="url(#p22333f0db7)">
     <use style="fill-opacity:0.7;stroke:#000000;stroke-opacity:0.7;" x="185.179753" xlink:href="#C1_0_933933acde" y="169.138898"/>
    </g>
    <g clip-path="url(#p22333f0db7)">
     <use style="fill-opacity:0.7;stroke:#000000;stroke-opacity:0.7;" x="185.179753" xlink:href="#C1_0_933933acde" y="169.138898"/>
    </g>
    <g clip-path="url(#p22333f0db7)">
     <use style="fill-opacity:0.7;stroke:#000000;stroke-opacity:0.7;" x="270.738917" xlink:href="#C1_0_933933acde" y="261.334145"/>
    </g>
    <g clip-path="url(#p22333f0db7)">
     <use style="fill-opacity:0.7;stroke:#000000;stroke-opacity:0.7;" x="248.329033" xlink:href="#C1_0_933933acde" y="185.872429"/>
    </g>
    <g clip-path="url(#p22333f0db7)">
     <use style="fill-opacity:0.7;stroke:#000000;stroke-opacity:0.7;" x="226.612369" xlink:href="#C1_0_933933acde" y="179.505791"/>
    </g>
    <g clip-path="url(#p22333f0db7)">
     <use style="fill-opacity:0.7;stroke:#000000;stroke-opacity:0.7;" x="205.381933" xlink:href="#C1_0_933933acde" y="174.016943"/>
    </g>
    <g clip-path="url(#p22333f0db7)">
     <use style="fill-opacity:0.7;stroke:#000000;stroke-opacity:0.7;" x="184.625846" xlink:href="#C1_0_933933acde" y="169.006306"/>
    </g>
    <g clip-path="url(#p22333f0db7)">
     <use style="fill-opacity:0.7;stroke:#000000;stroke-opacity:0.7;" x="262.119096" xlink:href="#C1_0_933933acde" y="196.251189"/>
    </g>
    <g clip-path="url(#p22333f0db7)">
     <use style="fill-opacity:0.7;stroke:#000000;stroke-opacity:0.7;" x="271.802829" xlink:href="#C1_0_933933acde" y="238.043153"/>
    </g>
   </g>
   <g id="Poly3DCollection_3">
    <path clip-path="url(#p22333f0db7)" d="M 186.919151 153.10333 
L 150.03353 144.278096 
L 186.801986 191.362619 
z
" style="fill:#0000c9;fill-opacity:0.5;"/>
    <path clip-path="url(#p22333f0db7)" d="M 186.919151 153.10333 
L 276.067922 198.284829 
L 150.03353 144.278096 
z
" style="fill:#0000b9;fill-opacity:0.5;"/>
    <path clip-path="url(#p22333f0db7)" d="M 188.581503 153.538872 
L 186.919151 153.10333 
L 186.801986 191.362619 
z
" style="fill:#0000c9;fill-opacity:0.5;"/>
    <path clip-path="url(#p22333f0db7)" d="M 186.801986 191.362619 
L 191.286919 154.259241 
L 188.581503 153.538872 
z
" style="fill:#0000c9;fill-opacity:0.5;"/>
    <path clip-path="url(#p22333f0db7)" d="M 186.801986 191.362619 
L 198.604543 156.290771 
L 191.286919 154.259241 
z
" style="fill:#0000c9;fill-opacity:0.5;"/>
    <path clip-path="url(#p22333f0db7)" d="M 276.067922 198.284829 
L 186.919151 153.10333 
L 188.581503 153.538872 
z
" style="fill:#0000b9;fill-opacity:0.5;"/>
    <path clip-path="url(#p22333f0db7)" d="M 205.774371 158.382074 
L 198.604543 156.290771 
L 186.801986 191.362619 
z
" style="fill:#0000c9;fill-opacity:0.5;"/>
    <path clip-path="url(#p22333f0db7)" d="M 188.581503 153.538872 
L 191.286919 154.259241 
L 276.067922 198.284829 
z
" style="fill:#0000ba;fill-opacity:0.5;"/>
    <path clip-path="url(#p22333f0db7)" d="M 191.286919 154.259241 
L 198.604543 156.290771 
L 276.067922 198.284829 
z
" style="fill:#0000ba;fill-opacity:0.5;"/>
    <path clip-path="url(#p22333f0db7)" d="M 205.774371 158.382074 
L 200.609483 191.795624 
L 213.38124 160.744068 
z
" style="fill:#0000ca;fill-opacity:0.5;"/>
    <path clip-path="url(#p22333f0db7)" d="M 276.067922 198.284829 
L 198.604543 156.290771 
L 205.774371 158.382074 
z
" style="fill:#0000ba;fill-opacity:0.5;"/>
    <path clip-path="url(#p22333f0db7)" d="M 186.801986 191.362619 
L 200.609483 191.795624 
L 205.774371 158.382074 
z
" style="fill:#0000cb;fill-opacity:0.5;"/>
    <path clip-path="url(#p22333f0db7)" d="M 205.774371 158.382074 
L 213.38124 160.744068 
L 276.067922 198.284829 
z
" style="fill:#0000bb;fill-opacity:0.5;"/>
    <path clip-path="url(#p22333f0db7)" d="M 200.609483 191.795624 
L 221.410766 191.837962 
L 213.38124 160.744068 
z
" style="fill:#0000cc;fill-opacity:0.5;"/>
    <path clip-path="url(#p22333f0db7)" d="M 257.103779 180.542549 
L 200.609483 191.795624 
L 186.801986 191.362619 
z
" style="fill:#000082;fill-opacity:0.5;"/>
    <path clip-path="url(#p22333f0db7)" d="M 213.38124 160.744068 
L 221.410766 191.837962 
L 259.494989 182.969497 
z
" style="fill:#0000cc;fill-opacity:0.5;"/>
    <path clip-path="url(#p22333f0db7)" d="M 276.067922 198.284829 
L 213.38124 160.744068 
L 259.494989 182.969497 
z
" style="fill:#0000bf;fill-opacity:0.5;"/>
    <path clip-path="url(#p22333f0db7)" d="M 221.410766 191.837962 
L 200.609483 191.795624 
L 257.103779 180.542549 
z
" style="fill:#000086;fill-opacity:0.5;"/>
    <path clip-path="url(#p22333f0db7)" d="M 186.801986 191.362619 
L 258.789455 189.320373 
L 257.175493 180.547693 
z
" style="fill:#0000e2;fill-opacity:0.5;"/>
    <path clip-path="url(#p22333f0db7)" d="M 257.175493 180.547693 
L 257.103779 180.542549 
L 186.801986 191.362619 
z
" style="fill:#0000e8;fill-opacity:0.5;"/>
    <path clip-path="url(#p22333f0db7)" d="M 257.103779 180.542549 
L 259.494989 182.969497 
L 221.410766 191.837962 
z
" style="fill:#0000b5;fill-opacity:0.5;"/>
    <path clip-path="url(#p22333f0db7)" d="M 259.494989 182.969497 
L 258.789455 189.320373 
L 276.067922 198.284829 
z
" style="fill:#0000df;fill-opacity:0.5;"/>
    <path clip-path="url(#p22333f0db7)" d="M 258.789455 189.320373 
L 259.494989 182.969497 
L 257.175493 180.547693 
z
" style="fill:#0000e8;fill-opacity:0.5;"/>
    <path clip-path="url(#p22333f0db7)" d="M 259.494989 182.969497 
L 257.103779 180.542549 
L 257.175493 180.547693 
z
" style="fill:#0000b9;fill-opacity:0.5;"/>
   </g>
   <g id="Path3DCollection_3">
    <defs>
     <path d="M 0 1.369306 
C 0.363144 1.369306 0.711464 1.225028 0.968246 0.968246 
C 1.225028 0.711464 1.369306 0.363144 1.369306 0 
C 1.369306 -0.363144 1.225028 -0.711464 0.968246 -0.968246 
C 0.711464 -1.225028 0.363144 -1.369306 0 -1.369306 
C -0.363144 -1.369306 -0.711464 -1.225028 -0.968246 -0.968246 
C -1.225028 -0.711464 -1.369306 -0.363144 -1.369306 0 
C -1.369306 0.363144 -1.225028 0.711464 -0.968246 0.968246 
C -0.711464 1.225028 -0.363144 1.369306 0 1.369306 
z
" id="C2_0_5b38c24440"/>
    </defs>
    <g clip-path="url(#p22333f0db7)">
     <use style="fill-opacity:0.7;stroke:#000000;stroke-opacity:0.7;" x="150.03353" xlink:href="#C2_0_5b38c24440" y="144.278096"/>
    </g>
    <g clip-path="url(#p22333f0db7)">
     <use style="fill-opacity:0.7;stroke:#000000;stroke-opacity:0.7;" x="276.067922" xlink:href="#C2_0_5b38c24440" y="198.284829"/>
    </g>
    <g clip-path="url(#p22333f0db7)">
     <use style="fill-opacity:0.7;stroke:#000000;stroke-opacity:0.7;" x="186.801986" xlink:href="#C2_0_5b38c24440" y="191.362619"/>
    </g>
    <g clip-path="url(#p22333f0db7)">
     <use style="fill-opacity:0.7;stroke:#000000;stroke-opacity:0.7;" x="200.609483" xlink:href="#C2_0_5b38c24440" y="191.795624"/>
    </g>
    <g clip-path="url(#p22333f0db7)">
     <use style="fill-opacity:0.7;stroke:#000000;stroke-opacity:0.7;" x="258.789455" xlink:href="#C2_0_5b38c24440" y="189.320373"/>
    </g>
    <g clip-path="url(#p22333f0db7)">
     <use style="fill-opacity:0.7;stroke:#000000;stroke-opacity:0.7;" x="257.103779" xlink:href="#C2_0_5b38c24440" y="180.542549"/>
    </g>
    <g clip-path="url(#p22333f0db7)">
     <use style="fill-opacity:0.7;stroke:#000000;stroke-opacity:0.7;" x="221.410766" xlink:href="#C2_0_5b38c24440" y="191.837962"/>
    </g>
    <g clip-path="url(#p22333f0db7)">
     <use style="fill-opacity:0.7;stroke:#000000;stroke-opacity:0.7;" x="257.175493" xlink:href="#C2_0_5b38c24440" y="180.547693"/>
    </g>
    <g clip-path="url(#p22333f0db7)">
     <use style="fill-opacity:0.7;stroke:#000000;stroke-opacity:0.7;" x="221.410766" xlink:href="#C2_0_5b38c24440" y="191.837962"/>
    </g>
    <g clip-path="url(#p22333f0db7)">
     <use style="fill-opacity:0.7;stroke:#000000;stroke-opacity:0.7;" x="259.494989" xlink:href="#C2_0_5b38c24440" y="182.969497"/>
    </g>
    <g clip-path="url(#p22333f0db7)">
     <use style="fill-opacity:0.7;stroke:#000000;stroke-opacity:0.7;" x="213.38124" xlink:href="#C2_0_5b38c24440" y="160.744068"/>
    </g>
    <g clip-path="url(#p22333f0db7)">
     <use style="fill-opacity:0.7;stroke:#000000;stroke-opacity:0.7;" x="205.774371" xlink:href="#C2_0_5b38c24440" y="158.382074"/>
    </g>
    <g clip-path="url(#p22333f0db7)">
     <use style="fill-opacity:0.7;stroke:#000000;stroke-opacity:0.7;" x="205.774371" xlink:href="#C2_0_5b38c24440" y="158.382074"/>
    </g>
    <g clip-path="url(#p22333f0db7)">
     <use style="fill-opacity:0.7;stroke:#000000;stroke-opacity:0.7;" x="205.774371" xlink:href="#C2_0_5b38c24440" y="158.382074"/>
    </g>
    <g clip-path="url(#p22333f0db7)">
     <use style="fill-opacity:0.7;stroke:#000000;stroke-opacity:0.7;" x="259.494989" xlink:href="#C2_0_5b38c24440" y="182.969497"/>
    </g>
    <g clip-path="url(#p22333f0db7)">
     <use style="fill-opacity:0.7;stroke:#000000;stroke-opacity:0.7;" x="213.38124" xlink:href="#C2_0_5b38c24440" y="160.744068"/>
    </g>
    <g clip-path="url(#p22333f0db7)">
     <use style="fill-opacity:0.7;stroke:#000000;stroke-opacity:0.7;" x="198.604543" xlink:href="#C2_0_5b38c24440" y="156.290771"/>
    </g>
    <g clip-path="url(#p22333f0db7)">
     <use style="fill-opacity:0.7;stroke:#000000;stroke-opacity:0.7;" x="191.286919" xlink:href="#C2_0_5b38c24440" y="154.259241"/>
    </g>
    <g clip-path="url(#p22333f0db7)">
     <use style="fill-opacity:0.7;stroke:#000000;stroke-opacity:0.7;" x="188.581503" xlink:href="#C2_0_5b38c24440" y="153.538872"/>
    </g>
    <g clip-path="url(#p22333f0db7)">
     <use style="fill-opacity:0.7;stroke:#000000;stroke-opacity:0.7;" x="259.494989" xlink:href="#C2_0_5b38c24440" y="182.969497"/>
    </g>
    <g clip-path="url(#p22333f0db7)">
     <use style="fill-opacity:0.7;stroke:#000000;stroke-opacity:0.7;" x="213.38124" xlink:href="#C2_0_5b38c24440" y="160.744068"/>
    </g>
    <g clip-path="url(#p22333f0db7)">
     <use style="fill-opacity:0.7;stroke:#000000;stroke-opacity:0.7;" x="198.604543" xlink:href="#C2_0_5b38c24440" y="156.290771"/>
    </g>
    <g clip-path="url(#p22333f0db7)">
     <use style="fill-opacity:0.7;stroke:#000000;stroke-opacity:0.7;" x="191.286919" xlink:href="#C2_0_5b38c24440" y="154.259241"/>
    </g>
    <g clip-path="url(#p22333f0db7)">
     <use style="fill-opacity:0.7;stroke:#000000;stroke-opacity:0.7;" x="186.919151" xlink:href="#C2_0_5b38c24440" y="153.10333"/>
    </g>
    <g clip-path="url(#p22333f0db7)">
     <use style="fill-opacity:0.7;stroke:#000000;stroke-opacity:0.7;" x="259.494989" xlink:href="#C2_0_5b38c24440" y="182.969497"/>
    </g>
    <g clip-path="url(#p22333f0db7)">
     <use style="fill-opacity:0.7;stroke:#000000;stroke-opacity:0.7;" x="213.38124" xlink:href="#C2_0_5b38c24440" y="160.744068"/>
    </g>
    <g clip-path="url(#p22333f0db7)">
     <use style="fill-opacity:0.7;stroke:#000000;stroke-opacity:0.7;" x="198.604543" xlink:href="#C2_0_5b38c24440" y="156.290771"/>
    </g>
    <g clip-path="url(#p22333f0db7)">
     <use style="fill-opacity:0.7;stroke:#000000;stroke-opacity:0.7;" x="191.286919" xlink:href="#C2_0_5b38c24440" y="154.259241"/>
    </g>
    <g clip-path="url(#p22333f0db7)">
     <use style="fill-opacity:0.7;stroke:#000000;stroke-opacity:0.7;" x="186.919151" xlink:href="#C2_0_5b38c24440" y="153.10333"/>
    </g>
   </g>
   <g id="Poly3DCollection_4">
    <path clip-path="url(#p22333f0db7)" d="M 186.919151 153.10333 
L 150.03353 144.278096 
L 186.801986 191.362619 
z
" style="fill:#0000c9;fill-opacity:0.5;"/>
    <path clip-path="url(#p22333f0db7)" d="M 186.919151 153.10333 
L 276.067922 198.284829 
L 150.03353 144.278096 
z
" style="fill:#0000b9;fill-opacity:0.5;"/>
    <path clip-path="url(#p22333f0db7)" d="M 188.581503 153.538872 
L 186.919151 153.10333 
L 186.801986 191.362619 
z
" style="fill:#0000c9;fill-opacity:0.5;"/>
    <path clip-path="url(#p22333f0db7)" d="M 186.801986 191.362619 
L 191.286919 154.259241 
L 188.581503 153.538872 
z
" style="fill:#0000c9;fill-opacity:0.5;"/>
    <path clip-path="url(#p22333f0db7)" d="M 186.801986 191.362619 
L 198.604543 156.290771 
L 191.286919 154.259241 
z
" style="fill:#0000c9;fill-opacity:0.5;"/>
    <path clip-path="url(#p22333f0db7)" d="M 276.067922 198.284829 
L 186.919151 153.10333 
L 188.581503 153.538872 
z
" style="fill:#0000b9;fill-opacity:0.5;"/>
    <path clip-path="url(#p22333f0db7)" d="M 205.774371 158.382074 
L 198.604543 156.290771 
L 186.801986 191.362619 
z
" style="fill:#0000c9;fill-opacity:0.5;"/>
    <path clip-path="url(#p22333f0db7)" d="M 188.581503 153.538872 
L 191.286919 154.259241 
L 276.067922 198.284829 
z
" style="fill:#0000ba;fill-opacity:0.5;"/>
    <path clip-path="url(#p22333f0db7)" d="M 191.286919 154.259241 
L 198.604543 156.290771 
L 276.067922 198.284829 
z
" style="fill:#0000ba;fill-opacity:0.5;"/>
    <path clip-path="url(#p22333f0db7)" d="M 205.774371 158.382074 
L 200.609483 191.795624 
L 213.38124 160.744068 
z
" style="fill:#0000ca;fill-opacity:0.5;"/>
    <path clip-path="url(#p22333f0db7)" d="M 276.067922 198.284829 
L 198.604543 156.290771 
L 205.774371 158.382074 
z
" style="fill:#0000ba;fill-opacity:0.5;"/>
    <path clip-path="url(#p22333f0db7)" d="M 186.801986 191.362619 
L 200.609483 191.795624 
L 205.774371 158.382074 
z
" style="fill:#0000cb;fill-opacity:0.5;"/>
    <path clip-path="url(#p22333f0db7)" d="M 205.774371 158.382074 
L 213.38124 160.744068 
L 276.067922 198.284829 
z
" style="fill:#0000bb;fill-opacity:0.5;"/>
    <path clip-path="url(#p22333f0db7)" d="M 200.609483 191.795624 
L 221.410766 191.837962 
L 213.38124 160.744068 
z
" style="fill:#0000cc;fill-opacity:0.5;"/>
    <path clip-path="url(#p22333f0db7)" d="M 257.103779 180.542549 
L 200.609483 191.795624 
L 186.801986 191.362619 
z
" style="fill:#000082;fill-opacity:0.5;"/>
    <path clip-path="url(#p22333f0db7)" d="M 213.38124 160.744068 
L 221.410766 191.837962 
L 259.494989 182.969497 
z
" style="fill:#0000cc;fill-opacity:0.5;"/>
    <path clip-path="url(#p22333f0db7)" d="M 276.067922 198.284829 
L 213.38124 160.744068 
L 259.494989 182.969497 
z
" style="fill:#0000bf;fill-opacity:0.5;"/>
    <path clip-path="url(#p22333f0db7)" d="M 221.410766 191.837962 
L 200.609483 191.795624 
L 257.103779 180.542549 
z
" style="fill:#000086;fill-opacity:0.5;"/>
    <path clip-path="url(#p22333f0db7)" d="M 186.801986 191.362619 
L 258.789455 189.320373 
L 257.175493 180.547693 
z
" style="fill:#0000e2;fill-opacity:0.5;"/>
    <path clip-path="url(#p22333f0db7)" d="M 257.175493 180.547693 
L 257.103779 180.542549 
L 186.801986 191.362619 
z
" style="fill:#0000e8;fill-opacity:0.5;"/>
    <path clip-path="url(#p22333f0db7)" d="M 257.103779 180.542549 
L 259.494989 182.969497 
L 221.410766 191.837962 
z
" style="fill:#0000b5;fill-opacity:0.5;"/>
    <path clip-path="url(#p22333f0db7)" d="M 259.494989 182.969497 
L 258.789455 189.320373 
L 276.067922 198.284829 
z
" style="fill:#0000df;fill-opacity:0.5;"/>
    <path clip-path="url(#p22333f0db7)" d="M 258.789455 189.320373 
L 259.494989 182.969497 
L 257.175493 180.547693 
z
" style="fill:#0000e8;fill-opacity:0.5;"/>
    <path clip-path="url(#p22333f0db7)" d="M 259.494989 182.969497 
L 257.103779 180.542549 
L 257.175493 180.547693 
z
" style="fill:#0000b9;fill-opacity:0.5;"/>
   </g>
   <g id="Path3DCollection_4">
    <defs>
     <path d="M 0 1.369306 
C 0.363144 1.369306 0.711464 1.225028 0.968246 0.968246 
C 1.225028 0.711464 1.369306 0.363144 1.369306 0 
C 1.369306 -0.363144 1.225028 -0.711464 0.968246 -0.968246 
C 0.711464 -1.225028 0.363144 -1.369306 0 -1.369306 
C -0.363144 -1.369306 -0.711464 -1.225028 -0.968246 -0.968246 
C -1.225028 -0.711464 -1.369306 -0.363144 -1.369306 0 
C -1.369306 0.363144 -1.225028 0.711464 -0.968246 0.968246 
C -0.711464 1.225028 -0.363144 1.369306 0 1.369306 
z
" id="C3_0_4de6ff65b4"/>
    </defs>
    <g clip-path="url(#p22333f0db7)">
     <use style="fill-opacity:0.7;stroke:#000000;stroke-opacity:0.7;" x="150.03353" xlink:href="#C3_0_4de6ff65b4" y="144.278096"/>
    </g>
    <g clip-path="url(#p22333f0db7)">
     <use style="fill-opacity:0.7;stroke:#000000;stroke-opacity:0.7;" x="276.067922" xlink:href="#C3_0_4de6ff65b4" y="198.284829"/>
    </g>
    <g clip-path="url(#p22333f0db7)">
     <use style="fill-opacity:0.7;stroke:#000000;stroke-opacity:0.7;" x="186.801986" xlink:href="#C3_0_4de6ff65b4" y="191.362619"/>
    </g>
    <g clip-path="url(#p22333f0db7)">
     <use style="fill-opacity:0.7;stroke:#000000;stroke-opacity:0.7;" x="200.609483" xlink:href="#C3_0_4de6ff65b4" y="191.795624"/>
    </g>
    <g clip-path="url(#p22333f0db7)">
     <use style="fill-opacity:0.7;stroke:#000000;stroke-opacity:0.7;" x="258.789455" xlink:href="#C3_0_4de6ff65b4" y="189.320373"/>
    </g>
    <g clip-path="url(#p22333f0db7)">
     <use style="fill-opacity:0.7;stroke:#000000;stroke-opacity:0.7;" x="257.103779" xlink:href="#C3_0_4de6ff65b4" y="180.542549"/>
    </g>
    <g clip-path="url(#p22333f0db7)">
     <use style="fill-opacity:0.7;stroke:#000000;stroke-opacity:0.7;" x="221.410766" xlink:href="#C3_0_4de6ff65b4" y="191.837962"/>
    </g>
    <g clip-path="url(#p22333f0db7)">
     <use style="fill-opacity:0.7;stroke:#000000;stroke-opacity:0.7;" x="257.175493" xlink:href="#C3_0_4de6ff65b4" y="180.547693"/>
    </g>
    <g clip-path="url(#p22333f0db7)">
     <use style="fill-opacity:0.7;stroke:#000000;stroke-opacity:0.7;" x="221.410766" xlink:href="#C3_0_4de6ff65b4" y="191.837962"/>
    </g>
    <g clip-path="url(#p22333f0db7)">
     <use style="fill-opacity:0.7;stroke:#000000;stroke-opacity:0.7;" x="259.494989" xlink:href="#C3_0_4de6ff65b4" y="182.969497"/>
    </g>
    <g clip-path="url(#p22333f0db7)">
     <use style="fill-opacity:0.7;stroke:#000000;stroke-opacity:0.7;" x="213.38124" xlink:href="#C3_0_4de6ff65b4" y="160.744068"/>
    </g>
    <g clip-path="url(#p22333f0db7)">
     <use style="fill-opacity:0.7;stroke:#000000;stroke-opacity:0.7;" x="205.774371" xlink:href="#C3_0_4de6ff65b4" y="158.382074"/>
    </g>
    <g clip-path="url(#p22333f0db7)">
     <use style="fill-opacity:0.7;stroke:#000000;stroke-opacity:0.7;" x="205.774371" xlink:href="#C3_0_4de6ff65b4" y="158.382074"/>
    </g>
    <g clip-path="url(#p22333f0db7)">
     <use style="fill-opacity:0.7;stroke:#000000;stroke-opacity:0.7;" x="205.774371" xlink:href="#C3_0_4de6ff65b4" y="158.382074"/>
    </g>
    <g clip-path="url(#p22333f0db7)">
     <use style="fill-opacity:0.7;stroke:#000000;stroke-opacity:0.7;" x="259.494989" xlink:href="#C3_0_4de6ff65b4" y="182.969497"/>
    </g>
    <g clip-path="url(#p22333f0db7)">
     <use style="fill-opacity:0.7;stroke:#000000;stroke-opacity:0.7;" x="213.38124" xlink:href="#C3_0_4de6ff65b4" y="160.744068"/>
    </g>
    <g clip-path="url(#p22333f0db7)">
     <use style="fill-opacity:0.7;stroke:#000000;stroke-opacity:0.7;" x="198.604543" xlink:href="#C3_0_4de6ff65b4" y="156.290771"/>
    </g>
    <g clip-path="url(#p22333f0db7)">
     <use style="fill-opacity:0.7;stroke:#000000;stroke-opacity:0.7;" x="191.286919" xlink:href="#C3_0_4de6ff65b4" y="154.259241"/>
    </g>
    <g clip-path="url(#p22333f0db7)">
     <use style="fill-opacity:0.7;stroke:#000000;stroke-opacity:0.7;" x="188.581503" xlink:href="#C3_0_4de6ff65b4" y="153.538872"/>
    </g>
    <g clip-path="url(#p22333f0db7)">
     <use style="fill-opacity:0.7;stroke:#000000;stroke-opacity:0.7;" x="259.494989" xlink:href="#C3_0_4de6ff65b4" y="182.969497"/>
    </g>
    <g clip-path="url(#p22333f0db7)">
     <use style="fill-opacity:0.7;stroke:#000000;stroke-opacity:0.7;" x="213.38124" xlink:href="#C3_0_4de6ff65b4" y="160.744068"/>
    </g>
    <g clip-path="url(#p22333f0db7)">
     <use style="fill-opacity:0.7;stroke:#000000;stroke-opacity:0.7;" x="198.604543" xlink:href="#C3_0_4de6ff65b4" y="156.290771"/>
    </g>
    <g clip-path="url(#p22333f0db7)">
     <use style="fill-opacity:0.7;stroke:#000000;stroke-opacity:0.7;" x="191.286919" xlink:href="#C3_0_4de6ff65b4" y="154.259241"/>
    </g>
    <g clip-path="url(#p22333f0db7)">
     <use style="fill-opacity:0.7;stroke:#000000;stroke-opacity:0.7;" x="186.919151" xlink:href="#C3_0_4de6ff65b4" y="153.10333"/>
    </g>
    <g clip-path="url(#p22333f0db7)">
     <use style="fill-opacity:0.7;stroke:#000000;stroke-opacity:0.7;" x="259.494989" xlink:href="#C3_0_4de6ff65b4" y="182.969497"/>
    </g>
    <g clip-path="url(#p22333f0db7)">
     <use style="fill-opacity:0.7;stroke:#000000;stroke-opacity:0.7;" x="213.38124" xlink:href="#C3_0_4de6ff65b4" y="160.744068"/>
    </g>
    <g clip-path="url(#p22333f0db7)">
     <use style="fill-opacity:0.7;stroke:#000000;stroke-opacity:0.7;" x="198.604543" xlink:href="#C3_0_4de6ff65b4" y="156.290771"/>
    </g>
    <g clip-path="url(#p22333f0db7)">
     <use style="fill-opacity:0.7;stroke:#000000;stroke-opacity:0.7;" x="191.286919" xlink:href="#C3_0_4de6ff65b4" y="154.259241"/>
    </g>
    <g clip-path="url(#p22333f0db7)">
     <use style="fill-opacity:0.7;stroke:#000000;stroke-opacity:0.7;" x="186.919151" xlink:href="#C3_0_4de6ff65b4" y="153.10333"/>
    </g>
   </g>
   <g id="Path3DCollection_5">
    <defs>
     <path d="M -3.162278 0 
L 3.162278 0 
M 0 3.162278 
L 0 -3.162278 
" id="mdaa66a104c" style="stroke:#ff0000;stroke-opacity:0.7;stroke-width:1.5;"/>
    </defs>
    <g clip-path="url(#p22333f0db7)">
     <use style="fill:#ff0000;fill-opacity:0.7;stroke:#ff0000;stroke-opacity:0.7;stroke-width:1.5;" x="274.095476" xlink:href="#mdaa66a104c" y="186.950221"/>
    </g>
   </g>
   <g id="Path3DCollection_6">
    <g clip-path="url(#p22333f0db7)">
     <use style="fill:#ff0000;fill-opacity:0.7;stroke:#ff0000;stroke-opacity:0.7;stroke-width:1.5;" x="274.095476" xlink:href="#mdaa66a104c" y="186.950221"/>
    </g>
   </g>
   <g id="Path3DCollection_7">
    <defs>
     <path d="M 0 -3.162278 
L -0.709976 -0.977198 
L -3.007505 -0.977198 
L -1.148765 0.373256 
L -1.85874 2.558336 
L -0 1.207883 
L 1.85874 2.558336 
L 1.148765 0.373256 
L 3.007505 -0.977198 
L 0.709976 -0.977198 
z
" id="me46f9b226a" style="stroke:#0000ff;stroke-opacity:0.7;"/>
    </defs>
    <g clip-path="url(#p22333f0db7)">
     <use style="fill:#0000ff;fill-opacity:0.7;stroke:#0000ff;stroke-opacity:0.7;" x="273.180842" xlink:href="#me46f9b226a" y="163.491763"/>
    </g>
   </g>
   <g id="Path3DCollection_8">
    <g clip-path="url(#p22333f0db7)">
     <use style="fill:#0000ff;fill-opacity:0.7;stroke:#0000ff;stroke-opacity:0.7;" x="273.180842" xlink:href="#me46f9b226a" y="163.491763"/>
    </g>
   </g>
  </g>
 </g>
 <defs>
  <clipPath id="p22333f0db7">
   <rect height="266.112" width="357.12" x="57.6" y="41.472"/>
  </clipPath>
 </defs>
</svg>
