<?xml version="1.0" encoding="utf-8" standalone="no"?>
<!DOCTYPE svg PUBLIC "-//W3C//DTD SVG 1.1//EN"
  "http://www.w3.org/Graphics/SVG/1.1/DTD/svg11.dtd">
<!-- Created with matplotlib (https://matplotlib.org/) -->
<svg height="681.12pt" version="1.1" viewBox="0 0 1334.16 681.12" width="1334.16pt" xmlns="http://www.w3.org/2000/svg" xmlns:xlink="http://www.w3.org/1999/xlink">
 <defs>
  <style type="text/css">
*{stroke-linecap:butt;stroke-linejoin:round;white-space:pre;}
  </style>
 </defs>
 <g id="figure_1">
  <g id="patch_1">
   <path d="M 0 681.12 
L 1334.16 681.12 
L 1334.16 0 
L 0 0 
z
" style="fill:#ffffff;"/>
  </g>
  <g id="patch_2">
   <path d="M 10.8 670.32 
L 1323.36 670.32 
L 1323.36 10.8 
L 10.8 10.8 
z
" style="fill:#ffffff;"/>
  </g>
  <g id="pane3d_1">
   <g id="patch_3">
    <path d="M 1179.382344 535.888683 
L 861.490158 455.412372 
L 864.951169 113.479878 
L 1190.011428 162.490057 
" style="fill:#f2f2f2;opacity:0.5;stroke:#f2f2f2;stroke-linejoin:miter;"/>
   </g>
  </g>
  <g id="pane3d_2">
   <g id="patch_4">
    <path d="M 215.34454 488.844253 
L 861.490158 455.412372 
L 864.951169 113.479878 
L 205.777084 133.817761 
" style="fill:#e6e6e6;opacity:0.5;stroke:#e6e6e6;stroke-linejoin:miter;"/>
   </g>
  </g>
  <g id="pane3d_3">
   <g id="patch_5">
    <path d="M 482.957636 576.128272 
L 1179.382344 535.888683 
L 861.490158 455.412372 
L 215.34454 488.844253 
" style="fill:#ececec;opacity:0.5;stroke:#ececec;stroke-linejoin:miter;"/>
   </g>
  </g>
  <g id="axis3d_1">
   <g id="line2d_1">
    <path d="M 1179.382344 535.888683 
L 482.957636 576.128272 
" style="fill:none;stroke:#000000;stroke-linecap:square;stroke-width:0.8;"/>
   </g>
   <g id="text_1">
    <!-- Life Cycle Cost ($/house-yr) -->
    <defs>
     <path d="M 9.8125 72.90625 
L 19.671875 72.90625 
L 19.671875 8.296875 
L 55.171875 8.296875 
L 55.171875 0 
L 9.8125 0 
z
" id="DejaVuSans-76"/>
     <path d="M 9.421875 54.6875 
L 18.40625 54.6875 
L 18.40625 0 
L 9.421875 0 
z
M 9.421875 75.984375 
L 18.40625 75.984375 
L 18.40625 64.59375 
L 9.421875 64.59375 
z
" id="DejaVuSans-105"/>
     <path d="M 37.109375 75.984375 
L 37.109375 68.5 
L 28.515625 68.5 
Q 23.6875 68.5 21.796875 66.546875 
Q 19.921875 64.59375 19.921875 59.515625 
L 19.921875 54.6875 
L 34.71875 54.6875 
L 34.71875 47.703125 
L 19.921875 47.703125 
L 19.921875 0 
L 10.890625 0 
L 10.890625 47.703125 
L 2.296875 47.703125 
L 2.296875 54.6875 
L 10.890625 54.6875 
L 10.890625 58.5 
Q 10.890625 67.625 15.140625 71.796875 
Q 19.390625 75.984375 28.609375 75.984375 
z
" id="DejaVuSans-102"/>
     <path d="M 56.203125 29.59375 
L 56.203125 25.203125 
L 14.890625 25.203125 
Q 15.484375 15.921875 20.484375 11.0625 
Q 25.484375 6.203125 34.421875 6.203125 
Q 39.59375 6.203125 44.453125 7.46875 
Q 49.3125 8.734375 54.109375 11.28125 
L 54.109375 2.78125 
Q 49.265625 0.734375 44.1875 -0.34375 
Q 39.109375 -1.421875 33.890625 -1.421875 
Q 20.796875 -1.421875 13.15625 6.1875 
Q 5.515625 13.8125 5.515625 26.8125 
Q 5.515625 40.234375 12.765625 48.109375 
Q 20.015625 56 32.328125 56 
Q 43.359375 56 49.78125 48.890625 
Q 56.203125 41.796875 56.203125 29.59375 
z
M 47.21875 32.234375 
Q 47.125 39.59375 43.09375 43.984375 
Q 39.0625 48.390625 32.421875 48.390625 
Q 24.90625 48.390625 20.390625 44.140625 
Q 15.875 39.890625 15.1875 32.171875 
z
" id="DejaVuSans-101"/>
     <path id="DejaVuSans-32"/>
     <path d="M 64.40625 67.28125 
L 64.40625 56.890625 
Q 59.421875 61.53125 53.78125 63.8125 
Q 48.140625 66.109375 41.796875 66.109375 
Q 29.296875 66.109375 22.65625 58.46875 
Q 16.015625 50.828125 16.015625 36.375 
Q 16.015625 21.96875 22.65625 14.328125 
Q 29.296875 6.6875 41.796875 6.6875 
Q 48.140625 6.6875 53.78125 8.984375 
Q 59.421875 11.28125 64.40625 15.921875 
L 64.40625 5.609375 
Q 59.234375 2.09375 53.4375 0.328125 
Q 47.65625 -1.421875 41.21875 -1.421875 
Q 24.65625 -1.421875 15.125 8.703125 
Q 5.609375 18.84375 5.609375 36.375 
Q 5.609375 53.953125 15.125 64.078125 
Q 24.65625 74.21875 41.21875 74.21875 
Q 47.75 74.21875 53.53125 72.484375 
Q 59.328125 70.75 64.40625 67.28125 
z
" id="DejaVuSans-67"/>
     <path d="M 32.171875 -5.078125 
Q 28.375 -14.84375 24.75 -17.8125 
Q 21.140625 -20.796875 15.09375 -20.796875 
L 7.90625 -20.796875 
L 7.90625 -13.28125 
L 13.1875 -13.28125 
Q 16.890625 -13.28125 18.9375 -11.515625 
Q 21 -9.765625 23.484375 -3.21875 
L 25.09375 0.875 
L 2.984375 54.6875 
L 12.5 54.6875 
L 29.59375 11.921875 
L 46.6875 54.6875 
L 56.203125 54.6875 
z
" id="DejaVuSans-121"/>
     <path d="M 48.78125 52.59375 
L 48.78125 44.1875 
Q 44.96875 46.296875 41.140625 47.34375 
Q 37.3125 48.390625 33.40625 48.390625 
Q 24.65625 48.390625 19.8125 42.84375 
Q 14.984375 37.3125 14.984375 27.296875 
Q 14.984375 17.28125 19.8125 11.734375 
Q 24.65625 6.203125 33.40625 6.203125 
Q 37.3125 6.203125 41.140625 7.25 
Q 44.96875 8.296875 48.78125 10.40625 
L 48.78125 2.09375 
Q 45.015625 0.34375 40.984375 -0.53125 
Q 36.96875 -1.421875 32.421875 -1.421875 
Q 20.0625 -1.421875 12.78125 6.34375 
Q 5.515625 14.109375 5.515625 27.296875 
Q 5.515625 40.671875 12.859375 48.328125 
Q 20.21875 56 33.015625 56 
Q 37.15625 56 41.109375 55.140625 
Q 45.0625 54.296875 48.78125 52.59375 
z
" id="DejaVuSans-99"/>
     <path d="M 9.421875 75.984375 
L 18.40625 75.984375 
L 18.40625 0 
L 9.421875 0 
z
" id="DejaVuSans-108"/>
     <path d="M 30.609375 48.390625 
Q 23.390625 48.390625 19.1875 42.75 
Q 14.984375 37.109375 14.984375 27.296875 
Q 14.984375 17.484375 19.15625 11.84375 
Q 23.34375 6.203125 30.609375 6.203125 
Q 37.796875 6.203125 41.984375 11.859375 
Q 46.1875 17.53125 46.1875 27.296875 
Q 46.1875 37.015625 41.984375 42.703125 
Q 37.796875 48.390625 30.609375 48.390625 
z
M 30.609375 56 
Q 42.328125 56 49.015625 48.375 
Q 55.71875 40.765625 55.71875 27.296875 
Q 55.71875 13.875 49.015625 6.21875 
Q 42.328125 -1.421875 30.609375 -1.421875 
Q 18.84375 -1.421875 12.171875 6.21875 
Q 5.515625 13.875 5.515625 27.296875 
Q 5.515625 40.765625 12.171875 48.375 
Q 18.84375 56 30.609375 56 
z
" id="DejaVuSans-111"/>
     <path d="M 44.28125 53.078125 
L 44.28125 44.578125 
Q 40.484375 46.53125 36.375 47.5 
Q 32.28125 48.484375 27.875 48.484375 
Q 21.1875 48.484375 17.84375 46.4375 
Q 14.5 44.390625 14.5 40.28125 
Q 14.5 37.15625 16.890625 35.375 
Q 19.28125 33.59375 26.515625 31.984375 
L 29.59375 31.296875 
Q 39.15625 29.25 43.1875 25.515625 
Q 47.21875 21.78125 47.21875 15.09375 
Q 47.21875 7.46875 41.1875 3.015625 
Q 35.15625 -1.421875 24.609375 -1.421875 
Q 20.21875 -1.421875 15.453125 -0.5625 
Q 10.6875 0.296875 5.421875 2 
L 5.421875 11.28125 
Q 10.40625 8.6875 15.234375 7.390625 
Q 20.0625 6.109375 24.8125 6.109375 
Q 31.15625 6.109375 34.5625 8.28125 
Q 37.984375 10.453125 37.984375 14.40625 
Q 37.984375 18.0625 35.515625 20.015625 
Q 33.0625 21.96875 24.703125 23.78125 
L 21.578125 24.515625 
Q 13.234375 26.265625 9.515625 29.90625 
Q 5.8125 33.546875 5.8125 39.890625 
Q 5.8125 47.609375 11.28125 51.796875 
Q 16.75 56 26.8125 56 
Q 31.78125 56 36.171875 55.265625 
Q 40.578125 54.546875 44.28125 53.078125 
z
" id="DejaVuSans-115"/>
     <path d="M 18.3125 70.21875 
L 18.3125 54.6875 
L 36.8125 54.6875 
L 36.8125 47.703125 
L 18.3125 47.703125 
L 18.3125 18.015625 
Q 18.3125 11.328125 20.140625 9.421875 
Q 21.96875 7.515625 27.59375 7.515625 
L 36.8125 7.515625 
L 36.8125 0 
L 27.59375 0 
Q 17.1875 0 13.234375 3.875 
Q 9.28125 7.765625 9.28125 18.015625 
L 9.28125 47.703125 
L 2.6875 47.703125 
L 2.6875 54.6875 
L 9.28125 54.6875 
L 9.28125 70.21875 
z
" id="DejaVuSans-116"/>
     <path d="M 31 75.875 
Q 24.46875 64.65625 21.28125 53.65625 
Q 18.109375 42.671875 18.109375 31.390625 
Q 18.109375 20.125 21.3125 9.0625 
Q 24.515625 -2 31 -13.1875 
L 23.1875 -13.1875 
Q 15.875 -1.703125 12.234375 9.375 
Q 8.59375 20.453125 8.59375 31.390625 
Q 8.59375 42.28125 12.203125 53.3125 
Q 15.828125 64.359375 23.1875 75.875 
z
" id="DejaVuSans-40"/>
     <path d="M 33.796875 -14.703125 
L 28.90625 -14.703125 
L 28.859375 0 
Q 23.734375 0.09375 18.609375 1.1875 
Q 13.484375 2.296875 8.296875 4.5 
L 8.296875 13.28125 
Q 13.28125 10.15625 18.375 8.5625 
Q 23.484375 6.984375 28.90625 6.9375 
L 28.90625 29.203125 
Q 18.109375 30.953125 13.203125 35.15625 
Q 8.296875 39.359375 8.296875 46.6875 
Q 8.296875 54.640625 13.625 59.21875 
Q 18.953125 63.8125 28.90625 64.5 
L 28.90625 75.984375 
L 33.796875 75.984375 
L 33.796875 64.65625 
Q 38.328125 64.453125 42.578125 63.6875 
Q 46.828125 62.9375 50.875 61.625 
L 50.875 53.078125 
Q 46.828125 55.125 42.546875 56.25 
Q 38.28125 57.375 33.796875 57.5625 
L 33.796875 36.71875 
Q 44.875 35.015625 50.09375 30.609375 
Q 55.328125 26.21875 55.328125 18.609375 
Q 55.328125 10.359375 49.78125 5.59375 
Q 44.234375 0.828125 33.796875 0.09375 
z
M 28.90625 37.59375 
L 28.90625 57.625 
Q 23.25 56.984375 20.265625 54.390625 
Q 17.28125 51.8125 17.28125 47.515625 
Q 17.28125 43.3125 20.03125 40.96875 
Q 22.796875 38.625 28.90625 37.59375 
z
M 33.796875 28.21875 
L 33.796875 7.078125 
Q 39.984375 7.90625 43.140625 10.59375 
Q 46.296875 13.28125 46.296875 17.671875 
Q 46.296875 21.96875 43.28125 24.5 
Q 40.28125 27.046875 33.796875 28.21875 
z
" id="DejaVuSans-36"/>
     <path d="M 25.390625 72.90625 
L 33.6875 72.90625 
L 8.296875 -9.28125 
L 0 -9.28125 
z
" id="DejaVuSans-47"/>
     <path d="M 54.890625 33.015625 
L 54.890625 0 
L 45.90625 0 
L 45.90625 32.71875 
Q 45.90625 40.484375 42.875 44.328125 
Q 39.84375 48.1875 33.796875 48.1875 
Q 26.515625 48.1875 22.3125 43.546875 
Q 18.109375 38.921875 18.109375 30.90625 
L 18.109375 0 
L 9.078125 0 
L 9.078125 75.984375 
L 18.109375 75.984375 
L 18.109375 46.1875 
Q 21.34375 51.125 25.703125 53.5625 
Q 30.078125 56 35.796875 56 
Q 45.21875 56 50.046875 50.171875 
Q 54.890625 44.34375 54.890625 33.015625 
z
" id="DejaVuSans-104"/>
     <path d="M 8.5 21.578125 
L 8.5 54.6875 
L 17.484375 54.6875 
L 17.484375 21.921875 
Q 17.484375 14.15625 20.5 10.265625 
Q 23.53125 6.390625 29.59375 6.390625 
Q 36.859375 6.390625 41.078125 11.03125 
Q 45.3125 15.671875 45.3125 23.6875 
L 45.3125 54.6875 
L 54.296875 54.6875 
L 54.296875 0 
L 45.3125 0 
L 45.3125 8.40625 
Q 42.046875 3.421875 37.71875 1 
Q 33.40625 -1.421875 27.6875 -1.421875 
Q 18.265625 -1.421875 13.375 4.4375 
Q 8.5 10.296875 8.5 21.578125 
z
M 31.109375 56 
z
" id="DejaVuSans-117"/>
     <path d="M 4.890625 31.390625 
L 31.203125 31.390625 
L 31.203125 23.390625 
L 4.890625 23.390625 
z
" id="DejaVuSans-45"/>
     <path d="M 41.109375 46.296875 
Q 39.59375 47.171875 37.8125 47.578125 
Q 36.03125 48 33.890625 48 
Q 26.265625 48 22.1875 43.046875 
Q 18.109375 38.09375 18.109375 28.8125 
L 18.109375 0 
L 9.078125 0 
L 9.078125 54.6875 
L 18.109375 54.6875 
L 18.109375 46.1875 
Q 20.953125 51.171875 25.484375 53.578125 
Q 30.03125 56 36.53125 56 
Q 37.453125 56 38.578125 55.875 
Q 39.703125 55.765625 41.0625 55.515625 
z
" id="DejaVuSans-114"/>
     <path d="M 8.015625 75.875 
L 15.828125 75.875 
Q 23.140625 64.359375 26.78125 53.3125 
Q 30.421875 42.28125 30.421875 31.390625 
Q 30.421875 20.453125 26.78125 9.375 
Q 23.140625 -1.703125 15.828125 -13.1875 
L 8.015625 -13.1875 
Q 14.5 -2 17.703125 9.0625 
Q 20.90625 20.125 20.90625 31.390625 
Q 20.90625 42.671875 17.703125 53.65625 
Q 14.5 64.65625 8.015625 75.875 
z
" id="DejaVuSans-41"/>
    </defs>
    <g transform="translate(785.207989 585.038381)rotate(-3.306887)scale(0.1 -0.1)">
     <use xlink:href="#DejaVuSans-76"/>
     <use x="55.712891" xlink:href="#DejaVuSans-105"/>
     <use x="83.496094" xlink:href="#DejaVuSans-102"/>
     <use x="118.701172" xlink:href="#DejaVuSans-101"/>
     <use x="180.224609" xlink:href="#DejaVuSans-32"/>
     <use x="212.011719" xlink:href="#DejaVuSans-67"/>
     <use x="281.835938" xlink:href="#DejaVuSans-121"/>
     <use x="341.015625" xlink:href="#DejaVuSans-99"/>
     <use x="395.996094" xlink:href="#DejaVuSans-108"/>
     <use x="423.779297" xlink:href="#DejaVuSans-101"/>
     <use x="485.302734" xlink:href="#DejaVuSans-32"/>
     <use x="517.089844" xlink:href="#DejaVuSans-67"/>
     <use x="586.914062" xlink:href="#DejaVuSans-111"/>
     <use x="648.095703" xlink:href="#DejaVuSans-115"/>
     <use x="700.195312" xlink:href="#DejaVuSans-116"/>
     <use x="739.404297" xlink:href="#DejaVuSans-32"/>
     <use x="771.191406" xlink:href="#DejaVuSans-40"/>
     <use x="810.205078" xlink:href="#DejaVuSans-36"/>
     <use x="873.828125" xlink:href="#DejaVuSans-47"/>
     <use x="907.519531" xlink:href="#DejaVuSans-104"/>
     <use x="970.898438" xlink:href="#DejaVuSans-111"/>
     <use x="1032.080078" xlink:href="#DejaVuSans-117"/>
     <use x="1095.458984" xlink:href="#DejaVuSans-115"/>
     <use x="1147.558594" xlink:href="#DejaVuSans-101"/>
     <use x="1209.082031" xlink:href="#DejaVuSans-45"/>
     <use x="1245.150391" xlink:href="#DejaVuSans-121"/>
     <use x="1304.330078" xlink:href="#DejaVuSans-114"/>
     <use x="1345.443359" xlink:href="#DejaVuSans-41"/>
    </g>
   </g>
   <g id="Line3DCollection_1">
    <path d="M 566.432375 571.305081 
L 292.536838 484.850287 
L 284.579507 131.386424 
" style="fill:none;stroke:#b0b0b0;stroke-width:0.8;"/>
    <path d="M 652.356914 566.34034 
L 372.067152 480.735351 
L 365.753472 128.881916 
" style="fill:none;stroke:#b0b0b0;stroke-width:0.8;"/>
    <path d="M 737.399715 561.426547 
L 450.853953 476.658884 
L 446.153313 126.401293 
" style="fill:none;stroke:#b0b0b0;stroke-width:0.8;"/>
    <path d="M 821.574282 556.56292 
L 528.907621 472.620351 
L 525.79005 123.944214 
" style="fill:none;stroke:#b0b0b0;stroke-width:0.8;"/>
    <path d="M 904.893844 551.748695 
L 606.238341 468.619222 
L 604.674497 121.510346 
" style="fill:none;stroke:#b0b0b0;stroke-width:0.8;"/>
    <path d="M 987.371361 546.983124 
L 682.85611 464.654983 
L 682.817263 119.099362 
" style="fill:none;stroke:#b0b0b0;stroke-width:0.8;"/>
    <path d="M 1069.019535 542.265473 
L 758.770744 460.727124 
L 760.228759 116.71094 
" style="fill:none;stroke:#b0b0b0;stroke-width:0.8;"/>
    <path d="M 1149.850811 537.595022 
L 833.991876 456.835146 
L 836.919203 114.344765 
" style="fill:none;stroke:#b0b0b0;stroke-width:0.8;"/>
   </g>
   <g id="xtick_1">
    <g id="line2d_2">
     <path d="M 564.026907 570.545798 
L 571.254721 572.827249 
" style="fill:none;stroke:#000000;stroke-linecap:square;stroke-width:0.8;"/>
    </g>
    <g id="text_2">
     <!-- 1.0 -->
     <defs>
      <path d="M 12.40625 8.296875 
L 28.515625 8.296875 
L 28.515625 63.921875 
L 10.984375 60.40625 
L 10.984375 69.390625 
L 28.421875 72.90625 
L 38.28125 72.90625 
L 38.28125 8.296875 
L 54.390625 8.296875 
L 54.390625 0 
L 12.40625 0 
z
" id="DejaVuSans-49"/>
      <path d="M 10.6875 12.40625 
L 21 12.40625 
L 21 0 
L 10.6875 0 
z
" id="DejaVuSans-46"/>
      <path d="M 31.78125 66.40625 
Q 24.171875 66.40625 20.328125 58.90625 
Q 16.5 51.421875 16.5 36.375 
Q 16.5 21.390625 20.328125 13.890625 
Q 24.171875 6.390625 31.78125 6.390625 
Q 39.453125 6.390625 43.28125 13.890625 
Q 47.125 21.390625 47.125 36.375 
Q 47.125 51.421875 43.28125 58.90625 
Q 39.453125 66.40625 31.78125 66.40625 
z
M 31.78125 74.21875 
Q 44.046875 74.21875 50.515625 64.515625 
Q 56.984375 54.828125 56.984375 36.375 
Q 56.984375 17.96875 50.515625 8.265625 
Q 44.046875 -1.421875 31.78125 -1.421875 
Q 19.53125 -1.421875 13.0625 8.265625 
Q 6.59375 17.96875 6.59375 36.375 
Q 6.59375 54.828125 13.0625 64.515625 
Q 19.53125 74.21875 31.78125 74.21875 
z
" id="DejaVuSans-48"/>
     </defs>
     <g transform="translate(565.28883 589.529538)scale(0.1 -0.1)">
      <use xlink:href="#DejaVuSans-49"/>
      <use x="63.623047" xlink:href="#DejaVuSans-46"/>
      <use x="95.410156" xlink:href="#DejaVuSans-48"/>
     </g>
    </g>
   </g>
   <g id="xtick_2">
    <g id="line2d_3">
     <path d="M 649.896419 565.588866 
L 657.289514 567.846836 
" style="fill:none;stroke:#000000;stroke-linecap:square;stroke-width:0.8;"/>
    </g>
    <g id="text_3">
     <!-- 1.5 -->
     <defs>
      <path d="M 10.796875 72.90625 
L 49.515625 72.90625 
L 49.515625 64.59375 
L 19.828125 64.59375 
L 19.828125 46.734375 
Q 21.96875 47.46875 24.109375 47.828125 
Q 26.265625 48.1875 28.421875 48.1875 
Q 40.625 48.1875 47.75 41.5 
Q 54.890625 34.8125 54.890625 23.390625 
Q 54.890625 11.625 47.5625 5.09375 
Q 40.234375 -1.421875 26.90625 -1.421875 
Q 22.3125 -1.421875 17.546875 -0.640625 
Q 12.796875 0.140625 7.71875 1.703125 
L 7.71875 11.625 
Q 12.109375 9.234375 16.796875 8.0625 
Q 21.484375 6.890625 26.703125 6.890625 
Q 35.15625 6.890625 40.078125 11.328125 
Q 45.015625 15.765625 45.015625 23.390625 
Q 45.015625 31 40.078125 35.4375 
Q 35.15625 39.890625 26.703125 39.890625 
Q 22.75 39.890625 18.8125 39.015625 
Q 14.890625 38.140625 10.796875 36.28125 
z
" id="DejaVuSans-53"/>
     </defs>
     <g transform="translate(651.325508 584.50139)scale(0.1 -0.1)">
      <use xlink:href="#DejaVuSans-49"/>
      <use x="63.623047" xlink:href="#DejaVuSans-46"/>
      <use x="95.410156" xlink:href="#DejaVuSans-53"/>
     </g>
    </g>
   </g>
   <g id="xtick_3">
    <g id="line2d_4">
     <path d="M 734.885446 560.682761 
L 742.440057 562.91761 
" style="fill:none;stroke:#000000;stroke-linecap:square;stroke-width:0.8;"/>
    </g>
    <g id="text_4">
     <!-- 2.0 -->
     <defs>
      <path d="M 19.1875 8.296875 
L 53.609375 8.296875 
L 53.609375 0 
L 7.328125 0 
L 7.328125 8.296875 
Q 12.9375 14.109375 22.625 23.890625 
Q 32.328125 33.6875 34.8125 36.53125 
Q 39.546875 41.84375 41.421875 45.53125 
Q 43.3125 49.21875 43.3125 52.78125 
Q 43.3125 58.59375 39.234375 62.25 
Q 35.15625 65.921875 28.609375 65.921875 
Q 23.96875 65.921875 18.8125 64.3125 
Q 13.671875 62.703125 7.8125 59.421875 
L 7.8125 69.390625 
Q 13.765625 71.78125 18.9375 73 
Q 24.125 74.21875 28.421875 74.21875 
Q 39.75 74.21875 46.484375 68.546875 
Q 53.21875 62.890625 53.21875 53.421875 
Q 53.21875 48.921875 51.53125 44.890625 
Q 49.859375 40.875 45.40625 35.40625 
Q 44.1875 33.984375 37.640625 27.21875 
Q 31.109375 20.453125 19.1875 8.296875 
z
" id="DejaVuSans-50"/>
     </defs>
     <g transform="translate(736.477792 579.524927)scale(0.1 -0.1)">
      <use xlink:href="#DejaVuSans-50"/>
      <use x="63.623047" xlink:href="#DejaVuSans-46"/>
      <use x="95.410156" xlink:href="#DejaVuSans-48"/>
     </g>
    </g>
   </g>
   <g id="xtick_4">
    <g id="line2d_5">
     <path d="M 819.007462 555.826705 
L 826.719912 558.038788 
" style="fill:none;stroke:#000000;stroke-linecap:square;stroke-width:0.8;"/>
    </g>
    <g id="text_5">
     <!-- 2.5 -->
     <g transform="translate(820.759249 574.599357)scale(0.1 -0.1)">
      <use xlink:href="#DejaVuSans-50"/>
      <use x="63.623047" xlink:href="#DejaVuSans-46"/>
      <use x="95.410156" xlink:href="#DejaVuSans-53"/>
     </g>
    </g>
   </g>
   <g id="xtick_5">
    <g id="line2d_6">
     <path d="M 902.275667 551.019937 
L 910.142366 553.209599 
" style="fill:none;stroke:#000000;stroke-linecap:square;stroke-width:0.8;"/>
    </g>
    <g id="text_6">
     <!-- 3.0 -->
     <defs>
      <path d="M 40.578125 39.3125 
Q 47.65625 37.796875 51.625 33 
Q 55.609375 28.21875 55.609375 21.1875 
Q 55.609375 10.40625 48.1875 4.484375 
Q 40.765625 -1.421875 27.09375 -1.421875 
Q 22.515625 -1.421875 17.65625 -0.515625 
Q 12.796875 0.390625 7.625 2.203125 
L 7.625 11.71875 
Q 11.71875 9.328125 16.59375 8.109375 
Q 21.484375 6.890625 26.8125 6.890625 
Q 36.078125 6.890625 40.9375 10.546875 
Q 45.796875 14.203125 45.796875 21.1875 
Q 45.796875 27.640625 41.28125 31.265625 
Q 36.765625 34.90625 28.71875 34.90625 
L 20.21875 34.90625 
L 20.21875 43.015625 
L 29.109375 43.015625 
Q 36.375 43.015625 40.234375 45.921875 
Q 44.09375 48.828125 44.09375 54.296875 
Q 44.09375 59.90625 40.109375 62.90625 
Q 36.140625 65.921875 28.71875 65.921875 
Q 24.65625 65.921875 20.015625 65.03125 
Q 15.375 64.15625 9.8125 62.3125 
L 9.8125 71.09375 
Q 15.4375 72.65625 20.34375 73.4375 
Q 25.25 74.21875 29.59375 74.21875 
Q 40.828125 74.21875 47.359375 69.109375 
Q 53.90625 64.015625 53.90625 55.328125 
Q 53.90625 49.265625 50.4375 45.09375 
Q 46.96875 40.921875 40.578125 39.3125 
z
" id="DejaVuSans-51"/>
     </defs>
     <g transform="translate(904.183169 569.723904)scale(0.1 -0.1)">
      <use xlink:href="#DejaVuSans-51"/>
      <use x="63.623047" xlink:href="#DejaVuSans-46"/>
      <use x="95.410156" xlink:href="#DejaVuSans-48"/>
     </g>
    </g>
   </g>
   <g id="xtick_6">
    <g id="line2d_7">
     <path d="M 984.702993 546.261709 
L 992.720436 548.429289 
" style="fill:none;stroke:#000000;stroke-linecap:square;stroke-width:0.8;"/>
    </g>
    <g id="text_7">
     <!-- 3.5 -->
     <g transform="translate(986.762574 564.897805)scale(0.1 -0.1)">
      <use xlink:href="#DejaVuSans-51"/>
      <use x="63.623047" xlink:href="#DejaVuSans-46"/>
      <use x="95.410156" xlink:href="#DejaVuSans-53"/>
     </g>
    </g>
   </g>
   <g id="xtick_7">
    <g id="line2d_8">
     <path d="M 1066.302114 541.551291 
L 1074.466877 543.697122 
" style="fill:none;stroke:#000000;stroke-linecap:square;stroke-width:0.8;"/>
    </g>
    <g id="text_8">
     <!-- 4.0 -->
     <defs>
      <path d="M 37.796875 64.3125 
L 12.890625 25.390625 
L 37.796875 25.390625 
z
M 35.203125 72.90625 
L 47.609375 72.90625 
L 47.609375 25.390625 
L 58.015625 25.390625 
L 58.015625 17.1875 
L 47.609375 17.1875 
L 47.609375 0 
L 37.796875 0 
L 37.796875 17.1875 
L 4.890625 17.1875 
L 4.890625 26.703125 
z
" id="DejaVuSans-52"/>
     </defs>
     <g transform="translate(1068.510223 560.120316)scale(0.1 -0.1)">
      <use xlink:href="#DejaVuSans-52"/>
      <use x="63.623047" xlink:href="#DejaVuSans-46"/>
      <use x="95.410156" xlink:href="#DejaVuSans-48"/>
     </g>
    </g>
   </g>
   <g id="xtick_8">
    <g id="line2d_9">
     <path d="M 1147.08545 536.887965 
L 1155.394191 539.012372 
" style="fill:none;stroke:#000000;stroke-linecap:square;stroke-width:0.8;"/>
    </g>
    <g id="text_9">
     <!-- 4.5 -->
     <g transform="translate(1149.438619 555.390705)scale(0.1 -0.1)">
      <use xlink:href="#DejaVuSans-52"/>
      <use x="63.623047" xlink:href="#DejaVuSans-46"/>
      <use x="95.410156" xlink:href="#DejaVuSans-53"/>
     </g>
    </g>
   </g>
  </g>
  <g id="axis3d_2">
   <g id="line2d_10">
    <path d="M 215.34454 488.844253 
L 482.957636 576.128272 
" style="fill:none;stroke:#000000;stroke-linecap:square;stroke-width:0.8;"/>
   </g>
   <g id="text_10">
    <!-- Global Warming Potential (kgCO2eq/house-yr) -->
    <defs>
     <path d="M 59.515625 10.40625 
L 59.515625 29.984375 
L 43.40625 29.984375 
L 43.40625 38.09375 
L 69.28125 38.09375 
L 69.28125 6.78125 
Q 63.578125 2.734375 56.6875 0.65625 
Q 49.8125 -1.421875 42 -1.421875 
Q 24.90625 -1.421875 15.25 8.5625 
Q 5.609375 18.5625 5.609375 36.375 
Q 5.609375 54.25 15.25 64.234375 
Q 24.90625 74.21875 42 74.21875 
Q 49.125 74.21875 55.546875 72.453125 
Q 61.96875 70.703125 67.390625 67.28125 
L 67.390625 56.78125 
Q 61.921875 61.421875 55.765625 63.765625 
Q 49.609375 66.109375 42.828125 66.109375 
Q 29.4375 66.109375 22.71875 58.640625 
Q 16.015625 51.171875 16.015625 36.375 
Q 16.015625 21.625 22.71875 14.15625 
Q 29.4375 6.6875 42.828125 6.6875 
Q 48.046875 6.6875 52.140625 7.59375 
Q 56.25 8.5 59.515625 10.40625 
z
" id="DejaVuSans-71"/>
     <path d="M 48.6875 27.296875 
Q 48.6875 37.203125 44.609375 42.84375 
Q 40.53125 48.484375 33.40625 48.484375 
Q 26.265625 48.484375 22.1875 42.84375 
Q 18.109375 37.203125 18.109375 27.296875 
Q 18.109375 17.390625 22.1875 11.75 
Q 26.265625 6.109375 33.40625 6.109375 
Q 40.53125 6.109375 44.609375 11.75 
Q 48.6875 17.390625 48.6875 27.296875 
z
M 18.109375 46.390625 
Q 20.953125 51.265625 25.265625 53.625 
Q 29.59375 56 35.59375 56 
Q 45.5625 56 51.78125 48.09375 
Q 58.015625 40.1875 58.015625 27.296875 
Q 58.015625 14.40625 51.78125 6.484375 
Q 45.5625 -1.421875 35.59375 -1.421875 
Q 29.59375 -1.421875 25.265625 0.953125 
Q 20.953125 3.328125 18.109375 8.203125 
L 18.109375 0 
L 9.078125 0 
L 9.078125 75.984375 
L 18.109375 75.984375 
z
" id="DejaVuSans-98"/>
     <path d="M 34.28125 27.484375 
Q 23.390625 27.484375 19.1875 25 
Q 14.984375 22.515625 14.984375 16.5 
Q 14.984375 11.71875 18.140625 8.90625 
Q 21.296875 6.109375 26.703125 6.109375 
Q 34.1875 6.109375 38.703125 11.40625 
Q 43.21875 16.703125 43.21875 25.484375 
L 43.21875 27.484375 
z
M 52.203125 31.203125 
L 52.203125 0 
L 43.21875 0 
L 43.21875 8.296875 
Q 40.140625 3.328125 35.546875 0.953125 
Q 30.953125 -1.421875 24.3125 -1.421875 
Q 15.921875 -1.421875 10.953125 3.296875 
Q 6 8.015625 6 15.921875 
Q 6 25.140625 12.171875 29.828125 
Q 18.359375 34.515625 30.609375 34.515625 
L 43.21875 34.515625 
L 43.21875 35.40625 
Q 43.21875 41.609375 39.140625 45 
Q 35.0625 48.390625 27.6875 48.390625 
Q 23 48.390625 18.546875 47.265625 
Q 14.109375 46.140625 10.015625 43.890625 
L 10.015625 52.203125 
Q 14.9375 54.109375 19.578125 55.046875 
Q 24.21875 56 28.609375 56 
Q 40.484375 56 46.34375 49.84375 
Q 52.203125 43.703125 52.203125 31.203125 
z
" id="DejaVuSans-97"/>
     <path d="M 3.328125 72.90625 
L 13.28125 72.90625 
L 28.609375 11.28125 
L 43.890625 72.90625 
L 54.984375 72.90625 
L 70.3125 11.28125 
L 85.59375 72.90625 
L 95.609375 72.90625 
L 77.296875 0 
L 64.890625 0 
L 49.515625 63.28125 
L 33.984375 0 
L 21.578125 0 
z
" id="DejaVuSans-87"/>
     <path d="M 52 44.1875 
Q 55.375 50.25 60.0625 53.125 
Q 64.75 56 71.09375 56 
Q 79.640625 56 84.28125 50.015625 
Q 88.921875 44.046875 88.921875 33.015625 
L 88.921875 0 
L 79.890625 0 
L 79.890625 32.71875 
Q 79.890625 40.578125 77.09375 44.375 
Q 74.3125 48.1875 68.609375 48.1875 
Q 61.625 48.1875 57.5625 43.546875 
Q 53.515625 38.921875 53.515625 30.90625 
L 53.515625 0 
L 44.484375 0 
L 44.484375 32.71875 
Q 44.484375 40.625 41.703125 44.40625 
Q 38.921875 48.1875 33.109375 48.1875 
Q 26.21875 48.1875 22.15625 43.53125 
Q 18.109375 38.875 18.109375 30.90625 
L 18.109375 0 
L 9.078125 0 
L 9.078125 54.6875 
L 18.109375 54.6875 
L 18.109375 46.1875 
Q 21.1875 51.21875 25.484375 53.609375 
Q 29.78125 56 35.6875 56 
Q 41.65625 56 45.828125 52.96875 
Q 50 49.953125 52 44.1875 
z
" id="DejaVuSans-109"/>
     <path d="M 54.890625 33.015625 
L 54.890625 0 
L 45.90625 0 
L 45.90625 32.71875 
Q 45.90625 40.484375 42.875 44.328125 
Q 39.84375 48.1875 33.796875 48.1875 
Q 26.515625 48.1875 22.3125 43.546875 
Q 18.109375 38.921875 18.109375 30.90625 
L 18.109375 0 
L 9.078125 0 
L 9.078125 54.6875 
L 18.109375 54.6875 
L 18.109375 46.1875 
Q 21.34375 51.125 25.703125 53.5625 
Q 30.078125 56 35.796875 56 
Q 45.21875 56 50.046875 50.171875 
Q 54.890625 44.34375 54.890625 33.015625 
z
" id="DejaVuSans-110"/>
     <path d="M 45.40625 27.984375 
Q 45.40625 37.75 41.375 43.109375 
Q 37.359375 48.484375 30.078125 48.484375 
Q 22.859375 48.484375 18.828125 43.109375 
Q 14.796875 37.75 14.796875 27.984375 
Q 14.796875 18.265625 18.828125 12.890625 
Q 22.859375 7.515625 30.078125 7.515625 
Q 37.359375 7.515625 41.375 12.890625 
Q 45.40625 18.265625 45.40625 27.984375 
z
M 54.390625 6.78125 
Q 54.390625 -7.171875 48.1875 -13.984375 
Q 42 -20.796875 29.203125 -20.796875 
Q 24.46875 -20.796875 20.265625 -20.09375 
Q 16.0625 -19.390625 12.109375 -17.921875 
L 12.109375 -9.1875 
Q 16.0625 -11.328125 19.921875 -12.34375 
Q 23.78125 -13.375 27.78125 -13.375 
Q 36.625 -13.375 41.015625 -8.765625 
Q 45.40625 -4.15625 45.40625 5.171875 
L 45.40625 9.625 
Q 42.625 4.78125 38.28125 2.390625 
Q 33.9375 0 27.875 0 
Q 17.828125 0 11.671875 7.65625 
Q 5.515625 15.328125 5.515625 27.984375 
Q 5.515625 40.671875 11.671875 48.328125 
Q 17.828125 56 27.875 56 
Q 33.9375 56 38.28125 53.609375 
Q 42.625 51.21875 45.40625 46.390625 
L 45.40625 54.6875 
L 54.390625 54.6875 
z
" id="DejaVuSans-103"/>
     <path d="M 19.671875 64.796875 
L 19.671875 37.40625 
L 32.078125 37.40625 
Q 38.96875 37.40625 42.71875 40.96875 
Q 46.484375 44.53125 46.484375 51.125 
Q 46.484375 57.671875 42.71875 61.234375 
Q 38.96875 64.796875 32.078125 64.796875 
z
M 9.8125 72.90625 
L 32.078125 72.90625 
Q 44.34375 72.90625 50.609375 67.359375 
Q 56.890625 61.8125 56.890625 51.125 
Q 56.890625 40.328125 50.609375 34.8125 
Q 44.34375 29.296875 32.078125 29.296875 
L 19.671875 29.296875 
L 19.671875 0 
L 9.8125 0 
z
" id="DejaVuSans-80"/>
     <path d="M 9.078125 75.984375 
L 18.109375 75.984375 
L 18.109375 31.109375 
L 44.921875 54.6875 
L 56.390625 54.6875 
L 27.390625 29.109375 
L 57.625 0 
L 45.90625 0 
L 18.109375 26.703125 
L 18.109375 0 
L 9.078125 0 
z
" id="DejaVuSans-107"/>
     <path d="M 39.40625 66.21875 
Q 28.65625 66.21875 22.328125 58.203125 
Q 16.015625 50.203125 16.015625 36.375 
Q 16.015625 22.609375 22.328125 14.59375 
Q 28.65625 6.59375 39.40625 6.59375 
Q 50.140625 6.59375 56.421875 14.59375 
Q 62.703125 22.609375 62.703125 36.375 
Q 62.703125 50.203125 56.421875 58.203125 
Q 50.140625 66.21875 39.40625 66.21875 
z
M 39.40625 74.21875 
Q 54.734375 74.21875 63.90625 63.9375 
Q 73.09375 53.65625 73.09375 36.375 
Q 73.09375 19.140625 63.90625 8.859375 
Q 54.734375 -1.421875 39.40625 -1.421875 
Q 24.03125 -1.421875 14.8125 8.828125 
Q 5.609375 19.09375 5.609375 36.375 
Q 5.609375 53.65625 14.8125 63.9375 
Q 24.03125 74.21875 39.40625 74.21875 
z
" id="DejaVuSans-79"/>
     <path d="M 14.796875 27.296875 
Q 14.796875 17.390625 18.875 11.75 
Q 22.953125 6.109375 30.078125 6.109375 
Q 37.203125 6.109375 41.296875 11.75 
Q 45.40625 17.390625 45.40625 27.296875 
Q 45.40625 37.203125 41.296875 42.84375 
Q 37.203125 48.484375 30.078125 48.484375 
Q 22.953125 48.484375 18.875 42.84375 
Q 14.796875 37.203125 14.796875 27.296875 
z
M 45.40625 8.203125 
Q 42.578125 3.328125 38.25 0.953125 
Q 33.9375 -1.421875 27.875 -1.421875 
Q 17.96875 -1.421875 11.734375 6.484375 
Q 5.515625 14.40625 5.515625 27.296875 
Q 5.515625 40.1875 11.734375 48.09375 
Q 17.96875 56 27.875 56 
Q 33.9375 56 38.25 53.625 
Q 42.578125 51.265625 45.40625 46.390625 
L 45.40625 54.6875 
L 54.390625 54.6875 
L 54.390625 -20.796875 
L 45.40625 -20.796875 
z
" id="DejaVuSans-113"/>
    </defs>
    <g transform="translate(198.148383 516.689427)rotate(-341.935875)scale(0.1 -0.1)">
     <use xlink:href="#DejaVuSans-71"/>
     <use x="77.490234" xlink:href="#DejaVuSans-108"/>
     <use x="105.273438" xlink:href="#DejaVuSans-111"/>
     <use x="166.455078" xlink:href="#DejaVuSans-98"/>
     <use x="229.931641" xlink:href="#DejaVuSans-97"/>
     <use x="291.210938" xlink:href="#DejaVuSans-108"/>
     <use x="318.994141" xlink:href="#DejaVuSans-32"/>
     <use x="350.78125" xlink:href="#DejaVuSans-87"/>
     <use x="449.564453" xlink:href="#DejaVuSans-97"/>
     <use x="510.84375" xlink:href="#DejaVuSans-114"/>
     <use x="551.941406" xlink:href="#DejaVuSans-109"/>
     <use x="649.353516" xlink:href="#DejaVuSans-105"/>
     <use x="677.136719" xlink:href="#DejaVuSans-110"/>
     <use x="740.515625" xlink:href="#DejaVuSans-103"/>
     <use x="803.992188" xlink:href="#DejaVuSans-32"/>
     <use x="835.779297" xlink:href="#DejaVuSans-80"/>
     <use x="896.035156" xlink:href="#DejaVuSans-111"/>
     <use x="957.216797" xlink:href="#DejaVuSans-116"/>
     <use x="996.425781" xlink:href="#DejaVuSans-101"/>
     <use x="1057.949219" xlink:href="#DejaVuSans-110"/>
     <use x="1121.328125" xlink:href="#DejaVuSans-116"/>
     <use x="1160.537109" xlink:href="#DejaVuSans-105"/>
     <use x="1188.320312" xlink:href="#DejaVuSans-97"/>
     <use x="1249.599609" xlink:href="#DejaVuSans-108"/>
     <use x="1277.382812" xlink:href="#DejaVuSans-32"/>
     <use x="1309.169922" xlink:href="#DejaVuSans-40"/>
     <use x="1348.183594" xlink:href="#DejaVuSans-107"/>
     <use x="1406.09375" xlink:href="#DejaVuSans-103"/>
     <use x="1469.570312" xlink:href="#DejaVuSans-67"/>
     <use x="1539.394531" xlink:href="#DejaVuSans-79"/>
     <use x="1618.105469" xlink:href="#DejaVuSans-50"/>
     <use x="1681.728516" xlink:href="#DejaVuSans-101"/>
     <use x="1743.251953" xlink:href="#DejaVuSans-113"/>
     <use x="1806.728516" xlink:href="#DejaVuSans-47"/>
     <use x="1840.419922" xlink:href="#DejaVuSans-104"/>
     <use x="1903.798828" xlink:href="#DejaVuSans-111"/>
     <use x="1964.980469" xlink:href="#DejaVuSans-117"/>
     <use x="2028.359375" xlink:href="#DejaVuSans-115"/>
     <use x="2080.458984" xlink:href="#DejaVuSans-101"/>
     <use x="2141.982422" xlink:href="#DejaVuSans-45"/>
     <use x="2178.050781" xlink:href="#DejaVuSans-121"/>
     <use x="2237.230469" xlink:href="#DejaVuSans-114"/>
     <use x="2278.34375" xlink:href="#DejaVuSans-41"/>
    </g>
   </g>
   <g id="Line3DCollection_2">
    <path d="M 1135.574283 154.282427 
L 1126.228165 522.432384 
L 438.070263 561.487918 
" style="fill:none;stroke:#b0b0b0;stroke-width:0.8;"/>
    <path d="M 1084.913001 146.644094 
L 1076.731066 509.901897 
L 396.321977 547.871402 
" style="fill:none;stroke:#b0b0b0;stroke-width:0.8;"/>
    <path d="M 1035.650558 139.216668 
L 1028.573088 497.710417 
L 355.750088 534.638576 
" style="fill:none;stroke:#b0b0b0;stroke-width:0.8;"/>
    <path d="M 987.729805 131.991532 
L 981.700614 485.844369 
L 316.305561 521.773448 
" style="fill:none;stroke:#b0b0b0;stroke-width:0.8;"/>
    <path d="M 941.096667 124.960533 
L 936.06285 474.290896 
L 277.942054 509.260902 
" style="fill:none;stroke:#b0b0b0;stroke-width:0.8;"/>
    <path d="M 895.699934 118.115949 
L 891.611643 463.037806 
L 240.615725 497.08664 
" style="fill:none;stroke:#b0b0b0;stroke-width:0.8;"/>
   </g>
   <g id="xtick_9">
    <g id="line2d_11">
     <path d="M 443.808861 561.162231 
L 426.581283 562.139961 
" style="fill:none;stroke:#000000;stroke-linecap:square;stroke-width:0.8;"/>
    </g>
    <g id="text_11">
     <!-- 4 -->
     <g transform="translate(418.932664 578.401732)scale(0.1 -0.1)">
      <use xlink:href="#DejaVuSans-52"/>
     </g>
    </g>
   </g>
   <g id="xtick_10">
    <g id="line2d_12">
     <path d="M 401.992662 547.554955 
L 384.969132 548.504935 
" style="fill:none;stroke:#000000;stroke-linecap:square;stroke-width:0.8;"/>
    </g>
    <g id="text_12">
     <!-- 6 -->
     <defs>
      <path d="M 33.015625 40.375 
Q 26.375 40.375 22.484375 35.828125 
Q 18.609375 31.296875 18.609375 23.390625 
Q 18.609375 15.53125 22.484375 10.953125 
Q 26.375 6.390625 33.015625 6.390625 
Q 39.65625 6.390625 43.53125 10.953125 
Q 47.40625 15.53125 47.40625 23.390625 
Q 47.40625 31.296875 43.53125 35.828125 
Q 39.65625 40.375 33.015625 40.375 
z
M 52.59375 71.296875 
L 52.59375 62.3125 
Q 48.875 64.0625 45.09375 64.984375 
Q 41.3125 65.921875 37.59375 65.921875 
Q 27.828125 65.921875 22.671875 59.328125 
Q 17.53125 52.734375 16.796875 39.40625 
Q 19.671875 43.65625 24.015625 45.921875 
Q 28.375 48.1875 33.59375 48.1875 
Q 44.578125 48.1875 50.953125 41.515625 
Q 57.328125 34.859375 57.328125 23.390625 
Q 57.328125 12.15625 50.6875 5.359375 
Q 44.046875 -1.421875 33.015625 -1.421875 
Q 20.359375 -1.421875 13.671875 8.265625 
Q 6.984375 17.96875 6.984375 36.375 
Q 6.984375 53.65625 15.1875 63.9375 
Q 23.390625 74.21875 37.203125 74.21875 
Q 40.921875 74.21875 44.703125 73.484375 
Q 48.484375 72.75 52.59375 71.296875 
z
" id="DejaVuSans-54"/>
     </defs>
     <g transform="translate(377.393038 564.645682)scale(0.1 -0.1)">
      <use xlink:href="#DejaVuSans-54"/>
     </g>
    </g>
   </g>
   <g id="xtick_11">
    <g id="line2d_13">
     <path d="M 361.354381 534.330982 
L 344.530319 535.254377 
" style="fill:none;stroke:#000000;stroke-linecap:square;stroke-width:0.8;"/>
    </g>
    <g id="text_13">
     <!-- 8 -->
     <defs>
      <path d="M 31.78125 34.625 
Q 24.75 34.625 20.71875 30.859375 
Q 16.703125 27.09375 16.703125 20.515625 
Q 16.703125 13.921875 20.71875 10.15625 
Q 24.75 6.390625 31.78125 6.390625 
Q 38.8125 6.390625 42.859375 10.171875 
Q 46.921875 13.96875 46.921875 20.515625 
Q 46.921875 27.09375 42.890625 30.859375 
Q 38.875 34.625 31.78125 34.625 
z
M 21.921875 38.8125 
Q 15.578125 40.375 12.03125 44.71875 
Q 8.5 49.078125 8.5 55.328125 
Q 8.5 64.0625 14.71875 69.140625 
Q 20.953125 74.21875 31.78125 74.21875 
Q 42.671875 74.21875 48.875 69.140625 
Q 55.078125 64.0625 55.078125 55.328125 
Q 55.078125 49.078125 51.53125 44.71875 
Q 48 40.375 41.703125 38.8125 
Q 48.828125 37.15625 52.796875 32.3125 
Q 56.78125 27.484375 56.78125 20.515625 
Q 56.78125 9.90625 50.3125 4.234375 
Q 43.84375 -1.421875 31.78125 -1.421875 
Q 19.734375 -1.421875 13.25 4.234375 
Q 6.78125 9.90625 6.78125 20.515625 
Q 6.78125 27.484375 10.78125 32.3125 
Q 14.796875 37.15625 21.921875 38.8125 
z
M 18.3125 54.390625 
Q 18.3125 48.734375 21.84375 45.5625 
Q 25.390625 42.390625 31.78125 42.390625 
Q 38.140625 42.390625 41.71875 45.5625 
Q 45.3125 48.734375 45.3125 54.390625 
Q 45.3125 60.0625 41.71875 63.234375 
Q 38.140625 66.40625 31.78125 66.40625 
Q 25.390625 66.40625 21.84375 63.234375 
Q 18.3125 60.0625 18.3125 54.390625 
z
" id="DejaVuSans-56"/>
     </defs>
     <g transform="translate(337.024466 551.277432)scale(0.1 -0.1)">
      <use xlink:href="#DejaVuSans-56"/>
     </g>
    </g>
   </g>
   <g id="xtick_12">
    <g id="line2d_14">
     <path d="M 321.844938 521.47434 
L 305.215909 522.372251 
" style="fill:none;stroke:#000000;stroke-linecap:square;stroke-width:0.8;"/>
    </g>
    <g id="text_14">
     <!-- 10 -->
     <g transform="translate(294.596867 538.280811)scale(0.1 -0.1)">
      <use xlink:href="#DejaVuSans-49"/>
      <use x="63.623047" xlink:href="#DejaVuSans-48"/>
     </g>
    </g>
   </g>
   <g id="xtick_13">
    <g id="line2d_15">
     <path d="M 283.417943 508.969934 
L 266.979649 509.843402 
" style="fill:none;stroke:#000000;stroke-linecap:square;stroke-width:0.8;"/>
    </g>
    <g id="text_15">
     <!-- 12 -->
     <g transform="translate(256.426586 525.640536)scale(0.1 -0.1)">
      <use xlink:href="#DejaVuSans-49"/>
      <use x="63.623047" xlink:href="#DejaVuSans-50"/>
     </g>
    </g>
   </g>
   <g id="xtick_14">
    <g id="line2d_16">
     <path d="M 246.029513 496.803484 
L 229.777787 497.653493 
" style="fill:none;stroke:#000000;stroke-linecap:square;stroke-width:0.8;"/>
    </g>
    <g id="text_16">
     <!-- 14 -->
     <g transform="translate(219.288716 513.342149)scale(0.1 -0.1)">
      <use xlink:href="#DejaVuSans-49"/>
      <use x="63.623047" xlink:href="#DejaVuSans-52"/>
     </g>
    </g>
   </g>
  </g>
  <g id="axis3d_3">
   <g id="line2d_17">
    <path d="M 215.34454 488.844253 
L 205.777084 133.817761 
" style="fill:none;stroke:#000000;stroke-linecap:square;stroke-width:0.8;"/>
   </g>
   <g id="text_17">
    <!-- Degree of Circularity (Industrial Perspective) -->
    <defs>
     <path d="M 19.671875 64.796875 
L 19.671875 8.109375 
L 31.59375 8.109375 
Q 46.6875 8.109375 53.6875 14.9375 
Q 60.6875 21.78125 60.6875 36.53125 
Q 60.6875 51.171875 53.6875 57.984375 
Q 46.6875 64.796875 31.59375 64.796875 
z
M 9.8125 72.90625 
L 30.078125 72.90625 
Q 51.265625 72.90625 61.171875 64.09375 
Q 71.09375 55.28125 71.09375 36.53125 
Q 71.09375 17.671875 61.125 8.828125 
Q 51.171875 0 30.078125 0 
L 9.8125 0 
z
" id="DejaVuSans-68"/>
     <path d="M 9.8125 72.90625 
L 19.671875 72.90625 
L 19.671875 0 
L 9.8125 0 
z
" id="DejaVuSans-73"/>
     <path d="M 45.40625 46.390625 
L 45.40625 75.984375 
L 54.390625 75.984375 
L 54.390625 0 
L 45.40625 0 
L 45.40625 8.203125 
Q 42.578125 3.328125 38.25 0.953125 
Q 33.9375 -1.421875 27.875 -1.421875 
Q 17.96875 -1.421875 11.734375 6.484375 
Q 5.515625 14.40625 5.515625 27.296875 
Q 5.515625 40.1875 11.734375 48.09375 
Q 17.96875 56 27.875 56 
Q 33.9375 56 38.25 53.625 
Q 42.578125 51.265625 45.40625 46.390625 
z
M 14.796875 27.296875 
Q 14.796875 17.390625 18.875 11.75 
Q 22.953125 6.109375 30.078125 6.109375 
Q 37.203125 6.109375 41.296875 11.75 
Q 45.40625 17.390625 45.40625 27.296875 
Q 45.40625 37.203125 41.296875 42.84375 
Q 37.203125 48.484375 30.078125 48.484375 
Q 22.953125 48.484375 18.875 42.84375 
Q 14.796875 37.203125 14.796875 27.296875 
z
" id="DejaVuSans-100"/>
     <path d="M 18.109375 8.203125 
L 18.109375 -20.796875 
L 9.078125 -20.796875 
L 9.078125 54.6875 
L 18.109375 54.6875 
L 18.109375 46.390625 
Q 20.953125 51.265625 25.265625 53.625 
Q 29.59375 56 35.59375 56 
Q 45.5625 56 51.78125 48.09375 
Q 58.015625 40.1875 58.015625 27.296875 
Q 58.015625 14.40625 51.78125 6.484375 
Q 45.5625 -1.421875 35.59375 -1.421875 
Q 29.59375 -1.421875 25.265625 0.953125 
Q 20.953125 3.328125 18.109375 8.203125 
z
M 48.6875 27.296875 
Q 48.6875 37.203125 44.609375 42.84375 
Q 40.53125 48.484375 33.40625 48.484375 
Q 26.265625 48.484375 22.1875 42.84375 
Q 18.109375 37.203125 18.109375 27.296875 
Q 18.109375 17.390625 22.1875 11.75 
Q 26.265625 6.109375 33.40625 6.109375 
Q 40.53125 6.109375 44.609375 11.75 
Q 48.6875 17.390625 48.6875 27.296875 
z
" id="DejaVuSans-112"/>
     <path d="M 2.984375 54.6875 
L 12.5 54.6875 
L 29.59375 8.796875 
L 46.6875 54.6875 
L 56.203125 54.6875 
L 35.6875 0 
L 23.484375 0 
z
" id="DejaVuSans-118"/>
    </defs>
    <g transform="translate(159.969753 199.845029)rotate(-271.543666)scale(0.1 -0.1)">
     <use xlink:href="#DejaVuSans-68"/>
     <use x="77.001953" xlink:href="#DejaVuSans-101"/>
     <use x="138.525391" xlink:href="#DejaVuSans-103"/>
     <use x="202.001953" xlink:href="#DejaVuSans-114"/>
     <use x="243.083984" xlink:href="#DejaVuSans-101"/>
     <use x="304.607422" xlink:href="#DejaVuSans-101"/>
     <use x="366.130859" xlink:href="#DejaVuSans-32"/>
     <use x="397.917969" xlink:href="#DejaVuSans-111"/>
     <use x="459.099609" xlink:href="#DejaVuSans-102"/>
     <use x="494.304688" xlink:href="#DejaVuSans-32"/>
     <use x="526.091797" xlink:href="#DejaVuSans-67"/>
     <use x="595.916016" xlink:href="#DejaVuSans-105"/>
     <use x="623.699219" xlink:href="#DejaVuSans-114"/>
     <use x="664.78125" xlink:href="#DejaVuSans-99"/>
     <use x="719.761719" xlink:href="#DejaVuSans-117"/>
     <use x="783.140625" xlink:href="#DejaVuSans-108"/>
     <use x="810.923828" xlink:href="#DejaVuSans-97"/>
     <use x="872.203125" xlink:href="#DejaVuSans-114"/>
     <use x="913.316406" xlink:href="#DejaVuSans-105"/>
     <use x="941.099609" xlink:href="#DejaVuSans-116"/>
     <use x="980.308594" xlink:href="#DejaVuSans-121"/>
     <use x="1039.488281" xlink:href="#DejaVuSans-32"/>
     <use x="1071.275391" xlink:href="#DejaVuSans-40"/>
     <use x="1110.289062" xlink:href="#DejaVuSans-73"/>
     <use x="1139.78125" xlink:href="#DejaVuSans-110"/>
     <use x="1203.160156" xlink:href="#DejaVuSans-100"/>
     <use x="1266.636719" xlink:href="#DejaVuSans-117"/>
     <use x="1330.015625" xlink:href="#DejaVuSans-115"/>
     <use x="1382.115234" xlink:href="#DejaVuSans-116"/>
     <use x="1421.324219" xlink:href="#DejaVuSans-114"/>
     <use x="1462.4375" xlink:href="#DejaVuSans-105"/>
     <use x="1490.220703" xlink:href="#DejaVuSans-97"/>
     <use x="1551.5" xlink:href="#DejaVuSans-108"/>
     <use x="1579.283203" xlink:href="#DejaVuSans-32"/>
     <use x="1611.070312" xlink:href="#DejaVuSans-80"/>
     <use x="1671.326172" xlink:href="#DejaVuSans-101"/>
     <use x="1732.849609" xlink:href="#DejaVuSans-114"/>
     <use x="1773.962891" xlink:href="#DejaVuSans-115"/>
     <use x="1826.0625" xlink:href="#DejaVuSans-112"/>
     <use x="1889.539062" xlink:href="#DejaVuSans-101"/>
     <use x="1951.0625" xlink:href="#DejaVuSans-99"/>
     <use x="2006.042969" xlink:href="#DejaVuSans-116"/>
     <use x="2045.251953" xlink:href="#DejaVuSans-105"/>
     <use x="2073.035156" xlink:href="#DejaVuSans-118"/>
     <use x="2132.214844" xlink:href="#DejaVuSans-101"/>
     <use x="2193.738281" xlink:href="#DejaVuSans-41"/>
    </g>
   </g>
   <g id="Line3DCollection_3">
    <path d="M 214.747102 466.674704 
L 861.706437 434.04498 
L 1180.045397 512.595703 
" style="fill:none;stroke:#b0b0b0;stroke-width:0.8;"/>
    <path d="M 213.009566 402.198717 
L 862.335325 371.913654 
L 1181.974275 444.834414 
" style="fill:none;stroke:#b0b0b0;stroke-width:0.8;"/>
    <path d="M 211.259138 337.244312 
L 862.968701 309.338965 
L 1183.918238 376.543211 
" style="fill:none;stroke:#b0b0b0;stroke-width:0.8;"/>
    <path d="M 209.495673 271.806145 
L 863.606612 246.316151 
L 1185.877462 307.715852 
" style="fill:none;stroke:#b0b0b0;stroke-width:0.8;"/>
    <path d="M 207.719025 205.87879 
L 864.249108 182.84038 
L 1187.852129 238.345999 
" style="fill:none;stroke:#b0b0b0;stroke-width:0.8;"/>
   </g>
   <g id="xtick_15">
    <g id="line2d_18">
     <path d="M 220.125682 466.403433 
L 203.97973 467.217762 
" style="fill:none;stroke:#000000;stroke-linecap:square;stroke-width:0.8;"/>
    </g>
    <g id="text_18">
     <!-- 0.0 -->
     <g transform="translate(186.301397 473.298198)scale(0.1 -0.1)">
      <use xlink:href="#DejaVuSans-48"/>
      <use x="63.623047" xlink:href="#DejaVuSans-46"/>
      <use x="95.410156" xlink:href="#DejaVuSans-48"/>
     </g>
    </g>
   </g>
   <g id="xtick_16">
    <g id="line2d_19">
     <path d="M 218.408572 401.946903 
L 202.201265 402.702825 
" style="fill:none;stroke:#000000;stroke-linecap:square;stroke-width:0.8;"/>
    </g>
    <g id="text_19">
     <!-- 0.1 -->
     <g transform="translate(184.490176 408.892144)scale(0.1 -0.1)">
      <use xlink:href="#DejaVuSans-48"/>
      <use x="63.623047" xlink:href="#DejaVuSans-46"/>
      <use x="95.410156" xlink:href="#DejaVuSans-49"/>
     </g>
    </g>
   </g>
   <g id="xtick_17">
    <g id="line2d_20">
     <path d="M 216.678726 337.012252 
L 200.409596 337.708875 
" style="fill:none;stroke:#000000;stroke-linecap:square;stroke-width:0.8;"/>
    </g>
    <g id="text_20">
     <!-- 0.2 -->
     <g transform="translate(182.665531 344.008737)scale(0.1 -0.1)">
      <use xlink:href="#DejaVuSans-48"/>
      <use x="63.623047" xlink:href="#DejaVuSans-46"/>
      <use x="95.410156" xlink:href="#DejaVuSans-50"/>
     </g>
    </g>
   </g>
   <g id="xtick_18">
    <g id="line2d_21">
     <path d="M 214.936 271.594141 
L 198.604574 272.230559 
" style="fill:none;stroke:#000000;stroke-linecap:square;stroke-width:0.8;"/>
    </g>
    <g id="text_21">
     <!-- 0.3 -->
     <g transform="translate(180.827313 278.642653)scale(0.1 -0.1)">
      <use xlink:href="#DejaVuSans-48"/>
      <use x="63.623047" xlink:href="#DejaVuSans-46"/>
      <use x="95.410156" xlink:href="#DejaVuSans-51"/>
     </g>
    </g>
   </g>
   <g id="xtick_19">
    <g id="line2d_22">
     <path d="M 213.18025 205.68715 
L 196.786051 206.262441 
" style="fill:none;stroke:#000000;stroke-linecap:square;stroke-width:0.8;"/>
    </g>
    <g id="text_22">
     <!-- 0.4 -->
     <g transform="translate(178.975368 212.788483)scale(0.1 -0.1)">
      <use xlink:href="#DejaVuSans-48"/>
      <use x="63.623047" xlink:href="#DejaVuSans-46"/>
      <use x="95.410156" xlink:href="#DejaVuSans-52"/>
     </g>
    </g>
   </g>
  </g>
  <g id="axes_1">
   <g id="Poly3DCollection_1">
    <path clip-path="url(#p9388a8fd20)" d="M 777.508316 154.533871 
L 779.224057 154.138846 
L 843.109191 139.933614 
z
" style="fill:#440154;"/>
    <path clip-path="url(#p9388a8fd20)" d="M 779.224057 154.138846 
L 565.697926 261.012284 
L 843.109191 139.933614 
z
" style="fill:#481769;"/>
    <path clip-path="url(#p9388a8fd20)" d="M 714.365657 169.293836 
L 646.512238 186.735854 
L 710.881829 170.169897 
z
" style="fill:#46075a;"/>
    <path clip-path="url(#p9388a8fd20)" d="M 565.697926 261.012284 
L 779.224057 154.138846 
L 777.508316 154.533871 
z
" style="fill:#481769;"/>
    <path clip-path="url(#p9388a8fd20)" d="M 567.88072 210.938755 
L 714.365657 169.293836 
L 777.508316 154.533871 
z
" style="fill:#460a5d;"/>
    <path clip-path="url(#p9388a8fd20)" d="M 777.508316 154.533871 
L 714.365657 169.293836 
L 565.697926 261.012284 
z
" style="fill:#48186a;"/>
    <path clip-path="url(#p9388a8fd20)" d="M 641.065985 188.277822 
L 646.512238 186.735854 
L 714.365657 169.293836 
z
" style="fill:#46085c;"/>
    <path clip-path="url(#p9388a8fd20)" d="M 710.881829 170.169897 
L 565.697926 261.012284 
L 714.365657 169.293836 
z
" style="fill:#481a6c;"/>
    <path clip-path="url(#p9388a8fd20)" d="M 567.88072 210.938755 
L 641.065985 188.277822 
L 714.365657 169.293836 
z
" style="fill:#470d60;"/>
    <path clip-path="url(#p9388a8fd20)" d="M 646.512238 186.735854 
L 565.697926 261.012284 
L 710.881829 170.169897 
z
" style="fill:#481b6d;"/>
    <path clip-path="url(#p9388a8fd20)" d="M 646.512238 186.735854 
L 641.065985 188.277822 
L 565.697926 261.012284 
z
" style="fill:#481d6f;"/>
    <path clip-path="url(#p9388a8fd20)" d="M 575.46593 208.313988 
L 641.065985 188.277822 
L 567.88072 210.938755 
z
" style="fill:#471164;"/>
    <path clip-path="url(#p9388a8fd20)" d="M 565.697926 261.012284 
L 641.065985 188.277822 
L 575.46593 208.313988 
z
" style="fill:#482071;"/>
    <path clip-path="url(#p9388a8fd20)" d="M 552.285882 251.821539 
L 575.46593 208.313988 
L 567.88072 210.938755 
z
" style="fill:#482374;"/>
    <path clip-path="url(#p9388a8fd20)" d="M 567.88072 210.938755 
L 505.228664 537.145083 
L 552.285882 251.821539 
z
" style="fill:#25838e;"/>
    <path clip-path="url(#p9388a8fd20)" d="M 523.961582 435.214745 
L 505.228664 537.145083 
L 505.870682 542.100847 
z
" style="fill:#fde725;"/>
    <path clip-path="url(#p9388a8fd20)" d="M 523.961582 435.214745 
L 552.285882 251.821539 
L 505.228664 537.145083 
z
" style="fill:#3bbb75;"/>
    <path clip-path="url(#p9388a8fd20)" d="M 565.697926 261.012284 
L 575.46593 208.313988 
L 552.285882 251.821539 
z
" style="fill:#472f7d;"/>
    <path clip-path="url(#p9388a8fd20)" d="M 505.870682 542.100847 
L 509.643719 441.52356 
L 523.961582 435.214745 
z
" style="fill:#b5de2b;"/>
    <path clip-path="url(#p9388a8fd20)" d="M 565.697926 261.012284 
L 552.285882 251.821539 
L 523.961582 435.214745 
z
" style="fill:#2c718e;"/>
    <path clip-path="url(#p9388a8fd20)" d="M 509.643719 441.52356 
L 563.795572 261.166116 
L 523.961582 435.214745 
z
" style="fill:#1fa287;"/>
    <path clip-path="url(#p9388a8fd20)" d="M 523.961582 435.214745 
L 563.795572 261.166116 
L 565.697926 261.012284 
z
" style="fill:#2c728e;"/>
    <path clip-path="url(#p9388a8fd20)" d="M 563.987515 261.1586 
L 564.07476 261.155183 
L 565.697926 261.012284 
z
" style="fill:#433e85;"/>
    <path clip-path="url(#p9388a8fd20)" d="M 565.697926 261.012284 
L 563.795572 261.166116 
L 563.987515 261.1586 
z
" style="fill:#433e85;"/>
   </g>
   <g id="Path3DCollection_1">
    <defs>
     <path d="M 0 1.369306 
C 0.363144 1.369306 0.711464 1.225028 0.968246 0.968246 
C 1.225028 0.711464 1.369306 0.363144 1.369306 0 
C 1.369306 -0.363144 1.225028 -0.711464 0.968246 -0.968246 
C 0.711464 -1.225028 0.363144 -1.369306 0 -1.369306 
C -0.363144 -1.369306 -0.711464 -1.225028 -0.968246 -0.968246 
C -1.225028 -0.711464 -1.369306 -0.363144 -1.369306 0 
C -1.369306 0.363144 -1.225028 0.711464 -0.968246 0.968246 
C -0.711464 1.225028 -0.363144 1.369306 0 1.369306 
z
" id="C0_0_ce0715bc3f"/>
    </defs>
    <g clip-path="url(#p9388a8fd20)">
     <use style="fill-opacity:0.7;stroke:#000000;stroke-opacity:0.7;" x="843.109191" xlink:href="#C0_0_ce0715bc3f" y="139.933614"/>
    </g>
    <g clip-path="url(#p9388a8fd20)">
     <use style="fill-opacity:0.7;stroke:#000000;stroke-opacity:0.7;" x="565.697926" xlink:href="#C0_0_ce0715bc3f" y="261.012284"/>
    </g>
    <g clip-path="url(#p9388a8fd20)">
     <use style="fill-opacity:0.7;stroke:#000000;stroke-opacity:0.7;" x="505.870682" xlink:href="#C0_0_ce0715bc3f" y="542.100847"/>
    </g>
    <g clip-path="url(#p9388a8fd20)">
     <use style="fill-opacity:0.7;stroke:#000000;stroke-opacity:0.7;" x="509.643719" xlink:href="#C0_0_ce0715bc3f" y="441.52356"/>
    </g>
    <g clip-path="url(#p9388a8fd20)">
     <use style="fill-opacity:0.7;stroke:#000000;stroke-opacity:0.7;" x="563.987515" xlink:href="#C0_0_ce0715bc3f" y="261.1586"/>
    </g>
    <g clip-path="url(#p9388a8fd20)">
     <use style="fill-opacity:0.7;stroke:#000000;stroke-opacity:0.7;" x="564.07476" xlink:href="#C0_0_ce0715bc3f" y="261.155183"/>
    </g>
    <g clip-path="url(#p9388a8fd20)">
     <use style="fill-opacity:0.7;stroke:#000000;stroke-opacity:0.7;" x="563.795572" xlink:href="#C0_0_ce0715bc3f" y="261.166116"/>
    </g>
    <g clip-path="url(#p9388a8fd20)">
     <use style="fill-opacity:0.7;stroke:#000000;stroke-opacity:0.7;" x="563.987515" xlink:href="#C0_0_ce0715bc3f" y="261.1586"/>
    </g>
    <g clip-path="url(#p9388a8fd20)">
     <use style="fill-opacity:0.7;stroke:#000000;stroke-opacity:0.7;" x="505.228664" xlink:href="#C0_0_ce0715bc3f" y="537.145083"/>
    </g>
    <g clip-path="url(#p9388a8fd20)">
     <use style="fill-opacity:0.7;stroke:#000000;stroke-opacity:0.7;" x="567.88072" xlink:href="#C0_0_ce0715bc3f" y="210.938755"/>
    </g>
    <g clip-path="url(#p9388a8fd20)">
     <use style="fill-opacity:0.7;stroke:#000000;stroke-opacity:0.7;" x="567.88072" xlink:href="#C0_0_ce0715bc3f" y="210.938755"/>
    </g>
    <g clip-path="url(#p9388a8fd20)">
     <use style="fill-opacity:0.7;stroke:#000000;stroke-opacity:0.7;" x="567.88072" xlink:href="#C0_0_ce0715bc3f" y="210.938755"/>
    </g>
    <g clip-path="url(#p9388a8fd20)">
     <use style="fill-opacity:0.7;stroke:#000000;stroke-opacity:0.7;" x="567.88072" xlink:href="#C0_0_ce0715bc3f" y="210.938755"/>
    </g>
    <g clip-path="url(#p9388a8fd20)">
     <use style="fill-opacity:0.7;stroke:#000000;stroke-opacity:0.7;" x="567.88072" xlink:href="#C0_0_ce0715bc3f" y="210.938755"/>
    </g>
    <g clip-path="url(#p9388a8fd20)">
     <use style="fill-opacity:0.7;stroke:#000000;stroke-opacity:0.7;" x="575.46593" xlink:href="#C0_0_ce0715bc3f" y="208.313988"/>
    </g>
    <g clip-path="url(#p9388a8fd20)">
     <use style="fill-opacity:0.7;stroke:#000000;stroke-opacity:0.7;" x="641.065985" xlink:href="#C0_0_ce0715bc3f" y="188.277822"/>
    </g>
    <g clip-path="url(#p9388a8fd20)">
     <use style="fill-opacity:0.7;stroke:#000000;stroke-opacity:0.7;" x="641.065985" xlink:href="#C0_0_ce0715bc3f" y="188.277822"/>
    </g>
    <g clip-path="url(#p9388a8fd20)">
     <use style="fill-opacity:0.7;stroke:#000000;stroke-opacity:0.7;" x="575.46593" xlink:href="#C0_0_ce0715bc3f" y="208.313988"/>
    </g>
    <g clip-path="url(#p9388a8fd20)">
     <use style="fill-opacity:0.7;stroke:#000000;stroke-opacity:0.7;" x="646.512238" xlink:href="#C0_0_ce0715bc3f" y="186.735854"/>
    </g>
    <g clip-path="url(#p9388a8fd20)">
     <use style="fill-opacity:0.7;stroke:#000000;stroke-opacity:0.7;" x="710.881829" xlink:href="#C0_0_ce0715bc3f" y="170.169897"/>
    </g>
    <g clip-path="url(#p9388a8fd20)">
     <use style="fill-opacity:0.7;stroke:#000000;stroke-opacity:0.7;" x="710.881829" xlink:href="#C0_0_ce0715bc3f" y="170.169897"/>
    </g>
    <g clip-path="url(#p9388a8fd20)">
     <use style="fill-opacity:0.7;stroke:#000000;stroke-opacity:0.7;" x="575.46593" xlink:href="#C0_0_ce0715bc3f" y="208.313988"/>
    </g>
    <g clip-path="url(#p9388a8fd20)">
     <use style="fill-opacity:0.7;stroke:#000000;stroke-opacity:0.7;" x="646.512238" xlink:href="#C0_0_ce0715bc3f" y="186.735854"/>
    </g>
    <g clip-path="url(#p9388a8fd20)">
     <use style="fill-opacity:0.7;stroke:#000000;stroke-opacity:0.7;" x="777.508316" xlink:href="#C0_0_ce0715bc3f" y="154.533871"/>
    </g>
    <g clip-path="url(#p9388a8fd20)">
     <use style="fill-opacity:0.7;stroke:#000000;stroke-opacity:0.7;" x="777.508316" xlink:href="#C0_0_ce0715bc3f" y="154.533871"/>
    </g>
    <g clip-path="url(#p9388a8fd20)">
     <use style="fill-opacity:0.7;stroke:#000000;stroke-opacity:0.7;" x="505.228664" xlink:href="#C0_0_ce0715bc3f" y="537.145083"/>
    </g>
    <g clip-path="url(#p9388a8fd20)">
     <use style="fill-opacity:0.7;stroke:#000000;stroke-opacity:0.7;" x="575.46593" xlink:href="#C0_0_ce0715bc3f" y="208.313988"/>
    </g>
    <g clip-path="url(#p9388a8fd20)">
     <use style="fill-opacity:0.7;stroke:#000000;stroke-opacity:0.7;" x="646.512238" xlink:href="#C0_0_ce0715bc3f" y="186.735854"/>
    </g>
    <g clip-path="url(#p9388a8fd20)">
     <use style="fill-opacity:0.7;stroke:#000000;stroke-opacity:0.7;" x="714.365657" xlink:href="#C0_0_ce0715bc3f" y="169.293836"/>
    </g>
    <g clip-path="url(#p9388a8fd20)">
     <use style="fill-opacity:0.7;stroke:#000000;stroke-opacity:0.7;" x="779.224057" xlink:href="#C0_0_ce0715bc3f" y="154.138846"/>
    </g>
    <g clip-path="url(#p9388a8fd20)">
     <use style="fill-opacity:0.7;stroke:#000000;stroke-opacity:0.7;" x="552.285882" xlink:href="#C0_0_ce0715bc3f" y="251.821539"/>
    </g>
    <g clip-path="url(#p9388a8fd20)">
     <use style="fill-opacity:0.7;stroke:#000000;stroke-opacity:0.7;" x="523.961582" xlink:href="#C0_0_ce0715bc3f" y="435.214745"/>
    </g>
   </g>
  </g>
 </g>
 <defs>
  <clipPath id="p9388a8fd20">
   <rect height="659.52" width="1312.56" x="10.8" y="10.8"/>
  </clipPath>
 </defs>
</svg>
