<?xml version="1.0" encoding="utf-8" standalone="no"?>
<!DOCTYPE svg PUBLIC "-//W3C//DTD SVG 1.1//EN"
  "http://www.w3.org/Graphics/SVG/1.1/DTD/svg11.dtd">
<!-- Created with matplotlib (https://matplotlib.org/) -->
<svg height="345.6pt" version="1.1" viewBox="0 0 460.8 345.6" width="460.8pt" xmlns="http://www.w3.org/2000/svg" xmlns:xlink="http://www.w3.org/1999/xlink">
 <defs>
  <style type="text/css">
*{stroke-linecap:butt;stroke-linejoin:round;}
  </style>
 </defs>
 <g id="figure_1">
  <g id="patch_1">
   <path d="M 0 345.6 
L 460.8 345.6 
L 460.8 0 
L 0 0 
z
" style="fill:#ffffff;"/>
  </g>
  <g id="patch_2">
   <path d="M 57.6 307.584 
L 414.72 307.584 
L 414.72 41.472 
L 57.6 41.472 
z
" style="fill:#ffffff;"/>
  </g>
  <g id="pane3d_1">
   <g id="patch_3">
    <path d="M 375.112876 254.290992 
L 285.860956 200.614983 
L 287.53718 68.736292 
L 380.581129 112.539907 
" style="fill:#f2f2f2;opacity:0.5;stroke:#f2f2f2;stroke-linejoin:miter;"/>
   </g>
  </g>
  <g id="pane3d_2">
   <g id="patch_4">
    <path d="M 112.867262 224.523314 
L 285.860956 200.614983 
L 287.53718 68.736292 
L 107.887035 88.2117 
" style="fill:#e6e6e6;opacity:0.5;stroke:#e6e6e6;stroke-linejoin:miter;"/>
   </g>
  </g>
  <g id="pane3d_3">
   <g id="patch_5">
    <path d="M 190.081955 282.683257 
L 375.112876 254.290992 
L 285.860956 200.614983 
L 112.867262 224.523314 
" style="fill:#ececec;opacity:0.5;stroke:#ececec;stroke-linejoin:miter;"/>
   </g>
  </g>
  <g id="axis3d_1">
   <g id="line2d_1">
    <path d="M 375.112876 254.290992 
L 190.081955 282.683257 
" style="fill:none;stroke:#000000;stroke-linecap:square;stroke-width:0.8;"/>
   </g>
   <g id="text_1">
    <!-- Life Cycle Cost -->
    <defs>
     <path d="M 9.8125 72.90625 
L 19.671875 72.90625 
L 19.671875 8.296875 
L 55.171875 8.296875 
L 55.171875 0 
L 9.8125 0 
z
" id="DejaVuSans-76"/>
     <path d="M 9.421875 54.6875 
L 18.40625 54.6875 
L 18.40625 0 
L 9.421875 0 
z
M 9.421875 75.984375 
L 18.40625 75.984375 
L 18.40625 64.59375 
L 9.421875 64.59375 
z
" id="DejaVuSans-105"/>
     <path d="M 37.109375 75.984375 
L 37.109375 68.5 
L 28.515625 68.5 
Q 23.6875 68.5 21.796875 66.546875 
Q 19.921875 64.59375 19.921875 59.515625 
L 19.921875 54.6875 
L 34.71875 54.6875 
L 34.71875 47.703125 
L 19.921875 47.703125 
L 19.921875 0 
L 10.890625 0 
L 10.890625 47.703125 
L 2.296875 47.703125 
L 2.296875 54.6875 
L 10.890625 54.6875 
L 10.890625 58.5 
Q 10.890625 67.625 15.140625 71.796875 
Q 19.390625 75.984375 28.609375 75.984375 
z
" id="DejaVuSans-102"/>
     <path d="M 56.203125 29.59375 
L 56.203125 25.203125 
L 14.890625 25.203125 
Q 15.484375 15.921875 20.484375 11.0625 
Q 25.484375 6.203125 34.421875 6.203125 
Q 39.59375 6.203125 44.453125 7.46875 
Q 49.3125 8.734375 54.109375 11.28125 
L 54.109375 2.78125 
Q 49.265625 0.734375 44.1875 -0.34375 
Q 39.109375 -1.421875 33.890625 -1.421875 
Q 20.796875 -1.421875 13.15625 6.1875 
Q 5.515625 13.8125 5.515625 26.8125 
Q 5.515625 40.234375 12.765625 48.109375 
Q 20.015625 56 32.328125 56 
Q 43.359375 56 49.78125 48.890625 
Q 56.203125 41.796875 56.203125 29.59375 
z
M 47.21875 32.234375 
Q 47.125 39.59375 43.09375 43.984375 
Q 39.0625 48.390625 32.421875 48.390625 
Q 24.90625 48.390625 20.390625 44.140625 
Q 15.875 39.890625 15.1875 32.171875 
z
" id="DejaVuSans-101"/>
     <path id="DejaVuSans-32"/>
     <path d="M 64.40625 67.28125 
L 64.40625 56.890625 
Q 59.421875 61.53125 53.78125 63.8125 
Q 48.140625 66.109375 41.796875 66.109375 
Q 29.296875 66.109375 22.65625 58.46875 
Q 16.015625 50.828125 16.015625 36.375 
Q 16.015625 21.96875 22.65625 14.328125 
Q 29.296875 6.6875 41.796875 6.6875 
Q 48.140625 6.6875 53.78125 8.984375 
Q 59.421875 11.28125 64.40625 15.921875 
L 64.40625 5.609375 
Q 59.234375 2.09375 53.4375 0.328125 
Q 47.65625 -1.421875 41.21875 -1.421875 
Q 24.65625 -1.421875 15.125 8.703125 
Q 5.609375 18.84375 5.609375 36.375 
Q 5.609375 53.953125 15.125 64.078125 
Q 24.65625 74.21875 41.21875 74.21875 
Q 47.75 74.21875 53.53125 72.484375 
Q 59.328125 70.75 64.40625 67.28125 
z
" id="DejaVuSans-67"/>
     <path d="M 32.171875 -5.078125 
Q 28.375 -14.84375 24.75 -17.8125 
Q 21.140625 -20.796875 15.09375 -20.796875 
L 7.90625 -20.796875 
L 7.90625 -13.28125 
L 13.1875 -13.28125 
Q 16.890625 -13.28125 18.9375 -11.515625 
Q 21 -9.765625 23.484375 -3.21875 
L 25.09375 0.875 
L 2.984375 54.6875 
L 12.5 54.6875 
L 29.59375 11.921875 
L 46.6875 54.6875 
L 56.203125 54.6875 
z
" id="DejaVuSans-121"/>
     <path d="M 48.78125 52.59375 
L 48.78125 44.1875 
Q 44.96875 46.296875 41.140625 47.34375 
Q 37.3125 48.390625 33.40625 48.390625 
Q 24.65625 48.390625 19.8125 42.84375 
Q 14.984375 37.3125 14.984375 27.296875 
Q 14.984375 17.28125 19.8125 11.734375 
Q 24.65625 6.203125 33.40625 6.203125 
Q 37.3125 6.203125 41.140625 7.25 
Q 44.96875 8.296875 48.78125 10.40625 
L 48.78125 2.09375 
Q 45.015625 0.34375 40.984375 -0.53125 
Q 36.96875 -1.421875 32.421875 -1.421875 
Q 20.0625 -1.421875 12.78125 6.34375 
Q 5.515625 14.109375 5.515625 27.296875 
Q 5.515625 40.671875 12.859375 48.328125 
Q 20.21875 56 33.015625 56 
Q 37.15625 56 41.109375 55.140625 
Q 45.0625 54.296875 48.78125 52.59375 
z
" id="DejaVuSans-99"/>
     <path d="M 9.421875 75.984375 
L 18.40625 75.984375 
L 18.40625 0 
L 9.421875 0 
z
" id="DejaVuSans-108"/>
     <path d="M 30.609375 48.390625 
Q 23.390625 48.390625 19.1875 42.75 
Q 14.984375 37.109375 14.984375 27.296875 
Q 14.984375 17.484375 19.15625 11.84375 
Q 23.34375 6.203125 30.609375 6.203125 
Q 37.796875 6.203125 41.984375 11.859375 
Q 46.1875 17.53125 46.1875 27.296875 
Q 46.1875 37.015625 41.984375 42.703125 
Q 37.796875 48.390625 30.609375 48.390625 
z
M 30.609375 56 
Q 42.328125 56 49.015625 48.375 
Q 55.71875 40.765625 55.71875 27.296875 
Q 55.71875 13.875 49.015625 6.21875 
Q 42.328125 -1.421875 30.609375 -1.421875 
Q 18.84375 -1.421875 12.171875 6.21875 
Q 5.515625 13.875 5.515625 27.296875 
Q 5.515625 40.765625 12.171875 48.375 
Q 18.84375 56 30.609375 56 
z
" id="DejaVuSans-111"/>
     <path d="M 44.28125 53.078125 
L 44.28125 44.578125 
Q 40.484375 46.53125 36.375 47.5 
Q 32.28125 48.484375 27.875 48.484375 
Q 21.1875 48.484375 17.84375 46.4375 
Q 14.5 44.390625 14.5 40.28125 
Q 14.5 37.15625 16.890625 35.375 
Q 19.28125 33.59375 26.515625 31.984375 
L 29.59375 31.296875 
Q 39.15625 29.25 43.1875 25.515625 
Q 47.21875 21.78125 47.21875 15.09375 
Q 47.21875 7.46875 41.1875 3.015625 
Q 35.15625 -1.421875 24.609375 -1.421875 
Q 20.21875 -1.421875 15.453125 -0.5625 
Q 10.6875 0.296875 5.421875 2 
L 5.421875 11.28125 
Q 10.40625 8.6875 15.234375 7.390625 
Q 20.0625 6.109375 24.8125 6.109375 
Q 31.15625 6.109375 34.5625 8.28125 
Q 37.984375 10.453125 37.984375 14.40625 
Q 37.984375 18.0625 35.515625 20.015625 
Q 33.0625 21.96875 24.703125 23.78125 
L 21.578125 24.515625 
Q 13.234375 26.265625 9.515625 29.90625 
Q 5.8125 33.546875 5.8125 39.890625 
Q 5.8125 47.609375 11.28125 51.796875 
Q 16.75 56 26.8125 56 
Q 31.78125 56 36.171875 55.265625 
Q 40.578125 54.546875 44.28125 53.078125 
z
" id="DejaVuSans-115"/>
     <path d="M 18.3125 70.21875 
L 18.3125 54.6875 
L 36.8125 54.6875 
L 36.8125 47.703125 
L 18.3125 47.703125 
L 18.3125 18.015625 
Q 18.3125 11.328125 20.140625 9.421875 
Q 21.96875 7.515625 27.59375 7.515625 
L 36.8125 7.515625 
L 36.8125 0 
L 27.59375 0 
Q 17.1875 0 13.234375 3.875 
Q 9.28125 7.765625 9.28125 18.015625 
L 9.28125 47.703125 
L 2.6875 47.703125 
L 2.6875 54.6875 
L 9.28125 54.6875 
L 9.28125 70.21875 
z
" id="DejaVuSans-116"/>
    </defs>
    <g transform="translate(264.770529 309.433104)rotate(-8.723767)scale(0.1 -0.1)">
     <use xlink:href="#DejaVuSans-76"/>
     <use x="55.712891" xlink:href="#DejaVuSans-105"/>
     <use x="83.496094" xlink:href="#DejaVuSans-102"/>
     <use x="118.701172" xlink:href="#DejaVuSans-101"/>
     <use x="180.224609" xlink:href="#DejaVuSans-32"/>
     <use x="212.011719" xlink:href="#DejaVuSans-67"/>
     <use x="281.835938" xlink:href="#DejaVuSans-121"/>
     <use x="341.015625" xlink:href="#DejaVuSans-99"/>
     <use x="395.996094" xlink:href="#DejaVuSans-108"/>
     <use x="423.779297" xlink:href="#DejaVuSans-101"/>
     <use x="485.302734" xlink:href="#DejaVuSans-32"/>
     <use x="517.089844" xlink:href="#DejaVuSans-67"/>
     <use x="586.914062" xlink:href="#DejaVuSans-111"/>
     <use x="648.095703" xlink:href="#DejaVuSans-115"/>
     <use x="700.195312" xlink:href="#DejaVuSans-116"/>
    </g>
    <!--  ($/house-yr) -->
    <defs>
     <path d="M 31 75.875 
Q 24.46875 64.65625 21.28125 53.65625 
Q 18.109375 42.671875 18.109375 31.390625 
Q 18.109375 20.125 21.3125 9.0625 
Q 24.515625 -2 31 -13.1875 
L 23.1875 -13.1875 
Q 15.875 -1.703125 12.234375 9.375 
Q 8.59375 20.453125 8.59375 31.390625 
Q 8.59375 42.28125 12.203125 53.3125 
Q 15.828125 64.359375 23.1875 75.875 
z
" id="DejaVuSans-40"/>
     <path d="M 33.796875 -14.703125 
L 28.90625 -14.703125 
L 28.859375 0 
Q 23.734375 0.09375 18.609375 1.1875 
Q 13.484375 2.296875 8.296875 4.5 
L 8.296875 13.28125 
Q 13.28125 10.15625 18.375 8.5625 
Q 23.484375 6.984375 28.90625 6.9375 
L 28.90625 29.203125 
Q 18.109375 30.953125 13.203125 35.15625 
Q 8.296875 39.359375 8.296875 46.6875 
Q 8.296875 54.640625 13.625 59.21875 
Q 18.953125 63.8125 28.90625 64.5 
L 28.90625 75.984375 
L 33.796875 75.984375 
L 33.796875 64.65625 
Q 38.328125 64.453125 42.578125 63.6875 
Q 46.828125 62.9375 50.875 61.625 
L 50.875 53.078125 
Q 46.828125 55.125 42.546875 56.25 
Q 38.28125 57.375 33.796875 57.5625 
L 33.796875 36.71875 
Q 44.875 35.015625 50.09375 30.609375 
Q 55.328125 26.21875 55.328125 18.609375 
Q 55.328125 10.359375 49.78125 5.59375 
Q 44.234375 0.828125 33.796875 0.09375 
z
M 28.90625 37.59375 
L 28.90625 57.625 
Q 23.25 56.984375 20.265625 54.390625 
Q 17.28125 51.8125 17.28125 47.515625 
Q 17.28125 43.3125 20.03125 40.96875 
Q 22.796875 38.625 28.90625 37.59375 
z
M 33.796875 28.21875 
L 33.796875 7.078125 
Q 39.984375 7.90625 43.140625 10.59375 
Q 46.296875 13.28125 46.296875 17.671875 
Q 46.296875 21.96875 43.28125 24.5 
Q 40.28125 27.046875 33.796875 28.21875 
z
" id="DejaVuSans-36"/>
     <path d="M 25.390625 72.90625 
L 33.6875 72.90625 
L 8.296875 -9.28125 
L 0 -9.28125 
z
" id="DejaVuSans-47"/>
     <path d="M 54.890625 33.015625 
L 54.890625 0 
L 45.90625 0 
L 45.90625 32.71875 
Q 45.90625 40.484375 42.875 44.328125 
Q 39.84375 48.1875 33.796875 48.1875 
Q 26.515625 48.1875 22.3125 43.546875 
Q 18.109375 38.921875 18.109375 30.90625 
L 18.109375 0 
L 9.078125 0 
L 9.078125 75.984375 
L 18.109375 75.984375 
L 18.109375 46.1875 
Q 21.34375 51.125 25.703125 53.5625 
Q 30.078125 56 35.796875 56 
Q 45.21875 56 50.046875 50.171875 
Q 54.890625 44.34375 54.890625 33.015625 
z
" id="DejaVuSans-104"/>
     <path d="M 8.5 21.578125 
L 8.5 54.6875 
L 17.484375 54.6875 
L 17.484375 21.921875 
Q 17.484375 14.15625 20.5 10.265625 
Q 23.53125 6.390625 29.59375 6.390625 
Q 36.859375 6.390625 41.078125 11.03125 
Q 45.3125 15.671875 45.3125 23.6875 
L 45.3125 54.6875 
L 54.296875 54.6875 
L 54.296875 0 
L 45.3125 0 
L 45.3125 8.40625 
Q 42.046875 3.421875 37.71875 1 
Q 33.40625 -1.421875 27.6875 -1.421875 
Q 18.265625 -1.421875 13.375 4.4375 
Q 8.5 10.296875 8.5 21.578125 
z
M 31.109375 56 
z
" id="DejaVuSans-117"/>
     <path d="M 4.890625 31.390625 
L 31.203125 31.390625 
L 31.203125 23.390625 
L 4.890625 23.390625 
z
" id="DejaVuSans-45"/>
     <path d="M 41.109375 46.296875 
Q 39.59375 47.171875 37.8125 47.578125 
Q 36.03125 48 33.890625 48 
Q 26.265625 48 22.1875 43.046875 
Q 18.109375 38.09375 18.109375 28.8125 
L 18.109375 0 
L 9.078125 0 
L 9.078125 54.6875 
L 18.109375 54.6875 
L 18.109375 46.1875 
Q 20.953125 51.171875 25.484375 53.578125 
Q 30.03125 56 36.53125 56 
Q 37.453125 56 38.578125 55.875 
Q 39.703125 55.765625 41.0625 55.515625 
z
" id="DejaVuSans-114"/>
     <path d="M 8.015625 75.875 
L 15.828125 75.875 
Q 23.140625 64.359375 26.78125 53.3125 
Q 30.421875 42.28125 30.421875 31.390625 
Q 30.421875 20.453125 26.78125 9.375 
Q 23.140625 -1.703125 15.828125 -13.1875 
L 8.015625 -13.1875 
Q 14.5 -2 17.703125 9.0625 
Q 20.90625 20.125 20.90625 31.390625 
Q 20.90625 42.671875 17.703125 53.65625 
Q 14.5 64.65625 8.015625 75.875 
z
" id="DejaVuSans-41"/>
    </defs>
    <g transform="translate(271.218785 319.77252)rotate(-8.723767)scale(0.1 -0.1)">
     <use xlink:href="#DejaVuSans-32"/>
     <use x="31.787109" xlink:href="#DejaVuSans-40"/>
     <use x="70.800781" xlink:href="#DejaVuSans-36"/>
     <use x="134.423828" xlink:href="#DejaVuSans-47"/>
     <use x="168.115234" xlink:href="#DejaVuSans-104"/>
     <use x="231.494141" xlink:href="#DejaVuSans-111"/>
     <use x="292.675781" xlink:href="#DejaVuSans-117"/>
     <use x="356.054688" xlink:href="#DejaVuSans-115"/>
     <use x="408.154297" xlink:href="#DejaVuSans-101"/>
     <use x="469.677734" xlink:href="#DejaVuSans-45"/>
     <use x="504.011719" xlink:href="#DejaVuSans-121"/>
     <use x="563.191406" xlink:href="#DejaVuSans-114"/>
     <use x="604.304688" xlink:href="#DejaVuSans-41"/>
    </g>
   </g>
   <g id="Line3DCollection_1">
    <path d="M 196.042618 281.768617 
L 118.421602 223.755684 
L 113.663269 87.585513 
" style="fill:none;stroke:#b0b0b0;stroke-width:0.8;"/>
    <path d="M 228.313071 276.816843 
L 148.513645 219.596859 
L 144.948037 84.194012 
" style="fill:none;stroke:#b0b0b0;stroke-width:0.8;"/>
    <path d="M 260.124972 271.935432 
L 178.213468 215.492241 
L 175.809424 80.848409 
" style="fill:none;stroke:#b0b0b0;stroke-width:0.8;"/>
    <path d="M 291.488024 267.122896 
L 207.528692 211.440775 
L 206.255966 77.547778 
" style="fill:none;stroke:#b0b0b0;stroke-width:0.8;"/>
    <path d="M 322.41166 262.377786 
L 236.466737 207.441436 
L 236.295973 74.291219 
" style="fill:none;stroke:#b0b0b0;stroke-width:0.8;"/>
    <path d="M 352.905052 257.698695 
L 265.034838 203.493225 
L 265.937532 71.077854 
" style="fill:none;stroke:#b0b0b0;stroke-width:0.8;"/>
   </g>
   <g id="xtick_1">
    <g id="line2d_2">
     <path d="M 195.365325 281.262416 
L 197.400184 282.783244 
" style="fill:none;stroke:#000000;stroke-linecap:square;stroke-width:0.8;"/>
    </g>
    <g id="text_2">
     <!-- 0.0 -->
     <defs>
      <path d="M 31.78125 66.40625 
Q 24.171875 66.40625 20.328125 58.90625 
Q 16.5 51.421875 16.5 36.375 
Q 16.5 21.390625 20.328125 13.890625 
Q 24.171875 6.390625 31.78125 6.390625 
Q 39.453125 6.390625 43.28125 13.890625 
Q 47.125 21.390625 47.125 36.375 
Q 47.125 51.421875 43.28125 58.90625 
Q 39.453125 66.40625 31.78125 66.40625 
z
M 31.78125 74.21875 
Q 44.046875 74.21875 50.515625 64.515625 
Q 56.984375 54.828125 56.984375 36.375 
Q 56.984375 17.96875 50.515625 8.265625 
Q 44.046875 -1.421875 31.78125 -1.421875 
Q 19.53125 -1.421875 13.0625 8.265625 
Q 6.59375 17.96875 6.59375 36.375 
Q 6.59375 54.828125 13.0625 64.515625 
Q 19.53125 74.21875 31.78125 74.21875 
z
" id="DejaVuSans-48"/>
      <path d="M 10.6875 12.40625 
L 21 12.40625 
L 21 0 
L 10.6875 0 
z
" id="DejaVuSans-46"/>
     </defs>
     <g transform="translate(194.246293 303.876067)scale(0.1 -0.1)">
      <use xlink:href="#DejaVuSans-48"/>
      <use x="63.623047" xlink:href="#DejaVuSans-46"/>
      <use x="95.410156" xlink:href="#DejaVuSans-48"/>
     </g>
    </g>
   </g>
   <g id="xtick_2">
    <g id="line2d_3">
     <path d="M 227.617184 276.317859 
L 229.707885 277.816991 
" style="fill:none;stroke:#000000;stroke-linecap:square;stroke-width:0.8;"/>
    </g>
    <g id="text_3">
     <!-- 0.5 -->
     <defs>
      <path d="M 10.796875 72.90625 
L 49.515625 72.90625 
L 49.515625 64.59375 
L 19.828125 64.59375 
L 19.828125 46.734375 
Q 21.96875 47.46875 24.109375 47.828125 
Q 26.265625 48.1875 28.421875 48.1875 
Q 40.625 48.1875 47.75 41.5 
Q 54.890625 34.8125 54.890625 23.390625 
Q 54.890625 11.625 47.5625 5.09375 
Q 40.234375 -1.421875 26.90625 -1.421875 
Q 22.3125 -1.421875 17.546875 -0.640625 
Q 12.796875 0.140625 7.71875 1.703125 
L 7.71875 11.625 
Q 12.109375 9.234375 16.796875 8.0625 
Q 21.484375 6.890625 26.703125 6.890625 
Q 35.15625 6.890625 40.078125 11.328125 
Q 45.015625 15.765625 45.015625 23.390625 
Q 45.015625 31 40.078125 35.4375 
Q 35.15625 39.890625 26.703125 39.890625 
Q 22.75 39.890625 18.8125 39.015625 
Q 14.890625 38.140625 10.796875 36.28125 
z
" id="DejaVuSans-53"/>
     </defs>
     <g transform="translate(226.588083 298.802371)scale(0.1 -0.1)">
      <use xlink:href="#DejaVuSans-48"/>
      <use x="63.623047" xlink:href="#DejaVuSans-46"/>
      <use x="95.410156" xlink:href="#DejaVuSans-53"/>
     </g>
    </g>
   </g>
   <g id="xtick_3">
    <g id="line2d_4">
     <path d="M 259.411085 271.443511 
L 261.555841 272.921409 
" style="fill:none;stroke:#000000;stroke-linecap:square;stroke-width:0.8;"/>
    </g>
    <g id="text_4">
     <!-- 1.0 -->
     <defs>
      <path d="M 12.40625 8.296875 
L 28.515625 8.296875 
L 28.515625 63.921875 
L 10.984375 60.40625 
L 10.984375 69.390625 
L 28.421875 72.90625 
L 38.28125 72.90625 
L 38.28125 8.296875 
L 54.390625 8.296875 
L 54.390625 0 
L 12.40625 0 
z
" id="DejaVuSans-49"/>
     </defs>
     <g transform="translate(258.468672 293.801026)scale(0.1 -0.1)">
      <use xlink:href="#DejaVuSans-49"/>
      <use x="63.623047" xlink:href="#DejaVuSans-46"/>
      <use x="95.410156" xlink:href="#DejaVuSans-48"/>
     </g>
    </g>
   </g>
   <g id="xtick_4">
    <g id="line2d_5">
     <path d="M 290.756713 266.637888 
L 292.953794 268.095 
" style="fill:none;stroke:#000000;stroke-linecap:square;stroke-width:0.8;"/>
    </g>
    <g id="text_5">
     <!-- 1.5 -->
     <g transform="translate(289.897857 288.870497)scale(0.1 -0.1)">
      <use xlink:href="#DejaVuSans-49"/>
      <use x="63.623047" xlink:href="#DejaVuSans-46"/>
      <use x="95.410156" xlink:href="#DejaVuSans-53"/>
     </g>
    </g>
   </g>
   <g id="xtick_5">
    <g id="line2d_6">
     <path d="M 321.663482 261.899547 
L 323.911216 263.336308 
" style="fill:none;stroke:#000000;stroke-linecap:square;stroke-width:0.8;"/>
    </g>
    <g id="text_6">
     <!-- 2.0 -->
     <defs>
      <path d="M 19.1875 8.296875 
L 53.609375 8.296875 
L 53.609375 0 
L 7.328125 0 
L 7.328125 8.296875 
Q 12.9375 14.109375 22.625 23.890625 
Q 32.328125 33.6875 34.8125 36.53125 
Q 39.546875 41.84375 41.421875 45.53125 
Q 43.3125 49.21875 43.3125 52.78125 
Q 43.3125 58.59375 39.234375 62.25 
Q 35.15625 65.921875 28.609375 65.921875 
Q 23.96875 65.921875 18.8125 64.3125 
Q 13.671875 62.703125 7.8125 59.421875 
L 7.8125 69.390625 
Q 13.765625 71.78125 18.9375 73 
Q 24.125 74.21875 28.421875 74.21875 
Q 39.75 74.21875 46.484375 68.546875 
Q 53.21875 62.890625 53.21875 53.421875 
Q 53.21875 48.921875 51.53125 44.890625 
Q 49.859375 40.875 45.40625 35.40625 
Q 44.1875 33.984375 37.640625 27.21875 
Q 31.109375 20.453125 19.1875 8.296875 
z
" id="DejaVuSans-50"/>
     </defs>
     <g transform="translate(320.885156 284.00929)scale(0.1 -0.1)">
      <use xlink:href="#DejaVuSans-50"/>
      <use x="63.623047" xlink:href="#DejaVuSans-46"/>
      <use x="95.410156" xlink:href="#DejaVuSans-48"/>
     </g>
    </g>
   </g>
   <g id="xtick_6">
    <g id="line2d_7">
     <path d="M 352.140544 257.227084 
L 354.437314 258.643918 
" style="fill:none;stroke:#000000;stroke-linecap:square;stroke-width:0.8;"/>
    </g>
    <g id="text_7">
     <!-- 2.5 -->
     <g transform="translate(351.439824 279.215952)scale(0.1 -0.1)">
      <use xlink:href="#DejaVuSans-50"/>
      <use x="63.623047" xlink:href="#DejaVuSans-46"/>
      <use x="95.410156" xlink:href="#DejaVuSans-53"/>
     </g>
    </g>
   </g>
  </g>
  <g id="axis3d_2">
   <g id="line2d_8">
    <path d="M 112.867262 224.523314 
L 190.081955 282.683257 
" style="fill:none;stroke:#000000;stroke-linecap:square;stroke-width:0.8;"/>
   </g>
   <g id="text_8">
    <!-- Global Warming Potential -->
    <defs>
     <path d="M 59.515625 10.40625 
L 59.515625 29.984375 
L 43.40625 29.984375 
L 43.40625 38.09375 
L 69.28125 38.09375 
L 69.28125 6.78125 
Q 63.578125 2.734375 56.6875 0.65625 
Q 49.8125 -1.421875 42 -1.421875 
Q 24.90625 -1.421875 15.25 8.5625 
Q 5.609375 18.5625 5.609375 36.375 
Q 5.609375 54.25 15.25 64.234375 
Q 24.90625 74.21875 42 74.21875 
Q 49.125 74.21875 55.546875 72.453125 
Q 61.96875 70.703125 67.390625 67.28125 
L 67.390625 56.78125 
Q 61.921875 61.421875 55.765625 63.765625 
Q 49.609375 66.109375 42.828125 66.109375 
Q 29.4375 66.109375 22.71875 58.640625 
Q 16.015625 51.171875 16.015625 36.375 
Q 16.015625 21.625 22.71875 14.15625 
Q 29.4375 6.6875 42.828125 6.6875 
Q 48.046875 6.6875 52.140625 7.59375 
Q 56.25 8.5 59.515625 10.40625 
z
" id="DejaVuSans-71"/>
     <path d="M 48.6875 27.296875 
Q 48.6875 37.203125 44.609375 42.84375 
Q 40.53125 48.484375 33.40625 48.484375 
Q 26.265625 48.484375 22.1875 42.84375 
Q 18.109375 37.203125 18.109375 27.296875 
Q 18.109375 17.390625 22.1875 11.75 
Q 26.265625 6.109375 33.40625 6.109375 
Q 40.53125 6.109375 44.609375 11.75 
Q 48.6875 17.390625 48.6875 27.296875 
z
M 18.109375 46.390625 
Q 20.953125 51.265625 25.265625 53.625 
Q 29.59375 56 35.59375 56 
Q 45.5625 56 51.78125 48.09375 
Q 58.015625 40.1875 58.015625 27.296875 
Q 58.015625 14.40625 51.78125 6.484375 
Q 45.5625 -1.421875 35.59375 -1.421875 
Q 29.59375 -1.421875 25.265625 0.953125 
Q 20.953125 3.328125 18.109375 8.203125 
L 18.109375 0 
L 9.078125 0 
L 9.078125 75.984375 
L 18.109375 75.984375 
z
" id="DejaVuSans-98"/>
     <path d="M 34.28125 27.484375 
Q 23.390625 27.484375 19.1875 25 
Q 14.984375 22.515625 14.984375 16.5 
Q 14.984375 11.71875 18.140625 8.90625 
Q 21.296875 6.109375 26.703125 6.109375 
Q 34.1875 6.109375 38.703125 11.40625 
Q 43.21875 16.703125 43.21875 25.484375 
L 43.21875 27.484375 
z
M 52.203125 31.203125 
L 52.203125 0 
L 43.21875 0 
L 43.21875 8.296875 
Q 40.140625 3.328125 35.546875 0.953125 
Q 30.953125 -1.421875 24.3125 -1.421875 
Q 15.921875 -1.421875 10.953125 3.296875 
Q 6 8.015625 6 15.921875 
Q 6 25.140625 12.171875 29.828125 
Q 18.359375 34.515625 30.609375 34.515625 
L 43.21875 34.515625 
L 43.21875 35.40625 
Q 43.21875 41.609375 39.140625 45 
Q 35.0625 48.390625 27.6875 48.390625 
Q 23 48.390625 18.546875 47.265625 
Q 14.109375 46.140625 10.015625 43.890625 
L 10.015625 52.203125 
Q 14.9375 54.109375 19.578125 55.046875 
Q 24.21875 56 28.609375 56 
Q 40.484375 56 46.34375 49.84375 
Q 52.203125 43.703125 52.203125 31.203125 
z
" id="DejaVuSans-97"/>
     <path d="M 3.328125 72.90625 
L 13.28125 72.90625 
L 28.609375 11.28125 
L 43.890625 72.90625 
L 54.984375 72.90625 
L 70.3125 11.28125 
L 85.59375 72.90625 
L 95.609375 72.90625 
L 77.296875 0 
L 64.890625 0 
L 49.515625 63.28125 
L 33.984375 0 
L 21.578125 0 
z
" id="DejaVuSans-87"/>
     <path d="M 52 44.1875 
Q 55.375 50.25 60.0625 53.125 
Q 64.75 56 71.09375 56 
Q 79.640625 56 84.28125 50.015625 
Q 88.921875 44.046875 88.921875 33.015625 
L 88.921875 0 
L 79.890625 0 
L 79.890625 32.71875 
Q 79.890625 40.578125 77.09375 44.375 
Q 74.3125 48.1875 68.609375 48.1875 
Q 61.625 48.1875 57.5625 43.546875 
Q 53.515625 38.921875 53.515625 30.90625 
L 53.515625 0 
L 44.484375 0 
L 44.484375 32.71875 
Q 44.484375 40.625 41.703125 44.40625 
Q 38.921875 48.1875 33.109375 48.1875 
Q 26.21875 48.1875 22.15625 43.53125 
Q 18.109375 38.875 18.109375 30.90625 
L 18.109375 0 
L 9.078125 0 
L 9.078125 54.6875 
L 18.109375 54.6875 
L 18.109375 46.1875 
Q 21.1875 51.21875 25.484375 53.609375 
Q 29.78125 56 35.6875 56 
Q 41.65625 56 45.828125 52.96875 
Q 50 49.953125 52 44.1875 
z
" id="DejaVuSans-109"/>
     <path d="M 54.890625 33.015625 
L 54.890625 0 
L 45.90625 0 
L 45.90625 32.71875 
Q 45.90625 40.484375 42.875 44.328125 
Q 39.84375 48.1875 33.796875 48.1875 
Q 26.515625 48.1875 22.3125 43.546875 
Q 18.109375 38.921875 18.109375 30.90625 
L 18.109375 0 
L 9.078125 0 
L 9.078125 54.6875 
L 18.109375 54.6875 
L 18.109375 46.1875 
Q 21.34375 51.125 25.703125 53.5625 
Q 30.078125 56 35.796875 56 
Q 45.21875 56 50.046875 50.171875 
Q 54.890625 44.34375 54.890625 33.015625 
z
" id="DejaVuSans-110"/>
     <path d="M 45.40625 27.984375 
Q 45.40625 37.75 41.375 43.109375 
Q 37.359375 48.484375 30.078125 48.484375 
Q 22.859375 48.484375 18.828125 43.109375 
Q 14.796875 37.75 14.796875 27.984375 
Q 14.796875 18.265625 18.828125 12.890625 
Q 22.859375 7.515625 30.078125 7.515625 
Q 37.359375 7.515625 41.375 12.890625 
Q 45.40625 18.265625 45.40625 27.984375 
z
M 54.390625 6.78125 
Q 54.390625 -7.171875 48.1875 -13.984375 
Q 42 -20.796875 29.203125 -20.796875 
Q 24.46875 -20.796875 20.265625 -20.09375 
Q 16.0625 -19.390625 12.109375 -17.921875 
L 12.109375 -9.1875 
Q 16.0625 -11.328125 19.921875 -12.34375 
Q 23.78125 -13.375 27.78125 -13.375 
Q 36.625 -13.375 41.015625 -8.765625 
Q 45.40625 -4.15625 45.40625 5.171875 
L 45.40625 9.625 
Q 42.625 4.78125 38.28125 2.390625 
Q 33.9375 0 27.875 0 
Q 17.828125 0 11.671875 7.65625 
Q 5.515625 15.328125 5.515625 27.984375 
Q 5.515625 40.671875 11.671875 48.328125 
Q 17.828125 56 27.875 56 
Q 33.9375 56 38.28125 53.609375 
Q 42.625 51.21875 45.40625 46.390625 
L 45.40625 54.6875 
L 54.390625 54.6875 
z
" id="DejaVuSans-103"/>
     <path d="M 19.671875 64.796875 
L 19.671875 37.40625 
L 32.078125 37.40625 
Q 38.96875 37.40625 42.71875 40.96875 
Q 46.484375 44.53125 46.484375 51.125 
Q 46.484375 57.671875 42.71875 61.234375 
Q 38.96875 64.796875 32.078125 64.796875 
z
M 9.8125 72.90625 
L 32.078125 72.90625 
Q 44.34375 72.90625 50.609375 67.359375 
Q 56.890625 61.8125 56.890625 51.125 
Q 56.890625 40.328125 50.609375 34.8125 
Q 44.34375 29.296875 32.078125 29.296875 
L 19.671875 29.296875 
L 19.671875 0 
L 9.8125 0 
z
" id="DejaVuSans-80"/>
    </defs>
    <g transform="translate(66.056042 243.117305)rotate(-323.012071)scale(0.1 -0.1)">
     <use xlink:href="#DejaVuSans-71"/>
     <use x="77.490234" xlink:href="#DejaVuSans-108"/>
     <use x="105.273438" xlink:href="#DejaVuSans-111"/>
     <use x="166.455078" xlink:href="#DejaVuSans-98"/>
     <use x="229.931641" xlink:href="#DejaVuSans-97"/>
     <use x="291.210938" xlink:href="#DejaVuSans-108"/>
     <use x="318.994141" xlink:href="#DejaVuSans-32"/>
     <use x="350.78125" xlink:href="#DejaVuSans-87"/>
     <use x="443.283203" xlink:href="#DejaVuSans-97"/>
     <use x="504.5625" xlink:href="#DejaVuSans-114"/>
     <use x="543.925781" xlink:href="#DejaVuSans-109"/>
     <use x="641.337891" xlink:href="#DejaVuSans-105"/>
     <use x="669.121094" xlink:href="#DejaVuSans-110"/>
     <use x="732.5" xlink:href="#DejaVuSans-103"/>
     <use x="795.976562" xlink:href="#DejaVuSans-32"/>
     <use x="827.763672" xlink:href="#DejaVuSans-80"/>
     <use x="884.441406" xlink:href="#DejaVuSans-111"/>
     <use x="945.623047" xlink:href="#DejaVuSans-116"/>
     <use x="984.832031" xlink:href="#DejaVuSans-101"/>
     <use x="1046.355469" xlink:href="#DejaVuSans-110"/>
     <use x="1109.734375" xlink:href="#DejaVuSans-116"/>
     <use x="1148.943359" xlink:href="#DejaVuSans-105"/>
     <use x="1176.726562" xlink:href="#DejaVuSans-97"/>
     <use x="1238.005859" xlink:href="#DejaVuSans-108"/>
    </g>
    <!--  (kgCO2eq/house-yr) -->
    <defs>
     <path d="M 9.078125 75.984375 
L 18.109375 75.984375 
L 18.109375 31.109375 
L 44.921875 54.6875 
L 56.390625 54.6875 
L 27.390625 29.109375 
L 57.625 0 
L 45.90625 0 
L 18.109375 26.703125 
L 18.109375 0 
L 9.078125 0 
z
" id="DejaVuSans-107"/>
     <path d="M 39.40625 66.21875 
Q 28.65625 66.21875 22.328125 58.203125 
Q 16.015625 50.203125 16.015625 36.375 
Q 16.015625 22.609375 22.328125 14.59375 
Q 28.65625 6.59375 39.40625 6.59375 
Q 50.140625 6.59375 56.421875 14.59375 
Q 62.703125 22.609375 62.703125 36.375 
Q 62.703125 50.203125 56.421875 58.203125 
Q 50.140625 66.21875 39.40625 66.21875 
z
M 39.40625 74.21875 
Q 54.734375 74.21875 63.90625 63.9375 
Q 73.09375 53.65625 73.09375 36.375 
Q 73.09375 19.140625 63.90625 8.859375 
Q 54.734375 -1.421875 39.40625 -1.421875 
Q 24.03125 -1.421875 14.8125 8.828125 
Q 5.609375 19.09375 5.609375 36.375 
Q 5.609375 53.65625 14.8125 63.9375 
Q 24.03125 74.21875 39.40625 74.21875 
z
" id="DejaVuSans-79"/>
     <path d="M 14.796875 27.296875 
Q 14.796875 17.390625 18.875 11.75 
Q 22.953125 6.109375 30.078125 6.109375 
Q 37.203125 6.109375 41.296875 11.75 
Q 45.40625 17.390625 45.40625 27.296875 
Q 45.40625 37.203125 41.296875 42.84375 
Q 37.203125 48.484375 30.078125 48.484375 
Q 22.953125 48.484375 18.875 42.84375 
Q 14.796875 37.203125 14.796875 27.296875 
z
M 45.40625 8.203125 
Q 42.578125 3.328125 38.25 0.953125 
Q 33.9375 -1.421875 27.875 -1.421875 
Q 17.96875 -1.421875 11.734375 6.484375 
Q 5.515625 14.40625 5.515625 27.296875 
Q 5.515625 40.1875 11.734375 48.09375 
Q 17.96875 56 27.875 56 
Q 33.9375 56 38.25 53.625 
Q 42.578125 51.265625 45.40625 46.390625 
L 45.40625 54.6875 
L 54.390625 54.6875 
L 54.390625 -20.796875 
L 45.40625 -20.796875 
z
" id="DejaVuSans-113"/>
    </defs>
    <g transform="translate(68.404836 258.905427)rotate(-323.012071)scale(0.1 -0.1)">
     <use xlink:href="#DejaVuSans-32"/>
     <use x="31.787109" xlink:href="#DejaVuSans-40"/>
     <use x="70.800781" xlink:href="#DejaVuSans-107"/>
     <use x="128.710938" xlink:href="#DejaVuSans-103"/>
     <use x="192.1875" xlink:href="#DejaVuSans-67"/>
     <use x="262.011719" xlink:href="#DejaVuSans-79"/>
     <use x="340.722656" xlink:href="#DejaVuSans-50"/>
     <use x="404.345703" xlink:href="#DejaVuSans-101"/>
     <use x="465.869141" xlink:href="#DejaVuSans-113"/>
     <use x="529.345703" xlink:href="#DejaVuSans-47"/>
     <use x="563.037109" xlink:href="#DejaVuSans-104"/>
     <use x="626.416016" xlink:href="#DejaVuSans-111"/>
     <use x="687.597656" xlink:href="#DejaVuSans-117"/>
     <use x="750.976562" xlink:href="#DejaVuSans-115"/>
     <use x="803.076172" xlink:href="#DejaVuSans-101"/>
     <use x="864.599609" xlink:href="#DejaVuSans-45"/>
     <use x="898.933594" xlink:href="#DejaVuSans-121"/>
     <use x="958.113281" xlink:href="#DejaVuSans-114"/>
     <use x="999.226562" xlink:href="#DejaVuSans-41"/>
    </g>
   </g>
   <g id="Line3DCollection_2">
    <path d="M 378.470181 111.546106 
L 373.094457 253.077116 
L 188.329866 281.363542 
" style="fill:none;stroke:#b0b0b0;stroke-width:0.8;"/>
    <path d="M 364.978327 105.194355 
L 360.18688 245.314514 
L 177.131908 272.928974 
" style="fill:none;stroke:#b0b0b0;stroke-width:0.8;"/>
    <path d="M 351.811 98.995386 
L 347.577918 237.731498 
L 166.203794 264.697659 
" style="fill:none;stroke:#b0b0b0;stroke-width:0.8;"/>
    <path d="M 338.95663 92.943753 
L 335.257325 230.321907 
L 155.535886 256.662336 
" style="fill:none;stroke:#b0b0b0;stroke-width:0.8;"/>
    <path d="M 326.40419 87.034263 
L 323.215322 223.079859 
L 145.119 248.81609 
" style="fill:none;stroke:#b0b0b0;stroke-width:0.8;"/>
    <path d="M 314.143166 81.261968 
L 311.442564 215.999735 
L 134.944378 241.152322 
" style="fill:none;stroke:#b0b0b0;stroke-width:0.8;"/>
    <path d="M 302.163526 75.622144 
L 299.930121 209.076164 
L 125.003666 233.664742 
" style="fill:none;stroke:#b0b0b0;stroke-width:0.8;"/>
    <path d="M 290.455694 70.110282 
L 288.669454 202.304011 
L 115.28889 226.347341 
" style="fill:none;stroke:#b0b0b0;stroke-width:0.8;"/>
   </g>
   <g id="xtick_7">
    <g id="line2d_9">
     <path d="M 189.87049 281.127681 
L 185.245462 281.835747 
" style="fill:none;stroke:#000000;stroke-linecap:square;stroke-width:0.8;"/>
    </g>
    <g id="text_9">
     <!-- −3 -->
     <defs>
      <path d="M 10.59375 35.5 
L 73.1875 35.5 
L 73.1875 27.203125 
L 10.59375 27.203125 
z
" id="DejaVuSans-8722"/>
      <path d="M 40.578125 39.3125 
Q 47.65625 37.796875 51.625 33 
Q 55.609375 28.21875 55.609375 21.1875 
Q 55.609375 10.40625 48.1875 4.484375 
Q 40.765625 -1.421875 27.09375 -1.421875 
Q 22.515625 -1.421875 17.65625 -0.515625 
Q 12.796875 0.390625 7.625 2.203125 
L 7.625 11.71875 
Q 11.71875 9.328125 16.59375 8.109375 
Q 21.484375 6.890625 26.8125 6.890625 
Q 36.078125 6.890625 40.9375 10.546875 
Q 45.796875 14.203125 45.796875 21.1875 
Q 45.796875 27.640625 41.28125 31.265625 
Q 36.765625 34.90625 28.71875 34.90625 
L 20.21875 34.90625 
L 20.21875 43.015625 
L 29.109375 43.015625 
Q 36.375 43.015625 40.234375 45.921875 
Q 44.09375 48.828125 44.09375 54.296875 
Q 44.09375 59.90625 40.109375 62.90625 
Q 36.140625 65.921875 28.71875 65.921875 
Q 24.65625 65.921875 20.015625 65.03125 
Q 15.375 64.15625 9.8125 62.3125 
L 9.8125 71.09375 
Q 15.4375 72.65625 20.34375 73.4375 
Q 25.25 74.21875 29.59375 74.21875 
Q 40.828125 74.21875 47.359375 69.109375 
Q 53.90625 64.015625 53.90625 55.328125 
Q 53.90625 49.265625 50.4375 45.09375 
Q 46.96875 40.921875 40.578125 39.3125 
z
" id="DejaVuSans-51"/>
     </defs>
     <g transform="translate(167.459037 301.018814)scale(0.1 -0.1)">
      <use xlink:href="#DejaVuSans-8722"/>
      <use x="83.789062" xlink:href="#DejaVuSans-51"/>
     </g>
    </g>
   </g>
   <g id="xtick_8">
    <g id="line2d_10">
     <path d="M 178.657522 272.69883 
L 174.077594 273.389727 
" style="fill:none;stroke:#000000;stroke-linecap:square;stroke-width:0.8;"/>
    </g>
    <g id="text_10">
     <!-- −2 -->
     <g transform="translate(156.42427 292.436078)scale(0.1 -0.1)">
      <use xlink:href="#DejaVuSans-8722"/>
      <use x="83.789062" xlink:href="#DejaVuSans-50"/>
     </g>
    </g>
   </g>
   <g id="xtick_9">
    <g id="line2d_11">
     <path d="M 167.71467 264.473026 
L 163.179024 265.147372 
" style="fill:none;stroke:#000000;stroke-linecap:square;stroke-width:0.8;"/>
    </g>
    <g id="text_11">
     <!-- −1 -->
     <g transform="translate(145.655448 284.060191)scale(0.1 -0.1)">
      <use xlink:href="#DejaVuSans-8722"/>
      <use x="83.789062" xlink:href="#DejaVuSans-49"/>
     </g>
    </g>
   </g>
   <g id="xtick_10">
    <g id="line2d_12">
     <path d="M 157.032288 256.44302 
L 152.540127 257.101402 
" style="fill:none;stroke:#000000;stroke-linecap:square;stroke-width:0.8;"/>
    </g>
    <g id="text_12">
     <!-- 0 -->
     <g transform="translate(139.332916 275.883765)scale(0.1 -0.1)">
      <use xlink:href="#DejaVuSans-48"/>
     </g>
    </g>
   </g>
   <g id="xtick_11">
    <g id="line2d_13">
     <path d="M 146.601187 248.601903 
L 142.151732 249.244882 
" style="fill:none;stroke:#000000;stroke-linecap:square;stroke-width:0.8;"/>
    </g>
    <g id="text_13">
     <!-- 1 -->
     <g transform="translate(129.067933 267.899759)scale(0.1 -0.1)">
      <use xlink:href="#DejaVuSans-49"/>
     </g>
    </g>
   </g>
   <g id="xtick_12">
    <g id="line2d_14">
     <path d="M 136.412603 240.943087 
L 132.005094 241.571197 
" style="fill:none;stroke:#000000;stroke-linecap:square;stroke-width:0.8;"/>
    </g>
    <g id="text_14">
     <!-- 2 -->
     <g transform="translate(119.041711 260.10146)scale(0.1 -0.1)">
      <use xlink:href="#DejaVuSans-50"/>
     </g>
    </g>
   </g>
   <g id="xtick_13">
    <g id="line2d_15">
     <path d="M 126.458176 233.460288 
L 122.091871 234.074039 
" style="fill:none;stroke:#000000;stroke-linecap:square;stroke-width:0.8;"/>
    </g>
    <g id="text_15">
     <!-- 3 -->
     <g transform="translate(109.246017 252.482463)scale(0.1 -0.1)">
      <use xlink:href="#DejaVuSans-51"/>
     </g>
    </g>
   </g>
   <g id="xtick_14">
    <g id="line2d_16">
     <path d="M 116.729926 226.147507 
L 112.404101 226.747386 
" style="fill:none;stroke:#000000;stroke-linecap:square;stroke-width:0.8;"/>
    </g>
    <g id="text_16">
     <!-- 4 -->
     <defs>
      <path d="M 37.796875 64.3125 
L 12.890625 25.390625 
L 37.796875 25.390625 
z
M 35.203125 72.90625 
L 47.609375 72.90625 
L 47.609375 25.390625 
L 58.015625 25.390625 
L 58.015625 17.1875 
L 47.609375 17.1875 
L 47.609375 0 
L 37.796875 0 
L 37.796875 17.1875 
L 4.890625 17.1875 
L 4.890625 26.703125 
z
" id="DejaVuSans-52"/>
     </defs>
     <g transform="translate(99.67299 245.036654)scale(0.1 -0.1)">
      <use xlink:href="#DejaVuSans-52"/>
     </g>
    </g>
   </g>
  </g>
  <g id="axis3d_3">
   <g id="line2d_17">
    <path d="M 112.867262 224.523314 
L 107.887035 88.2117 
" style="fill:none;stroke:#000000;stroke-linecap:square;stroke-width:0.8;"/>
   </g>
   <g id="text_17">
    <!-- Circularity -->
    <g transform="translate(58.418028 127.317253)rotate(-272.092405)scale(0.1 -0.1)">
     <use xlink:href="#DejaVuSans-67"/>
     <use x="69.824219" xlink:href="#DejaVuSans-105"/>
     <use x="97.607422" xlink:href="#DejaVuSans-114"/>
     <use x="136.470703" xlink:href="#DejaVuSans-99"/>
     <use x="191.451172" xlink:href="#DejaVuSans-117"/>
     <use x="254.830078" xlink:href="#DejaVuSans-108"/>
     <use x="282.613281" xlink:href="#DejaVuSans-97"/>
     <use x="343.892578" xlink:href="#DejaVuSans-114"/>
     <use x="385.005859" xlink:href="#DejaVuSans-105"/>
     <use x="412.789062" xlink:href="#DejaVuSans-116"/>
     <use x="451.998047" xlink:href="#DejaVuSans-121"/>
    </g>
   </g>
   <g id="Line3DCollection_3">
    <path d="M 112.561469 216.153582 
L 285.96402 192.506313 
L 375.448061 245.602163 
" style="fill:none;stroke:#b0b0b0;stroke-width:0.8;"/>
    <path d="M 111.593481 189.659216 
L 286.290147 166.847943 
L 376.50958 218.084863 
" style="fill:none;stroke:#b0b0b0;stroke-width:0.8;"/>
    <path d="M 110.61079 162.762418 
L 286.621037 140.814768 
L 377.587993 190.129633 
" style="fill:none;stroke:#b0b0b0;stroke-width:0.8;"/>
    <path d="M 109.613059 135.453951 
L 286.956797 114.398516 
L 378.683707 161.725932 
" style="fill:none;stroke:#b0b0b0;stroke-width:0.8;"/>
    <path d="M 108.599939 107.724289 
L 287.297534 87.590668 
L 379.797141 132.862883 
" style="fill:none;stroke:#b0b0b0;stroke-width:0.8;"/>
   </g>
   <g id="xtick_15">
    <g id="line2d_18">
     <path d="M 114.002661 215.957044 
L 109.676368 216.547029 
" style="fill:none;stroke:#000000;stroke-linecap:square;stroke-width:0.8;"/>
    </g>
    <g id="text_18">
     <!-- 0.0 -->
     <g transform="translate(86.875524 221.765413)scale(0.1 -0.1)">
      <use xlink:href="#DejaVuSans-48"/>
      <use x="63.623047" xlink:href="#DejaVuSans-46"/>
      <use x="95.410156" xlink:href="#DejaVuSans-48"/>
     </g>
    </g>
   </g>
   <g id="xtick_16">
    <g id="line2d_19">
     <path d="M 113.045839 189.469572 
L 108.686008 190.038863 
" style="fill:none;stroke:#000000;stroke-linecap:square;stroke-width:0.8;"/>
    </g>
    <g id="text_19">
     <!-- 0.2 -->
     <g transform="translate(85.777385 195.340779)scale(0.1 -0.1)">
      <use xlink:href="#DejaVuSans-48"/>
      <use x="63.623047" xlink:href="#DejaVuSans-46"/>
      <use x="95.410156" xlink:href="#DejaVuSans-50"/>
     </g>
    </g>
   </g>
   <g id="xtick_17">
    <g id="line2d_20">
     <path d="M 112.074488 162.579902 
L 107.680595 163.1278 
" style="fill:none;stroke:#000000;stroke-linecap:square;stroke-width:0.8;"/>
    </g>
    <g id="text_20">
     <!-- 0.4 -->
     <g transform="translate(84.66262 168.516065)scale(0.1 -0.1)">
      <use xlink:href="#DejaVuSans-48"/>
      <use x="63.623047" xlink:href="#DejaVuSans-46"/>
      <use x="95.410156" xlink:href="#DejaVuSans-52"/>
     </g>
    </g>
   </g>
   <g id="xtick_18">
    <g id="line2d_21">
     <path d="M 111.088275 135.278803 
L 106.659784 135.804583 
" style="fill:none;stroke:#000000;stroke-linecap:square;stroke-width:0.8;"/>
    </g>
    <g id="text_21">
     <!-- 0.6 -->
     <defs>
      <path d="M 33.015625 40.375 
Q 26.375 40.375 22.484375 35.828125 
Q 18.609375 31.296875 18.609375 23.390625 
Q 18.609375 15.53125 22.484375 10.953125 
Q 26.375 6.390625 33.015625 6.390625 
Q 39.65625 6.390625 43.53125 10.953125 
Q 47.40625 15.53125 47.40625 23.390625 
Q 47.40625 31.296875 43.53125 35.828125 
Q 39.65625 40.375 33.015625 40.375 
z
M 52.59375 71.296875 
L 52.59375 62.3125 
Q 48.875 64.0625 45.09375 64.984375 
Q 41.3125 65.921875 37.59375 65.921875 
Q 27.828125 65.921875 22.671875 59.328125 
Q 17.53125 52.734375 16.796875 39.40625 
Q 19.671875 43.65625 24.015625 45.921875 
Q 28.375 48.1875 33.59375 48.1875 
Q 44.578125 48.1875 50.953125 41.515625 
Q 57.328125 34.859375 57.328125 23.390625 
Q 57.328125 12.15625 50.6875 5.359375 
Q 44.046875 -1.421875 33.015625 -1.421875 
Q 20.359375 -1.421875 13.671875 8.265625 
Q 6.984375 17.96875 6.984375 36.375 
Q 6.984375 53.65625 15.1875 63.9375 
Q 23.390625 74.21875 37.203125 74.21875 
Q 40.921875 74.21875 44.703125 73.484375 
Q 48.484375 72.75 52.59375 71.296875 
z
" id="DejaVuSans-54"/>
     </defs>
     <g transform="translate(83.530849 141.282117)scale(0.1 -0.1)">
      <use xlink:href="#DejaVuSans-48"/>
      <use x="63.623047" xlink:href="#DejaVuSans-46"/>
      <use x="95.410156" xlink:href="#DejaVuSans-54"/>
     </g>
    </g>
   </g>
   <g id="xtick_19">
    <g id="line2d_22">
     <path d="M 110.086855 107.55676 
L 105.623219 108.059672 
" style="fill:none;stroke:#000000;stroke-linecap:square;stroke-width:0.8;"/>
    </g>
    <g id="text_22">
     <!-- 0.8 -->
     <defs>
      <path d="M 31.78125 34.625 
Q 24.75 34.625 20.71875 30.859375 
Q 16.703125 27.09375 16.703125 20.515625 
Q 16.703125 13.921875 20.71875 10.15625 
Q 24.75 6.390625 31.78125 6.390625 
Q 38.8125 6.390625 42.859375 10.171875 
Q 46.921875 13.96875 46.921875 20.515625 
Q 46.921875 27.09375 42.890625 30.859375 
Q 38.875 34.625 31.78125 34.625 
z
M 21.921875 38.8125 
Q 15.578125 40.375 12.03125 44.71875 
Q 8.5 49.078125 8.5 55.328125 
Q 8.5 64.0625 14.71875 69.140625 
Q 20.953125 74.21875 31.78125 74.21875 
Q 42.671875 74.21875 48.875 69.140625 
Q 55.078125 64.0625 55.078125 55.328125 
Q 55.078125 49.078125 51.53125 44.71875 
Q 48 40.375 41.703125 38.8125 
Q 48.828125 37.15625 52.796875 32.3125 
Q 56.78125 27.484375 56.78125 20.515625 
Q 56.78125 9.90625 50.3125 4.234375 
Q 43.84375 -1.421875 31.78125 -1.421875 
Q 19.734375 -1.421875 13.25 4.234375 
Q 6.78125 9.90625 6.78125 20.515625 
Q 6.78125 27.484375 10.78125 32.3125 
Q 14.796875 37.15625 21.921875 38.8125 
z
M 18.3125 54.390625 
Q 18.3125 48.734375 21.84375 45.5625 
Q 25.390625 42.390625 31.78125 42.390625 
Q 38.140625 42.390625 41.71875 45.5625 
Q 45.3125 48.734375 45.3125 54.390625 
Q 45.3125 60.0625 41.71875 63.234375 
Q 38.140625 66.40625 31.78125 66.40625 
Q 25.390625 66.40625 21.84375 63.234375 
Q 18.3125 60.0625 18.3125 54.390625 
z
" id="DejaVuSans-56"/>
     </defs>
     <g transform="translate(82.381678 113.629497)scale(0.1 -0.1)">
      <use xlink:href="#DejaVuSans-48"/>
      <use x="63.623047" xlink:href="#DejaVuSans-46"/>
      <use x="95.410156" xlink:href="#DejaVuSans-56"/>
     </g>
    </g>
   </g>
  </g>
  <g id="axes_1">
   <g id="Poly3DCollection_1">
    <path clip-path="url(#pe4c304c4cb)" d="M 163.503997 185.850752 
L 171.814944 207.294497 
L 173.538398 182.553631 
z
" style="fill:#f9812e;fill-opacity:0.95;"/>
    <path clip-path="url(#pe4c304c4cb)" d="M 171.814944 207.294497 
L 163.503997 185.850752 
L 146.5064 231.062803 
z
" style="fill:#d74701;fill-opacity:0.95;"/>
    <path clip-path="url(#pe4c304c4cb)" d="M 173.467085 197.699013 
L 173.538398 182.553631 
L 171.814944 207.294497 
z
" style="fill:#f77a26;fill-opacity:0.95;"/>
    <path clip-path="url(#pe4c304c4cb)" d="M 174.312583 192.879081 
L 175.697818 202.087577 
L 173.538398 182.553631 
z
" style="fill:#fc8a38;fill-opacity:0.95;"/>
    <path clip-path="url(#pe4c304c4cb)" d="M 173.538398 182.553631 
L 175.697818 202.087577 
L 175.069595 177.600585 
z
" style="fill:#fd9f55;fill-opacity:0.95;"/>
    <path clip-path="url(#pe4c304c4cb)" d="M 173.538398 182.553631 
L 173.467085 197.699013 
L 174.312583 192.879081 
z
" style="fill:#fd9040;fill-opacity:0.95;"/>
    <path clip-path="url(#pe4c304c4cb)" d="M 177.698238 179.82879 
L 173.467085 197.699013 
L 171.814944 207.294497 
z
" style="fill:#f9812e;fill-opacity:0.95;"/>
    <path clip-path="url(#pe4c304c4cb)" d="M 175.697818 202.087577 
L 174.312583 192.879081 
L 177.698238 179.82879 
z
" style="fill:#fd9040;fill-opacity:0.95;"/>
    <path clip-path="url(#pe4c304c4cb)" d="M 163.503997 185.850752 
L 173.538398 182.553631 
L 191.90615 94.107454 
z
" style="fill:#e7f1fa;fill-opacity:0.95;"/>
    <path clip-path="url(#pe4c304c4cb)" d="M 177.698238 179.82879 
L 174.312583 192.879081 
L 173.467085 197.699013 
z
" style="fill:#fd984c;fill-opacity:0.95;"/>
    <path clip-path="url(#pe4c304c4cb)" d="M 175.069595 177.600585 
L 175.697818 202.087577 
L 181.622754 155.755131 
z
" style="fill:#fdcb9a;fill-opacity:0.95;"/>
    <path clip-path="url(#pe4c304c4cb)" d="M 175.697818 202.087577 
L 177.698238 179.82879 
L 179.277407 177.330995 
z
" style="fill:#fda964;fill-opacity:0.95;"/>
    <path clip-path="url(#pe4c304c4cb)" d="M 171.814944 207.294497 
L 178.395947 206.183447 
L 182.927471 180.035506 
z
" style="fill:#f77c29;fill-opacity:0.95;"/>
    <path clip-path="url(#pe4c304c4cb)" d="M 171.814944 207.294497 
L 182.927471 180.035506 
L 177.698238 179.82879 
z
" style="fill:#fda158;fill-opacity:0.95;"/>
    <path clip-path="url(#pe4c304c4cb)" d="M 181.622754 155.755131 
L 175.697818 202.087577 
L 179.277407 177.330995 
z
" style="fill:#fdcd9e;fill-opacity:0.95;"/>
    <path clip-path="url(#pe4c304c4cb)" d="M 178.395947 206.183447 
L 171.814944 207.294497 
L 146.5064 231.062803 
z
" style="fill:#c03f02;fill-opacity:0.95;"/>
    <path clip-path="url(#pe4c304c4cb)" d="M 181.457923 196.786812 
L 179.034352 210.799325 
L 178.395947 206.183447 
z
" style="fill:#ed6410;fill-opacity:0.95;"/>
    <path clip-path="url(#pe4c304c4cb)" d="M 175.069595 177.600585 
L 191.90615 94.107454 
L 173.538398 182.553631 
z
" style="fill:#d8e7f5;fill-opacity:0.95;"/>
    <path clip-path="url(#pe4c304c4cb)" d="M 191.90615 94.107454 
L 189.872723 94.48135 
L 163.503997 185.850752 
z
" style="fill:#58a1ce;fill-opacity:0.95;"/>
    <path clip-path="url(#pe4c304c4cb)" d="M 180.947386 201.122876 
L 179.034352 210.799325 
L 181.457923 196.786812 
z
" style="fill:#f16a14;fill-opacity:0.95;"/>
    <path clip-path="url(#pe4c304c4cb)" d="M 179.034352 210.799325 
L 182.927471 180.035506 
L 178.395947 206.183447 
z
" style="fill:#f77c29;fill-opacity:0.95;"/>
    <path clip-path="url(#pe4c304c4cb)" d="M 181.622754 155.755131 
L 185.539364 142.531891 
L 175.069595 177.600585 
z
" style="fill:#ecf4fb;fill-opacity:0.95;"/>
    <path clip-path="url(#pe4c304c4cb)" d="M 179.277407 177.330995 
L 177.698238 179.82879 
L 182.927471 180.035506 
z
" style="fill:#fdd1a4;fill-opacity:0.95;"/>
    <path clip-path="url(#pe4c304c4cb)" d="M 180.947386 201.122876 
L 183.261386 170.409504 
L 179.034352 210.799325 
z
" style="fill:#fd9446;fill-opacity:0.95;"/>
    <path clip-path="url(#pe4c304c4cb)" d="M 181.457923 196.786812 
L 178.395947 206.183447 
L 146.5064 231.062803 
z
" style="fill:#dc4d04;fill-opacity:0.95;"/>
    <path clip-path="url(#pe4c304c4cb)" d="M 179.034352 210.799325 
L 183.261386 170.409504 
L 182.927471 180.035506 
z
" style="fill:#fdb474;fill-opacity:0.95;"/>
    <path clip-path="url(#pe4c304c4cb)" d="M 179.277407 177.330995 
L 186.325638 156.140799 
L 181.622754 155.755131 
z
" style="fill:#f7fbff;fill-opacity:0.95;"/>
    <path clip-path="url(#pe4c304c4cb)" d="M 182.927471 180.035506 
L 183.601787 174.663014 
L 179.277407 177.330995 
z
" style="fill:#fdd8b2;fill-opacity:0.95;"/>
    <path clip-path="url(#pe4c304c4cb)" d="M 175.069595 177.600585 
L 185.539364 142.531891 
L 191.90615 94.107454 
z
" style="fill:#9ac8e0;fill-opacity:0.95;"/>
    <path clip-path="url(#pe4c304c4cb)" d="M 179.277407 177.330995 
L 183.601787 174.663014 
L 184.083084 170.176528 
z
" style="fill:#fee2c5;fill-opacity:0.95;"/>
    <path clip-path="url(#pe4c304c4cb)" d="M 187.163368 158.419317 
L 186.325638 156.140799 
L 179.277407 177.330995 
z
" style="fill:#f7fbff;fill-opacity:0.95;"/>
    <path clip-path="url(#pe4c304c4cb)" d="M 181.622754 155.755131 
L 187.118864 130.914778 
L 185.539364 142.531891 
z
" style="fill:#afd1e7;fill-opacity:0.95;"/>
    <path clip-path="url(#pe4c304c4cb)" d="M 182.927471 180.035506 
L 183.261386 170.409504 
L 183.601787 174.663014 
z
" style="fill:#fee2c5;fill-opacity:0.95;"/>
    <path clip-path="url(#pe4c304c4cb)" d="M 179.277407 177.330995 
L 184.083084 170.176528 
L 187.163368 158.419317 
z
" style="fill:#ffeede;fill-opacity:0.95;"/>
    <path clip-path="url(#pe4c304c4cb)" d="M 146.5064 231.062803 
L 185.775901 205.218021 
L 181.457923 196.786812 
z
" style="fill:#e25508;fill-opacity:0.95;"/>
    <path clip-path="url(#pe4c304c4cb)" d="M 180.947386 201.122876 
L 181.457923 196.786812 
L 191.104689 160.324869 
z
" style="fill:#fdbc82;fill-opacity:0.95;"/>
    <path clip-path="url(#pe4c304c4cb)" d="M 183.261386 170.409504 
L 180.947386 201.122876 
L 187.163368 158.419317 
z
" style="fill:#fedebd;fill-opacity:0.95;"/>
    <path clip-path="url(#pe4c304c4cb)" d="M 191.437225 144.13181 
L 187.118864 130.914778 
L 181.622754 155.755131 
z
" style="fill:#afd1e7;fill-opacity:0.95;"/>
    <path clip-path="url(#pe4c304c4cb)" d="M 183.261386 170.409504 
L 184.083084 170.176528 
L 183.601787 174.663014 
z
" style="fill:#feead5;fill-opacity:0.95;"/>
    <path clip-path="url(#pe4c304c4cb)" d="M 185.775901 205.218021 
L 185.965978 179.11433 
L 181.457923 196.786812 
z
" style="fill:#fd9f55;fill-opacity:0.95;"/>
    <path clip-path="url(#pe4c304c4cb)" d="M 181.622754 155.755131 
L 186.325638 156.140799 
L 190.479488 132.793127 
z
" style="fill:#c3daee;fill-opacity:0.95;"/>
    <path clip-path="url(#pe4c304c4cb)" d="M 186.329867 179.544994 
L 181.457923 196.786812 
L 185.965978 179.11433 
z
" style="fill:#fdc38c;fill-opacity:0.95;"/>
    <path clip-path="url(#pe4c304c4cb)" d="M 185.539364 142.531891 
L 187.118864 130.914778 
L 191.90615 94.107454 
z
" style="fill:#3a8ac2;fill-opacity:0.95;"/>
    <path clip-path="url(#pe4c304c4cb)" d="M 186.329867 179.544994 
L 186.545479 172.304741 
L 181.457923 196.786812 
z
" style="fill:#fdcd9e;fill-opacity:0.95;"/>
    <path clip-path="url(#pe4c304c4cb)" d="M 181.622754 155.755131 
L 190.479488 132.793127 
L 191.437225 144.13181 
z
" style="fill:#afd1e7;fill-opacity:0.95;"/>
    <path clip-path="url(#pe4c304c4cb)" d="M 184.083084 170.176528 
L 183.261386 170.409504 
L 187.163368 158.419317 
z
" style="fill:#fff5eb;fill-opacity:0.95;"/>
    <path clip-path="url(#pe4c304c4cb)" d="M 187.163368 158.419317 
L 180.947386 201.122876 
L 191.104689 160.324869 
z
" style="fill:#fee8d1;fill-opacity:0.95;"/>
    <path clip-path="url(#pe4c304c4cb)" d="M 191.437225 144.13181 
L 190.220173 119.069244 
L 187.118864 130.914778 
z
" style="fill:#62a8d2;fill-opacity:0.95;"/>
    <path clip-path="url(#pe4c304c4cb)" d="M 187.163368 158.419317 
L 192.838812 146.299719 
L 186.325638 156.140799 
z
" style="fill:#d2e3f3;fill-opacity:0.95;"/>
    <path clip-path="url(#pe4c304c4cb)" d="M 186.545479 172.304741 
L 191.104689 160.324869 
L 181.457923 196.786812 
z
" style="fill:#fee2c5;fill-opacity:0.95;"/>
    <path clip-path="url(#pe4c304c4cb)" d="M 191.90615 94.107454 
L 187.118864 130.914778 
L 190.220173 119.069244 
z
" style="fill:#1a67ae;fill-opacity:0.95;"/>
    <path clip-path="url(#pe4c304c4cb)" d="M 190.479488 132.793127 
L 186.325638 156.140799 
L 192.838812 146.299719 
z
" style="fill:#afd1e7;fill-opacity:0.95;"/>
    <path clip-path="url(#pe4c304c4cb)" d="M 185.833296 204.952747 
L 189.393371 178.014365 
L 185.775901 205.218021 
z
" style="fill:#fd9d52;fill-opacity:0.95;"/>
    <path clip-path="url(#pe4c304c4cb)" d="M 191.437225 144.13181 
L 190.479488 132.793127 
L 192.838812 146.299719 
z
" style="fill:#96c6df;fill-opacity:0.95;"/>
    <path clip-path="url(#pe4c304c4cb)" d="M 189.393371 178.014365 
L 185.965978 179.11433 
L 185.775901 205.218021 
z
" style="fill:#fdc089;fill-opacity:0.95;"/>
    <path clip-path="url(#pe4c304c4cb)" d="M 186.921233 200.05652 
L 189.393371 178.014365 
L 185.833296 204.952747 
z
" style="fill:#fda55e;fill-opacity:0.95;"/>
    <path clip-path="url(#pe4c304c4cb)" d="M 146.5064 231.062803 
L 177.025545 237.068464 
L 185.775901 205.218021 
z
" style="fill:#aa3703;fill-opacity:0.95;"/>
    <path clip-path="url(#pe4c304c4cb)" d="M 193.692335 120.900123 
L 190.220173 119.069244 
L 191.437225 144.13181 
z
" style="fill:#4d9aca;fill-opacity:0.95;"/>
    <path clip-path="url(#pe4c304c4cb)" d="M 185.965978 179.11433 
L 189.393371 178.014365 
L 186.329867 179.544994 
z
" style="fill:#fedebd;fill-opacity:0.95;"/>
    <path clip-path="url(#pe4c304c4cb)" d="M 191.437225 144.13181 
L 192.838812 146.299719 
L 198.067607 134.176821 
z
" style="fill:#96c6df;fill-opacity:0.95;"/>
    <path clip-path="url(#pe4c304c4cb)" d="M 189.393371 178.014365 
L 186.545479 172.304741 
L 186.329867 179.544994 
z
" style="fill:#fee4cb;fill-opacity:0.95;"/>
    <path clip-path="url(#pe4c304c4cb)" d="M 193.479425 177.084913 
L 185.833296 204.952747 
L 185.775901 205.218021 
z
" style="fill:#fda158;fill-opacity:0.95;"/>
    <path clip-path="url(#pe4c304c4cb)" d="M 190.220173 119.069244 
L 193.692335 120.900123 
L 191.90615 94.107454 
z
" style="fill:#0d57a1;fill-opacity:0.95;"/>
    <path clip-path="url(#pe4c304c4cb)" d="M 198.067607 134.176821 
L 193.692335 120.900123 
L 191.437225 144.13181 
z
" style="fill:#62a8d2;fill-opacity:0.95;"/>
    <path clip-path="url(#pe4c304c4cb)" d="M 186.921233 200.05652 
L 185.833296 204.952747 
L 193.479425 177.084913 
z
" style="fill:#fda964;fill-opacity:0.95;"/>
    <path clip-path="url(#pe4c304c4cb)" d="M 193.374292 148.593273 
L 192.838812 146.299719 
L 187.163368 158.419317 
z
" style="fill:#c3daee;fill-opacity:0.95;"/>
    <path clip-path="url(#pe4c304c4cb)" d="M 190.038802 174.317514 
L 189.393371 178.014365 
L 186.921233 200.05652 
z
" style="fill:#fdd2a7;fill-opacity:0.95;"/>
    <path clip-path="url(#pe4c304c4cb)" d="M 198.067607 134.176821 
L 191.90615 94.107454 
L 193.692335 120.900123 
z
" style="fill:#1a67ae;fill-opacity:0.95;"/>
    <path clip-path="url(#pe4c304c4cb)" d="M 191.104689 160.324869 
L 193.374292 148.593273 
L 187.163368 158.419317 
z
" style="fill:#d2e3f3;fill-opacity:0.95;"/>
    <path clip-path="url(#pe4c304c4cb)" d="M 189.393371 178.014365 
L 190.038802 174.317514 
L 186.545479 172.304741 
z
" style="fill:#feead5;fill-opacity:0.95;"/>
    <path clip-path="url(#pe4c304c4cb)" d="M 186.921233 200.05652 
L 193.737231 162.412702 
L 190.038802 174.317514 
z
" style="fill:#fee2c5;fill-opacity:0.95;"/>
    <path clip-path="url(#pe4c304c4cb)" d="M 193.737231 162.412702 
L 191.104689 160.324869 
L 186.545479 172.304741 
z
" style="fill:#ecf4fb;fill-opacity:0.95;"/>
    <path clip-path="url(#pe4c304c4cb)" d="M 146.5064 231.062803 
L 179.800941 238.19253 
L 177.025545 237.068464 
z
" style="fill:#7f2704;fill-opacity:0.95;"/>
    <path clip-path="url(#pe4c304c4cb)" d="M 198.067607 134.176821 
L 192.838812 146.299719 
L 193.374292 148.593273 
z
" style="fill:#96c6df;fill-opacity:0.95;"/>
    <path clip-path="url(#pe4c304c4cb)" d="M 193.479425 177.084913 
L 185.775901 205.218021 
L 177.025545 237.068464 
z
" style="fill:#f77c29;fill-opacity:0.95;"/>
    <path clip-path="url(#pe4c304c4cb)" d="M 186.545479 172.304741 
L 190.038802 174.317514 
L 193.737231 162.412702 
z
" style="fill:#fff5eb;fill-opacity:0.95;"/>
    <path clip-path="url(#pe4c304c4cb)" d="M 191.90615 94.107454 
L 198.067607 134.176821 
L 222.112971 175.353716 
z
" style="fill:#62a8d2;fill-opacity:0.95;"/>
    <path clip-path="url(#pe4c304c4cb)" d="M 186.921233 200.05652 
L 193.479425 177.084913 
L 193.914119 176.669963 
z
" style="fill:#fdd5ac;fill-opacity:0.95;"/>
    <path clip-path="url(#pe4c304c4cb)" d="M 193.914119 176.669963 
L 194.020612 176.28389 
L 186.921233 200.05652 
z
" style="fill:#fdd5ac;fill-opacity:0.95;"/>
    <path clip-path="url(#pe4c304c4cb)" d="M 191.104689 160.324869 
L 193.737231 162.412702 
L 193.374292 148.593273 
z
" style="fill:#d2e3f3;fill-opacity:0.95;"/>
    <path clip-path="url(#pe4c304c4cb)" d="M 186.921233 200.05652 
L 198.4165 164.257468 
L 193.737231 162.412702 
z
" style="fill:#feecd9;fill-opacity:0.95;"/>
    <path clip-path="url(#pe4c304c4cb)" d="M 194.020612 176.28389 
L 198.4165 164.257468 
L 186.921233 200.05652 
z
" style="fill:#fee2c5;fill-opacity:0.95;"/>
    <path clip-path="url(#pe4c304c4cb)" d="M 222.112971 175.353716 
L 198.067607 134.176821 
L 193.374292 148.593273 
z
" style="fill:#c0d9ed;fill-opacity:0.95;"/>
    <path clip-path="url(#pe4c304c4cb)" d="M 222.112971 175.353716 
L 193.374292 148.593273 
L 193.737231 162.412702 
z
" style="fill:#dceaf6;fill-opacity:0.95;"/>
    <path clip-path="url(#pe4c304c4cb)" d="M 193.479425 177.084913 
L 177.025545 237.068464 
L 198.043445 177.376726 
z
" style="fill:#fdad6a;fill-opacity:0.95;"/>
    <path clip-path="url(#pe4c304c4cb)" d="M 177.025545 237.068464 
L 179.800941 238.19253 
L 198.043445 177.376726 
z
" style="fill:#e5590a;fill-opacity:0.95;"/>
    <path clip-path="url(#pe4c304c4cb)" d="M 193.737231 162.412702 
L 198.4165 164.257468 
L 222.112971 175.353716 
z
" style="fill:#eaf3fb;fill-opacity:0.95;"/>
    <path clip-path="url(#pe4c304c4cb)" d="M 193.914119 176.669963 
L 193.479425 177.084913 
L 198.043445 177.376726 
z
" style="fill:#feecdb;fill-opacity:0.95;"/>
    <path clip-path="url(#pe4c304c4cb)" d="M 198.043445 177.376726 
L 194.020612 176.28389 
L 193.914119 176.669963 
z
" style="fill:#feeddc;fill-opacity:0.95;"/>
    <path clip-path="url(#pe4c304c4cb)" d="M 222.112971 175.353716 
L 198.043445 177.376726 
L 179.800941 238.19253 
z
" style="fill:#fdaf6d;fill-opacity:0.95;"/>
    <path clip-path="url(#pe4c304c4cb)" d="M 198.261221 176.878044 
L 198.4165 164.257468 
L 194.020612 176.28389 
z
" style="fill:#f7fbff;fill-opacity:0.95;"/>
    <path clip-path="url(#pe4c304c4cb)" d="M 198.043445 177.376726 
L 198.082222 176.984364 
L 194.020612 176.28389 
z
" style="fill:#ffeede;fill-opacity:0.95;"/>
    <path clip-path="url(#pe4c304c4cb)" d="M 194.020612 176.28389 
L 198.082222 176.984364 
L 198.261221 176.878044 
z
" style="fill:#ffeede;fill-opacity:0.95;"/>
    <path clip-path="url(#pe4c304c4cb)" d="M 198.4165 164.257468 
L 198.261221 176.878044 
L 222.112971 175.353716 
z
" style="fill:#f5fafe;fill-opacity:0.95;"/>
    <path clip-path="url(#pe4c304c4cb)" d="M 198.082222 176.984364 
L 198.043445 177.376726 
L 222.112971 175.353716 
z
" style="fill:#ffefe0;fill-opacity:0.95;"/>
    <path clip-path="url(#pe4c304c4cb)" d="M 222.112971 175.353716 
L 198.261221 176.878044 
L 198.082222 176.984364 
z
" style="fill:#ffefe0;fill-opacity:0.95;"/>
    <path clip-path="url(#pe4c304c4cb)" d="M 179.800941 238.19253 
L 221.736127 215.034056 
L 222.112971 175.353716 
z
" style="fill:#fa8330;fill-opacity:0.95;"/>
    <path clip-path="url(#pe4c304c4cb)" d="M 222.112971 175.353716 
L 221.736127 215.034056 
L 225.584817 206.746892 
z
" style="fill:#fdb678;fill-opacity:0.95;"/>
    <path clip-path="url(#pe4c304c4cb)" d="M 361.534239 137.838545 
L 189.872723 94.48135 
L 191.90615 94.107454 
z
" style="fill:#08306b;fill-opacity:0.95;"/>
    <path clip-path="url(#pe4c304c4cb)" d="M 222.112971 175.353716 
L 331.52791 136.914006 
L 191.90615 94.107454 
z
" style="fill:#4393c6;fill-opacity:0.95;"/>
    <path clip-path="url(#pe4c304c4cb)" d="M 225.584817 206.746892 
L 235.260011 167.918897 
L 222.112971 175.353716 
z
" style="fill:#feebd7;fill-opacity:0.95;"/>
    <path clip-path="url(#pe4c304c4cb)" d="M 239.318839 181.637714 
L 267.212315 187.950414 
L 222.112971 175.353716 
z
" style="fill:#ffeede;fill-opacity:0.95;"/>
    <path clip-path="url(#pe4c304c4cb)" d="M 235.260011 167.918897 
L 239.318839 181.637714 
L 222.112971 175.353716 
z
" style="fill:#eff6fc;fill-opacity:0.95;"/>
    <path clip-path="url(#pe4c304c4cb)" d="M 221.736127 215.034056 
L 255.142875 196.582726 
L 225.584817 206.746892 
z
" style="fill:#fda55e;fill-opacity:0.95;"/>
    <path clip-path="url(#pe4c304c4cb)" d="M 267.212315 187.950414 
L 296.203142 170.613603 
L 222.112971 175.353716 
z
" style="fill:#f4f9fe;fill-opacity:0.95;"/>
    <path clip-path="url(#pe4c304c4cb)" d="M 255.142875 196.582726 
L 235.260011 167.918897 
L 225.584817 206.746892 
z
" style="fill:#fee2c5;fill-opacity:0.95;"/>
    <path clip-path="url(#pe4c304c4cb)" d="M 235.260011 167.918897 
L 255.142875 196.582726 
L 239.318839 181.637714 
z
" style="fill:#fff3e7;fill-opacity:0.95;"/>
    <path clip-path="url(#pe4c304c4cb)" d="M 267.212315 187.950414 
L 239.318839 181.637714 
L 263.186272 169.107273 
z
" style="fill:#f2f8fd;fill-opacity:0.95;"/>
    <path clip-path="url(#pe4c304c4cb)" d="M 239.318839 181.637714 
L 255.142875 196.582726 
L 263.186272 169.107273 
z
" style="fill:#fff4e9;fill-opacity:0.95;"/>
    <path clip-path="url(#pe4c304c4cb)" d="M 222.112971 175.353716 
L 296.203142 170.613603 
L 331.52791 136.914006 
z
" style="fill:#afd1e7;fill-opacity:0.95;"/>
    <path clip-path="url(#pe4c304c4cb)" d="M 289.027868 177.867249 
L 267.212315 187.950414 
L 263.186272 169.107273 
z
" style="fill:#e9f2fa;fill-opacity:0.95;"/>
    <path clip-path="url(#pe4c304c4cb)" d="M 263.186272 169.107273 
L 255.142875 196.582726 
L 289.027868 177.867249 
z
" style="fill:#f1f7fd;fill-opacity:0.95;"/>
    <path clip-path="url(#pe4c304c4cb)" d="M 191.90615 94.107454 
L 331.52791 136.914006 
L 361.534239 137.838545 
z
" style="fill:#084990;fill-opacity:0.95;"/>
    <path clip-path="url(#pe4c304c4cb)" d="M 296.522856 145.180824 
L 267.212315 187.950414 
L 289.027868 177.867249 
z
" style="fill:#cde0f1;fill-opacity:0.95;"/>
    <path clip-path="url(#pe4c304c4cb)" d="M 296.203142 170.613603 
L 267.212315 187.950414 
L 296.522856 145.180824 
z
" style="fill:#c7dcef;fill-opacity:0.95;"/>
    <path clip-path="url(#pe4c304c4cb)" d="M 289.027868 177.867249 
L 323.401122 158.896172 
L 296.522856 145.180824 
z
" style="fill:#96c6df;fill-opacity:0.95;"/>
    <path clip-path="url(#pe4c304c4cb)" d="M 296.522856 145.180824 
L 323.401122 158.896172 
L 296.203142 170.613603 
z
" style="fill:#86bddc;fill-opacity:0.95;"/>
    <path clip-path="url(#pe4c304c4cb)" d="M 323.401122 158.896172 
L 331.52791 136.914006 
L 296.203142 170.613603 
z
" style="fill:#73b2d8;fill-opacity:0.95;"/>
    <path clip-path="url(#pe4c304c4cb)" d="M 361.534239 137.838545 
L 331.52791 136.914006 
L 323.401122 158.896172 
z
" style="fill:#3282be;fill-opacity:0.95;"/>
   </g>
   <g id="Path3DCollection_1">
    <defs>
     <path d="M 0 1.369306 
C 0.363144 1.369306 0.711464 1.225028 0.968246 0.968246 
C 1.225028 0.711464 1.369306 0.363144 1.369306 0 
C 1.369306 -0.363144 1.225028 -0.711464 0.968246 -0.968246 
C 0.711464 -1.225028 0.363144 -1.369306 0 -1.369306 
C -0.363144 -1.369306 -0.711464 -1.225028 -0.968246 -0.968246 
C -1.225028 -0.711464 -1.369306 -0.363144 -1.369306 0 
C -1.369306 0.363144 -1.225028 0.711464 -0.968246 0.968246 
C -0.711464 1.225028 -0.363144 1.369306 0 1.369306 
z
" id="C0_0_611dc60457"/>
    </defs>
    <g clip-path="url(#pe4c304c4cb)">
     <use style="fill-opacity:0.7;stroke:#000000;stroke-opacity:0.7;" x="191.90615" xlink:href="#C0_0_611dc60457" y="94.107454"/>
    </g>
    <g clip-path="url(#pe4c304c4cb)">
     <use style="fill-opacity:0.7;stroke:#000000;stroke-opacity:0.7;" x="222.112971" xlink:href="#C0_0_611dc60457" y="175.353716"/>
    </g>
    <g clip-path="url(#pe4c304c4cb)">
     <use style="fill-opacity:0.7;stroke:#000000;stroke-opacity:0.7;" x="163.503997" xlink:href="#C0_0_611dc60457" y="185.850752"/>
    </g>
    <g clip-path="url(#pe4c304c4cb)">
     <use style="fill-opacity:0.7;stroke:#000000;stroke-opacity:0.7;" x="198.261221" xlink:href="#C0_0_611dc60457" y="176.878044"/>
    </g>
    <g clip-path="url(#pe4c304c4cb)">
     <use style="fill-opacity:0.7;stroke:#000000;stroke-opacity:0.7;" x="193.479425" xlink:href="#C0_0_611dc60457" y="177.084913"/>
    </g>
    <g clip-path="url(#pe4c304c4cb)">
     <use style="fill-opacity:0.7;stroke:#000000;stroke-opacity:0.7;" x="189.393371" xlink:href="#C0_0_611dc60457" y="178.014365"/>
    </g>
    <g clip-path="url(#pe4c304c4cb)">
     <use style="fill-opacity:0.7;stroke:#000000;stroke-opacity:0.7;" x="186.329867" xlink:href="#C0_0_611dc60457" y="179.544994"/>
    </g>
    <g clip-path="url(#pe4c304c4cb)">
     <use style="fill-opacity:0.7;stroke:#000000;stroke-opacity:0.7;" x="182.927471" xlink:href="#C0_0_611dc60457" y="180.035506"/>
    </g>
    <g clip-path="url(#pe4c304c4cb)">
     <use style="fill-opacity:0.7;stroke:#000000;stroke-opacity:0.7;" x="179.277407" xlink:href="#C0_0_611dc60457" y="177.330995"/>
    </g>
    <g clip-path="url(#pe4c304c4cb)">
     <use style="fill-opacity:0.7;stroke:#000000;stroke-opacity:0.7;" x="173.538398" xlink:href="#C0_0_611dc60457" y="182.553631"/>
    </g>
    <g clip-path="url(#pe4c304c4cb)">
     <use style="fill-opacity:0.7;stroke:#000000;stroke-opacity:0.7;" x="198.082388" xlink:href="#C0_0_611dc60457" y="176.998176"/>
    </g>
    <g clip-path="url(#pe4c304c4cb)">
     <use style="fill-opacity:0.7;stroke:#000000;stroke-opacity:0.7;" x="193.914119" xlink:href="#C0_0_611dc60457" y="176.669963"/>
    </g>
    <g clip-path="url(#pe4c304c4cb)">
     <use style="fill-opacity:0.7;stroke:#000000;stroke-opacity:0.7;" x="189.393371" xlink:href="#C0_0_611dc60457" y="178.014365"/>
    </g>
    <g clip-path="url(#pe4c304c4cb)">
     <use style="fill-opacity:0.7;stroke:#000000;stroke-opacity:0.7;" x="185.965978" xlink:href="#C0_0_611dc60457" y="179.11433"/>
    </g>
    <g clip-path="url(#pe4c304c4cb)">
     <use style="fill-opacity:0.7;stroke:#000000;stroke-opacity:0.7;" x="183.601787" xlink:href="#C0_0_611dc60457" y="174.663014"/>
    </g>
    <g clip-path="url(#pe4c304c4cb)">
     <use style="fill-opacity:0.7;stroke:#000000;stroke-opacity:0.7;" x="177.698238" xlink:href="#C0_0_611dc60457" y="179.82879"/>
    </g>
    <g clip-path="url(#pe4c304c4cb)">
     <use style="fill-opacity:0.7;stroke:#000000;stroke-opacity:0.7;" x="175.069595" xlink:href="#C0_0_611dc60457" y="177.600585"/>
    </g>
    <g clip-path="url(#pe4c304c4cb)">
     <use style="fill-opacity:0.7;stroke:#000000;stroke-opacity:0.7;" x="198.082222" xlink:href="#C0_0_611dc60457" y="176.984364"/>
    </g>
    <g clip-path="url(#pe4c304c4cb)">
     <use style="fill-opacity:0.7;stroke:#000000;stroke-opacity:0.7;" x="194.020612" xlink:href="#C0_0_611dc60457" y="176.28389"/>
    </g>
    <g clip-path="url(#pe4c304c4cb)">
     <use style="fill-opacity:0.7;stroke:#000000;stroke-opacity:0.7;" x="190.038802" xlink:href="#C0_0_611dc60457" y="174.317514"/>
    </g>
    <g clip-path="url(#pe4c304c4cb)">
     <use style="fill-opacity:0.7;stroke:#000000;stroke-opacity:0.7;" x="186.545479" xlink:href="#C0_0_611dc60457" y="172.304741"/>
    </g>
    <g clip-path="url(#pe4c304c4cb)">
     <use style="fill-opacity:0.7;stroke:#000000;stroke-opacity:0.7;" x="184.083084" xlink:href="#C0_0_611dc60457" y="170.176528"/>
    </g>
    <g clip-path="url(#pe4c304c4cb)">
     <use style="fill-opacity:0.7;stroke:#000000;stroke-opacity:0.7;" x="183.261386" xlink:href="#C0_0_611dc60457" y="170.409504"/>
    </g>
    <g clip-path="url(#pe4c304c4cb)">
     <use style="fill-opacity:0.7;stroke:#000000;stroke-opacity:0.7;" x="183.261386" xlink:href="#C0_0_611dc60457" y="170.409504"/>
    </g>
    <g clip-path="url(#pe4c304c4cb)">
     <use style="fill-opacity:0.7;stroke:#000000;stroke-opacity:0.7;" x="198.4165" xlink:href="#C0_0_611dc60457" y="164.257468"/>
    </g>
    <g clip-path="url(#pe4c304c4cb)">
     <use style="fill-opacity:0.7;stroke:#000000;stroke-opacity:0.7;" x="193.737231" xlink:href="#C0_0_611dc60457" y="162.412702"/>
    </g>
    <g clip-path="url(#pe4c304c4cb)">
     <use style="fill-opacity:0.7;stroke:#000000;stroke-opacity:0.7;" x="191.104689" xlink:href="#C0_0_611dc60457" y="160.324869"/>
    </g>
    <g clip-path="url(#pe4c304c4cb)">
     <use style="fill-opacity:0.7;stroke:#000000;stroke-opacity:0.7;" x="187.163368" xlink:href="#C0_0_611dc60457" y="158.419317"/>
    </g>
    <g clip-path="url(#pe4c304c4cb)">
     <use style="fill-opacity:0.7;stroke:#000000;stroke-opacity:0.7;" x="186.325638" xlink:href="#C0_0_611dc60457" y="156.140799"/>
    </g>
    <g clip-path="url(#pe4c304c4cb)">
     <use style="fill-opacity:0.7;stroke:#000000;stroke-opacity:0.7;" x="181.622754" xlink:href="#C0_0_611dc60457" y="155.755131"/>
    </g>
    <g clip-path="url(#pe4c304c4cb)">
     <use style="fill-opacity:0.7;stroke:#000000;stroke-opacity:0.7;" x="193.374292" xlink:href="#C0_0_611dc60457" y="148.593273"/>
    </g>
    <g clip-path="url(#pe4c304c4cb)">
     <use style="fill-opacity:0.7;stroke:#000000;stroke-opacity:0.7;" x="192.838812" xlink:href="#C0_0_611dc60457" y="146.299719"/>
    </g>
    <g clip-path="url(#pe4c304c4cb)">
     <use style="fill-opacity:0.7;stroke:#000000;stroke-opacity:0.7;" x="191.437225" xlink:href="#C0_0_611dc60457" y="144.13181"/>
    </g>
    <g clip-path="url(#pe4c304c4cb)">
     <use style="fill-opacity:0.7;stroke:#000000;stroke-opacity:0.7;" x="185.539364" xlink:href="#C0_0_611dc60457" y="142.531891"/>
    </g>
    <g clip-path="url(#pe4c304c4cb)">
     <use style="fill-opacity:0.7;stroke:#000000;stroke-opacity:0.7;" x="198.067607" xlink:href="#C0_0_611dc60457" y="134.176821"/>
    </g>
    <g clip-path="url(#pe4c304c4cb)">
     <use style="fill-opacity:0.7;stroke:#000000;stroke-opacity:0.7;" x="190.479488" xlink:href="#C0_0_611dc60457" y="132.793127"/>
    </g>
    <g clip-path="url(#pe4c304c4cb)">
     <use style="fill-opacity:0.7;stroke:#000000;stroke-opacity:0.7;" x="187.118864" xlink:href="#C0_0_611dc60457" y="130.914778"/>
    </g>
    <g clip-path="url(#pe4c304c4cb)">
     <use style="fill-opacity:0.7;stroke:#000000;stroke-opacity:0.7;" x="193.692335" xlink:href="#C0_0_611dc60457" y="120.900123"/>
    </g>
    <g clip-path="url(#pe4c304c4cb)">
     <use style="fill-opacity:0.7;stroke:#000000;stroke-opacity:0.7;" x="190.220173" xlink:href="#C0_0_611dc60457" y="119.069244"/>
    </g>
    <g clip-path="url(#pe4c304c4cb)">
     <use style="fill-opacity:0.7;stroke:#000000;stroke-opacity:0.7;" x="177.025545" xlink:href="#C0_0_611dc60457" y="237.068464"/>
    </g>
    <g clip-path="url(#pe4c304c4cb)">
     <use style="fill-opacity:0.7;stroke:#000000;stroke-opacity:0.7;" x="198.043445" xlink:href="#C0_0_611dc60457" y="177.376726"/>
    </g>
    <g clip-path="url(#pe4c304c4cb)">
     <use style="fill-opacity:0.7;stroke:#000000;stroke-opacity:0.7;" x="185.775901" xlink:href="#C0_0_611dc60457" y="205.218021"/>
    </g>
    <g clip-path="url(#pe4c304c4cb)">
     <use style="fill-opacity:0.7;stroke:#000000;stroke-opacity:0.7;" x="179.034352" xlink:href="#C0_0_611dc60457" y="210.799325"/>
    </g>
    <g clip-path="url(#pe4c304c4cb)">
     <use style="fill-opacity:0.7;stroke:#000000;stroke-opacity:0.7;" x="171.814944" xlink:href="#C0_0_611dc60457" y="207.294497"/>
    </g>
    <g clip-path="url(#pe4c304c4cb)">
     <use style="fill-opacity:0.7;stroke:#000000;stroke-opacity:0.7;" x="198.043445" xlink:href="#C0_0_611dc60457" y="177.376726"/>
    </g>
    <g clip-path="url(#pe4c304c4cb)">
     <use style="fill-opacity:0.7;stroke:#000000;stroke-opacity:0.7;" x="185.775901" xlink:href="#C0_0_611dc60457" y="205.218021"/>
    </g>
    <g clip-path="url(#pe4c304c4cb)">
     <use style="fill-opacity:0.7;stroke:#000000;stroke-opacity:0.7;" x="178.395947" xlink:href="#C0_0_611dc60457" y="206.183447"/>
    </g>
    <g clip-path="url(#pe4c304c4cb)">
     <use style="fill-opacity:0.7;stroke:#000000;stroke-opacity:0.7;" x="175.697818" xlink:href="#C0_0_611dc60457" y="202.087577"/>
    </g>
    <g clip-path="url(#pe4c304c4cb)">
     <use style="fill-opacity:0.7;stroke:#000000;stroke-opacity:0.7;" x="198.043445" xlink:href="#C0_0_611dc60457" y="177.376726"/>
    </g>
    <g clip-path="url(#pe4c304c4cb)">
     <use style="fill-opacity:0.7;stroke:#000000;stroke-opacity:0.7;" x="185.833296" xlink:href="#C0_0_611dc60457" y="204.952747"/>
    </g>
    <g clip-path="url(#pe4c304c4cb)">
     <use style="fill-opacity:0.7;stroke:#000000;stroke-opacity:0.7;" x="180.947386" xlink:href="#C0_0_611dc60457" y="201.122876"/>
    </g>
    <g clip-path="url(#pe4c304c4cb)">
     <use style="fill-opacity:0.7;stroke:#000000;stroke-opacity:0.7;" x="173.467085" xlink:href="#C0_0_611dc60457" y="197.699013"/>
    </g>
    <g clip-path="url(#pe4c304c4cb)">
     <use style="fill-opacity:0.7;stroke:#000000;stroke-opacity:0.7;" x="198.043445" xlink:href="#C0_0_611dc60457" y="177.376726"/>
    </g>
    <g clip-path="url(#pe4c304c4cb)">
     <use style="fill-opacity:0.7;stroke:#000000;stroke-opacity:0.7;" x="186.921233" xlink:href="#C0_0_611dc60457" y="200.05652"/>
    </g>
    <g clip-path="url(#pe4c304c4cb)">
     <use style="fill-opacity:0.7;stroke:#000000;stroke-opacity:0.7;" x="181.457923" xlink:href="#C0_0_611dc60457" y="196.786812"/>
    </g>
    <g clip-path="url(#pe4c304c4cb)">
     <use style="fill-opacity:0.7;stroke:#000000;stroke-opacity:0.7;" x="174.312583" xlink:href="#C0_0_611dc60457" y="192.879081"/>
    </g>
    <g clip-path="url(#pe4c304c4cb)">
     <use style="fill-opacity:0.7;stroke:#000000;stroke-opacity:0.7;" x="179.800941" xlink:href="#C0_0_611dc60457" y="238.19253"/>
    </g>
    <g clip-path="url(#pe4c304c4cb)">
     <use style="fill-opacity:0.7;stroke:#000000;stroke-opacity:0.7;" x="189.872723" xlink:href="#C0_0_611dc60457" y="94.48135"/>
    </g>
    <g clip-path="url(#pe4c304c4cb)">
     <use style="fill-opacity:0.7;stroke:#000000;stroke-opacity:0.7;" x="179.800941" xlink:href="#C0_0_611dc60457" y="238.19253"/>
    </g>
    <g clip-path="url(#pe4c304c4cb)">
     <use style="fill-opacity:0.7;stroke:#000000;stroke-opacity:0.7;" x="146.5064" xlink:href="#C0_0_611dc60457" y="231.062803"/>
    </g>
    <g clip-path="url(#pe4c304c4cb)">
     <use style="fill-opacity:0.7;stroke:#000000;stroke-opacity:0.7;" x="189.872723" xlink:href="#C0_0_611dc60457" y="94.48135"/>
    </g>
    <g clip-path="url(#pe4c304c4cb)">
     <use style="fill-opacity:0.7;stroke:#000000;stroke-opacity:0.7;" x="179.800941" xlink:href="#C0_0_611dc60457" y="238.19253"/>
    </g>
    <g clip-path="url(#pe4c304c4cb)">
     <use style="fill-opacity:0.7;stroke:#000000;stroke-opacity:0.7;" x="146.5064" xlink:href="#C0_0_611dc60457" y="231.062803"/>
    </g>
    <g clip-path="url(#pe4c304c4cb)">
     <use style="fill-opacity:0.7;stroke:#000000;stroke-opacity:0.7;" x="361.534239" xlink:href="#C0_0_611dc60457" y="137.838545"/>
    </g>
    <g clip-path="url(#pe4c304c4cb)">
     <use style="fill-opacity:0.7;stroke:#000000;stroke-opacity:0.7;" x="323.401122" xlink:href="#C0_0_611dc60457" y="158.896172"/>
    </g>
    <g clip-path="url(#pe4c304c4cb)">
     <use style="fill-opacity:0.7;stroke:#000000;stroke-opacity:0.7;" x="296.522856" xlink:href="#C0_0_611dc60457" y="145.180824"/>
    </g>
    <g clip-path="url(#pe4c304c4cb)">
     <use style="fill-opacity:0.7;stroke:#000000;stroke-opacity:0.7;" x="255.142875" xlink:href="#C0_0_611dc60457" y="196.582726"/>
    </g>
    <g clip-path="url(#pe4c304c4cb)">
     <use style="fill-opacity:0.7;stroke:#000000;stroke-opacity:0.7;" x="221.736127" xlink:href="#C0_0_611dc60457" y="215.034056"/>
    </g>
    <g clip-path="url(#pe4c304c4cb)">
     <use style="fill-opacity:0.7;stroke:#000000;stroke-opacity:0.7;" x="323.401122" xlink:href="#C0_0_611dc60457" y="158.896172"/>
    </g>
    <g clip-path="url(#pe4c304c4cb)">
     <use style="fill-opacity:0.7;stroke:#000000;stroke-opacity:0.7;" x="289.027868" xlink:href="#C0_0_611dc60457" y="177.867249"/>
    </g>
    <g clip-path="url(#pe4c304c4cb)">
     <use style="fill-opacity:0.7;stroke:#000000;stroke-opacity:0.7;" x="255.142875" xlink:href="#C0_0_611dc60457" y="196.582726"/>
    </g>
    <g clip-path="url(#pe4c304c4cb)">
     <use style="fill-opacity:0.7;stroke:#000000;stroke-opacity:0.7;" x="225.584817" xlink:href="#C0_0_611dc60457" y="206.746892"/>
    </g>
    <g clip-path="url(#pe4c304c4cb)">
     <use style="fill-opacity:0.7;stroke:#000000;stroke-opacity:0.7;" x="323.401122" xlink:href="#C0_0_611dc60457" y="158.896172"/>
    </g>
    <g clip-path="url(#pe4c304c4cb)">
     <use style="fill-opacity:0.7;stroke:#000000;stroke-opacity:0.7;" x="289.027868" xlink:href="#C0_0_611dc60457" y="177.867249"/>
    </g>
    <g clip-path="url(#pe4c304c4cb)">
     <use style="fill-opacity:0.7;stroke:#000000;stroke-opacity:0.7;" x="267.212315" xlink:href="#C0_0_611dc60457" y="187.950414"/>
    </g>
    <g clip-path="url(#pe4c304c4cb)">
     <use style="fill-opacity:0.7;stroke:#000000;stroke-opacity:0.7;" x="239.318839" xlink:href="#C0_0_611dc60457" y="181.637714"/>
    </g>
    <g clip-path="url(#pe4c304c4cb)">
     <use style="fill-opacity:0.7;stroke:#000000;stroke-opacity:0.7;" x="331.52791" xlink:href="#C0_0_611dc60457" y="136.914006"/>
    </g>
    <g clip-path="url(#pe4c304c4cb)">
     <use style="fill-opacity:0.7;stroke:#000000;stroke-opacity:0.7;" x="296.203142" xlink:href="#C0_0_611dc60457" y="170.613603"/>
    </g>
    <g clip-path="url(#pe4c304c4cb)">
     <use style="fill-opacity:0.7;stroke:#000000;stroke-opacity:0.7;" x="263.186272" xlink:href="#C0_0_611dc60457" y="169.107273"/>
    </g>
    <g clip-path="url(#pe4c304c4cb)">
     <use style="fill-opacity:0.7;stroke:#000000;stroke-opacity:0.7;" x="235.260011" xlink:href="#C0_0_611dc60457" y="167.918897"/>
    </g>
   </g>
   <g id="Poly3DCollection_2">
    <path clip-path="url(#pe4c304c4cb)" d="M 307.51692 225.934734 
L 324.445593 223.486159 
L 324.753825 210.531501 
L 307.763584 212.938914 
z
" style="fill:#e10000;fill-opacity:0.5;"/>
    <path clip-path="url(#pe4c304c4cb)" d="M 307.763584 212.938914 
L 324.753825 210.531501 
L 325.064342 197.480799 
L 308.012084 199.846371 
z
" style="fill:#e10000;fill-opacity:0.5;"/>
    <path clip-path="url(#pe4c304c4cb)" d="M 290.456922 228.402304 
L 307.51692 225.934734 
L 307.763584 212.938914 
L 290.64105 215.365072 
z
" style="fill:#e10000;fill-opacity:0.5;"/>
    <path clip-path="url(#pe4c304c4cb)" d="M 308.012084 199.846371 
L 325.064342 197.480799 
L 325.37717 184.332984 
L 308.262441 186.656021 
z
" style="fill:#e10000;fill-opacity:0.5;"/>
    <path clip-path="url(#pe4c304c4cb)" d="M 290.64105 215.365072 
L 307.763584 212.938914 
L 308.012084 199.846371 
L 290.826554 202.23043 
z
" style="fill:#e10000;fill-opacity:0.5;"/>
    <path clip-path="url(#pe4c304c4cb)" d="M 273.264065 230.88909 
L 290.456922 228.402304 
L 290.64105 215.365072 
L 273.384672 217.810195 
z
" style="fill:#e10000;fill-opacity:0.5;"/>
    <path clip-path="url(#pe4c304c4cb)" d="M 308.262441 186.656021 
L 325.37717 184.332984 
L 325.692334 171.086965 
L 308.514674 173.366765 
z
" style="fill:#e10000;fill-opacity:0.5;"/>
    <path clip-path="url(#pe4c304c4cb)" d="M 290.826554 202.23043 
L 308.012084 199.846371 
L 308.262441 186.656021 
L 291.013449 188.997283 
z
" style="fill:#e10000;fill-opacity:0.5;"/>
    <path clip-path="url(#pe4c304c4cb)" d="M 273.384672 217.810195 
L 290.64105 215.365072 
L 290.826554 202.23043 
L 273.506183 204.633196 
z
" style="fill:#e10000;fill-opacity:0.5;"/>
    <path clip-path="url(#pe4c304c4cb)" d="M 255.93679 233.395319 
L 273.264065 230.88909 
L 273.384672 217.810195 
L 255.992873 220.274507 
z
" style="fill:#e10000;fill-opacity:0.5;"/>
    <path clip-path="url(#pe4c304c4cb)" d="M 308.514674 173.366765 
L 325.692334 171.086965 
L 326.009862 157.741639 
L 308.768807 159.977485 
z
" style="fill:#e10000;fill-opacity:0.5;"/>
    <path clip-path="url(#pe4c304c4cb)" d="M 291.013449 188.997283 
L 308.262441 186.656021 
L 308.514674 173.366765 
L 291.201751 175.664516 
z
" style="fill:#e10000;fill-opacity:0.5;"/>
    <path clip-path="url(#pe4c304c4cb)" d="M 273.506183 204.633196 
L 290.826554 202.23043 
L 291.013449 188.997283 
L 273.62861 191.356983 
z
" style="fill:#e10000;fill-opacity:0.5;"/>
    <path clip-path="url(#pe4c304c4cb)" d="M 255.992873 220.274507 
L 273.384672 217.810195 
L 273.506183 204.633196 
L 256.049378 207.054888 
z
" style="fill:#e10000;fill-opacity:0.5;"/>
    <path clip-path="url(#pe4c304c4cb)" d="M 238.473516 235.921219 
L 255.93679 233.395319 
L 255.992873 220.274507 
L 238.464054 222.758233 
z
" style="fill:#e10000;fill-opacity:0.5;"/>
    <path clip-path="url(#pe4c304c4cb)" d="M 308.768807 159.977485 
L 326.009862 157.741639 
L 326.329778 144.295886 
L 309.024859 146.487048 
z
" style="fill:#e10000;fill-opacity:0.5;"/>
    <path clip-path="url(#pe4c304c4cb)" d="M 291.201751 175.664516 
L 308.514674 173.366765 
L 308.768807 159.977485 
L 291.391476 162.231003 
z
" style="fill:#e10000;fill-opacity:0.5;"/>
    <path clip-path="url(#pe4c304c4cb)" d="M 273.62861 191.356983 
L 291.013449 188.997283 
L 291.201751 175.664516 
L 273.751961 177.980433 
z
" style="fill:#e10000;fill-opacity:0.5;"/>
    <path clip-path="url(#pe4c304c4cb)" d="M 256.049378 207.054888 
L 273.506183 204.633196 
L 273.62861 191.356983 
L 256.106311 193.735342 
z
" style="fill:#e10000;fill-opacity:0.5;"/>
    <path clip-path="url(#pe4c304c4cb)" d="M 238.464054 222.758233 
L 255.992873 220.274507 
L 256.049378 207.054888 
L 238.454521 209.495731 
z
" style="fill:#e10000;fill-opacity:0.5;"/>
    <path clip-path="url(#pe4c304c4cb)" d="M 220.872634 238.467022 
L 238.473516 235.921219 
L 238.464054 222.758233 
L 220.796589 225.261605 
z
" style="fill:#e10000;fill-opacity:0.5;"/>
    <path clip-path="url(#pe4c304c4cb)" d="M 309.024859 146.487048 
L 326.329778 144.295886 
L 326.652112 130.748566 
L 309.282853 132.894303 
z
" style="fill:#e10000;fill-opacity:0.5;"/>
    <path clip-path="url(#pe4c304c4cb)" d="M 291.391476 162.231003 
L 308.768807 159.977485 
L 309.024859 146.487048 
L 291.582641 148.695595 
z
" style="fill:#e10000;fill-opacity:0.5;"/>
    <path clip-path="url(#pe4c304c4cb)" d="M 273.751961 177.980433 
L 291.201751 175.664516 
L 291.391476 162.231003 
L 273.876249 164.502403 
z
" style="fill:#e10000;fill-opacity:0.5;"/>
    <path clip-path="url(#pe4c304c4cb)" d="M 256.106311 193.735342 
L 273.62861 191.356983 
L 273.751961 177.980433 
L 256.163675 180.314731 
z
" style="fill:#e10000;fill-opacity:0.5;"/>
    <path clip-path="url(#pe4c304c4cb)" d="M 238.454521 209.495731 
L 256.049378 207.054888 
L 256.106311 193.735342 
L 238.444915 196.13258 
z
" style="fill:#e10000;fill-opacity:0.5;"/>
    <path clip-path="url(#pe4c304c4cb)" d="M 220.796589 225.261605 
L 238.464054 222.758233 
L 238.454521 209.495731 
L 220.719967 211.955954 
z
" style="fill:#e10000;fill-opacity:0.5;"/>
    <path clip-path="url(#pe4c304c4cb)" d="M 203.132512 241.032966 
L 220.872634 238.467022 
L 220.796589 225.261605 
L 202.988826 227.784856 
z
" style="fill:#e10000;fill-opacity:0.5;"/>
    <path clip-path="url(#pe4c304c4cb)" d="M 309.282853 132.894303 
L 326.652112 130.748566 
L 326.976889 117.098525 
L 309.542811 119.198083 
z
" style="fill:#e10000;fill-opacity:0.5;"/>
    <path clip-path="url(#pe4c304c4cb)" d="M 291.582641 148.695595 
L 309.024859 146.487048 
L 309.282853 132.894303 
L 291.77526 135.05713 
z
" style="fill:#e10000;fill-opacity:0.5;"/>
    <path clip-path="url(#pe4c304c4cb)" d="M 273.876249 164.502403 
L 291.391476 162.231003 
L 291.582641 148.695595 
L 274.001483 150.921735 
z
" style="fill:#e10000;fill-opacity:0.5;"/>
    <path clip-path="url(#pe4c304c4cb)" d="M 256.163675 180.314731 
L 273.751961 177.980433 
L 273.876249 164.502403 
L 256.221476 166.7919 
z
" style="fill:#e10000;fill-opacity:0.5;"/>
    <path clip-path="url(#pe4c304c4cb)" d="M 238.444915 196.13258 
L 256.106311 193.735342 
L 256.163675 180.314731 
L 238.435237 182.667629 
z
" style="fill:#e10000;fill-opacity:0.5;"/>
    <path clip-path="url(#pe4c304c4cb)" d="M 220.719967 211.955954 
L 238.454521 209.495731 
L 238.444915 196.13258 
L 220.642761 198.548924 
z
" style="fill:#e10000;fill-opacity:0.5;"/>
    <path clip-path="url(#pe4c304c4cb)" d="M 202.988826 227.784856 
L 220.796589 225.261605 
L 220.719967 211.955954 
L 202.844046 214.435788 
z
" style="fill:#e10000;fill-opacity:0.5;"/>
    <path clip-path="url(#pe4c304c4cb)" d="M 185.25149 243.619289 
L 203.132512 241.032966 
L 202.988826 227.784856 
L 185.039088 230.328224 
z
" style="fill:#e10000;fill-opacity:0.5;"/>
    <path clip-path="url(#pe4c304c4cb)" d="M 309.542811 119.198083 
L 326.976889 117.098525 
L 327.304139 103.34459 
L 309.804755 105.3972 
z
" style="fill:#e10000;fill-opacity:0.5;"/>
    <path clip-path="url(#pe4c304c4cb)" d="M 291.77526 135.05713 
L 309.282853 132.894303 
L 309.542811 119.198083 
L 291.969352 121.314426 
z
" style="fill:#e10000;fill-opacity:0.5;"/>
    <path clip-path="url(#pe4c304c4cb)" d="M 274.001483 150.921735 
L 291.582641 148.695595 
L 291.77526 135.05713 
L 274.127674 137.237251 
z
" style="fill:#e10000;fill-opacity:0.5;"/>
    <path clip-path="url(#pe4c304c4cb)" d="M 256.221476 166.7919 
L 273.876249 164.502403 
L 274.001483 150.921735 
L 256.279719 153.165679 
z
" style="fill:#e10000;fill-opacity:0.5;"/>
    <path clip-path="url(#pe4c304c4cb)" d="M 238.435237 182.667629 
L 256.163675 180.314731 
L 256.221476 166.7919 
L 238.425484 169.099711 
z
" style="fill:#e10000;fill-opacity:0.5;"/>
    <path clip-path="url(#pe4c304c4cb)" d="M 220.642761 198.548924 
L 238.444915 196.13258 
L 238.435237 182.667629 
L 220.564965 185.039351 
z
" style="fill:#e10000;fill-opacity:0.5;"/>
    <path clip-path="url(#pe4c304c4cb)" d="M 202.844046 214.435788 
L 220.719967 211.955954 
L 220.642761 198.548924 
L 202.698158 200.984603 
z
" style="fill:#e10000;fill-opacity:0.5;"/>
    <path clip-path="url(#pe4c304c4cb)" d="M 185.039088 230.328224 
L 202.988826 227.784856 
L 202.844046 214.435788 
L 184.825061 216.935468 
z
" style="fill:#e10000;fill-opacity:0.5;"/>
    <path clip-path="url(#pe4c304c4cb)" d="M 167.227885 246.226235 
L 185.25149 243.619289 
L 185.039088 230.328224 
L 166.94567 232.891951 
z
" style="fill:#e10000;fill-opacity:0.5;"/>
    <path clip-path="url(#pe4c304c4cb)" d="M 291.969352 121.314426 
L 309.542811 119.198083 
L 309.804755 105.3972 
L 292.164933 107.466284 
z
" style="fill:#e10000;fill-opacity:0.5;"/>
    <path clip-path="url(#pe4c304c4cb)" d="M 274.127674 137.237251 
L 291.77526 135.05713 
L 291.969352 121.314426 
L 274.254834 123.447757 
z
" style="fill:#e10000;fill-opacity:0.5;"/>
    <path clip-path="url(#pe4c304c4cb)" d="M 256.279719 153.165679 
L 274.001483 150.921735 
L 274.127674 137.237251 
L 256.33841 139.434875 
z
" style="fill:#e10000;fill-opacity:0.5;"/>
    <path clip-path="url(#pe4c304c4cb)" d="M 238.425484 169.099711 
L 256.221476 166.7919 
L 256.279719 153.165679 
L 238.415656 155.42764 
z
" style="fill:#e10000;fill-opacity:0.5;"/>
    <path clip-path="url(#pe4c304c4cb)" d="M 220.564965 185.039351 
L 238.435237 182.667629 
L 238.425484 169.099711 
L 220.486571 171.426056 
z
" style="fill:#e10000;fill-opacity:0.5;"/>
    <path clip-path="url(#pe4c304c4cb)" d="M 202.698158 200.984603 
L 220.642761 198.548924 
L 220.564965 185.039351 
L 202.55115 187.430125 
z
" style="fill:#e10000;fill-opacity:0.5;"/>
    <path clip-path="url(#pe4c304c4cb)" d="M 184.825061 216.935468 
L 202.844046 214.435788 
L 202.698158 200.984603 
L 184.60939 203.43985 
z
" style="fill:#e10000;fill-opacity:0.5;"/>
    <path clip-path="url(#pe4c304c4cb)" d="M 166.94567 232.891951 
L 185.039088 230.328224 
L 184.825061 216.935468 
L 166.661288 219.455235 
z
" style="fill:#e10000;fill-opacity:0.5;"/>
    <path clip-path="url(#pe4c304c4cb)" d="M 274.254834 123.447757 
L 291.969352 121.314426 
L 292.164933 107.466284 
L 274.382973 109.552039 
z
" style="fill:#e10000;fill-opacity:0.5;"/>
    <path clip-path="url(#pe4c304c4cb)" d="M 256.33841 139.434875 
L 274.127674 137.237251 
L 274.254834 123.447757 
L 256.397552 125.598281 
z
" style="fill:#e10000;fill-opacity:0.5;"/>
    <path clip-path="url(#pe4c304c4cb)" d="M 238.415656 155.42764 
L 256.279719 153.165679 
L 256.33841 139.434875 
L 238.405753 141.650213 
z
" style="fill:#e10000;fill-opacity:0.5;"/>
    <path clip-path="url(#pe4c304c4cb)" d="M 220.486571 171.426056 
L 238.425484 169.099711 
L 238.415656 155.42764 
L 220.407573 157.707838 
z
" style="fill:#e10000;fill-opacity:0.5;"/>
    <path clip-path="url(#pe4c304c4cb)" d="M 202.55115 187.430125 
L 220.564965 185.039351 
L 220.486571 171.426056 
L 202.403009 173.771159 
z
" style="fill:#e10000;fill-opacity:0.5;"/>
    <path clip-path="url(#pe4c304c4cb)" d="M 184.60939 203.43985 
L 202.698158 200.984603 
L 202.55115 187.430125 
L 184.392056 189.840179 
z
" style="fill:#e10000;fill-opacity:0.5;"/>
    <path clip-path="url(#pe4c304c4cb)" d="M 166.661288 219.455235 
L 184.825061 216.935468 
L 184.60939 203.43985 
L 166.374713 205.914902 
z
" style="fill:#e10000;fill-opacity:0.5;"/>
    <path clip-path="url(#pe4c304c4cb)" d="M 256.397552 125.598281 
L 274.254834 123.447757 
L 274.382973 109.552039 
L 256.457152 111.654669 
z
" style="fill:#e10000;fill-opacity:0.5;"/>
    <path clip-path="url(#pe4c304c4cb)" d="M 238.405753 141.650213 
L 256.33841 139.434875 
L 256.397552 125.598281 
L 238.395773 127.766206 
z
" style="fill:#e10000;fill-opacity:0.5;"/>
    <path clip-path="url(#pe4c304c4cb)" d="M 220.407573 157.707838 
L 238.415656 155.42764 
L 238.405753 141.650213 
L 220.327964 143.88348 
z
" style="fill:#e10000;fill-opacity:0.5;"/>
    <path clip-path="url(#pe4c304c4cb)" d="M 202.403009 173.771159 
L 220.486571 171.426056 
L 220.407573 157.707838 
L 202.253721 160.006493 
z
" style="fill:#e10000;fill-opacity:0.5;"/>
    <path clip-path="url(#pe4c304c4cb)" d="M 184.392056 189.840179 
L 202.55115 187.430125 
L 202.403009 173.771159 
L 184.17304 176.135248 
z
" style="fill:#e10000;fill-opacity:0.5;"/>
    <path clip-path="url(#pe4c304c4cb)" d="M 166.374713 205.914902 
L 184.60939 203.43985 
L 184.392056 189.840179 
L 166.085919 192.269749 
z
" style="fill:#e10000;fill-opacity:0.5;"/>
    <path clip-path="url(#pe4c304c4cb)" d="M 238.395773 127.766206 
L 256.397552 125.598281 
L 256.457152 111.654669 
L 238.385716 113.774379 
z
" style="fill:#e10000;fill-opacity:0.5;"/>
    <path clip-path="url(#pe4c304c4cb)" d="M 220.327964 143.88348 
L 238.405753 141.650213 
L 238.395773 127.766206 
L 220.247737 129.951745 
z
" style="fill:#e10000;fill-opacity:0.5;"/>
    <path clip-path="url(#pe4c304c4cb)" d="M 202.253721 160.006493 
L 220.407573 157.707838 
L 220.327964 143.88348 
L 202.103273 146.134894 
z
" style="fill:#e10000;fill-opacity:0.5;"/>
    <path clip-path="url(#pe4c304c4cb)" d="M 184.17304 176.135248 
L 202.403009 173.771159 
L 202.253721 160.006493 
L 183.952322 162.32383 
z
" style="fill:#e10000;fill-opacity:0.5;"/>
    <path clip-path="url(#pe4c304c4cb)" d="M 166.085919 192.269749 
L 184.392056 189.840179 
L 184.17304 176.135248 
L 165.794881 178.518555 
z
" style="fill:#e10000;fill-opacity:0.5;"/>
    <path clip-path="url(#pe4c304c4cb)" d="M 220.247737 129.951745 
L 238.395773 127.766206 
L 238.385716 113.774379 
L 220.166884 115.911378 
z
" style="fill:#e10000;fill-opacity:0.5;"/>
    <path clip-path="url(#pe4c304c4cb)" d="M 202.103273 146.134894 
L 220.327964 143.88348 
L 220.247737 129.951745 
L 201.951652 132.155113 
z
" style="fill:#e10000;fill-opacity:0.5;"/>
    <path clip-path="url(#pe4c304c4cb)" d="M 183.952322 162.32383 
L 202.253721 160.006493 
L 202.103273 146.134894 
L 183.729883 148.404679 
z
" style="fill:#e10000;fill-opacity:0.5;"/>
    <path clip-path="url(#pe4c304c4cb)" d="M 165.794881 178.518555 
L 184.17304 176.135248 
L 183.952322 162.32383 
L 165.501572 164.660078 
z
" style="fill:#e10000;fill-opacity:0.5;"/>
    <path clip-path="url(#pe4c304c4cb)" d="M 201.951652 132.155113 
L 220.247737 129.951745 
L 220.166884 115.911378 
L 201.798845 118.065878 
z
" style="fill:#e10000;fill-opacity:0.5;"/>
    <path clip-path="url(#pe4c304c4cb)" d="M 183.729883 148.404679 
L 202.103273 146.134894 
L 201.951652 132.155113 
L 183.505702 134.376529 
z
" style="fill:#e10000;fill-opacity:0.5;"/>
    <path clip-path="url(#pe4c304c4cb)" d="M 165.501572 164.660078 
L 183.952322 162.32383 
L 183.729883 148.404679 
L 165.205966 150.693059 
z
" style="fill:#e10000;fill-opacity:0.5;"/>
    <path clip-path="url(#pe4c304c4cb)" d="M 183.505702 134.376529 
L 201.951652 132.155113 
L 201.798845 118.065878 
L 183.279758 120.238095 
z
" style="fill:#e10000;fill-opacity:0.5;"/>
    <path clip-path="url(#pe4c304c4cb)" d="M 165.205966 150.693059 
L 183.729883 148.404679 
L 183.505702 134.376529 
L 164.908035 136.616216 
z
" style="fill:#e10000;fill-opacity:0.5;"/>
    <path clip-path="url(#pe4c304c4cb)" d="M 164.908035 136.616216 
L 183.505702 134.376529 
L 183.279758 120.238095 
L 164.607753 122.428249 
z
" style="fill:#e10000;fill-opacity:0.5;"/>
   </g>
  </g>
 </g>
 <defs>
  <clipPath id="pe4c304c4cb">
   <rect height="266.112" width="357.12" x="57.6" y="41.472"/>
  </clipPath>
 </defs>
</svg>
