<?xml version="1.0" encoding="utf-8" standalone="no"?>
<!DOCTYPE svg PUBLIC "-//W3C//DTD SVG 1.1//EN"
  "http://www.w3.org/Graphics/SVG/1.1/DTD/svg11.dtd">
<!-- Created with matplotlib (https://matplotlib.org/) -->
<svg height="681.12pt" version="1.1" viewBox="0 0 1334.16 681.12" width="1334.16pt" xmlns="http://www.w3.org/2000/svg" xmlns:xlink="http://www.w3.org/1999/xlink">
 <defs>
  <style type="text/css">
*{stroke-linecap:butt;stroke-linejoin:round;white-space:pre;}
  </style>
 </defs>
 <g id="figure_1">
  <g id="patch_1">
   <path d="M 0 681.12 
L 1334.16 681.12 
L 1334.16 0 
L 0 0 
z
" style="fill:#ffffff;"/>
  </g>
  <g id="patch_2">
   <path d="M 10.8 670.32 
L 1323.36 670.32 
L 1323.36 10.8 
L 10.8 10.8 
z
" style="fill:#ffffff;"/>
  </g>
  <g id="pane3d_1">
   <g id="patch_3">
    <path d="M 1151.516235 549.559168 
L 919.497162 438.103039 
L 925.973774 100.451986 
L 1165.697805 181.168142 
" style="fill:#f2f2f2;opacity:0.5;stroke:#f2f2f2;stroke-linejoin:miter;"/>
   </g>
  </g>
  <g id="pane3d_2">
   <g id="patch_4">
    <path d="M 248.56445 468.161893 
L 919.497162 438.103039 
L 925.973774 100.451986 
L 236.197371 122.17744 
" style="fill:#e6e6e6;opacity:0.5;stroke:#e6e6e6;stroke-linejoin:miter;"/>
   </g>
  </g>
  <g id="pane3d_3">
   <g id="patch_5">
    <path d="M 419.612131 585.898514 
L 1151.516235 549.559168 
L 919.497162 438.103039 
L 248.56445 468.161893 
" style="fill:#ececec;opacity:0.5;stroke:#ececec;stroke-linejoin:miter;"/>
   </g>
  </g>
  <g id="axis3d_1">
   <g id="line2d_1">
    <path d="M 1151.516235 549.559168 
L 419.612131 585.898514 
" style="fill:none;stroke:#000000;stroke-linecap:square;stroke-width:0.8;"/>
   </g>
   <g id="text_1">
    <!-- Life Cycle Cost ($/house-yr) -->
    <defs>
     <path d="M 9.8125 72.90625 
L 19.671875 72.90625 
L 19.671875 8.296875 
L 55.171875 8.296875 
L 55.171875 0 
L 9.8125 0 
z
" id="DejaVuSans-76"/>
     <path d="M 9.421875 54.6875 
L 18.40625 54.6875 
L 18.40625 0 
L 9.421875 0 
z
M 9.421875 75.984375 
L 18.40625 75.984375 
L 18.40625 64.59375 
L 9.421875 64.59375 
z
" id="DejaVuSans-105"/>
     <path d="M 37.109375 75.984375 
L 37.109375 68.5 
L 28.515625 68.5 
Q 23.6875 68.5 21.796875 66.546875 
Q 19.921875 64.59375 19.921875 59.515625 
L 19.921875 54.6875 
L 34.71875 54.6875 
L 34.71875 47.703125 
L 19.921875 47.703125 
L 19.921875 0 
L 10.890625 0 
L 10.890625 47.703125 
L 2.296875 47.703125 
L 2.296875 54.6875 
L 10.890625 54.6875 
L 10.890625 58.5 
Q 10.890625 67.625 15.140625 71.796875 
Q 19.390625 75.984375 28.609375 75.984375 
z
" id="DejaVuSans-102"/>
     <path d="M 56.203125 29.59375 
L 56.203125 25.203125 
L 14.890625 25.203125 
Q 15.484375 15.921875 20.484375 11.0625 
Q 25.484375 6.203125 34.421875 6.203125 
Q 39.59375 6.203125 44.453125 7.46875 
Q 49.3125 8.734375 54.109375 11.28125 
L 54.109375 2.78125 
Q 49.265625 0.734375 44.1875 -0.34375 
Q 39.109375 -1.421875 33.890625 -1.421875 
Q 20.796875 -1.421875 13.15625 6.1875 
Q 5.515625 13.8125 5.515625 26.8125 
Q 5.515625 40.234375 12.765625 48.109375 
Q 20.015625 56 32.328125 56 
Q 43.359375 56 49.78125 48.890625 
Q 56.203125 41.796875 56.203125 29.59375 
z
M 47.21875 32.234375 
Q 47.125 39.59375 43.09375 43.984375 
Q 39.0625 48.390625 32.421875 48.390625 
Q 24.90625 48.390625 20.390625 44.140625 
Q 15.875 39.890625 15.1875 32.171875 
z
" id="DejaVuSans-101"/>
     <path id="DejaVuSans-32"/>
     <path d="M 64.40625 67.28125 
L 64.40625 56.890625 
Q 59.421875 61.53125 53.78125 63.8125 
Q 48.140625 66.109375 41.796875 66.109375 
Q 29.296875 66.109375 22.65625 58.46875 
Q 16.015625 50.828125 16.015625 36.375 
Q 16.015625 21.96875 22.65625 14.328125 
Q 29.296875 6.6875 41.796875 6.6875 
Q 48.140625 6.6875 53.78125 8.984375 
Q 59.421875 11.28125 64.40625 15.921875 
L 64.40625 5.609375 
Q 59.234375 2.09375 53.4375 0.328125 
Q 47.65625 -1.421875 41.21875 -1.421875 
Q 24.65625 -1.421875 15.125 8.703125 
Q 5.609375 18.84375 5.609375 36.375 
Q 5.609375 53.953125 15.125 64.078125 
Q 24.65625 74.21875 41.21875 74.21875 
Q 47.75 74.21875 53.53125 72.484375 
Q 59.328125 70.75 64.40625 67.28125 
z
" id="DejaVuSans-67"/>
     <path d="M 32.171875 -5.078125 
Q 28.375 -14.84375 24.75 -17.8125 
Q 21.140625 -20.796875 15.09375 -20.796875 
L 7.90625 -20.796875 
L 7.90625 -13.28125 
L 13.1875 -13.28125 
Q 16.890625 -13.28125 18.9375 -11.515625 
Q 21 -9.765625 23.484375 -3.21875 
L 25.09375 0.875 
L 2.984375 54.6875 
L 12.5 54.6875 
L 29.59375 11.921875 
L 46.6875 54.6875 
L 56.203125 54.6875 
z
" id="DejaVuSans-121"/>
     <path d="M 48.78125 52.59375 
L 48.78125 44.1875 
Q 44.96875 46.296875 41.140625 47.34375 
Q 37.3125 48.390625 33.40625 48.390625 
Q 24.65625 48.390625 19.8125 42.84375 
Q 14.984375 37.3125 14.984375 27.296875 
Q 14.984375 17.28125 19.8125 11.734375 
Q 24.65625 6.203125 33.40625 6.203125 
Q 37.3125 6.203125 41.140625 7.25 
Q 44.96875 8.296875 48.78125 10.40625 
L 48.78125 2.09375 
Q 45.015625 0.34375 40.984375 -0.53125 
Q 36.96875 -1.421875 32.421875 -1.421875 
Q 20.0625 -1.421875 12.78125 6.34375 
Q 5.515625 14.109375 5.515625 27.296875 
Q 5.515625 40.671875 12.859375 48.328125 
Q 20.21875 56 33.015625 56 
Q 37.15625 56 41.109375 55.140625 
Q 45.0625 54.296875 48.78125 52.59375 
z
" id="DejaVuSans-99"/>
     <path d="M 9.421875 75.984375 
L 18.40625 75.984375 
L 18.40625 0 
L 9.421875 0 
z
" id="DejaVuSans-108"/>
     <path d="M 30.609375 48.390625 
Q 23.390625 48.390625 19.1875 42.75 
Q 14.984375 37.109375 14.984375 27.296875 
Q 14.984375 17.484375 19.15625 11.84375 
Q 23.34375 6.203125 30.609375 6.203125 
Q 37.796875 6.203125 41.984375 11.859375 
Q 46.1875 17.53125 46.1875 27.296875 
Q 46.1875 37.015625 41.984375 42.703125 
Q 37.796875 48.390625 30.609375 48.390625 
z
M 30.609375 56 
Q 42.328125 56 49.015625 48.375 
Q 55.71875 40.765625 55.71875 27.296875 
Q 55.71875 13.875 49.015625 6.21875 
Q 42.328125 -1.421875 30.609375 -1.421875 
Q 18.84375 -1.421875 12.171875 6.21875 
Q 5.515625 13.875 5.515625 27.296875 
Q 5.515625 40.765625 12.171875 48.375 
Q 18.84375 56 30.609375 56 
z
" id="DejaVuSans-111"/>
     <path d="M 44.28125 53.078125 
L 44.28125 44.578125 
Q 40.484375 46.53125 36.375 47.5 
Q 32.28125 48.484375 27.875 48.484375 
Q 21.1875 48.484375 17.84375 46.4375 
Q 14.5 44.390625 14.5 40.28125 
Q 14.5 37.15625 16.890625 35.375 
Q 19.28125 33.59375 26.515625 31.984375 
L 29.59375 31.296875 
Q 39.15625 29.25 43.1875 25.515625 
Q 47.21875 21.78125 47.21875 15.09375 
Q 47.21875 7.46875 41.1875 3.015625 
Q 35.15625 -1.421875 24.609375 -1.421875 
Q 20.21875 -1.421875 15.453125 -0.5625 
Q 10.6875 0.296875 5.421875 2 
L 5.421875 11.28125 
Q 10.40625 8.6875 15.234375 7.390625 
Q 20.0625 6.109375 24.8125 6.109375 
Q 31.15625 6.109375 34.5625 8.28125 
Q 37.984375 10.453125 37.984375 14.40625 
Q 37.984375 18.0625 35.515625 20.015625 
Q 33.0625 21.96875 24.703125 23.78125 
L 21.578125 24.515625 
Q 13.234375 26.265625 9.515625 29.90625 
Q 5.8125 33.546875 5.8125 39.890625 
Q 5.8125 47.609375 11.28125 51.796875 
Q 16.75 56 26.8125 56 
Q 31.78125 56 36.171875 55.265625 
Q 40.578125 54.546875 44.28125 53.078125 
z
" id="DejaVuSans-115"/>
     <path d="M 18.3125 70.21875 
L 18.3125 54.6875 
L 36.8125 54.6875 
L 36.8125 47.703125 
L 18.3125 47.703125 
L 18.3125 18.015625 
Q 18.3125 11.328125 20.140625 9.421875 
Q 21.96875 7.515625 27.59375 7.515625 
L 36.8125 7.515625 
L 36.8125 0 
L 27.59375 0 
Q 17.1875 0 13.234375 3.875 
Q 9.28125 7.765625 9.28125 18.015625 
L 9.28125 47.703125 
L 2.6875 47.703125 
L 2.6875 54.6875 
L 9.28125 54.6875 
L 9.28125 70.21875 
z
" id="DejaVuSans-116"/>
     <path d="M 31 75.875 
Q 24.46875 64.65625 21.28125 53.65625 
Q 18.109375 42.671875 18.109375 31.390625 
Q 18.109375 20.125 21.3125 9.0625 
Q 24.515625 -2 31 -13.1875 
L 23.1875 -13.1875 
Q 15.875 -1.703125 12.234375 9.375 
Q 8.59375 20.453125 8.59375 31.390625 
Q 8.59375 42.28125 12.203125 53.3125 
Q 15.828125 64.359375 23.1875 75.875 
z
" id="DejaVuSans-40"/>
     <path d="M 33.796875 -14.703125 
L 28.90625 -14.703125 
L 28.859375 0 
Q 23.734375 0.09375 18.609375 1.1875 
Q 13.484375 2.296875 8.296875 4.5 
L 8.296875 13.28125 
Q 13.28125 10.15625 18.375 8.5625 
Q 23.484375 6.984375 28.90625 6.9375 
L 28.90625 29.203125 
Q 18.109375 30.953125 13.203125 35.15625 
Q 8.296875 39.359375 8.296875 46.6875 
Q 8.296875 54.640625 13.625 59.21875 
Q 18.953125 63.8125 28.90625 64.5 
L 28.90625 75.984375 
L 33.796875 75.984375 
L 33.796875 64.65625 
Q 38.328125 64.453125 42.578125 63.6875 
Q 46.828125 62.9375 50.875 61.625 
L 50.875 53.078125 
Q 46.828125 55.125 42.546875 56.25 
Q 38.28125 57.375 33.796875 57.5625 
L 33.796875 36.71875 
Q 44.875 35.015625 50.09375 30.609375 
Q 55.328125 26.21875 55.328125 18.609375 
Q 55.328125 10.359375 49.78125 5.59375 
Q 44.234375 0.828125 33.796875 0.09375 
z
M 28.90625 37.59375 
L 28.90625 57.625 
Q 23.25 56.984375 20.265625 54.390625 
Q 17.28125 51.8125 17.28125 47.515625 
Q 17.28125 43.3125 20.03125 40.96875 
Q 22.796875 38.625 28.90625 37.59375 
z
M 33.796875 28.21875 
L 33.796875 7.078125 
Q 39.984375 7.90625 43.140625 10.59375 
Q 46.296875 13.28125 46.296875 17.671875 
Q 46.296875 21.96875 43.28125 24.5 
Q 40.28125 27.046875 33.796875 28.21875 
z
" id="DejaVuSans-36"/>
     <path d="M 25.390625 72.90625 
L 33.6875 72.90625 
L 8.296875 -9.28125 
L 0 -9.28125 
z
" id="DejaVuSans-47"/>
     <path d="M 54.890625 33.015625 
L 54.890625 0 
L 45.90625 0 
L 45.90625 32.71875 
Q 45.90625 40.484375 42.875 44.328125 
Q 39.84375 48.1875 33.796875 48.1875 
Q 26.515625 48.1875 22.3125 43.546875 
Q 18.109375 38.921875 18.109375 30.90625 
L 18.109375 0 
L 9.078125 0 
L 9.078125 75.984375 
L 18.109375 75.984375 
L 18.109375 46.1875 
Q 21.34375 51.125 25.703125 53.5625 
Q 30.078125 56 35.796875 56 
Q 45.21875 56 50.046875 50.171875 
Q 54.890625 44.34375 54.890625 33.015625 
z
" id="DejaVuSans-104"/>
     <path d="M 8.5 21.578125 
L 8.5 54.6875 
L 17.484375 54.6875 
L 17.484375 21.921875 
Q 17.484375 14.15625 20.5 10.265625 
Q 23.53125 6.390625 29.59375 6.390625 
Q 36.859375 6.390625 41.078125 11.03125 
Q 45.3125 15.671875 45.3125 23.6875 
L 45.3125 54.6875 
L 54.296875 54.6875 
L 54.296875 0 
L 45.3125 0 
L 45.3125 8.40625 
Q 42.046875 3.421875 37.71875 1 
Q 33.40625 -1.421875 27.6875 -1.421875 
Q 18.265625 -1.421875 13.375 4.4375 
Q 8.5 10.296875 8.5 21.578125 
z
M 31.109375 56 
z
" id="DejaVuSans-117"/>
     <path d="M 4.890625 31.390625 
L 31.203125 31.390625 
L 31.203125 23.390625 
L 4.890625 23.390625 
z
" id="DejaVuSans-45"/>
     <path d="M 41.109375 46.296875 
Q 39.59375 47.171875 37.8125 47.578125 
Q 36.03125 48 33.890625 48 
Q 26.265625 48 22.1875 43.046875 
Q 18.109375 38.09375 18.109375 28.8125 
L 18.109375 0 
L 9.078125 0 
L 9.078125 54.6875 
L 18.109375 54.6875 
L 18.109375 46.1875 
Q 20.953125 51.171875 25.484375 53.578125 
Q 30.03125 56 36.53125 56 
Q 37.453125 56 38.578125 55.875 
Q 39.703125 55.765625 41.0625 55.515625 
z
" id="DejaVuSans-114"/>
     <path d="M 8.015625 75.875 
L 15.828125 75.875 
Q 23.140625 64.359375 26.78125 53.3125 
Q 30.421875 42.28125 30.421875 31.390625 
Q 30.421875 20.453125 26.78125 9.375 
Q 23.140625 -1.703125 15.828125 -13.1875 
L 8.015625 -13.1875 
Q 14.5 -2 17.703125 9.0625 
Q 20.90625 20.125 20.90625 31.390625 
Q 20.90625 42.671875 17.703125 53.65625 
Q 14.5 64.65625 8.015625 75.875 
z
" id="DejaVuSans-41"/>
    </defs>
    <g transform="translate(732.530759 597.4956)rotate(-2.842425)scale(0.1 -0.1)">
     <use xlink:href="#DejaVuSans-76"/>
     <use x="55.712891" xlink:href="#DejaVuSans-105"/>
     <use x="83.496094" xlink:href="#DejaVuSans-102"/>
     <use x="118.701172" xlink:href="#DejaVuSans-101"/>
     <use x="180.224609" xlink:href="#DejaVuSans-32"/>
     <use x="212.011719" xlink:href="#DejaVuSans-67"/>
     <use x="281.835938" xlink:href="#DejaVuSans-121"/>
     <use x="341.015625" xlink:href="#DejaVuSans-99"/>
     <use x="395.996094" xlink:href="#DejaVuSans-108"/>
     <use x="423.779297" xlink:href="#DejaVuSans-101"/>
     <use x="485.302734" xlink:href="#DejaVuSans-32"/>
     <use x="517.089844" xlink:href="#DejaVuSans-67"/>
     <use x="586.914062" xlink:href="#DejaVuSans-111"/>
     <use x="648.095703" xlink:href="#DejaVuSans-115"/>
     <use x="700.195312" xlink:href="#DejaVuSans-116"/>
     <use x="739.404297" xlink:href="#DejaVuSans-32"/>
     <use x="771.191406" xlink:href="#DejaVuSans-40"/>
     <use x="810.205078" xlink:href="#DejaVuSans-36"/>
     <use x="873.828125" xlink:href="#DejaVuSans-47"/>
     <use x="907.519531" xlink:href="#DejaVuSans-104"/>
     <use x="970.898438" xlink:href="#DejaVuSans-111"/>
     <use x="1032.080078" xlink:href="#DejaVuSans-117"/>
     <use x="1095.458984" xlink:href="#DejaVuSans-115"/>
     <use x="1147.558594" xlink:href="#DejaVuSans-101"/>
     <use x="1209.082031" xlink:href="#DejaVuSans-45"/>
     <use x="1245.150391" xlink:href="#DejaVuSans-121"/>
     <use x="1304.330078" xlink:href="#DejaVuSans-114"/>
     <use x="1345.443359" xlink:href="#DejaVuSans-41"/>
    </g>
   </g>
   <g id="Line3DCollection_1">
    <path d="M 506.281583 581.595339 
L 327.832082 464.610576 
L 317.7438 119.609023 
" style="fill:none;stroke:#b0b0b0;stroke-width:0.8;"/>
    <path d="M 595.79242 577.151089 
L 409.749606 460.940541 
L 402.001511 116.955211 
" style="fill:none;stroke:#b0b0b0;stroke-width:0.8;"/>
    <path d="M 684.683712 572.737599 
L 491.151644 457.2936 
L 485.714124 114.318568 
" style="fill:none;stroke:#b0b0b0;stroke-width:0.8;"/>
    <path d="M 772.961868 568.354551 
L 572.043047 453.669536 
L 568.886912 111.698927 
" style="fill:none;stroke:#b0b0b0;stroke-width:0.8;"/>
    <path d="M 860.633211 564.001632 
L 652.428605 450.068135 
L 651.525078 109.096124 
" style="fill:none;stroke:#b0b0b0;stroke-width:0.8;"/>
    <path d="M 947.703975 559.678532 
L 732.313048 446.489185 
L 733.633763 106.509999 
" style="fill:none;stroke:#b0b0b0;stroke-width:0.8;"/>
    <path d="M 1034.180311 555.384946 
L 811.701048 442.932476 
L 815.218037 103.94039 
" style="fill:none;stroke:#b0b0b0;stroke-width:0.8;"/>
    <path d="M 1120.068285 551.120572 
L 890.597217 439.397802 
L 896.28291 101.387141 
" style="fill:none;stroke:#b0b0b0;stroke-width:0.8;"/>
   </g>
   <g id="xtick_1">
    <g id="line2d_2">
     <path d="M 504.711622 580.566132 
L 509.4291 583.658733 
" style="fill:none;stroke:#000000;stroke-linecap:square;stroke-width:0.8;"/>
    </g>
    <g id="text_2">
     <!-- 1.0 -->
     <defs>
      <path d="M 12.40625 8.296875 
L 28.515625 8.296875 
L 28.515625 63.921875 
L 10.984375 60.40625 
L 10.984375 69.390625 
L 28.421875 72.90625 
L 38.28125 72.90625 
L 38.28125 8.296875 
L 54.390625 8.296875 
L 54.390625 0 
L 12.40625 0 
z
" id="DejaVuSans-49"/>
      <path d="M 10.6875 12.40625 
L 21 12.40625 
L 21 0 
L 10.6875 0 
z
" id="DejaVuSans-46"/>
      <path d="M 31.78125 66.40625 
Q 24.171875 66.40625 20.328125 58.90625 
Q 16.5 51.421875 16.5 36.375 
Q 16.5 21.390625 20.328125 13.890625 
Q 24.171875 6.390625 31.78125 6.390625 
Q 39.453125 6.390625 43.28125 13.890625 
Q 47.125 21.390625 47.125 36.375 
Q 47.125 51.421875 43.28125 58.90625 
Q 39.453125 66.40625 31.78125 66.40625 
z
M 31.78125 74.21875 
Q 44.046875 74.21875 50.515625 64.515625 
Q 56.984375 54.828125 56.984375 36.375 
Q 56.984375 17.96875 50.515625 8.265625 
Q 44.046875 -1.421875 31.78125 -1.421875 
Q 19.53125 -1.421875 13.0625 8.265625 
Q 6.59375 17.96875 6.59375 36.375 
Q 6.59375 54.828125 13.0625 64.515625 
Q 19.53125 74.21875 31.78125 74.21875 
z
" id="DejaVuSans-48"/>
     </defs>
     <g transform="translate(502.856057 600.284216)scale(0.1 -0.1)">
      <use xlink:href="#DejaVuSans-49"/>
      <use x="63.623047" xlink:href="#DejaVuSans-46"/>
      <use x="95.410156" xlink:href="#DejaVuSans-48"/>
     </g>
    </g>
   </g>
   <g id="xtick_2">
    <g id="line2d_3">
     <path d="M 594.15617 576.129014 
L 599.072809 579.200164 
" style="fill:none;stroke:#000000;stroke-linecap:square;stroke-width:0.8;"/>
    </g>
    <g id="text_3">
     <!-- 1.5 -->
     <defs>
      <path d="M 10.796875 72.90625 
L 49.515625 72.90625 
L 49.515625 64.59375 
L 19.828125 64.59375 
L 19.828125 46.734375 
Q 21.96875 47.46875 24.109375 47.828125 
Q 26.265625 48.1875 28.421875 48.1875 
Q 40.625 48.1875 47.75 41.5 
Q 54.890625 34.8125 54.890625 23.390625 
Q 54.890625 11.625 47.5625 5.09375 
Q 40.234375 -1.421875 26.90625 -1.421875 
Q 22.3125 -1.421875 17.546875 -0.640625 
Q 12.796875 0.140625 7.71875 1.703125 
L 7.71875 11.625 
Q 12.109375 9.234375 16.796875 8.0625 
Q 21.484375 6.890625 26.703125 6.890625 
Q 35.15625 6.890625 40.078125 11.328125 
Q 45.015625 15.765625 45.015625 23.390625 
Q 45.015625 31 40.078125 35.4375 
Q 35.15625 39.890625 26.703125 39.890625 
Q 22.75 39.890625 18.8125 39.015625 
Q 14.890625 38.140625 10.796875 36.28125 
z
" id="DejaVuSans-53"/>
     </defs>
     <g transform="translate(592.491913 595.794401)scale(0.1 -0.1)">
      <use xlink:href="#DejaVuSans-49"/>
      <use x="63.623047" xlink:href="#DejaVuSans-46"/>
      <use x="95.410156" xlink:href="#DejaVuSans-53"/>
     </g>
    </g>
   </g>
   <g id="xtick_3">
    <g id="line2d_4">
     <path d="M 682.982125 571.722584 
L 688.095059 574.772505 
" style="fill:none;stroke:#000000;stroke-linecap:square;stroke-width:0.8;"/>
    </g>
    <g id="text_4">
     <!-- 2.0 -->
     <defs>
      <path d="M 19.1875 8.296875 
L 53.609375 8.296875 
L 53.609375 0 
L 7.328125 0 
L 7.328125 8.296875 
Q 12.9375 14.109375 22.625 23.890625 
Q 32.328125 33.6875 34.8125 36.53125 
Q 39.546875 41.84375 41.421875 45.53125 
Q 43.3125 49.21875 43.3125 52.78125 
Q 43.3125 58.59375 39.234375 62.25 
Q 35.15625 65.921875 28.609375 65.921875 
Q 23.96875 65.921875 18.8125 64.3125 
Q 13.671875 62.703125 7.8125 59.421875 
L 7.8125 69.390625 
Q 13.765625 71.78125 18.9375 73 
Q 24.125 74.21875 28.421875 74.21875 
Q 39.75 74.21875 46.484375 68.546875 
Q 53.21875 62.890625 53.21875 53.421875 
Q 53.21875 48.921875 51.53125 44.890625 
Q 49.859375 40.875 45.40625 35.40625 
Q 44.1875 33.984375 37.640625 27.21875 
Q 31.109375 20.453125 19.1875 8.296875 
z
" id="DejaVuSans-50"/>
     </defs>
     <g transform="translate(681.506386 591.335712)scale(0.1 -0.1)">
      <use xlink:href="#DejaVuSans-50"/>
      <use x="63.623047" xlink:href="#DejaVuSans-46"/>
      <use x="95.410156" xlink:href="#DejaVuSans-48"/>
     </g>
    </g>
   </g>
   <g id="xtick_4">
    <g id="line2d_5">
     <path d="M 771.195883 567.346522 
L 776.502291 570.375435 
" style="fill:none;stroke:#000000;stroke-linecap:square;stroke-width:0.8;"/>
    </g>
    <g id="text_5">
     <!-- 2.5 -->
     <g transform="translate(769.905915 586.907824)scale(0.1 -0.1)">
      <use xlink:href="#DejaVuSans-50"/>
      <use x="63.623047" xlink:href="#DejaVuSans-46"/>
      <use x="95.410156" xlink:href="#DejaVuSans-53"/>
     </g>
    </g>
   </g>
   <g id="xtick_5">
    <g id="line2d_6">
     <path d="M 858.803752 563.000518 
L 864.300856 566.008637 
" style="fill:none;stroke:#000000;stroke-linecap:square;stroke-width:0.8;"/>
    </g>
    <g id="text_6">
     <!-- 3.0 -->
     <defs>
      <path d="M 40.578125 39.3125 
Q 47.65625 37.796875 51.625 33 
Q 55.609375 28.21875 55.609375 21.1875 
Q 55.609375 10.40625 48.1875 4.484375 
Q 40.765625 -1.421875 27.09375 -1.421875 
Q 22.515625 -1.421875 17.65625 -0.515625 
Q 12.796875 0.390625 7.625 2.203125 
L 7.625 11.71875 
Q 11.71875 9.328125 16.59375 8.109375 
Q 21.484375 6.890625 26.8125 6.890625 
Q 36.078125 6.890625 40.9375 10.546875 
Q 45.796875 14.203125 45.796875 21.1875 
Q 45.796875 27.640625 41.28125 31.265625 
Q 36.765625 34.90625 28.71875 34.90625 
L 20.21875 34.90625 
L 20.21875 43.015625 
L 29.109375 43.015625 
Q 36.375 43.015625 40.234375 45.921875 
Q 44.09375 48.828125 44.09375 54.296875 
Q 44.09375 59.90625 40.109375 62.90625 
Q 36.140625 65.921875 28.71875 65.921875 
Q 24.65625 65.921875 20.015625 65.03125 
Q 15.375 64.15625 9.8125 62.3125 
L 9.8125 71.09375 
Q 15.4375 72.65625 20.34375 73.4375 
Q 25.25 74.21875 29.59375 74.21875 
Q 40.828125 74.21875 47.359375 69.109375 
Q 53.90625 64.015625 53.90625 55.328125 
Q 53.90625 49.265625 50.4375 45.09375 
Q 46.96875 40.921875 40.578125 39.3125 
z
" id="DejaVuSans-51"/>
     </defs>
     <g transform="translate(857.69685 582.510421)scale(0.1 -0.1)">
      <use xlink:href="#DejaVuSans-51"/>
      <use x="63.623047" xlink:href="#DejaVuSans-46"/>
      <use x="95.410156" xlink:href="#DejaVuSans-48"/>
     </g>
    </g>
   </g>
   <g id="xtick_6">
    <g id="line2d_7">
     <path d="M 945.811951 558.684261 
L 951.497017 561.671801 
" style="fill:none;stroke:#000000;stroke-linecap:square;stroke-width:0.8;"/>
    </g>
    <g id="text_7">
     <!-- 3.5 -->
     <g transform="translate(944.885455 578.143188)scale(0.1 -0.1)">
      <use xlink:href="#DejaVuSans-51"/>
      <use x="63.623047" xlink:href="#DejaVuSans-46"/>
      <use x="95.410156" xlink:href="#DejaVuSans-53"/>
     </g>
    </g>
   </g>
   <g id="xtick_7">
    <g id="line2d_8">
     <path d="M 1032.226617 554.397449 
L 1038.096954 557.364619 
" style="fill:none;stroke:#000000;stroke-linecap:square;stroke-width:0.8;"/>
    </g>
    <g id="text_8">
     <!-- 4.0 -->
     <defs>
      <path d="M 37.796875 64.3125 
L 12.890625 25.390625 
L 37.796875 25.390625 
z
M 35.203125 72.90625 
L 47.609375 72.90625 
L 47.609375 25.390625 
L 58.015625 25.390625 
L 58.015625 17.1875 
L 47.609375 17.1875 
L 47.609375 0 
L 37.796875 0 
L 37.796875 17.1875 
L 4.890625 17.1875 
L 4.890625 26.703125 
z
" id="DejaVuSans-52"/>
     </defs>
     <g transform="translate(1031.477908 573.805817)scale(0.1 -0.1)">
      <use xlink:href="#DejaVuSans-52"/>
      <use x="63.623047" xlink:href="#DejaVuSans-46"/>
      <use x="95.410156" xlink:href="#DejaVuSans-48"/>
     </g>
    </g>
   </g>
   <g id="xtick_8">
    <g id="line2d_9">
     <path d="M 1118.053802 550.139779 
L 1124.106762 553.086789 
" style="fill:none;stroke:#000000;stroke-linecap:square;stroke-width:0.8;"/>
    </g>
    <g id="text_9">
     <!-- 4.5 -->
     <g transform="translate(1117.480301 569.498001)scale(0.1 -0.1)">
      <use xlink:href="#DejaVuSans-52"/>
      <use x="63.623047" xlink:href="#DejaVuSans-46"/>
      <use x="95.410156" xlink:href="#DejaVuSans-53"/>
     </g>
    </g>
   </g>
  </g>
  <g id="axis3d_2">
   <g id="line2d_10">
    <path d="M 248.56445 468.161893 
L 419.612131 585.898514 
" style="fill:none;stroke:#000000;stroke-linecap:square;stroke-width:0.8;"/>
   </g>
   <g id="text_10">
    <!-- Global Warming Potential (kgCO2eq/house-yr) -->
    <defs>
     <path d="M 59.515625 10.40625 
L 59.515625 29.984375 
L 43.40625 29.984375 
L 43.40625 38.09375 
L 69.28125 38.09375 
L 69.28125 6.78125 
Q 63.578125 2.734375 56.6875 0.65625 
Q 49.8125 -1.421875 42 -1.421875 
Q 24.90625 -1.421875 15.25 8.5625 
Q 5.609375 18.5625 5.609375 36.375 
Q 5.609375 54.25 15.25 64.234375 
Q 24.90625 74.21875 42 74.21875 
Q 49.125 74.21875 55.546875 72.453125 
Q 61.96875 70.703125 67.390625 67.28125 
L 67.390625 56.78125 
Q 61.921875 61.421875 55.765625 63.765625 
Q 49.609375 66.109375 42.828125 66.109375 
Q 29.4375 66.109375 22.71875 58.640625 
Q 16.015625 51.171875 16.015625 36.375 
Q 16.015625 21.625 22.71875 14.15625 
Q 29.4375 6.6875 42.828125 6.6875 
Q 48.046875 6.6875 52.140625 7.59375 
Q 56.25 8.5 59.515625 10.40625 
z
" id="DejaVuSans-71"/>
     <path d="M 48.6875 27.296875 
Q 48.6875 37.203125 44.609375 42.84375 
Q 40.53125 48.484375 33.40625 48.484375 
Q 26.265625 48.484375 22.1875 42.84375 
Q 18.109375 37.203125 18.109375 27.296875 
Q 18.109375 17.390625 22.1875 11.75 
Q 26.265625 6.109375 33.40625 6.109375 
Q 40.53125 6.109375 44.609375 11.75 
Q 48.6875 17.390625 48.6875 27.296875 
z
M 18.109375 46.390625 
Q 20.953125 51.265625 25.265625 53.625 
Q 29.59375 56 35.59375 56 
Q 45.5625 56 51.78125 48.09375 
Q 58.015625 40.1875 58.015625 27.296875 
Q 58.015625 14.40625 51.78125 6.484375 
Q 45.5625 -1.421875 35.59375 -1.421875 
Q 29.59375 -1.421875 25.265625 0.953125 
Q 20.953125 3.328125 18.109375 8.203125 
L 18.109375 0 
L 9.078125 0 
L 9.078125 75.984375 
L 18.109375 75.984375 
z
" id="DejaVuSans-98"/>
     <path d="M 34.28125 27.484375 
Q 23.390625 27.484375 19.1875 25 
Q 14.984375 22.515625 14.984375 16.5 
Q 14.984375 11.71875 18.140625 8.90625 
Q 21.296875 6.109375 26.703125 6.109375 
Q 34.1875 6.109375 38.703125 11.40625 
Q 43.21875 16.703125 43.21875 25.484375 
L 43.21875 27.484375 
z
M 52.203125 31.203125 
L 52.203125 0 
L 43.21875 0 
L 43.21875 8.296875 
Q 40.140625 3.328125 35.546875 0.953125 
Q 30.953125 -1.421875 24.3125 -1.421875 
Q 15.921875 -1.421875 10.953125 3.296875 
Q 6 8.015625 6 15.921875 
Q 6 25.140625 12.171875 29.828125 
Q 18.359375 34.515625 30.609375 34.515625 
L 43.21875 34.515625 
L 43.21875 35.40625 
Q 43.21875 41.609375 39.140625 45 
Q 35.0625 48.390625 27.6875 48.390625 
Q 23 48.390625 18.546875 47.265625 
Q 14.109375 46.140625 10.015625 43.890625 
L 10.015625 52.203125 
Q 14.9375 54.109375 19.578125 55.046875 
Q 24.21875 56 28.609375 56 
Q 40.484375 56 46.34375 49.84375 
Q 52.203125 43.703125 52.203125 31.203125 
z
" id="DejaVuSans-97"/>
     <path d="M 3.328125 72.90625 
L 13.28125 72.90625 
L 28.609375 11.28125 
L 43.890625 72.90625 
L 54.984375 72.90625 
L 70.3125 11.28125 
L 85.59375 72.90625 
L 95.609375 72.90625 
L 77.296875 0 
L 64.890625 0 
L 49.515625 63.28125 
L 33.984375 0 
L 21.578125 0 
z
" id="DejaVuSans-87"/>
     <path d="M 52 44.1875 
Q 55.375 50.25 60.0625 53.125 
Q 64.75 56 71.09375 56 
Q 79.640625 56 84.28125 50.015625 
Q 88.921875 44.046875 88.921875 33.015625 
L 88.921875 0 
L 79.890625 0 
L 79.890625 32.71875 
Q 79.890625 40.578125 77.09375 44.375 
Q 74.3125 48.1875 68.609375 48.1875 
Q 61.625 48.1875 57.5625 43.546875 
Q 53.515625 38.921875 53.515625 30.90625 
L 53.515625 0 
L 44.484375 0 
L 44.484375 32.71875 
Q 44.484375 40.625 41.703125 44.40625 
Q 38.921875 48.1875 33.109375 48.1875 
Q 26.21875 48.1875 22.15625 43.53125 
Q 18.109375 38.875 18.109375 30.90625 
L 18.109375 0 
L 9.078125 0 
L 9.078125 54.6875 
L 18.109375 54.6875 
L 18.109375 46.1875 
Q 21.1875 51.21875 25.484375 53.609375 
Q 29.78125 56 35.6875 56 
Q 41.65625 56 45.828125 52.96875 
Q 50 49.953125 52 44.1875 
z
" id="DejaVuSans-109"/>
     <path d="M 54.890625 33.015625 
L 54.890625 0 
L 45.90625 0 
L 45.90625 32.71875 
Q 45.90625 40.484375 42.875 44.328125 
Q 39.84375 48.1875 33.796875 48.1875 
Q 26.515625 48.1875 22.3125 43.546875 
Q 18.109375 38.921875 18.109375 30.90625 
L 18.109375 0 
L 9.078125 0 
L 9.078125 54.6875 
L 18.109375 54.6875 
L 18.109375 46.1875 
Q 21.34375 51.125 25.703125 53.5625 
Q 30.078125 56 35.796875 56 
Q 45.21875 56 50.046875 50.171875 
Q 54.890625 44.34375 54.890625 33.015625 
z
" id="DejaVuSans-110"/>
     <path d="M 45.40625 27.984375 
Q 45.40625 37.75 41.375 43.109375 
Q 37.359375 48.484375 30.078125 48.484375 
Q 22.859375 48.484375 18.828125 43.109375 
Q 14.796875 37.75 14.796875 27.984375 
Q 14.796875 18.265625 18.828125 12.890625 
Q 22.859375 7.515625 30.078125 7.515625 
Q 37.359375 7.515625 41.375 12.890625 
Q 45.40625 18.265625 45.40625 27.984375 
z
M 54.390625 6.78125 
Q 54.390625 -7.171875 48.1875 -13.984375 
Q 42 -20.796875 29.203125 -20.796875 
Q 24.46875 -20.796875 20.265625 -20.09375 
Q 16.0625 -19.390625 12.109375 -17.921875 
L 12.109375 -9.1875 
Q 16.0625 -11.328125 19.921875 -12.34375 
Q 23.78125 -13.375 27.78125 -13.375 
Q 36.625 -13.375 41.015625 -8.765625 
Q 45.40625 -4.15625 45.40625 5.171875 
L 45.40625 9.625 
Q 42.625 4.78125 38.28125 2.390625 
Q 33.9375 0 27.875 0 
Q 17.828125 0 11.671875 7.65625 
Q 5.515625 15.328125 5.515625 27.984375 
Q 5.515625 40.671875 11.671875 48.328125 
Q 17.828125 56 27.875 56 
Q 33.9375 56 38.28125 53.609375 
Q 42.625 51.21875 45.40625 46.390625 
L 45.40625 54.6875 
L 54.390625 54.6875 
z
" id="DejaVuSans-103"/>
     <path d="M 19.671875 64.796875 
L 19.671875 37.40625 
L 32.078125 37.40625 
Q 38.96875 37.40625 42.71875 40.96875 
Q 46.484375 44.53125 46.484375 51.125 
Q 46.484375 57.671875 42.71875 61.234375 
Q 38.96875 64.796875 32.078125 64.796875 
z
M 9.8125 72.90625 
L 32.078125 72.90625 
Q 44.34375 72.90625 50.609375 67.359375 
Q 56.890625 61.8125 56.890625 51.125 
Q 56.890625 40.328125 50.609375 34.8125 
Q 44.34375 29.296875 32.078125 29.296875 
L 19.671875 29.296875 
L 19.671875 0 
L 9.8125 0 
z
" id="DejaVuSans-80"/>
     <path d="M 9.078125 75.984375 
L 18.109375 75.984375 
L 18.109375 31.109375 
L 44.921875 54.6875 
L 56.390625 54.6875 
L 27.390625 29.109375 
L 57.625 0 
L 45.90625 0 
L 18.109375 26.703125 
L 18.109375 0 
L 9.078125 0 
z
" id="DejaVuSans-107"/>
     <path d="M 39.40625 66.21875 
Q 28.65625 66.21875 22.328125 58.203125 
Q 16.015625 50.203125 16.015625 36.375 
Q 16.015625 22.609375 22.328125 14.59375 
Q 28.65625 6.59375 39.40625 6.59375 
Q 50.140625 6.59375 56.421875 14.59375 
Q 62.703125 22.609375 62.703125 36.375 
Q 62.703125 50.203125 56.421875 58.203125 
Q 50.140625 66.21875 39.40625 66.21875 
z
M 39.40625 74.21875 
Q 54.734375 74.21875 63.90625 63.9375 
Q 73.09375 53.65625 73.09375 36.375 
Q 73.09375 19.140625 63.90625 8.859375 
Q 54.734375 -1.421875 39.40625 -1.421875 
Q 24.03125 -1.421875 14.8125 8.828125 
Q 5.609375 19.09375 5.609375 36.375 
Q 5.609375 53.65625 14.8125 63.9375 
Q 24.03125 74.21875 39.40625 74.21875 
z
" id="DejaVuSans-79"/>
     <path d="M 14.796875 27.296875 
Q 14.796875 17.390625 18.875 11.75 
Q 22.953125 6.109375 30.078125 6.109375 
Q 37.203125 6.109375 41.296875 11.75 
Q 45.40625 17.390625 45.40625 27.296875 
Q 45.40625 37.203125 41.296875 42.84375 
Q 37.203125 48.484375 30.078125 48.484375 
Q 22.953125 48.484375 18.875 42.84375 
Q 14.796875 37.203125 14.796875 27.296875 
z
M 45.40625 8.203125 
Q 42.578125 3.328125 38.25 0.953125 
Q 33.9375 -1.421875 27.875 -1.421875 
Q 17.96875 -1.421875 11.734375 6.484375 
Q 5.515625 14.40625 5.515625 27.296875 
Q 5.515625 40.1875 11.734375 48.09375 
Q 17.96875 56 27.875 56 
Q 33.9375 56 38.25 53.625 
Q 42.578125 51.265625 45.40625 46.390625 
L 45.40625 54.6875 
L 54.390625 54.6875 
L 54.390625 -20.796875 
L 45.40625 -20.796875 
z
" id="DejaVuSans-113"/>
    </defs>
    <g transform="translate(198.446582 479.513451)rotate(-325.45934)scale(0.1 -0.1)">
     <use xlink:href="#DejaVuSans-71"/>
     <use x="77.490234" xlink:href="#DejaVuSans-108"/>
     <use x="105.273438" xlink:href="#DejaVuSans-111"/>
     <use x="166.455078" xlink:href="#DejaVuSans-98"/>
     <use x="229.931641" xlink:href="#DejaVuSans-97"/>
     <use x="291.210938" xlink:href="#DejaVuSans-108"/>
     <use x="318.994141" xlink:href="#DejaVuSans-32"/>
     <use x="350.78125" xlink:href="#DejaVuSans-87"/>
     <use x="449.564453" xlink:href="#DejaVuSans-97"/>
     <use x="510.84375" xlink:href="#DejaVuSans-114"/>
     <use x="551.941406" xlink:href="#DejaVuSans-109"/>
     <use x="649.353516" xlink:href="#DejaVuSans-105"/>
     <use x="677.136719" xlink:href="#DejaVuSans-110"/>
     <use x="740.515625" xlink:href="#DejaVuSans-103"/>
     <use x="803.992188" xlink:href="#DejaVuSans-32"/>
     <use x="835.779297" xlink:href="#DejaVuSans-80"/>
     <use x="896.035156" xlink:href="#DejaVuSans-111"/>
     <use x="957.216797" xlink:href="#DejaVuSans-116"/>
     <use x="996.425781" xlink:href="#DejaVuSans-101"/>
     <use x="1057.949219" xlink:href="#DejaVuSans-110"/>
     <use x="1121.328125" xlink:href="#DejaVuSans-116"/>
     <use x="1160.537109" xlink:href="#DejaVuSans-105"/>
     <use x="1188.320312" xlink:href="#DejaVuSans-97"/>
     <use x="1249.599609" xlink:href="#DejaVuSans-108"/>
     <use x="1277.382812" xlink:href="#DejaVuSans-32"/>
     <use x="1309.169922" xlink:href="#DejaVuSans-40"/>
     <use x="1348.183594" xlink:href="#DejaVuSans-107"/>
     <use x="1406.09375" xlink:href="#DejaVuSans-103"/>
     <use x="1469.570312" xlink:href="#DejaVuSans-67"/>
     <use x="1539.394531" xlink:href="#DejaVuSans-79"/>
     <use x="1618.105469" xlink:href="#DejaVuSans-50"/>
     <use x="1681.728516" xlink:href="#DejaVuSans-101"/>
     <use x="1743.251953" xlink:href="#DejaVuSans-113"/>
     <use x="1806.728516" xlink:href="#DejaVuSans-47"/>
     <use x="1840.419922" xlink:href="#DejaVuSans-104"/>
     <use x="1903.798828" xlink:href="#DejaVuSans-111"/>
     <use x="1964.980469" xlink:href="#DejaVuSans-117"/>
     <use x="2028.359375" xlink:href="#DejaVuSans-115"/>
     <use x="2080.458984" xlink:href="#DejaVuSans-101"/>
     <use x="2141.982422" xlink:href="#DejaVuSans-45"/>
     <use x="2178.050781" xlink:href="#DejaVuSans-121"/>
     <use x="2237.230469" xlink:href="#DejaVuSans-114"/>
     <use x="2278.34375" xlink:href="#DejaVuSans-41"/>
    </g>
   </g>
   <g id="Line3DCollection_2">
    <path d="M 1143.892308 173.826133 
L 1130.463535 539.44598 
L 404.055082 575.190188 
" style="fill:none;stroke:#b0b0b0;stroke-width:0.8;"/>
    <path d="M 1113.764927 163.682109 
L 1101.359182 525.464981 
L 382.560293 560.394759 
" style="fill:none;stroke:#b0b0b0;stroke-width:0.8;"/>
    <path d="M 1084.330447 153.771387 
L 1072.905058 511.796335 
L 361.559278 545.939207 
" style="fill:none;stroke:#b0b0b0;stroke-width:0.8;"/>
    <path d="M 1055.565236 144.086012 
L 1045.079614 498.429691 
L 341.035214 531.811953 
" style="fill:none;stroke:#b0b0b0;stroke-width:0.8;"/>
    <path d="M 1027.446725 134.618383 
L 1017.862242 485.35515 
L 320.972037 518.00194 
" style="fill:none;stroke:#b0b0b0;stroke-width:0.8;"/>
    <path d="M 999.953346 125.361239 
L 991.233225 472.56324 
L 301.354394 504.4986 
" style="fill:none;stroke:#b0b0b0;stroke-width:0.8;"/>
    <path d="M 973.064483 116.307639 
L 965.17369 460.044895 
L 282.167608 491.29183 
" style="fill:none;stroke:#b0b0b0;stroke-width:0.8;"/>
    <path d="M 946.760414 107.450941 
L 939.665562 447.791431 
L 263.397638 478.371966 
" style="fill:none;stroke:#b0b0b0;stroke-width:0.8;"/>
   </g>
   <g id="xtick_9">
    <g id="line2d_11">
     <path d="M 410.032809 574.896043 
L 392.091338 575.778885 
" style="fill:none;stroke:#000000;stroke-linecap:square;stroke-width:0.8;"/>
    </g>
    <g id="text_11">
     <!-- 0 -->
     <g transform="translate(384.327528 591.765048)scale(0.1 -0.1)">
      <use xlink:href="#DejaVuSans-48"/>
     </g>
    </g>
   </g>
   <g id="xtick_10">
    <g id="line2d_12">
     <path d="M 388.473486 560.107409 
L 370.725802 560.969852 
" style="fill:none;stroke:#000000;stroke-linecap:square;stroke-width:0.8;"/>
    </g>
    <g id="text_12">
     <!-- 2 -->
     <g transform="translate(363.025569 576.865719)scale(0.1 -0.1)">
      <use xlink:href="#DejaVuSans-50"/>
     </g>
    </g>
   </g>
   <g id="xtick_11">
    <g id="line2d_13">
     <path d="M 367.409307 545.658419 
L 349.851291 546.501162 
" style="fill:none;stroke:#000000;stroke-linecap:square;stroke-width:0.8;"/>
    </g>
    <g id="text_13">
     <!-- 4 -->
     <g transform="translate(342.212941 562.308646)scale(0.1 -0.1)">
      <use xlink:href="#DejaVuSans-52"/>
     </g>
    </g>
   </g>
   <g id="xtick_12">
    <g id="line2d_14">
     <path d="M 346.823408 531.537506 
L 329.45107 532.361215 
" style="fill:none;stroke:#000000;stroke-linecap:square;stroke-width:0.8;"/>
    </g>
    <g id="text_14">
     <!-- 6 -->
     <defs>
      <path d="M 33.015625 40.375 
Q 26.375 40.375 22.484375 35.828125 
Q 18.609375 31.296875 18.609375 23.390625 
Q 18.609375 15.53125 22.484375 10.953125 
Q 26.375 6.390625 33.015625 6.390625 
Q 39.65625 6.390625 43.53125 10.953125 
Q 47.40625 15.53125 47.40625 23.390625 
Q 47.40625 31.296875 43.53125 35.828125 
Q 39.65625 40.375 33.015625 40.375 
z
M 52.59375 71.296875 
L 52.59375 62.3125 
Q 48.875 64.0625 45.09375 64.984375 
Q 41.3125 65.921875 37.59375 65.921875 
Q 27.828125 65.921875 22.671875 59.328125 
Q 17.53125 52.734375 16.796875 39.40625 
Q 19.671875 43.65625 24.015625 45.921875 
Q 28.375 48.1875 33.59375 48.1875 
Q 44.578125 48.1875 50.953125 41.515625 
Q 57.328125 34.859375 57.328125 23.390625 
Q 57.328125 12.15625 50.6875 5.359375 
Q 44.046875 -1.421875 33.015625 -1.421875 
Q 20.359375 -1.421875 13.671875 8.265625 
Q 6.984375 17.96875 6.984375 36.375 
Q 6.984375 53.65625 15.1875 63.9375 
Q 23.390625 74.21875 37.203125 74.21875 
Q 40.921875 74.21875 44.703125 73.484375 
Q 48.484375 72.75 52.59375 71.296875 
z
" id="DejaVuSans-54"/>
     </defs>
     <g transform="translate(321.872973 548.082167)scale(0.1 -0.1)">
      <use xlink:href="#DejaVuSans-54"/>
     </g>
    </g>
   </g>
   <g id="xtick_13">
    <g id="line2d_15">
     <path d="M 326.699683 517.733621 
L 309.509158 518.538935 
" style="fill:none;stroke:#000000;stroke-linecap:square;stroke-width:0.8;"/>
    </g>
    <g id="text_15">
     <!-- 8 -->
     <defs>
      <path d="M 31.78125 34.625 
Q 24.75 34.625 20.71875 30.859375 
Q 16.703125 27.09375 16.703125 20.515625 
Q 16.703125 13.921875 20.71875 10.15625 
Q 24.75 6.390625 31.78125 6.390625 
Q 38.8125 6.390625 42.859375 10.171875 
Q 46.921875 13.96875 46.921875 20.515625 
Q 46.921875 27.09375 42.890625 30.859375 
Q 38.875 34.625 31.78125 34.625 
z
M 21.921875 38.8125 
Q 15.578125 40.375 12.03125 44.71875 
Q 8.5 49.078125 8.5 55.328125 
Q 8.5 64.0625 14.71875 69.140625 
Q 20.953125 74.21875 31.78125 74.21875 
Q 42.671875 74.21875 48.875 69.140625 
Q 55.078125 64.0625 55.078125 55.328125 
Q 55.078125 49.078125 51.53125 44.71875 
Q 48 40.375 41.703125 38.8125 
Q 48.828125 37.15625 52.796875 32.3125 
Q 56.78125 27.484375 56.78125 20.515625 
Q 56.78125 9.90625 50.3125 4.234375 
Q 43.84375 -1.421875 31.78125 -1.421875 
Q 19.734375 -1.421875 13.25 4.234375 
Q 6.78125 9.90625 6.78125 20.515625 
Q 6.78125 27.484375 10.78125 32.3125 
Q 14.796875 37.15625 21.921875 38.8125 
z
M 18.3125 54.390625 
Q 18.3125 48.734375 21.84375 45.5625 
Q 25.390625 42.390625 31.78125 42.390625 
Q 38.140625 42.390625 41.71875 45.5625 
Q 45.3125 48.734375 45.3125 54.390625 
Q 45.3125 60.0625 41.71875 63.234375 
Q 38.140625 66.40625 31.78125 66.40625 
Q 25.390625 66.40625 21.84375 63.234375 
Q 18.3125 60.0625 18.3125 54.390625 
z
" id="DejaVuSans-56"/>
     </defs>
     <g transform="translate(301.989746 534.175149)scale(0.1 -0.1)">
      <use xlink:href="#DejaVuSans-56"/>
     </g>
    </g>
   </g>
   <g id="xtick_14">
    <g id="line2d_16">
     <path d="M 307.022738 504.236205 
L 290.01028 505.023734 
" style="fill:none;stroke:#000000;stroke-linecap:square;stroke-width:0.8;"/>
    </g>
    <g id="text_16">
     <!-- 10 -->
     <g transform="translate(279.366797 520.57695)scale(0.1 -0.1)">
      <use xlink:href="#DejaVuSans-49"/>
      <use x="63.623047" xlink:href="#DejaVuSans-48"/>
     </g>
    </g>
   </g>
   <g id="xtick_15">
    <g id="line2d_17">
     <path d="M 287.777859 491.035166 
L 270.939836 491.805491 
" style="fill:none;stroke:#000000;stroke-linecap:square;stroke-width:0.8;"/>
    </g>
    <g id="text_17">
     <!-- 12 -->
     <g transform="translate(260.352078 507.277398)scale(0.1 -0.1)">
      <use xlink:href="#DejaVuSans-49"/>
      <use x="63.623047" xlink:href="#DejaVuSans-50"/>
     </g>
    </g>
   </g>
   <g id="xtick_16">
    <g id="line2d_18">
     <path d="M 268.95097 478.120847 
L 252.283858 478.874526 
" style="fill:none;stroke:#000000;stroke-linecap:square;stroke-width:0.8;"/>
    </g>
    <g id="text_18">
     <!-- 14 -->
     <g transform="translate(241.750429 494.266759)scale(0.1 -0.1)">
      <use xlink:href="#DejaVuSans-49"/>
      <use x="63.623047" xlink:href="#DejaVuSans-52"/>
     </g>
    </g>
   </g>
  </g>
  <g id="axis3d_3">
   <g id="line2d_19">
    <path d="M 248.56445 468.161893 
L 236.197371 122.17744 
" style="fill:none;stroke:#000000;stroke-linecap:square;stroke-width:0.8;"/>
   </g>
   <g id="text_19">
    <!-- Degree of Circularity (Industrial Perspective) -->
    <defs>
     <path d="M 19.671875 64.796875 
L 19.671875 8.109375 
L 31.59375 8.109375 
Q 46.6875 8.109375 53.6875 14.9375 
Q 60.6875 21.78125 60.6875 36.53125 
Q 60.6875 51.171875 53.6875 57.984375 
Q 46.6875 64.796875 31.59375 64.796875 
z
M 9.8125 72.90625 
L 30.078125 72.90625 
Q 51.265625 72.90625 61.171875 64.09375 
Q 71.09375 55.28125 71.09375 36.53125 
Q 71.09375 17.671875 61.125 8.828125 
Q 51.171875 0 30.078125 0 
L 9.8125 0 
z
" id="DejaVuSans-68"/>
     <path d="M 9.8125 72.90625 
L 19.671875 72.90625 
L 19.671875 0 
L 9.8125 0 
z
" id="DejaVuSans-73"/>
     <path d="M 45.40625 46.390625 
L 45.40625 75.984375 
L 54.390625 75.984375 
L 54.390625 0 
L 45.40625 0 
L 45.40625 8.203125 
Q 42.578125 3.328125 38.25 0.953125 
Q 33.9375 -1.421875 27.875 -1.421875 
Q 17.96875 -1.421875 11.734375 6.484375 
Q 5.515625 14.40625 5.515625 27.296875 
Q 5.515625 40.1875 11.734375 48.09375 
Q 17.96875 56 27.875 56 
Q 33.9375 56 38.25 53.625 
Q 42.578125 51.265625 45.40625 46.390625 
z
M 14.796875 27.296875 
Q 14.796875 17.390625 18.875 11.75 
Q 22.953125 6.109375 30.078125 6.109375 
Q 37.203125 6.109375 41.296875 11.75 
Q 45.40625 17.390625 45.40625 27.296875 
Q 45.40625 37.203125 41.296875 42.84375 
Q 37.203125 48.484375 30.078125 48.484375 
Q 22.953125 48.484375 18.875 42.84375 
Q 14.796875 37.203125 14.796875 27.296875 
z
" id="DejaVuSans-100"/>
     <path d="M 18.109375 8.203125 
L 18.109375 -20.796875 
L 9.078125 -20.796875 
L 9.078125 54.6875 
L 18.109375 54.6875 
L 18.109375 46.390625 
Q 20.953125 51.265625 25.265625 53.625 
Q 29.59375 56 35.59375 56 
Q 45.5625 56 51.78125 48.09375 
Q 58.015625 40.1875 58.015625 27.296875 
Q 58.015625 14.40625 51.78125 6.484375 
Q 45.5625 -1.421875 35.59375 -1.421875 
Q 29.59375 -1.421875 25.265625 0.953125 
Q 20.953125 3.328125 18.109375 8.203125 
z
M 48.6875 27.296875 
Q 48.6875 37.203125 44.609375 42.84375 
Q 40.53125 48.484375 33.40625 48.484375 
Q 26.265625 48.484375 22.1875 42.84375 
Q 18.109375 37.203125 18.109375 27.296875 
Q 18.109375 17.390625 22.1875 11.75 
Q 26.265625 6.109375 33.40625 6.109375 
Q 40.53125 6.109375 44.609375 11.75 
Q 48.6875 17.390625 48.6875 27.296875 
z
" id="DejaVuSans-112"/>
     <path d="M 2.984375 54.6875 
L 12.5 54.6875 
L 29.59375 8.796875 
L 46.6875 54.6875 
L 56.203125 54.6875 
L 35.6875 0 
L 23.484375 0 
z
" id="DejaVuSans-118"/>
    </defs>
    <g transform="translate(194.213062 182.922867)rotate(-272.047144)scale(0.1 -0.1)">
     <use xlink:href="#DejaVuSans-68"/>
     <use x="77.001953" xlink:href="#DejaVuSans-101"/>
     <use x="138.525391" xlink:href="#DejaVuSans-103"/>
     <use x="202.001953" xlink:href="#DejaVuSans-114"/>
     <use x="243.083984" xlink:href="#DejaVuSans-101"/>
     <use x="304.607422" xlink:href="#DejaVuSans-101"/>
     <use x="366.130859" xlink:href="#DejaVuSans-32"/>
     <use x="397.917969" xlink:href="#DejaVuSans-111"/>
     <use x="459.099609" xlink:href="#DejaVuSans-102"/>
     <use x="494.304688" xlink:href="#DejaVuSans-32"/>
     <use x="526.091797" xlink:href="#DejaVuSans-67"/>
     <use x="595.916016" xlink:href="#DejaVuSans-105"/>
     <use x="623.699219" xlink:href="#DejaVuSans-114"/>
     <use x="664.78125" xlink:href="#DejaVuSans-99"/>
     <use x="719.761719" xlink:href="#DejaVuSans-117"/>
     <use x="783.140625" xlink:href="#DejaVuSans-108"/>
     <use x="810.923828" xlink:href="#DejaVuSans-97"/>
     <use x="872.203125" xlink:href="#DejaVuSans-114"/>
     <use x="913.316406" xlink:href="#DejaVuSans-105"/>
     <use x="941.099609" xlink:href="#DejaVuSans-116"/>
     <use x="980.308594" xlink:href="#DejaVuSans-121"/>
     <use x="1039.488281" xlink:href="#DejaVuSans-32"/>
     <use x="1071.275391" xlink:href="#DejaVuSans-40"/>
     <use x="1110.289062" xlink:href="#DejaVuSans-73"/>
     <use x="1139.78125" xlink:href="#DejaVuSans-110"/>
     <use x="1203.160156" xlink:href="#DejaVuSans-100"/>
     <use x="1266.636719" xlink:href="#DejaVuSans-117"/>
     <use x="1330.015625" xlink:href="#DejaVuSans-115"/>
     <use x="1382.115234" xlink:href="#DejaVuSans-116"/>
     <use x="1421.324219" xlink:href="#DejaVuSans-114"/>
     <use x="1462.4375" xlink:href="#DejaVuSans-105"/>
     <use x="1490.220703" xlink:href="#DejaVuSans-97"/>
     <use x="1551.5" xlink:href="#DejaVuSans-108"/>
     <use x="1579.283203" xlink:href="#DejaVuSans-32"/>
     <use x="1611.070312" xlink:href="#DejaVuSans-80"/>
     <use x="1671.326172" xlink:href="#DejaVuSans-101"/>
     <use x="1732.849609" xlink:href="#DejaVuSans-114"/>
     <use x="1773.962891" xlink:href="#DejaVuSans-115"/>
     <use x="1826.0625" xlink:href="#DejaVuSans-112"/>
     <use x="1889.539062" xlink:href="#DejaVuSans-101"/>
     <use x="1951.0625" xlink:href="#DejaVuSans-99"/>
     <use x="2006.042969" xlink:href="#DejaVuSans-116"/>
     <use x="2045.251953" xlink:href="#DejaVuSans-105"/>
     <use x="2073.035156" xlink:href="#DejaVuSans-118"/>
     <use x="2132.214844" xlink:href="#DejaVuSans-101"/>
     <use x="2193.738281" xlink:href="#DejaVuSans-41"/>
    </g>
   </g>
   <g id="Line3DCollection_3">
    <path d="M 247.797805 446.714022 
L 919.898927 417.157418 
L 1152.393731 526.76468 
" style="fill:none;stroke:#b0b0b0;stroke-width:0.8;"/>
    <path d="M 245.563934 384.218702 
L 921.069395 356.136386 
L 1154.951828 460.313659 
" style="fill:none;stroke:#b0b0b0;stroke-width:0.8;"/>
    <path d="M 243.307108 321.081197 
L 922.251576 294.504667 
L 1157.538069 393.131535 
" style="fill:none;stroke:#b0b0b0;stroke-width:0.8;"/>
    <path d="M 241.026972 257.291557 
L 923.445648 232.253048 
L 1160.152922 325.206175 
" style="fill:none;stroke:#b0b0b0;stroke-width:0.8;"/>
    <path d="M 238.723163 192.839627 
L 924.651791 169.37213 
L 1162.796863 256.525178 
" style="fill:none;stroke:#b0b0b0;stroke-width:0.8;"/>
   </g>
   <g id="xtick_17">
    <g id="line2d_20">
     <path d="M 253.315933 446.471354 
L 236.754525 447.199666 
" style="fill:none;stroke:#000000;stroke-linecap:square;stroke-width:0.8;"/>
    </g>
    <g id="text_20">
     <!-- 0.0 -->
     <g transform="translate(220.941434 452.639511)scale(0.1 -0.1)">
      <use xlink:href="#DejaVuSans-48"/>
      <use x="63.623047" xlink:href="#DejaVuSans-46"/>
      <use x="95.410156" xlink:href="#DejaVuSans-48"/>
     </g>
    </g>
   </g>
   <g id="xtick_18">
    <g id="line2d_21">
     <path d="M 251.110739 383.988109 
L 234.463229 384.680184 
" style="fill:none;stroke:#000000;stroke-linecap:square;stroke-width:0.8;"/>
    </g>
    <g id="text_21">
     <!-- 0.1 -->
     <g transform="translate(218.614352 390.22744)scale(0.1 -0.1)">
      <use xlink:href="#DejaVuSans-48"/>
      <use x="63.623047" xlink:href="#DejaVuSans-46"/>
      <use x="95.410156" xlink:href="#DejaVuSans-49"/>
     </g>
    </g>
   </g>
   <g id="xtick_19">
    <g id="line2d_22">
     <path d="M 248.882889 320.862939 
L 232.148378 321.517993 
" style="fill:none;stroke:#000000;stroke-linecap:square;stroke-width:0.8;"/>
    </g>
    <g id="text_22">
     <!-- 0.2 -->
     <g transform="translate(216.263393 327.174986)scale(0.1 -0.1)">
      <use xlink:href="#DejaVuSans-48"/>
      <use x="63.623047" xlink:href="#DejaVuSans-46"/>
      <use x="95.410156" xlink:href="#DejaVuSans-50"/>
     </g>
    </g>
   </g>
   <g id="xtick_20">
    <g id="line2d_23">
     <path d="M 246.632033 257.085903 
L 229.809607 257.703132 
" style="fill:none;stroke:#000000;stroke-linecap:square;stroke-width:0.8;"/>
    </g>
    <g id="text_23">
     <!-- 0.3 -->
     <g transform="translate(213.888187 263.472243)scale(0.1 -0.1)">
      <use xlink:href="#DejaVuSans-48"/>
      <use x="63.623047" xlink:href="#DejaVuSans-46"/>
      <use x="95.410156" xlink:href="#DejaVuSans-51"/>
     </g>
    </g>
   </g>
   <g id="xtick_21">
    <g id="line2d_24">
     <path d="M 244.357813 192.64685 
L 227.446543 193.225431 
" style="fill:none;stroke:#000000;stroke-linecap:square;stroke-width:0.8;"/>
    </g>
    <g id="text_24">
     <!-- 0.4 -->
     <g transform="translate(211.488358 199.109097)scale(0.1 -0.1)">
      <use xlink:href="#DejaVuSans-48"/>
      <use x="63.623047" xlink:href="#DejaVuSans-46"/>
      <use x="95.410156" xlink:href="#DejaVuSans-52"/>
     </g>
    </g>
   </g>
  </g>
  <g id="axes_1">
   <g id="Poly3DCollection_1">
    <path clip-path="url(#p46d7c2a525)" d="M 896.502666 128.705799 
L 893.797112 129.199488 
L 893.687696 129.217268 
z
" style="fill:#440154;"/>
    <path clip-path="url(#p46d7c2a525)" d="M 893.687696 129.217268 
L 893.797112 129.199488 
L 803.921515 145.378548 
z
" style="fill:#440154;"/>
    <path clip-path="url(#p46d7c2a525)" d="M 893.687696 129.217268 
L 830.635363 190.837985 
L 896.502666 128.705799 
z
" style="fill:#471164;"/>
    <path clip-path="url(#p46d7c2a525)" d="M 893.687696 129.217268 
L 803.921515 145.378548 
L 830.635363 190.837985 
z
" style="fill:#471164;"/>
    <path clip-path="url(#p46d7c2a525)" d="M 896.502666 128.705799 
L 508.164206 218.085923 
L 893.797112 129.199488 
z
" style="fill:#470d60;"/>
    <path clip-path="url(#p46d7c2a525)" d="M 830.635363 190.837985 
L 972.655851 448.129578 
L 896.502666 128.705799 
z
" style="fill:#2f6b8e;"/>
    <path clip-path="url(#p46d7c2a525)" d="M 830.635363 190.837985 
L 803.921515 145.378548 
L 710.899482 162.850985 
z
" style="fill:#481467;"/>
    <path clip-path="url(#p46d7c2a525)" d="M 508.164206 218.085923 
L 803.921515 145.378548 
L 893.797112 129.199488 
z
" style="fill:#470e61;"/>
    <path clip-path="url(#p46d7c2a525)" d="M 830.635363 190.837985 
L 710.899482 162.850985 
L 716.615443 191.189334 
z
" style="fill:#481f70;"/>
    <path clip-path="url(#p46d7c2a525)" d="M 653.787483 174.254954 
L 830.635363 190.837985 
L 716.615443 191.189334 
z
" style="fill:#482071;"/>
    <path clip-path="url(#p46d7c2a525)" d="M 716.615443 191.189334 
L 710.899482 162.850985 
L 653.787483 174.254954 
z
" style="fill:#471365;"/>
    <path clip-path="url(#p46d7c2a525)" d="M 638.912008 232.758111 
L 830.635363 190.837985 
L 653.787483 174.254954 
z
" style="fill:#472c7a;"/>
    <path clip-path="url(#p46d7c2a525)" d="M 972.655851 448.129578 
L 830.635363 190.837985 
L 638.912008 232.758111 
z
" style="fill:#287d8e;"/>
    <path clip-path="url(#p46d7c2a525)" d="M 710.899482 162.850985 
L 803.921515 145.378548 
L 508.164206 218.085923 
z
" style="fill:#471063;"/>
    <path clip-path="url(#p46d7c2a525)" d="M 653.787483 174.254954 
L 614.614727 182.486331 
L 638.912008 232.758111 
z
" style="fill:#482173;"/>
    <path clip-path="url(#p46d7c2a525)" d="M 638.912008 232.758111 
L 614.614727 182.486331 
L 972.655851 448.129578 
z
" style="fill:#2b748e;"/>
    <path clip-path="url(#p46d7c2a525)" d="M 710.899482 162.850985 
L 508.164206 218.085923 
L 653.787483 174.254954 
z
" style="fill:#471164;"/>
    <path clip-path="url(#p46d7c2a525)" d="M 580.941332 237.333247 
L 924.043362 451.644673 
L 972.655851 448.129578 
z
" style="fill:#35b779;"/>
    <path clip-path="url(#p46d7c2a525)" d="M 614.614727 182.486331 
L 580.941332 237.333247 
L 972.655851 448.129578 
z
" style="fill:#2c718e;"/>
    <path clip-path="url(#p46d7c2a525)" d="M 653.787483 174.254954 
L 508.164206 218.085923 
L 614.614727 182.486331 
z
" style="fill:#481467;"/>
    <path clip-path="url(#p46d7c2a525)" d="M 662.935515 542.065228 
L 972.655851 448.129578 
L 924.043362 451.644673 
z
" style="fill:#f1e51d;"/>
    <path clip-path="url(#p46d7c2a525)" d="M 580.941332 237.333247 
L 614.614727 182.486331 
L 542.307147 202.340109 
z
" style="fill:#482173;"/>
    <path clip-path="url(#p46d7c2a525)" d="M 542.307147 202.340109 
L 614.614727 182.486331 
L 508.164206 218.085923 
z
" style="fill:#48186a;"/>
    <path clip-path="url(#p46d7c2a525)" d="M 924.043362 451.644673 
L 580.941332 237.333247 
L 485.301825 214.20584 
z
" style="fill:#2b758e;"/>
    <path clip-path="url(#p46d7c2a525)" d="M 924.043362 451.644673 
L 549.364002 486.863592 
L 662.935515 542.065228 
z
" style="fill:#fde725;"/>
    <path clip-path="url(#p46d7c2a525)" d="M 580.941332 237.333247 
L 542.307147 202.340109 
L 541.524187 199.273135 
z
" style="fill:#482374;"/>
    <path clip-path="url(#p46d7c2a525)" d="M 549.364002 486.863592 
L 924.043362 451.644673 
L 454.539103 223.701159 
z
" style="fill:#32b67a;"/>
    <path clip-path="url(#p46d7c2a525)" d="M 541.524187 199.273135 
L 525.524777 203.29381 
L 580.941332 237.333247 
z
" style="fill:#482173;"/>
    <path clip-path="url(#p46d7c2a525)" d="M 541.524187 199.273135 
L 542.307147 202.340109 
L 508.164206 218.085923 
z
" style="fill:#481a6c;"/>
    <path clip-path="url(#p46d7c2a525)" d="M 525.524777 203.29381 
L 514.935318 206.033802 
L 580.941332 237.333247 
z
" style="fill:#482374;"/>
    <path clip-path="url(#p46d7c2a525)" d="M 508.164206 218.085923 
L 525.524777 203.29381 
L 541.524187 199.273135 
z
" style="fill:#481a6c;"/>
    <path clip-path="url(#p46d7c2a525)" d="M 485.301825 214.20584 
L 471.083707 218.448212 
L 924.043362 451.644673 
z
" style="fill:#2e6d8e;"/>
    <path clip-path="url(#p46d7c2a525)" d="M 418.655704 528.347409 
L 452.749585 343.450193 
L 418.622032 523.601596 
z
" style="fill:#b8de29;"/>
    <path clip-path="url(#p46d7c2a525)" d="M 508.164206 218.085923 
L 418.622032 523.601596 
L 437.57324 350.757987 
z
" style="fill:#1fa188;"/>
    <path clip-path="url(#p46d7c2a525)" d="M 508.164206 218.085923 
L 514.935318 206.033802 
L 525.524777 203.29381 
z
" style="fill:#481a6c;"/>
    <path clip-path="url(#p46d7c2a525)" d="M 514.935318 206.033802 
L 485.301825 214.20584 
L 580.941332 237.333247 
z
" style="fill:#482475;"/>
    <path clip-path="url(#p46d7c2a525)" d="M 924.043362 451.644673 
L 471.083707 218.448212 
L 454.539103 223.701159 
z
" style="fill:#2e6e8e;"/>
    <path clip-path="url(#p46d7c2a525)" d="M 508.164206 218.085923 
L 485.301825 214.20584 
L 514.935318 206.033802 
z
" style="fill:#481c6e;"/>
    <path clip-path="url(#p46d7c2a525)" d="M 549.364002 486.863592 
L 443.54825 299.24448 
L 437.57324 350.757987 
z
" style="fill:#24aa83;"/>
    <path clip-path="url(#p46d7c2a525)" d="M 437.57324 350.757987 
L 418.622032 523.601596 
L 452.749585 343.450193 
z
" style="fill:#40bd72;"/>
    <path clip-path="url(#p46d7c2a525)" d="M 452.749585 343.450193 
L 549.364002 486.863592 
L 437.57324 350.757987 
z
" style="fill:#2fb47c;"/>
    <path clip-path="url(#p46d7c2a525)" d="M 418.655704 528.347409 
L 422.950735 530.686907 
L 454.131638 261.393651 
z
" style="fill:#7cd250;"/>
    <path clip-path="url(#p46d7c2a525)" d="M 437.57324 350.757987 
L 443.54825 299.24448 
L 508.164206 218.085923 
z
" style="fill:#33638d;"/>
    <path clip-path="url(#p46d7c2a525)" d="M 454.539103 223.701159 
L 443.54825 299.24448 
L 549.364002 486.863592 
z
" style="fill:#23888e;"/>
    <path clip-path="url(#p46d7c2a525)" d="M 508.164206 218.085923 
L 471.083707 218.448212 
L 485.301825 214.20584 
z
" style="fill:#481d6f;"/>
    <path clip-path="url(#p46d7c2a525)" d="M 443.54825 299.24448 
L 471.083707 218.448212 
L 508.164206 218.085923 
z
" style="fill:#443a83;"/>
    <path clip-path="url(#p46d7c2a525)" d="M 662.935515 542.065228 
L 549.364002 486.863592 
L 454.131638 261.393651 
z
" style="fill:#60ca60;"/>
    <path clip-path="url(#p46d7c2a525)" d="M 454.131638 261.393651 
L 422.950735 530.686907 
L 662.935515 542.065228 
z
" style="fill:#7cd250;"/>
    <path clip-path="url(#p46d7c2a525)" d="M 454.131638 261.393651 
L 452.749585 343.450193 
L 418.655704 528.347409 
z
" style="fill:#21a585;"/>
    <path clip-path="url(#p46d7c2a525)" d="M 454.131638 261.393651 
L 549.364002 486.863592 
L 452.749585 343.450193 
z
" style="fill:#1e9b8a;"/>
    <path clip-path="url(#p46d7c2a525)" d="M 471.083707 218.448212 
L 443.54825 299.24448 
L 454.539103 223.701159 
z
" style="fill:#443983;"/>
   </g>
   <g id="Path3DCollection_1">
    <defs>
     <path d="M 0 1.369306 
C 0.363144 1.369306 0.711464 1.225028 0.968246 0.968246 
C 1.225028 0.711464 1.369306 0.363144 1.369306 0 
C 1.369306 -0.363144 1.225028 -0.711464 0.968246 -0.968246 
C 0.711464 -1.225028 0.363144 -1.369306 0 -1.369306 
C -0.363144 -1.369306 -0.711464 -1.225028 -0.968246 -0.968246 
C -1.225028 -0.711464 -1.369306 -0.363144 -1.369306 0 
C -1.369306 0.363144 -1.225028 0.711464 -0.968246 0.968246 
C -0.711464 1.225028 -0.363144 1.369306 0 1.369306 
z
" id="C0_0_54ba55a83e"/>
    </defs>
    <g clip-path="url(#p46d7c2a525)">
     <use style="fill-opacity:0.7;stroke:#000000;stroke-opacity:0.7;" x="896.502666" xlink:href="#C0_0_54ba55a83e" y="128.705799"/>
    </g>
    <g clip-path="url(#p46d7c2a525)">
     <use style="fill-opacity:0.7;stroke:#000000;stroke-opacity:0.7;" x="662.935515" xlink:href="#C0_0_54ba55a83e" y="542.065228"/>
    </g>
    <g clip-path="url(#p46d7c2a525)">
     <use style="fill-opacity:0.7;stroke:#000000;stroke-opacity:0.7;" x="418.655704" xlink:href="#C0_0_54ba55a83e" y="528.347409"/>
    </g>
    <g clip-path="url(#p46d7c2a525)">
     <use style="fill-opacity:0.7;stroke:#000000;stroke-opacity:0.7;" x="418.622032" xlink:href="#C0_0_54ba55a83e" y="523.601596"/>
    </g>
    <g clip-path="url(#p46d7c2a525)">
     <use style="fill-opacity:0.7;stroke:#000000;stroke-opacity:0.7;" x="514.935318" xlink:href="#C0_0_54ba55a83e" y="206.033802"/>
    </g>
    <g clip-path="url(#p46d7c2a525)">
     <use style="fill-opacity:0.7;stroke:#000000;stroke-opacity:0.7;" x="614.614727" xlink:href="#C0_0_54ba55a83e" y="182.486331"/>
    </g>
    <g clip-path="url(#p46d7c2a525)">
     <use style="fill-opacity:0.7;stroke:#000000;stroke-opacity:0.7;" x="710.899482" xlink:href="#C0_0_54ba55a83e" y="162.850985"/>
    </g>
    <g clip-path="url(#p46d7c2a525)">
     <use style="fill-opacity:0.7;stroke:#000000;stroke-opacity:0.7;" x="803.921515" xlink:href="#C0_0_54ba55a83e" y="145.378548"/>
    </g>
    <g clip-path="url(#p46d7c2a525)">
     <use style="fill-opacity:0.7;stroke:#000000;stroke-opacity:0.7;" x="893.797112" xlink:href="#C0_0_54ba55a83e" y="129.199488"/>
    </g>
    <g clip-path="url(#p46d7c2a525)">
     <use style="fill-opacity:0.7;stroke:#000000;stroke-opacity:0.7;" x="422.950735" xlink:href="#C0_0_54ba55a83e" y="530.686907"/>
    </g>
    <g clip-path="url(#p46d7c2a525)">
     <use style="fill-opacity:0.7;stroke:#000000;stroke-opacity:0.7;" x="454.131638" xlink:href="#C0_0_54ba55a83e" y="261.393651"/>
    </g>
    <g clip-path="url(#p46d7c2a525)">
     <use style="fill-opacity:0.7;stroke:#000000;stroke-opacity:0.7;" x="454.131638" xlink:href="#C0_0_54ba55a83e" y="261.393651"/>
    </g>
    <g clip-path="url(#p46d7c2a525)">
     <use style="fill-opacity:0.7;stroke:#000000;stroke-opacity:0.7;" x="924.043362" xlink:href="#C0_0_54ba55a83e" y="451.644673"/>
    </g>
    <g clip-path="url(#p46d7c2a525)">
     <use style="fill-opacity:0.7;stroke:#000000;stroke-opacity:0.7;" x="514.935318" xlink:href="#C0_0_54ba55a83e" y="206.033802"/>
    </g>
    <g clip-path="url(#p46d7c2a525)">
     <use style="fill-opacity:0.7;stroke:#000000;stroke-opacity:0.7;" x="525.524777" xlink:href="#C0_0_54ba55a83e" y="203.29381"/>
    </g>
    <g clip-path="url(#p46d7c2a525)">
     <use style="fill-opacity:0.7;stroke:#000000;stroke-opacity:0.7;" x="525.524777" xlink:href="#C0_0_54ba55a83e" y="203.29381"/>
    </g>
    <g clip-path="url(#p46d7c2a525)">
     <use style="fill-opacity:0.7;stroke:#000000;stroke-opacity:0.7;" x="525.524777" xlink:href="#C0_0_54ba55a83e" y="203.29381"/>
    </g>
    <g clip-path="url(#p46d7c2a525)">
     <use style="fill-opacity:0.7;stroke:#000000;stroke-opacity:0.7;" x="525.524777" xlink:href="#C0_0_54ba55a83e" y="203.29381"/>
    </g>
    <g clip-path="url(#p46d7c2a525)">
     <use style="fill-opacity:0.7;stroke:#000000;stroke-opacity:0.7;" x="418.622032" xlink:href="#C0_0_54ba55a83e" y="523.601596"/>
    </g>
    <g clip-path="url(#p46d7c2a525)">
     <use style="fill-opacity:0.7;stroke:#000000;stroke-opacity:0.7;" x="514.935318" xlink:href="#C0_0_54ba55a83e" y="206.033802"/>
    </g>
    <g clip-path="url(#p46d7c2a525)">
     <use style="fill-opacity:0.7;stroke:#000000;stroke-opacity:0.7;" x="653.787483" xlink:href="#C0_0_54ba55a83e" y="174.254954"/>
    </g>
    <g clip-path="url(#p46d7c2a525)">
     <use style="fill-opacity:0.7;stroke:#000000;stroke-opacity:0.7;" x="653.787483" xlink:href="#C0_0_54ba55a83e" y="174.254954"/>
    </g>
    <g clip-path="url(#p46d7c2a525)">
     <use style="fill-opacity:0.7;stroke:#000000;stroke-opacity:0.7;" x="418.622032" xlink:href="#C0_0_54ba55a83e" y="523.601596"/>
    </g>
    <g clip-path="url(#p46d7c2a525)">
     <use style="fill-opacity:0.7;stroke:#000000;stroke-opacity:0.7;" x="514.935318" xlink:href="#C0_0_54ba55a83e" y="206.033802"/>
    </g>
    <g clip-path="url(#p46d7c2a525)">
     <use style="fill-opacity:0.7;stroke:#000000;stroke-opacity:0.7;" x="614.614727" xlink:href="#C0_0_54ba55a83e" y="182.486331"/>
    </g>
    <g clip-path="url(#p46d7c2a525)">
     <use style="fill-opacity:0.7;stroke:#000000;stroke-opacity:0.7;" x="710.899482" xlink:href="#C0_0_54ba55a83e" y="162.850985"/>
    </g>
    <g clip-path="url(#p46d7c2a525)">
     <use style="fill-opacity:0.7;stroke:#000000;stroke-opacity:0.7;" x="418.622032" xlink:href="#C0_0_54ba55a83e" y="523.601596"/>
    </g>
    <g clip-path="url(#p46d7c2a525)">
     <use style="fill-opacity:0.7;stroke:#000000;stroke-opacity:0.7;" x="514.935318" xlink:href="#C0_0_54ba55a83e" y="206.033802"/>
    </g>
    <g clip-path="url(#p46d7c2a525)">
     <use style="fill-opacity:0.7;stroke:#000000;stroke-opacity:0.7;" x="614.614727" xlink:href="#C0_0_54ba55a83e" y="182.486331"/>
    </g>
    <g clip-path="url(#p46d7c2a525)">
     <use style="fill-opacity:0.7;stroke:#000000;stroke-opacity:0.7;" x="710.899482" xlink:href="#C0_0_54ba55a83e" y="162.850985"/>
    </g>
    <g clip-path="url(#p46d7c2a525)">
     <use style="fill-opacity:0.7;stroke:#000000;stroke-opacity:0.7;" x="893.687696" xlink:href="#C0_0_54ba55a83e" y="129.217268"/>
    </g>
    <g clip-path="url(#p46d7c2a525)">
     <use style="fill-opacity:0.7;stroke:#000000;stroke-opacity:0.7;" x="549.364002" xlink:href="#C0_0_54ba55a83e" y="486.863592"/>
    </g>
    <g clip-path="url(#p46d7c2a525)">
     <use style="fill-opacity:0.7;stroke:#000000;stroke-opacity:0.7;" x="972.655851" xlink:href="#C0_0_54ba55a83e" y="448.129578"/>
    </g>
    <g clip-path="url(#p46d7c2a525)">
     <use style="fill-opacity:0.7;stroke:#000000;stroke-opacity:0.7;" x="542.307147" xlink:href="#C0_0_54ba55a83e" y="202.340109"/>
    </g>
    <g clip-path="url(#p46d7c2a525)">
     <use style="fill-opacity:0.7;stroke:#000000;stroke-opacity:0.7;" x="638.912008" xlink:href="#C0_0_54ba55a83e" y="232.758111"/>
    </g>
    <g clip-path="url(#p46d7c2a525)">
     <use style="fill-opacity:0.7;stroke:#000000;stroke-opacity:0.7;" x="716.615443" xlink:href="#C0_0_54ba55a83e" y="191.189334"/>
    </g>
    <g clip-path="url(#p46d7c2a525)">
     <use style="fill-opacity:0.7;stroke:#000000;stroke-opacity:0.7;" x="580.941332" xlink:href="#C0_0_54ba55a83e" y="237.333247"/>
    </g>
    <g clip-path="url(#p46d7c2a525)">
     <use style="fill-opacity:0.7;stroke:#000000;stroke-opacity:0.7;" x="830.635363" xlink:href="#C0_0_54ba55a83e" y="190.837985"/>
    </g>
    <g clip-path="url(#p46d7c2a525)">
     <use style="fill-opacity:0.7;stroke:#000000;stroke-opacity:0.7;" x="452.749585" xlink:href="#C0_0_54ba55a83e" y="343.450193"/>
    </g>
    <g clip-path="url(#p46d7c2a525)">
     <use style="fill-opacity:0.7;stroke:#000000;stroke-opacity:0.7;" x="454.539103" xlink:href="#C0_0_54ba55a83e" y="223.701159"/>
    </g>
    <g clip-path="url(#p46d7c2a525)">
     <use style="fill-opacity:0.7;stroke:#000000;stroke-opacity:0.7;" x="437.57324" xlink:href="#C0_0_54ba55a83e" y="350.757987"/>
    </g>
    <g clip-path="url(#p46d7c2a525)">
     <use style="fill-opacity:0.7;stroke:#000000;stroke-opacity:0.7;" x="471.083707" xlink:href="#C0_0_54ba55a83e" y="218.448212"/>
    </g>
    <g clip-path="url(#p46d7c2a525)">
     <use style="fill-opacity:0.7;stroke:#000000;stroke-opacity:0.7;" x="471.083707" xlink:href="#C0_0_54ba55a83e" y="218.448212"/>
    </g>
    <g clip-path="url(#p46d7c2a525)">
     <use style="fill-opacity:0.7;stroke:#000000;stroke-opacity:0.7;" x="485.301825" xlink:href="#C0_0_54ba55a83e" y="214.20584"/>
    </g>
    <g clip-path="url(#p46d7c2a525)">
     <use style="fill-opacity:0.7;stroke:#000000;stroke-opacity:0.7;" x="443.54825" xlink:href="#C0_0_54ba55a83e" y="299.24448"/>
    </g>
    <g clip-path="url(#p46d7c2a525)">
     <use style="fill-opacity:0.7;stroke:#000000;stroke-opacity:0.7;" x="541.524187" xlink:href="#C0_0_54ba55a83e" y="199.273135"/>
    </g>
    <g clip-path="url(#p46d7c2a525)">
     <use style="fill-opacity:0.7;stroke:#000000;stroke-opacity:0.7;" x="508.164206" xlink:href="#C0_0_54ba55a83e" y="218.085923"/>
    </g>
   </g>
  </g>
 </g>
 <defs>
  <clipPath id="p46d7c2a525">
   <rect height="659.52" width="1312.56" x="10.8" y="10.8"/>
  </clipPath>
 </defs>
</svg>
