<?xml version="1.0" encoding="utf-8" standalone="no"?>
<!DOCTYPE svg PUBLIC "-//W3C//DTD SVG 1.1//EN"
  "http://www.w3.org/Graphics/SVG/1.1/DTD/svg11.dtd">
<!-- Created with matplotlib (https://matplotlib.org/) -->
<svg height="681.12pt" version="1.1" viewBox="0 0 1334.16 681.12" width="1334.16pt" xmlns="http://www.w3.org/2000/svg" xmlns:xlink="http://www.w3.org/1999/xlink">
 <defs>
  <style type="text/css">
*{stroke-linecap:butt;stroke-linejoin:round;white-space:pre;}
  </style>
 </defs>
 <g id="figure_1">
  <g id="patch_1">
   <path d="M 0 681.12 
L 1334.16 681.12 
L 1334.16 0 
L 0 0 
z
" style="fill:#ffffff;"/>
  </g>
  <g id="patch_2">
   <path d="M 166.77 606.1968 
L 1200.744 606.1968 
L 1200.744 81.7344 
L 166.77 81.7344 
z
" style="fill:#ffffff;"/>
  </g>
  <g id="pane3d_1">
   <g id="patch_3">
    <path d="M 1073.786886 380.440954 
L 594.4607 274.348846 
L 585.994016 88.233844 
L 1105.610131 197.318482 
" style="fill:#f2f2f2;opacity:0.5;stroke:#f2f2f2;stroke-linejoin:miter;"/>
   </g>
  </g>
  <g id="pane3d_2">
   <g id="patch_4">
    <path d="M 312.67071 468.629455 
L 594.4607 274.348846 
L 585.994016 88.233844 
L 279.238009 288.399968 
" style="fill:#e6e6e6;opacity:0.5;stroke:#e6e6e6;stroke-linejoin:miter;"/>
   </g>
  </g>
  <g id="pane3d_3">
   <g id="patch_5">
    <path d="M 810.014706 586.745447 
L 1073.786886 380.440954 
L 594.4607 274.348846 
L 312.67071 468.629455 
" style="fill:#ececec;opacity:0.5;stroke:#ececec;stroke-linejoin:miter;"/>
   </g>
  </g>
  <g id="axis3d_1">
   <g id="line2d_1">
    <path d="M 1073.786886 380.440954 
L 810.014706 586.745447 
" style="fill:none;stroke:#000000;stroke-linecap:square;stroke-width:0.8;"/>
   </g>
   <g id="text_1">
    <!-- Life Cycle Cost -->
    <defs>
     <path d="M 9.8125 72.90625 
L 19.671875 72.90625 
L 19.671875 8.296875 
L 55.171875 8.296875 
L 55.171875 0 
L 9.8125 0 
z
" id="DejaVuSans-76"/>
     <path d="M 9.421875 54.6875 
L 18.40625 54.6875 
L 18.40625 0 
L 9.421875 0 
z
M 9.421875 75.984375 
L 18.40625 75.984375 
L 18.40625 64.59375 
L 9.421875 64.59375 
z
" id="DejaVuSans-105"/>
     <path d="M 37.109375 75.984375 
L 37.109375 68.5 
L 28.515625 68.5 
Q 23.6875 68.5 21.796875 66.546875 
Q 19.921875 64.59375 19.921875 59.515625 
L 19.921875 54.6875 
L 34.71875 54.6875 
L 34.71875 47.703125 
L 19.921875 47.703125 
L 19.921875 0 
L 10.890625 0 
L 10.890625 47.703125 
L 2.296875 47.703125 
L 2.296875 54.6875 
L 10.890625 54.6875 
L 10.890625 58.5 
Q 10.890625 67.625 15.140625 71.796875 
Q 19.390625 75.984375 28.609375 75.984375 
z
" id="DejaVuSans-102"/>
     <path d="M 56.203125 29.59375 
L 56.203125 25.203125 
L 14.890625 25.203125 
Q 15.484375 15.921875 20.484375 11.0625 
Q 25.484375 6.203125 34.421875 6.203125 
Q 39.59375 6.203125 44.453125 7.46875 
Q 49.3125 8.734375 54.109375 11.28125 
L 54.109375 2.78125 
Q 49.265625 0.734375 44.1875 -0.34375 
Q 39.109375 -1.421875 33.890625 -1.421875 
Q 20.796875 -1.421875 13.15625 6.1875 
Q 5.515625 13.8125 5.515625 26.8125 
Q 5.515625 40.234375 12.765625 48.109375 
Q 20.015625 56 32.328125 56 
Q 43.359375 56 49.78125 48.890625 
Q 56.203125 41.796875 56.203125 29.59375 
z
M 47.21875 32.234375 
Q 47.125 39.59375 43.09375 43.984375 
Q 39.0625 48.390625 32.421875 48.390625 
Q 24.90625 48.390625 20.390625 44.140625 
Q 15.875 39.890625 15.1875 32.171875 
z
" id="DejaVuSans-101"/>
     <path id="DejaVuSans-32"/>
     <path d="M 64.40625 67.28125 
L 64.40625 56.890625 
Q 59.421875 61.53125 53.78125 63.8125 
Q 48.140625 66.109375 41.796875 66.109375 
Q 29.296875 66.109375 22.65625 58.46875 
Q 16.015625 50.828125 16.015625 36.375 
Q 16.015625 21.96875 22.65625 14.328125 
Q 29.296875 6.6875 41.796875 6.6875 
Q 48.140625 6.6875 53.78125 8.984375 
Q 59.421875 11.28125 64.40625 15.921875 
L 64.40625 5.609375 
Q 59.234375 2.09375 53.4375 0.328125 
Q 47.65625 -1.421875 41.21875 -1.421875 
Q 24.65625 -1.421875 15.125 8.703125 
Q 5.609375 18.84375 5.609375 36.375 
Q 5.609375 53.953125 15.125 64.078125 
Q 24.65625 74.21875 41.21875 74.21875 
Q 47.75 74.21875 53.53125 72.484375 
Q 59.328125 70.75 64.40625 67.28125 
z
" id="DejaVuSans-67"/>
     <path d="M 32.171875 -5.078125 
Q 28.375 -14.84375 24.75 -17.8125 
Q 21.140625 -20.796875 15.09375 -20.796875 
L 7.90625 -20.796875 
L 7.90625 -13.28125 
L 13.1875 -13.28125 
Q 16.890625 -13.28125 18.9375 -11.515625 
Q 21 -9.765625 23.484375 -3.21875 
L 25.09375 0.875 
L 2.984375 54.6875 
L 12.5 54.6875 
L 29.59375 11.921875 
L 46.6875 54.6875 
L 56.203125 54.6875 
z
" id="DejaVuSans-121"/>
     <path d="M 48.78125 52.59375 
L 48.78125 44.1875 
Q 44.96875 46.296875 41.140625 47.34375 
Q 37.3125 48.390625 33.40625 48.390625 
Q 24.65625 48.390625 19.8125 42.84375 
Q 14.984375 37.3125 14.984375 27.296875 
Q 14.984375 17.28125 19.8125 11.734375 
Q 24.65625 6.203125 33.40625 6.203125 
Q 37.3125 6.203125 41.140625 7.25 
Q 44.96875 8.296875 48.78125 10.40625 
L 48.78125 2.09375 
Q 45.015625 0.34375 40.984375 -0.53125 
Q 36.96875 -1.421875 32.421875 -1.421875 
Q 20.0625 -1.421875 12.78125 6.34375 
Q 5.515625 14.109375 5.515625 27.296875 
Q 5.515625 40.671875 12.859375 48.328125 
Q 20.21875 56 33.015625 56 
Q 37.15625 56 41.109375 55.140625 
Q 45.0625 54.296875 48.78125 52.59375 
z
" id="DejaVuSans-99"/>
     <path d="M 9.421875 75.984375 
L 18.40625 75.984375 
L 18.40625 0 
L 9.421875 0 
z
" id="DejaVuSans-108"/>
     <path d="M 30.609375 48.390625 
Q 23.390625 48.390625 19.1875 42.75 
Q 14.984375 37.109375 14.984375 27.296875 
Q 14.984375 17.484375 19.15625 11.84375 
Q 23.34375 6.203125 30.609375 6.203125 
Q 37.796875 6.203125 41.984375 11.859375 
Q 46.1875 17.53125 46.1875 27.296875 
Q 46.1875 37.015625 41.984375 42.703125 
Q 37.796875 48.390625 30.609375 48.390625 
z
M 30.609375 56 
Q 42.328125 56 49.015625 48.375 
Q 55.71875 40.765625 55.71875 27.296875 
Q 55.71875 13.875 49.015625 6.21875 
Q 42.328125 -1.421875 30.609375 -1.421875 
Q 18.84375 -1.421875 12.171875 6.21875 
Q 5.515625 13.875 5.515625 27.296875 
Q 5.515625 40.765625 12.171875 48.375 
Q 18.84375 56 30.609375 56 
z
" id="DejaVuSans-111"/>
     <path d="M 44.28125 53.078125 
L 44.28125 44.578125 
Q 40.484375 46.53125 36.375 47.5 
Q 32.28125 48.484375 27.875 48.484375 
Q 21.1875 48.484375 17.84375 46.4375 
Q 14.5 44.390625 14.5 40.28125 
Q 14.5 37.15625 16.890625 35.375 
Q 19.28125 33.59375 26.515625 31.984375 
L 29.59375 31.296875 
Q 39.15625 29.25 43.1875 25.515625 
Q 47.21875 21.78125 47.21875 15.09375 
Q 47.21875 7.46875 41.1875 3.015625 
Q 35.15625 -1.421875 24.609375 -1.421875 
Q 20.21875 -1.421875 15.453125 -0.5625 
Q 10.6875 0.296875 5.421875 2 
L 5.421875 11.28125 
Q 10.40625 8.6875 15.234375 7.390625 
Q 20.0625 6.109375 24.8125 6.109375 
Q 31.15625 6.109375 34.5625 8.28125 
Q 37.984375 10.453125 37.984375 14.40625 
Q 37.984375 18.0625 35.515625 20.015625 
Q 33.0625 21.96875 24.703125 23.78125 
L 21.578125 24.515625 
Q 13.234375 26.265625 9.515625 29.90625 
Q 5.8125 33.546875 5.8125 39.890625 
Q 5.8125 47.609375 11.28125 51.796875 
Q 16.75 56 26.8125 56 
Q 31.78125 56 36.171875 55.265625 
Q 40.578125 54.546875 44.28125 53.078125 
z
" id="DejaVuSans-115"/>
     <path d="M 18.3125 70.21875 
L 18.3125 54.6875 
L 36.8125 54.6875 
L 36.8125 47.703125 
L 18.3125 47.703125 
L 18.3125 18.015625 
Q 18.3125 11.328125 20.140625 9.421875 
Q 21.96875 7.515625 27.59375 7.515625 
L 36.8125 7.515625 
L 36.8125 0 
L 27.59375 0 
Q 17.1875 0 13.234375 3.875 
Q 9.28125 7.765625 9.28125 18.015625 
L 9.28125 47.703125 
L 2.6875 47.703125 
L 2.6875 54.6875 
L 9.28125 54.6875 
L 9.28125 70.21875 
z
" id="DejaVuSans-116"/>
    </defs>
    <g transform="translate(957.020307 533.644051)rotate(-38.030077)scale(0.12 -0.12)">
     <use xlink:href="#DejaVuSans-76"/>
     <use x="55.712891" xlink:href="#DejaVuSans-105"/>
     <use x="83.496094" xlink:href="#DejaVuSans-102"/>
     <use x="118.701172" xlink:href="#DejaVuSans-101"/>
     <use x="180.224609" xlink:href="#DejaVuSans-32"/>
     <use x="212.011719" xlink:href="#DejaVuSans-67"/>
     <use x="281.835938" xlink:href="#DejaVuSans-121"/>
     <use x="341.015625" xlink:href="#DejaVuSans-99"/>
     <use x="395.996094" xlink:href="#DejaVuSans-108"/>
     <use x="423.779297" xlink:href="#DejaVuSans-101"/>
     <use x="485.302734" xlink:href="#DejaVuSans-32"/>
     <use x="517.089844" xlink:href="#DejaVuSans-67"/>
     <use x="586.914062" xlink:href="#DejaVuSans-111"/>
     <use x="648.095703" xlink:href="#DejaVuSans-115"/>
     <use x="700.195312" xlink:href="#DejaVuSans-116"/>
    </g>
    <!--  ($/house-yr) -->
    <defs>
     <path d="M 31 75.875 
Q 24.46875 64.65625 21.28125 53.65625 
Q 18.109375 42.671875 18.109375 31.390625 
Q 18.109375 20.125 21.3125 9.0625 
Q 24.515625 -2 31 -13.1875 
L 23.1875 -13.1875 
Q 15.875 -1.703125 12.234375 9.375 
Q 8.59375 20.453125 8.59375 31.390625 
Q 8.59375 42.28125 12.203125 53.3125 
Q 15.828125 64.359375 23.1875 75.875 
z
" id="DejaVuSans-40"/>
     <path d="M 33.796875 -14.703125 
L 28.90625 -14.703125 
L 28.859375 0 
Q 23.734375 0.09375 18.609375 1.1875 
Q 13.484375 2.296875 8.296875 4.5 
L 8.296875 13.28125 
Q 13.28125 10.15625 18.375 8.5625 
Q 23.484375 6.984375 28.90625 6.9375 
L 28.90625 29.203125 
Q 18.109375 30.953125 13.203125 35.15625 
Q 8.296875 39.359375 8.296875 46.6875 
Q 8.296875 54.640625 13.625 59.21875 
Q 18.953125 63.8125 28.90625 64.5 
L 28.90625 75.984375 
L 33.796875 75.984375 
L 33.796875 64.65625 
Q 38.328125 64.453125 42.578125 63.6875 
Q 46.828125 62.9375 50.875 61.625 
L 50.875 53.078125 
Q 46.828125 55.125 42.546875 56.25 
Q 38.28125 57.375 33.796875 57.5625 
L 33.796875 36.71875 
Q 44.875 35.015625 50.09375 30.609375 
Q 55.328125 26.21875 55.328125 18.609375 
Q 55.328125 10.359375 49.78125 5.59375 
Q 44.234375 0.828125 33.796875 0.09375 
z
M 28.90625 37.59375 
L 28.90625 57.625 
Q 23.25 56.984375 20.265625 54.390625 
Q 17.28125 51.8125 17.28125 47.515625 
Q 17.28125 43.3125 20.03125 40.96875 
Q 22.796875 38.625 28.90625 37.59375 
z
M 33.796875 28.21875 
L 33.796875 7.078125 
Q 39.984375 7.90625 43.140625 10.59375 
Q 46.296875 13.28125 46.296875 17.671875 
Q 46.296875 21.96875 43.28125 24.5 
Q 40.28125 27.046875 33.796875 28.21875 
z
" id="DejaVuSans-36"/>
     <path d="M 25.390625 72.90625 
L 33.6875 72.90625 
L 8.296875 -9.28125 
L 0 -9.28125 
z
" id="DejaVuSans-47"/>
     <path d="M 54.890625 33.015625 
L 54.890625 0 
L 45.90625 0 
L 45.90625 32.71875 
Q 45.90625 40.484375 42.875 44.328125 
Q 39.84375 48.1875 33.796875 48.1875 
Q 26.515625 48.1875 22.3125 43.546875 
Q 18.109375 38.921875 18.109375 30.90625 
L 18.109375 0 
L 9.078125 0 
L 9.078125 75.984375 
L 18.109375 75.984375 
L 18.109375 46.1875 
Q 21.34375 51.125 25.703125 53.5625 
Q 30.078125 56 35.796875 56 
Q 45.21875 56 50.046875 50.171875 
Q 54.890625 44.34375 54.890625 33.015625 
z
" id="DejaVuSans-104"/>
     <path d="M 8.5 21.578125 
L 8.5 54.6875 
L 17.484375 54.6875 
L 17.484375 21.921875 
Q 17.484375 14.15625 20.5 10.265625 
Q 23.53125 6.390625 29.59375 6.390625 
Q 36.859375 6.390625 41.078125 11.03125 
Q 45.3125 15.671875 45.3125 23.6875 
L 45.3125 54.6875 
L 54.296875 54.6875 
L 54.296875 0 
L 45.3125 0 
L 45.3125 8.40625 
Q 42.046875 3.421875 37.71875 1 
Q 33.40625 -1.421875 27.6875 -1.421875 
Q 18.265625 -1.421875 13.375 4.4375 
Q 8.5 10.296875 8.5 21.578125 
z
M 31.109375 56 
z
" id="DejaVuSans-117"/>
     <path d="M 4.890625 31.390625 
L 31.203125 31.390625 
L 31.203125 23.390625 
L 4.890625 23.390625 
z
" id="DejaVuSans-45"/>
     <path d="M 41.109375 46.296875 
Q 39.59375 47.171875 37.8125 47.578125 
Q 36.03125 48 33.890625 48 
Q 26.265625 48 22.1875 43.046875 
Q 18.109375 38.09375 18.109375 28.8125 
L 18.109375 0 
L 9.078125 0 
L 9.078125 54.6875 
L 18.109375 54.6875 
L 18.109375 46.1875 
Q 20.953125 51.171875 25.484375 53.578125 
Q 30.03125 56 36.53125 56 
Q 37.453125 56 38.578125 55.875 
Q 39.703125 55.765625 41.0625 55.515625 
z
" id="DejaVuSans-114"/>
     <path d="M 8.015625 75.875 
L 15.828125 75.875 
Q 23.140625 64.359375 26.78125 53.3125 
Q 30.421875 42.28125 30.421875 31.390625 
Q 30.421875 20.453125 26.78125 9.375 
Q 23.140625 -1.703125 15.828125 -13.1875 
L 8.015625 -13.1875 
Q 14.5 -2 17.703125 9.0625 
Q 20.90625 20.125 20.90625 31.390625 
Q 20.90625 42.671875 17.703125 53.65625 
Q 14.5 64.65625 8.015625 75.875 
z
" id="DejaVuSans-41"/>
    </defs>
    <g transform="translate(969.759018 540.739978)rotate(-38.030077)scale(0.12 -0.12)">
     <use xlink:href="#DejaVuSans-32"/>
     <use x="31.787109" xlink:href="#DejaVuSans-40"/>
     <use x="70.800781" xlink:href="#DejaVuSans-36"/>
     <use x="134.423828" xlink:href="#DejaVuSans-47"/>
     <use x="168.115234" xlink:href="#DejaVuSans-104"/>
     <use x="231.494141" xlink:href="#DejaVuSans-111"/>
     <use x="292.675781" xlink:href="#DejaVuSans-117"/>
     <use x="356.054688" xlink:href="#DejaVuSans-115"/>
     <use x="408.154297" xlink:href="#DejaVuSans-101"/>
     <use x="469.677734" xlink:href="#DejaVuSans-45"/>
     <use x="505.746094" xlink:href="#DejaVuSans-121"/>
     <use x="564.925781" xlink:href="#DejaVuSans-114"/>
     <use x="606.039062" xlink:href="#DejaVuSans-41"/>
    </g>
   </g>
   <g id="Line3DCollection_1">
    <path d="M 841.966462 561.754977 
L 346.756727 445.12879 
L 316.48975 264.092256 
" style="fill:none;stroke:#b0b0b0;stroke-width:0.8;"/>
    <path d="M 874.759608 536.106429 
L 381.754167 420.999743 
L 354.695678 239.161913 
" style="fill:none;stroke:#b0b0b0;stroke-width:0.8;"/>
    <path d="M 907.120444 510.796004 
L 416.303979 397.179314 
L 392.371384 214.577554 
" style="fill:none;stroke:#b0b0b0;stroke-width:0.8;"/>
    <path d="M 939.057462 485.817061 
L 450.414697 373.661619 
L 429.52783 190.332024 
" style="fill:none;stroke:#b0b0b0;stroke-width:0.8;"/>
    <path d="M 970.578934 461.163129 
L 484.094638 350.440924 
L 466.175678 166.418368 
" style="fill:none;stroke:#b0b0b0;stroke-width:0.8;"/>
    <path d="M 1001.692918 436.827907 
L 517.351911 327.511637 
L 502.325298 142.829818 
" style="fill:none;stroke:#b0b0b0;stroke-width:0.8;"/>
    <path d="M 1032.407265 412.805254 
L 550.194425 304.868308 
L 537.986784 119.559789 
" style="fill:none;stroke:#b0b0b0;stroke-width:0.8;"/>
    <path d="M 1062.729624 389.089186 
L 582.629888 282.505621 
L 573.169954 96.601872 
" style="fill:none;stroke:#b0b0b0;stroke-width:0.8;"/>
   </g>
   <g id="xtick_1">
    <g id="line2d_2">
     <path d="M 837.882554 560.793181 
L 850.140377 563.680005 
" style="fill:none;stroke:#000000;stroke-linecap:square;stroke-width:0.8;"/>
    </g>
    <g id="text_2">
     <!-- 1.0 -->
     <defs>
      <path d="M 11.71875 12.984375 
L 28.328125 12.984375 
L 28.328125 60.109375 
L 11.28125 56.59375 
L 11.28125 69.390625 
L 28.21875 72.90625 
L 46.09375 72.90625 
L 46.09375 12.984375 
L 62.703125 12.984375 
L 62.703125 0 
L 11.71875 0 
z
" id="DejaVuSans-Bold-49"/>
      <path d="M 10.203125 18.890625 
L 27.78125 18.890625 
L 27.78125 0 
L 10.203125 0 
z
" id="DejaVuSans-Bold-46"/>
      <path d="M 46 36.53125 
Q 46 50.203125 43.4375 55.78125 
Q 40.875 61.375 34.8125 61.375 
Q 28.765625 61.375 26.171875 55.78125 
Q 23.578125 50.203125 23.578125 36.53125 
Q 23.578125 22.703125 26.171875 17.03125 
Q 28.765625 11.375 34.8125 11.375 
Q 40.828125 11.375 43.40625 17.03125 
Q 46 22.703125 46 36.53125 
z
M 64.796875 36.375 
Q 64.796875 18.265625 56.984375 8.421875 
Q 49.171875 -1.421875 34.8125 -1.421875 
Q 20.40625 -1.421875 12.59375 8.421875 
Q 4.78125 18.265625 4.78125 36.375 
Q 4.78125 54.546875 12.59375 64.375 
Q 20.40625 74.21875 34.8125 74.21875 
Q 49.171875 74.21875 56.984375 64.375 
Q 64.796875 54.546875 64.796875 36.375 
z
" id="DejaVuSans-Bold-48"/>
     </defs>
     <g transform="translate(845.452001 578.868137)scale(0.12 -0.12)">
      <use xlink:href="#DejaVuSans-Bold-49"/>
      <use x="69.580078" xlink:href="#DejaVuSans-Bold-46"/>
      <use x="107.568359" xlink:href="#DejaVuSans-Bold-48"/>
     </g>
    </g>
   </g>
   <g id="xtick_2">
    <g id="line2d_3">
     <path d="M 870.694686 535.157353 
L 882.895484 538.005989 
" style="fill:none;stroke:#000000;stroke-linecap:square;stroke-width:0.8;"/>
    </g>
    <g id="text_3">
     <!-- 1.5 -->
     <defs>
      <path d="M 10.59375 72.90625 
L 57.328125 72.90625 
L 57.328125 59.078125 
L 25.59375 59.078125 
L 25.59375 47.796875 
Q 27.734375 48.390625 29.90625 48.703125 
Q 32.078125 49.03125 34.421875 49.03125 
Q 47.75 49.03125 55.171875 42.359375 
Q 62.59375 35.6875 62.59375 23.78125 
Q 62.59375 11.96875 54.515625 5.265625 
Q 46.4375 -1.421875 32.078125 -1.421875 
Q 25.875 -1.421875 19.796875 -0.21875 
Q 13.71875 0.984375 7.71875 3.421875 
L 7.71875 18.21875 
Q 13.671875 14.796875 19.015625 13.078125 
Q 24.359375 11.375 29.109375 11.375 
Q 35.9375 11.375 39.859375 14.71875 
Q 43.796875 18.0625 43.796875 23.78125 
Q 43.796875 29.546875 39.859375 32.859375 
Q 35.9375 36.1875 29.109375 36.1875 
Q 25.046875 36.1875 20.453125 35.125 
Q 15.875 34.078125 10.59375 31.890625 
z
" id="DejaVuSans-Bold-53"/>
     </defs>
     <g transform="translate(878.104852 553.203204)scale(0.12 -0.12)">
      <use xlink:href="#DejaVuSans-Bold-49"/>
      <use x="69.580078" xlink:href="#DejaVuSans-Bold-46"/>
      <use x="107.568359" xlink:href="#DejaVuSans-Bold-53"/>
     </g>
    </g>
   </g>
   <g id="xtick_3">
    <g id="line2d_4">
     <path d="M 903.074364 509.859397 
L 915.218569 512.6706 
" style="fill:none;stroke:#000000;stroke-linecap:square;stroke-width:0.8;"/>
    </g>
    <g id="text_4">
     <!-- 2.0 -->
     <defs>
      <path d="M 28.8125 13.8125 
L 60.890625 13.8125 
L 60.890625 0 
L 7.90625 0 
L 7.90625 13.8125 
L 34.515625 37.3125 
Q 38.09375 40.53125 39.796875 43.609375 
Q 41.5 46.6875 41.5 50 
Q 41.5 55.125 38.0625 58.25 
Q 34.625 61.375 28.90625 61.375 
Q 24.515625 61.375 19.28125 59.5 
Q 14.0625 57.625 8.109375 53.90625 
L 8.109375 69.921875 
Q 14.453125 72.015625 20.65625 73.109375 
Q 26.859375 74.21875 32.8125 74.21875 
Q 45.90625 74.21875 53.15625 68.453125 
Q 60.40625 62.703125 60.40625 52.390625 
Q 60.40625 46.4375 57.328125 41.28125 
Q 54.25 36.140625 44.390625 27.484375 
z
" id="DejaVuSans-Bold-50"/>
     </defs>
     <g transform="translate(910.327852 527.876131)scale(0.12 -0.12)">
      <use xlink:href="#DejaVuSans-Bold-50"/>
      <use x="69.580078" xlink:href="#DejaVuSans-Bold-46"/>
      <use x="107.568359" xlink:href="#DejaVuSans-Bold-48"/>
     </g>
    </g>
   </g>
   <g id="xtick_4">
    <g id="line2d_5">
     <path d="M 935.03008 484.892679 
L 947.118124 487.66718 
" style="fill:none;stroke:#000000;stroke-linecap:square;stroke-width:0.8;"/>
    </g>
    <g id="text_5">
     <!-- 2.5 -->
     <g transform="translate(942.129433 502.88029)scale(0.12 -0.12)">
      <use xlink:href="#DejaVuSans-Bold-50"/>
      <use x="69.580078" xlink:href="#DejaVuSans-Bold-46"/>
      <use x="107.568359" xlink:href="#DejaVuSans-Bold-53"/>
     </g>
    </g>
   </g>
   <g id="xtick_5">
    <g id="line2d_6">
     <path d="M 966.570108 460.250734 
L 978.60242 462.989248 
" style="fill:none;stroke:#000000;stroke-linecap:square;stroke-width:0.8;"/>
    </g>
    <g id="text_6">
     <!-- 3.0 -->
     <defs>
      <path d="M 46.578125 39.3125 
Q 53.953125 37.40625 57.78125 32.6875 
Q 61.625 27.984375 61.625 20.703125 
Q 61.625 9.859375 53.3125 4.21875 
Q 45.015625 -1.421875 29.109375 -1.421875 
Q 23.484375 -1.421875 17.84375 -0.515625 
Q 12.203125 0.390625 6.6875 2.203125 
L 6.6875 16.703125 
Q 11.96875 14.0625 17.15625 12.71875 
Q 22.359375 11.375 27.390625 11.375 
Q 34.859375 11.375 38.84375 13.953125 
Q 42.828125 16.546875 42.828125 21.390625 
Q 42.828125 26.375 38.75 28.9375 
Q 34.671875 31.5 26.703125 31.5 
L 19.1875 31.5 
L 19.1875 43.609375 
L 27.09375 43.609375 
Q 34.1875 43.609375 37.640625 45.828125 
Q 41.109375 48.046875 41.109375 52.59375 
Q 41.109375 56.78125 37.734375 59.078125 
Q 34.375 61.375 28.21875 61.375 
Q 23.6875 61.375 19.046875 60.34375 
Q 14.40625 59.328125 9.8125 57.328125 
L 9.8125 71.09375 
Q 15.375 72.65625 20.84375 73.4375 
Q 26.3125 74.21875 31.59375 74.21875 
Q 45.796875 74.21875 52.84375 69.546875 
Q 59.90625 64.890625 59.90625 55.515625 
Q 59.90625 49.125 56.53125 45.046875 
Q 53.171875 40.96875 46.578125 39.3125 
z
" id="DejaVuSans-Bold-51"/>
     </defs>
     <g transform="translate(973.51781 478.209226)scale(0.12 -0.12)">
      <use xlink:href="#DejaVuSans-Bold-51"/>
      <use x="69.580078" xlink:href="#DejaVuSans-Bold-46"/>
      <use x="107.568359" xlink:href="#DejaVuSans-Bold-48"/>
     </g>
    </g>
   </g>
   <g id="xtick_6">
    <g id="line2d_7">
     <path d="M 997.702506 435.927267 
L 1009.679511 438.63049 
" style="fill:none;stroke:#000000;stroke-linecap:square;stroke-width:0.8;"/>
    </g>
    <g id="text_7">
     <!-- 3.5 -->
     <g transform="translate(1004.500983 453.856649)scale(0.12 -0.12)">
      <use xlink:href="#DejaVuSans-Bold-51"/>
      <use x="69.580078" xlink:href="#DejaVuSans-Bold-46"/>
      <use x="107.568359" xlink:href="#DejaVuSans-Bold-53"/>
     </g>
    </g>
   </g>
   <g id="xtick_7">
    <g id="line2d_8">
     <path d="M 1028.435126 411.916143 
L 1040.357248 414.584752 
" style="fill:none;stroke:#000000;stroke-linecap:square;stroke-width:0.8;"/>
    </g>
    <g id="text_8">
     <!-- 4.0 -->
     <defs>
      <path d="M 36.8125 57.421875 
L 16.21875 26.90625 
L 36.8125 26.90625 
z
M 33.6875 72.90625 
L 54.59375 72.90625 
L 54.59375 26.90625 
L 64.984375 26.90625 
L 64.984375 13.28125 
L 54.59375 13.28125 
L 54.59375 0 
L 36.8125 0 
L 36.8125 13.28125 
L 4.5 13.28125 
L 4.5 29.390625 
z
" id="DejaVuSans-Bold-52"/>
     </defs>
     <g transform="translate(1035.086748 429.816432)scale(0.12 -0.12)">
      <use xlink:href="#DejaVuSans-Bold-52"/>
      <use x="69.580078" xlink:href="#DejaVuSans-Bold-46"/>
      <use x="107.568359" xlink:href="#DejaVuSans-Bold-48"/>
     </g>
    </g>
   </g>
   <g id="xtick_8">
    <g id="line2d_9">
     <path d="M 1058.775618 388.211385 
L 1070.643279 390.84604 
" style="fill:none;stroke:#000000;stroke-linecap:square;stroke-width:0.8;"/>
    </g>
    <g id="text_9">
     <!-- 4.5 -->
     <g transform="translate(1065.282702 406.082604)scale(0.12 -0.12)">
      <use xlink:href="#DejaVuSans-Bold-52"/>
      <use x="69.580078" xlink:href="#DejaVuSans-Bold-46"/>
      <use x="107.568359" xlink:href="#DejaVuSans-Bold-53"/>
     </g>
    </g>
   </g>
  </g>
  <g id="axis3d_2">
   <g id="line2d_10">
    <path d="M 312.67071 468.629455 
L 810.014706 586.745447 
" style="fill:none;stroke:#000000;stroke-linecap:square;stroke-width:0.8;"/>
   </g>
   <g id="text_10">
    <!-- Global Warming Potential -->
    <defs>
     <path d="M 59.515625 10.40625 
L 59.515625 29.984375 
L 43.40625 29.984375 
L 43.40625 38.09375 
L 69.28125 38.09375 
L 69.28125 6.78125 
Q 63.578125 2.734375 56.6875 0.65625 
Q 49.8125 -1.421875 42 -1.421875 
Q 24.90625 -1.421875 15.25 8.5625 
Q 5.609375 18.5625 5.609375 36.375 
Q 5.609375 54.25 15.25 64.234375 
Q 24.90625 74.21875 42 74.21875 
Q 49.125 74.21875 55.546875 72.453125 
Q 61.96875 70.703125 67.390625 67.28125 
L 67.390625 56.78125 
Q 61.921875 61.421875 55.765625 63.765625 
Q 49.609375 66.109375 42.828125 66.109375 
Q 29.4375 66.109375 22.71875 58.640625 
Q 16.015625 51.171875 16.015625 36.375 
Q 16.015625 21.625 22.71875 14.15625 
Q 29.4375 6.6875 42.828125 6.6875 
Q 48.046875 6.6875 52.140625 7.59375 
Q 56.25 8.5 59.515625 10.40625 
z
" id="DejaVuSans-71"/>
     <path d="M 48.6875 27.296875 
Q 48.6875 37.203125 44.609375 42.84375 
Q 40.53125 48.484375 33.40625 48.484375 
Q 26.265625 48.484375 22.1875 42.84375 
Q 18.109375 37.203125 18.109375 27.296875 
Q 18.109375 17.390625 22.1875 11.75 
Q 26.265625 6.109375 33.40625 6.109375 
Q 40.53125 6.109375 44.609375 11.75 
Q 48.6875 17.390625 48.6875 27.296875 
z
M 18.109375 46.390625 
Q 20.953125 51.265625 25.265625 53.625 
Q 29.59375 56 35.59375 56 
Q 45.5625 56 51.78125 48.09375 
Q 58.015625 40.1875 58.015625 27.296875 
Q 58.015625 14.40625 51.78125 6.484375 
Q 45.5625 -1.421875 35.59375 -1.421875 
Q 29.59375 -1.421875 25.265625 0.953125 
Q 20.953125 3.328125 18.109375 8.203125 
L 18.109375 0 
L 9.078125 0 
L 9.078125 75.984375 
L 18.109375 75.984375 
z
" id="DejaVuSans-98"/>
     <path d="M 34.28125 27.484375 
Q 23.390625 27.484375 19.1875 25 
Q 14.984375 22.515625 14.984375 16.5 
Q 14.984375 11.71875 18.140625 8.90625 
Q 21.296875 6.109375 26.703125 6.109375 
Q 34.1875 6.109375 38.703125 11.40625 
Q 43.21875 16.703125 43.21875 25.484375 
L 43.21875 27.484375 
z
M 52.203125 31.203125 
L 52.203125 0 
L 43.21875 0 
L 43.21875 8.296875 
Q 40.140625 3.328125 35.546875 0.953125 
Q 30.953125 -1.421875 24.3125 -1.421875 
Q 15.921875 -1.421875 10.953125 3.296875 
Q 6 8.015625 6 15.921875 
Q 6 25.140625 12.171875 29.828125 
Q 18.359375 34.515625 30.609375 34.515625 
L 43.21875 34.515625 
L 43.21875 35.40625 
Q 43.21875 41.609375 39.140625 45 
Q 35.0625 48.390625 27.6875 48.390625 
Q 23 48.390625 18.546875 47.265625 
Q 14.109375 46.140625 10.015625 43.890625 
L 10.015625 52.203125 
Q 14.9375 54.109375 19.578125 55.046875 
Q 24.21875 56 28.609375 56 
Q 40.484375 56 46.34375 49.84375 
Q 52.203125 43.703125 52.203125 31.203125 
z
" id="DejaVuSans-97"/>
     <path d="M 3.328125 72.90625 
L 13.28125 72.90625 
L 28.609375 11.28125 
L 43.890625 72.90625 
L 54.984375 72.90625 
L 70.3125 11.28125 
L 85.59375 72.90625 
L 95.609375 72.90625 
L 77.296875 0 
L 64.890625 0 
L 49.515625 63.28125 
L 33.984375 0 
L 21.578125 0 
z
" id="DejaVuSans-87"/>
     <path d="M 52 44.1875 
Q 55.375 50.25 60.0625 53.125 
Q 64.75 56 71.09375 56 
Q 79.640625 56 84.28125 50.015625 
Q 88.921875 44.046875 88.921875 33.015625 
L 88.921875 0 
L 79.890625 0 
L 79.890625 32.71875 
Q 79.890625 40.578125 77.09375 44.375 
Q 74.3125 48.1875 68.609375 48.1875 
Q 61.625 48.1875 57.5625 43.546875 
Q 53.515625 38.921875 53.515625 30.90625 
L 53.515625 0 
L 44.484375 0 
L 44.484375 32.71875 
Q 44.484375 40.625 41.703125 44.40625 
Q 38.921875 48.1875 33.109375 48.1875 
Q 26.21875 48.1875 22.15625 43.53125 
Q 18.109375 38.875 18.109375 30.90625 
L 18.109375 0 
L 9.078125 0 
L 9.078125 54.6875 
L 18.109375 54.6875 
L 18.109375 46.1875 
Q 21.1875 51.21875 25.484375 53.609375 
Q 29.78125 56 35.6875 56 
Q 41.65625 56 45.828125 52.96875 
Q 50 49.953125 52 44.1875 
z
" id="DejaVuSans-109"/>
     <path d="M 54.890625 33.015625 
L 54.890625 0 
L 45.90625 0 
L 45.90625 32.71875 
Q 45.90625 40.484375 42.875 44.328125 
Q 39.84375 48.1875 33.796875 48.1875 
Q 26.515625 48.1875 22.3125 43.546875 
Q 18.109375 38.921875 18.109375 30.90625 
L 18.109375 0 
L 9.078125 0 
L 9.078125 54.6875 
L 18.109375 54.6875 
L 18.109375 46.1875 
Q 21.34375 51.125 25.703125 53.5625 
Q 30.078125 56 35.796875 56 
Q 45.21875 56 50.046875 50.171875 
Q 54.890625 44.34375 54.890625 33.015625 
z
" id="DejaVuSans-110"/>
     <path d="M 45.40625 27.984375 
Q 45.40625 37.75 41.375 43.109375 
Q 37.359375 48.484375 30.078125 48.484375 
Q 22.859375 48.484375 18.828125 43.109375 
Q 14.796875 37.75 14.796875 27.984375 
Q 14.796875 18.265625 18.828125 12.890625 
Q 22.859375 7.515625 30.078125 7.515625 
Q 37.359375 7.515625 41.375 12.890625 
Q 45.40625 18.265625 45.40625 27.984375 
z
M 54.390625 6.78125 
Q 54.390625 -7.171875 48.1875 -13.984375 
Q 42 -20.796875 29.203125 -20.796875 
Q 24.46875 -20.796875 20.265625 -20.09375 
Q 16.0625 -19.390625 12.109375 -17.921875 
L 12.109375 -9.1875 
Q 16.0625 -11.328125 19.921875 -12.34375 
Q 23.78125 -13.375 27.78125 -13.375 
Q 36.625 -13.375 41.015625 -8.765625 
Q 45.40625 -4.15625 45.40625 5.171875 
L 45.40625 9.625 
Q 42.625 4.78125 38.28125 2.390625 
Q 33.9375 0 27.875 0 
Q 17.828125 0 11.671875 7.65625 
Q 5.515625 15.328125 5.515625 27.984375 
Q 5.515625 40.671875 11.671875 48.328125 
Q 17.828125 56 27.875 56 
Q 33.9375 56 38.28125 53.609375 
Q 42.625 51.21875 45.40625 46.390625 
L 45.40625 54.6875 
L 54.390625 54.6875 
z
" id="DejaVuSans-103"/>
     <path d="M 19.671875 64.796875 
L 19.671875 37.40625 
L 32.078125 37.40625 
Q 38.96875 37.40625 42.71875 40.96875 
Q 46.484375 44.53125 46.484375 51.125 
Q 46.484375 57.671875 42.71875 61.234375 
Q 38.96875 64.796875 32.078125 64.796875 
z
M 9.8125 72.90625 
L 32.078125 72.90625 
Q 44.34375 72.90625 50.609375 67.359375 
Q 56.890625 61.8125 56.890625 51.125 
Q 56.890625 40.328125 50.609375 34.8125 
Q 44.34375 29.296875 32.078125 29.296875 
L 19.671875 29.296875 
L 19.671875 0 
L 9.8125 0 
z
" id="DejaVuSans-80"/>
    </defs>
    <g transform="translate(455.839612 543.523735)rotate(-346.640131)scale(0.12 -0.12)">
     <use xlink:href="#DejaVuSans-71"/>
     <use x="77.490234" xlink:href="#DejaVuSans-108"/>
     <use x="105.273438" xlink:href="#DejaVuSans-111"/>
     <use x="166.455078" xlink:href="#DejaVuSans-98"/>
     <use x="229.931641" xlink:href="#DejaVuSans-97"/>
     <use x="291.210938" xlink:href="#DejaVuSans-108"/>
     <use x="318.994141" xlink:href="#DejaVuSans-32"/>
     <use x="350.78125" xlink:href="#DejaVuSans-87"/>
     <use x="449.564453" xlink:href="#DejaVuSans-97"/>
     <use x="510.84375" xlink:href="#DejaVuSans-114"/>
     <use x="551.941406" xlink:href="#DejaVuSans-109"/>
     <use x="649.353516" xlink:href="#DejaVuSans-105"/>
     <use x="677.136719" xlink:href="#DejaVuSans-110"/>
     <use x="740.515625" xlink:href="#DejaVuSans-103"/>
     <use x="803.992188" xlink:href="#DejaVuSans-32"/>
     <use x="835.779297" xlink:href="#DejaVuSans-80"/>
     <use x="896.035156" xlink:href="#DejaVuSans-111"/>
     <use x="957.216797" xlink:href="#DejaVuSans-116"/>
     <use x="996.425781" xlink:href="#DejaVuSans-101"/>
     <use x="1057.949219" xlink:href="#DejaVuSans-110"/>
     <use x="1121.328125" xlink:href="#DejaVuSans-116"/>
     <use x="1160.537109" xlink:href="#DejaVuSans-105"/>
     <use x="1188.320312" xlink:href="#DejaVuSans-97"/>
     <use x="1249.599609" xlink:href="#DejaVuSans-108"/>
    </g>
    <!--  (kgCO2eq/house-yr) -->
    <defs>
     <path d="M 9.078125 75.984375 
L 18.109375 75.984375 
L 18.109375 31.109375 
L 44.921875 54.6875 
L 56.390625 54.6875 
L 27.390625 29.109375 
L 57.625 0 
L 45.90625 0 
L 18.109375 26.703125 
L 18.109375 0 
L 9.078125 0 
z
" id="DejaVuSans-107"/>
     <path d="M 39.40625 66.21875 
Q 28.65625 66.21875 22.328125 58.203125 
Q 16.015625 50.203125 16.015625 36.375 
Q 16.015625 22.609375 22.328125 14.59375 
Q 28.65625 6.59375 39.40625 6.59375 
Q 50.140625 6.59375 56.421875 14.59375 
Q 62.703125 22.609375 62.703125 36.375 
Q 62.703125 50.203125 56.421875 58.203125 
Q 50.140625 66.21875 39.40625 66.21875 
z
M 39.40625 74.21875 
Q 54.734375 74.21875 63.90625 63.9375 
Q 73.09375 53.65625 73.09375 36.375 
Q 73.09375 19.140625 63.90625 8.859375 
Q 54.734375 -1.421875 39.40625 -1.421875 
Q 24.03125 -1.421875 14.8125 8.828125 
Q 5.609375 19.09375 5.609375 36.375 
Q 5.609375 53.65625 14.8125 63.9375 
Q 24.03125 74.21875 39.40625 74.21875 
z
" id="DejaVuSans-79"/>
     <path d="M 19.1875 8.296875 
L 53.609375 8.296875 
L 53.609375 0 
L 7.328125 0 
L 7.328125 8.296875 
Q 12.9375 14.109375 22.625 23.890625 
Q 32.328125 33.6875 34.8125 36.53125 
Q 39.546875 41.84375 41.421875 45.53125 
Q 43.3125 49.21875 43.3125 52.78125 
Q 43.3125 58.59375 39.234375 62.25 
Q 35.15625 65.921875 28.609375 65.921875 
Q 23.96875 65.921875 18.8125 64.3125 
Q 13.671875 62.703125 7.8125 59.421875 
L 7.8125 69.390625 
Q 13.765625 71.78125 18.9375 73 
Q 24.125 74.21875 28.421875 74.21875 
Q 39.75 74.21875 46.484375 68.546875 
Q 53.21875 62.890625 53.21875 53.421875 
Q 53.21875 48.921875 51.53125 44.890625 
Q 49.859375 40.875 45.40625 35.40625 
Q 44.1875 33.984375 37.640625 27.21875 
Q 31.109375 20.453125 19.1875 8.296875 
z
" id="DejaVuSans-50"/>
     <path d="M 14.796875 27.296875 
Q 14.796875 17.390625 18.875 11.75 
Q 22.953125 6.109375 30.078125 6.109375 
Q 37.203125 6.109375 41.296875 11.75 
Q 45.40625 17.390625 45.40625 27.296875 
Q 45.40625 37.203125 41.296875 42.84375 
Q 37.203125 48.484375 30.078125 48.484375 
Q 22.953125 48.484375 18.875 42.84375 
Q 14.796875 37.203125 14.796875 27.296875 
z
M 45.40625 8.203125 
Q 42.578125 3.328125 38.25 0.953125 
Q 33.9375 -1.421875 27.875 -1.421875 
Q 17.96875 -1.421875 11.734375 6.484375 
Q 5.515625 14.40625 5.515625 27.296875 
Q 5.515625 40.1875 11.734375 48.09375 
Q 17.96875 56 27.875 56 
Q 33.9375 56 38.25 53.625 
Q 42.578125 51.265625 45.40625 46.390625 
L 45.40625 54.6875 
L 54.390625 54.6875 
L 54.390625 -20.796875 
L 45.40625 -20.796875 
z
" id="DejaVuSans-113"/>
    </defs>
    <g transform="translate(466.590842 559.888215)rotate(-346.640131)scale(0.12 -0.12)">
     <use xlink:href="#DejaVuSans-32"/>
     <use x="31.787109" xlink:href="#DejaVuSans-40"/>
     <use x="70.800781" xlink:href="#DejaVuSans-107"/>
     <use x="128.710938" xlink:href="#DejaVuSans-103"/>
     <use x="192.1875" xlink:href="#DejaVuSans-67"/>
     <use x="262.011719" xlink:href="#DejaVuSans-79"/>
     <use x="340.722656" xlink:href="#DejaVuSans-50"/>
     <use x="404.345703" xlink:href="#DejaVuSans-101"/>
     <use x="465.869141" xlink:href="#DejaVuSans-113"/>
     <use x="529.345703" xlink:href="#DejaVuSans-47"/>
     <use x="563.037109" xlink:href="#DejaVuSans-104"/>
     <use x="626.416016" xlink:href="#DejaVuSans-111"/>
     <use x="687.597656" xlink:href="#DejaVuSans-117"/>
     <use x="750.976562" xlink:href="#DejaVuSans-115"/>
     <use x="803.076172" xlink:href="#DejaVuSans-101"/>
     <use x="864.599609" xlink:href="#DejaVuSans-45"/>
     <use x="900.667969" xlink:href="#DejaVuSans-121"/>
     <use x="959.847656" xlink:href="#DejaVuSans-114"/>
     <use x="1000.960938" xlink:href="#DejaVuSans-41"/>
    </g>
   </g>
   <g id="Line3DCollection_2">
    <path d="M 1061.049856 187.963804 
L 1032.773094 371.363128 
L 767.396469 576.623891 
" style="fill:none;stroke:#b0b0b0;stroke-width:0.8;"/>
    <path d="M 998.637313 174.861343 
L 975.299105 358.642069 
L 707.6939 562.444915 
" style="fill:none;stroke:#b0b0b0;stroke-width:0.8;"/>
    <path d="M 936.691416 161.856847 
L 918.221623 346.008772 
L 648.426049 548.369183 
" style="fill:none;stroke:#b0b0b0;stroke-width:0.8;"/>
    <path d="M 875.206951 148.949221 
L 861.53656 333.46233 
L 589.588187 534.39557 
" style="fill:none;stroke:#b0b0b0;stroke-width:0.8;"/>
    <path d="M 814.178781 136.137386 
L 805.239882 321.001853 
L 531.17565 520.522969 
" style="fill:none;stroke:#b0b0b0;stroke-width:0.8;"/>
    <path d="M 753.601846 123.420281 
L 749.327611 308.626458 
L 473.183844 506.750289 
" style="fill:none;stroke:#b0b0b0;stroke-width:0.8;"/>
    <path d="M 693.471159 110.796858 
L 693.795824 296.335278 
L 415.608239 493.076454 
" style="fill:none;stroke:#b0b0b0;stroke-width:0.8;"/>
    <path d="M 633.781809 98.266085 
L 638.64065 284.127456 
L 358.444371 479.500404 
" style="fill:none;stroke:#b0b0b0;stroke-width:0.8;"/>
   </g>
   <g id="xtick_9">
    <g id="line2d_11">
     <path d="M 769.637054 574.890866 
L 762.909287 580.09459 
" style="fill:none;stroke:#000000;stroke-linecap:square;stroke-width:0.8;"/>
    </g>
    <g id="text_11">
     <!-- 0 -->
     <g transform="translate(755.125875 596.457219)scale(0.12 -0.12)">
      <use xlink:href="#DejaVuSans-Bold-48"/>
     </g>
    </g>
   </g>
   <g id="xtick_10">
    <g id="line2d_12">
     <path d="M 709.952868 560.72453 
L 703.169925 565.890286 
" style="fill:none;stroke:#000000;stroke-linecap:square;stroke-width:0.8;"/>
    </g>
    <g id="text_12">
     <!-- 2 -->
     <g transform="translate(695.497204 582.24965)scale(0.12 -0.12)">
      <use xlink:href="#DejaVuSans-Bold-50"/>
     </g>
    </g>
   </g>
   <g id="xtick_11">
    <g id="line2d_13">
     <path d="M 650.703074 546.661299 
L 643.865935 551.789501 
" style="fill:none;stroke:#000000;stroke-linecap:square;stroke-width:0.8;"/>
    </g>
    <g id="text_13">
     <!-- 4 -->
     <g transform="translate(636.302393 568.145455)scale(0.12 -0.12)">
      <use xlink:href="#DejaVuSans-Bold-52"/>
     </g>
    </g>
   </g>
   <g id="xtick_12">
    <g id="line2d_14">
     <path d="M 591.882947 532.700052 
L 584.992577 537.791107 
" style="fill:none;stroke:#000000;stroke-linecap:square;stroke-width:0.8;"/>
    </g>
    <g id="text_14">
     <!-- 6 -->
     <defs>
      <path d="M 36.1875 35.984375 
Q 31.25 35.984375 28.78125 32.78125 
Q 26.3125 29.59375 26.3125 23.1875 
Q 26.3125 16.796875 28.78125 13.59375 
Q 31.25 10.40625 36.1875 10.40625 
Q 41.15625 10.40625 43.625 13.59375 
Q 46.09375 16.796875 46.09375 23.1875 
Q 46.09375 29.59375 43.625 32.78125 
Q 41.15625 35.984375 36.1875 35.984375 
z
M 59.421875 71 
L 59.421875 57.515625 
Q 54.78125 59.71875 50.671875 60.765625 
Q 46.578125 61.8125 42.671875 61.8125 
Q 34.28125 61.8125 29.59375 57.140625 
Q 24.90625 52.484375 24.125 43.3125 
Q 27.34375 45.703125 31.09375 46.890625 
Q 34.859375 48.09375 39.3125 48.09375 
Q 50.484375 48.09375 57.34375 41.546875 
Q 64.203125 35.015625 64.203125 24.421875 
Q 64.203125 12.703125 56.53125 5.640625 
Q 48.875 -1.421875 35.984375 -1.421875 
Q 21.78125 -1.421875 13.984375 8.171875 
Q 6.203125 17.78125 6.203125 35.40625 
Q 6.203125 53.46875 15.3125 63.796875 
Q 24.421875 74.125 40.28125 74.125 
Q 45.3125 74.125 50.046875 73.34375 
Q 54.78125 72.5625 59.421875 71 
z
" id="DejaVuSans-Bold-54"/>
     </defs>
     <g transform="translate(577.536723 554.14351)scale(0.12 -0.12)">
      <use xlink:href="#DejaVuSans-Bold-54"/>
     </g>
    </g>
   </g>
   <g id="xtick_13">
    <g id="line2d_15">
     <path d="M 533.487831 518.839682 
L 526.545176 523.893995 
" style="fill:none;stroke:#000000;stroke-linecap:square;stroke-width:0.8;"/>
    </g>
    <g id="text_15">
     <!-- 8 -->
     <defs>
      <path d="M 34.8125 32.625 
Q 29.546875 32.625 26.703125 29.734375 
Q 23.875 26.859375 23.875 21.484375 
Q 23.875 16.109375 26.703125 13.25 
Q 29.546875 10.40625 34.8125 10.40625 
Q 40.046875 10.40625 42.828125 13.25 
Q 45.609375 16.109375 45.609375 21.484375 
Q 45.609375 26.90625 42.828125 29.765625 
Q 40.046875 32.625 34.8125 32.625 
z
M 21.09375 38.8125 
Q 14.453125 40.828125 11.078125 44.96875 
Q 7.71875 49.125 7.71875 55.328125 
Q 7.71875 64.546875 14.59375 69.375 
Q 21.484375 74.21875 34.8125 74.21875 
Q 48.046875 74.21875 54.921875 69.40625 
Q 61.8125 64.59375 61.8125 55.328125 
Q 61.8125 49.125 58.421875 44.96875 
Q 55.03125 40.828125 48.390625 38.8125 
Q 55.8125 36.765625 59.59375 32.15625 
Q 63.375 27.546875 63.375 20.515625 
Q 63.375 9.671875 56.171875 4.125 
Q 48.96875 -1.421875 34.8125 -1.421875 
Q 20.609375 -1.421875 13.359375 4.125 
Q 6.109375 9.671875 6.109375 20.515625 
Q 6.109375 27.546875 9.890625 32.15625 
Q 13.671875 36.765625 21.09375 38.8125 
z
M 25.484375 53.421875 
Q 25.484375 49.078125 27.90625 46.734375 
Q 30.328125 44.390625 34.8125 44.390625 
Q 39.203125 44.390625 41.59375 46.734375 
Q 44 49.078125 44 53.421875 
Q 44 57.765625 41.59375 60.078125 
Q 39.203125 62.40625 34.8125 62.40625 
Q 30.328125 62.40625 27.90625 60.0625 
Q 25.484375 57.71875 25.484375 53.421875 
z
" id="DejaVuSans-Bold-56"/>
     </defs>
     <g transform="translate(519.195546 540.242708)scale(0.12 -0.12)">
      <use xlink:href="#DejaVuSans-Bold-56"/>
     </g>
    </g>
   </g>
   <g id="xtick_14">
    <g id="line2d_16">
     <path d="M 475.513135 505.079102 
L 468.519126 510.097067 
" style="fill:none;stroke:#000000;stroke-linecap:square;stroke-width:0.8;"/>
    </g>
    <g id="text_16">
     <!-- 10 -->
     <g transform="translate(457.099589 526.441957)scale(0.12 -0.12)">
      <use xlink:href="#DejaVuSans-Bold-49"/>
      <use x="69.580078" xlink:href="#DejaVuSans-Bold-48"/>
     </g>
    </g>
   </g>
   <g id="xtick_15">
    <g id="line2d_17">
     <path d="M 417.954335 491.417237 
L 410.909888 496.399245 
" style="fill:none;stroke:#000000;stroke-linecap:square;stroke-width:0.8;"/>
    </g>
    <g id="text_17">
     <!-- 12 -->
     <g transform="translate(399.593712 512.74018)scale(0.12 -0.12)">
      <use xlink:href="#DejaVuSans-Bold-49"/>
      <use x="69.580078" xlink:href="#DejaVuSans-Bold-50"/>
     </g>
    </g>
   </g>
   <g id="xtick_16">
    <g id="line2d_18">
     <path d="M 360.806973 477.853029 
L 353.712986 482.799465 
" style="fill:none;stroke:#000000;stroke-linecap:square;stroke-width:0.8;"/>
    </g>
    <g id="text_18">
     <!-- 14 -->
     <g transform="translate(342.498774 499.136316)scale(0.12 -0.12)">
      <use xlink:href="#DejaVuSans-Bold-49"/>
      <use x="69.580078" xlink:href="#DejaVuSans-Bold-52"/>
     </g>
    </g>
   </g>
  </g>
  <g id="axis3d_3">
   <g id="line2d_19">
    <path d="M 312.67071 468.629455 
L 279.238009 288.399968 
" style="fill:none;stroke:#000000;stroke-linecap:square;stroke-width:0.8;"/>
   </g>
   <g id="text_19">
    <!-- Degree of Circularity -->
    <defs>
     <path d="M 19.671875 64.796875 
L 19.671875 8.109375 
L 31.59375 8.109375 
Q 46.6875 8.109375 53.6875 14.9375 
Q 60.6875 21.78125 60.6875 36.53125 
Q 60.6875 51.171875 53.6875 57.984375 
Q 46.6875 64.796875 31.59375 64.796875 
z
M 9.8125 72.90625 
L 30.078125 72.90625 
Q 51.265625 72.90625 61.171875 64.09375 
Q 71.09375 55.28125 71.09375 36.53125 
Q 71.09375 17.671875 61.125 8.828125 
Q 51.171875 0 30.078125 0 
L 9.8125 0 
z
" id="DejaVuSans-68"/>
    </defs>
    <g transform="translate(206.369465 329.626633)rotate(-280.508956)scale(0.12 -0.12)">
     <use xlink:href="#DejaVuSans-68"/>
     <use x="77.001953" xlink:href="#DejaVuSans-101"/>
     <use x="138.525391" xlink:href="#DejaVuSans-103"/>
     <use x="202.001953" xlink:href="#DejaVuSans-114"/>
     <use x="243.083984" xlink:href="#DejaVuSans-101"/>
     <use x="304.607422" xlink:href="#DejaVuSans-101"/>
     <use x="366.130859" xlink:href="#DejaVuSans-32"/>
     <use x="397.917969" xlink:href="#DejaVuSans-111"/>
     <use x="459.099609" xlink:href="#DejaVuSans-102"/>
     <use x="494.304688" xlink:href="#DejaVuSans-32"/>
     <use x="526.091797" xlink:href="#DejaVuSans-67"/>
     <use x="595.916016" xlink:href="#DejaVuSans-105"/>
     <use x="623.699219" xlink:href="#DejaVuSans-114"/>
     <use x="664.78125" xlink:href="#DejaVuSans-99"/>
     <use x="719.761719" xlink:href="#DejaVuSans-117"/>
     <use x="783.140625" xlink:href="#DejaVuSans-108"/>
     <use x="810.923828" xlink:href="#DejaVuSans-97"/>
     <use x="872.203125" xlink:href="#DejaVuSans-114"/>
     <use x="913.316406" xlink:href="#DejaVuSans-105"/>
     <use x="941.099609" xlink:href="#DejaVuSans-116"/>
     <use x="980.308594" xlink:href="#DejaVuSans-121"/>
    </g>
    <!--  (Industrial Perspective) -->
    <defs>
     <path d="M 9.8125 72.90625 
L 19.671875 72.90625 
L 19.671875 0 
L 9.8125 0 
z
" id="DejaVuSans-73"/>
     <path d="M 45.40625 46.390625 
L 45.40625 75.984375 
L 54.390625 75.984375 
L 54.390625 0 
L 45.40625 0 
L 45.40625 8.203125 
Q 42.578125 3.328125 38.25 0.953125 
Q 33.9375 -1.421875 27.875 -1.421875 
Q 17.96875 -1.421875 11.734375 6.484375 
Q 5.515625 14.40625 5.515625 27.296875 
Q 5.515625 40.1875 11.734375 48.09375 
Q 17.96875 56 27.875 56 
Q 33.9375 56 38.25 53.625 
Q 42.578125 51.265625 45.40625 46.390625 
z
M 14.796875 27.296875 
Q 14.796875 17.390625 18.875 11.75 
Q 22.953125 6.109375 30.078125 6.109375 
Q 37.203125 6.109375 41.296875 11.75 
Q 45.40625 17.390625 45.40625 27.296875 
Q 45.40625 37.203125 41.296875 42.84375 
Q 37.203125 48.484375 30.078125 48.484375 
Q 22.953125 48.484375 18.875 42.84375 
Q 14.796875 37.203125 14.796875 27.296875 
z
" id="DejaVuSans-100"/>
     <path d="M 18.109375 8.203125 
L 18.109375 -20.796875 
L 9.078125 -20.796875 
L 9.078125 54.6875 
L 18.109375 54.6875 
L 18.109375 46.390625 
Q 20.953125 51.265625 25.265625 53.625 
Q 29.59375 56 35.59375 56 
Q 45.5625 56 51.78125 48.09375 
Q 58.015625 40.1875 58.015625 27.296875 
Q 58.015625 14.40625 51.78125 6.484375 
Q 45.5625 -1.421875 35.59375 -1.421875 
Q 29.59375 -1.421875 25.265625 0.953125 
Q 20.953125 3.328125 18.109375 8.203125 
z
M 48.6875 27.296875 
Q 48.6875 37.203125 44.609375 42.84375 
Q 40.53125 48.484375 33.40625 48.484375 
Q 26.265625 48.484375 22.1875 42.84375 
Q 18.109375 37.203125 18.109375 27.296875 
Q 18.109375 17.390625 22.1875 11.75 
Q 26.265625 6.109375 33.40625 6.109375 
Q 40.53125 6.109375 44.609375 11.75 
Q 48.6875 17.390625 48.6875 27.296875 
z
" id="DejaVuSans-112"/>
     <path d="M 2.984375 54.6875 
L 12.5 54.6875 
L 29.59375 8.796875 
L 46.6875 54.6875 
L 56.203125 54.6875 
L 35.6875 0 
L 23.484375 0 
z
" id="DejaVuSans-118"/>
    </defs>
    <g transform="translate(191.474772 323.00628)rotate(-280.508956)scale(0.12 -0.12)">
     <use xlink:href="#DejaVuSans-32"/>
     <use x="31.787109" xlink:href="#DejaVuSans-40"/>
     <use x="70.800781" xlink:href="#DejaVuSans-73"/>
     <use x="100.292969" xlink:href="#DejaVuSans-110"/>
     <use x="163.671875" xlink:href="#DejaVuSans-100"/>
     <use x="227.148438" xlink:href="#DejaVuSans-117"/>
     <use x="290.527344" xlink:href="#DejaVuSans-115"/>
     <use x="342.626953" xlink:href="#DejaVuSans-116"/>
     <use x="381.835938" xlink:href="#DejaVuSans-114"/>
     <use x="422.949219" xlink:href="#DejaVuSans-105"/>
     <use x="450.732422" xlink:href="#DejaVuSans-97"/>
     <use x="512.011719" xlink:href="#DejaVuSans-108"/>
     <use x="539.794922" xlink:href="#DejaVuSans-32"/>
     <use x="571.582031" xlink:href="#DejaVuSans-80"/>
     <use x="631.837891" xlink:href="#DejaVuSans-101"/>
     <use x="693.361328" xlink:href="#DejaVuSans-114"/>
     <use x="734.474609" xlink:href="#DejaVuSans-115"/>
     <use x="786.574219" xlink:href="#DejaVuSans-112"/>
     <use x="850.050781" xlink:href="#DejaVuSans-101"/>
     <use x="911.574219" xlink:href="#DejaVuSans-99"/>
     <use x="966.554688" xlink:href="#DejaVuSans-116"/>
     <use x="1005.763672" xlink:href="#DejaVuSans-105"/>
     <use x="1033.546875" xlink:href="#DejaVuSans-118"/>
     <use x="1092.726562" xlink:href="#DejaVuSans-101"/>
     <use x="1154.25" xlink:href="#DejaVuSans-41"/>
    </g>
   </g>
   <g id="Line3DCollection_3">
    <path d="M 310.703137 458.022637 
L 593.960325 263.349572 
L 1075.663317 369.643294 
" style="fill:none;stroke:#b0b0b0;stroke-width:0.8;"/>
    <path d="M 304.894146 426.707441 
L 592.484569 230.909444 
L 1081.200609 337.779706 
" style="fill:none;stroke:#b0b0b0;stroke-width:0.8;"/>
    <path d="M 298.908119 394.437883 
L 590.966232 197.53331 
L 1086.902574 304.968537 
" style="fill:none;stroke:#b0b0b0;stroke-width:0.8;"/>
    <path d="M 292.73684 361.16966 
L 589.403446 163.180066 
L 1092.776667 271.166878 
" style="fill:none;stroke:#b0b0b0;stroke-width:0.8;"/>
    <path d="M 286.371573 326.855685 
L 587.794228 127.806166 
L 1098.830802 236.329192 
" style="fill:none;stroke:#b0b0b0;stroke-width:0.8;"/>
   </g>
   <g id="xtick_17">
    <g id="line2d_20">
     <path d="M 313.091821 456.380976 
L 305.919508 461.310263 
" style="fill:none;stroke:#000000;stroke-linecap:square;stroke-width:0.8;"/>
    </g>
    <g id="text_20">
     <!-- 0.0 -->
     <g transform="translate(277.862066 469.707089)scale(0.12 -0.12)">
      <use xlink:href="#DejaVuSans-Bold-48"/>
      <use x="69.580078" xlink:href="#DejaVuSans-Bold-46"/>
      <use x="107.568359" xlink:href="#DejaVuSans-Bold-48"/>
     </g>
    </g>
   </g>
   <g id="xtick_18">
    <g id="line2d_21">
     <path d="M 307.321239 425.055021 
L 300.033501 430.016676 
" style="fill:none;stroke:#000000;stroke-linecap:square;stroke-width:0.8;"/>
    </g>
    <g id="text_21">
     <!-- 0.1 -->
     <g transform="translate(271.715425 438.408754)scale(0.12 -0.12)">
      <use xlink:href="#DejaVuSans-Bold-48"/>
      <use x="69.580078" xlink:href="#DejaVuSans-Bold-46"/>
      <use x="107.568359" xlink:href="#DejaVuSans-Bold-49"/>
     </g>
    </g>
   </g>
   <g id="xtick_19">
    <g id="line2d_22">
     <path d="M 301.374872 392.774807 
L 293.96795 397.768528 
" style="fill:none;stroke:#000000;stroke-linecap:square;stroke-width:0.8;"/>
    </g>
    <g id="text_22">
     <!-- 0.2 -->
     <g transform="translate(265.381328 406.1559)scale(0.12 -0.12)">
      <use xlink:href="#DejaVuSans-Bold-48"/>
      <use x="69.580078" xlink:href="#DejaVuSans-Bold-46"/>
      <use x="107.568359" xlink:href="#DejaVuSans-Bold-50"/>
     </g>
    </g>
   </g>
   <g id="xtick_20">
    <g id="line2d_23">
     <path d="M 295.244563 359.496054 
L 287.714514 364.521464 
" style="fill:none;stroke:#000000;stroke-linecap:square;stroke-width:0.8;"/>
    </g>
    <g id="text_23">
     <!-- 0.3 -->
     <g transform="translate(258.851066 372.904186)scale(0.12 -0.12)">
      <use xlink:href="#DejaVuSans-Bold-48"/>
      <use x="69.580078" xlink:href="#DejaVuSans-Bold-46"/>
      <use x="107.568359" xlink:href="#DejaVuSans-Bold-51"/>
     </g>
    </g>
   </g>
   <g id="xtick_21">
    <g id="line2d_24">
     <path d="M 288.921644 325.171703 
L 281.264324 330.228343 
" style="fill:none;stroke:#000000;stroke-linecap:square;stroke-width:0.8;"/>
    </g>
    <g id="text_24">
     <!-- 0.4 -->
     <g transform="translate(252.115382 338.606481)scale(0.12 -0.12)">
      <use xlink:href="#DejaVuSans-Bold-48"/>
      <use x="69.580078" xlink:href="#DejaVuSans-Bold-46"/>
      <use x="107.568359" xlink:href="#DejaVuSans-Bold-52"/>
     </g>
    </g>
   </g>
  </g>
  <g id="axes_1">
   <g id="Poly3DCollection_1">
    <path clip-path="url(#pe1154356f6)" d="M 872.864898 495.183853 
L 916.690913 350.216988 
L 898.530127 364.446896 
z
" style="fill:#f1e51d;"/>
    <path clip-path="url(#pe1154356f6)" d="M 898.530127 364.446896 
L 756.428097 479.516093 
L 872.864898 495.183853 
z
" style="fill:#fde725;"/>
    <path clip-path="url(#pe1154356f6)" d="M 683.626861 203.708145 
L 916.690913 350.216988 
L 600.184535 119.811902 
z
" style="fill:#2f6b8e;"/>
    <path clip-path="url(#pe1154356f6)" d="M 692.398577 326.419488 
L 898.530127 364.446896 
L 916.690913 350.216988 
z
" style="fill:#35b779;"/>
    <path clip-path="url(#pe1154356f6)" d="M 600.184535 119.811902 
L 600.715656 121.298456 
L 600.739057 121.357915 
z
" style="fill:#440154;"/>
    <path clip-path="url(#pe1154356f6)" d="M 916.690913 350.216988 
L 683.626861 203.708145 
L 656.726298 291.899645 
z
" style="fill:#287d8e;"/>
    <path clip-path="url(#pe1154356f6)" d="M 600.739057 121.357915 
L 683.626861 203.708145 
L 600.184535 119.811902 
z
" style="fill:#471164;"/>
    <path clip-path="url(#pe1154356f6)" d="M 600.739057 121.357915 
L 600.715656 121.298456 
L 618.371367 170.402806 
z
" style="fill:#440154;"/>
    <path clip-path="url(#pe1154356f6)" d="M 600.739057 121.357915 
L 618.371367 170.402806 
L 683.626861 203.708145 
z
" style="fill:#471164;"/>
    <path clip-path="url(#pe1154356f6)" d="M 756.428097 479.516093 
L 898.530127 364.446896 
L 685.938883 366.051368 
z
" style="fill:#32b67a;"/>
    <path clip-path="url(#pe1154356f6)" d="M 697.215833 531.659491 
L 711.159917 433.857566 
L 695.749446 529.07725 
z
" style="fill:#b8de29;"/>
    <path clip-path="url(#pe1154356f6)" d="M 656.726298 291.899645 
L 655.190534 274.33821 
L 916.690913 350.216988 
z
" style="fill:#2b748e;"/>
    <path clip-path="url(#pe1154356f6)" d="M 872.864898 495.183853 
L 756.428097 479.516093 
L 722.781366 395.453241 
z
" style="fill:#60ca60;"/>
    <path clip-path="url(#pe1154356f6)" d="M 722.781366 395.453241 
L 707.41625 533.8018 
L 872.864898 495.183853 
z
" style="fill:#7cd250;"/>
    <path clip-path="url(#pe1154356f6)" d="M 683.626861 203.708145 
L 618.371367 170.402806 
L 636.52262 221.261957 
z
" style="fill:#481467;"/>
    <path clip-path="url(#pe1154356f6)" d="M 655.190534 274.33821 
L 692.398577 326.419488 
L 916.690913 350.216988 
z
" style="fill:#2c718e;"/>
    <path clip-path="url(#pe1154356f6)" d="M 600.184535 119.811902 
L 668.750694 337.824057 
L 600.715656 121.298456 
z
" style="fill:#470d60;"/>
    <path clip-path="url(#pe1154356f6)" d="M 697.215833 531.659491 
L 707.41625 533.8018 
L 722.781366 395.453241 
z
" style="fill:#7cd250;"/>
    <path clip-path="url(#pe1154356f6)" d="M 683.626861 203.708145 
L 636.52262 221.261957 
L 651.342233 238.503114 
z
" style="fill:#481f70;"/>
    <path clip-path="url(#pe1154356f6)" d="M 668.750694 337.824057 
L 618.371367 170.402806 
L 600.715656 121.298456 
z
" style="fill:#470e61;"/>
    <path clip-path="url(#pe1154356f6)" d="M 647.611015 252.665959 
L 683.626861 203.708145 
L 651.342233 238.503114 
z
" style="fill:#482071;"/>
    <path clip-path="url(#pe1154356f6)" d="M 711.159917 433.857566 
L 756.428097 479.516093 
L 689.543146 437.411059 
z
" style="fill:#2fb47c;"/>
    <path clip-path="url(#pe1154356f6)" d="M 656.726298 291.899645 
L 683.626861 203.708145 
L 647.611015 252.665959 
z
" style="fill:#472c7a;"/>
    <path clip-path="url(#pe1154356f6)" d="M 689.543146 437.411059 
L 695.749446 529.07725 
L 711.159917 433.857566 
z
" style="fill:#40bd72;"/>
    <path clip-path="url(#pe1154356f6)" d="M 898.530127 364.446896 
L 692.398577 326.419488 
L 680.059805 347.724197 
z
" style="fill:#2b758e;"/>
    <path clip-path="url(#pe1154356f6)" d="M 756.428097 479.516093 
L 687.545132 409.005801 
L 689.543146 437.411059 
z
" style="fill:#24aa83;"/>
    <path clip-path="url(#pe1154356f6)" d="M 668.750694 337.824057 
L 695.749446 529.07725 
L 689.543146 437.411059 
z
" style="fill:#1fa188;"/>
    <path clip-path="url(#pe1154356f6)" d="M 651.342233 238.503114 
L 636.52262 221.261957 
L 647.611015 252.665959 
z
" style="fill:#471365;"/>
    <path clip-path="url(#pe1154356f6)" d="M 680.059805 347.724197 
L 682.779906 356.127588 
L 898.530127 364.446896 
z
" style="fill:#2e6d8e;"/>
    <path clip-path="url(#pe1154356f6)" d="M 636.52262 221.261957 
L 618.371367 170.402806 
L 668.750694 337.824057 
z
" style="fill:#471063;"/>
    <path clip-path="url(#pe1154356f6)" d="M 722.781366 395.453241 
L 756.428097 479.516093 
L 711.159917 433.857566 
z
" style="fill:#1e9b8a;"/>
    <path clip-path="url(#pe1154356f6)" d="M 722.781366 395.453241 
L 711.159917 433.857566 
L 697.215833 531.659491 
z
" style="fill:#21a585;"/>
    <path clip-path="url(#pe1154356f6)" d="M 898.530127 364.446896 
L 682.779906 356.127588 
L 685.938883 366.051368 
z
" style="fill:#2e6e8e;"/>
    <path clip-path="url(#pe1154356f6)" d="M 647.611015 252.665959 
L 655.190534 274.33821 
L 656.726298 291.899645 
z
" style="fill:#482173;"/>
    <path clip-path="url(#pe1154356f6)" d="M 685.938883 366.051368 
L 687.545132 409.005801 
L 756.428097 479.516093 
z
" style="fill:#23888e;"/>
    <path clip-path="url(#pe1154356f6)" d="M 636.52262 221.261957 
L 668.750694 337.824057 
L 647.611015 252.665959 
z
" style="fill:#471164;"/>
    <path clip-path="url(#pe1154356f6)" d="M 647.611015 252.665959 
L 668.750694 337.824057 
L 655.190534 274.33821 
z
" style="fill:#481467;"/>
    <path clip-path="url(#pe1154356f6)" d="M 692.398577 326.419488 
L 655.190534 274.33821 
L 667.181223 316.050179 
z
" style="fill:#482173;"/>
    <path clip-path="url(#pe1154356f6)" d="M 689.543146 437.411059 
L 687.545132 409.005801 
L 668.750694 337.824057 
z
" style="fill:#33638d;"/>
    <path clip-path="url(#pe1154356f6)" d="M 692.398577 326.419488 
L 667.181223 316.050179 
L 669.273935 315.330148 
z
" style="fill:#482374;"/>
    <path clip-path="url(#pe1154356f6)" d="M 667.181223 316.050179 
L 655.190534 274.33821 
L 668.750694 337.824057 
z
" style="fill:#48186a;"/>
    <path clip-path="url(#pe1154356f6)" d="M 669.273935 315.330148 
L 672.35039 324.448661 
L 692.398577 326.419488 
z
" style="fill:#482173;"/>
    <path clip-path="url(#pe1154356f6)" d="M 672.35039 324.448661 
L 674.380392 330.516029 
L 692.398577 326.419488 
z
" style="fill:#482374;"/>
    <path clip-path="url(#pe1154356f6)" d="M 674.380392 330.516029 
L 680.059805 347.724197 
L 692.398577 326.419488 
z
" style="fill:#482475;"/>
    <path clip-path="url(#pe1154356f6)" d="M 669.273935 315.330148 
L 667.181223 316.050179 
L 668.750694 337.824057 
z
" style="fill:#481a6c;"/>
    <path clip-path="url(#pe1154356f6)" d="M 668.750694 337.824057 
L 672.35039 324.448661 
L 669.273935 315.330148 
z
" style="fill:#481a6c;"/>
    <path clip-path="url(#pe1154356f6)" d="M 687.545132 409.005801 
L 682.779906 356.127588 
L 668.750694 337.824057 
z
" style="fill:#443a83;"/>
    <path clip-path="url(#pe1154356f6)" d="M 668.750694 337.824057 
L 674.380392 330.516029 
L 672.35039 324.448661 
z
" style="fill:#481a6c;"/>
    <path clip-path="url(#pe1154356f6)" d="M 668.750694 337.824057 
L 680.059805 347.724197 
L 674.380392 330.516029 
z
" style="fill:#481c6e;"/>
    <path clip-path="url(#pe1154356f6)" d="M 682.779906 356.127588 
L 687.545132 409.005801 
L 685.938883 366.051368 
z
" style="fill:#443983;"/>
    <path clip-path="url(#pe1154356f6)" d="M 668.750694 337.824057 
L 682.779906 356.127588 
L 680.059805 347.724197 
z
" style="fill:#481d6f;"/>
   </g>
   <g id="Path3DCollection_1">
    <defs>
     <path d="M 0 1.369306 
C 0.363144 1.369306 0.711464 1.225028 0.968246 0.968246 
C 1.225028 0.711464 1.369306 0.363144 1.369306 0 
C 1.369306 -0.363144 1.225028 -0.711464 0.968246 -0.968246 
C 0.711464 -1.225028 0.363144 -1.369306 0 -1.369306 
C -0.363144 -1.369306 -0.711464 -1.225028 -0.968246 -0.968246 
C -1.225028 -0.711464 -1.369306 -0.363144 -1.369306 0 
C -1.369306 0.363144 -1.225028 0.711464 -0.968246 0.968246 
C -0.711464 1.225028 -0.363144 1.369306 0 1.369306 
z
" id="C0_0_e113656ec9"/>
    </defs>
    <g clip-path="url(#pe1154356f6)">
     <use style="fill-opacity:0.7;stroke:#000000;stroke-opacity:0.7;" x="600.184535" xlink:href="#C0_0_e113656ec9" y="119.811902"/>
    </g>
    <g clip-path="url(#pe1154356f6)">
     <use style="fill-opacity:0.7;stroke:#000000;stroke-opacity:0.7;" x="872.864898" xlink:href="#C0_0_e113656ec9" y="495.183853"/>
    </g>
    <g clip-path="url(#pe1154356f6)">
     <use style="fill-opacity:0.7;stroke:#000000;stroke-opacity:0.7;" x="697.215833" xlink:href="#C0_0_e113656ec9" y="531.659491"/>
    </g>
    <g clip-path="url(#pe1154356f6)">
     <use style="fill-opacity:0.7;stroke:#000000;stroke-opacity:0.7;" x="695.749446" xlink:href="#C0_0_e113656ec9" y="529.07725"/>
    </g>
    <g clip-path="url(#pe1154356f6)">
     <use style="fill-opacity:0.7;stroke:#000000;stroke-opacity:0.7;" x="674.380392" xlink:href="#C0_0_e113656ec9" y="330.516029"/>
    </g>
    <g clip-path="url(#pe1154356f6)">
     <use style="fill-opacity:0.7;stroke:#000000;stroke-opacity:0.7;" x="655.190534" xlink:href="#C0_0_e113656ec9" y="274.33821"/>
    </g>
    <g clip-path="url(#pe1154356f6)">
     <use style="fill-opacity:0.7;stroke:#000000;stroke-opacity:0.7;" x="636.52262" xlink:href="#C0_0_e113656ec9" y="221.261957"/>
    </g>
    <g clip-path="url(#pe1154356f6)">
     <use style="fill-opacity:0.7;stroke:#000000;stroke-opacity:0.7;" x="618.371367" xlink:href="#C0_0_e113656ec9" y="170.402806"/>
    </g>
    <g clip-path="url(#pe1154356f6)">
     <use style="fill-opacity:0.7;stroke:#000000;stroke-opacity:0.7;" x="600.715656" xlink:href="#C0_0_e113656ec9" y="121.298456"/>
    </g>
    <g clip-path="url(#pe1154356f6)">
     <use style="fill-opacity:0.7;stroke:#000000;stroke-opacity:0.7;" x="707.41625" xlink:href="#C0_0_e113656ec9" y="533.8018"/>
    </g>
    <g clip-path="url(#pe1154356f6)">
     <use style="fill-opacity:0.7;stroke:#000000;stroke-opacity:0.7;" x="722.781366" xlink:href="#C0_0_e113656ec9" y="395.453241"/>
    </g>
    <g clip-path="url(#pe1154356f6)">
     <use style="fill-opacity:0.7;stroke:#000000;stroke-opacity:0.7;" x="722.781366" xlink:href="#C0_0_e113656ec9" y="395.453241"/>
    </g>
    <g clip-path="url(#pe1154356f6)">
     <use style="fill-opacity:0.7;stroke:#000000;stroke-opacity:0.7;" x="898.530127" xlink:href="#C0_0_e113656ec9" y="364.446896"/>
    </g>
    <g clip-path="url(#pe1154356f6)">
     <use style="fill-opacity:0.7;stroke:#000000;stroke-opacity:0.7;" x="674.380392" xlink:href="#C0_0_e113656ec9" y="330.516029"/>
    </g>
    <g clip-path="url(#pe1154356f6)">
     <use style="fill-opacity:0.7;stroke:#000000;stroke-opacity:0.7;" x="672.35039" xlink:href="#C0_0_e113656ec9" y="324.448661"/>
    </g>
    <g clip-path="url(#pe1154356f6)">
     <use style="fill-opacity:0.7;stroke:#000000;stroke-opacity:0.7;" x="672.35039" xlink:href="#C0_0_e113656ec9" y="324.448661"/>
    </g>
    <g clip-path="url(#pe1154356f6)">
     <use style="fill-opacity:0.7;stroke:#000000;stroke-opacity:0.7;" x="672.35039" xlink:href="#C0_0_e113656ec9" y="324.448661"/>
    </g>
    <g clip-path="url(#pe1154356f6)">
     <use style="fill-opacity:0.7;stroke:#000000;stroke-opacity:0.7;" x="672.35039" xlink:href="#C0_0_e113656ec9" y="324.448661"/>
    </g>
    <g clip-path="url(#pe1154356f6)">
     <use style="fill-opacity:0.7;stroke:#000000;stroke-opacity:0.7;" x="695.749446" xlink:href="#C0_0_e113656ec9" y="529.07725"/>
    </g>
    <g clip-path="url(#pe1154356f6)">
     <use style="fill-opacity:0.7;stroke:#000000;stroke-opacity:0.7;" x="674.380392" xlink:href="#C0_0_e113656ec9" y="330.516029"/>
    </g>
    <g clip-path="url(#pe1154356f6)">
     <use style="fill-opacity:0.7;stroke:#000000;stroke-opacity:0.7;" x="647.611015" xlink:href="#C0_0_e113656ec9" y="252.665959"/>
    </g>
    <g clip-path="url(#pe1154356f6)">
     <use style="fill-opacity:0.7;stroke:#000000;stroke-opacity:0.7;" x="647.611015" xlink:href="#C0_0_e113656ec9" y="252.665959"/>
    </g>
    <g clip-path="url(#pe1154356f6)">
     <use style="fill-opacity:0.7;stroke:#000000;stroke-opacity:0.7;" x="695.749446" xlink:href="#C0_0_e113656ec9" y="529.07725"/>
    </g>
    <g clip-path="url(#pe1154356f6)">
     <use style="fill-opacity:0.7;stroke:#000000;stroke-opacity:0.7;" x="674.380392" xlink:href="#C0_0_e113656ec9" y="330.516029"/>
    </g>
    <g clip-path="url(#pe1154356f6)">
     <use style="fill-opacity:0.7;stroke:#000000;stroke-opacity:0.7;" x="655.190534" xlink:href="#C0_0_e113656ec9" y="274.33821"/>
    </g>
    <g clip-path="url(#pe1154356f6)">
     <use style="fill-opacity:0.7;stroke:#000000;stroke-opacity:0.7;" x="636.52262" xlink:href="#C0_0_e113656ec9" y="221.261957"/>
    </g>
    <g clip-path="url(#pe1154356f6)">
     <use style="fill-opacity:0.7;stroke:#000000;stroke-opacity:0.7;" x="695.749446" xlink:href="#C0_0_e113656ec9" y="529.07725"/>
    </g>
    <g clip-path="url(#pe1154356f6)">
     <use style="fill-opacity:0.7;stroke:#000000;stroke-opacity:0.7;" x="674.380392" xlink:href="#C0_0_e113656ec9" y="330.516029"/>
    </g>
    <g clip-path="url(#pe1154356f6)">
     <use style="fill-opacity:0.7;stroke:#000000;stroke-opacity:0.7;" x="655.190534" xlink:href="#C0_0_e113656ec9" y="274.33821"/>
    </g>
    <g clip-path="url(#pe1154356f6)">
     <use style="fill-opacity:0.7;stroke:#000000;stroke-opacity:0.7;" x="636.52262" xlink:href="#C0_0_e113656ec9" y="221.261957"/>
    </g>
    <g clip-path="url(#pe1154356f6)">
     <use style="fill-opacity:0.7;stroke:#000000;stroke-opacity:0.7;" x="600.739057" xlink:href="#C0_0_e113656ec9" y="121.357915"/>
    </g>
    <g clip-path="url(#pe1154356f6)">
     <use style="fill-opacity:0.7;stroke:#000000;stroke-opacity:0.7;" x="756.428097" xlink:href="#C0_0_e113656ec9" y="479.516093"/>
    </g>
    <g clip-path="url(#pe1154356f6)">
     <use style="fill-opacity:0.7;stroke:#000000;stroke-opacity:0.7;" x="916.690913" xlink:href="#C0_0_e113656ec9" y="350.216988"/>
    </g>
    <g clip-path="url(#pe1154356f6)">
     <use style="fill-opacity:0.7;stroke:#000000;stroke-opacity:0.7;" x="667.181223" xlink:href="#C0_0_e113656ec9" y="316.050179"/>
    </g>
    <g clip-path="url(#pe1154356f6)">
     <use style="fill-opacity:0.7;stroke:#000000;stroke-opacity:0.7;" x="656.726298" xlink:href="#C0_0_e113656ec9" y="291.899645"/>
    </g>
    <g clip-path="url(#pe1154356f6)">
     <use style="fill-opacity:0.7;stroke:#000000;stroke-opacity:0.7;" x="651.342233" xlink:href="#C0_0_e113656ec9" y="238.503114"/>
    </g>
    <g clip-path="url(#pe1154356f6)">
     <use style="fill-opacity:0.7;stroke:#000000;stroke-opacity:0.7;" x="692.398577" xlink:href="#C0_0_e113656ec9" y="326.419488"/>
    </g>
    <g clip-path="url(#pe1154356f6)">
     <use style="fill-opacity:0.7;stroke:#000000;stroke-opacity:0.7;" x="683.626861" xlink:href="#C0_0_e113656ec9" y="203.708145"/>
    </g>
    <g clip-path="url(#pe1154356f6)">
     <use style="fill-opacity:0.7;stroke:#000000;stroke-opacity:0.7;" x="711.159917" xlink:href="#C0_0_e113656ec9" y="433.857566"/>
    </g>
    <g clip-path="url(#pe1154356f6)">
     <use style="fill-opacity:0.7;stroke:#000000;stroke-opacity:0.7;" x="685.938883" xlink:href="#C0_0_e113656ec9" y="366.051368"/>
    </g>
    <g clip-path="url(#pe1154356f6)">
     <use style="fill-opacity:0.7;stroke:#000000;stroke-opacity:0.7;" x="689.543146" xlink:href="#C0_0_e113656ec9" y="437.411059"/>
    </g>
    <g clip-path="url(#pe1154356f6)">
     <use style="fill-opacity:0.7;stroke:#000000;stroke-opacity:0.7;" x="682.779906" xlink:href="#C0_0_e113656ec9" y="356.127588"/>
    </g>
    <g clip-path="url(#pe1154356f6)">
     <use style="fill-opacity:0.7;stroke:#000000;stroke-opacity:0.7;" x="682.779906" xlink:href="#C0_0_e113656ec9" y="356.127588"/>
    </g>
    <g clip-path="url(#pe1154356f6)">
     <use style="fill-opacity:0.7;stroke:#000000;stroke-opacity:0.7;" x="680.059805" xlink:href="#C0_0_e113656ec9" y="347.724197"/>
    </g>
    <g clip-path="url(#pe1154356f6)">
     <use style="fill-opacity:0.7;stroke:#000000;stroke-opacity:0.7;" x="687.545132" xlink:href="#C0_0_e113656ec9" y="409.005801"/>
    </g>
    <g clip-path="url(#pe1154356f6)">
     <use style="fill-opacity:0.7;stroke:#000000;stroke-opacity:0.7;" x="669.273935" xlink:href="#C0_0_e113656ec9" y="315.330148"/>
    </g>
    <g clip-path="url(#pe1154356f6)">
     <use style="fill-opacity:0.7;stroke:#000000;stroke-opacity:0.7;" x="668.750694" xlink:href="#C0_0_e113656ec9" y="337.824057"/>
    </g>
   </g>
  </g>
 </g>
 <defs>
  <clipPath id="pe1154356f6">
   <rect height="524.4624" width="1033.974" x="166.77" y="81.7344"/>
  </clipPath>
 </defs>
</svg>
