<?xml version="1.0" encoding="utf-8" standalone="no"?>
<!DOCTYPE svg PUBLIC "-//W3C//DTD SVG 1.1//EN"
  "http://www.w3.org/Graphics/SVG/1.1/DTD/svg11.dtd">
<!-- Created with matplotlib (https://matplotlib.org/) -->
<svg height="345.6pt" version="1.1" viewBox="0 0 460.8 345.6" width="460.8pt" xmlns="http://www.w3.org/2000/svg" xmlns:xlink="http://www.w3.org/1999/xlink">
 <metadata>
  <rdf:RDF xmlns:cc="http://creativecommons.org/ns#" xmlns:dc="http://purl.org/dc/elements/1.1/" xmlns:rdf="http://www.w3.org/1999/02/22-rdf-syntax-ns#">
   <cc:Work>
    <dc:type rdf:resource="http://purl.org/dc/dcmitype/StillImage"/>
    <dc:date>2022-03-01T09:52:38.693317</dc:date>
    <dc:format>image/svg+xml</dc:format>
    <dc:creator>
     <cc:Agent>
      <dc:title>Matplotlib v3.3.4, https://matplotlib.org/</dc:title>
     </cc:Agent>
    </dc:creator>
   </cc:Work>
  </rdf:RDF>
 </metadata>
 <defs>
  <style type="text/css">*{stroke-linecap:butt;stroke-linejoin:round;}</style>
 </defs>
 <g id="figure_1">
  <g id="patch_1">
   <path d="M 0 345.6 
L 460.8 345.6 
L 460.8 0 
L 0 0 
z
" style="fill:#ffffff;"/>
  </g>
  <g id="patch_2">
   <path d="M 103.104 307.584 
L 369.216 307.584 
L 369.216 41.472 
L 103.104 41.472 
z
" style="fill:#ffffff;"/>
  </g>
  <g id="pane3d_1">
   <g id="patch_3">
    <path d="M 344.68052 217.573578 
L 192.602165 201.915336 
L 191.576241 85.790911 
L 347.05113 97.337683 
" style="fill:#f2f2f2;opacity:0.5;stroke:#f2f2f2;stroke-linejoin:miter;"/>
   </g>
  </g>
  <g id="pane3d_2">
   <g id="patch_4">
    <path d="M 127.452231 247.9617 
L 192.602165 201.915336 
L 191.576241 85.790911 
L 124.732117 119.800674 
" style="fill:#e6e6e6;opacity:0.5;stroke:#e6e6e6;stroke-linejoin:miter;"/>
   </g>
  </g>
  <g id="pane3d_3">
   <g id="patch_5">
    <path d="M 294.320328 267.354974 
L 344.68052 217.573578 
L 192.602165 201.915336 
L 127.452231 247.9617 
" style="fill:#ececec;opacity:0.5;stroke:#ececec;stroke-linejoin:miter;"/>
   </g>
  </g>
  <g id="axis3d_1">
   <g id="line2d_1">
    <path d="M 344.68052 217.573578 
L 294.320328 267.354974 
" style="fill:none;stroke:#000000;stroke-linecap:square;stroke-width:0.8;"/>
   </g>
   <g id="text_1">
    <!-- LCC -->
    <g transform="translate(347.819819 275.632845)scale(0.1 -0.1)">
     <defs>
      <path d="M 9.8125 72.90625 
L 19.671875 72.90625 
L 19.671875 8.296875 
L 55.171875 8.296875 
L 55.171875 0 
L 9.8125 0 
z
" id="DejaVuSans-76"/>
      <path d="M 64.40625 67.28125 
L 64.40625 56.890625 
Q 59.421875 61.53125 53.78125 63.8125 
Q 48.140625 66.109375 41.796875 66.109375 
Q 29.296875 66.109375 22.65625 58.46875 
Q 16.015625 50.828125 16.015625 36.375 
Q 16.015625 21.96875 22.65625 14.328125 
Q 29.296875 6.6875 41.796875 6.6875 
Q 48.140625 6.6875 53.78125 8.984375 
Q 59.421875 11.28125 64.40625 15.921875 
L 64.40625 5.609375 
Q 59.234375 2.09375 53.4375 0.328125 
Q 47.65625 -1.421875 41.21875 -1.421875 
Q 24.65625 -1.421875 15.125 8.703125 
Q 5.609375 18.84375 5.609375 36.375 
Q 5.609375 53.953125 15.125 64.078125 
Q 24.65625 74.21875 41.21875 74.21875 
Q 47.75 74.21875 53.53125 72.484375 
Q 59.328125 70.75 64.40625 67.28125 
z
" id="DejaVuSans-67"/>
     </defs>
     <use xlink:href="#DejaVuSans-76"/>
     <use x="55.712891" xlink:href="#DejaVuSans-67"/>
     <use x="125.537109" xlink:href="#DejaVuSans-67"/>
    </g>
   </g>
   <g id="Line3DCollection_1">
    <path d="M 295.440996 266.247187 
L 128.896121 246.941194 
L 126.217047 119.045153 
" style="fill:none;stroke:#b0b0b0;stroke-width:0.8;"/>
    <path d="M 305.942884 255.865998 
L 142.439953 237.368749 
L 140.138124 111.962219 
" style="fill:none;stroke:#b0b0b0;stroke-width:0.8;"/>
    <path d="M 316.000804 245.923675 
L 155.433278 228.185388 
L 153.480254 105.173848 
" style="fill:none;stroke:#b0b0b0;stroke-width:0.8;"/>
    <path d="M 325.642327 236.392963 
L 167.908991 219.367862 
L 166.278819 98.66204 
" style="fill:none;stroke:#b0b0b0;stroke-width:0.8;"/>
    <path d="M 334.892787 227.24882 
L 179.897419 210.894737 
L 178.566371 92.41023 
" style="fill:none;stroke:#b0b0b0;stroke-width:0.8;"/>
    <path d="M 343.775503 218.468194 
L 191.426563 202.746223 
L 190.372918 86.403152 
" style="fill:none;stroke:#b0b0b0;stroke-width:0.8;"/>
   </g>
   <g id="xtick_1">
    <g id="line2d_2">
     <path d="M 294.053357 266.086331 
L 298.219062 266.569222 
" style="fill:none;stroke:#000000;stroke-linecap:square;stroke-width:0.8;"/>
    </g>
    <g id="text_2">
     <!-- 0 -->
     <g transform="translate(306.563455 286.287924)scale(0.1 -0.1)">
      <defs>
       <path d="M 31.78125 66.40625 
Q 24.171875 66.40625 20.328125 58.90625 
Q 16.5 51.421875 16.5 36.375 
Q 16.5 21.390625 20.328125 13.890625 
Q 24.171875 6.390625 31.78125 6.390625 
Q 39.453125 6.390625 43.28125 13.890625 
Q 47.125 21.390625 47.125 36.375 
Q 47.125 51.421875 43.28125 58.90625 
Q 39.453125 66.40625 31.78125 66.40625 
z
M 31.78125 74.21875 
Q 44.046875 74.21875 50.515625 64.515625 
Q 56.984375 54.828125 56.984375 36.375 
Q 56.984375 17.96875 50.515625 8.265625 
Q 44.046875 -1.421875 31.78125 -1.421875 
Q 19.53125 -1.421875 13.0625 8.265625 
Q 6.59375 17.96875 6.59375 36.375 
Q 6.59375 54.828125 13.0625 64.515625 
Q 19.53125 74.21875 31.78125 74.21875 
z
" id="DejaVuSans-48"/>
      </defs>
      <use xlink:href="#DejaVuSans-48"/>
     </g>
    </g>
   </g>
   <g id="xtick_2">
    <g id="line2d_3">
     <path d="M 304.581762 255.712013 
L 308.667804 256.174271 
" style="fill:none;stroke:#000000;stroke-linecap:square;stroke-width:0.8;"/>
    </g>
    <g id="text_3">
     <!-- 2 -->
     <g transform="translate(316.770768 275.623117)scale(0.1 -0.1)">
      <defs>
       <path d="M 19.1875 8.296875 
L 53.609375 8.296875 
L 53.609375 0 
L 7.328125 0 
L 7.328125 8.296875 
Q 12.9375 14.109375 22.625 23.890625 
Q 32.328125 33.6875 34.8125 36.53125 
Q 39.546875 41.84375 41.421875 45.53125 
Q 43.3125 49.21875 43.3125 52.78125 
Q 43.3125 58.59375 39.234375 62.25 
Q 35.15625 65.921875 28.609375 65.921875 
Q 23.96875 65.921875 18.8125 64.3125 
Q 13.671875 62.703125 7.8125 59.421875 
L 7.8125 69.390625 
Q 13.765625 71.78125 18.9375 73 
Q 24.125 74.21875 28.421875 74.21875 
Q 39.75 74.21875 46.484375 68.546875 
Q 53.21875 62.890625 53.21875 53.421875 
Q 53.21875 48.921875 51.53125 44.890625 
Q 49.859375 40.875 45.40625 35.40625 
Q 44.1875 33.984375 37.640625 27.21875 
Q 31.109375 20.453125 19.1875 8.296875 
z
" id="DejaVuSans-50"/>
      </defs>
      <use xlink:href="#DejaVuSans-50"/>
     </g>
    </g>
   </g>
   <g id="xtick_3">
    <g id="line2d_4">
     <path d="M 314.665221 245.776129 
L 318.674542 246.219049 
" style="fill:none;stroke:#000000;stroke-linecap:square;stroke-width:0.8;"/>
    </g>
    <g id="text_4">
     <!-- 4 -->
     <g transform="translate(326.545973 265.409785)scale(0.1 -0.1)">
      <defs>
       <path d="M 37.796875 64.3125 
L 12.890625 25.390625 
L 37.796875 25.390625 
z
M 35.203125 72.90625 
L 47.609375 72.90625 
L 47.609375 25.390625 
L 58.015625 25.390625 
L 58.015625 17.1875 
L 47.609375 17.1875 
L 47.609375 0 
L 37.796875 0 
L 37.796875 17.1875 
L 4.890625 17.1875 
L 4.890625 26.703125 
z
" id="DejaVuSans-52"/>
      </defs>
      <use xlink:href="#DejaVuSans-52"/>
     </g>
    </g>
   </g>
   <g id="xtick_4">
    <g id="line2d_5">
     <path d="M 324.331356 236.251462 
L 328.266741 236.676231 
" style="fill:none;stroke:#000000;stroke-linecap:square;stroke-width:0.8;"/>
    </g>
    <g id="text_5">
     <!-- 6 -->
     <g transform="translate(335.915942 255.619852)scale(0.1 -0.1)">
      <defs>
       <path d="M 33.015625 40.375 
Q 26.375 40.375 22.484375 35.828125 
Q 18.609375 31.296875 18.609375 23.390625 
Q 18.609375 15.53125 22.484375 10.953125 
Q 26.375 6.390625 33.015625 6.390625 
Q 39.65625 6.390625 43.53125 10.953125 
Q 47.40625 15.53125 47.40625 23.390625 
Q 47.40625 31.296875 43.53125 35.828125 
Q 39.65625 40.375 33.015625 40.375 
z
M 52.59375 71.296875 
L 52.59375 62.3125 
Q 48.875 64.0625 45.09375 64.984375 
Q 41.3125 65.921875 37.59375 65.921875 
Q 27.828125 65.921875 22.671875 59.328125 
Q 17.53125 52.734375 16.796875 39.40625 
Q 19.671875 43.65625 24.015625 45.921875 
Q 28.375 48.1875 33.59375 48.1875 
Q 44.578125 48.1875 50.953125 41.515625 
Q 57.328125 34.859375 57.328125 23.390625 
Q 57.328125 12.15625 50.6875 5.359375 
Q 44.046875 -1.421875 33.015625 -1.421875 
Q 20.359375 -1.421875 13.671875 8.265625 
Q 6.984375 17.96875 6.984375 36.375 
Q 6.984375 53.65625 15.1875 63.9375 
Q 23.390625 74.21875 37.203125 74.21875 
Q 40.921875 74.21875 44.703125 73.484375 
Q 48.484375 72.75 52.59375 71.296875 
z
" id="DejaVuSans-54"/>
      </defs>
      <use xlink:href="#DejaVuSans-54"/>
     </g>
    </g>
   </g>
   <g id="xtick_5">
    <g id="line2d_6">
     <path d="M 333.60555 227.112999 
L 337.469638 227.520712 
" style="fill:none;stroke:#000000;stroke-linecap:square;stroke-width:0.8;"/>
    </g>
    <g id="text_6">
     <!-- 8 -->
     <g transform="translate(344.905361 246.227526)scale(0.1 -0.1)">
      <defs>
       <path d="M 31.78125 34.625 
Q 24.75 34.625 20.71875 30.859375 
Q 16.703125 27.09375 16.703125 20.515625 
Q 16.703125 13.921875 20.71875 10.15625 
Q 24.75 6.390625 31.78125 6.390625 
Q 38.8125 6.390625 42.859375 10.171875 
Q 46.921875 13.96875 46.921875 20.515625 
Q 46.921875 27.09375 42.890625 30.859375 
Q 38.875 34.625 31.78125 34.625 
z
M 21.921875 38.8125 
Q 15.578125 40.375 12.03125 44.71875 
Q 8.5 49.078125 8.5 55.328125 
Q 8.5 64.0625 14.71875 69.140625 
Q 20.953125 74.21875 31.78125 74.21875 
Q 42.671875 74.21875 48.875 69.140625 
Q 55.078125 64.0625 55.078125 55.328125 
Q 55.078125 49.078125 51.53125 44.71875 
Q 48 40.375 41.703125 38.8125 
Q 48.828125 37.15625 52.796875 32.3125 
Q 56.78125 27.484375 56.78125 20.515625 
Q 56.78125 9.90625 50.3125 4.234375 
Q 43.84375 -1.421875 31.78125 -1.421875 
Q 19.734375 -1.421875 13.25 4.234375 
Q 6.78125 9.90625 6.78125 20.515625 
Q 6.78125 27.484375 10.78125 32.3125 
Q 14.796875 37.15625 21.921875 38.8125 
z
M 18.3125 54.390625 
Q 18.3125 48.734375 21.84375 45.5625 
Q 25.390625 42.390625 31.78125 42.390625 
Q 38.140625 42.390625 41.71875 45.5625 
Q 45.3125 48.734375 45.3125 54.390625 
Q 45.3125 60.0625 41.71875 63.234375 
Q 38.140625 66.40625 31.78125 66.40625 
Q 25.390625 66.40625 21.84375 63.234375 
Q 18.3125 60.0625 18.3125 54.390625 
z
" id="DejaVuSans-56"/>
      </defs>
      <use xlink:href="#DejaVuSans-56"/>
     </g>
    </g>
   </g>
   <g id="xtick_6">
    <g id="line2d_7">
     <path d="M 342.511168 218.337718 
L 346.306461 218.729382 
" style="fill:none;stroke:#000000;stroke-linecap:square;stroke-width:0.8;"/>
    </g>
    <g id="text_7">
     <!-- 10 -->
     <g transform="translate(350.355702 237.209065)scale(0.1 -0.1)">
      <defs>
       <path d="M 12.40625 8.296875 
L 28.515625 8.296875 
L 28.515625 63.921875 
L 10.984375 60.40625 
L 10.984375 69.390625 
L 28.421875 72.90625 
L 38.28125 72.90625 
L 38.28125 8.296875 
L 54.390625 8.296875 
L 54.390625 0 
L 12.40625 0 
z
" id="DejaVuSans-49"/>
      </defs>
      <use xlink:href="#DejaVuSans-49"/>
      <use x="63.623047" xlink:href="#DejaVuSans-48"/>
     </g>
    </g>
   </g>
  </g>
  <g id="axis3d_2">
   <g id="line2d_8">
    <path d="M 127.452231 247.9617 
L 294.320328 267.354974 
" style="fill:none;stroke:#000000;stroke-linecap:square;stroke-width:0.8;"/>
   </g>
   <g id="text_8">
    <!-- GWP -->
    <g transform="translate(182.763047 301.460137)scale(0.1 -0.1)">
     <defs>
      <path d="M 59.515625 10.40625 
L 59.515625 29.984375 
L 43.40625 29.984375 
L 43.40625 38.09375 
L 69.28125 38.09375 
L 69.28125 6.78125 
Q 63.578125 2.734375 56.6875 0.65625 
Q 49.8125 -1.421875 42 -1.421875 
Q 24.90625 -1.421875 15.25 8.5625 
Q 5.609375 18.5625 5.609375 36.375 
Q 5.609375 54.25 15.25 64.234375 
Q 24.90625 74.21875 42 74.21875 
Q 49.125 74.21875 55.546875 72.453125 
Q 61.96875 70.703125 67.390625 67.28125 
L 67.390625 56.78125 
Q 61.921875 61.421875 55.765625 63.765625 
Q 49.609375 66.109375 42.828125 66.109375 
Q 29.4375 66.109375 22.71875 58.640625 
Q 16.015625 51.171875 16.015625 36.375 
Q 16.015625 21.625 22.71875 14.15625 
Q 29.4375 6.6875 42.828125 6.6875 
Q 48.046875 6.6875 52.140625 7.59375 
Q 56.25 8.5 59.515625 10.40625 
z
" id="DejaVuSans-71"/>
      <path d="M 3.328125 72.90625 
L 13.28125 72.90625 
L 28.609375 11.28125 
L 43.890625 72.90625 
L 54.984375 72.90625 
L 70.3125 11.28125 
L 85.59375 72.90625 
L 95.609375 72.90625 
L 77.296875 0 
L 64.890625 0 
L 49.515625 63.28125 
L 33.984375 0 
L 21.578125 0 
z
" id="DejaVuSans-87"/>
      <path d="M 19.671875 64.796875 
L 19.671875 37.40625 
L 32.078125 37.40625 
Q 38.96875 37.40625 42.71875 40.96875 
Q 46.484375 44.53125 46.484375 51.125 
Q 46.484375 57.671875 42.71875 61.234375 
Q 38.96875 64.796875 32.078125 64.796875 
z
M 9.8125 72.90625 
L 32.078125 72.90625 
Q 44.34375 72.90625 50.609375 67.359375 
Q 56.890625 61.8125 56.890625 51.125 
Q 56.890625 40.328125 50.609375 34.8125 
Q 44.34375 29.296875 32.078125 29.296875 
L 19.671875 29.296875 
L 19.671875 0 
L 9.8125 0 
z
" id="DejaVuSans-80"/>
     </defs>
     <use xlink:href="#DejaVuSans-71"/>
     <use x="77.490234" xlink:href="#DejaVuSans-87"/>
     <use x="176.367188" xlink:href="#DejaVuSans-80"/>
    </g>
   </g>
   <g id="Line3DCollection_2">
    <path d="M 343.824547 97.098052 
L 341.526953 217.248882 
L 290.845928 266.951182 
" style="fill:none;stroke:#b0b0b0;stroke-width:0.8;"/>
    <path d="M 324.568706 95.667964 
L 322.704642 215.310905 
L 270.121198 264.542571 
" style="fill:none;stroke:#b0b0b0;stroke-width:0.8;"/>
    <path d="M 305.488809 94.250943 
L 304.050551 213.390249 
L 249.602801 262.157939 
" style="fill:none;stroke:#b0b0b0;stroke-width:0.8;"/>
    <path d="M 286.582456 92.84681 
L 285.562435 211.486681 
L 229.28767 259.796931 
" style="fill:none;stroke:#b0b0b0;stroke-width:0.8;"/>
    <path d="M 267.84729 91.455391 
L 267.238088 209.599976 
L 209.172801 257.459198 
" style="fill:none;stroke:#b0b0b0;stroke-width:0.8;"/>
    <path d="M 249.280995 90.076514 
L 249.075344 207.729909 
L 189.255246 255.144396 
" style="fill:none;stroke:#b0b0b0;stroke-width:0.8;"/>
    <path d="M 230.8813 88.71001 
L 231.072075 205.876263 
L 169.532116 252.85219 
" style="fill:none;stroke:#b0b0b0;stroke-width:0.8;"/>
    <path d="M 212.645972 87.355713 
L 213.226189 204.038821 
L 150.000578 250.58225 
" style="fill:none;stroke:#b0b0b0;stroke-width:0.8;"/>
    <path d="M 194.572818 86.01346 
L 195.535632 202.217371 
L 130.657854 248.334254 
" style="fill:none;stroke:#b0b0b0;stroke-width:0.8;"/>
   </g>
   <g id="xtick_7">
    <g id="line2d_9">
     <path d="M 291.297635 266.508198 
L 289.940013 267.839602 
" style="fill:none;stroke:#000000;stroke-linecap:square;stroke-width:0.8;"/>
    </g>
    <g id="text_9">
     <!-- 0 -->
     <g transform="translate(282.834821 290.034476)scale(0.1 -0.1)">
      <use xlink:href="#DejaVuSans-48"/>
     </g>
    </g>
   </g>
   <g id="xtick_8">
    <g id="line2d_10">
     <path d="M 270.589621 264.104006 
L 269.181772 265.422116 
" style="fill:none;stroke:#000000;stroke-linecap:square;stroke-width:0.8;"/>
    </g>
    <g id="text_10">
     <!-- 2 -->
     <g transform="translate(261.978427 287.529683)scale(0.1 -0.1)">
      <use xlink:href="#DejaVuSans-50"/>
     </g>
    </g>
   </g>
   <g id="xtick_9">
    <g id="line2d_11">
     <path d="M 250.087586 261.723728 
L 248.630575 263.028742 
" style="fill:none;stroke:#000000;stroke-linecap:square;stroke-width:0.8;"/>
    </g>
    <g id="text_11">
     <!-- 4 -->
     <g transform="translate(241.331231 285.050013)scale(0.1 -0.1)">
      <use xlink:href="#DejaVuSans-52"/>
     </g>
    </g>
   </g>
   <g id="xtick_10">
    <g id="line2d_12">
     <path d="M 229.78847 259.367009 
L 228.283339 260.659121 
" style="fill:none;stroke:#000000;stroke-linecap:square;stroke-width:0.8;"/>
    </g>
    <g id="text_12">
     <!-- 6 -->
     <g transform="translate(220.890103 282.595091)scale(0.1 -0.1)">
      <use xlink:href="#DejaVuSans-54"/>
     </g>
    </g>
   </g>
   <g id="xtick_11">
    <g id="line2d_13">
     <path d="M 209.689278 257.033501 
L 208.137044 258.312901 
" style="fill:none;stroke:#000000;stroke-linecap:square;stroke-width:0.8;"/>
    </g>
    <g id="text_13">
     <!-- 8 -->
     <g transform="translate(200.651972 280.164549)scale(0.1 -0.1)">
      <use xlink:href="#DejaVuSans-56"/>
     </g>
    </g>
   </g>
   <g id="xtick_12">
    <g id="line2d_14">
     <path d="M 189.787069 254.722863 
L 188.188727 255.989738 
" style="fill:none;stroke:#000000;stroke-linecap:square;stroke-width:0.8;"/>
    </g>
    <g id="text_14">
     <!-- 10 -->
     <g transform="translate(177.432579 277.758025)scale(0.1 -0.1)">
      <use xlink:href="#DejaVuSans-49"/>
      <use x="63.623047" xlink:href="#DejaVuSans-48"/>
     </g>
    </g>
   </g>
   <g id="xtick_13">
    <g id="line2d_15">
     <path d="M 170.078962 252.43476 
L 168.435484 253.689292 
" style="fill:none;stroke:#000000;stroke-linecap:square;stroke-width:0.8;"/>
    </g>
    <g id="text_15">
     <!-- 12 -->
     <g transform="translate(157.591475 275.375164)scale(0.1 -0.1)">
      <use xlink:href="#DejaVuSans-49"/>
      <use x="63.623047" xlink:href="#DejaVuSans-50"/>
     </g>
    </g>
   </g>
   <g id="xtick_14">
    <g id="line2d_16">
     <path d="M 150.562131 250.168863 
L 148.874468 251.411234 
" style="fill:none;stroke:#000000;stroke-linecap:square;stroke-width:0.8;"/>
    </g>
    <g id="text_16">
     <!-- 14 -->
     <g transform="translate(137.944517 273.01562)scale(0.1 -0.1)">
      <use xlink:href="#DejaVuSans-49"/>
      <use x="63.623047" xlink:href="#DejaVuSans-52"/>
     </g>
    </g>
   </g>
   <g id="xtick_15">
    <g id="line2d_17">
     <path d="M 131.233805 247.924853 
L 129.502886 249.155237 
" style="fill:none;stroke:#000000;stroke-linecap:square;stroke-width:0.8;"/>
    </g>
    <g id="text_17">
     <!-- 16 -->
     <g transform="translate(118.48887 270.679052)scale(0.1 -0.1)">
      <use xlink:href="#DejaVuSans-49"/>
      <use x="63.623047" xlink:href="#DejaVuSans-54"/>
     </g>
    </g>
   </g>
  </g>
  <g id="axis3d_3">
   <g id="line2d_18">
    <path d="M 127.452231 247.9617 
L 124.732117 119.800674 
" style="fill:none;stroke:#000000;stroke-linecap:square;stroke-width:0.8;"/>
   </g>
   <g id="text_18">
    <!-- Circularity -->
    <g transform="translate(69.308512 165.6104)rotate(-271.215874)scale(0.1 -0.1)">
     <defs>
      <path d="M 9.421875 54.6875 
L 18.40625 54.6875 
L 18.40625 0 
L 9.421875 0 
z
M 9.421875 75.984375 
L 18.40625 75.984375 
L 18.40625 64.59375 
L 9.421875 64.59375 
z
" id="DejaVuSans-105"/>
      <path d="M 41.109375 46.296875 
Q 39.59375 47.171875 37.8125 47.578125 
Q 36.03125 48 33.890625 48 
Q 26.265625 48 22.1875 43.046875 
Q 18.109375 38.09375 18.109375 28.8125 
L 18.109375 0 
L 9.078125 0 
L 9.078125 54.6875 
L 18.109375 54.6875 
L 18.109375 46.1875 
Q 20.953125 51.171875 25.484375 53.578125 
Q 30.03125 56 36.53125 56 
Q 37.453125 56 38.578125 55.875 
Q 39.703125 55.765625 41.0625 55.515625 
z
" id="DejaVuSans-114"/>
      <path d="M 48.78125 52.59375 
L 48.78125 44.1875 
Q 44.96875 46.296875 41.140625 47.34375 
Q 37.3125 48.390625 33.40625 48.390625 
Q 24.65625 48.390625 19.8125 42.84375 
Q 14.984375 37.3125 14.984375 27.296875 
Q 14.984375 17.28125 19.8125 11.734375 
Q 24.65625 6.203125 33.40625 6.203125 
Q 37.3125 6.203125 41.140625 7.25 
Q 44.96875 8.296875 48.78125 10.40625 
L 48.78125 2.09375 
Q 45.015625 0.34375 40.984375 -0.53125 
Q 36.96875 -1.421875 32.421875 -1.421875 
Q 20.0625 -1.421875 12.78125 6.34375 
Q 5.515625 14.109375 5.515625 27.296875 
Q 5.515625 40.671875 12.859375 48.328125 
Q 20.21875 56 33.015625 56 
Q 37.15625 56 41.109375 55.140625 
Q 45.0625 54.296875 48.78125 52.59375 
z
" id="DejaVuSans-99"/>
      <path d="M 8.5 21.578125 
L 8.5 54.6875 
L 17.484375 54.6875 
L 17.484375 21.921875 
Q 17.484375 14.15625 20.5 10.265625 
Q 23.53125 6.390625 29.59375 6.390625 
Q 36.859375 6.390625 41.078125 11.03125 
Q 45.3125 15.671875 45.3125 23.6875 
L 45.3125 54.6875 
L 54.296875 54.6875 
L 54.296875 0 
L 45.3125 0 
L 45.3125 8.40625 
Q 42.046875 3.421875 37.71875 1 
Q 33.40625 -1.421875 27.6875 -1.421875 
Q 18.265625 -1.421875 13.375 4.4375 
Q 8.5 10.296875 8.5 21.578125 
z
M 31.109375 56 
z
" id="DejaVuSans-117"/>
      <path d="M 9.421875 75.984375 
L 18.40625 75.984375 
L 18.40625 0 
L 9.421875 0 
z
" id="DejaVuSans-108"/>
      <path d="M 34.28125 27.484375 
Q 23.390625 27.484375 19.1875 25 
Q 14.984375 22.515625 14.984375 16.5 
Q 14.984375 11.71875 18.140625 8.90625 
Q 21.296875 6.109375 26.703125 6.109375 
Q 34.1875 6.109375 38.703125 11.40625 
Q 43.21875 16.703125 43.21875 25.484375 
L 43.21875 27.484375 
z
M 52.203125 31.203125 
L 52.203125 0 
L 43.21875 0 
L 43.21875 8.296875 
Q 40.140625 3.328125 35.546875 0.953125 
Q 30.953125 -1.421875 24.3125 -1.421875 
Q 15.921875 -1.421875 10.953125 3.296875 
Q 6 8.015625 6 15.921875 
Q 6 25.140625 12.171875 29.828125 
Q 18.359375 34.515625 30.609375 34.515625 
L 43.21875 34.515625 
L 43.21875 35.40625 
Q 43.21875 41.609375 39.140625 45 
Q 35.0625 48.390625 27.6875 48.390625 
Q 23 48.390625 18.546875 47.265625 
Q 14.109375 46.140625 10.015625 43.890625 
L 10.015625 52.203125 
Q 14.9375 54.109375 19.578125 55.046875 
Q 24.21875 56 28.609375 56 
Q 40.484375 56 46.34375 49.84375 
Q 52.203125 43.703125 52.203125 31.203125 
z
" id="DejaVuSans-97"/>
      <path d="M 18.3125 70.21875 
L 18.3125 54.6875 
L 36.8125 54.6875 
L 36.8125 47.703125 
L 18.3125 47.703125 
L 18.3125 18.015625 
Q 18.3125 11.328125 20.140625 9.421875 
Q 21.96875 7.515625 27.59375 7.515625 
L 36.8125 7.515625 
L 36.8125 0 
L 27.59375 0 
Q 17.1875 0 13.234375 3.875 
Q 9.28125 7.765625 9.28125 18.015625 
L 9.28125 47.703125 
L 2.6875 47.703125 
L 2.6875 54.6875 
L 9.28125 54.6875 
L 9.28125 70.21875 
z
" id="DejaVuSans-116"/>
      <path d="M 32.171875 -5.078125 
Q 28.375 -14.84375 24.75 -17.8125 
Q 21.140625 -20.796875 15.09375 -20.796875 
L 7.90625 -20.796875 
L 7.90625 -13.28125 
L 13.1875 -13.28125 
Q 16.890625 -13.28125 18.9375 -11.515625 
Q 21 -9.765625 23.484375 -3.21875 
L 25.09375 0.875 
L 2.984375 54.6875 
L 12.5 54.6875 
L 29.59375 11.921875 
L 46.6875 54.6875 
L 56.203125 54.6875 
z
" id="DejaVuSans-121"/>
     </defs>
     <use xlink:href="#DejaVuSans-67"/>
     <use x="69.824219" xlink:href="#DejaVuSans-105"/>
     <use x="97.607422" xlink:href="#DejaVuSans-114"/>
     <use x="136.470703" xlink:href="#DejaVuSans-99"/>
     <use x="191.451172" xlink:href="#DejaVuSans-117"/>
     <use x="254.830078" xlink:href="#DejaVuSans-108"/>
     <use x="282.613281" xlink:href="#DejaVuSans-97"/>
     <use x="343.892578" xlink:href="#DejaVuSans-114"/>
     <use x="385.005859" xlink:href="#DejaVuSans-105"/>
     <use x="412.789062" xlink:href="#DejaVuSans-116"/>
     <use x="451.998047" xlink:href="#DejaVuSans-121"/>
    </g>
   </g>
   <g id="Line3DCollection_3">
    <path d="M 127.39909 245.457911 
L 192.582075 199.641334 
L 344.726905 215.220951 
" style="fill:none;stroke:#b0b0b0;stroke-width:0.8;"/>
    <path d="M 126.829109 218.602642 
L 192.36671 175.264186 
L 345.224244 189.996223 
" style="fill:none;stroke:#b0b0b0;stroke-width:0.8;"/>
    <path d="M 126.253315 191.473513 
L 192.14937 150.663439 
L 345.726318 164.531332 
" style="fill:none;stroke:#b0b0b0;stroke-width:0.8;"/>
    <path d="M 125.671619 164.066314 
L 191.930027 125.836001 
L 346.233195 138.822835 
" style="fill:none;stroke:#b0b0b0;stroke-width:0.8;"/>
    <path d="M 125.08393 136.376746 
L 191.708654 100.778725 
L 346.744945 112.867217 
" style="fill:none;stroke:#b0b0b0;stroke-width:0.8;"/>
   </g>
   <g id="xtick_16">
    <g id="line2d_19">
     <path d="M 127.977732 245.051188 
L 126.238729 246.273519 
" style="fill:none;stroke:#000000;stroke-linecap:square;stroke-width:0.8;"/>
    </g>
    <g id="text_19">
     <!-- 0.0 -->
     <g transform="translate(100.033099 255.75749)scale(0.1 -0.1)">
      <defs>
       <path d="M 10.6875 12.40625 
L 21 12.40625 
L 21 0 
L 10.6875 0 
z
" id="DejaVuSans-46"/>
      </defs>
      <use xlink:href="#DejaVuSans-48"/>
      <use x="63.623047" xlink:href="#DejaVuSans-46"/>
      <use x="95.410156" xlink:href="#DejaVuSans-48"/>
     </g>
    </g>
   </g>
   <g id="xtick_17">
    <g id="line2d_20">
     <path d="M 127.41119 218.217726 
L 125.661834 219.374533 
" style="fill:none;stroke:#000000;stroke-linecap:square;stroke-width:0.8;"/>
    </g>
    <g id="text_20">
     <!-- 0.2 -->
     <g transform="translate(99.360684 228.75749)scale(0.1 -0.1)">
      <use xlink:href="#DejaVuSans-48"/>
      <use x="63.623047" xlink:href="#DejaVuSans-46"/>
      <use x="95.410156" xlink:href="#DejaVuSans-50"/>
     </g>
    </g>
   </g>
   <g id="xtick_18">
    <g id="line2d_21">
     <path d="M 126.838876 191.11087 
L 125.079047 192.200749 
" style="fill:none;stroke:#000000;stroke-linecap:square;stroke-width:0.8;"/>
    </g>
    <g id="text_21">
     <!-- 0.4 -->
     <g transform="translate(98.68137 201.48052)scale(0.1 -0.1)">
      <use xlink:href="#DejaVuSans-48"/>
      <use x="63.623047" xlink:href="#DejaVuSans-46"/>
      <use x="95.410156" xlink:href="#DejaVuSans-52"/>
     </g>
    </g>
   </g>
   <g id="xtick_19">
    <g id="line2d_22">
     <path d="M 126.260701 163.726421 
L 124.490275 164.747935 
" style="fill:none;stroke:#000000;stroke-linecap:square;stroke-width:0.8;"/>
    </g>
    <g id="text_22">
     <!-- 0.6 -->
     <g transform="translate(97.995053 173.922296)scale(0.1 -0.1)">
      <use xlink:href="#DejaVuSans-48"/>
      <use x="63.623047" xlink:href="#DejaVuSans-46"/>
      <use x="95.410156" xlink:href="#DejaVuSans-54"/>
     </g>
    </g>
   </g>
   <g id="xtick_20">
    <g id="line2d_23">
     <path d="M 125.676574 136.060093 
L 123.895426 137.011772 
" style="fill:none;stroke:#000000;stroke-linecap:square;stroke-width:0.8;"/>
    </g>
    <g id="text_23">
     <!-- 0.8 -->
     <g transform="translate(97.301621 146.078447)scale(0.1 -0.1)">
      <use xlink:href="#DejaVuSans-48"/>
      <use x="63.623047" xlink:href="#DejaVuSans-46"/>
      <use x="95.410156" xlink:href="#DejaVuSans-56"/>
     </g>
    </g>
   </g>
  </g>
  <g id="axes_1">
   <g id="line2d_24">
    <path clip-path="url(#pf678811e6e)" d="M 268.159185 190.490198 
L 267.977224 197.80344 
" style="fill:none;stroke:#1f77b4;stroke-dasharray:5.55,2.4;stroke-dashoffset:0;stroke-opacity:0.7;stroke-width:1.5;"/>
   </g>
   <g id="line2d_25">
    <path clip-path="url(#pf678811e6e)" d="M 268.159185 190.490198 
L 267.977224 197.80344 
" style="fill:none;stroke:#ff7f0e;stroke-dasharray:5.55,2.4;stroke-dashoffset:0;stroke-opacity:0.7;stroke-width:1.5;"/>
   </g>
   <g id="Poly3DCollection_1">
    <path clip-path="url(#pf678811e6e)" d="M 269.843287 199.868347 
L 265.876238 255.678985 
L 265.891882 255.694984 
z
" style="fill:#0000e6;fill-opacity:0.5;"/>
    <path clip-path="url(#pf678811e6e)" d="M 265.891882 255.694984 
L 267.764224 237.643748 
L 269.843287 199.868347 
z
" style="fill:#0000ba;fill-opacity:0.5;"/>
    <path clip-path="url(#pf678811e6e)" d="M 262.285934 195.670545 
L 265.876238 255.678985 
L 262.757802 195.931053 
z
" style="fill:#0000ea;fill-opacity:0.5;"/>
    <path clip-path="url(#pf678811e6e)" d="M 265.876238 255.678985 
L 263.544715 196.369619 
L 262.757802 195.931053 
z
" style="fill:#0000ea;fill-opacity:0.5;"/>
    <path clip-path="url(#pf678811e6e)" d="M 263.544715 196.369619 
L 265.876238 255.678985 
L 265.118382 197.247427 
z
" style="fill:#0000ea;fill-opacity:0.5;"/>
    <path clip-path="url(#pf678811e6e)" d="M 265.118382 197.247427 
L 265.876238 255.678985 
L 269.843287 199.868347 
z
" style="fill:#0000ea;fill-opacity:0.5;"/>
    <path clip-path="url(#pf678811e6e)" d="M 269.846284 199.882527 
L 269.843287 199.868347 
L 267.764224 237.643748 
z
" style="fill:#0000ef;fill-opacity:0.5;"/>
    <path clip-path="url(#pf678811e6e)" d="M 262.757802 195.931053 
L 263.544715 196.369619 
L 262.285934 195.670545 
z
" style="fill:#0000a7;fill-opacity:0.5;"/>
    <path clip-path="url(#pf678811e6e)" d="M 263.544715 196.369619 
L 265.118382 197.247427 
L 269.843768 199.881765 
z
" style="fill:#0000c6;fill-opacity:0.5;"/>
    <path clip-path="url(#pf678811e6e)" d="M 269.843768 199.881765 
L 265.118382 197.247427 
L 269.843287 199.868347 
z
" style="fill:#000091;fill-opacity:0.5;"/>
    <path clip-path="url(#pf678811e6e)" d="M 269.843768 199.881765 
L 269.843287 199.868347 
L 269.846284 199.882527 
z
" style="fill:#00009f;fill-opacity:0.5;"/>
   </g>
   <g id="text_24">
    <!-- Utopia point shift (UU*)=0.111 -->
    <g transform="translate(143.946563 35.472)scale(0.12 -0.12)">
     <defs>
      <path d="M 8.6875 72.90625 
L 18.609375 72.90625 
L 18.609375 28.609375 
Q 18.609375 16.890625 22.84375 11.734375 
Q 27.09375 6.59375 36.625 6.59375 
Q 46.09375 6.59375 50.34375 11.734375 
Q 54.59375 16.890625 54.59375 28.609375 
L 54.59375 72.90625 
L 64.5 72.90625 
L 64.5 27.390625 
Q 64.5 13.140625 57.4375 5.859375 
Q 50.390625 -1.421875 36.625 -1.421875 
Q 22.796875 -1.421875 15.734375 5.859375 
Q 8.6875 13.140625 8.6875 27.390625 
z
" id="DejaVuSans-85"/>
      <path d="M 30.609375 48.390625 
Q 23.390625 48.390625 19.1875 42.75 
Q 14.984375 37.109375 14.984375 27.296875 
Q 14.984375 17.484375 19.15625 11.84375 
Q 23.34375 6.203125 30.609375 6.203125 
Q 37.796875 6.203125 41.984375 11.859375 
Q 46.1875 17.53125 46.1875 27.296875 
Q 46.1875 37.015625 41.984375 42.703125 
Q 37.796875 48.390625 30.609375 48.390625 
z
M 30.609375 56 
Q 42.328125 56 49.015625 48.375 
Q 55.71875 40.765625 55.71875 27.296875 
Q 55.71875 13.875 49.015625 6.21875 
Q 42.328125 -1.421875 30.609375 -1.421875 
Q 18.84375 -1.421875 12.171875 6.21875 
Q 5.515625 13.875 5.515625 27.296875 
Q 5.515625 40.765625 12.171875 48.375 
Q 18.84375 56 30.609375 56 
z
" id="DejaVuSans-111"/>
      <path d="M 18.109375 8.203125 
L 18.109375 -20.796875 
L 9.078125 -20.796875 
L 9.078125 54.6875 
L 18.109375 54.6875 
L 18.109375 46.390625 
Q 20.953125 51.265625 25.265625 53.625 
Q 29.59375 56 35.59375 56 
Q 45.5625 56 51.78125 48.09375 
Q 58.015625 40.1875 58.015625 27.296875 
Q 58.015625 14.40625 51.78125 6.484375 
Q 45.5625 -1.421875 35.59375 -1.421875 
Q 29.59375 -1.421875 25.265625 0.953125 
Q 20.953125 3.328125 18.109375 8.203125 
z
M 48.6875 27.296875 
Q 48.6875 37.203125 44.609375 42.84375 
Q 40.53125 48.484375 33.40625 48.484375 
Q 26.265625 48.484375 22.1875 42.84375 
Q 18.109375 37.203125 18.109375 27.296875 
Q 18.109375 17.390625 22.1875 11.75 
Q 26.265625 6.109375 33.40625 6.109375 
Q 40.53125 6.109375 44.609375 11.75 
Q 48.6875 17.390625 48.6875 27.296875 
z
" id="DejaVuSans-112"/>
      <path id="DejaVuSans-32"/>
      <path d="M 54.890625 33.015625 
L 54.890625 0 
L 45.90625 0 
L 45.90625 32.71875 
Q 45.90625 40.484375 42.875 44.328125 
Q 39.84375 48.1875 33.796875 48.1875 
Q 26.515625 48.1875 22.3125 43.546875 
Q 18.109375 38.921875 18.109375 30.90625 
L 18.109375 0 
L 9.078125 0 
L 9.078125 54.6875 
L 18.109375 54.6875 
L 18.109375 46.1875 
Q 21.34375 51.125 25.703125 53.5625 
Q 30.078125 56 35.796875 56 
Q 45.21875 56 50.046875 50.171875 
Q 54.890625 44.34375 54.890625 33.015625 
z
" id="DejaVuSans-110"/>
      <path d="M 44.28125 53.078125 
L 44.28125 44.578125 
Q 40.484375 46.53125 36.375 47.5 
Q 32.28125 48.484375 27.875 48.484375 
Q 21.1875 48.484375 17.84375 46.4375 
Q 14.5 44.390625 14.5 40.28125 
Q 14.5 37.15625 16.890625 35.375 
Q 19.28125 33.59375 26.515625 31.984375 
L 29.59375 31.296875 
Q 39.15625 29.25 43.1875 25.515625 
Q 47.21875 21.78125 47.21875 15.09375 
Q 47.21875 7.46875 41.1875 3.015625 
Q 35.15625 -1.421875 24.609375 -1.421875 
Q 20.21875 -1.421875 15.453125 -0.5625 
Q 10.6875 0.296875 5.421875 2 
L 5.421875 11.28125 
Q 10.40625 8.6875 15.234375 7.390625 
Q 20.0625 6.109375 24.8125 6.109375 
Q 31.15625 6.109375 34.5625 8.28125 
Q 37.984375 10.453125 37.984375 14.40625 
Q 37.984375 18.0625 35.515625 20.015625 
Q 33.0625 21.96875 24.703125 23.78125 
L 21.578125 24.515625 
Q 13.234375 26.265625 9.515625 29.90625 
Q 5.8125 33.546875 5.8125 39.890625 
Q 5.8125 47.609375 11.28125 51.796875 
Q 16.75 56 26.8125 56 
Q 31.78125 56 36.171875 55.265625 
Q 40.578125 54.546875 44.28125 53.078125 
z
" id="DejaVuSans-115"/>
      <path d="M 54.890625 33.015625 
L 54.890625 0 
L 45.90625 0 
L 45.90625 32.71875 
Q 45.90625 40.484375 42.875 44.328125 
Q 39.84375 48.1875 33.796875 48.1875 
Q 26.515625 48.1875 22.3125 43.546875 
Q 18.109375 38.921875 18.109375 30.90625 
L 18.109375 0 
L 9.078125 0 
L 9.078125 75.984375 
L 18.109375 75.984375 
L 18.109375 46.1875 
Q 21.34375 51.125 25.703125 53.5625 
Q 30.078125 56 35.796875 56 
Q 45.21875 56 50.046875 50.171875 
Q 54.890625 44.34375 54.890625 33.015625 
z
" id="DejaVuSans-104"/>
      <path d="M 37.109375 75.984375 
L 37.109375 68.5 
L 28.515625 68.5 
Q 23.6875 68.5 21.796875 66.546875 
Q 19.921875 64.59375 19.921875 59.515625 
L 19.921875 54.6875 
L 34.71875 54.6875 
L 34.71875 47.703125 
L 19.921875 47.703125 
L 19.921875 0 
L 10.890625 0 
L 10.890625 47.703125 
L 2.296875 47.703125 
L 2.296875 54.6875 
L 10.890625 54.6875 
L 10.890625 58.5 
Q 10.890625 67.625 15.140625 71.796875 
Q 19.390625 75.984375 28.609375 75.984375 
z
" id="DejaVuSans-102"/>
      <path d="M 31 75.875 
Q 24.46875 64.65625 21.28125 53.65625 
Q 18.109375 42.671875 18.109375 31.390625 
Q 18.109375 20.125 21.3125 9.0625 
Q 24.515625 -2 31 -13.1875 
L 23.1875 -13.1875 
Q 15.875 -1.703125 12.234375 9.375 
Q 8.59375 20.453125 8.59375 31.390625 
Q 8.59375 42.28125 12.203125 53.3125 
Q 15.828125 64.359375 23.1875 75.875 
z
" id="DejaVuSans-40"/>
      <path d="M 47.015625 60.890625 
L 29.5 51.421875 
L 47.015625 41.890625 
L 44.1875 37.109375 
L 27.78125 47.015625 
L 27.78125 28.609375 
L 22.21875 28.609375 
L 22.21875 47.015625 
L 5.8125 37.109375 
L 2.984375 41.890625 
L 20.515625 51.421875 
L 2.984375 60.890625 
L 5.8125 65.71875 
L 22.21875 55.8125 
L 22.21875 74.21875 
L 27.78125 74.21875 
L 27.78125 55.8125 
L 44.1875 65.71875 
z
" id="DejaVuSans-42"/>
      <path d="M 8.015625 75.875 
L 15.828125 75.875 
Q 23.140625 64.359375 26.78125 53.3125 
Q 30.421875 42.28125 30.421875 31.390625 
Q 30.421875 20.453125 26.78125 9.375 
Q 23.140625 -1.703125 15.828125 -13.1875 
L 8.015625 -13.1875 
Q 14.5 -2 17.703125 9.0625 
Q 20.90625 20.125 20.90625 31.390625 
Q 20.90625 42.671875 17.703125 53.65625 
Q 14.5 64.65625 8.015625 75.875 
z
" id="DejaVuSans-41"/>
      <path d="M 10.59375 45.40625 
L 73.1875 45.40625 
L 73.1875 37.203125 
L 10.59375 37.203125 
z
M 10.59375 25.484375 
L 73.1875 25.484375 
L 73.1875 17.1875 
L 10.59375 17.1875 
z
" id="DejaVuSans-61"/>
     </defs>
     <use xlink:href="#DejaVuSans-85"/>
     <use x="73.193359" xlink:href="#DejaVuSans-116"/>
     <use x="112.402344" xlink:href="#DejaVuSans-111"/>
     <use x="173.583984" xlink:href="#DejaVuSans-112"/>
     <use x="237.060547" xlink:href="#DejaVuSans-105"/>
     <use x="264.84375" xlink:href="#DejaVuSans-97"/>
     <use x="326.123047" xlink:href="#DejaVuSans-32"/>
     <use x="357.910156" xlink:href="#DejaVuSans-112"/>
     <use x="421.386719" xlink:href="#DejaVuSans-111"/>
     <use x="482.568359" xlink:href="#DejaVuSans-105"/>
     <use x="510.351562" xlink:href="#DejaVuSans-110"/>
     <use x="573.730469" xlink:href="#DejaVuSans-116"/>
     <use x="612.939453" xlink:href="#DejaVuSans-32"/>
     <use x="644.726562" xlink:href="#DejaVuSans-115"/>
     <use x="696.826172" xlink:href="#DejaVuSans-104"/>
     <use x="760.205078" xlink:href="#DejaVuSans-105"/>
     <use x="787.988281" xlink:href="#DejaVuSans-102"/>
     <use x="821.443359" xlink:href="#DejaVuSans-116"/>
     <use x="860.652344" xlink:href="#DejaVuSans-32"/>
     <use x="892.439453" xlink:href="#DejaVuSans-40"/>
     <use x="931.453125" xlink:href="#DejaVuSans-85"/>
     <use x="1004.646484" xlink:href="#DejaVuSans-85"/>
     <use x="1077.839844" xlink:href="#DejaVuSans-42"/>
     <use x="1127.839844" xlink:href="#DejaVuSans-41"/>
     <use x="1166.853516" xlink:href="#DejaVuSans-61"/>
     <use x="1250.642578" xlink:href="#DejaVuSans-48"/>
     <use x="1314.265625" xlink:href="#DejaVuSans-46"/>
     <use x="1346.052734" xlink:href="#DejaVuSans-49"/>
     <use x="1409.675781" xlink:href="#DejaVuSans-49"/>
     <use x="1473.298828" xlink:href="#DejaVuSans-49"/>
    </g>
   </g>
   <g id="Path3DCollection_1">
    <defs>
     <path d="M 0 1.369306 
C 0.363144 1.369306 0.711464 1.225028 0.968246 0.968246 
C 1.225028 0.711464 1.369306 0.363144 1.369306 -0 
C 1.369306 -0.363144 1.225028 -0.711464 0.968246 -0.968246 
C 0.711464 -1.225028 0.363144 -1.369306 0 -1.369306 
C -0.363144 -1.369306 -0.711464 -1.225028 -0.968246 -0.968246 
C -1.225028 -0.711464 -1.369306 -0.363144 -1.369306 0 
C -1.369306 0.363144 -1.225028 0.711464 -0.968246 0.968246 
C -0.711464 1.225028 -0.363144 1.369306 0 1.369306 
z
" id="C0_0_335cc10e83"/>
    </defs>
    <g clip-path="url(#pf678811e6e)">
     <use style="fill-opacity:0.7;stroke:#000000;stroke-opacity:0.7;" x="265.876238" xlink:href="#C0_0_335cc10e83" y="255.678985"/>
    </g>
    <g clip-path="url(#pf678811e6e)">
     <use style="fill-opacity:0.7;stroke:#000000;stroke-opacity:0.7;" x="265.876238" xlink:href="#C0_0_335cc10e83" y="255.678985"/>
    </g>
    <g clip-path="url(#pf678811e6e)">
     <use style="fill-opacity:0.7;stroke:#000000;stroke-opacity:0.7;" x="265.876238" xlink:href="#C0_0_335cc10e83" y="255.678985"/>
    </g>
    <g clip-path="url(#pf678811e6e)">
     <use style="fill-opacity:0.7;stroke:#000000;stroke-opacity:0.7;" x="265.876238" xlink:href="#C0_0_335cc10e83" y="255.678985"/>
    </g>
    <g clip-path="url(#pf678811e6e)">
     <use style="fill-opacity:0.7;stroke:#000000;stroke-opacity:0.7;" x="265.891882" xlink:href="#C0_0_335cc10e83" y="255.694984"/>
    </g>
    <g clip-path="url(#pf678811e6e)">
     <use style="fill-opacity:0.7;stroke:#000000;stroke-opacity:0.7;" x="267.764224" xlink:href="#C0_0_335cc10e83" y="237.643748"/>
    </g>
    <g clip-path="url(#pf678811e6e)">
     <use style="fill-opacity:0.7;stroke:#000000;stroke-opacity:0.7;" x="262.285934" xlink:href="#C0_0_335cc10e83" y="195.670545"/>
    </g>
    <g clip-path="url(#pf678811e6e)">
     <use style="fill-opacity:0.7;stroke:#000000;stroke-opacity:0.7;" x="262.285934" xlink:href="#C0_0_335cc10e83" y="195.670545"/>
    </g>
    <g clip-path="url(#pf678811e6e)">
     <use style="fill-opacity:0.7;stroke:#000000;stroke-opacity:0.7;" x="262.285934" xlink:href="#C0_0_335cc10e83" y="195.670545"/>
    </g>
    <g clip-path="url(#pf678811e6e)">
     <use style="fill-opacity:0.7;stroke:#000000;stroke-opacity:0.7;" x="262.757802" xlink:href="#C0_0_335cc10e83" y="195.931053"/>
    </g>
    <g clip-path="url(#pf678811e6e)">
     <use style="fill-opacity:0.7;stroke:#000000;stroke-opacity:0.7;" x="262.757802" xlink:href="#C0_0_335cc10e83" y="195.931053"/>
    </g>
    <g clip-path="url(#pf678811e6e)">
     <use style="fill-opacity:0.7;stroke:#000000;stroke-opacity:0.7;" x="262.757802" xlink:href="#C0_0_335cc10e83" y="195.931053"/>
    </g>
    <g clip-path="url(#pf678811e6e)">
     <use style="fill-opacity:0.7;stroke:#000000;stroke-opacity:0.7;" x="263.544715" xlink:href="#C0_0_335cc10e83" y="196.369619"/>
    </g>
    <g clip-path="url(#pf678811e6e)">
     <use style="fill-opacity:0.7;stroke:#000000;stroke-opacity:0.7;" x="263.544715" xlink:href="#C0_0_335cc10e83" y="196.369619"/>
    </g>
    <g clip-path="url(#pf678811e6e)">
     <use style="fill-opacity:0.7;stroke:#000000;stroke-opacity:0.7;" x="263.544715" xlink:href="#C0_0_335cc10e83" y="196.369619"/>
    </g>
    <g clip-path="url(#pf678811e6e)">
     <use style="fill-opacity:0.7;stroke:#000000;stroke-opacity:0.7;" x="265.118382" xlink:href="#C0_0_335cc10e83" y="197.247427"/>
    </g>
    <g clip-path="url(#pf678811e6e)">
     <use style="fill-opacity:0.7;stroke:#000000;stroke-opacity:0.7;" x="265.118382" xlink:href="#C0_0_335cc10e83" y="197.247427"/>
    </g>
    <g clip-path="url(#pf678811e6e)">
     <use style="fill-opacity:0.7;stroke:#000000;stroke-opacity:0.7;" x="265.118382" xlink:href="#C0_0_335cc10e83" y="197.247427"/>
    </g>
    <g clip-path="url(#pf678811e6e)">
     <use style="fill-opacity:0.7;stroke:#000000;stroke-opacity:0.7;" x="265.118382" xlink:href="#C0_0_335cc10e83" y="197.247427"/>
    </g>
    <g clip-path="url(#pf678811e6e)">
     <use style="fill-opacity:0.7;stroke:#000000;stroke-opacity:0.7;" x="269.843768" xlink:href="#C0_0_335cc10e83" y="199.881765"/>
    </g>
    <g clip-path="url(#pf678811e6e)">
     <use style="fill-opacity:0.7;stroke:#000000;stroke-opacity:0.7;" x="269.846284" xlink:href="#C0_0_335cc10e83" y="199.882527"/>
    </g>
    <g clip-path="url(#pf678811e6e)">
     <use style="fill-opacity:0.7;stroke:#000000;stroke-opacity:0.7;" x="269.843287" xlink:href="#C0_0_335cc10e83" y="199.868347"/>
    </g>
    <g clip-path="url(#pf678811e6e)">
     <use style="fill-opacity:0.7;stroke:#000000;stroke-opacity:0.7;" x="269.843287" xlink:href="#C0_0_335cc10e83" y="199.868347"/>
    </g>
    <g clip-path="url(#pf678811e6e)">
     <use style="fill-opacity:0.7;stroke:#000000;stroke-opacity:0.7;" x="269.843287" xlink:href="#C0_0_335cc10e83" y="199.868347"/>
    </g>
   </g>
   <g id="Poly3DCollection_2">
    <path clip-path="url(#pf678811e6e)" d="M 269.843287 199.868347 
L 265.876238 255.678985 
L 265.891882 255.694984 
z
" style="fill:#0000e6;fill-opacity:0.5;"/>
    <path clip-path="url(#pf678811e6e)" d="M 265.891882 255.694984 
L 267.764224 237.643748 
L 269.843287 199.868347 
z
" style="fill:#0000ba;fill-opacity:0.5;"/>
    <path clip-path="url(#pf678811e6e)" d="M 262.285934 195.670545 
L 265.876238 255.678985 
L 262.757802 195.931053 
z
" style="fill:#0000ea;fill-opacity:0.5;"/>
    <path clip-path="url(#pf678811e6e)" d="M 265.876238 255.678985 
L 263.544715 196.369619 
L 262.757802 195.931053 
z
" style="fill:#0000ea;fill-opacity:0.5;"/>
    <path clip-path="url(#pf678811e6e)" d="M 263.544715 196.369619 
L 265.876238 255.678985 
L 265.118382 197.247427 
z
" style="fill:#0000ea;fill-opacity:0.5;"/>
    <path clip-path="url(#pf678811e6e)" d="M 265.118382 197.247427 
L 265.876238 255.678985 
L 269.843287 199.868347 
z
" style="fill:#0000ea;fill-opacity:0.5;"/>
    <path clip-path="url(#pf678811e6e)" d="M 269.846284 199.882527 
L 269.843287 199.868347 
L 267.764224 237.643748 
z
" style="fill:#0000ef;fill-opacity:0.5;"/>
    <path clip-path="url(#pf678811e6e)" d="M 262.757802 195.931053 
L 263.544715 196.369619 
L 262.285934 195.670545 
z
" style="fill:#0000a7;fill-opacity:0.5;"/>
    <path clip-path="url(#pf678811e6e)" d="M 263.544715 196.369619 
L 265.118382 197.247427 
L 269.843768 199.881765 
z
" style="fill:#0000c6;fill-opacity:0.5;"/>
    <path clip-path="url(#pf678811e6e)" d="M 269.843768 199.881765 
L 265.118382 197.247427 
L 269.843287 199.868347 
z
" style="fill:#000091;fill-opacity:0.5;"/>
    <path clip-path="url(#pf678811e6e)" d="M 269.843768 199.881765 
L 269.843287 199.868347 
L 269.846284 199.882527 
z
" style="fill:#00009f;fill-opacity:0.5;"/>
   </g>
   <g id="Path3DCollection_2">
    <defs>
     <path d="M 0 1.369306 
C 0.363144 1.369306 0.711464 1.225028 0.968246 0.968246 
C 1.225028 0.711464 1.369306 0.363144 1.369306 -0 
C 1.369306 -0.363144 1.225028 -0.711464 0.968246 -0.968246 
C 0.711464 -1.225028 0.363144 -1.369306 0 -1.369306 
C -0.363144 -1.369306 -0.711464 -1.225028 -0.968246 -0.968246 
C -1.225028 -0.711464 -1.369306 -0.363144 -1.369306 0 
C -1.369306 0.363144 -1.225028 0.711464 -0.968246 0.968246 
C -0.711464 1.225028 -0.363144 1.369306 0 1.369306 
z
" id="C1_0_380b06e04c"/>
    </defs>
    <g clip-path="url(#pf678811e6e)">
     <use style="fill-opacity:0.7;stroke:#000000;stroke-opacity:0.7;" x="265.876238" xlink:href="#C1_0_380b06e04c" y="255.678985"/>
    </g>
    <g clip-path="url(#pf678811e6e)">
     <use style="fill-opacity:0.7;stroke:#000000;stroke-opacity:0.7;" x="265.876238" xlink:href="#C1_0_380b06e04c" y="255.678985"/>
    </g>
    <g clip-path="url(#pf678811e6e)">
     <use style="fill-opacity:0.7;stroke:#000000;stroke-opacity:0.7;" x="265.876238" xlink:href="#C1_0_380b06e04c" y="255.678985"/>
    </g>
    <g clip-path="url(#pf678811e6e)">
     <use style="fill-opacity:0.7;stroke:#000000;stroke-opacity:0.7;" x="265.876238" xlink:href="#C1_0_380b06e04c" y="255.678985"/>
    </g>
    <g clip-path="url(#pf678811e6e)">
     <use style="fill-opacity:0.7;stroke:#000000;stroke-opacity:0.7;" x="265.891882" xlink:href="#C1_0_380b06e04c" y="255.694984"/>
    </g>
    <g clip-path="url(#pf678811e6e)">
     <use style="fill-opacity:0.7;stroke:#000000;stroke-opacity:0.7;" x="267.764224" xlink:href="#C1_0_380b06e04c" y="237.643748"/>
    </g>
    <g clip-path="url(#pf678811e6e)">
     <use style="fill-opacity:0.7;stroke:#000000;stroke-opacity:0.7;" x="262.285934" xlink:href="#C1_0_380b06e04c" y="195.670545"/>
    </g>
    <g clip-path="url(#pf678811e6e)">
     <use style="fill-opacity:0.7;stroke:#000000;stroke-opacity:0.7;" x="262.285934" xlink:href="#C1_0_380b06e04c" y="195.670545"/>
    </g>
    <g clip-path="url(#pf678811e6e)">
     <use style="fill-opacity:0.7;stroke:#000000;stroke-opacity:0.7;" x="262.285934" xlink:href="#C1_0_380b06e04c" y="195.670545"/>
    </g>
    <g clip-path="url(#pf678811e6e)">
     <use style="fill-opacity:0.7;stroke:#000000;stroke-opacity:0.7;" x="262.757802" xlink:href="#C1_0_380b06e04c" y="195.931053"/>
    </g>
    <g clip-path="url(#pf678811e6e)">
     <use style="fill-opacity:0.7;stroke:#000000;stroke-opacity:0.7;" x="262.757802" xlink:href="#C1_0_380b06e04c" y="195.931053"/>
    </g>
    <g clip-path="url(#pf678811e6e)">
     <use style="fill-opacity:0.7;stroke:#000000;stroke-opacity:0.7;" x="262.757802" xlink:href="#C1_0_380b06e04c" y="195.931053"/>
    </g>
    <g clip-path="url(#pf678811e6e)">
     <use style="fill-opacity:0.7;stroke:#000000;stroke-opacity:0.7;" x="263.544715" xlink:href="#C1_0_380b06e04c" y="196.369619"/>
    </g>
    <g clip-path="url(#pf678811e6e)">
     <use style="fill-opacity:0.7;stroke:#000000;stroke-opacity:0.7;" x="263.544715" xlink:href="#C1_0_380b06e04c" y="196.369619"/>
    </g>
    <g clip-path="url(#pf678811e6e)">
     <use style="fill-opacity:0.7;stroke:#000000;stroke-opacity:0.7;" x="263.544715" xlink:href="#C1_0_380b06e04c" y="196.369619"/>
    </g>
    <g clip-path="url(#pf678811e6e)">
     <use style="fill-opacity:0.7;stroke:#000000;stroke-opacity:0.7;" x="265.118382" xlink:href="#C1_0_380b06e04c" y="197.247427"/>
    </g>
    <g clip-path="url(#pf678811e6e)">
     <use style="fill-opacity:0.7;stroke:#000000;stroke-opacity:0.7;" x="265.118382" xlink:href="#C1_0_380b06e04c" y="197.247427"/>
    </g>
    <g clip-path="url(#pf678811e6e)">
     <use style="fill-opacity:0.7;stroke:#000000;stroke-opacity:0.7;" x="265.118382" xlink:href="#C1_0_380b06e04c" y="197.247427"/>
    </g>
    <g clip-path="url(#pf678811e6e)">
     <use style="fill-opacity:0.7;stroke:#000000;stroke-opacity:0.7;" x="265.118382" xlink:href="#C1_0_380b06e04c" y="197.247427"/>
    </g>
    <g clip-path="url(#pf678811e6e)">
     <use style="fill-opacity:0.7;stroke:#000000;stroke-opacity:0.7;" x="269.843768" xlink:href="#C1_0_380b06e04c" y="199.881765"/>
    </g>
    <g clip-path="url(#pf678811e6e)">
     <use style="fill-opacity:0.7;stroke:#000000;stroke-opacity:0.7;" x="269.846284" xlink:href="#C1_0_380b06e04c" y="199.882527"/>
    </g>
    <g clip-path="url(#pf678811e6e)">
     <use style="fill-opacity:0.7;stroke:#000000;stroke-opacity:0.7;" x="269.843287" xlink:href="#C1_0_380b06e04c" y="199.868347"/>
    </g>
    <g clip-path="url(#pf678811e6e)">
     <use style="fill-opacity:0.7;stroke:#000000;stroke-opacity:0.7;" x="269.843287" xlink:href="#C1_0_380b06e04c" y="199.868347"/>
    </g>
    <g clip-path="url(#pf678811e6e)">
     <use style="fill-opacity:0.7;stroke:#000000;stroke-opacity:0.7;" x="269.843287" xlink:href="#C1_0_380b06e04c" y="199.868347"/>
    </g>
   </g>
   <g id="Poly3DCollection_3">
    <path clip-path="url(#pf678811e6e)" d="M 192.209679 169.803678 
L 191.739875 169.656286 
L 174.03778 164.214241 
z
" style="fill:#d60000;"/>
    <path clip-path="url(#pf678811e6e)" d="M 191.739875 169.656286 
L 269.846284 199.882527 
L 174.03778 164.214241 
z
" style="fill:#bd0000;"/>
    <path clip-path="url(#pf678811e6e)" d="M 269.846284 199.882527 
L 191.739875 169.656286 
L 192.209679 169.803678 
z
" style="fill:#be0000;"/>
    <path clip-path="url(#pf678811e6e)" d="M 209.372839 175.223381 
L 227.469235 181.249527 
L 210.312858 175.531943 
z
" style="fill:#d50000;"/>
    <path clip-path="url(#pf678811e6e)" d="M 248.004163 188.867202 
L 209.372839 175.223381 
L 192.209679 169.803678 
z
" style="fill:#cd0000;"/>
    <path clip-path="url(#pf678811e6e)" d="M 192.209679 169.803678 
L 209.372839 175.223381 
L 269.846284 199.882527 
z
" style="fill:#be0000;"/>
    <path clip-path="url(#pf678811e6e)" d="M 228.905193 181.756064 
L 227.469235 181.249527 
L 209.372839 175.223381 
z
" style="fill:#d00000;"/>
    <path clip-path="url(#pf678811e6e)" d="M 210.312858 175.531943 
L 269.846284 199.882527 
L 209.372839 175.223381 
z
" style="fill:#be0000;"/>
    <path clip-path="url(#pf678811e6e)" d="M 248.004163 188.867202 
L 228.905193 181.756064 
L 209.372839 175.223381 
z
" style="fill:#cd0000;"/>
    <path clip-path="url(#pf678811e6e)" d="M 227.469235 181.249527 
L 269.846284 199.882527 
L 210.312858 175.531943 
z
" style="fill:#be0000;"/>
    <path clip-path="url(#pf678811e6e)" d="M 227.469235 181.249527 
L 228.905193 181.756064 
L 269.846284 199.882527 
z
" style="fill:#bf0000;"/>
    <path clip-path="url(#pf678811e6e)" d="M 246.044259 188.083065 
L 228.905193 181.756064 
L 248.004163 188.867202 
z
" style="fill:#cf0000;"/>
    <path clip-path="url(#pf678811e6e)" d="M 269.846284 199.882527 
L 228.905193 181.756064 
L 246.044259 188.083065 
z
" style="fill:#c00000;"/>
    <path clip-path="url(#pf678811e6e)" d="M 257.8727 197.721232 
L 246.044259 188.083065 
L 248.004163 188.867202 
z
" style="fill:#b50000;"/>
    <path clip-path="url(#pf678811e6e)" d="M 248.004163 188.867202 
L 265.32625 254.721506 
L 257.8727 197.721232 
z
" style="fill:#de0000;"/>
    <path clip-path="url(#pf678811e6e)" d="M 266.221011 234.432916 
L 265.32625 254.721506 
L 265.891882 255.694984 
z
" style="fill:#e80000;"/>
    <path clip-path="url(#pf678811e6e)" d="M 266.221011 234.432916 
L 257.8727 197.721232 
L 265.32625 254.721506 
z
" style="fill:#e20000;"/>
    <path clip-path="url(#pf678811e6e)" d="M 265.891882 255.694984 
L 267.939232 236.006514 
L 266.221011 234.432916 
z
" style="fill:#cd0000;"/>
    <path clip-path="url(#pf678811e6e)" d="M 269.846284 199.882527 
L 246.044259 188.083065 
L 257.8727 197.721232 
z
" style="fill:#ce0000;"/>
    <path clip-path="url(#pf678811e6e)" d="M 269.846284 199.882527 
L 257.8727 197.721232 
L 266.221011 234.432916 
z
" style="fill:#e30000;"/>
    <path clip-path="url(#pf678811e6e)" d="M 267.939232 236.006514 
L 269.917701 199.954404 
L 266.221011 234.432916 
z
" style="fill:#d00000;"/>
    <path clip-path="url(#pf678811e6e)" d="M 266.221011 234.432916 
L 269.917701 199.954404 
L 269.846284 199.882527 
z
" style="fill:#bf0000;"/>
    <path clip-path="url(#pf678811e6e)" d="M 269.923858 199.949418 
L 269.926657 199.947152 
L 269.846284 199.882527 
z
" style="fill:#c30000;"/>
    <path clip-path="url(#pf678811e6e)" d="M 269.846284 199.882527 
L 269.917701 199.954404 
L 269.923858 199.949418 
z
" style="fill:#c30000;"/>
   </g>
   <g id="Path3DCollection_3">
    <defs>
     <path d="M 0 1.369306 
C 0.363144 1.369306 0.711464 1.225028 0.968246 0.968246 
C 1.225028 0.711464 1.369306 0.363144 1.369306 -0 
C 1.369306 -0.363144 1.225028 -0.711464 0.968246 -0.968246 
C 0.711464 -1.225028 0.363144 -1.369306 0 -1.369306 
C -0.363144 -1.369306 -0.711464 -1.225028 -0.968246 -0.968246 
C -1.225028 -0.711464 -1.369306 -0.363144 -1.369306 0 
C -1.369306 0.363144 -1.225028 0.711464 -0.968246 0.968246 
C -0.711464 1.225028 -0.363144 1.369306 0 1.369306 
z
" id="C2_0_473122f107"/>
    </defs>
    <g clip-path="url(#pf678811e6e)">
     <use style="fill-opacity:0.7;stroke:#000000;stroke-opacity:0.7;" x="174.03778" xlink:href="#C2_0_473122f107" y="164.214241"/>
    </g>
    <g clip-path="url(#pf678811e6e)">
     <use style="fill-opacity:0.7;stroke:#000000;stroke-opacity:0.7;" x="191.739875" xlink:href="#C2_0_473122f107" y="169.656286"/>
    </g>
    <g clip-path="url(#pf678811e6e)">
     <use style="fill-opacity:0.7;stroke:#000000;stroke-opacity:0.7;" x="192.209679" xlink:href="#C2_0_473122f107" y="169.803678"/>
    </g>
    <g clip-path="url(#pf678811e6e)">
     <use style="fill-opacity:0.7;stroke:#000000;stroke-opacity:0.7;" x="192.209679" xlink:href="#C2_0_473122f107" y="169.803678"/>
    </g>
    <g clip-path="url(#pf678811e6e)">
     <use style="fill-opacity:0.7;stroke:#000000;stroke-opacity:0.7;" x="209.372839" xlink:href="#C2_0_473122f107" y="175.223381"/>
    </g>
    <g clip-path="url(#pf678811e6e)">
     <use style="fill-opacity:0.7;stroke:#000000;stroke-opacity:0.7;" x="210.312858" xlink:href="#C2_0_473122f107" y="175.531943"/>
    </g>
    <g clip-path="url(#pf678811e6e)">
     <use style="fill-opacity:0.7;stroke:#000000;stroke-opacity:0.7;" x="210.312858" xlink:href="#C2_0_473122f107" y="175.531943"/>
    </g>
    <g clip-path="url(#pf678811e6e)">
     <use style="fill-opacity:0.7;stroke:#000000;stroke-opacity:0.7;" x="227.469235" xlink:href="#C2_0_473122f107" y="181.249527"/>
    </g>
    <g clip-path="url(#pf678811e6e)">
     <use style="fill-opacity:0.7;stroke:#000000;stroke-opacity:0.7;" x="227.469235" xlink:href="#C2_0_473122f107" y="181.249527"/>
    </g>
    <g clip-path="url(#pf678811e6e)">
     <use style="fill-opacity:0.7;stroke:#000000;stroke-opacity:0.7;" x="227.469235" xlink:href="#C2_0_473122f107" y="181.249527"/>
    </g>
    <g clip-path="url(#pf678811e6e)">
     <use style="fill-opacity:0.7;stroke:#000000;stroke-opacity:0.7;" x="228.905193" xlink:href="#C2_0_473122f107" y="181.756064"/>
    </g>
    <g clip-path="url(#pf678811e6e)">
     <use style="fill-opacity:0.7;stroke:#000000;stroke-opacity:0.7;" x="228.905193" xlink:href="#C2_0_473122f107" y="181.756064"/>
    </g>
    <g clip-path="url(#pf678811e6e)">
     <use style="fill-opacity:0.7;stroke:#000000;stroke-opacity:0.7;" x="246.044259" xlink:href="#C2_0_473122f107" y="188.083065"/>
    </g>
    <g clip-path="url(#pf678811e6e)">
     <use style="fill-opacity:0.7;stroke:#000000;stroke-opacity:0.7;" x="246.044259" xlink:href="#C2_0_473122f107" y="188.083065"/>
    </g>
    <g clip-path="url(#pf678811e6e)">
     <use style="fill-opacity:0.7;stroke:#000000;stroke-opacity:0.7;" x="246.044259" xlink:href="#C2_0_473122f107" y="188.083065"/>
    </g>
    <g clip-path="url(#pf678811e6e)">
     <use style="fill-opacity:0.7;stroke:#000000;stroke-opacity:0.7;" x="246.044259" xlink:href="#C2_0_473122f107" y="188.083065"/>
    </g>
    <g clip-path="url(#pf678811e6e)">
     <use style="fill-opacity:0.7;stroke:#000000;stroke-opacity:0.7;" x="248.004163" xlink:href="#C2_0_473122f107" y="188.867202"/>
    </g>
    <g clip-path="url(#pf678811e6e)">
     <use style="fill-opacity:0.7;stroke:#000000;stroke-opacity:0.7;" x="248.004163" xlink:href="#C2_0_473122f107" y="188.867202"/>
    </g>
    <g clip-path="url(#pf678811e6e)">
     <use style="fill-opacity:0.7;stroke:#000000;stroke-opacity:0.7;" x="248.004163" xlink:href="#C2_0_473122f107" y="188.867202"/>
    </g>
    <g clip-path="url(#pf678811e6e)">
     <use style="fill-opacity:0.7;stroke:#000000;stroke-opacity:0.7;" x="248.004163" xlink:href="#C2_0_473122f107" y="188.867202"/>
    </g>
    <g clip-path="url(#pf678811e6e)">
     <use style="fill-opacity:0.7;stroke:#000000;stroke-opacity:0.7;" x="248.004163" xlink:href="#C2_0_473122f107" y="188.867202"/>
    </g>
    <g clip-path="url(#pf678811e6e)">
     <use style="fill-opacity:0.7;stroke:#000000;stroke-opacity:0.7;" x="265.32625" xlink:href="#C2_0_473122f107" y="254.721506"/>
    </g>
    <g clip-path="url(#pf678811e6e)">
     <use style="fill-opacity:0.7;stroke:#000000;stroke-opacity:0.7;" x="265.32625" xlink:href="#C2_0_473122f107" y="254.721506"/>
    </g>
    <g clip-path="url(#pf678811e6e)">
     <use style="fill-opacity:0.7;stroke:#000000;stroke-opacity:0.7;" x="265.891882" xlink:href="#C2_0_473122f107" y="255.694984"/>
    </g>
    <g clip-path="url(#pf678811e6e)">
     <use style="fill-opacity:0.7;stroke:#000000;stroke-opacity:0.7;" x="266.221011" xlink:href="#C2_0_473122f107" y="234.432916"/>
    </g>
    <g clip-path="url(#pf678811e6e)">
     <use style="fill-opacity:0.7;stroke:#000000;stroke-opacity:0.7;" x="257.8727" xlink:href="#C2_0_473122f107" y="197.721232"/>
    </g>
    <g clip-path="url(#pf678811e6e)">
     <use style="fill-opacity:0.7;stroke:#000000;stroke-opacity:0.7;" x="267.939232" xlink:href="#C2_0_473122f107" y="236.006514"/>
    </g>
    <g clip-path="url(#pf678811e6e)">
     <use style="fill-opacity:0.7;stroke:#000000;stroke-opacity:0.7;" x="269.846284" xlink:href="#C2_0_473122f107" y="199.882527"/>
    </g>
    <g clip-path="url(#pf678811e6e)">
     <use style="fill-opacity:0.7;stroke:#000000;stroke-opacity:0.7;" x="269.926657" xlink:href="#C2_0_473122f107" y="199.947152"/>
    </g>
    <g clip-path="url(#pf678811e6e)">
     <use style="fill-opacity:0.7;stroke:#000000;stroke-opacity:0.7;" x="269.923858" xlink:href="#C2_0_473122f107" y="199.949418"/>
    </g>
    <g clip-path="url(#pf678811e6e)">
     <use style="fill-opacity:0.7;stroke:#000000;stroke-opacity:0.7;" x="269.923858" xlink:href="#C2_0_473122f107" y="199.949418"/>
    </g>
    <g clip-path="url(#pf678811e6e)">
     <use style="fill-opacity:0.7;stroke:#000000;stroke-opacity:0.7;" x="269.917701" xlink:href="#C2_0_473122f107" y="199.954404"/>
    </g>
   </g>
   <g id="Poly3DCollection_4">
    <path clip-path="url(#pf678811e6e)" d="M 192.209679 169.803678 
L 191.739875 169.656286 
L 174.03778 164.214241 
z
" style="fill:#d60000;"/>
    <path clip-path="url(#pf678811e6e)" d="M 191.739875 169.656286 
L 269.846284 199.882527 
L 174.03778 164.214241 
z
" style="fill:#bd0000;"/>
    <path clip-path="url(#pf678811e6e)" d="M 269.846284 199.882527 
L 191.739875 169.656286 
L 192.209679 169.803678 
z
" style="fill:#be0000;"/>
    <path clip-path="url(#pf678811e6e)" d="M 209.372839 175.223381 
L 227.469235 181.249527 
L 210.312858 175.531943 
z
" style="fill:#d50000;"/>
    <path clip-path="url(#pf678811e6e)" d="M 248.004163 188.867202 
L 209.372839 175.223381 
L 192.209679 169.803678 
z
" style="fill:#cd0000;"/>
    <path clip-path="url(#pf678811e6e)" d="M 192.209679 169.803678 
L 209.372839 175.223381 
L 269.846284 199.882527 
z
" style="fill:#be0000;"/>
    <path clip-path="url(#pf678811e6e)" d="M 228.905193 181.756064 
L 227.469235 181.249527 
L 209.372839 175.223381 
z
" style="fill:#d00000;"/>
    <path clip-path="url(#pf678811e6e)" d="M 210.312858 175.531943 
L 269.846284 199.882527 
L 209.372839 175.223381 
z
" style="fill:#be0000;"/>
    <path clip-path="url(#pf678811e6e)" d="M 248.004163 188.867202 
L 228.905193 181.756064 
L 209.372839 175.223381 
z
" style="fill:#cd0000;"/>
    <path clip-path="url(#pf678811e6e)" d="M 227.469235 181.249527 
L 269.846284 199.882527 
L 210.312858 175.531943 
z
" style="fill:#be0000;"/>
    <path clip-path="url(#pf678811e6e)" d="M 227.469235 181.249527 
L 228.905193 181.756064 
L 269.846284 199.882527 
z
" style="fill:#bf0000;"/>
    <path clip-path="url(#pf678811e6e)" d="M 246.044259 188.083065 
L 228.905193 181.756064 
L 248.004163 188.867202 
z
" style="fill:#cf0000;"/>
    <path clip-path="url(#pf678811e6e)" d="M 269.846284 199.882527 
L 228.905193 181.756064 
L 246.044259 188.083065 
z
" style="fill:#c00000;"/>
    <path clip-path="url(#pf678811e6e)" d="M 257.8727 197.721232 
L 246.044259 188.083065 
L 248.004163 188.867202 
z
" style="fill:#b50000;"/>
    <path clip-path="url(#pf678811e6e)" d="M 248.004163 188.867202 
L 265.32625 254.721506 
L 257.8727 197.721232 
z
" style="fill:#de0000;"/>
    <path clip-path="url(#pf678811e6e)" d="M 266.221011 234.432916 
L 265.32625 254.721506 
L 265.891882 255.694984 
z
" style="fill:#e80000;"/>
    <path clip-path="url(#pf678811e6e)" d="M 266.221011 234.432916 
L 257.8727 197.721232 
L 265.32625 254.721506 
z
" style="fill:#e20000;"/>
    <path clip-path="url(#pf678811e6e)" d="M 265.891882 255.694984 
L 267.939232 236.006514 
L 266.221011 234.432916 
z
" style="fill:#cd0000;"/>
    <path clip-path="url(#pf678811e6e)" d="M 269.846284 199.882527 
L 246.044259 188.083065 
L 257.8727 197.721232 
z
" style="fill:#ce0000;"/>
    <path clip-path="url(#pf678811e6e)" d="M 269.846284 199.882527 
L 257.8727 197.721232 
L 266.221011 234.432916 
z
" style="fill:#e30000;"/>
    <path clip-path="url(#pf678811e6e)" d="M 267.939232 236.006514 
L 269.917701 199.954404 
L 266.221011 234.432916 
z
" style="fill:#d00000;"/>
    <path clip-path="url(#pf678811e6e)" d="M 266.221011 234.432916 
L 269.917701 199.954404 
L 269.846284 199.882527 
z
" style="fill:#bf0000;"/>
    <path clip-path="url(#pf678811e6e)" d="M 269.923858 199.949418 
L 269.926657 199.947152 
L 269.846284 199.882527 
z
" style="fill:#c30000;"/>
    <path clip-path="url(#pf678811e6e)" d="M 269.846284 199.882527 
L 269.917701 199.954404 
L 269.923858 199.949418 
z
" style="fill:#c30000;"/>
   </g>
   <g id="Path3DCollection_4">
    <defs>
     <path d="M 0 1.369306 
C 0.363144 1.369306 0.711464 1.225028 0.968246 0.968246 
C 1.225028 0.711464 1.369306 0.363144 1.369306 -0 
C 1.369306 -0.363144 1.225028 -0.711464 0.968246 -0.968246 
C 0.711464 -1.225028 0.363144 -1.369306 0 -1.369306 
C -0.363144 -1.369306 -0.711464 -1.225028 -0.968246 -0.968246 
C -1.225028 -0.711464 -1.369306 -0.363144 -1.369306 0 
C -1.369306 0.363144 -1.225028 0.711464 -0.968246 0.968246 
C -0.711464 1.225028 -0.363144 1.369306 0 1.369306 
z
" id="C3_0_274d7e7383"/>
    </defs>
    <g clip-path="url(#pf678811e6e)">
     <use style="fill-opacity:0.7;stroke:#000000;stroke-opacity:0.7;" x="174.03778" xlink:href="#C3_0_274d7e7383" y="164.214241"/>
    </g>
    <g clip-path="url(#pf678811e6e)">
     <use style="fill-opacity:0.7;stroke:#000000;stroke-opacity:0.7;" x="191.739875" xlink:href="#C3_0_274d7e7383" y="169.656286"/>
    </g>
    <g clip-path="url(#pf678811e6e)">
     <use style="fill-opacity:0.7;stroke:#000000;stroke-opacity:0.7;" x="192.209679" xlink:href="#C3_0_274d7e7383" y="169.803678"/>
    </g>
    <g clip-path="url(#pf678811e6e)">
     <use style="fill-opacity:0.7;stroke:#000000;stroke-opacity:0.7;" x="192.209679" xlink:href="#C3_0_274d7e7383" y="169.803678"/>
    </g>
    <g clip-path="url(#pf678811e6e)">
     <use style="fill-opacity:0.7;stroke:#000000;stroke-opacity:0.7;" x="209.372839" xlink:href="#C3_0_274d7e7383" y="175.223381"/>
    </g>
    <g clip-path="url(#pf678811e6e)">
     <use style="fill-opacity:0.7;stroke:#000000;stroke-opacity:0.7;" x="210.312858" xlink:href="#C3_0_274d7e7383" y="175.531943"/>
    </g>
    <g clip-path="url(#pf678811e6e)">
     <use style="fill-opacity:0.7;stroke:#000000;stroke-opacity:0.7;" x="210.312858" xlink:href="#C3_0_274d7e7383" y="175.531943"/>
    </g>
    <g clip-path="url(#pf678811e6e)">
     <use style="fill-opacity:0.7;stroke:#000000;stroke-opacity:0.7;" x="227.469235" xlink:href="#C3_0_274d7e7383" y="181.249527"/>
    </g>
    <g clip-path="url(#pf678811e6e)">
     <use style="fill-opacity:0.7;stroke:#000000;stroke-opacity:0.7;" x="227.469235" xlink:href="#C3_0_274d7e7383" y="181.249527"/>
    </g>
    <g clip-path="url(#pf678811e6e)">
     <use style="fill-opacity:0.7;stroke:#000000;stroke-opacity:0.7;" x="227.469235" xlink:href="#C3_0_274d7e7383" y="181.249527"/>
    </g>
    <g clip-path="url(#pf678811e6e)">
     <use style="fill-opacity:0.7;stroke:#000000;stroke-opacity:0.7;" x="228.905193" xlink:href="#C3_0_274d7e7383" y="181.756064"/>
    </g>
    <g clip-path="url(#pf678811e6e)">
     <use style="fill-opacity:0.7;stroke:#000000;stroke-opacity:0.7;" x="228.905193" xlink:href="#C3_0_274d7e7383" y="181.756064"/>
    </g>
    <g clip-path="url(#pf678811e6e)">
     <use style="fill-opacity:0.7;stroke:#000000;stroke-opacity:0.7;" x="246.044259" xlink:href="#C3_0_274d7e7383" y="188.083065"/>
    </g>
    <g clip-path="url(#pf678811e6e)">
     <use style="fill-opacity:0.7;stroke:#000000;stroke-opacity:0.7;" x="246.044259" xlink:href="#C3_0_274d7e7383" y="188.083065"/>
    </g>
    <g clip-path="url(#pf678811e6e)">
     <use style="fill-opacity:0.7;stroke:#000000;stroke-opacity:0.7;" x="246.044259" xlink:href="#C3_0_274d7e7383" y="188.083065"/>
    </g>
    <g clip-path="url(#pf678811e6e)">
     <use style="fill-opacity:0.7;stroke:#000000;stroke-opacity:0.7;" x="246.044259" xlink:href="#C3_0_274d7e7383" y="188.083065"/>
    </g>
    <g clip-path="url(#pf678811e6e)">
     <use style="fill-opacity:0.7;stroke:#000000;stroke-opacity:0.7;" x="248.004163" xlink:href="#C3_0_274d7e7383" y="188.867202"/>
    </g>
    <g clip-path="url(#pf678811e6e)">
     <use style="fill-opacity:0.7;stroke:#000000;stroke-opacity:0.7;" x="248.004163" xlink:href="#C3_0_274d7e7383" y="188.867202"/>
    </g>
    <g clip-path="url(#pf678811e6e)">
     <use style="fill-opacity:0.7;stroke:#000000;stroke-opacity:0.7;" x="248.004163" xlink:href="#C3_0_274d7e7383" y="188.867202"/>
    </g>
    <g clip-path="url(#pf678811e6e)">
     <use style="fill-opacity:0.7;stroke:#000000;stroke-opacity:0.7;" x="248.004163" xlink:href="#C3_0_274d7e7383" y="188.867202"/>
    </g>
    <g clip-path="url(#pf678811e6e)">
     <use style="fill-opacity:0.7;stroke:#000000;stroke-opacity:0.7;" x="248.004163" xlink:href="#C3_0_274d7e7383" y="188.867202"/>
    </g>
    <g clip-path="url(#pf678811e6e)">
     <use style="fill-opacity:0.7;stroke:#000000;stroke-opacity:0.7;" x="265.32625" xlink:href="#C3_0_274d7e7383" y="254.721506"/>
    </g>
    <g clip-path="url(#pf678811e6e)">
     <use style="fill-opacity:0.7;stroke:#000000;stroke-opacity:0.7;" x="265.32625" xlink:href="#C3_0_274d7e7383" y="254.721506"/>
    </g>
    <g clip-path="url(#pf678811e6e)">
     <use style="fill-opacity:0.7;stroke:#000000;stroke-opacity:0.7;" x="265.891882" xlink:href="#C3_0_274d7e7383" y="255.694984"/>
    </g>
    <g clip-path="url(#pf678811e6e)">
     <use style="fill-opacity:0.7;stroke:#000000;stroke-opacity:0.7;" x="266.221011" xlink:href="#C3_0_274d7e7383" y="234.432916"/>
    </g>
    <g clip-path="url(#pf678811e6e)">
     <use style="fill-opacity:0.7;stroke:#000000;stroke-opacity:0.7;" x="257.8727" xlink:href="#C3_0_274d7e7383" y="197.721232"/>
    </g>
    <g clip-path="url(#pf678811e6e)">
     <use style="fill-opacity:0.7;stroke:#000000;stroke-opacity:0.7;" x="267.939232" xlink:href="#C3_0_274d7e7383" y="236.006514"/>
    </g>
    <g clip-path="url(#pf678811e6e)">
     <use style="fill-opacity:0.7;stroke:#000000;stroke-opacity:0.7;" x="269.846284" xlink:href="#C3_0_274d7e7383" y="199.882527"/>
    </g>
    <g clip-path="url(#pf678811e6e)">
     <use style="fill-opacity:0.7;stroke:#000000;stroke-opacity:0.7;" x="269.926657" xlink:href="#C3_0_274d7e7383" y="199.947152"/>
    </g>
    <g clip-path="url(#pf678811e6e)">
     <use style="fill-opacity:0.7;stroke:#000000;stroke-opacity:0.7;" x="269.923858" xlink:href="#C3_0_274d7e7383" y="199.949418"/>
    </g>
    <g clip-path="url(#pf678811e6e)">
     <use style="fill-opacity:0.7;stroke:#000000;stroke-opacity:0.7;" x="269.923858" xlink:href="#C3_0_274d7e7383" y="199.949418"/>
    </g>
    <g clip-path="url(#pf678811e6e)">
     <use style="fill-opacity:0.7;stroke:#000000;stroke-opacity:0.7;" x="269.917701" xlink:href="#C3_0_274d7e7383" y="199.954404"/>
    </g>
   </g>
   <g id="Path3DCollection_5">
    <defs>
     <path d="M 0 -3.162278 
L -0.709976 -0.977198 
L -3.007505 -0.977198 
L -1.148765 0.373256 
L -1.85874 2.558336 
L -0 1.207883 
L 1.85874 2.558336 
L 1.148765 0.373256 
L 3.007505 -0.977198 
L 0.709976 -0.977198 
z
" id="m3122d75ab1" style="stroke:#0000ff;stroke-opacity:0.7;"/>
    </defs>
    <g clip-path="url(#pf678811e6e)">
     <use style="fill:#0000ff;fill-opacity:0.7;stroke:#0000ff;stroke-opacity:0.7;" x="267.977224" xlink:href="#m3122d75ab1" y="197.80344"/>
    </g>
   </g>
   <g id="Path3DCollection_6">
    <g clip-path="url(#pf678811e6e)">
     <use style="fill:#0000ff;fill-opacity:0.7;stroke:#0000ff;stroke-opacity:0.7;" x="267.977224" xlink:href="#m3122d75ab1" y="197.80344"/>
    </g>
   </g>
   <g id="Path3DCollection_7">
    <defs>
     <path d="M -3.162278 0 
L 3.162278 0 
M 0 3.162278 
L 0 -3.162278 
" id="m1cd768271c" style="stroke:#ff0000;stroke-opacity:0.7;stroke-width:1.5;"/>
    </defs>
    <g clip-path="url(#pf678811e6e)">
     <use style="fill:#ff0000;fill-opacity:0.7;stroke:#ff0000;stroke-opacity:0.7;stroke-width:1.5;" x="268.159185" xlink:href="#m1cd768271c" y="190.490198"/>
    </g>
   </g>
   <g id="Path3DCollection_8">
    <g clip-path="url(#pf678811e6e)">
     <use style="fill:#ff0000;fill-opacity:0.7;stroke:#ff0000;stroke-opacity:0.7;stroke-width:1.5;" x="268.159185" xlink:href="#m1cd768271c" y="190.490198"/>
    </g>
   </g>
  </g>
 </g>
 <defs>
  <clipPath id="pf678811e6e">
   <rect height="266.112" width="266.112" x="103.104" y="41.472"/>
  </clipPath>
 </defs>
</svg>
