<?xml version="1.0" encoding="utf-8" standalone="no"?>
<!DOCTYPE svg PUBLIC "-//W3C//DTD SVG 1.1//EN"
  "http://www.w3.org/Graphics/SVG/1.1/DTD/svg11.dtd">
<!-- Created with matplotlib (https://matplotlib.org/) -->
<svg height="345.6pt" version="1.1" viewBox="0 0 460.8 345.6" width="460.8pt" xmlns="http://www.w3.org/2000/svg" xmlns:xlink="http://www.w3.org/1999/xlink">
 <defs>
  <style type="text/css">
*{stroke-linecap:butt;stroke-linejoin:round;white-space:pre;}
  </style>
 </defs>
 <g id="figure_1">
  <g id="patch_1">
   <path d="M 0 345.6 
L 460.8 345.6 
L 460.8 0 
L 0 0 
z
" style="fill:#ffffff;"/>
  </g>
  <g id="patch_2">
   <path d="M 57.6 307.584 
L 414.72 307.584 
L 414.72 41.472 
L 57.6 41.472 
z
" style="fill:#ffffff;"/>
  </g>
  <g id="pane3d_1">
   <g id="patch_3">
    <path d="M 104.936717 206.774646 
L 240.985946 120.746664 
L 240.985946 40.637422 
L 92.083848 131.702994 
" style="fill:#f2f2f2;opacity:0.5;stroke:#f2f2f2;stroke-linejoin:miter;"/>
   </g>
  </g>
  <g id="pane3d_2">
   <g id="patch_4">
    <path d="M 240.985946 120.746664 
L 377.035175 206.774646 
L 389.888044 131.702994 
L 240.985946 40.637422 
" style="fill:#e6e6e6;opacity:0.5;stroke:#e6e6e6;stroke-linejoin:miter;"/>
   </g>
  </g>
  <g id="pane3d_3">
   <g id="patch_5">
    <path d="M 104.936717 206.774646 
L 240.985946 299.08717 
L 377.035175 206.774646 
L 240.985946 120.746664 
" style="fill:#ececec;opacity:0.5;stroke:#ececec;stroke-linejoin:miter;"/>
   </g>
  </g>
  <g id="axis3d_1">
   <g id="line2d_1">
    <path d="M 104.936717 206.774646 
L 240.985946 299.08717 
" style="fill:none;stroke:#000000;stroke-linecap:square;stroke-width:0.8;"/>
   </g>
   <g id="text_1">
    <!-- X -->
    <defs>
     <path d="M 6.296875 72.90625 
L 16.890625 72.90625 
L 35.015625 45.796875 
L 53.21875 72.90625 
L 63.8125 72.90625 
L 40.375 37.890625 
L 65.375 0 
L 54.78125 0 
L 34.28125 31 
L 13.625 0 
L 2.984375 0 
L 29 38.921875 
z
" id="DejaVuSans-88"/>
    </defs>
    <g transform="translate(147.703638 279.025347)scale(0.1 -0.1)">
     <use xlink:href="#DejaVuSans-88"/>
    </g>
   </g>
   <g id="Line3DCollection_1">
    <path d="M 113.30808 212.454808 
L 249.367076 126.046303 
L 250.131262 46.230516 
" style="fill:none;stroke:#b0b0b0;stroke-width:0.8;"/>
    <path d="M 139.53034 230.247214 
L 275.611634 142.641519 
L 278.792164 63.758956 
" style="fill:none;stroke:#b0b0b0;stroke-width:0.8;"/>
    <path d="M 166.123593 248.291346 
L 302.21466 159.463405 
L 307.880765 81.548968 
" style="fill:none;stroke:#b0b0b0;stroke-width:0.8;"/>
    <path d="M 193.095767 266.592585 
L 329.183548 176.516637 
L 337.406711 99.606451 
" style="fill:none;stroke:#b0b0b0;stroke-width:0.8;"/>
    <path d="M 220.455018 285.156465 
L 356.525899 193.80602 
L 367.379939 117.937483 
" style="fill:none;stroke:#b0b0b0;stroke-width:0.8;"/>
   </g>
   <g id="xtick_1">
    <g id="line2d_2">
     <path d="M 114.434676 211.739328 
L 111.052976 213.886982 
" style="fill:none;stroke:#000000;stroke-linecap:square;stroke-width:0.8;"/>
    </g>
    <g id="text_2">
     <!-- 0 -->
     <defs>
      <path d="M 31.78125 66.40625 
Q 24.171875 66.40625 20.328125 58.90625 
Q 16.5 51.421875 16.5 36.375 
Q 16.5 21.390625 20.328125 13.890625 
Q 24.171875 6.390625 31.78125 6.390625 
Q 39.453125 6.390625 43.28125 13.890625 
Q 47.125 21.390625 47.125 36.375 
Q 47.125 51.421875 43.28125 58.90625 
Q 39.453125 66.40625 31.78125 66.40625 
z
M 31.78125 74.21875 
Q 44.046875 74.21875 50.515625 64.515625 
Q 56.984375 54.828125 56.984375 36.375 
Q 56.984375 17.96875 50.515625 8.265625 
Q 44.046875 -1.421875 31.78125 -1.421875 
Q 19.53125 -1.421875 13.0625 8.265625 
Q 6.59375 17.96875 6.59375 36.375 
Q 6.59375 54.828125 13.0625 64.515625 
Q 19.53125 74.21875 31.78125 74.21875 
z
" id="DejaVuSans-48"/>
     </defs>
     <g transform="translate(100.961582 231.187958)scale(0.1 -0.1)">
      <use xlink:href="#DejaVuSans-48"/>
     </g>
    </g>
   </g>
   <g id="xtick_2">
    <g id="line2d_3">
     <path d="M 140.657389 229.521648 
L 137.274317 231.699584 
" style="fill:none;stroke:#000000;stroke-linecap:square;stroke-width:0.8;"/>
    </g>
    <g id="text_3">
     <!-- 1 -->
     <defs>
      <path d="M 12.40625 8.296875 
L 28.515625 8.296875 
L 28.515625 63.921875 
L 10.984375 60.40625 
L 10.984375 69.390625 
L 28.421875 72.90625 
L 38.28125 72.90625 
L 38.28125 8.296875 
L 54.390625 8.296875 
L 54.390625 0 
L 12.40625 0 
z
" id="DejaVuSans-49"/>
     </defs>
     <g transform="translate(127.02426 248.993536)scale(0.1 -0.1)">
      <use xlink:href="#DejaVuSans-49"/>
     </g>
    </g>
   </g>
   <g id="xtick_3">
    <g id="line2d_4">
     <path d="M 167.250994 247.55548 
L 163.866851 249.764343 
" style="fill:none;stroke:#000000;stroke-linecap:square;stroke-width:0.8;"/>
    </g>
    <g id="text_4">
     <!-- 2 -->
     <defs>
      <path d="M 19.1875 8.296875 
L 53.609375 8.296875 
L 53.609375 0 
L 7.328125 0 
L 7.328125 8.296875 
Q 12.9375 14.109375 22.625 23.890625 
Q 32.328125 33.6875 34.8125 36.53125 
Q 39.546875 41.84375 41.421875 45.53125 
Q 43.3125 49.21875 43.3125 52.78125 
Q 43.3125 58.59375 39.234375 62.25 
Q 35.15625 65.921875 28.609375 65.921875 
Q 23.96875 65.921875 18.8125 64.3125 
Q 13.671875 62.703125 7.8125 59.421875 
L 7.8125 69.390625 
Q 13.765625 71.78125 18.9375 73 
Q 24.125 74.21875 28.421875 74.21875 
Q 39.75 74.21875 46.484375 68.546875 
Q 53.21875 62.890625 53.21875 53.421875 
Q 53.21875 48.921875 51.53125 44.890625 
Q 49.859375 40.875 45.40625 35.40625 
Q 44.1875 33.984375 37.640625 27.21875 
Q 31.109375 20.453125 19.1875 8.296875 
z
" id="DejaVuSans-50"/>
     </defs>
     <g transform="translate(153.45432 267.050104)scale(0.1 -0.1)">
      <use xlink:href="#DejaVuSans-50"/>
     </g>
    </g>
   </g>
   <g id="xtick_4">
    <g id="line2d_5">
     <path d="M 194.223416 265.846198 
L 190.838514 268.086651 
" style="fill:none;stroke:#000000;stroke-linecap:square;stroke-width:0.8;"/>
    </g>
    <g id="text_5">
     <!-- 3 -->
     <defs>
      <path d="M 40.578125 39.3125 
Q 47.65625 37.796875 51.625 33 
Q 55.609375 28.21875 55.609375 21.1875 
Q 55.609375 10.40625 48.1875 4.484375 
Q 40.765625 -1.421875 27.09375 -1.421875 
Q 22.515625 -1.421875 17.65625 -0.515625 
Q 12.796875 0.390625 7.625 2.203125 
L 7.625 11.71875 
Q 11.71875 9.328125 16.59375 8.109375 
Q 21.484375 6.890625 26.8125 6.890625 
Q 36.078125 6.890625 40.9375 10.546875 
Q 45.796875 14.203125 45.796875 21.1875 
Q 45.796875 27.640625 41.28125 31.265625 
Q 36.765625 34.90625 28.71875 34.90625 
L 20.21875 34.90625 
L 20.21875 43.015625 
L 29.109375 43.015625 
Q 36.375 43.015625 40.234375 45.921875 
Q 44.09375 48.828125 44.09375 54.296875 
Q 44.09375 59.90625 40.109375 62.90625 
Q 36.140625 65.921875 28.71875 65.921875 
Q 24.65625 65.921875 20.015625 65.03125 
Q 15.375 64.15625 9.8125 62.3125 
L 9.8125 71.09375 
Q 15.4375 72.65625 20.34375 73.4375 
Q 25.25 74.21875 29.59375 74.21875 
Q 40.828125 74.21875 47.359375 69.109375 
Q 53.90625 64.015625 53.90625 55.328125 
Q 53.90625 49.265625 50.4375 45.09375 
Q 46.96875 40.921875 40.578125 39.3125 
z
" id="DejaVuSans-51"/>
     </defs>
     <g transform="translate(180.259586 285.363005)scale(0.1 -0.1)">
      <use xlink:href="#DejaVuSans-51"/>
     </g>
    </g>
   </g>
   <g id="xtick_5">
    <g id="line2d_6">
     <path d="M 221.582807 284.39933 
L 218.197472 286.672056 
" style="fill:none;stroke:#000000;stroke-linecap:square;stroke-width:0.8;"/>
    </g>
    <g id="text_6">
     <!-- 4 -->
     <defs>
      <path d="M 37.796875 64.3125 
L 12.890625 25.390625 
L 37.796875 25.390625 
z
M 35.203125 72.90625 
L 47.609375 72.90625 
L 47.609375 25.390625 
L 58.015625 25.390625 
L 58.015625 17.1875 
L 47.609375 17.1875 
L 47.609375 0 
L 37.796875 0 
L 37.796875 17.1875 
L 4.890625 17.1875 
L 4.890625 26.703125 
z
" id="DejaVuSans-52"/>
     </defs>
     <g transform="translate(207.448105 303.937739)scale(0.1 -0.1)">
      <use xlink:href="#DejaVuSans-52"/>
     </g>
    </g>
   </g>
  </g>
  <g id="axis3d_2">
   <g id="line2d_7">
    <path d="M 377.035175 206.774646 
L 240.985946 299.08717 
" style="fill:none;stroke:#000000;stroke-linecap:square;stroke-width:0.8;"/>
   </g>
   <g id="text_7">
    <!-- Y -->
    <defs>
     <path d="M -0.203125 72.90625 
L 10.40625 72.90625 
L 30.609375 42.921875 
L 50.6875 72.90625 
L 61.28125 72.90625 
L 35.5 34.71875 
L 35.5 0 
L 25.59375 0 
L 25.59375 34.71875 
z
" id="DejaVuSans-89"/>
    </defs>
    <g transform="translate(327.789348 279.025347)scale(0.1 -0.1)">
     <use xlink:href="#DejaVuSans-89"/>
    </g>
   </g>
   <g id="Line3DCollection_2">
    <path d="M 103.808371 124.532508 
L 115.617565 200.020828 
L 251.67903 291.831667 
" style="fill:none;stroke:#b0b0b0;stroke-width:0.8;"/>
    <path d="M 123.193526 112.676931 
L 133.288957 188.84668 
L 269.366084 279.830596 
" style="fill:none;stroke:#b0b0b0;stroke-width:0.8;"/>
    <path d="M 142.391598 100.935771 
L 150.804358 177.77117 
L 286.891373 267.939285 
" style="fill:none;stroke:#b0b0b0;stroke-width:0.8;"/>
    <path d="M 161.405284 89.307377 
L 168.165824 166.792998 
L 304.257107 256.156235 
" style="fill:none;stroke:#b0b0b0;stroke-width:0.8;"/>
    <path d="M 180.237227 77.790134 
L 185.375376 155.910885 
L 321.465456 244.479976 
" style="fill:none;stroke:#b0b0b0;stroke-width:0.8;"/>
    <path d="M 198.89002 66.382456 
L 202.435 145.123577 
L 338.518548 232.909062 
" style="fill:none;stroke:#b0b0b0;stroke-width:0.8;"/>
    <path d="M 217.366207 55.082786 
L 219.346645 134.429839 
L 355.418475 221.442073 
" style="fill:none;stroke:#b0b0b0;stroke-width:0.8;"/>
    <path d="M 235.668286 43.889597 
L 236.112229 123.828461 
L 372.167293 210.077616 
" style="fill:none;stroke:#b0b0b0;stroke-width:0.8;"/>
   </g>
   <g id="xtick_6">
    <g id="line2d_8">
     <path d="M 250.551219 291.070649 
L 253.936626 293.355036 
" style="fill:none;stroke:#000000;stroke-linecap:square;stroke-width:0.8;"/>
    </g>
    <g id="text_8">
     <!-- 0.0 -->
     <defs>
      <path d="M 10.6875 12.40625 
L 21 12.40625 
L 21 0 
L 10.6875 0 
z
" id="DejaVuSans-46"/>
     </defs>
     <g transform="translate(253.614874 310.616603)scale(0.1 -0.1)">
      <use xlink:href="#DejaVuSans-48"/>
      <use x="63.623047" xlink:href="#DejaVuSans-46"/>
      <use x="95.410156" xlink:href="#DejaVuSans-48"/>
     </g>
    </g>
   </g>
   <g id="xtick_7">
    <g id="line2d_9">
     <path d="M 268.238323 279.076552 
L 271.623569 281.339996 
" style="fill:none;stroke:#000000;stroke-linecap:square;stroke-width:0.8;"/>
    </g>
    <g id="text_9">
     <!-- 2.5 -->
     <defs>
      <path d="M 10.796875 72.90625 
L 49.515625 72.90625 
L 49.515625 64.59375 
L 19.828125 64.59375 
L 19.828125 46.734375 
Q 21.96875 47.46875 24.109375 47.828125 
Q 26.265625 48.1875 28.421875 48.1875 
Q 40.625 48.1875 47.75 41.5 
Q 54.890625 34.8125 54.890625 23.390625 
Q 54.890625 11.625 47.5625 5.09375 
Q 40.234375 -1.421875 26.90625 -1.421875 
Q 22.3125 -1.421875 17.546875 -0.640625 
Q 12.796875 0.140625 7.71875 1.703125 
L 7.71875 11.625 
Q 12.109375 9.234375 16.796875 8.0625 
Q 21.484375 6.890625 26.703125 6.890625 
Q 35.15625 6.890625 40.078125 11.328125 
Q 45.015625 15.765625 45.015625 23.390625 
Q 45.015625 31 40.078125 35.4375 
Q 35.15625 39.890625 26.703125 39.890625 
Q 22.75 39.890625 18.8125 39.015625 
Q 14.890625 38.140625 10.796875 36.28125 
z
" id="DejaVuSans-53"/>
     </defs>
     <g transform="translate(271.191054 298.608856)scale(0.1 -0.1)">
      <use xlink:href="#DejaVuSans-50"/>
      <use x="63.623047" xlink:href="#DejaVuSans-46"/>
      <use x="95.410156" xlink:href="#DejaVuSans-53"/>
     </g>
    </g>
   </g>
   <g id="xtick_8">
    <g id="line2d_10">
     <path d="M 285.763709 267.192121 
L 289.148655 269.434907 
" style="fill:none;stroke:#000000;stroke-linecap:square;stroke-width:0.8;"/>
    </g>
    <g id="text_10">
     <!-- 5.0 -->
     <g transform="translate(288.607078 286.710526)scale(0.1 -0.1)">
      <use xlink:href="#DejaVuSans-53"/>
      <use x="63.623047" xlink:href="#DejaVuSans-46"/>
      <use x="95.410156" xlink:href="#DejaVuSans-48"/>
     </g>
    </g>
   </g>
   <g id="xtick_9">
    <g id="line2d_11">
     <path d="M 303.129586 255.415857 
L 306.514096 257.638269 
" style="fill:none;stroke:#000000;stroke-linecap:square;stroke-width:0.8;"/>
    </g>
    <g id="text_11">
     <!-- 7.5 -->
     <defs>
      <path d="M 8.203125 72.90625 
L 55.078125 72.90625 
L 55.078125 68.703125 
L 28.609375 0 
L 18.3125 0 
L 43.21875 64.59375 
L 8.203125 64.59375 
z
" id="DejaVuSans-55"/>
     </defs>
     <g transform="translate(305.865124 274.920122)scale(0.1 -0.1)">
      <use xlink:href="#DejaVuSans-55"/>
      <use x="63.623047" xlink:href="#DejaVuSans-46"/>
      <use x="95.410156" xlink:href="#DejaVuSans-53"/>
     </g>
    </g>
   </g>
   <g id="xtick_10">
    <g id="line2d_12">
     <path d="M 320.33812 243.746292 
L 323.722064 245.948604 
" style="fill:none;stroke:#000000;stroke-linecap:square;stroke-width:0.8;"/>
    </g>
    <g id="text_12">
     <!-- 10.0 -->
     <g transform="translate(319.786082 263.236185)scale(0.1 -0.1)">
      <use xlink:href="#DejaVuSans-49"/>
      <use x="63.623047" xlink:href="#DejaVuSans-48"/>
      <use x="127.246094" xlink:href="#DejaVuSans-46"/>
      <use x="159.033203" xlink:href="#DejaVuSans-48"/>
     </g>
    </g>
   </g>
   <g id="xtick_11">
    <g id="line2d_13">
     <path d="M 337.39144 232.181981 
L 340.77469 234.364466 
" style="fill:none;stroke:#000000;stroke-linecap:square;stroke-width:0.8;"/>
    </g>
    <g id="text_13">
     <!-- 12.5 -->
     <g transform="translate(336.734554 251.657277)scale(0.1 -0.1)">
      <use xlink:href="#DejaVuSans-49"/>
      <use x="63.623047" xlink:href="#DejaVuSans-50"/>
      <use x="127.246094" xlink:href="#DejaVuSans-46"/>
      <use x="159.033203" xlink:href="#DejaVuSans-53"/>
     </g>
    </g>
   </g>
   <g id="xtick_12">
    <g id="line2d_14">
     <path d="M 354.291637 220.721507 
L 357.67407 222.884431 
" style="fill:none;stroke:#000000;stroke-linecap:square;stroke-width:0.8;"/>
    </g>
    <g id="text_14">
     <!-- 15.0 -->
     <g transform="translate(353.531354 240.18199)scale(0.1 -0.1)">
      <use xlink:href="#DejaVuSans-49"/>
      <use x="63.623047" xlink:href="#DejaVuSans-53"/>
      <use x="127.246094" xlink:href="#DejaVuSans-46"/>
      <use x="159.033203" xlink:href="#DejaVuSans-48"/>
     </g>
    </g>
   </g>
   <g id="xtick_13">
    <g id="line2d_15">
     <path d="M 371.040765 209.363478 
L 374.422259 211.507102 
" style="fill:none;stroke:#000000;stroke-linecap:square;stroke-width:0.8;"/>
    </g>
    <g id="text_15">
     <!-- 17.5 -->
     <g transform="translate(370.178507 228.808938)scale(0.1 -0.1)">
      <use xlink:href="#DejaVuSans-49"/>
      <use x="63.623047" xlink:href="#DejaVuSans-55"/>
      <use x="127.246094" xlink:href="#DejaVuSans-46"/>
      <use x="159.033203" xlink:href="#DejaVuSans-53"/>
     </g>
    </g>
   </g>
  </g>
  <g id="axis3d_3">
   <g id="line2d_16">
    <path d="M 377.035175 206.774646 
L 389.888044 131.702994 
" style="fill:none;stroke:#000000;stroke-linecap:square;stroke-width:0.8;"/>
   </g>
   <g id="text_16">
    <!-- Z -->
    <defs>
     <path d="M 5.609375 72.90625 
L 62.890625 72.90625 
L 62.890625 65.375 
L 16.796875 8.296875 
L 64.015625 8.296875 
L 64.015625 0 
L 4.5 0 
L 4.5 7.515625 
L 50.59375 64.59375 
L 5.609375 64.59375 
z
" id="DejaVuSans-90"/>
    </defs>
    <g transform="translate(423.55013 173.691267)scale(0.1 -0.1)">
     <use xlink:href="#DejaVuSans-90"/>
    </g>
   </g>
   <g id="Line3DCollection_3">
    <path d="M 377.786612 202.385615 
L 240.985946 116.048934 
L 104.18528 202.385615 
" style="fill:none;stroke:#b0b0b0;stroke-width:0.8;"/>
    <path d="M 380.159351 188.52681 
L 240.985946 101.226969 
L 101.812541 188.52681 
" style="fill:none;stroke:#b0b0b0;stroke-width:0.8;"/>
    <path d="M 382.61585 174.178772 
L 240.985946 85.900284 
L 99.356042 174.178772 
" style="fill:none;stroke:#b0b0b0;stroke-width:0.8;"/>
    <path d="M 385.160625 159.315129 
L 240.985946 70.042654 
L 96.811267 159.315129 
" style="fill:none;stroke:#b0b0b0;stroke-width:0.8;"/>
    <path d="M 387.798521 143.90758 
L 240.985946 53.626003 
L 94.173371 143.90758 
" style="fill:none;stroke:#b0b0b0;stroke-width:0.8;"/>
   </g>
   <g id="xtick_14">
    <g id="line2d_17">
     <path d="M 376.653749 201.67065 
L 380.054266 203.81676 
" style="fill:none;stroke:#000000;stroke-linecap:square;stroke-width:0.8;"/>
    </g>
    <g id="text_17">
     <!-- 0.0 -->
     <g transform="translate(389.221466 209.984052)scale(0.1 -0.1)">
      <use xlink:href="#DejaVuSans-48"/>
      <use x="63.623047" xlink:href="#DejaVuSans-46"/>
      <use x="95.410156" xlink:href="#DejaVuSans-48"/>
     </g>
    </g>
   </g>
   <g id="xtick_15">
    <g id="line2d_18">
     <path d="M 379.006161 187.803444 
L 382.467728 189.974795 
" style="fill:none;stroke:#000000;stroke-linecap:square;stroke-width:0.8;"/>
    </g>
    <g id="text_18">
     <!-- 0.1 -->
     <g transform="translate(391.930452 196.125247)scale(0.1 -0.1)">
      <use xlink:href="#DejaVuSans-48"/>
      <use x="63.623047" xlink:href="#DejaVuSans-46"/>
      <use x="95.410156" xlink:href="#DejaVuSans-49"/>
     </g>
    </g>
   </g>
   <g id="xtick_16">
    <g id="line2d_19">
     <path d="M 381.44159 173.446851 
L 384.966438 175.643903 
" style="fill:none;stroke:#000000;stroke-linecap:square;stroke-width:0.8;"/>
    </g>
    <g id="text_19">
     <!-- 0.2 -->
     <g transform="translate(394.735069 181.777209)scale(0.1 -0.1)">
      <use xlink:href="#DejaVuSans-48"/>
      <use x="63.623047" xlink:href="#DejaVuSans-46"/>
      <use x="95.410156" xlink:href="#DejaVuSans-50"/>
     </g>
    </g>
   </g>
   <g id="xtick_17">
    <g id="line2d_20">
     <path d="M 383.964513 158.5745 
L 387.554995 160.797714 
" style="fill:none;stroke:#000000;stroke-linecap:square;stroke-width:0.8;"/>
    </g>
    <g id="text_20">
     <!-- 0.3 -->
     <g transform="translate(397.640471 166.913566)scale(0.1 -0.1)">
      <use xlink:href="#DejaVuSans-48"/>
      <use x="63.623047" xlink:href="#DejaVuSans-46"/>
      <use x="95.410156" xlink:href="#DejaVuSans-51"/>
     </g>
    </g>
   </g>
   <g id="xtick_18">
    <g id="line2d_21">
     <path d="M 386.579729 143.15809 
L 390.238332 145.407928 
" style="fill:none;stroke:#000000;stroke-linecap:square;stroke-width:0.8;"/>
    </g>
    <g id="text_21">
     <!-- 0.4 -->
     <g transform="translate(400.652191 151.506017)scale(0.1 -0.1)">
      <use xlink:href="#DejaVuSans-48"/>
      <use x="63.623047" xlink:href="#DejaVuSans-46"/>
      <use x="95.410156" xlink:href="#DejaVuSans-52"/>
     </g>
    </g>
   </g>
  </g>
  <g id="axes_1">
   <g id="Poly3DCollection_1">
    <path clip-path="url(#pb99be77205)" d="M 123.344533 201.277439 
L 164.933241 201.769269 
L 164.948022 201.748799 
z
" style="fill:#000080;"/>
    <path clip-path="url(#pb99be77205)" d="M 164.948022 201.748799 
L 165.396557 200.753595 
L 123.344533 201.277439 
z
" style="fill:#000084;"/>
    <path clip-path="url(#pb99be77205)" d="M 165.376209 200.91146 
L 165.356788 200.732144 
L 164.948022 201.748799 
z
" style="fill:#000089;"/>
    <path clip-path="url(#pb99be77205)" d="M 164.948022 201.748799 
L 165.356788 200.732144 
L 165.396557 200.753595 
z
" style="fill:#000089;"/>
    <path clip-path="url(#pb99be77205)" d="M 165.37442 200.709827 
L 165.356788 200.732144 
L 165.376209 200.91146 
z
" style="fill:#00008d;"/>
    <path clip-path="url(#pb99be77205)" d="M 165.396557 200.753595 
L 165.356788 200.732144 
L 165.37442 200.709827 
z
" style="fill:#00008d;"/>
    <path clip-path="url(#pb99be77205)" d="M 181.730687 207.829541 
L 164.933241 201.769269 
L 123.344533 201.277439 
z
" style="fill:#0000b2;"/>
    <path clip-path="url(#pb99be77205)" d="M 164.933241 201.769269 
L 181.730687 207.829541 
L 164.948022 201.748799 
z
" style="fill:#0000b2;"/>
    <path clip-path="url(#pb99be77205)" d="M 181.730687 207.829541 
L 165.376209 200.91146 
L 164.948022 201.748799 
z
" style="fill:#0000b6;"/>
    <path clip-path="url(#pb99be77205)" d="M 165.37442 200.709827 
L 165.376209 200.91146 
L 181.730687 207.829541 
z
" style="fill:#0000bf;"/>
    <path clip-path="url(#pb99be77205)" d="M 165.37442 200.709827 
L 181.730687 207.829541 
L 165.396557 200.753595 
z
" style="fill:#0000bf;"/>
    <path clip-path="url(#pb99be77205)" d="M 123.344533 201.277439 
L 173.444555 237.348389 
L 181.730687 207.829541 
z
" style="fill:#0000b2;"/>
    <path clip-path="url(#pb99be77205)" d="M 173.444555 237.348389 
L 186.394041 211.492837 
L 181.730687 207.829541 
z
" style="fill:#0000e3;"/>
    <path clip-path="url(#pb99be77205)" d="M 165.396557 200.753595 
L 210.711581 154.895121 
L 123.344533 201.277439 
z
" style="fill:#006cff;"/>
    <path clip-path="url(#pb99be77205)" d="M 194.584309 215.171114 
L 186.394041 211.492837 
L 173.444555 237.348389 
z
" style="fill:#0000ed;"/>
    <path clip-path="url(#pb99be77205)" d="M 240.634143 243.582656 
L 194.584309 215.171114 
L 173.444555 237.348389 
z
" style="fill:#0000ff;"/>
    <path clip-path="url(#pb99be77205)" d="M 173.444555 237.348389 
L 248.183673 248.798149 
L 240.634143 243.582656 
z
" style="fill:#0004ff;"/>
    <path clip-path="url(#pb99be77205)" d="M 181.730687 207.829541 
L 175.562195 139.360652 
L 165.396557 200.753595 
z
" style="fill:#1fffd7;"/>
    <path clip-path="url(#pb99be77205)" d="M 210.711581 154.895121 
L 345.234239 144.361202 
L 123.344533 201.277439 
z
" style="fill:#66ff90;"/>
    <path clip-path="url(#pb99be77205)" d="M 191.393351 155.475822 
L 186.394041 211.492837 
L 194.584309 215.171114 
z
" style="fill:#1fffd7;"/>
    <path clip-path="url(#pb99be77205)" d="M 186.394041 211.492837 
L 175.562195 139.360652 
L 181.730687 207.829541 
z
" style="fill:#40ffb7;"/>
    <path clip-path="url(#pb99be77205)" d="M 181.996898 145.069051 
L 210.711581 154.895121 
L 165.396557 200.753595 
z
" style="fill:#9aff5d;"/>
    <path clip-path="url(#pb99be77205)" d="M 191.393351 155.475822 
L 194.584309 215.171114 
L 240.634143 243.582656 
z
" style="fill:#33ffc4;"/>
    <path clip-path="url(#pb99be77205)" d="M 181.996898 145.069051 
L 165.396557 200.753595 
L 175.562195 139.360652 
z
" style="fill:#f4f802;"/>
    <path clip-path="url(#pb99be77205)" d="M 248.183673 248.798149 
L 207.151047 147.802211 
L 240.634143 243.582656 
z
" style="fill:#53ffa4;"/>
    <path clip-path="url(#pb99be77205)" d="M 345.234239 144.361202 
L 210.711581 154.895121 
L 228.552706 151.205629 
z
" style="fill:#ffa300;"/>
    <path clip-path="url(#pb99be77205)" d="M 175.562195 139.360652 
L 186.394041 211.492837 
L 191.393351 155.475822 
z
" style="fill:#ffe200;"/>
    <path clip-path="url(#pb99be77205)" d="M 248.183673 248.798149 
L 259.307744 169.213015 
L 238.153434 153.695114 
z
" style="fill:#e1ff16;"/>
    <path clip-path="url(#pb99be77205)" d="M 209.240856 160.331085 
L 220.801745 157.308516 
L 210.711581 154.895121 
z
" style="fill:#ff8d00;"/>
    <path clip-path="url(#pb99be77205)" d="M 228.552706 151.205629 
L 210.711581 154.895121 
L 233.510033 156.188555 
z
" style="fill:#ff7e00;"/>
    <path clip-path="url(#pb99be77205)" d="M 210.711581 154.895121 
L 196.822729 146.452456 
L 209.240856 160.331085 
z
" style="fill:#ff7a00;"/>
    <path clip-path="url(#pb99be77205)" d="M 302.652682 156.36242 
L 259.307744 169.213015 
L 248.183673 248.798149 
z
" style="fill:#ebff0c;"/>
    <path clip-path="url(#pb99be77205)" d="M 248.183673 248.798149 
L 219.756396 157.852876 
L 207.151047 147.802211 
z
" style="fill:#ffe600;"/>
    <path clip-path="url(#pb99be77205)" d="M 240.634143 243.582656 
L 207.151047 147.802211 
L 191.393351 155.475822 
z
" style="fill:#ffdb00;"/>
    <path clip-path="url(#pb99be77205)" d="M 238.153434 153.695114 
L 219.756396 157.852876 
L 248.183673 248.798149 
z
" style="fill:#ffea00;"/>
    <path clip-path="url(#pb99be77205)" d="M 228.552706 151.205629 
L 248.620628 143.915708 
L 345.234239 144.361202 
z
" style="fill:#ff3f00;"/>
    <path clip-path="url(#pb99be77205)" d="M 233.510033 156.188555 
L 210.711581 154.895121 
L 232.720219 153.853918 
z
" style="fill:#ff5d00;"/>
    <path clip-path="url(#pb99be77205)" d="M 196.822729 146.452456 
L 210.711581 154.895121 
L 181.996898 145.069051 
z
" style="fill:#ff4700;"/>
    <path clip-path="url(#pb99be77205)" d="M 220.801745 157.308516 
L 232.720219 153.853918 
L 210.711581 154.895121 
z
" style="fill:#ff5d00;"/>
    <path clip-path="url(#pb99be77205)" d="M 205.503578 163.9304 
L 205.700272 145.261635 
L 209.240856 160.331085 
z
" style="fill:#ff6000;"/>
    <path clip-path="url(#pb99be77205)" d="M 209.240856 160.331085 
L 204.43513 143.879344 
L 205.503578 163.9304 
z
" style="fill:#ff6000;"/>
    <path clip-path="url(#pb99be77205)" d="M 219.756396 157.852876 
L 220.801745 157.308516 
L 209.240856 160.331085 
z
" style="fill:#ff5d00;"/>
    <path clip-path="url(#pb99be77205)" d="M 258.134118 165.848206 
L 237.894858 148.742071 
L 259.307744 169.213015 
z
" style="fill:#ff6400;"/>
    <path clip-path="url(#pb99be77205)" d="M 203.194745 150.317718 
L 196.822729 146.452456 
L 195.967134 159.012638 
z
" style="fill:#ff3000;"/>
    <path clip-path="url(#pb99be77205)" d="M 233.510033 156.188555 
L 237.894858 148.742071 
L 228.552706 151.205629 
z
" style="fill:#ff3000;"/>
    <path clip-path="url(#pb99be77205)" d="M 253.312814 145.08974 
L 258.134118 165.848206 
L 259.307744 169.213015 
z
" style="fill:#ff4e00;"/>
    <path clip-path="url(#pb99be77205)" d="M 209.240856 160.331085 
L 207.151047 147.802211 
L 219.756396 157.852876 
z
" style="fill:#ff3800;"/>
    <path clip-path="url(#pb99be77205)" d="M 203.194745 150.317718 
L 205.700272 145.261635 
L 205.503578 163.9304 
z
" style="fill:#ff3000;"/>
    <path clip-path="url(#pb99be77205)" d="M 205.503578 163.9304 
L 204.43513 143.879344 
L 203.194745 150.317718 
z
" style="fill:#ff2d00;"/>
    <path clip-path="url(#pb99be77205)" d="M 204.43513 143.879344 
L 209.240856 160.331085 
L 196.822729 146.452456 
z
" style="fill:#ff1a00;"/>
    <path clip-path="url(#pb99be77205)" d="M 191.393351 155.475822 
L 207.151047 147.802211 
L 195.967134 159.012638 
z
" style="fill:#ff2900;"/>
    <path clip-path="url(#pb99be77205)" d="M 203.194745 150.317718 
L 195.967134 159.012638 
L 207.151047 147.802211 
z
" style="fill:#ff1e00;"/>
    <path clip-path="url(#pb99be77205)" d="M 302.652682 156.36242 
L 248.183673 248.798149 
L 351.906097 148.921613 
z
" style="fill:#ff9800;"/>
    <path clip-path="url(#pb99be77205)" d="M 196.822729 146.452456 
L 186.832209 138.486584 
L 195.967134 159.012638 
z
" style="fill:#ed0400;"/>
    <path clip-path="url(#pb99be77205)" d="M 191.393351 155.475822 
L 195.967134 159.012638 
L 186.832209 138.486584 
z
" style="fill:#fa0f00;"/>
    <path clip-path="url(#pb99be77205)" d="M 259.307744 169.213015 
L 237.894858 148.742071 
L 238.153434 153.695114 
z
" style="fill:#ff2500;"/>
    <path clip-path="url(#pb99be77205)" d="M 228.552706 151.205629 
L 237.894858 148.742071 
L 248.620628 143.915708 
z
" style="fill:#e80000;"/>
    <path clip-path="url(#pb99be77205)" d="M 207.151047 147.802211 
L 209.240856 160.331085 
L 205.700272 145.261635 
z
" style="fill:#f60b00;"/>
    <path clip-path="url(#pb99be77205)" d="M 345.234239 144.361202 
L 248.620628 143.915708 
L 302.652682 156.36242 
z
" style="fill:#e80000;"/>
    <path clip-path="url(#pb99be77205)" d="M 219.756396 157.852876 
L 238.153434 153.695114 
L 220.801745 157.308516 
z
" style="fill:#ff1a00;"/>
    <path clip-path="url(#pb99be77205)" d="M 248.620628 143.915708 
L 237.894858 148.742071 
L 258.134118 165.848206 
z
" style="fill:#f60b00;"/>
    <path clip-path="url(#pb99be77205)" d="M 233.510033 156.188555 
L 232.720219 153.853918 
L 238.153434 153.695114 
z
" style="fill:#f60b00;"/>
    <path clip-path="url(#pb99be77205)" d="M 220.801745 157.308516 
L 238.153434 153.695114 
L 232.720219 153.853918 
z
" style="fill:#f60b00;"/>
    <path clip-path="url(#pb99be77205)" d="M 191.393351 155.475822 
L 181.996898 145.069051 
L 175.562195 139.360652 
z
" style="fill:#cd0000;"/>
    <path clip-path="url(#pb99be77205)" d="M 196.822729 146.452456 
L 203.194745 150.317718 
L 204.43513 143.879344 
z
" style="fill:#c80000;"/>
    <path clip-path="url(#pb99be77205)" d="M 238.153434 153.695114 
L 237.894858 148.742071 
L 233.510033 156.188555 
z
" style="fill:#e40000;"/>
    <path clip-path="url(#pb99be77205)" d="M 181.996898 145.069051 
L 186.832209 138.486584 
L 196.822729 146.452456 
z
" style="fill:#b60000;"/>
    <path clip-path="url(#pb99be77205)" d="M 186.832209 138.486584 
L 181.996898 145.069051 
L 191.393351 155.475822 
z
" style="fill:#c40000;"/>
    <path clip-path="url(#pb99be77205)" d="M 248.620628 143.915708 
L 258.134118 165.848206 
L 253.312814 145.08974 
z
" style="fill:#da0000;"/>
    <path clip-path="url(#pb99be77205)" d="M 351.906097 148.921613 
L 345.234239 144.361202 
L 302.652682 156.36242 
z
" style="fill:#d10000;"/>
    <path clip-path="url(#pb99be77205)" d="M 259.307744 169.213015 
L 302.652682 156.36242 
L 253.312814 145.08974 
z
" style="fill:#ed0400;"/>
    <path clip-path="url(#pb99be77205)" d="M 205.700272 145.261635 
L 203.194745 150.317718 
L 207.151047 147.802211 
z
" style="fill:#b60000;"/>
    <path clip-path="url(#pb99be77205)" d="M 253.312814 145.08974 
L 302.652682 156.36242 
L 248.620628 143.915708 
z
" style="fill:#800000;"/>
   </g>
   <g id="Path3DCollection_1">
    <defs>
     <path d="M 0 0.790569 
C 0.209661 0.790569 0.410764 0.70727 0.559017 0.559017 
C 0.70727 0.410764 0.790569 0.209661 0.790569 0 
C 0.790569 -0.209661 0.70727 -0.410764 0.559017 -0.559017 
C 0.410764 -0.70727 0.209661 -0.790569 0 -0.790569 
C -0.209661 -0.790569 -0.410764 -0.70727 -0.559017 -0.559017 
C -0.70727 -0.410764 -0.790569 -0.209661 -0.790569 0 
C -0.790569 0.209661 -0.70727 0.410764 -0.559017 0.559017 
C -0.410764 0.70727 -0.209661 0.790569 0 0.790569 
z
" id="C0_0_a5bf6f111a"/>
    </defs>
    <g clip-path="url(#pb99be77205)">
     <use style="fill-opacity:0.5;stroke:#000000;stroke-opacity:0.5;" x="164.933241" xlink:href="#C0_0_a5bf6f111a" y="201.769269"/>
    </g>
    <g clip-path="url(#pb99be77205)">
     <use style="fill-opacity:0.5;stroke:#000000;stroke-opacity:0.5;" x="173.444555" xlink:href="#C0_0_a5bf6f111a" y="237.348389"/>
    </g>
    <g clip-path="url(#pb99be77205)">
     <use style="fill-opacity:0.5;stroke:#000000;stroke-opacity:0.5;" x="351.906097" xlink:href="#C0_0_a5bf6f111a" y="148.921613"/>
    </g>
    <g clip-path="url(#pb99be77205)">
     <use style="fill-opacity:0.5;stroke:#000000;stroke-opacity:0.5;" x="164.933241" xlink:href="#C0_0_a5bf6f111a" y="201.769269"/>
    </g>
    <g clip-path="url(#pb99be77205)">
     <use style="fill-opacity:0.5;stroke:#000000;stroke-opacity:0.5;" x="173.444555" xlink:href="#C0_0_a5bf6f111a" y="237.348389"/>
    </g>
    <g clip-path="url(#pb99be77205)">
     <use style="fill-opacity:0.5;stroke:#000000;stroke-opacity:0.5;" x="351.906097" xlink:href="#C0_0_a5bf6f111a" y="148.921613"/>
    </g>
    <g clip-path="url(#pb99be77205)">
     <use style="fill-opacity:0.5;stroke:#000000;stroke-opacity:0.5;" x="186.832209" xlink:href="#C0_0_a5bf6f111a" y="138.486584"/>
    </g>
    <g clip-path="url(#pb99be77205)">
     <use style="fill-opacity:0.5;stroke:#000000;stroke-opacity:0.5;" x="123.344533" xlink:href="#C0_0_a5bf6f111a" y="201.277439"/>
    </g>
    <g clip-path="url(#pb99be77205)">
     <use style="fill-opacity:0.5;stroke:#000000;stroke-opacity:0.5;" x="123.344533" xlink:href="#C0_0_a5bf6f111a" y="201.277439"/>
    </g>
    <g clip-path="url(#pb99be77205)">
     <use style="fill-opacity:0.5;stroke:#000000;stroke-opacity:0.5;" x="164.948022" xlink:href="#C0_0_a5bf6f111a" y="201.748799"/>
    </g>
    <g clip-path="url(#pb99be77205)">
     <use style="fill-opacity:0.5;stroke:#000000;stroke-opacity:0.5;" x="165.396557" xlink:href="#C0_0_a5bf6f111a" y="200.753595"/>
    </g>
    <g clip-path="url(#pb99be77205)">
     <use style="fill-opacity:0.5;stroke:#000000;stroke-opacity:0.5;" x="165.396557" xlink:href="#C0_0_a5bf6f111a" y="200.753595"/>
    </g>
    <g clip-path="url(#pb99be77205)">
     <use style="fill-opacity:0.5;stroke:#000000;stroke-opacity:0.5;" x="196.822729" xlink:href="#C0_0_a5bf6f111a" y="146.452456"/>
    </g>
    <g clip-path="url(#pb99be77205)">
     <use style="fill-opacity:0.5;stroke:#000000;stroke-opacity:0.5;" x="209.240856" xlink:href="#C0_0_a5bf6f111a" y="160.331085"/>
    </g>
    <g clip-path="url(#pb99be77205)">
     <use style="fill-opacity:0.5;stroke:#000000;stroke-opacity:0.5;" x="191.393351" xlink:href="#C0_0_a5bf6f111a" y="155.475822"/>
    </g>
    <g clip-path="url(#pb99be77205)">
     <use style="fill-opacity:0.5;stroke:#000000;stroke-opacity:0.5;" x="345.234239" xlink:href="#C0_0_a5bf6f111a" y="144.361202"/>
    </g>
    <g clip-path="url(#pb99be77205)">
     <use style="fill-opacity:0.5;stroke:#000000;stroke-opacity:0.5;" x="253.312814" xlink:href="#C0_0_a5bf6f111a" y="145.08974"/>
    </g>
    <g clip-path="url(#pb99be77205)">
     <use style="fill-opacity:0.5;stroke:#000000;stroke-opacity:0.5;" x="123.344533" xlink:href="#C0_0_a5bf6f111a" y="201.277439"/>
    </g>
    <g clip-path="url(#pb99be77205)">
     <use style="fill-opacity:0.5;stroke:#000000;stroke-opacity:0.5;" x="181.730687" xlink:href="#C0_0_a5bf6f111a" y="207.829541"/>
    </g>
    <g clip-path="url(#pb99be77205)">
     <use style="fill-opacity:0.5;stroke:#000000;stroke-opacity:0.5;" x="186.394041" xlink:href="#C0_0_a5bf6f111a" y="211.492837"/>
    </g>
    <g clip-path="url(#pb99be77205)">
     <use style="fill-opacity:0.5;stroke:#000000;stroke-opacity:0.5;" x="194.584309" xlink:href="#C0_0_a5bf6f111a" y="215.171114"/>
    </g>
    <g clip-path="url(#pb99be77205)">
     <use style="fill-opacity:0.5;stroke:#000000;stroke-opacity:0.5;" x="240.634143" xlink:href="#C0_0_a5bf6f111a" y="243.582656"/>
    </g>
    <g clip-path="url(#pb99be77205)">
     <use style="fill-opacity:0.5;stroke:#000000;stroke-opacity:0.5;" x="248.183673" xlink:href="#C0_0_a5bf6f111a" y="248.798149"/>
    </g>
    <g clip-path="url(#pb99be77205)">
     <use style="fill-opacity:0.5;stroke:#000000;stroke-opacity:0.5;" x="165.37442" xlink:href="#C0_0_a5bf6f111a" y="200.709827"/>
    </g>
    <g clip-path="url(#pb99be77205)">
     <use style="fill-opacity:0.5;stroke:#000000;stroke-opacity:0.5;" x="181.996898" xlink:href="#C0_0_a5bf6f111a" y="145.069051"/>
    </g>
    <g clip-path="url(#pb99be77205)">
     <use style="fill-opacity:0.5;stroke:#000000;stroke-opacity:0.5;" x="204.43513" xlink:href="#C0_0_a5bf6f111a" y="143.879344"/>
    </g>
    <g clip-path="url(#pb99be77205)">
     <use style="fill-opacity:0.5;stroke:#000000;stroke-opacity:0.5;" x="205.700272" xlink:href="#C0_0_a5bf6f111a" y="145.261635"/>
    </g>
    <g clip-path="url(#pb99be77205)">
     <use style="fill-opacity:0.5;stroke:#000000;stroke-opacity:0.5;" x="207.151047" xlink:href="#C0_0_a5bf6f111a" y="147.802211"/>
    </g>
    <g clip-path="url(#pb99be77205)">
     <use style="fill-opacity:0.5;stroke:#000000;stroke-opacity:0.5;" x="205.503578" xlink:href="#C0_0_a5bf6f111a" y="163.9304"/>
    </g>
    <g clip-path="url(#pb99be77205)">
     <use style="fill-opacity:0.5;stroke:#000000;stroke-opacity:0.5;" x="165.376209" xlink:href="#C0_0_a5bf6f111a" y="200.91146"/>
    </g>
    <g clip-path="url(#pb99be77205)">
     <use style="fill-opacity:0.5;stroke:#000000;stroke-opacity:0.5;" x="195.967134" xlink:href="#C0_0_a5bf6f111a" y="159.012638"/>
    </g>
    <g clip-path="url(#pb99be77205)">
     <use style="fill-opacity:0.5;stroke:#000000;stroke-opacity:0.5;" x="232.720219" xlink:href="#C0_0_a5bf6f111a" y="153.853918"/>
    </g>
    <g clip-path="url(#pb99be77205)">
     <use style="fill-opacity:0.5;stroke:#000000;stroke-opacity:0.5;" x="238.153434" xlink:href="#C0_0_a5bf6f111a" y="153.695114"/>
    </g>
    <g clip-path="url(#pb99be77205)">
     <use style="fill-opacity:0.5;stroke:#000000;stroke-opacity:0.5;" x="259.307744" xlink:href="#C0_0_a5bf6f111a" y="169.213015"/>
    </g>
    <g clip-path="url(#pb99be77205)">
     <use style="fill-opacity:0.5;stroke:#000000;stroke-opacity:0.5;" x="258.134118" xlink:href="#C0_0_a5bf6f111a" y="165.848206"/>
    </g>
    <g clip-path="url(#pb99be77205)">
     <use style="fill-opacity:0.5;stroke:#000000;stroke-opacity:0.5;" x="123.344533" xlink:href="#C0_0_a5bf6f111a" y="201.277439"/>
    </g>
    <g clip-path="url(#pb99be77205)">
     <use style="fill-opacity:0.5;stroke:#000000;stroke-opacity:0.5;" x="175.562195" xlink:href="#C0_0_a5bf6f111a" y="139.360652"/>
    </g>
    <g clip-path="url(#pb99be77205)">
     <use style="fill-opacity:0.5;stroke:#000000;stroke-opacity:0.5;" x="228.552706" xlink:href="#C0_0_a5bf6f111a" y="151.205629"/>
    </g>
    <g clip-path="url(#pb99be77205)">
     <use style="fill-opacity:0.5;stroke:#000000;stroke-opacity:0.5;" x="220.801745" xlink:href="#C0_0_a5bf6f111a" y="157.308516"/>
    </g>
    <g clip-path="url(#pb99be77205)">
     <use style="fill-opacity:0.5;stroke:#000000;stroke-opacity:0.5;" x="219.756396" xlink:href="#C0_0_a5bf6f111a" y="157.852876"/>
    </g>
    <g clip-path="url(#pb99be77205)">
     <use style="fill-opacity:0.5;stroke:#000000;stroke-opacity:0.5;" x="203.194745" xlink:href="#C0_0_a5bf6f111a" y="150.317718"/>
    </g>
    <g clip-path="url(#pb99be77205)">
     <use style="fill-opacity:0.5;stroke:#000000;stroke-opacity:0.5;" x="165.356788" xlink:href="#C0_0_a5bf6f111a" y="200.732144"/>
    </g>
    <g clip-path="url(#pb99be77205)">
     <use style="fill-opacity:0.5;stroke:#000000;stroke-opacity:0.5;" x="210.711581" xlink:href="#C0_0_a5bf6f111a" y="154.895121"/>
    </g>
    <g clip-path="url(#pb99be77205)">
     <use style="fill-opacity:0.5;stroke:#000000;stroke-opacity:0.5;" x="233.510033" xlink:href="#C0_0_a5bf6f111a" y="156.188555"/>
    </g>
    <g clip-path="url(#pb99be77205)">
     <use style="fill-opacity:0.5;stroke:#000000;stroke-opacity:0.5;" x="248.620628" xlink:href="#C0_0_a5bf6f111a" y="143.915708"/>
    </g>
    <g clip-path="url(#pb99be77205)">
     <use style="fill-opacity:0.5;stroke:#000000;stroke-opacity:0.5;" x="302.652682" xlink:href="#C0_0_a5bf6f111a" y="156.36242"/>
    </g>
    <g clip-path="url(#pb99be77205)">
     <use style="fill-opacity:0.5;stroke:#000000;stroke-opacity:0.5;" x="237.894858" xlink:href="#C0_0_a5bf6f111a" y="148.742071"/>
    </g>
   </g>
  </g>
 </g>
 <defs>
  <clipPath id="pb99be77205">
   <rect height="266.112" width="357.12" x="57.6" y="41.472"/>
  </clipPath>
 </defs>
</svg>
