<?xml version="1.0" encoding="utf-8" standalone="no"?>
<!DOCTYPE svg PUBLIC "-//W3C//DTD SVG 1.1//EN"
  "http://www.w3.org/Graphics/SVG/1.1/DTD/svg11.dtd">
<!-- Created with matplotlib (https://matplotlib.org/) -->
<svg height="345.6pt" version="1.1" viewBox="0 0 460.8 345.6" width="460.8pt" xmlns="http://www.w3.org/2000/svg" xmlns:xlink="http://www.w3.org/1999/xlink">
 <defs>
  <style type="text/css">
*{stroke-linecap:butt;stroke-linejoin:round;}
  </style>
 </defs>
 <g id="figure_1">
  <g id="patch_1">
   <path d="M 0 345.6 
L 460.8 345.6 
L 460.8 0 
L 0 0 
z
" style="fill:#ffffff;"/>
  </g>
  <g id="axes_1">
   <g id="patch_2">
    <path d="M 57.6 307.584 
L 414.72 307.584 
L 414.72 41.472 
L 57.6 41.472 
z
" style="fill:#ffffff;"/>
   </g>
   <g id="PathCollection_1">
    <path clip-path="url(#pade2ac49a7)" d="M 89.47818 61.979748 
C 91.709002 61.979748 93.848755 61.093433 95.426184 59.516004 
C 97.003613 57.938575 97.889928 55.798822 97.889928 53.568 
C 97.889928 51.337178 97.003613 49.197425 95.426184 47.619996 
C 93.848755 46.042567 91.709002 45.156252 89.47818 45.156252 
C 87.247359 45.156252 85.107605 46.042567 83.530176 47.619996 
C 81.952747 49.197425 81.066432 51.337178 81.066432 53.568 
C 81.066432 55.798822 81.952747 57.938575 83.530176 59.516004 
C 85.107605 61.093433 87.247359 61.979748 89.47818 61.979748 
z
" style="fill:#08306b;fill-opacity:0.7;stroke:#000000;stroke-opacity:0.7;"/>
    <path clip-path="url(#pade2ac49a7)" d="M 73.832727 207.272508 
C 75.970493 207.272508 78.020989 206.423164 79.532618 204.911536 
C 81.044246 203.399907 81.89359 201.349411 81.89359 199.211646 
C 81.89359 197.07388 81.044246 195.023384 79.532618 193.511755 
C 78.020989 192.000127 75.970493 191.150783 73.832727 191.150783 
C 71.694962 191.150783 69.644466 192.000127 68.132837 193.511755 
C 66.621208 195.023384 65.771865 197.07388 65.771865 199.211646 
C 65.771865 201.349411 66.621208 203.399907 68.132837 204.911536 
C 69.644466 206.423164 71.694962 207.272508 73.832727 207.272508 
z
" style="fill:#125da6;fill-opacity:0.7;stroke:#000000;stroke-opacity:0.7;"/>
    <path clip-path="url(#pade2ac49a7)" d="M 398.487273 278.458177 
C 399.038487 278.458177 399.567199 278.239177 399.956967 277.84941 
C 400.346734 277.459642 400.565734 276.93093 400.565734 276.379716 
C 400.565734 275.828502 400.346734 275.299789 399.956967 274.910022 
C 399.567199 274.520255 399.038487 274.301255 398.487273 274.301255 
C 397.936058 274.301255 397.407346 274.520255 397.017579 274.910022 
C 396.627812 275.299789 396.408812 275.828502 396.408812 276.379716 
C 396.408812 276.93093 396.627812 277.459642 397.017579 277.84941 
C 397.407346 278.239177 397.936058 278.458177 398.487273 278.458177 
z
" style="fill:#812804;fill-opacity:0.7;stroke:#000000;stroke-opacity:0.7;"/>
    <path clip-path="url(#pade2ac49a7)" d="M 99.387658 216.118326 
C 101.471992 216.118326 103.471238 215.290211 104.945085 213.816364 
C 106.418932 212.342517 107.247047 210.343271 107.247047 208.258937 
C 107.247047 206.174602 106.418932 204.175356 104.945085 202.701509 
C 103.471238 201.227662 101.471992 200.399547 99.387658 200.399547 
C 97.303323 200.399547 95.304077 201.227662 93.83023 202.701509 
C 92.356383 204.175356 91.528269 206.174602 91.528269 208.258937 
C 91.528269 210.343271 92.356383 212.342517 93.83023 213.816364 
C 95.304077 215.290211 97.303323 216.118326 99.387658 216.118326 
z
" style="fill:#2676b7;fill-opacity:0.7;stroke:#000000;stroke-opacity:0.7;"/>
    <path clip-path="url(#pade2ac49a7)" d="M 136.688075 236.007489 
C 138.525839 236.007489 140.28858 235.277338 141.588075 233.977843 
C 142.887571 232.678348 143.617722 230.915607 143.617722 229.077843 
C 143.617722 227.240079 142.887571 225.477338 141.588075 224.177843 
C 140.28858 222.878348 138.525839 222.148196 136.688075 222.148196 
C 134.850312 222.148196 133.087571 222.878348 131.788075 224.177843 
C 130.48858 225.477338 129.758429 227.240079 129.758429 229.077843 
C 129.758429 230.915607 130.48858 232.678348 131.788075 233.977843 
C 133.087571 235.277338 134.850312 236.007489 136.688075 236.007489 
z
" style="fill:#b1d2e8;fill-opacity:0.7;stroke:#000000;stroke-opacity:0.7;"/>
    <path clip-path="url(#pade2ac49a7)" d="M 173.988493 252.965924 
C 175.6224 252.965924 177.189607 252.316765 178.344954 251.161419 
C 179.500301 250.006072 180.149459 248.438865 180.149459 246.804958 
C 180.149459 245.171051 179.500301 243.603844 178.344954 242.448497 
C 177.189607 241.29315 175.6224 240.643992 173.988493 240.643992 
C 172.354586 240.643992 170.787379 241.29315 169.632032 242.448497 
C 168.476685 243.603844 167.827527 245.171051 167.827527 246.804958 
C 167.827527 248.438865 168.476685 250.006072 169.632032 251.161419 
C 170.787379 252.316765 172.354586 252.965924 173.988493 252.965924 
z
" style="fill:#f4f9fe;fill-opacity:0.7;stroke:#000000;stroke-opacity:0.7;"/>
    <path clip-path="url(#pade2ac49a7)" d="M 211.28891 269.800973 
C 212.6896 269.800973 214.033109 269.244474 215.023546 268.254037 
C 216.013982 267.2636 216.570482 265.920091 216.570482 264.519402 
C 216.570482 263.118712 216.013982 261.775203 215.023546 260.784766 
C 214.033109 259.79433 212.6896 259.23783 211.28891 259.23783 
C 209.888221 259.23783 208.544712 259.79433 207.554275 260.784766 
C 206.563838 261.775203 206.007339 263.118712 206.007339 264.519402 
C 206.007339 265.920091 206.563838 267.2636 207.554275 268.254037 
C 208.544712 269.244474 209.888221 269.800973 211.28891 269.800973 
z
" style="fill:#fdc793;fill-opacity:0.7;stroke:#000000;stroke-opacity:0.7;"/>
    <path clip-path="url(#pade2ac49a7)" d="M 248.589328 278.475628 
C 249.790379 278.475628 250.9424 277.998445 251.791671 277.149174 
C 252.640942 276.299903 253.118125 275.147882 253.118125 273.946831 
C 253.118125 272.74578 252.640942 271.593759 251.791671 270.744488 
C 250.9424 269.895217 249.790379 269.418034 248.589328 269.418034 
C 247.388277 269.418034 246.236256 269.895217 245.386985 270.744488 
C 244.537714 271.593759 244.060531 272.74578 244.060531 273.946831 
C 244.060531 275.147882 244.537714 276.299903 245.386985 277.149174 
C 246.236256 277.998445 247.388277 278.475628 248.589328 278.475628 
z
" style="fill:#fd8c3b;fill-opacity:0.7;stroke:#000000;stroke-opacity:0.7;"/>
    <path clip-path="url(#pade2ac49a7)" d="M 285.889746 252.813773 
C 286.767524 252.813773 287.609469 252.465029 288.230152 251.844346 
C 288.850834 251.223663 289.199579 250.381718 289.199579 249.50394 
C 289.199579 248.626161 288.850834 247.784217 288.230152 247.163534 
C 287.609469 246.542851 286.767524 246.194106 285.889746 246.194106 
C 285.011967 246.194106 284.170023 246.542851 283.54934 247.163534 
C 282.928657 247.784217 282.579912 248.626161 282.579912 249.50394 
C 282.579912 250.381718 282.928657 251.223663 283.54934 251.844346 
C 284.170023 252.465029 285.011967 252.813773 285.889746 252.813773 
z
" style="fill:#c74102;fill-opacity:0.7;stroke:#000000;stroke-opacity:0.7;"/>
    <path clip-path="url(#pade2ac49a7)" d="M 323.190163 276.16099 
C 323.777365 276.16099 324.340596 275.927692 324.75581 275.512478 
C 325.171024 275.097263 325.404322 274.534033 325.404322 273.946831 
C 325.404322 273.359629 325.171024 272.796398 324.75581 272.381184 
C 324.340596 271.96597 323.777365 271.732672 323.190163 271.732672 
C 322.602961 271.732672 322.039731 271.96597 321.624516 272.381184 
C 321.209302 272.796398 320.976004 273.359629 320.976004 273.946831 
C 320.976004 274.534033 321.209302 275.097263 321.624516 275.512478 
C 322.039731 275.927692 322.602961 276.16099 323.190163 276.16099 
z
" style="fill:#862a04;fill-opacity:0.7;stroke:#000000;stroke-opacity:0.7;"/>
    <path clip-path="url(#pade2ac49a7)" d="M 332.428233 275.931774 
C 332.954646 275.931774 333.45957 275.722628 333.8318 275.350398 
C 334.20403 274.978168 334.413177 274.473244 334.413177 273.946831 
C 334.413177 273.420418 334.20403 272.915494 333.8318 272.543264 
C 333.45957 272.171034 332.954646 271.961888 332.428233 271.961888 
C 331.90182 271.961888 331.396897 272.171034 331.024666 272.543264 
C 330.652436 272.915494 330.44329 273.420418 330.44329 273.946831 
C 330.44329 274.473244 330.652436 274.978168 331.024666 275.350398 
C 331.396897 275.722628 331.90182 275.931774 332.428233 275.931774 
z
" style="fill:#7f2704;fill-opacity:0.7;stroke:#000000;stroke-opacity:0.7;"/>
    <path clip-path="url(#pade2ac49a7)" d="M 99.387658 200.260673 
C 101.470431 200.260673 103.46818 199.433178 104.940923 197.960435 
C 106.413666 196.487692 107.24116 194.489944 107.24116 192.40717 
C 107.24116 190.324397 106.413666 188.326649 104.940923 186.853906 
C 103.46818 185.381162 101.470431 184.553668 99.387658 184.553668 
C 97.304885 184.553668 95.307136 185.381162 93.834393 186.853906 
C 92.36165 188.326649 91.534155 190.324397 91.534155 192.40717 
C 91.534155 194.489944 92.36165 196.487692 93.834393 197.960435 
C 95.307136 199.433178 97.304885 200.260673 99.387658 200.260673 
z
" style="fill:#2676b7;fill-opacity:0.7;stroke:#000000;stroke-opacity:0.7;"/>
    <path clip-path="url(#pade2ac49a7)" d="M 136.688075 236.007489 
C 138.525839 236.007489 140.28858 235.277338 141.588075 233.977843 
C 142.887571 232.678348 143.617722 230.915607 143.617722 229.077843 
C 143.617722 227.240079 142.887571 225.477338 141.588075 224.177843 
C 140.28858 222.878348 138.525839 222.148196 136.688075 222.148196 
C 134.850312 222.148196 133.087571 222.878348 131.788075 224.177843 
C 130.48858 225.477338 129.758429 227.240079 129.758429 229.077843 
C 129.758429 230.915607 130.48858 232.678348 131.788075 233.977843 
C 133.087571 235.277338 134.850312 236.007489 136.688075 236.007489 
z
" style="fill:#b1d2e8;fill-opacity:0.7;stroke:#000000;stroke-opacity:0.7;"/>
    <path clip-path="url(#pade2ac49a7)" d="M 173.988493 252.965924 
C 175.6224 252.965924 177.189607 252.316765 178.344954 251.161419 
C 179.500301 250.006072 180.149459 248.438865 180.149459 246.804958 
C 180.149459 245.171051 179.500301 243.603844 178.344954 242.448497 
C 177.189607 241.29315 175.6224 240.643992 173.988493 240.643992 
C 172.354586 240.643992 170.787379 241.29315 169.632032 242.448497 
C 168.476685 243.603844 167.827527 245.171051 167.827527 246.804958 
C 167.827527 248.438865 168.476685 250.006072 169.632032 251.161419 
C 170.787379 252.316765 172.354586 252.965924 173.988493 252.965924 
z
" style="fill:#f4f9fe;fill-opacity:0.7;stroke:#000000;stroke-opacity:0.7;"/>
    <path clip-path="url(#pade2ac49a7)" d="M 211.28891 256.637508 
C 212.717011 256.637508 214.086813 256.070118 215.096633 255.060298 
C 216.106453 254.050478 216.673843 252.680677 216.673843 251.252576 
C 216.673843 249.824475 216.106453 248.454673 215.096633 247.444853 
C 214.086813 246.435034 212.717011 245.867643 211.28891 245.867643 
C 209.86081 245.867643 208.491008 246.435034 207.481188 247.444853 
C 206.471368 248.454673 205.903978 249.824475 205.903978 251.252576 
C 205.903978 252.680677 206.471368 254.050478 207.481188 255.060298 
C 208.491008 256.070118 209.86081 256.637508 211.28891 256.637508 
z
" style="fill:#fdcfa1;fill-opacity:0.7;stroke:#000000;stroke-opacity:0.7;"/>
    <path clip-path="url(#pade2ac49a7)" d="M 248.589328 223.486226 
C 249.781341 223.486226 250.924694 223.012634 251.767574 222.169754 
C 252.610455 221.326873 253.084047 220.183521 253.084047 218.991507 
C 253.084047 217.799494 252.610455 216.656142 251.767574 215.813261 
C 250.924694 214.97038 249.781341 214.496788 248.589328 214.496788 
C 247.397315 214.496788 246.253962 214.97038 245.411082 215.813261 
C 244.568201 216.656142 244.094609 217.799494 244.094609 218.991507 
C 244.094609 220.183521 244.568201 221.326873 245.411082 222.169754 
C 246.253962 223.012634 247.397315 223.486226 248.589328 223.486226 
z
" style="fill:#fc8a38;fill-opacity:0.7;stroke:#000000;stroke-opacity:0.7;"/>
    <path clip-path="url(#pade2ac49a7)" d="M 285.889746 251.469485 
C 286.767223 251.469485 287.60888 251.120859 288.22935 250.500389 
C 288.849821 249.879919 289.198446 249.038262 289.198446 248.160784 
C 289.198446 247.283307 288.849821 246.44165 288.22935 245.82118 
C 287.60888 245.200709 286.767223 244.852084 285.889746 244.852084 
C 285.012268 244.852084 284.170611 245.200709 283.550141 245.82118 
C 282.929671 246.44165 282.581045 247.283307 282.581045 248.160784 
C 282.581045 249.038262 282.929671 249.879919 283.550141 250.500389 
C 284.170611 251.120859 285.012268 251.469485 285.889746 251.469485 
z
" style="fill:#c74102;fill-opacity:0.7;stroke:#000000;stroke-opacity:0.7;"/>
    <path clip-path="url(#pade2ac49a7)" d="M 323.190163 253.869349 
C 323.874058 253.869349 324.530035 253.597635 325.013621 253.114048 
C 325.497208 252.630461 325.768923 251.974485 325.768923 251.29059 
C 325.768923 250.606695 325.497208 249.950718 325.013621 249.467131 
C 324.530035 248.983545 323.874058 248.71183 323.190163 248.71183 
C 322.506268 248.71183 321.850292 248.983545 321.366705 249.467131 
C 320.883118 249.950718 320.611404 250.606695 320.611404 251.29059 
C 320.611404 251.974485 320.883118 252.630461 321.366705 253.114048 
C 321.850292 253.597635 322.506268 253.869349 323.190163 253.869349 
z
" style="fill:#983003;fill-opacity:0.7;stroke:#000000;stroke-opacity:0.7;"/>
    <path clip-path="url(#pade2ac49a7)" d="M 333.787626 253.646964 
C 334.412544 253.646964 335.011951 253.398681 335.453834 252.956798 
C 335.895718 252.514914 336.144001 251.915507 336.144001 251.29059 
C 336.144001 250.665672 335.895718 250.066265 335.453834 249.624381 
C 335.011951 249.182498 334.412544 248.934215 333.787626 248.934215 
C 333.162708 248.934215 332.563302 249.182498 332.121418 249.624381 
C 331.679534 250.066265 331.431252 250.665672 331.431252 251.29059 
C 331.431252 251.915507 331.679534 252.514914 332.121418 252.956798 
C 332.563302 253.398681 333.162708 253.646964 333.787626 253.646964 
z
" style="fill:#8e2d04;fill-opacity:0.7;stroke:#000000;stroke-opacity:0.7;"/>
    <path clip-path="url(#pade2ac49a7)" d="M 99.387658 218.971915 
C 101.40882 218.971915 103.347473 218.168899 104.776651 216.739721 
C 106.205829 215.310543 107.008845 213.37189 107.008845 211.350728 
C 107.008845 209.329565 106.205829 207.390912 104.776651 205.961734 
C 103.347473 204.532557 101.40882 203.72954 99.387658 203.72954 
C 97.366495 203.72954 95.427842 204.532557 93.998664 205.961734 
C 92.569487 207.390912 91.76647 209.329565 91.76647 211.350728 
C 91.76647 213.37189 92.569487 215.310543 93.998664 216.739721 
C 95.427842 218.168899 97.366495 218.971915 99.387658 218.971915 
z
" style="fill:#4393c6;fill-opacity:0.7;stroke:#000000;stroke-opacity:0.7;"/>
    <path clip-path="url(#pade2ac49a7)" d="M 136.688075 235.610316 
C 138.534763 235.610316 140.306064 234.876619 141.61187 233.570814 
C 142.917675 232.265008 143.651372 230.493707 143.651372 228.647019 
C 143.651372 226.800332 142.917675 225.029031 141.61187 223.723225 
C 140.306064 222.41742 138.534763 221.683723 136.688075 221.683723 
C 134.841387 221.683723 133.070087 222.41742 131.764281 223.723225 
C 130.458476 225.029031 129.724779 226.800332 129.724779 228.647019 
C 129.724779 230.493707 130.458476 232.265008 131.764281 233.570814 
C 133.070087 234.876619 134.841387 235.610316 136.688075 235.610316 
z
" style="fill:#acd0e6;fill-opacity:0.7;stroke:#000000;stroke-opacity:0.7;"/>
    <path clip-path="url(#pade2ac49a7)" d="M 173.988493 234.899819 
C 175.646755 234.899819 177.237322 234.240984 178.40989 233.068416 
C 179.582458 231.895848 180.241292 230.305281 180.241292 228.647019 
C 180.241292 226.988758 179.582458 225.398191 178.40989 224.225623 
C 177.237322 223.053054 175.646755 222.39422 173.988493 222.39422 
C 172.330231 222.39422 170.739664 223.053054 169.567096 224.225623 
C 168.394528 225.398191 167.735694 226.988758 167.735694 228.647019 
C 167.735694 230.305281 168.394528 231.895848 169.567096 233.068416 
C 170.739664 234.240984 172.330231 234.899819 173.988493 234.899819 
z
" style="fill:#eef5fc;fill-opacity:0.7;stroke:#000000;stroke-opacity:0.7;"/>
    <path clip-path="url(#pade2ac49a7)" d="M 211.28891 221.411295 
C 212.750598 221.411295 214.152616 220.83056 215.186185 219.796991 
C 216.219754 218.763421 216.800489 217.361404 216.800489 215.899716 
C 216.800489 214.438028 216.219754 213.036011 215.186185 212.002441 
C 214.152616 210.968872 212.750598 210.388137 211.28891 210.388137 
C 209.827223 210.388137 208.425205 210.968872 207.391636 212.002441 
C 206.358066 213.036011 205.777332 214.438028 205.777332 215.899716 
C 205.777332 217.361404 206.358066 218.763421 207.391636 219.796991 
C 208.425205 220.83056 209.827223 221.411295 211.28891 221.411295 
z
" style="fill:#fdd8b2;fill-opacity:0.7;stroke:#000000;stroke-opacity:0.7;"/>
    <path clip-path="url(#pade2ac49a7)" d="M 248.589328 212.24136 
C 249.833665 212.24136 251.027204 211.746979 251.907083 210.8671 
C 252.786962 209.987221 253.281343 208.793682 253.281343 207.549345 
C 253.281343 206.305008 252.786962 205.111469 251.907083 204.23159 
C 251.027204 203.351711 249.833665 202.857331 248.589328 202.857331 
C 247.344991 202.857331 246.151452 203.351711 245.271573 204.23159 
C 244.391694 205.111469 243.897314 206.305008 243.897314 207.549345 
C 243.897314 208.793682 244.391694 209.987221 245.271573 210.8671 
C 246.151452 211.746979 247.344991 212.24136 248.589328 212.24136 
z
" style="fill:#fd984c;fill-opacity:0.7;stroke:#000000;stroke-opacity:0.7;"/>
    <path clip-path="url(#pade2ac49a7)" d="M 285.889746 232.249102 
C 286.845029 232.249102 287.761315 231.869564 288.436803 231.194077 
C 289.11229 230.518589 289.491828 229.602303 289.491828 228.647019 
C 289.491828 227.691736 289.11229 226.77545 288.436803 226.099962 
C 287.761315 225.424475 286.845029 225.044937 285.889746 225.044937 
C 284.934462 225.044937 284.018176 225.424475 283.342688 226.099962 
C 282.667201 226.77545 282.287663 227.691736 282.287663 228.647019 
C 282.287663 229.602303 282.667201 230.518589 283.342688 231.194077 
C 284.018176 231.869564 284.934462 232.249102 285.889746 232.249102 
z
" style="fill:#dc4d04;fill-opacity:0.7;stroke:#000000;stroke-opacity:0.7;"/>
    <path clip-path="url(#pade2ac49a7)" d="M 323.190163 231.642015 
C 323.984445 231.642015 324.746303 231.326444 325.307945 230.764801 
C 325.869587 230.203159 326.185159 229.441302 326.185159 228.647019 
C 326.185159 227.852737 325.869587 227.09088 325.307945 226.529238 
C 324.746303 225.967595 323.984445 225.652024 323.190163 225.652024 
C 322.395881 225.652024 321.634024 225.967595 321.072381 226.529238 
C 320.510739 227.09088 320.195167 227.852737 320.195167 228.647019 
C 320.195167 229.441302 320.510739 230.203159 321.072381 230.764801 
C 321.634024 231.326444 322.395881 231.642015 323.190163 231.642015 
z
" style="fill:#b03a03;fill-opacity:0.7;stroke:#000000;stroke-opacity:0.7;"/>
    <path clip-path="url(#pade2ac49a7)" d="M 335.263065 231.32237 
C 335.972576 231.32237 336.653123 231.040478 337.154823 230.538778 
C 337.656524 230.037078 337.938415 229.356531 337.938415 228.647019 
C 337.938415 227.937508 337.656524 227.256961 337.154823 226.755261 
C 336.653123 226.253561 335.972576 225.971669 335.263065 225.971669 
C 334.553554 225.971669 333.873007 226.253561 333.371307 226.755261 
C 332.869606 227.256961 332.587715 227.937508 332.587715 228.647019 
C 332.587715 229.356531 332.869606 230.037078 333.371307 230.538778 
C 333.873007 231.040478 334.553554 231.32237 335.263065 231.32237 
z
" style="fill:#9c3203;fill-opacity:0.7;stroke:#000000;stroke-opacity:0.7;"/>
    <path clip-path="url(#pade2ac49a7)" d="M 99.387658 214.019477 
C 101.516894 214.019477 103.559208 213.173522 105.064805 211.667925 
C 106.570402 210.162328 107.416356 208.120014 107.416356 205.990778 
C 107.416356 203.861542 106.570402 201.819228 105.064805 200.313631 
C 103.559208 198.808034 101.516894 197.96208 99.387658 197.96208 
C 97.258422 197.96208 95.216108 198.808034 93.710511 200.313631 
C 92.204914 201.819228 91.358959 203.861542 91.358959 205.990778 
C 91.358959 208.120014 92.204914 210.162328 93.710511 211.667925 
C 95.216108 213.173522 97.258422 214.019477 99.387658 214.019477 
z
" style="fill:#1561a9;fill-opacity:0.7;stroke:#000000;stroke-opacity:0.7;"/>
    <path clip-path="url(#pade2ac49a7)" d="M 136.688075 212.302574 
C 138.540088 212.302574 140.316495 211.566761 141.626066 210.257191 
C 142.935636 208.947621 143.671448 207.171213 143.671448 205.319201 
C 143.671448 203.467188 142.935636 201.69078 141.626066 200.38121 
C 140.316495 199.07164 138.540088 198.335827 136.688075 198.335827 
C 134.836063 198.335827 133.059655 199.07164 131.750085 200.38121 
C 130.440514 201.69078 129.704702 203.467188 129.704702 205.319201 
C 129.704702 207.171213 130.440514 208.947621 131.750085 210.257191 
C 133.059655 211.566761 134.836063 212.302574 136.688075 212.302574 
z
" style="fill:#aacfe5;fill-opacity:0.7;stroke:#000000;stroke-opacity:0.7;"/>
    <path clip-path="url(#pade2ac49a7)" d="M 173.988493 208.871731 
C 175.649774 208.871731 177.243237 208.211697 178.41794 207.036994 
C 179.592643 205.862291 180.252677 204.268828 180.252677 202.607547 
C 180.252677 200.946266 179.592643 199.352804 178.41794 198.178101 
C 177.243237 197.003397 175.649774 196.343364 173.988493 196.343364 
C 172.327212 196.343364 170.733749 197.003397 169.559046 198.178101 
C 168.384343 199.352804 167.724309 200.946266 167.724309 202.607547 
C 167.724309 204.268828 168.384343 205.862291 169.559046 207.036994 
C 170.733749 208.211697 172.327212 208.871731 173.988493 208.871731 
z
" style="fill:#ecf4fb;fill-opacity:0.7;stroke:#000000;stroke-opacity:0.7;"/>
    <path clip-path="url(#pade2ac49a7)" d="M 211.28891 211.437337 
C 212.733355 211.437337 214.118833 210.863453 215.140209 209.842077 
C 216.161585 208.8207 216.735469 207.435222 216.735469 205.990778 
C 216.735469 204.546334 216.161585 203.160856 215.140209 202.13948 
C 214.118833 201.118103 212.733355 200.54422 211.28891 200.54422 
C 209.844466 200.54422 208.458988 201.118103 207.437612 202.13948 
C 206.416236 203.160856 205.842352 204.546334 205.842352 205.990778 
C 205.842352 207.435222 206.416236 208.8207 207.437612 209.842077 
C 208.458988 210.863453 209.844466 211.437337 211.28891 211.437337 
z
" style="fill:#fdd4aa;fill-opacity:0.7;stroke:#000000;stroke-opacity:0.7;"/>
    <path clip-path="url(#pade2ac49a7)" d="M 248.589328 210.549835 
C 249.798404 210.549835 250.958122 210.069464 251.813068 209.214518 
C 252.668014 208.359572 253.148385 207.199854 253.148385 205.990778 
C 253.148385 204.781702 252.668014 203.621984 251.813068 202.767038 
C 250.958122 201.912092 249.798404 201.431721 248.589328 201.431721 
C 247.380252 201.431721 246.220534 201.912092 245.365588 202.767038 
C 244.510642 203.621984 244.030271 204.781702 244.030271 205.990778 
C 244.030271 207.199854 244.510642 208.359572 245.365588 209.214518 
C 246.220534 210.069464 247.380252 210.549835 248.589328 210.549835 
z
" style="fill:#fd8e3d;fill-opacity:0.7;stroke:#000000;stroke-opacity:0.7;"/>
    <path clip-path="url(#pade2ac49a7)" d="M 285.889746 209.763045 
C 286.890163 209.763045 287.84974 209.365575 288.557141 208.658174 
C 289.264543 207.950772 289.662013 206.991195 289.662013 205.990778 
C 289.662013 204.990361 289.264543 204.030784 288.557141 203.323382 
C 287.84974 202.615981 286.890163 202.218511 285.889746 202.218511 
C 284.889329 202.218511 283.929751 202.615981 283.22235 203.323382 
C 282.514948 204.030784 282.117478 204.990361 282.117478 205.990778 
C 282.117478 206.991195 282.514948 207.950772 283.22235 208.658174 
C 283.929751 209.365575 284.889329 209.763045 285.889746 209.763045 
z
" style="fill:#e45709;fill-opacity:0.7;stroke:#000000;stroke-opacity:0.7;"/>
    <path clip-path="url(#pade2ac49a7)" d="M 323.190163 209.173544 
C 324.034243 209.173544 324.843864 208.838188 325.440719 208.241334 
C 326.037573 207.644479 326.372929 206.834858 326.372929 205.990778 
C 326.372929 205.146699 326.037573 204.337077 325.440719 203.740223 
C 324.843864 203.143368 324.034243 202.808012 323.190163 202.808012 
C 322.346084 202.808012 321.536462 203.143368 320.939608 203.740223 
C 320.342753 204.337077 320.007397 205.146699 320.007397 205.990778 
C 320.007397 206.834858 320.342753 207.644479 320.939608 208.241334 
C 321.536462 208.838188 322.346084 209.173544 323.190163 209.173544 
z
" style="fill:#bd3e02;fill-opacity:0.7;stroke:#000000;stroke-opacity:0.7;"/>
    <path clip-path="url(#pade2ac49a7)" d="M 337.036907 208.94755 
C 337.821052 208.94755 338.573186 208.636006 339.12766 208.081532 
C 339.682135 207.527057 339.993679 206.774923 339.993679 205.990778 
C 339.993679 205.206633 339.682135 204.454499 339.12766 203.900025 
C 338.573186 203.34555 337.821052 203.034006 337.036907 203.034006 
C 336.252762 203.034006 335.500628 203.34555 334.946154 203.900025 
C 334.391679 204.454499 334.080135 205.206633 334.080135 205.990778 
C 334.080135 206.774923 334.391679 207.527057 334.946154 208.081532 
C 335.500628 208.636006 336.252762 208.94755 337.036907 208.94755 
z
" style="fill:#ad3803;fill-opacity:0.7;stroke:#000000;stroke-opacity:0.7;"/>
    <path clip-path="url(#pade2ac49a7)" d="M 98.297657 191.273746 
C 100.399799 191.273746 102.416126 190.438556 103.902565 188.952117 
C 105.389004 187.465677 106.224194 185.44935 106.224194 183.347208 
C 106.224194 181.245066 105.389004 179.228739 103.902565 177.742299 
C 102.416126 176.25586 100.399799 175.42067 98.297657 175.42067 
C 96.195514 175.42067 94.179187 176.25586 92.692748 177.742299 
C 91.206309 179.228739 90.371119 181.245066 90.371119 183.347208 
C 90.371119 185.44935 91.206309 187.465677 92.692748 188.952117 
C 94.179187 190.438556 96.195514 191.273746 98.297657 191.273746 
z
" style="fill:#1e6db2;fill-opacity:0.7;stroke:#000000;stroke-opacity:0.7;"/>
    <path clip-path="url(#pade2ac49a7)" d="M 136.688075 190.505245 
C 138.586409 190.505245 140.407248 189.75103 141.749572 188.408705 
C 143.091897 187.06638 143.846113 185.245542 143.846113 183.347208 
C 143.846113 181.448874 143.091897 179.628036 141.749572 178.285711 
C 140.407248 176.943387 138.586409 176.189171 136.688075 176.189171 
C 134.789742 176.189171 132.968903 176.943387 131.626579 178.285711 
C 130.284254 179.628036 129.530038 181.448874 129.530038 183.347208 
C 129.530038 185.245542 130.284254 187.06638 131.626579 188.408705 
C 132.968903 189.75103 134.789742 190.505245 136.688075 190.505245 
z
" style="fill:#8dc1dd;fill-opacity:0.7;stroke:#000000;stroke-opacity:0.7;"/>
    <path clip-path="url(#pade2ac49a7)" d="M 173.988493 189.776438 
C 175.693545 189.776438 177.328991 189.099014 178.534645 187.89336 
C 179.740299 186.687707 180.417723 185.05226 180.417723 183.347208 
C 180.417723 181.642156 179.740299 180.006709 178.534645 178.801056 
C 177.328991 177.595402 175.693545 176.917978 173.988493 176.917978 
C 172.283441 176.917978 170.647994 177.595402 169.442341 178.801056 
C 168.236687 180.006709 167.559263 181.642156 167.559263 183.347208 
C 167.559263 185.05226 168.236687 186.687707 169.442341 187.89336 
C 170.647994 189.099014 172.283441 189.776438 173.988493 189.776438 
z
" style="fill:#dfecf7;fill-opacity:0.7;stroke:#000000;stroke-opacity:0.7;"/>
    <path clip-path="url(#pade2ac49a7)" d="M 211.28891 189.244029 
C 212.852766 189.244029 214.35278 188.622703 215.458593 187.51689 
C 216.564405 186.411078 217.185732 184.911063 217.185732 183.347208 
C 217.185732 181.783353 216.564405 180.283338 215.458593 179.177526 
C 214.35278 178.071713 212.852766 177.450387 211.28891 177.450387 
C 209.725055 177.450387 208.225041 178.071713 207.119228 179.177526 
C 206.013416 180.283338 205.392089 181.783353 205.392089 183.347208 
C 205.392089 184.911063 206.013416 186.411078 207.119228 187.51689 
C 208.225041 188.622703 209.725055 189.244029 211.28891 189.244029 
z
" style="fill:#feecdb;fill-opacity:0.7;stroke:#000000;stroke-opacity:0.7;"/>
    <path clip-path="url(#pade2ac49a7)" d="M 248.589328 188.035758 
C 249.832746 188.035758 251.025404 187.541743 251.904633 186.662513 
C 252.783863 185.783284 253.277878 184.590626 253.277878 183.347208 
C 253.277878 182.10379 252.783863 180.911132 251.904633 180.031903 
C 251.025404 179.152673 249.832746 178.658658 248.589328 178.658658 
C 247.34591 178.658658 246.153252 179.152673 245.274023 180.031903 
C 244.394793 180.911132 243.900778 182.10379 243.900778 183.347208 
C 243.900778 184.590626 244.394793 185.783284 245.274023 186.662513 
C 246.153252 187.541743 247.34591 188.035758 248.589328 188.035758 
z
" style="fill:#fd984c;fill-opacity:0.7;stroke:#000000;stroke-opacity:0.7;"/>
    <path clip-path="url(#pade2ac49a7)" d="M 285.889746 187.375545 
C 286.958073 187.375545 287.982788 186.951094 288.73821 186.195673 
C 289.493632 185.440251 289.918083 184.415536 289.918083 183.347208 
C 289.918083 182.278881 289.493632 181.254165 288.73821 180.498744 
C 287.982788 179.743322 286.958073 179.318871 285.889746 179.318871 
C 284.821418 179.318871 283.796703 179.743322 283.041281 180.498744 
C 282.285859 181.254165 281.861408 182.278881 281.861408 183.347208 
C 281.861408 184.415536 282.285859 185.440251 283.041281 186.195673 
C 283.796703 186.951094 284.821418 187.375545 285.889746 187.375545 
z
" style="fill:#f06812;fill-opacity:0.7;stroke:#000000;stroke-opacity:0.7;"/>
    <path clip-path="url(#pade2ac49a7)" d="M 323.190163 186.911265 
C 324.135362 186.911265 325.041975 186.535733 325.710332 185.867377 
C 326.378688 185.19902 326.75422 184.292407 326.75422 183.347208 
C 326.75422 182.402009 326.378688 181.495396 325.710332 180.827039 
C 325.041975 180.158683 324.135362 179.783151 323.190163 179.783151 
C 322.244964 179.783151 321.338351 180.158683 320.669995 180.827039 
C 320.001638 181.495396 319.626106 182.402009 319.626106 183.347208 
C 319.626106 184.292407 320.001638 185.19902 320.669995 185.867377 
C 321.338351 186.535733 322.244964 186.911265 323.190163 186.911265 
z
" style="fill:#db4b02;fill-opacity:0.7;stroke:#000000;stroke-opacity:0.7;"/>
    <path clip-path="url(#pade2ac49a7)" d="M 338.209798 186.567456 
C 339.063818 186.567456 339.882974 186.228151 340.486857 185.624268 
C 341.090741 185.020384 341.430046 184.201228 341.430046 183.347208 
C 341.430046 182.493188 341.090741 181.674032 340.486857 181.070149 
C 339.882974 180.466265 339.063818 180.12696 338.209798 180.12696 
C 337.355778 180.12696 336.536622 180.466265 335.932738 181.070149 
C 335.328855 181.674032 334.98955 182.493188 334.98955 183.347208 
C 334.98955 184.201228 335.328855 185.020384 335.932738 185.624268 
C 336.536622 186.228151 337.355778 186.567456 338.209798 186.567456 
z
" style="fill:#c03f02;fill-opacity:0.7;stroke:#000000;stroke-opacity:0.7;"/>
    <path clip-path="url(#pade2ac49a7)" d="M 82.656348 168.94869 
C 84.846322 168.94869 86.946895 168.078604 88.495441 166.530059 
C 90.043986 164.981514 90.914072 162.880941 90.914072 160.690967 
C 90.914072 158.500993 90.043986 156.40042 88.495441 154.851874 
C 86.946895 153.303329 84.846322 152.433243 82.656348 152.433243 
C 80.466374 152.433243 78.365801 153.303329 76.817256 154.851874 
C 75.26871 156.40042 74.398625 158.500993 74.398625 160.690967 
C 74.398625 162.880941 75.26871 164.981514 76.817256 166.530059 
C 78.365801 168.078604 80.466374 168.94869 82.656348 168.94869 
z
" style="fill:#084387;fill-opacity:0.7;stroke:#000000;stroke-opacity:0.7;"/>
    <path clip-path="url(#pade2ac49a7)" d="M 136.688075 167.997471 
C 138.625783 167.997471 140.484388 167.227611 141.854554 165.857445 
C 143.22472 164.487279 143.994579 162.628674 143.994579 160.690967 
C 143.994579 158.753259 143.22472 156.894654 141.854554 155.524488 
C 140.484388 154.154322 138.625783 153.384463 136.688075 153.384463 
C 134.750368 153.384463 132.891763 154.154322 131.521597 155.524488 
C 130.151431 156.894654 129.381571 158.753259 129.381571 160.690967 
C 129.381571 162.628674 130.151431 164.487279 131.521597 165.857445 
C 132.891763 167.227611 134.750368 167.997471 136.688075 167.997471 
z
" style="fill:#73b2d8;fill-opacity:0.7;stroke:#000000;stroke-opacity:0.7;"/>
    <path clip-path="url(#pade2ac49a7)" d="M 173.988493 167.234857 
C 175.723953 167.234857 177.388567 166.545351 178.615722 165.318196 
C 179.842878 164.09104 180.532383 162.426427 180.532383 160.690967 
C 180.532383 158.955507 179.842878 157.290893 178.615722 156.063737 
C 177.388567 154.836582 175.723953 154.147076 173.988493 154.147076 
C 172.253033 154.147076 170.588419 154.836582 169.361264 156.063737 
C 168.134108 157.290893 167.444603 158.955507 167.444603 160.690967 
C 167.444603 162.426427 168.134108 164.09104 169.361264 165.318196 
C 170.588419 166.545351 172.253033 167.234857 173.988493 167.234857 
z
" style="fill:#d8e7f5;fill-opacity:0.7;stroke:#000000;stroke-opacity:0.7;"/>
    <path clip-path="url(#pade2ac49a7)" d="M 211.28891 166.401045 
C 212.803241 166.401045 214.255752 165.799396 215.326546 164.728602 
C 216.397339 163.657809 216.998989 162.205297 216.998989 160.690967 
C 216.998989 159.176636 216.397339 157.724125 215.326546 156.653331 
C 214.255752 155.582538 212.803241 154.980888 211.28891 154.980888 
C 209.77458 154.980888 208.322068 155.582538 207.251275 156.653331 
C 206.180482 157.724125 205.578832 159.176636 205.578832 160.690967 
C 205.578832 162.205297 206.180482 163.657809 207.251275 164.728602 
C 208.322068 165.799396 209.77458 166.401045 211.28891 166.401045 
z
" style="fill:#fee3c8;fill-opacity:0.7;stroke:#000000;stroke-opacity:0.7;"/>
    <path clip-path="url(#pade2ac49a7)" d="M 248.589328 165.589946 
C 249.888553 165.589946 251.134739 165.073759 252.05343 164.155068 
C 252.97212 163.236378 253.488308 161.990191 253.488308 160.690967 
C 253.488308 159.391742 252.97212 158.145556 252.05343 157.226865 
C 251.134739 156.308175 249.888553 155.791987 248.589328 155.791987 
C 247.290103 155.791987 246.043917 156.308175 245.125226 157.226865 
C 244.206536 158.145556 243.690349 159.391742 243.690349 160.690967 
C 243.690349 161.990191 244.206536 163.236378 245.125226 164.155068 
C 246.043917 165.073759 247.290103 165.589946 248.589328 165.589946 
z
" style="fill:#fda761;fill-opacity:0.7;stroke:#000000;stroke-opacity:0.7;"/>
    <path clip-path="url(#pade2ac49a7)" d="M 285.889746 164.943319 
C 287.017483 164.943319 288.099182 164.495264 288.896613 163.697834 
C 289.694043 162.900403 290.142098 161.818704 290.142098 160.690967 
C 290.142098 159.56323 289.694043 158.48153 288.896613 157.6841 
C 288.099182 156.886669 287.017483 156.438614 285.889746 156.438614 
C 284.762009 156.438614 283.680309 156.886669 282.882878 157.6841 
C 282.085448 158.48153 281.637393 159.56323 281.637393 160.690967 
C 281.637393 161.818704 282.085448 162.900403 282.882878 163.697834 
C 283.680309 164.495264 284.762009 164.943319 285.889746 164.943319 
z
" style="fill:#f67723;fill-opacity:0.7;stroke:#000000;stroke-opacity:0.7;"/>
    <path clip-path="url(#pade2ac49a7)" d="M 323.190163 164.402772 
C 324.174545 164.402772 325.118743 164.011673 325.814806 163.31561 
C 326.510869 162.619546 326.901969 161.675349 326.901969 160.690967 
C 326.901969 159.706584 326.510869 158.762387 325.814806 158.066324 
C 325.118743 157.37026 324.174545 156.979161 323.190163 156.979161 
C 322.205781 156.979161 321.261584 157.37026 320.56552 158.066324 
C 319.869457 158.762387 319.478358 159.706584 319.478358 160.690967 
C 319.478358 161.675349 319.869457 162.619546 320.56552 163.31561 
C 321.261584 164.011673 322.205781 164.402772 323.190163 164.402772 
z
" style="fill:#e15307;fill-opacity:0.7;stroke:#000000;stroke-opacity:0.7;"/>
    <path clip-path="url(#pade2ac49a7)" d="M 336.31991 164.222963 
C 337.256607 164.222963 338.155064 163.85081 338.817409 163.188465 
C 339.479753 162.526121 339.851907 161.627663 339.851907 160.690967 
C 339.851907 159.75427 339.479753 158.855812 338.817409 158.193468 
C 338.155064 157.531124 337.256607 157.15897 336.31991 157.15897 
C 335.383214 157.15897 334.484756 157.531124 333.822411 158.193468 
C 333.160067 158.855812 332.787914 159.75427 332.787914 160.690967 
C 332.787914 161.627663 333.160067 162.526121 333.822411 163.188465 
C 334.484756 163.85081 335.383214 164.222963 336.31991 164.222963 
z
" style="fill:#d94901;fill-opacity:0.7;stroke:#000000;stroke-opacity:0.7;"/>
    <path clip-path="url(#pade2ac49a7)" d="M 99.387658 146.460333 
C 101.618795 146.460333 103.75885 145.573893 105.336502 143.996241 
C 106.914154 142.418589 107.800594 140.278533 107.800594 138.047397 
C 107.800594 135.81626 106.914154 133.676204 105.336502 132.098552 
C 103.75885 130.5209 101.618795 129.63446 99.387658 129.63446 
C 97.156521 129.63446 95.016465 130.5209 93.438813 132.098552 
C 91.861161 133.676204 90.974721 135.81626 90.974721 138.047397 
C 90.974721 140.278533 91.861161 142.418589 93.438813 143.996241 
C 95.016465 145.573893 97.156521 146.460333 99.387658 146.460333 
z
" style="fill:#08306b;fill-opacity:0.7;stroke:#000000;stroke-opacity:0.7;"/>
    <path clip-path="url(#pade2ac49a7)" d="M 136.688075 145.490346 
C 138.661969 145.490346 140.555282 144.70611 141.951036 143.310357 
C 143.346789 141.914603 144.131025 140.02129 144.131025 138.047397 
C 144.131025 136.073503 143.346789 134.18019 141.951036 132.784436 
C 140.555282 131.388683 138.661969 130.604447 136.688075 130.604447 
C 134.714182 130.604447 132.820869 131.388683 131.425115 132.784436 
C 130.029362 134.18019 129.245126 136.073503 129.245126 138.047397 
C 129.245126 140.02129 130.029362 141.914603 131.425115 143.310357 
C 132.820869 144.70611 134.714182 145.490346 136.688075 145.490346 
z
" style="fill:#5da4d0;fill-opacity:0.7;stroke:#000000;stroke-opacity:0.7;"/>
    <path clip-path="url(#pade2ac49a7)" d="M 173.988493 144.67499 
C 175.746151 144.67499 177.432057 143.976665 178.674909 142.733813 
C 179.917762 141.490961 180.616087 139.805055 180.616087 138.047397 
C 180.616087 136.289738 179.917762 134.603832 178.674909 133.36098 
C 177.432057 132.118128 175.746151 131.419803 173.988493 131.419803 
C 172.230834 131.419803 170.544929 132.118128 169.302076 133.36098 
C 168.059224 134.603832 167.360899 136.289738 167.360899 138.047397 
C 167.360899 139.805055 168.059224 141.490961 169.302076 142.733813 
C 170.544929 143.976665 172.230834 144.67499 173.988493 144.67499 
z
" style="fill:#d0e2f2;fill-opacity:0.7;stroke:#000000;stroke-opacity:0.7;"/>
    <path clip-path="url(#pade2ac49a7)" d="M 211.28891 144.030289 
C 212.875592 144.030289 214.397501 143.399894 215.519454 142.27794 
C 216.641407 141.155987 217.271803 139.634078 217.271803 138.047397 
C 217.271803 136.460715 216.641407 134.938806 215.519454 133.816853 
C 214.397501 132.6949 212.875592 132.064504 211.28891 132.064504 
C 209.702229 132.064504 208.18032 132.6949 207.058367 133.816853 
C 205.936413 134.938806 205.306018 136.460715 205.306018 138.047397 
C 205.306018 139.634078 205.936413 141.155987 207.058367 142.27794 
C 208.18032 143.399894 209.702229 144.030289 211.28891 144.030289 
z
" style="fill:#fff0e2;fill-opacity:0.7;stroke:#000000;stroke-opacity:0.7;"/>
    <path clip-path="url(#pade2ac49a7)" d="M 248.589328 143.282853 
C 249.977787 143.282853 251.309566 142.731212 252.291355 141.749423 
C 253.273143 140.767634 253.824784 139.435856 253.824784 138.047397 
C 253.824784 136.658937 253.273143 135.327159 252.291355 134.34537 
C 251.309566 133.363581 249.977787 132.811941 248.589328 132.811941 
C 247.200869 132.811941 245.86909 133.363581 244.887302 134.34537 
C 243.905513 135.327159 243.353872 136.658937 243.353872 138.047397 
C 243.353872 139.435856 243.905513 140.767634 244.887302 141.749423 
C 245.86909 142.731212 247.200869 143.282853 248.589328 143.282853 
z
" style="fill:#fdc38c;fill-opacity:0.7;stroke:#000000;stroke-opacity:0.7;"/>
    <path clip-path="url(#pade2ac49a7)" d="M 285.889746 142.614124 
C 287.100856 142.614124 288.262525 142.132945 289.11891 141.276561 
C 289.975294 140.420176 290.456473 139.258507 290.456473 138.047397 
C 290.456473 136.836286 289.975294 135.674617 289.11891 134.818233 
C 288.262525 133.961848 287.100856 133.480669 285.889746 133.480669 
C 284.678635 133.480669 283.516966 133.961848 282.660582 134.818233 
C 281.804197 135.674617 281.323018 136.836286 281.323018 138.047397 
C 281.323018 139.258507 281.804197 140.420176 282.660582 141.276561 
C 283.516966 142.132945 284.678635 142.614124 285.889746 142.614124 
z
" style="fill:#fd8e3d;fill-opacity:0.7;stroke:#000000;stroke-opacity:0.7;"/>
    <path clip-path="url(#pade2ac49a7)" d="M 311.245741 142.216929 
C 312.351513 142.216929 313.412146 141.777601 314.194045 140.995701 
C 314.975945 140.213802 315.415273 139.15317 315.415273 138.047397 
C 315.415273 136.941624 314.975945 135.880992 314.194045 135.099092 
C 313.412146 134.317192 312.351513 133.877864 311.245741 133.877864 
C 310.139968 133.877864 309.079335 134.317192 308.297436 135.099092 
C 307.515536 135.880992 307.076208 136.941624 307.076208 138.047397 
C 307.076208 139.15317 307.515536 140.213802 308.297436 140.995701 
C 309.079335 141.777601 310.139968 142.216929 311.245741 142.216929 
z
" style="fill:#f4711c;fill-opacity:0.7;stroke:#000000;stroke-opacity:0.7;"/>
    <path clip-path="url(#pade2ac49a7)" d="M 311.295474 142.218428 
C 312.401645 142.218428 313.462658 141.778942 314.244839 140.996761 
C 315.027019 140.21458 315.466505 139.153567 315.466505 138.047397 
C 315.466505 136.941226 315.027019 135.880213 314.244839 135.098032 
C 313.462658 134.315852 312.401645 133.876366 311.295474 133.876366 
C 310.189304 133.876366 309.128291 134.315852 308.34611 135.098032 
C 307.56393 135.880213 307.124443 136.941226 307.124443 138.047397 
C 307.124443 139.153567 307.56393 140.21458 308.34611 140.996761 
C 309.128291 141.778942 310.189304 142.218428 311.295474 142.218428 
z
" style="fill:#f4711c;fill-opacity:0.7;stroke:#000000;stroke-opacity:0.7;"/>
    <path clip-path="url(#pade2ac49a7)" d="M 87.04122 123.757718 
C 89.256697 123.757718 91.381733 122.877499 92.948313 121.31092 
C 94.514892 119.74434 95.395111 117.619304 95.395111 115.403827 
C 95.395111 113.188349 94.514892 111.063313 92.948313 109.496733 
C 91.381733 107.930154 89.256697 107.049935 87.04122 107.049935 
C 84.825742 107.049935 82.700706 107.930154 81.134126 109.496733 
C 79.567547 111.063313 78.687328 113.188349 78.687328 115.403827 
C 78.687328 117.619304 79.567547 119.74434 81.134126 121.31092 
C 82.700706 122.877499 84.825742 123.757718 87.04122 123.757718 
z
" style="fill:#083674;fill-opacity:0.7;stroke:#000000;stroke-opacity:0.7;"/>
    <path clip-path="url(#pade2ac49a7)" d="M 136.688075 122.877447 
C 138.670103 122.877447 140.571218 122.089979 141.972723 120.688474 
C 143.374228 119.286969 144.161696 117.385854 144.161696 115.403827 
C 144.161696 113.421799 143.374228 111.520684 141.972723 110.119179 
C 140.571218 108.717674 138.670103 107.930206 136.688075 107.930206 
C 134.706048 107.930206 132.804933 108.717674 131.403428 110.119179 
C 130.001923 111.520684 129.214455 113.421799 129.214455 115.403827 
C 129.214455 117.385854 130.001923 119.286969 131.403428 120.688474 
C 132.804933 122.089979 134.706048 122.877447 136.688075 122.877447 
z
" style="fill:#5aa3cf;fill-opacity:0.7;stroke:#000000;stroke-opacity:0.7;"/>
    <path clip-path="url(#pade2ac49a7)" d="M 173.988493 122.291315 
C 175.815076 122.291315 177.567093 121.565606 178.858683 120.274016 
C 180.150272 118.982427 180.875982 117.23041 180.875982 115.403827 
C 180.875982 113.577243 180.150272 111.825226 178.858683 110.533637 
C 177.567093 109.242047 175.815076 108.516338 173.988493 108.516338 
C 172.16191 108.516338 170.409892 109.242047 169.118303 110.533637 
C 167.826714 111.825226 167.101004 113.577243 167.101004 115.403827 
C 167.101004 117.23041 167.826714 118.982427 169.118303 120.274016 
C 170.409892 121.565606 172.16191 122.291315 173.988493 122.291315 
z
" style="fill:#b6d4e9;fill-opacity:0.7;stroke:#000000;stroke-opacity:0.7;"/>
    <path clip-path="url(#pade2ac49a7)" d="M 211.28891 121.368095 
C 212.870653 121.368095 214.387824 120.739662 215.506285 119.621201 
C 216.624746 118.50274 217.253179 116.985569 217.253179 115.403827 
C 217.253179 113.822084 216.624746 112.304913 215.506285 111.186452 
C 214.387824 110.067991 212.870653 109.439558 211.28891 109.439558 
C 209.707168 109.439558 208.189997 110.067991 207.071536 111.186452 
C 205.953075 112.304913 205.324642 113.822084 205.324642 115.403827 
C 205.324642 116.985569 205.953075 118.50274 207.071536 119.621201 
C 208.189997 120.739662 209.707168 121.368095 211.28891 121.368095 
z
" style="fill:#ffefe0;fill-opacity:0.7;stroke:#000000;stroke-opacity:0.7;"/>
    <path clip-path="url(#pade2ac49a7)" d="M 248.589328 120.70642 
C 249.995592 120.70642 251.344449 120.147706 252.338828 119.153326 
C 253.333207 118.158947 253.891922 116.810091 253.891922 115.403827 
C 253.891922 113.997562 253.333207 112.648706 252.338828 111.654327 
C 251.344449 110.659948 249.995592 110.101233 248.589328 110.101233 
C 247.183064 110.101233 245.834207 110.659948 244.839828 111.654327 
C 243.845449 112.648706 243.286734 113.997562 243.286734 115.403827 
C 243.286734 116.810091 243.845449 118.158947 244.839828 119.153326 
C 245.834207 120.147706 247.183064 120.70642 248.589328 120.70642 
z
" style="fill:#fdc997;fill-opacity:0.7;stroke:#000000;stroke-opacity:0.7;"/>
    <path clip-path="url(#pade2ac49a7)" d="M 279.329017 120.271321 
C 280.619891 120.271321 281.858069 119.758451 282.770855 118.845665 
C 283.683641 117.932879 284.196511 116.694701 284.196511 115.403827 
C 284.196511 114.112952 283.683641 112.874775 282.770855 111.961988 
C 281.858069 111.049202 280.619891 110.536332 279.329017 110.536332 
C 278.038142 110.536332 276.799965 111.049202 275.887178 111.961988 
C 274.974392 112.874775 274.461522 114.112952 274.461522 115.403827 
C 274.461522 116.694701 274.974392 117.932879 275.887178 118.845665 
C 276.799965 119.758451 278.038142 120.271321 279.329017 120.271321 
z
" style="fill:#fda55e;fill-opacity:0.7;stroke:#000000;stroke-opacity:0.7;"/>
    <path clip-path="url(#pade2ac49a7)" d="M 226.445313 121.953827 
C 228.182394 121.953827 229.848562 121.263677 231.076863 120.035376 
C 232.305164 118.807075 232.995313 117.140907 232.995313 115.403827 
C 232.995313 113.666746 232.305164 112.000578 231.076863 110.772277 
C 229.848562 109.543976 228.182394 108.853827 226.445313 108.853827 
C 224.708233 108.853827 223.042065 109.543976 221.813764 110.772277 
C 220.585463 112.000578 219.895313 113.666746 219.895313 115.403827 
C 219.895313 117.140907 220.585463 118.807075 221.813764 120.035376 
C 223.042065 121.263677 224.708233 121.953827 226.445313 121.953827 
z
" style="fill:#d6e6f4;fill-opacity:0.7;stroke:#000000;stroke-opacity:0.7;"/>
    <path clip-path="url(#pade2ac49a7)" d="M 279.329017 120.271834 
C 280.620027 120.271834 281.858335 119.75891 282.771218 118.846028 
C 283.6841 117.933145 284.197024 116.694837 284.197024 115.403827 
C 284.197024 114.112816 283.6841 112.874508 282.771218 111.961625 
C 281.858335 111.048743 280.620027 110.535819 279.329017 110.535819 
C 278.038006 110.535819 276.799698 111.048743 275.886815 111.961625 
C 274.973933 112.874508 274.461009 114.112816 274.461009 115.403827 
C 274.461009 116.694837 274.973933 117.933145 275.886815 118.846028 
C 276.799698 119.75891 278.038006 120.271834 279.329017 120.271834 
z
" style="fill:#fda55e;fill-opacity:0.7;stroke:#000000;stroke-opacity:0.7;"/>
   </g>
   <g id="matplotlib.axis_1">
    <g id="xtick_1">
     <g id="line2d_1">
      <defs>
       <path d="M 0 0 
L 0 3.5 
" id="mdc5e17d7ba" style="stroke:#000000;stroke-width:0.8;"/>
      </defs>
      <g>
       <use style="stroke:#000000;stroke-width:0.8;" x="82.809694" xlink:href="#mdc5e17d7ba" y="307.584"/>
      </g>
     </g>
     <g id="text_1">
      <!-- −4 -->
      <defs>
       <path d="M 10.59375 35.5 
L 73.1875 35.5 
L 73.1875 27.203125 
L 10.59375 27.203125 
z
" id="DejaVuSans-8722"/>
       <path d="M 37.796875 64.3125 
L 12.890625 25.390625 
L 37.796875 25.390625 
z
M 35.203125 72.90625 
L 47.609375 72.90625 
L 47.609375 25.390625 
L 58.015625 25.390625 
L 58.015625 17.1875 
L 47.609375 17.1875 
L 47.609375 0 
L 37.796875 0 
L 37.796875 17.1875 
L 4.890625 17.1875 
L 4.890625 26.703125 
z
" id="DejaVuSans-52"/>
      </defs>
      <g transform="translate(75.438601 322.182437)scale(0.1 -0.1)">
       <use xlink:href="#DejaVuSans-8722"/>
       <use x="83.789062" xlink:href="#DejaVuSans-52"/>
      </g>
     </g>
    </g>
    <g id="xtick_2">
     <g id="line2d_2">
      <g>
       <use style="stroke:#000000;stroke-width:0.8;" x="124.254603" xlink:href="#mdc5e17d7ba" y="307.584"/>
      </g>
     </g>
     <g id="text_2">
      <!-- −3 -->
      <defs>
       <path d="M 40.578125 39.3125 
Q 47.65625 37.796875 51.625 33 
Q 55.609375 28.21875 55.609375 21.1875 
Q 55.609375 10.40625 48.1875 4.484375 
Q 40.765625 -1.421875 27.09375 -1.421875 
Q 22.515625 -1.421875 17.65625 -0.515625 
Q 12.796875 0.390625 7.625 2.203125 
L 7.625 11.71875 
Q 11.71875 9.328125 16.59375 8.109375 
Q 21.484375 6.890625 26.8125 6.890625 
Q 36.078125 6.890625 40.9375 10.546875 
Q 45.796875 14.203125 45.796875 21.1875 
Q 45.796875 27.640625 41.28125 31.265625 
Q 36.765625 34.90625 28.71875 34.90625 
L 20.21875 34.90625 
L 20.21875 43.015625 
L 29.109375 43.015625 
Q 36.375 43.015625 40.234375 45.921875 
Q 44.09375 48.828125 44.09375 54.296875 
Q 44.09375 59.90625 40.109375 62.90625 
Q 36.140625 65.921875 28.71875 65.921875 
Q 24.65625 65.921875 20.015625 65.03125 
Q 15.375 64.15625 9.8125 62.3125 
L 9.8125 71.09375 
Q 15.4375 72.65625 20.34375 73.4375 
Q 25.25 74.21875 29.59375 74.21875 
Q 40.828125 74.21875 47.359375 69.109375 
Q 53.90625 64.015625 53.90625 55.328125 
Q 53.90625 49.265625 50.4375 45.09375 
Q 46.96875 40.921875 40.578125 39.3125 
z
" id="DejaVuSans-51"/>
      </defs>
      <g transform="translate(116.883509 322.182437)scale(0.1 -0.1)">
       <use xlink:href="#DejaVuSans-8722"/>
       <use x="83.789062" xlink:href="#DejaVuSans-51"/>
      </g>
     </g>
    </g>
    <g id="xtick_3">
     <g id="line2d_3">
      <g>
       <use style="stroke:#000000;stroke-width:0.8;" x="165.699511" xlink:href="#mdc5e17d7ba" y="307.584"/>
      </g>
     </g>
     <g id="text_3">
      <!-- −2 -->
      <defs>
       <path d="M 19.1875 8.296875 
L 53.609375 8.296875 
L 53.609375 0 
L 7.328125 0 
L 7.328125 8.296875 
Q 12.9375 14.109375 22.625 23.890625 
Q 32.328125 33.6875 34.8125 36.53125 
Q 39.546875 41.84375 41.421875 45.53125 
Q 43.3125 49.21875 43.3125 52.78125 
Q 43.3125 58.59375 39.234375 62.25 
Q 35.15625 65.921875 28.609375 65.921875 
Q 23.96875 65.921875 18.8125 64.3125 
Q 13.671875 62.703125 7.8125 59.421875 
L 7.8125 69.390625 
Q 13.765625 71.78125 18.9375 73 
Q 24.125 74.21875 28.421875 74.21875 
Q 39.75 74.21875 46.484375 68.546875 
Q 53.21875 62.890625 53.21875 53.421875 
Q 53.21875 48.921875 51.53125 44.890625 
Q 49.859375 40.875 45.40625 35.40625 
Q 44.1875 33.984375 37.640625 27.21875 
Q 31.109375 20.453125 19.1875 8.296875 
z
" id="DejaVuSans-50"/>
      </defs>
      <g transform="translate(158.328417 322.182437)scale(0.1 -0.1)">
       <use xlink:href="#DejaVuSans-8722"/>
       <use x="83.789062" xlink:href="#DejaVuSans-50"/>
      </g>
     </g>
    </g>
    <g id="xtick_4">
     <g id="line2d_4">
      <g>
       <use style="stroke:#000000;stroke-width:0.8;" x="207.14442" xlink:href="#mdc5e17d7ba" y="307.584"/>
      </g>
     </g>
     <g id="text_4">
      <!-- −1 -->
      <defs>
       <path d="M 12.40625 8.296875 
L 28.515625 8.296875 
L 28.515625 63.921875 
L 10.984375 60.40625 
L 10.984375 69.390625 
L 28.421875 72.90625 
L 38.28125 72.90625 
L 38.28125 8.296875 
L 54.390625 8.296875 
L 54.390625 0 
L 12.40625 0 
z
" id="DejaVuSans-49"/>
      </defs>
      <g transform="translate(199.773326 322.182437)scale(0.1 -0.1)">
       <use xlink:href="#DejaVuSans-8722"/>
       <use x="83.789062" xlink:href="#DejaVuSans-49"/>
      </g>
     </g>
    </g>
    <g id="xtick_5">
     <g id="line2d_5">
      <g>
       <use style="stroke:#000000;stroke-width:0.8;" x="248.589328" xlink:href="#mdc5e17d7ba" y="307.584"/>
      </g>
     </g>
     <g id="text_5">
      <!-- 0 -->
      <defs>
       <path d="M 31.78125 66.40625 
Q 24.171875 66.40625 20.328125 58.90625 
Q 16.5 51.421875 16.5 36.375 
Q 16.5 21.390625 20.328125 13.890625 
Q 24.171875 6.390625 31.78125 6.390625 
Q 39.453125 6.390625 43.28125 13.890625 
Q 47.125 21.390625 47.125 36.375 
Q 47.125 51.421875 43.28125 58.90625 
Q 39.453125 66.40625 31.78125 66.40625 
z
M 31.78125 74.21875 
Q 44.046875 74.21875 50.515625 64.515625 
Q 56.984375 54.828125 56.984375 36.375 
Q 56.984375 17.96875 50.515625 8.265625 
Q 44.046875 -1.421875 31.78125 -1.421875 
Q 19.53125 -1.421875 13.0625 8.265625 
Q 6.59375 17.96875 6.59375 36.375 
Q 6.59375 54.828125 13.0625 64.515625 
Q 19.53125 74.21875 31.78125 74.21875 
z
" id="DejaVuSans-48"/>
      </defs>
      <g transform="translate(245.408078 322.182437)scale(0.1 -0.1)">
       <use xlink:href="#DejaVuSans-48"/>
      </g>
     </g>
    </g>
    <g id="xtick_6">
     <g id="line2d_6">
      <g>
       <use style="stroke:#000000;stroke-width:0.8;" x="290.034236" xlink:href="#mdc5e17d7ba" y="307.584"/>
      </g>
     </g>
     <g id="text_6">
      <!-- 1 -->
      <g transform="translate(286.852986 322.182437)scale(0.1 -0.1)">
       <use xlink:href="#DejaVuSans-49"/>
      </g>
     </g>
    </g>
    <g id="xtick_7">
     <g id="line2d_7">
      <g>
       <use style="stroke:#000000;stroke-width:0.8;" x="331.479145" xlink:href="#mdc5e17d7ba" y="307.584"/>
      </g>
     </g>
     <g id="text_7">
      <!-- 2 -->
      <g transform="translate(328.297895 322.182437)scale(0.1 -0.1)">
       <use xlink:href="#DejaVuSans-50"/>
      </g>
     </g>
    </g>
    <g id="xtick_8">
     <g id="line2d_8">
      <g>
       <use style="stroke:#000000;stroke-width:0.8;" x="372.924053" xlink:href="#mdc5e17d7ba" y="307.584"/>
      </g>
     </g>
     <g id="text_8">
      <!-- 3 -->
      <g transform="translate(369.742803 322.182437)scale(0.1 -0.1)">
       <use xlink:href="#DejaVuSans-51"/>
      </g>
     </g>
    </g>
    <g id="xtick_9">
     <g id="line2d_9">
      <g>
       <use style="stroke:#000000;stroke-width:0.8;" x="414.368962" xlink:href="#mdc5e17d7ba" y="307.584"/>
      </g>
     </g>
     <g id="text_9">
      <!-- 4 -->
      <g transform="translate(411.187712 322.182437)scale(0.1 -0.1)">
       <use xlink:href="#DejaVuSans-52"/>
      </g>
     </g>
    </g>
    <g id="text_10">
     <!-- Global Warming Potential (kgCO2eq/house-yr) -->
     <defs>
      <path d="M 59.515625 10.40625 
L 59.515625 29.984375 
L 43.40625 29.984375 
L 43.40625 38.09375 
L 69.28125 38.09375 
L 69.28125 6.78125 
Q 63.578125 2.734375 56.6875 0.65625 
Q 49.8125 -1.421875 42 -1.421875 
Q 24.90625 -1.421875 15.25 8.5625 
Q 5.609375 18.5625 5.609375 36.375 
Q 5.609375 54.25 15.25 64.234375 
Q 24.90625 74.21875 42 74.21875 
Q 49.125 74.21875 55.546875 72.453125 
Q 61.96875 70.703125 67.390625 67.28125 
L 67.390625 56.78125 
Q 61.921875 61.421875 55.765625 63.765625 
Q 49.609375 66.109375 42.828125 66.109375 
Q 29.4375 66.109375 22.71875 58.640625 
Q 16.015625 51.171875 16.015625 36.375 
Q 16.015625 21.625 22.71875 14.15625 
Q 29.4375 6.6875 42.828125 6.6875 
Q 48.046875 6.6875 52.140625 7.59375 
Q 56.25 8.5 59.515625 10.40625 
z
" id="DejaVuSans-71"/>
      <path d="M 9.421875 75.984375 
L 18.40625 75.984375 
L 18.40625 0 
L 9.421875 0 
z
" id="DejaVuSans-108"/>
      <path d="M 30.609375 48.390625 
Q 23.390625 48.390625 19.1875 42.75 
Q 14.984375 37.109375 14.984375 27.296875 
Q 14.984375 17.484375 19.15625 11.84375 
Q 23.34375 6.203125 30.609375 6.203125 
Q 37.796875 6.203125 41.984375 11.859375 
Q 46.1875 17.53125 46.1875 27.296875 
Q 46.1875 37.015625 41.984375 42.703125 
Q 37.796875 48.390625 30.609375 48.390625 
z
M 30.609375 56 
Q 42.328125 56 49.015625 48.375 
Q 55.71875 40.765625 55.71875 27.296875 
Q 55.71875 13.875 49.015625 6.21875 
Q 42.328125 -1.421875 30.609375 -1.421875 
Q 18.84375 -1.421875 12.171875 6.21875 
Q 5.515625 13.875 5.515625 27.296875 
Q 5.515625 40.765625 12.171875 48.375 
Q 18.84375 56 30.609375 56 
z
" id="DejaVuSans-111"/>
      <path d="M 48.6875 27.296875 
Q 48.6875 37.203125 44.609375 42.84375 
Q 40.53125 48.484375 33.40625 48.484375 
Q 26.265625 48.484375 22.1875 42.84375 
Q 18.109375 37.203125 18.109375 27.296875 
Q 18.109375 17.390625 22.1875 11.75 
Q 26.265625 6.109375 33.40625 6.109375 
Q 40.53125 6.109375 44.609375 11.75 
Q 48.6875 17.390625 48.6875 27.296875 
z
M 18.109375 46.390625 
Q 20.953125 51.265625 25.265625 53.625 
Q 29.59375 56 35.59375 56 
Q 45.5625 56 51.78125 48.09375 
Q 58.015625 40.1875 58.015625 27.296875 
Q 58.015625 14.40625 51.78125 6.484375 
Q 45.5625 -1.421875 35.59375 -1.421875 
Q 29.59375 -1.421875 25.265625 0.953125 
Q 20.953125 3.328125 18.109375 8.203125 
L 18.109375 0 
L 9.078125 0 
L 9.078125 75.984375 
L 18.109375 75.984375 
z
" id="DejaVuSans-98"/>
      <path d="M 34.28125 27.484375 
Q 23.390625 27.484375 19.1875 25 
Q 14.984375 22.515625 14.984375 16.5 
Q 14.984375 11.71875 18.140625 8.90625 
Q 21.296875 6.109375 26.703125 6.109375 
Q 34.1875 6.109375 38.703125 11.40625 
Q 43.21875 16.703125 43.21875 25.484375 
L 43.21875 27.484375 
z
M 52.203125 31.203125 
L 52.203125 0 
L 43.21875 0 
L 43.21875 8.296875 
Q 40.140625 3.328125 35.546875 0.953125 
Q 30.953125 -1.421875 24.3125 -1.421875 
Q 15.921875 -1.421875 10.953125 3.296875 
Q 6 8.015625 6 15.921875 
Q 6 25.140625 12.171875 29.828125 
Q 18.359375 34.515625 30.609375 34.515625 
L 43.21875 34.515625 
L 43.21875 35.40625 
Q 43.21875 41.609375 39.140625 45 
Q 35.0625 48.390625 27.6875 48.390625 
Q 23 48.390625 18.546875 47.265625 
Q 14.109375 46.140625 10.015625 43.890625 
L 10.015625 52.203125 
Q 14.9375 54.109375 19.578125 55.046875 
Q 24.21875 56 28.609375 56 
Q 40.484375 56 46.34375 49.84375 
Q 52.203125 43.703125 52.203125 31.203125 
z
" id="DejaVuSans-97"/>
      <path id="DejaVuSans-32"/>
      <path d="M 3.328125 72.90625 
L 13.28125 72.90625 
L 28.609375 11.28125 
L 43.890625 72.90625 
L 54.984375 72.90625 
L 70.3125 11.28125 
L 85.59375 72.90625 
L 95.609375 72.90625 
L 77.296875 0 
L 64.890625 0 
L 49.515625 63.28125 
L 33.984375 0 
L 21.578125 0 
z
" id="DejaVuSans-87"/>
      <path d="M 41.109375 46.296875 
Q 39.59375 47.171875 37.8125 47.578125 
Q 36.03125 48 33.890625 48 
Q 26.265625 48 22.1875 43.046875 
Q 18.109375 38.09375 18.109375 28.8125 
L 18.109375 0 
L 9.078125 0 
L 9.078125 54.6875 
L 18.109375 54.6875 
L 18.109375 46.1875 
Q 20.953125 51.171875 25.484375 53.578125 
Q 30.03125 56 36.53125 56 
Q 37.453125 56 38.578125 55.875 
Q 39.703125 55.765625 41.0625 55.515625 
z
" id="DejaVuSans-114"/>
      <path d="M 52 44.1875 
Q 55.375 50.25 60.0625 53.125 
Q 64.75 56 71.09375 56 
Q 79.640625 56 84.28125 50.015625 
Q 88.921875 44.046875 88.921875 33.015625 
L 88.921875 0 
L 79.890625 0 
L 79.890625 32.71875 
Q 79.890625 40.578125 77.09375 44.375 
Q 74.3125 48.1875 68.609375 48.1875 
Q 61.625 48.1875 57.5625 43.546875 
Q 53.515625 38.921875 53.515625 30.90625 
L 53.515625 0 
L 44.484375 0 
L 44.484375 32.71875 
Q 44.484375 40.625 41.703125 44.40625 
Q 38.921875 48.1875 33.109375 48.1875 
Q 26.21875 48.1875 22.15625 43.53125 
Q 18.109375 38.875 18.109375 30.90625 
L 18.109375 0 
L 9.078125 0 
L 9.078125 54.6875 
L 18.109375 54.6875 
L 18.109375 46.1875 
Q 21.1875 51.21875 25.484375 53.609375 
Q 29.78125 56 35.6875 56 
Q 41.65625 56 45.828125 52.96875 
Q 50 49.953125 52 44.1875 
z
" id="DejaVuSans-109"/>
      <path d="M 9.421875 54.6875 
L 18.40625 54.6875 
L 18.40625 0 
L 9.421875 0 
z
M 9.421875 75.984375 
L 18.40625 75.984375 
L 18.40625 64.59375 
L 9.421875 64.59375 
z
" id="DejaVuSans-105"/>
      <path d="M 54.890625 33.015625 
L 54.890625 0 
L 45.90625 0 
L 45.90625 32.71875 
Q 45.90625 40.484375 42.875 44.328125 
Q 39.84375 48.1875 33.796875 48.1875 
Q 26.515625 48.1875 22.3125 43.546875 
Q 18.109375 38.921875 18.109375 30.90625 
L 18.109375 0 
L 9.078125 0 
L 9.078125 54.6875 
L 18.109375 54.6875 
L 18.109375 46.1875 
Q 21.34375 51.125 25.703125 53.5625 
Q 30.078125 56 35.796875 56 
Q 45.21875 56 50.046875 50.171875 
Q 54.890625 44.34375 54.890625 33.015625 
z
" id="DejaVuSans-110"/>
      <path d="M 45.40625 27.984375 
Q 45.40625 37.75 41.375 43.109375 
Q 37.359375 48.484375 30.078125 48.484375 
Q 22.859375 48.484375 18.828125 43.109375 
Q 14.796875 37.75 14.796875 27.984375 
Q 14.796875 18.265625 18.828125 12.890625 
Q 22.859375 7.515625 30.078125 7.515625 
Q 37.359375 7.515625 41.375 12.890625 
Q 45.40625 18.265625 45.40625 27.984375 
z
M 54.390625 6.78125 
Q 54.390625 -7.171875 48.1875 -13.984375 
Q 42 -20.796875 29.203125 -20.796875 
Q 24.46875 -20.796875 20.265625 -20.09375 
Q 16.0625 -19.390625 12.109375 -17.921875 
L 12.109375 -9.1875 
Q 16.0625 -11.328125 19.921875 -12.34375 
Q 23.78125 -13.375 27.78125 -13.375 
Q 36.625 -13.375 41.015625 -8.765625 
Q 45.40625 -4.15625 45.40625 5.171875 
L 45.40625 9.625 
Q 42.625 4.78125 38.28125 2.390625 
Q 33.9375 0 27.875 0 
Q 17.828125 0 11.671875 7.65625 
Q 5.515625 15.328125 5.515625 27.984375 
Q 5.515625 40.671875 11.671875 48.328125 
Q 17.828125 56 27.875 56 
Q 33.9375 56 38.28125 53.609375 
Q 42.625 51.21875 45.40625 46.390625 
L 45.40625 54.6875 
L 54.390625 54.6875 
z
" id="DejaVuSans-103"/>
      <path d="M 19.671875 64.796875 
L 19.671875 37.40625 
L 32.078125 37.40625 
Q 38.96875 37.40625 42.71875 40.96875 
Q 46.484375 44.53125 46.484375 51.125 
Q 46.484375 57.671875 42.71875 61.234375 
Q 38.96875 64.796875 32.078125 64.796875 
z
M 9.8125 72.90625 
L 32.078125 72.90625 
Q 44.34375 72.90625 50.609375 67.359375 
Q 56.890625 61.8125 56.890625 51.125 
Q 56.890625 40.328125 50.609375 34.8125 
Q 44.34375 29.296875 32.078125 29.296875 
L 19.671875 29.296875 
L 19.671875 0 
L 9.8125 0 
z
" id="DejaVuSans-80"/>
      <path d="M 18.3125 70.21875 
L 18.3125 54.6875 
L 36.8125 54.6875 
L 36.8125 47.703125 
L 18.3125 47.703125 
L 18.3125 18.015625 
Q 18.3125 11.328125 20.140625 9.421875 
Q 21.96875 7.515625 27.59375 7.515625 
L 36.8125 7.515625 
L 36.8125 0 
L 27.59375 0 
Q 17.1875 0 13.234375 3.875 
Q 9.28125 7.765625 9.28125 18.015625 
L 9.28125 47.703125 
L 2.6875 47.703125 
L 2.6875 54.6875 
L 9.28125 54.6875 
L 9.28125 70.21875 
z
" id="DejaVuSans-116"/>
      <path d="M 56.203125 29.59375 
L 56.203125 25.203125 
L 14.890625 25.203125 
Q 15.484375 15.921875 20.484375 11.0625 
Q 25.484375 6.203125 34.421875 6.203125 
Q 39.59375 6.203125 44.453125 7.46875 
Q 49.3125 8.734375 54.109375 11.28125 
L 54.109375 2.78125 
Q 49.265625 0.734375 44.1875 -0.34375 
Q 39.109375 -1.421875 33.890625 -1.421875 
Q 20.796875 -1.421875 13.15625 6.1875 
Q 5.515625 13.8125 5.515625 26.8125 
Q 5.515625 40.234375 12.765625 48.109375 
Q 20.015625 56 32.328125 56 
Q 43.359375 56 49.78125 48.890625 
Q 56.203125 41.796875 56.203125 29.59375 
z
M 47.21875 32.234375 
Q 47.125 39.59375 43.09375 43.984375 
Q 39.0625 48.390625 32.421875 48.390625 
Q 24.90625 48.390625 20.390625 44.140625 
Q 15.875 39.890625 15.1875 32.171875 
z
" id="DejaVuSans-101"/>
      <path d="M 31 75.875 
Q 24.46875 64.65625 21.28125 53.65625 
Q 18.109375 42.671875 18.109375 31.390625 
Q 18.109375 20.125 21.3125 9.0625 
Q 24.515625 -2 31 -13.1875 
L 23.1875 -13.1875 
Q 15.875 -1.703125 12.234375 9.375 
Q 8.59375 20.453125 8.59375 31.390625 
Q 8.59375 42.28125 12.203125 53.3125 
Q 15.828125 64.359375 23.1875 75.875 
z
" id="DejaVuSans-40"/>
      <path d="M 9.078125 75.984375 
L 18.109375 75.984375 
L 18.109375 31.109375 
L 44.921875 54.6875 
L 56.390625 54.6875 
L 27.390625 29.109375 
L 57.625 0 
L 45.90625 0 
L 18.109375 26.703125 
L 18.109375 0 
L 9.078125 0 
z
" id="DejaVuSans-107"/>
      <path d="M 64.40625 67.28125 
L 64.40625 56.890625 
Q 59.421875 61.53125 53.78125 63.8125 
Q 48.140625 66.109375 41.796875 66.109375 
Q 29.296875 66.109375 22.65625 58.46875 
Q 16.015625 50.828125 16.015625 36.375 
Q 16.015625 21.96875 22.65625 14.328125 
Q 29.296875 6.6875 41.796875 6.6875 
Q 48.140625 6.6875 53.78125 8.984375 
Q 59.421875 11.28125 64.40625 15.921875 
L 64.40625 5.609375 
Q 59.234375 2.09375 53.4375 0.328125 
Q 47.65625 -1.421875 41.21875 -1.421875 
Q 24.65625 -1.421875 15.125 8.703125 
Q 5.609375 18.84375 5.609375 36.375 
Q 5.609375 53.953125 15.125 64.078125 
Q 24.65625 74.21875 41.21875 74.21875 
Q 47.75 74.21875 53.53125 72.484375 
Q 59.328125 70.75 64.40625 67.28125 
z
" id="DejaVuSans-67"/>
      <path d="M 39.40625 66.21875 
Q 28.65625 66.21875 22.328125 58.203125 
Q 16.015625 50.203125 16.015625 36.375 
Q 16.015625 22.609375 22.328125 14.59375 
Q 28.65625 6.59375 39.40625 6.59375 
Q 50.140625 6.59375 56.421875 14.59375 
Q 62.703125 22.609375 62.703125 36.375 
Q 62.703125 50.203125 56.421875 58.203125 
Q 50.140625 66.21875 39.40625 66.21875 
z
M 39.40625 74.21875 
Q 54.734375 74.21875 63.90625 63.9375 
Q 73.09375 53.65625 73.09375 36.375 
Q 73.09375 19.140625 63.90625 8.859375 
Q 54.734375 -1.421875 39.40625 -1.421875 
Q 24.03125 -1.421875 14.8125 8.828125 
Q 5.609375 19.09375 5.609375 36.375 
Q 5.609375 53.65625 14.8125 63.9375 
Q 24.03125 74.21875 39.40625 74.21875 
z
" id="DejaVuSans-79"/>
      <path d="M 14.796875 27.296875 
Q 14.796875 17.390625 18.875 11.75 
Q 22.953125 6.109375 30.078125 6.109375 
Q 37.203125 6.109375 41.296875 11.75 
Q 45.40625 17.390625 45.40625 27.296875 
Q 45.40625 37.203125 41.296875 42.84375 
Q 37.203125 48.484375 30.078125 48.484375 
Q 22.953125 48.484375 18.875 42.84375 
Q 14.796875 37.203125 14.796875 27.296875 
z
M 45.40625 8.203125 
Q 42.578125 3.328125 38.25 0.953125 
Q 33.9375 -1.421875 27.875 -1.421875 
Q 17.96875 -1.421875 11.734375 6.484375 
Q 5.515625 14.40625 5.515625 27.296875 
Q 5.515625 40.1875 11.734375 48.09375 
Q 17.96875 56 27.875 56 
Q 33.9375 56 38.25 53.625 
Q 42.578125 51.265625 45.40625 46.390625 
L 45.40625 54.6875 
L 54.390625 54.6875 
L 54.390625 -20.796875 
L 45.40625 -20.796875 
z
" id="DejaVuSans-113"/>
      <path d="M 25.390625 72.90625 
L 33.6875 72.90625 
L 8.296875 -9.28125 
L 0 -9.28125 
z
" id="DejaVuSans-47"/>
      <path d="M 54.890625 33.015625 
L 54.890625 0 
L 45.90625 0 
L 45.90625 32.71875 
Q 45.90625 40.484375 42.875 44.328125 
Q 39.84375 48.1875 33.796875 48.1875 
Q 26.515625 48.1875 22.3125 43.546875 
Q 18.109375 38.921875 18.109375 30.90625 
L 18.109375 0 
L 9.078125 0 
L 9.078125 75.984375 
L 18.109375 75.984375 
L 18.109375 46.1875 
Q 21.34375 51.125 25.703125 53.5625 
Q 30.078125 56 35.796875 56 
Q 45.21875 56 50.046875 50.171875 
Q 54.890625 44.34375 54.890625 33.015625 
z
" id="DejaVuSans-104"/>
      <path d="M 8.5 21.578125 
L 8.5 54.6875 
L 17.484375 54.6875 
L 17.484375 21.921875 
Q 17.484375 14.15625 20.5 10.265625 
Q 23.53125 6.390625 29.59375 6.390625 
Q 36.859375 6.390625 41.078125 11.03125 
Q 45.3125 15.671875 45.3125 23.6875 
L 45.3125 54.6875 
L 54.296875 54.6875 
L 54.296875 0 
L 45.3125 0 
L 45.3125 8.40625 
Q 42.046875 3.421875 37.71875 1 
Q 33.40625 -1.421875 27.6875 -1.421875 
Q 18.265625 -1.421875 13.375 4.4375 
Q 8.5 10.296875 8.5 21.578125 
z
M 31.109375 56 
z
" id="DejaVuSans-117"/>
      <path d="M 44.28125 53.078125 
L 44.28125 44.578125 
Q 40.484375 46.53125 36.375 47.5 
Q 32.28125 48.484375 27.875 48.484375 
Q 21.1875 48.484375 17.84375 46.4375 
Q 14.5 44.390625 14.5 40.28125 
Q 14.5 37.15625 16.890625 35.375 
Q 19.28125 33.59375 26.515625 31.984375 
L 29.59375 31.296875 
Q 39.15625 29.25 43.1875 25.515625 
Q 47.21875 21.78125 47.21875 15.09375 
Q 47.21875 7.46875 41.1875 3.015625 
Q 35.15625 -1.421875 24.609375 -1.421875 
Q 20.21875 -1.421875 15.453125 -0.5625 
Q 10.6875 0.296875 5.421875 2 
L 5.421875 11.28125 
Q 10.40625 8.6875 15.234375 7.390625 
Q 20.0625 6.109375 24.8125 6.109375 
Q 31.15625 6.109375 34.5625 8.28125 
Q 37.984375 10.453125 37.984375 14.40625 
Q 37.984375 18.0625 35.515625 20.015625 
Q 33.0625 21.96875 24.703125 23.78125 
L 21.578125 24.515625 
Q 13.234375 26.265625 9.515625 29.90625 
Q 5.8125 33.546875 5.8125 39.890625 
Q 5.8125 47.609375 11.28125 51.796875 
Q 16.75 56 26.8125 56 
Q 31.78125 56 36.171875 55.265625 
Q 40.578125 54.546875 44.28125 53.078125 
z
" id="DejaVuSans-115"/>
      <path d="M 4.890625 31.390625 
L 31.203125 31.390625 
L 31.203125 23.390625 
L 4.890625 23.390625 
z
" id="DejaVuSans-45"/>
      <path d="M 32.171875 -5.078125 
Q 28.375 -14.84375 24.75 -17.8125 
Q 21.140625 -20.796875 15.09375 -20.796875 
L 7.90625 -20.796875 
L 7.90625 -13.28125 
L 13.1875 -13.28125 
Q 16.890625 -13.28125 18.9375 -11.515625 
Q 21 -9.765625 23.484375 -3.21875 
L 25.09375 0.875 
L 2.984375 54.6875 
L 12.5 54.6875 
L 29.59375 11.921875 
L 46.6875 54.6875 
L 56.203125 54.6875 
z
" id="DejaVuSans-121"/>
      <path d="M 8.015625 75.875 
L 15.828125 75.875 
Q 23.140625 64.359375 26.78125 53.3125 
Q 30.421875 42.28125 30.421875 31.390625 
Q 30.421875 20.453125 26.78125 9.375 
Q 23.140625 -1.703125 15.828125 -13.1875 
L 8.015625 -13.1875 
Q 14.5 -2 17.703125 9.0625 
Q 20.90625 20.125 20.90625 31.390625 
Q 20.90625 42.671875 17.703125 53.65625 
Q 14.5 64.65625 8.015625 75.875 
z
" id="DejaVuSans-41"/>
     </defs>
     <g transform="translate(120.958437 335.860562)scale(0.1 -0.1)">
      <use xlink:href="#DejaVuSans-71"/>
      <use x="77.490234" xlink:href="#DejaVuSans-108"/>
      <use x="105.273438" xlink:href="#DejaVuSans-111"/>
      <use x="166.455078" xlink:href="#DejaVuSans-98"/>
      <use x="229.931641" xlink:href="#DejaVuSans-97"/>
      <use x="291.210938" xlink:href="#DejaVuSans-108"/>
      <use x="318.994141" xlink:href="#DejaVuSans-32"/>
      <use x="350.78125" xlink:href="#DejaVuSans-87"/>
      <use x="443.283203" xlink:href="#DejaVuSans-97"/>
      <use x="504.5625" xlink:href="#DejaVuSans-114"/>
      <use x="543.925781" xlink:href="#DejaVuSans-109"/>
      <use x="641.337891" xlink:href="#DejaVuSans-105"/>
      <use x="669.121094" xlink:href="#DejaVuSans-110"/>
      <use x="732.5" xlink:href="#DejaVuSans-103"/>
      <use x="795.976562" xlink:href="#DejaVuSans-32"/>
      <use x="827.763672" xlink:href="#DejaVuSans-80"/>
      <use x="884.441406" xlink:href="#DejaVuSans-111"/>
      <use x="945.623047" xlink:href="#DejaVuSans-116"/>
      <use x="984.832031" xlink:href="#DejaVuSans-101"/>
      <use x="1046.355469" xlink:href="#DejaVuSans-110"/>
      <use x="1109.734375" xlink:href="#DejaVuSans-116"/>
      <use x="1148.943359" xlink:href="#DejaVuSans-105"/>
      <use x="1176.726562" xlink:href="#DejaVuSans-97"/>
      <use x="1238.005859" xlink:href="#DejaVuSans-108"/>
      <use x="1265.789062" xlink:href="#DejaVuSans-32"/>
      <use x="1297.576172" xlink:href="#DejaVuSans-40"/>
      <use x="1336.589844" xlink:href="#DejaVuSans-107"/>
      <use x="1394.5" xlink:href="#DejaVuSans-103"/>
      <use x="1457.976562" xlink:href="#DejaVuSans-67"/>
      <use x="1527.800781" xlink:href="#DejaVuSans-79"/>
      <use x="1606.511719" xlink:href="#DejaVuSans-50"/>
      <use x="1670.134766" xlink:href="#DejaVuSans-101"/>
      <use x="1731.658203" xlink:href="#DejaVuSans-113"/>
      <use x="1795.134766" xlink:href="#DejaVuSans-47"/>
      <use x="1828.826172" xlink:href="#DejaVuSans-104"/>
      <use x="1892.205078" xlink:href="#DejaVuSans-111"/>
      <use x="1953.386719" xlink:href="#DejaVuSans-117"/>
      <use x="2016.765625" xlink:href="#DejaVuSans-115"/>
      <use x="2068.865234" xlink:href="#DejaVuSans-101"/>
      <use x="2130.388672" xlink:href="#DejaVuSans-45"/>
      <use x="2164.722656" xlink:href="#DejaVuSans-121"/>
      <use x="2223.902344" xlink:href="#DejaVuSans-114"/>
      <use x="2265.015625" xlink:href="#DejaVuSans-41"/>
     </g>
    </g>
   </g>
   <g id="matplotlib.axis_2">
    <g id="ytick_1">
     <g id="line2d_10">
      <defs>
       <path d="M 0 0 
L -3.5 0 
" id="m1857dc9990" style="stroke:#000000;stroke-width:0.8;"/>
      </defs>
      <g>
       <use style="stroke:#000000;stroke-width:0.8;" x="57.6" xlink:href="#m1857dc9990" y="295.488"/>
      </g>
     </g>
     <g id="text_11">
      <!-- 0.00 -->
      <defs>
       <path d="M 10.6875 12.40625 
L 21 12.40625 
L 21 0 
L 10.6875 0 
z
" id="DejaVuSans-46"/>
      </defs>
      <g transform="translate(28.334375 299.287219)scale(0.1 -0.1)">
       <use xlink:href="#DejaVuSans-48"/>
       <use x="63.623047" xlink:href="#DejaVuSans-46"/>
       <use x="95.410156" xlink:href="#DejaVuSans-48"/>
       <use x="159.033203" xlink:href="#DejaVuSans-48"/>
      </g>
     </g>
    </g>
    <g id="ytick_2">
     <g id="line2d_11">
      <g>
       <use style="stroke:#000000;stroke-width:0.8;" x="57.6" xlink:href="#m1857dc9990" y="263.80981"/>
      </g>
     </g>
     <g id="text_12">
      <!-- 0.25 -->
      <defs>
       <path d="M 10.796875 72.90625 
L 49.515625 72.90625 
L 49.515625 64.59375 
L 19.828125 64.59375 
L 19.828125 46.734375 
Q 21.96875 47.46875 24.109375 47.828125 
Q 26.265625 48.1875 28.421875 48.1875 
Q 40.625 48.1875 47.75 41.5 
Q 54.890625 34.8125 54.890625 23.390625 
Q 54.890625 11.625 47.5625 5.09375 
Q 40.234375 -1.421875 26.90625 -1.421875 
Q 22.3125 -1.421875 17.546875 -0.640625 
Q 12.796875 0.140625 7.71875 1.703125 
L 7.71875 11.625 
Q 12.109375 9.234375 16.796875 8.0625 
Q 21.484375 6.890625 26.703125 6.890625 
Q 35.15625 6.890625 40.078125 11.328125 
Q 45.015625 15.765625 45.015625 23.390625 
Q 45.015625 31 40.078125 35.4375 
Q 35.15625 39.890625 26.703125 39.890625 
Q 22.75 39.890625 18.8125 39.015625 
Q 14.890625 38.140625 10.796875 36.28125 
z
" id="DejaVuSans-53"/>
      </defs>
      <g transform="translate(28.334375 267.609029)scale(0.1 -0.1)">
       <use xlink:href="#DejaVuSans-48"/>
       <use x="63.623047" xlink:href="#DejaVuSans-46"/>
       <use x="95.410156" xlink:href="#DejaVuSans-50"/>
       <use x="159.033203" xlink:href="#DejaVuSans-53"/>
      </g>
     </g>
    </g>
    <g id="ytick_3">
     <g id="line2d_12">
      <g>
       <use style="stroke:#000000;stroke-width:0.8;" x="57.6" xlink:href="#m1857dc9990" y="232.13162"/>
      </g>
     </g>
     <g id="text_13">
      <!-- 0.50 -->
      <g transform="translate(28.334375 235.930839)scale(0.1 -0.1)">
       <use xlink:href="#DejaVuSans-48"/>
       <use x="63.623047" xlink:href="#DejaVuSans-46"/>
       <use x="95.410156" xlink:href="#DejaVuSans-53"/>
       <use x="159.033203" xlink:href="#DejaVuSans-48"/>
      </g>
     </g>
    </g>
    <g id="ytick_4">
     <g id="line2d_13">
      <g>
       <use style="stroke:#000000;stroke-width:0.8;" x="57.6" xlink:href="#m1857dc9990" y="200.453431"/>
      </g>
     </g>
     <g id="text_14">
      <!-- 0.75 -->
      <defs>
       <path d="M 8.203125 72.90625 
L 55.078125 72.90625 
L 55.078125 68.703125 
L 28.609375 0 
L 18.3125 0 
L 43.21875 64.59375 
L 8.203125 64.59375 
z
" id="DejaVuSans-55"/>
      </defs>
      <g transform="translate(28.334375 204.252649)scale(0.1 -0.1)">
       <use xlink:href="#DejaVuSans-48"/>
       <use x="63.623047" xlink:href="#DejaVuSans-46"/>
       <use x="95.410156" xlink:href="#DejaVuSans-55"/>
       <use x="159.033203" xlink:href="#DejaVuSans-53"/>
      </g>
     </g>
    </g>
    <g id="ytick_5">
     <g id="line2d_14">
      <g>
       <use style="stroke:#000000;stroke-width:0.8;" x="57.6" xlink:href="#m1857dc9990" y="168.775241"/>
      </g>
     </g>
     <g id="text_15">
      <!-- 1.00 -->
      <g transform="translate(28.334375 172.574459)scale(0.1 -0.1)">
       <use xlink:href="#DejaVuSans-49"/>
       <use x="63.623047" xlink:href="#DejaVuSans-46"/>
       <use x="95.410156" xlink:href="#DejaVuSans-48"/>
       <use x="159.033203" xlink:href="#DejaVuSans-48"/>
      </g>
     </g>
    </g>
    <g id="ytick_6">
     <g id="line2d_15">
      <g>
       <use style="stroke:#000000;stroke-width:0.8;" x="57.6" xlink:href="#m1857dc9990" y="137.097051"/>
      </g>
     </g>
     <g id="text_16">
      <!-- 1.25 -->
      <g transform="translate(28.334375 140.89627)scale(0.1 -0.1)">
       <use xlink:href="#DejaVuSans-49"/>
       <use x="63.623047" xlink:href="#DejaVuSans-46"/>
       <use x="95.410156" xlink:href="#DejaVuSans-50"/>
       <use x="159.033203" xlink:href="#DejaVuSans-53"/>
      </g>
     </g>
    </g>
    <g id="ytick_7">
     <g id="line2d_16">
      <g>
       <use style="stroke:#000000;stroke-width:0.8;" x="57.6" xlink:href="#m1857dc9990" y="105.418861"/>
      </g>
     </g>
     <g id="text_17">
      <!-- 1.50 -->
      <g transform="translate(28.334375 109.21808)scale(0.1 -0.1)">
       <use xlink:href="#DejaVuSans-49"/>
       <use x="63.623047" xlink:href="#DejaVuSans-46"/>
       <use x="95.410156" xlink:href="#DejaVuSans-53"/>
       <use x="159.033203" xlink:href="#DejaVuSans-48"/>
      </g>
     </g>
    </g>
    <g id="ytick_8">
     <g id="line2d_17">
      <g>
       <use style="stroke:#000000;stroke-width:0.8;" x="57.6" xlink:href="#m1857dc9990" y="73.740671"/>
      </g>
     </g>
     <g id="text_18">
      <!-- 1.75 -->
      <g transform="translate(28.334375 77.53989)scale(0.1 -0.1)">
       <use xlink:href="#DejaVuSans-49"/>
       <use x="63.623047" xlink:href="#DejaVuSans-46"/>
       <use x="95.410156" xlink:href="#DejaVuSans-55"/>
       <use x="159.033203" xlink:href="#DejaVuSans-53"/>
      </g>
     </g>
    </g>
    <g id="ytick_9">
     <g id="line2d_18">
      <g>
       <use style="stroke:#000000;stroke-width:0.8;" x="57.6" xlink:href="#m1857dc9990" y="42.062481"/>
      </g>
     </g>
     <g id="text_19">
      <!-- 2.00 -->
      <g transform="translate(28.334375 45.8617)scale(0.1 -0.1)">
       <use xlink:href="#DejaVuSans-50"/>
       <use x="63.623047" xlink:href="#DejaVuSans-46"/>
       <use x="95.410156" xlink:href="#DejaVuSans-48"/>
       <use x="159.033203" xlink:href="#DejaVuSans-48"/>
      </g>
     </g>
    </g>
    <g id="text_20">
     <!-- Circularity -->
     <defs>
      <path d="M 48.78125 52.59375 
L 48.78125 44.1875 
Q 44.96875 46.296875 41.140625 47.34375 
Q 37.3125 48.390625 33.40625 48.390625 
Q 24.65625 48.390625 19.8125 42.84375 
Q 14.984375 37.3125 14.984375 27.296875 
Q 14.984375 17.28125 19.8125 11.734375 
Q 24.65625 6.203125 33.40625 6.203125 
Q 37.3125 6.203125 41.140625 7.25 
Q 44.96875 8.296875 48.78125 10.40625 
L 48.78125 2.09375 
Q 45.015625 0.34375 40.984375 -0.53125 
Q 36.96875 -1.421875 32.421875 -1.421875 
Q 20.0625 -1.421875 12.78125 6.34375 
Q 5.515625 14.109375 5.515625 27.296875 
Q 5.515625 40.671875 12.859375 48.328125 
Q 20.21875 56 33.015625 56 
Q 37.15625 56 41.109375 55.140625 
Q 45.0625 54.296875 48.78125 52.59375 
z
" id="DejaVuSans-99"/>
     </defs>
     <g transform="translate(11.056875 200.086594)rotate(-90)scale(0.1 -0.1)">
      <use xlink:href="#DejaVuSans-67"/>
      <use x="69.824219" xlink:href="#DejaVuSans-105"/>
      <use x="97.607422" xlink:href="#DejaVuSans-114"/>
      <use x="136.470703" xlink:href="#DejaVuSans-99"/>
      <use x="191.451172" xlink:href="#DejaVuSans-117"/>
      <use x="254.830078" xlink:href="#DejaVuSans-108"/>
      <use x="282.613281" xlink:href="#DejaVuSans-97"/>
      <use x="343.892578" xlink:href="#DejaVuSans-114"/>
      <use x="385.005859" xlink:href="#DejaVuSans-105"/>
      <use x="412.789062" xlink:href="#DejaVuSans-116"/>
      <use x="451.998047" xlink:href="#DejaVuSans-121"/>
     </g>
     <!--  (Fraction of economic value regenerated) -->
     <defs>
      <path d="M 9.8125 72.90625 
L 51.703125 72.90625 
L 51.703125 64.59375 
L 19.671875 64.59375 
L 19.671875 43.109375 
L 48.578125 43.109375 
L 48.578125 34.8125 
L 19.671875 34.8125 
L 19.671875 0 
L 9.8125 0 
z
" id="DejaVuSans-70"/>
      <path d="M 37.109375 75.984375 
L 37.109375 68.5 
L 28.515625 68.5 
Q 23.6875 68.5 21.796875 66.546875 
Q 19.921875 64.59375 19.921875 59.515625 
L 19.921875 54.6875 
L 34.71875 54.6875 
L 34.71875 47.703125 
L 19.921875 47.703125 
L 19.921875 0 
L 10.890625 0 
L 10.890625 47.703125 
L 2.296875 47.703125 
L 2.296875 54.6875 
L 10.890625 54.6875 
L 10.890625 58.5 
Q 10.890625 67.625 15.140625 71.796875 
Q 19.390625 75.984375 28.609375 75.984375 
z
" id="DejaVuSans-102"/>
      <path d="M 2.984375 54.6875 
L 12.5 54.6875 
L 29.59375 8.796875 
L 46.6875 54.6875 
L 56.203125 54.6875 
L 35.6875 0 
L 23.484375 0 
z
" id="DejaVuSans-118"/>
      <path d="M 45.40625 46.390625 
L 45.40625 75.984375 
L 54.390625 75.984375 
L 54.390625 0 
L 45.40625 0 
L 45.40625 8.203125 
Q 42.578125 3.328125 38.25 0.953125 
Q 33.9375 -1.421875 27.875 -1.421875 
Q 17.96875 -1.421875 11.734375 6.484375 
Q 5.515625 14.40625 5.515625 27.296875 
Q 5.515625 40.1875 11.734375 48.09375 
Q 17.96875 56 27.875 56 
Q 33.9375 56 38.25 53.625 
Q 42.578125 51.265625 45.40625 46.390625 
z
M 14.796875 27.296875 
Q 14.796875 17.390625 18.875 11.75 
Q 22.953125 6.109375 30.078125 6.109375 
Q 37.203125 6.109375 41.296875 11.75 
Q 45.40625 17.390625 45.40625 27.296875 
Q 45.40625 37.203125 41.296875 42.84375 
Q 37.203125 48.484375 30.078125 48.484375 
Q 22.953125 48.484375 18.875 42.84375 
Q 14.796875 37.203125 14.796875 27.296875 
z
" id="DejaVuSans-100"/>
     </defs>
     <g transform="translate(22.254687 279.779562)rotate(-90)scale(0.1 -0.1)">
      <use xlink:href="#DejaVuSans-32"/>
      <use x="31.787109" xlink:href="#DejaVuSans-40"/>
      <use x="70.800781" xlink:href="#DejaVuSans-70"/>
      <use x="121.070312" xlink:href="#DejaVuSans-114"/>
      <use x="162.183594" xlink:href="#DejaVuSans-97"/>
      <use x="223.462891" xlink:href="#DejaVuSans-99"/>
      <use x="278.443359" xlink:href="#DejaVuSans-116"/>
      <use x="317.652344" xlink:href="#DejaVuSans-105"/>
      <use x="345.435547" xlink:href="#DejaVuSans-111"/>
      <use x="406.617188" xlink:href="#DejaVuSans-110"/>
      <use x="469.996094" xlink:href="#DejaVuSans-32"/>
      <use x="501.783203" xlink:href="#DejaVuSans-111"/>
      <use x="562.964844" xlink:href="#DejaVuSans-102"/>
      <use x="598.169922" xlink:href="#DejaVuSans-32"/>
      <use x="629.957031" xlink:href="#DejaVuSans-101"/>
      <use x="691.480469" xlink:href="#DejaVuSans-99"/>
      <use x="746.460938" xlink:href="#DejaVuSans-111"/>
      <use x="807.642578" xlink:href="#DejaVuSans-110"/>
      <use x="871.021484" xlink:href="#DejaVuSans-111"/>
      <use x="932.203125" xlink:href="#DejaVuSans-109"/>
      <use x="1029.615234" xlink:href="#DejaVuSans-105"/>
      <use x="1057.398438" xlink:href="#DejaVuSans-99"/>
      <use x="1112.378906" xlink:href="#DejaVuSans-32"/>
      <use x="1144.166016" xlink:href="#DejaVuSans-118"/>
      <use x="1203.345703" xlink:href="#DejaVuSans-97"/>
      <use x="1264.625" xlink:href="#DejaVuSans-108"/>
      <use x="1292.408203" xlink:href="#DejaVuSans-117"/>
      <use x="1355.787109" xlink:href="#DejaVuSans-101"/>
      <use x="1417.310547" xlink:href="#DejaVuSans-32"/>
      <use x="1449.097656" xlink:href="#DejaVuSans-114"/>
      <use x="1487.960938" xlink:href="#DejaVuSans-101"/>
      <use x="1549.484375" xlink:href="#DejaVuSans-103"/>
      <use x="1612.960938" xlink:href="#DejaVuSans-101"/>
      <use x="1674.484375" xlink:href="#DejaVuSans-110"/>
      <use x="1737.863281" xlink:href="#DejaVuSans-101"/>
      <use x="1799.386719" xlink:href="#DejaVuSans-114"/>
      <use x="1840.5" xlink:href="#DejaVuSans-97"/>
      <use x="1901.779297" xlink:href="#DejaVuSans-116"/>
      <use x="1940.988281" xlink:href="#DejaVuSans-101"/>
      <use x="2002.511719" xlink:href="#DejaVuSans-100"/>
      <use x="2065.988281" xlink:href="#DejaVuSans-41"/>
     </g>
    </g>
   </g>
   <g id="LineCollection_1">
    <path clip-path="url(#pade2ac49a7)" d="M 248.589328 295.488 
L 248.589328 53.568 
" style="fill:none;stroke:#ff0000;stroke-dasharray:5.55,2.4;stroke-dashoffset:0;stroke-opacity:0.7;stroke-width:1.5;"/>
   </g>
   <g id="patch_3">
    <path d="M 57.6 307.584 
L 57.6 41.472 
" style="fill:none;stroke:#000000;stroke-linecap:square;stroke-linejoin:miter;stroke-width:0.8;"/>
   </g>
   <g id="patch_4">
    <path d="M 414.72 307.584 
L 414.72 41.472 
" style="fill:none;stroke:#000000;stroke-linecap:square;stroke-linejoin:miter;stroke-width:0.8;"/>
   </g>
   <g id="patch_5">
    <path d="M 57.6 307.584 
L 414.72 307.584 
" style="fill:none;stroke:#000000;stroke-linecap:square;stroke-linejoin:miter;stroke-width:0.8;"/>
   </g>
   <g id="patch_6">
    <path d="M 57.6 41.472 
L 414.72 41.472 
" style="fill:none;stroke:#000000;stroke-linecap:square;stroke-linejoin:miter;stroke-width:0.8;"/>
   </g>
   <g id="patch_7">
    <path d="M 289.571732 84.152789 
Q 257.457059 87.30166 251.532737 88.842924 
" style="fill:none;stroke:#000000;stroke-linecap:round;"/>
    <path d="M 255.907433 89.771383 
L 251.532737 88.842924 
L 254.900322 85.900243 
" style="fill:none;stroke:#000000;stroke-linecap:round;"/>
   </g>
   <g id="text_21">
    <!-- Net-zero -->
    <defs>
     <path d="M 9.8125 72.90625 
L 23.09375 72.90625 
L 55.421875 11.921875 
L 55.421875 72.90625 
L 64.984375 72.90625 
L 64.984375 0 
L 51.703125 0 
L 19.390625 60.984375 
L 19.390625 0 
L 9.8125 0 
z
" id="DejaVuSans-78"/>
     <path d="M 5.515625 54.6875 
L 48.1875 54.6875 
L 48.1875 46.484375 
L 14.40625 7.171875 
L 48.1875 7.171875 
L 48.1875 0 
L 4.296875 0 
L 4.296875 8.203125 
L 38.09375 47.515625 
L 5.515625 47.515625 
z
" id="DejaVuSans-122"/>
    </defs>
    <g transform="translate(293.558711 78.658187)scale(0.1 -0.1)">
     <use xlink:href="#DejaVuSans-78"/>
     <use x="74.804688" xlink:href="#DejaVuSans-101"/>
     <use x="136.328125" xlink:href="#DejaVuSans-116"/>
     <use x="175.537109" xlink:href="#DejaVuSans-45"/>
     <use x="211.621094" xlink:href="#DejaVuSans-122"/>
     <use x="264.111328" xlink:href="#DejaVuSans-101"/>
     <use x="325.634766" xlink:href="#DejaVuSans-114"/>
     <use x="364.498047" xlink:href="#DejaVuSans-111"/>
    </g>
    <!-- Emissions -->
    <defs>
     <path d="M 9.8125 72.90625 
L 55.90625 72.90625 
L 55.90625 64.59375 
L 19.671875 64.59375 
L 19.671875 43.015625 
L 54.390625 43.015625 
L 54.390625 34.71875 
L 19.671875 34.71875 
L 19.671875 8.296875 
L 56.78125 8.296875 
L 56.78125 0 
L 9.8125 0 
z
" id="DejaVuSans-69"/>
    </defs>
    <g transform="translate(293.558711 89.856)scale(0.1 -0.1)">
     <use xlink:href="#DejaVuSans-69"/>
     <use x="63.183594" xlink:href="#DejaVuSans-109"/>
     <use x="160.595703" xlink:href="#DejaVuSans-105"/>
     <use x="188.378906" xlink:href="#DejaVuSans-115"/>
     <use x="240.478516" xlink:href="#DejaVuSans-115"/>
     <use x="292.578125" xlink:href="#DejaVuSans-105"/>
     <use x="320.361328" xlink:href="#DejaVuSans-111"/>
     <use x="381.542969" xlink:href="#DejaVuSans-110"/>
     <use x="444.921875" xlink:href="#DejaVuSans-115"/>
    </g>
   </g>
   <g id="legend_1">
    <g id="patch_8">
     <path d="M 342.566875 302.584 
L 407.72 302.584 
Q 409.72 302.584 409.72 300.584 
L 409.72 216.995562 
Q 409.72 214.995562 407.72 214.995562 
L 342.566875 214.995562 
Q 340.566875 214.995562 340.566875 216.995562 
L 340.566875 300.584 
Q 340.566875 302.584 342.566875 302.584 
z
" style="fill:#ffffff;opacity:0.8;stroke:#cccccc;stroke-linejoin:miter;"/>
    </g>
    <g id="text_22">
     <!-- LCC -->
     <defs>
      <path d="M 9.8125 72.90625 
L 19.671875 72.90625 
L 19.671875 8.296875 
L 55.171875 8.296875 
L 55.171875 0 
L 9.8125 0 
z
" id="DejaVuSans-76"/>
     </defs>
     <g transform="translate(344.566875 226.594)scale(0.1 -0.1)">
      <use xlink:href="#DejaVuSans-76"/>
      <use x="55.712891" xlink:href="#DejaVuSans-67"/>
      <use x="125.537109" xlink:href="#DejaVuSans-67"/>
     </g>
     <!-- ($/house-yr) -->
     <defs>
      <path d="M 33.796875 -14.703125 
L 28.90625 -14.703125 
L 28.859375 0 
Q 23.734375 0.09375 18.609375 1.1875 
Q 13.484375 2.296875 8.296875 4.5 
L 8.296875 13.28125 
Q 13.28125 10.15625 18.375 8.5625 
Q 23.484375 6.984375 28.90625 6.9375 
L 28.90625 29.203125 
Q 18.109375 30.953125 13.203125 35.15625 
Q 8.296875 39.359375 8.296875 46.6875 
Q 8.296875 54.640625 13.625 59.21875 
Q 18.953125 63.8125 28.90625 64.5 
L 28.90625 75.984375 
L 33.796875 75.984375 
L 33.796875 64.65625 
Q 38.328125 64.453125 42.578125 63.6875 
Q 46.828125 62.9375 50.875 61.625 
L 50.875 53.078125 
Q 46.828125 55.125 42.546875 56.25 
Q 38.28125 57.375 33.796875 57.5625 
L 33.796875 36.71875 
Q 44.875 35.015625 50.09375 30.609375 
Q 55.328125 26.21875 55.328125 18.609375 
Q 55.328125 10.359375 49.78125 5.59375 
Q 44.234375 0.828125 33.796875 0.09375 
z
M 28.90625 37.59375 
L 28.90625 57.625 
Q 23.25 56.984375 20.265625 54.390625 
Q 17.28125 51.8125 17.28125 47.515625 
Q 17.28125 43.3125 20.03125 40.96875 
Q 22.796875 38.625 28.90625 37.59375 
z
M 33.796875 28.21875 
L 33.796875 7.078125 
Q 39.984375 7.90625 43.140625 10.59375 
Q 46.296875 13.28125 46.296875 17.671875 
Q 46.296875 21.96875 43.28125 24.5 
Q 40.28125 27.046875 33.796875 28.21875 
z
" id="DejaVuSans-36"/>
     </defs>
     <g transform="translate(344.566875 237.791812)scale(0.1 -0.1)">
      <use xlink:href="#DejaVuSans-40"/>
      <use x="39.013672" xlink:href="#DejaVuSans-36"/>
      <use x="102.636719" xlink:href="#DejaVuSans-47"/>
      <use x="136.328125" xlink:href="#DejaVuSans-104"/>
      <use x="199.707031" xlink:href="#DejaVuSans-111"/>
      <use x="260.888672" xlink:href="#DejaVuSans-117"/>
      <use x="324.267578" xlink:href="#DejaVuSans-115"/>
      <use x="376.367188" xlink:href="#DejaVuSans-101"/>
      <use x="437.890625" xlink:href="#DejaVuSans-45"/>
      <use x="472.224609" xlink:href="#DejaVuSans-121"/>
      <use x="531.404297" xlink:href="#DejaVuSans-114"/>
      <use x="572.517578" xlink:href="#DejaVuSans-41"/>
     </g>
    </g>
    <g id="line2d_19"/>
    <g id="line2d_20">
     <defs>
      <path d="M 0 3 
C 0.795609 3 1.55874 2.683901 2.12132 2.12132 
C 2.683901 1.55874 3 0.795609 3 0 
C 3 -0.795609 2.683901 -1.55874 2.12132 -2.12132 
C 1.55874 -2.683901 0.795609 -3 0 -3 
C -0.795609 -3 -1.55874 -2.683901 -2.12132 -2.12132 
C -2.683901 -1.55874 -3 -0.795609 -3 0 
C -3 0.795609 -2.683901 1.55874 -2.12132 2.12132 
C -1.55874 2.683901 -0.795609 3 0 3 
z
" id="m6a87cf7dc9" style="stroke:#e85d0d;stroke-opacity:0.7;"/>
     </defs>
     <g>
      <use style="fill:#e85d0d;fill-opacity:0.7;stroke:#e85d0d;stroke-opacity:0.7;" x="363.143438" xlink:href="#m6a87cf7dc9" y="248.969937"/>
     </g>
    </g>
    <g id="text_23">
     <!-- $\mathdefault{0.6}$ -->
     <defs>
      <path d="M 33.015625 40.375 
Q 26.375 40.375 22.484375 35.828125 
Q 18.609375 31.296875 18.609375 23.390625 
Q 18.609375 15.53125 22.484375 10.953125 
Q 26.375 6.390625 33.015625 6.390625 
Q 39.65625 6.390625 43.53125 10.953125 
Q 47.40625 15.53125 47.40625 23.390625 
Q 47.40625 31.296875 43.53125 35.828125 
Q 39.65625 40.375 33.015625 40.375 
z
M 52.59375 71.296875 
L 52.59375 62.3125 
Q 48.875 64.0625 45.09375 64.984375 
Q 41.3125 65.921875 37.59375 65.921875 
Q 27.828125 65.921875 22.671875 59.328125 
Q 17.53125 52.734375 16.796875 39.40625 
Q 19.671875 43.65625 24.015625 45.921875 
Q 28.375 48.1875 33.59375 48.1875 
Q 44.578125 48.1875 50.953125 41.515625 
Q 57.328125 34.859375 57.328125 23.390625 
Q 57.328125 12.15625 50.6875 5.359375 
Q 44.046875 -1.421875 33.015625 -1.421875 
Q 20.359375 -1.421875 13.671875 8.265625 
Q 6.984375 17.96875 6.984375 36.375 
Q 6.984375 53.65625 15.1875 63.9375 
Q 23.390625 74.21875 37.203125 74.21875 
Q 40.921875 74.21875 44.703125 73.484375 
Q 48.484375 72.75 52.59375 71.296875 
z
" id="DejaVuSans-54"/>
     </defs>
     <g transform="translate(381.143438 252.469937)scale(0.1 -0.1)">
      <use transform="translate(0 0.78125)" xlink:href="#DejaVuSans-48"/>
      <use transform="translate(63.623047 0.78125)" xlink:href="#DejaVuSans-46"/>
      <use transform="translate(95.410156 0.78125)" xlink:href="#DejaVuSans-54"/>
     </g>
    </g>
    <g id="line2d_21"/>
    <g id="line2d_22">
     <defs>
      <path d="M 0 3 
C 0.795609 3 1.55874 2.683901 2.12132 2.12132 
C 2.683901 1.55874 3 0.795609 3 0 
C 3 -0.795609 2.683901 -1.55874 2.12132 -2.12132 
C 1.55874 -2.683901 0.795609 -3 0 -3 
C -0.795609 -3 -1.55874 -2.683901 -2.12132 -2.12132 
C -2.683901 -1.55874 -3 -0.795609 -3 0 
C -3 0.795609 -2.683901 1.55874 -2.12132 2.12132 
C -1.55874 2.683901 -0.795609 3 0 3 
z
" id="md96a7b0cb6" style="stroke:#fdd5ac;stroke-opacity:0.7;"/>
     </defs>
     <g>
      <use style="fill:#fdd5ac;fill-opacity:0.7;stroke:#fdd5ac;stroke-opacity:0.7;" x="363.143438" xlink:href="#md96a7b0cb6" y="263.648062"/>
     </g>
    </g>
    <g id="text_24">
     <!-- $\mathdefault{1.2}$ -->
     <g transform="translate(381.143438 267.148062)scale(0.1 -0.1)">
      <use transform="translate(0 0.78125)" xlink:href="#DejaVuSans-49"/>
      <use transform="translate(63.623047 0.78125)" xlink:href="#DejaVuSans-46"/>
      <use transform="translate(89.910156 0.78125)" xlink:href="#DejaVuSans-50"/>
     </g>
    </g>
    <g id="line2d_23"/>
    <g id="line2d_24">
     <defs>
      <path d="M 0 3 
C 0.795609 3 1.55874 2.683901 2.12132 2.12132 
C 2.683901 1.55874 3 0.795609 3 0 
C 3 -0.795609 2.683901 -1.55874 2.12132 -2.12132 
C 1.55874 -2.683901 0.795609 -3 0 -3 
C -0.795609 -3 -1.55874 -2.683901 -2.12132 -2.12132 
C -2.683901 -1.55874 -3 -0.795609 -3 0 
C -3 0.795609 -2.683901 1.55874 -2.12132 2.12132 
C -1.55874 2.683901 -0.795609 3 0 3 
z
" id="mc89cb21903" style="stroke:#cadef0;stroke-opacity:0.7;"/>
     </defs>
     <g>
      <use style="fill:#cadef0;fill-opacity:0.7;stroke:#cadef0;stroke-opacity:0.7;" x="363.143438" xlink:href="#mc89cb21903" y="278.326188"/>
     </g>
    </g>
    <g id="text_25">
     <!-- $\mathdefault{1.8}$ -->
     <defs>
      <path d="M 31.78125 34.625 
Q 24.75 34.625 20.71875 30.859375 
Q 16.703125 27.09375 16.703125 20.515625 
Q 16.703125 13.921875 20.71875 10.15625 
Q 24.75 6.390625 31.78125 6.390625 
Q 38.8125 6.390625 42.859375 10.171875 
Q 46.921875 13.96875 46.921875 20.515625 
Q 46.921875 27.09375 42.890625 30.859375 
Q 38.875 34.625 31.78125 34.625 
z
M 21.921875 38.8125 
Q 15.578125 40.375 12.03125 44.71875 
Q 8.5 49.078125 8.5 55.328125 
Q 8.5 64.0625 14.71875 69.140625 
Q 20.953125 74.21875 31.78125 74.21875 
Q 42.671875 74.21875 48.875 69.140625 
Q 55.078125 64.0625 55.078125 55.328125 
Q 55.078125 49.078125 51.53125 44.71875 
Q 48 40.375 41.703125 38.8125 
Q 48.828125 37.15625 52.796875 32.3125 
Q 56.78125 27.484375 56.78125 20.515625 
Q 56.78125 9.90625 50.3125 4.234375 
Q 43.84375 -1.421875 31.78125 -1.421875 
Q 19.734375 -1.421875 13.25 4.234375 
Q 6.78125 9.90625 6.78125 20.515625 
Q 6.78125 27.484375 10.78125 32.3125 
Q 14.796875 37.15625 21.921875 38.8125 
z
M 18.3125 54.390625 
Q 18.3125 48.734375 21.84375 45.5625 
Q 25.390625 42.390625 31.78125 42.390625 
Q 38.140625 42.390625 41.71875 45.5625 
Q 45.3125 48.734375 45.3125 54.390625 
Q 45.3125 60.0625 41.71875 63.234375 
Q 38.140625 66.40625 31.78125 66.40625 
Q 25.390625 66.40625 21.84375 63.234375 
Q 18.3125 60.0625 18.3125 54.390625 
z
" id="DejaVuSans-56"/>
     </defs>
     <g transform="translate(381.143438 281.826188)scale(0.1 -0.1)">
      <use transform="translate(0 0.78125)" xlink:href="#DejaVuSans-49"/>
      <use transform="translate(63.623047 0.78125)" xlink:href="#DejaVuSans-46"/>
      <use transform="translate(92.785156 0.78125)" xlink:href="#DejaVuSans-56"/>
     </g>
    </g>
    <g id="line2d_25"/>
    <g id="line2d_26">
     <defs>
      <path d="M 0 3 
C 0.795609 3 1.55874 2.683901 2.12132 2.12132 
C 2.683901 1.55874 3 0.795609 3 0 
C 3 -0.795609 2.683901 -1.55874 2.12132 -2.12132 
C 1.55874 -2.683901 0.795609 -3 0 -3 
C -0.795609 -3 -1.55874 -2.683901 -2.12132 -2.12132 
C -2.683901 -1.55874 -3 -0.795609 -3 0 
C -3 0.795609 -2.683901 1.55874 -2.12132 2.12132 
C -1.55874 2.683901 -0.795609 3 0 3 
z
" id="m59ae36e140" style="stroke:#3484bf;stroke-opacity:0.7;"/>
     </defs>
     <g>
      <use style="fill:#3484bf;fill-opacity:0.7;stroke:#3484bf;stroke-opacity:0.7;" x="363.143438" xlink:href="#m59ae36e140" y="293.004312"/>
     </g>
    </g>
    <g id="text_26">
     <!-- $\mathdefault{2.4}$ -->
     <g transform="translate(381.143438 296.504312)scale(0.1 -0.1)">
      <use transform="translate(0 0.78125)" xlink:href="#DejaVuSans-50"/>
      <use transform="translate(63.623047 0.78125)" xlink:href="#DejaVuSans-46"/>
      <use transform="translate(95.410156 0.78125)" xlink:href="#DejaVuSans-52"/>
     </g>
    </g>
   </g>
   <g id="legend_2">
    <g id="patch_9">
     <path d="M 342.566875 302.584 
L 407.72 302.584 
Q 409.72 302.584 409.72 300.584 
L 409.72 216.995562 
Q 409.72 214.995562 407.72 214.995562 
L 342.566875 214.995562 
Q 340.566875 214.995562 340.566875 216.995562 
L 340.566875 300.584 
Q 340.566875 302.584 342.566875 302.584 
z
" style="fill:#ffffff;opacity:0.8;stroke:#cccccc;stroke-linejoin:miter;"/>
    </g>
    <g id="text_27">
     <!-- LCC -->
     <g transform="translate(344.566875 226.594)scale(0.1 -0.1)">
      <use xlink:href="#DejaVuSans-76"/>
      <use x="55.712891" xlink:href="#DejaVuSans-67"/>
      <use x="125.537109" xlink:href="#DejaVuSans-67"/>
     </g>
     <!-- ($/house-yr) -->
     <g transform="translate(344.566875 237.791812)scale(0.1 -0.1)">
      <use xlink:href="#DejaVuSans-40"/>
      <use x="39.013672" xlink:href="#DejaVuSans-36"/>
      <use x="102.636719" xlink:href="#DejaVuSans-47"/>
      <use x="136.328125" xlink:href="#DejaVuSans-104"/>
      <use x="199.707031" xlink:href="#DejaVuSans-111"/>
      <use x="260.888672" xlink:href="#DejaVuSans-117"/>
      <use x="324.267578" xlink:href="#DejaVuSans-115"/>
      <use x="376.367188" xlink:href="#DejaVuSans-101"/>
      <use x="437.890625" xlink:href="#DejaVuSans-45"/>
      <use x="472.224609" xlink:href="#DejaVuSans-121"/>
      <use x="531.404297" xlink:href="#DejaVuSans-114"/>
      <use x="572.517578" xlink:href="#DejaVuSans-41"/>
     </g>
    </g>
    <g id="line2d_27"/>
    <g id="line2d_28">
     <g>
      <use style="fill:#e85d0d;fill-opacity:0.7;stroke:#e85d0d;stroke-opacity:0.7;" x="363.143438" xlink:href="#m6a87cf7dc9" y="248.969937"/>
     </g>
    </g>
    <g id="text_28">
     <!-- $\mathdefault{0.6}$ -->
     <g transform="translate(381.143438 252.469937)scale(0.1 -0.1)">
      <use transform="translate(0 0.78125)" xlink:href="#DejaVuSans-48"/>
      <use transform="translate(63.623047 0.78125)" xlink:href="#DejaVuSans-46"/>
      <use transform="translate(95.410156 0.78125)" xlink:href="#DejaVuSans-54"/>
     </g>
    </g>
    <g id="line2d_29"/>
    <g id="line2d_30">
     <g>
      <use style="fill:#fdd5ac;fill-opacity:0.7;stroke:#fdd5ac;stroke-opacity:0.7;" x="363.143438" xlink:href="#md96a7b0cb6" y="263.648062"/>
     </g>
    </g>
    <g id="text_29">
     <!-- $\mathdefault{1.2}$ -->
     <g transform="translate(381.143438 267.148062)scale(0.1 -0.1)">
      <use transform="translate(0 0.78125)" xlink:href="#DejaVuSans-49"/>
      <use transform="translate(63.623047 0.78125)" xlink:href="#DejaVuSans-46"/>
      <use transform="translate(89.910156 0.78125)" xlink:href="#DejaVuSans-50"/>
     </g>
    </g>
    <g id="line2d_31"/>
    <g id="line2d_32">
     <g>
      <use style="fill:#cadef0;fill-opacity:0.7;stroke:#cadef0;stroke-opacity:0.7;" x="363.143438" xlink:href="#mc89cb21903" y="278.326188"/>
     </g>
    </g>
    <g id="text_30">
     <!-- $\mathdefault{1.8}$ -->
     <g transform="translate(381.143438 281.826188)scale(0.1 -0.1)">
      <use transform="translate(0 0.78125)" xlink:href="#DejaVuSans-49"/>
      <use transform="translate(63.623047 0.78125)" xlink:href="#DejaVuSans-46"/>
      <use transform="translate(92.785156 0.78125)" xlink:href="#DejaVuSans-56"/>
     </g>
    </g>
    <g id="line2d_33"/>
    <g id="line2d_34">
     <g>
      <use style="fill:#3484bf;fill-opacity:0.7;stroke:#3484bf;stroke-opacity:0.7;" x="363.143438" xlink:href="#m59ae36e140" y="293.004312"/>
     </g>
    </g>
    <g id="text_31">
     <!-- $\mathdefault{2.4}$ -->
     <g transform="translate(381.143438 296.504312)scale(0.1 -0.1)">
      <use transform="translate(0 0.78125)" xlink:href="#DejaVuSans-50"/>
      <use transform="translate(63.623047 0.78125)" xlink:href="#DejaVuSans-46"/>
      <use transform="translate(95.410156 0.78125)" xlink:href="#DejaVuSans-52"/>
     </g>
    </g>
   </g>
  </g>
 </g>
 <defs>
  <clipPath id="pade2ac49a7">
   <rect height="266.112" width="357.12" x="57.6" y="41.472"/>
  </clipPath>
 </defs>
</svg>
